<svg xmlns="http://www.w3.org/2000/svg" viewBox="0 0 1000 1000"><defs><style>.a{fill:none;}</style></defs><rect class="a" width="1000" height="1000"/><path d="M35,250H665c19.35,0,35-22.4,35-50s-15.65-50-35-50H35c-19.35,0-35,22.4-35,50S15.65,250,35,250Z"/><path d="M285,550H15c-8.3,0-15,22.4-15,50s6.7,50,15,50H285c8.3,0,15-22.4,15-50S293.3,550,285,550Z"/><path d="M475,350H25c-13.8,0-25,22.4-25,50s11.2,50,25,50H475c13.8,0,25-22.4,25-50S488.8,350,475,350Z"/><path d="M968.75,550H800V381.25C800,364,777.6,350,750,350s-50,14-50,31.25V550H531.25C514,550,500,572.4,500,600s14,50,31.25,50H700V818.75C700,836,722.4,850,750,850s50-14,50-31.25V650H968.75C986,650,1000,627.6,1000,600S986,550,968.75,550Z"/></svg>