<svg xmlns="http://www.w3.org/2000/svg" viewBox="0 0 35.73 31.02"><g id="Слой_2" data-name="Слой 2"><g id="Слой_1-2" data-name="Слой 1"><path d="M8.33,31a2.36,2.36,0,0,1,2.21-2.38h2.54a2.44,2.44,0,0,1,2.39-2.39V8.13a5.42,5.42,0,0,0-.81.07c-.74.2-1.47.4-2.19.65a19.87,19.87,0,0,1-3.07,1l-1,.16.18.35c1.48,2.86,3,5.72,4.44,8.58a.3.3,0,0,0,.31.19,2.06,2.06,0,0,1,.43,0,.49.49,0,0,1,.5.64,4.07,4.07,0,0,1-1.52,2.36,7.75,7.75,0,0,1-3.65,1.59A9.94,9.94,0,0,1,2.91,23,5.11,5.11,0,0,1,.3,20.55,3.46,3.46,0,0,1,0,19.71a.49.49,0,0,1,.49-.62H.57c.47.11.68-.14.88-.54q2.14-4.21,4.33-8.41l.1-.21a1.91,1.91,0,0,1-.36-.07A13.45,13.45,0,0,1,4,9.34,1.43,1.43,0,0,1,3.28,7.4a1.49,1.49,0,0,1,2-.7,9.05,9.05,0,0,0,1.37.42,3.2,3.2,0,0,0,2-.32c.64-.3,1.27-.6,1.92-.87a13.82,13.82,0,0,1,4-1c1-.11,2-.16,2.91-.23a2.39,2.39,0,0,1-1.67-1.29,2.31,2.31,0,0,1-.18-1.63A2.39,2.39,0,0,1,20.23,2a2.41,2.41,0,0,1-1.94,2.72c.73,0,1.46.06,2.18.12a16,16,0,0,1,6.06,1.64,8.19,8.19,0,0,0,1.56.59,3.63,3.63,0,0,0,2.1-.29,3.37,3.37,0,0,1,.86-.25,1.43,1.43,0,0,1,1.5,1.12,1.4,1.4,0,0,1-.84,1.66c-.6.24-1.21.43-1.84.64l.29.55q2.16,4.19,4.31,8.37a.28.28,0,0,0,.31.19,3,3,0,0,1,.42,0,.51.51,0,0,1,.51.65,3.88,3.88,0,0,1-1.15,2,7.1,7.1,0,0,1-3.13,1.72,10.33,10.33,0,0,1-6.2-.18,6.55,6.55,0,0,1-2.64-1.6,4,4,0,0,1-1.09-2A.49.49,0,0,1,22,19.1a.2.2,0,0,1,.11,0c.43.09.63-.13.82-.51,1.43-2.8,2.89-5.6,4.34-8.4l.11-.22-.53-.07A14.18,14.18,0,0,1,23.64,9a11.08,11.08,0,0,0-2.57-.79c-.26,0-.53,0-.81-.07v18.1a2.47,2.47,0,0,1,2.4,2.41h.24c.78,0,1.56,0,2.33.05a2.37,2.37,0,0,1,2.17,2.08,1.85,1.85,0,0,1,0,.25Zm2.36-11.94L7.13,12.39,3.56,19.08Zm21.49,0-3.57-6.69L25,19.08Z"/></g></g></svg>