<svg xmlns="http://www.w3.org/2000/svg" viewBox="0 0 500 500"><defs><style>.cls-1{fill:none;}.cls-2{fill:#010101;}</style></defs><g id="Слой_2" data-name="Слой 2"><g id="Слой_1-2" data-name="Слой 1"><g id="Слой_2-2" data-name="Слой 2"><rect class="cls-1" width="500" height="500"/></g><path d="M369.12,500H130.81a6.67,6.67,0,0,0-1.74-.77c-32.66-3.76-64.42-32.45-64.4-75.2,0-116-.13-232.09.09-348.13C64.84,32,97.37.05,141.31,0Q250,0,358.62.09a84.23,84.23,0,0,1,17.44,1.65c35.21,7.55,59,36.73,59.09,73.68q.38,174.55,0,349.11c-.09,31.88-15.24,55.26-44.22,68.91C384.11,496.63,376.41,497.86,369.12,500ZM250,66.23q-54.44,0-108.89,0c-13.44,0-20.76,7.4-20.83,20.9q-.09,20,0,40c.07,13.57,7.61,21.05,21.32,21.05q108.41,0,216.81,0c13.9,0,21.25-7.5,21.3-21.55.05-12.7,0-25.39,0-38.09,0-15.42-6.91-22.36-22.31-22.36ZM183.65,413h0c0-4.39.1-8.78,0-13.16-.28-11-7.79-18.6-18.81-18.84-8.45-.18-16.91-.16-25.36,0-10.88.2-18.62,7.31-19.13,18.1-.42,9.08-.43,18.21,0,27.29.52,10.86,8.22,17.9,19.11,18,8.78.1,17.56.17,26.33-.06a18,18,0,0,0,17.8-17.71C183.8,422.07,183.65,417.51,183.65,413Zm0-98.11h0c0-4.22.08-8.45,0-12.67-.25-11.35-7.74-18.86-19.05-19q-12.44-.17-24.87,0c-11.19.13-18.92,7.18-19.4,18.25-.39,8.92-.38,17.88,0,26.81.44,10.64,7.89,18,18.4,18.33,8.93.27,17.88.29,26.81,0,10.49-.36,17.8-8,18.1-18.52C183.79,323.63,183.68,319.24,183.68,314.85Zm132.51,97.68c0,4.39-.11,8.78,0,13.17.33,11.05,7.84,18.51,18.9,18.67q12.67.19,25.36,0c10.87-.15,18.53-7.18,19-18.1.44-9.08.43-18.21,0-27.29-.5-10.27-7.74-17.55-17.72-17.94q-13.89-.54-27.8,0c-10.2.37-17.41,8-17.76,18.33C316.07,403.75,316.2,408.14,316.19,412.53Zm-66.25,31.84v0c4.39,0,8.78.09,13.17,0,10.15-.25,17.79-7.05,18.3-17.16.48-9.72.46-19.5,0-29.22S273.55,381.4,263.87,381c-9.25-.34-18.54-.33-27.79,0-9.48.33-16.93,7.09-17.46,16.44a261.35,261.35,0,0,0,0,30.66c.56,9.32,8.23,15.89,17.64,16.21C240.84,444.5,245.39,444.37,249.94,444.37ZM281.54,315h0c0-4.88.31-9.77-.06-14.61-.77-10.1-8.17-17-18.32-17.17q-13.15-.22-26.32,0c-10.14.18-17.72,6.94-18.3,17.15a261,261,0,0,0,0,29.2c.55,9.7,7.8,16.56,17.51,16.95,9.25.38,18.53.38,27.78,0,9.9-.4,16.93-7.49,17.65-17.41C281.82,324.41,281.54,319.68,281.54,315Zm66.35-31.82c-4.23,0-8.45-.06-12.68,0-11.12.21-18.72,7.54-19,18.58-.2,8.6-.18,17.22,0,25.83.22,11.31,7.77,18.81,19.14,19q12.43.24,24.87,0c11.13-.2,18.85-7.38,19.33-18.44.39-8.92.4-17.88,0-26.8-.52-11.12-8.22-18.05-19.45-18.2C356,283.1,352,283.15,347.89,283.15Zm-.14-97.85c-4.38,0-8.78-.14-13.16,0-10.89.43-18.14,7.72-18.37,18.65q-.29,12.9,0,25.83c.21,10.59,6.76,18,17.34,18.63a233.39,233.39,0,0,0,28.73,0c10.08-.62,16.75-7.66,17.23-17.8.44-9.07.45-18.2,0-27.28-.52-10.75-7.88-17.61-18.61-18C356.53,185.17,352.14,185.3,347.75,185.3Zm-164,32c0-4.38.09-8.77,0-13.15-.26-11.13-7.52-18.54-18.71-18.81q-12.91-.32-25.83,0c-10.75.26-18.23,7.19-18.75,17.84-.44,9.23-.44,18.53,0,27.76.5,9.88,7.15,16.83,17,17.44a231.3,231.3,0,0,0,29.2,0c10.31-.66,16.75-8.13,17-18.42C183.79,225.74,183.69,221.52,183.7,217.29Zm66.48-31.9v0c-4.71,0-9.43-.19-14.13,0-9.57.46-16.9,6.9-17.44,16.37a274.9,274.9,0,0,0,0,30.65,16.42,16.42,0,0,0,15.29,15.74,254.52,254.52,0,0,0,32.09,0,16.51,16.51,0,0,0,15.27-15.78,301.49,301.49,0,0,0,0-30.66c-.47-9.15-7.77-15.76-17-16.27C259.61,185.17,254.89,185.39,250.18,185.39Z"/><path class="cls-2" d="M275.59,105.07c0,15.83-6.39,26.7-19.45,26.7-13.24,0-19.07-11.89-19.15-26.39,0-14.8,6.3-26.54,19.53-26.54C270.22,78.84,275.59,91.05,275.59,105.07Zm-26.54.31c-.08,11.74,2.75,17.34,7.39,17.34s7.16-5.83,7.16-17.49c0-11.34-2.42-17.33-7.23-17.33C252,87.9,249,93.49,249.05,105.38Z"/><path class="cls-2" d="M319.31,105.07c0,15.83-6.36,26.7-19.45,26.7s-19.06-11.89-19.14-26.39c0-14.8,6.31-26.54,19.53-26.54C314,78.84,319.31,91.05,319.31,105.07Zm-26.52.31c-.1,11.74,2.75,17.34,7.38,17.34s7.18-5.83,7.18-17.49c0-11.34-2.44-17.33-7.25-17.33C295.69,87.9,292.69,93.49,292.79,105.38Z"/><path class="cls-2" d="M363,105.07c0,15.83-6.38,26.7-19.45,26.7-13.23,0-19.06-11.89-19.14-26.39,0-14.8,6.31-26.54,19.53-26.54C357.7,78.84,363,91.05,363,105.07Zm-26.54.31c-.08,11.74,2.77,17.34,7.4,17.34s7.18-5.83,7.18-17.49c0-11.34-2.45-17.33-7.26-17.33C339.42,87.9,336.42,93.49,336.5,105.38Z"/></g></g></svg>