<svg xmlns="http://www.w3.org/2000/svg" viewBox="0 0 80.04 80.04"><path d="M42.2,0c.51.06,1,.13,1.54.17a35.6,35.6,0,0,1,7.91,1.54c.61.19,1.21.37,1.81.58.12,0,.28.19.28.3,0,1.33,0,2.66,0,4-14-4.89-26.88-3-38.1,7A34.1,34.1,0,0,0,4.12,37.2a34.91,34.91,0,0,0,9.31,27.11A34.51,34.51,0,0,0,37.17,75.92c12.06.85,22.27-3.29,30.17-12.45s10.2-19.89,7.83-31.7h4.07c.15,1,.33,2,.46,2.94s.23,2.09.34,3.14V42.2a2.45,2.45,0,0,0-.08.37c-.12,1.08-.22,2.15-.34,3.23a33.7,33.7,0,0,1-1.64,7,40.19,40.19,0,0,1-22.19,24,38,38,0,0,1-12.14,3c-.48,0-1,.11-1.45.17H37.85a2.57,2.57,0,0,0-.38-.08c-1.49-.17-3-.26-4.46-.51A39.45,39.45,0,0,1,20.61,75,40,40,0,0,1,7.46,63.33a39.58,39.58,0,0,1-5.88-12A37.65,37.65,0,0,1,.17,43.7c0-.51-.11-1-.17-1.5V37.76a2,2,0,0,0,.08-.33c.12-1.17.2-2.35.37-3.52a38.62,38.62,0,0,1,2.24-8.37,39.85,39.85,0,0,1,7.62-12.36A39.85,39.85,0,0,1,36.39.17L37.85,0Z"/><path d="M39,65.85l-28.08-29L18.09,31,34.31,43.91A180.91,180.91,0,0,1,76.1,7.27a2.68,2.68,0,0,1,.18.31c.48,1.12,1,2.24,1.43,3.35a.44.44,0,0,1-.1.6,133.88,133.88,0,0,0-11.44,12q-4.32,5.18-8.4,10.53A174.42,174.42,0,0,0,46.09,51.65a117.22,117.22,0,0,0-6.47,12.62c-.11.25-.2.51-.31.77Z"/></svg>