<svg xmlns="http://www.w3.org/2000/svg" viewBox="0 0 87.57 87.93"><path d="M0,43.43c.08-.9.16-1.81.26-2.71a41.06,41.06,0,0,1,5-15.92A42.3,42.3,0,0,1,27.93,5.35,42.65,42.65,0,0,1,56.24,5l.39.15C56,5.73,55.51,6.29,55,6.81a6.66,6.66,0,0,0-2.19,5.27c0,1.35,0,2.71,0,4.06v.52a30.12,30.12,0,0,0-24.65,2,29.6,29.6,0,0,0-13,13.66A30.38,30.38,0,0,0,57.41,71.83a29.81,29.81,0,0,0,13.66-16,30.14,30.14,0,0,0,.05-21h.56c1.59,0,3.19,0,4.78,0a6,6,0,0,0,4-1.86l2.11-2.13c.3.92.59,1.75.83,2.6a42.54,42.54,0,0,1-30,53.11,41.09,41.09,0,0,1-9,1.37,3.85,3.85,0,0,0-.49.07H41.19c-.2,0-.41-.07-.61-.08a41.26,41.26,0,0,1-13.75-3A42.39,42.39,0,0,1,7.44,69.34,41.71,41.71,0,0,1,.26,49.93C.16,49,.09,48.16,0,47.27Z"/><path d="M87.57,16.17a4.23,4.23,0,0,1-1.26,1.95q-5,5-10,10a1.07,1.07,0,0,1-.81.34H63.91a1.1,1.1,0,0,0-.86.35L45.43,46.45a3,3,0,1,1-4.6-4,6.89,6.89,0,0,1,.52-.56q8.7-8.7,17.41-17.39a1.17,1.17,0,0,0,.37-.9c0-3.85,0-7.71,0-11.57a1,1,0,0,1,.32-.78q5-5,9.92-9.92A4.39,4.39,0,0,1,71.49,0h.71a3,3,0,0,1,2.38,3.28c0,3,.11,6,.18,9,0,.16,0,.32,0,.51l.65,0,9.45.2a2.64,2.64,0,0,1,2.5,1.7c.08.18.13.36.19.54Z"/><path d="M51.35,23c-.49.48-1,.91-1.39,1.35q-3.6,3.6-7.21,7.19a1,1,0,0,1-.61.27,13.52,13.52,0,1,0,13.71,16c.16-.89.16-1.8.25-2.7a.89.89,0,0,1,.2-.51c2.76-2.78,5.53-5.54,8.3-8.31l.14-.12A24,24,0,1,1,51.35,23Z"/></svg>