<svg xmlns="http://www.w3.org/2000/svg" viewBox="0 0 31.22 35"><defs><style>.cls-1{fill:#fff;}</style></defs><g id="Слой_2" data-name="Слой 2"><g id="Слой_1-2" data-name="Слой 1"><path d="M27.47,35H3.75l-.13,0A4,4,0,0,1,.23,32.23,7.17,7.17,0,0,1,0,31.29V7.53c0-.06,0-.11,0-.17A3.89,3.89,0,0,1,1,5.24,4,4,0,0,1,4.1,3.79c.44,0,.87,0,1.32,0V3.52c0-.43,0-.86,0-1.29A2.56,2.56,0,0,1,7.71,0a2.53,2.53,0,0,1,2.56,1.41,2.66,2.66,0,0,1,.29,1.24V3.78h2.63V3.5c0-.41,0-.82,0-1.23a2.57,2.57,0,0,1,2-2.21A2.53,2.53,0,0,1,18,1.29a2.9,2.9,0,0,1,.36,1.58v.9H21V3.51c0-.46,0-.92.05-1.36A2.56,2.56,0,0,1,24.11.07a2.61,2.61,0,0,1,2,2.47V3.79a2.42,2.42,0,0,1,.27,0,10.69,10.69,0,0,1,1.5.08A4,4,0,0,1,31,6.71a8.2,8.2,0,0,1,.18.86V31.25a.93.93,0,0,0,0,.13,4,4,0,0,1-2.62,3.35A7.89,7.89,0,0,1,27.47,35ZM2.4,9.8v9.78c0,3.74,0,7.47,0,11.21a1.83,1.83,0,0,0,.31,1.09,1.74,1.74,0,0,0,1.52.73H27a1.73,1.73,0,0,0,1.78-1.76c0-2.07,0-4.14,0-6.2V9.94a.78.78,0,0,0,0-.14ZM16.88,5V2.82c0-.13,0-.26,0-.39a1.12,1.12,0,0,0-1.4-1,1.15,1.15,0,0,0-.82,1.07c0,1.09,0,2.18,0,3.27,0,.54,0,1.08,0,1.62a1.12,1.12,0,0,0,.69,1,1,1,0,0,0,1.11-.17,1.23,1.23,0,0,0,.44-1ZM9.11,5h0c0-.8,0-1.61,0-2.41a1.14,1.14,0,0,0-1-1.12,1.12,1.12,0,0,0-1.16,1,6.56,6.56,0,0,0,0,.89c0,1.34,0,2.68,0,4A1.14,1.14,0,0,0,8.36,8.47a1.16,1.16,0,0,0,.75-1.14C9.12,6.55,9.11,5.76,9.11,5ZM22.4,5c0,.81,0,1.62,0,2.42a1.12,1.12,0,0,0,1.48,1.08,1.18,1.18,0,0,0,.76-1.17c0-.76,0-1.52,0-2.29s0-1.61,0-2.41a1.12,1.12,0,1,0-2.24,0C22.39,3.43,22.4,4.2,22.4,5Z"/><path class="cls-1" d="M27.47,35a7.89,7.89,0,0,0,1.09-.27,4,4,0,0,0,2.62-3.35.93.93,0,0,1,0-.13V35Z"/><path class="cls-1" d="M0,31.29a7.17,7.17,0,0,0,.23.94A4,4,0,0,0,3.62,35l.13,0H0Z"/><path d="M9,23.21H4.58V19.29H9Z"/><path d="M14.86,19.29V23.2H10.47V19.29Z"/><path d="M16.35,23.2V19.29h4.39V23.2Z"/><path d="M22.25,19.28h4.39v3.93H22.25Z"/><path d="M26.64,14.06V18H22.25v-3.9Z"/><path d="M16.36,18v-3.9h4.38V18Z"/><path d="M10.47,14.05h4.38V18H10.47Z"/><path d="M4.57,14.05H9V18H4.57Z"/><path d="M4.58,28.43V24.54H9v3.89Z"/><path d="M10.47,24.54h4.38v3.89H10.47Z"/><path d="M16.36,24.54h4.38v3.9H16.36Z"/><path d="M26.64,28.44H22.25v-3.9h4.39Z"/></g></g></svg>