<svg xmlns="http://www.w3.org/2000/svg" viewBox="0 0 40 40"><g id="Слой_2" data-name="Слой 2"><g id="Слой_1-2" data-name="Слой 1"><path d="M20.9,40H19.1l-.24,0a19.34,19.34,0,0,1-5.78-1.2A19.88,19.88,0,0,1,2.75,30.12a19.4,19.4,0,0,1-2.63-8c0-.41-.08-.82-.12-1.23V19.1c0-.27.05-.54.08-.8a18.83,18.83,0,0,1,1.34-5.69,19.8,19.8,0,0,1,9-10.16A19.32,19.32,0,0,1,17.85.12c.41,0,.83-.08,1.25-.12h1.8l.28,0c1,.13,2,.19,2.94.4A19.66,19.66,0,0,1,36.26,8.36a19.4,19.4,0,0,1,3.62,9.51c0,.41.08.82.12,1.23v1.8a2,2,0,0,0,0,.24,17.93,17.93,0,0,1-.48,3.34A19.8,19.8,0,0,1,31,36.73a19.34,19.34,0,0,1-8.82,3.15ZM8.29,29.34,29.34,8.28a15,15,0,0,0-21,21.06ZM32.73,12.12,12.12,32.73A15,15,0,0,0,32.73,12.12Z"/></g></g></svg>