<svg xmlns="http://www.w3.org/2000/svg" viewBox="0 0 1000 1000"><defs><style>.a{fill:none;}</style></defs><rect class="a" width="1000" height="1000"/><path d="M466.8,982.33q-172.44,0-344.88-.07c-52.06-.11-89.58-24.08-112-71C3,896.73,0,881.08,0,865q0-338.18,0-676.35C.1,124.4,52.52,72.16,117.3,71.42c25.94-.29,51.89-.06,77.83-.06q174.47,0,348.91-.07c15.22,0,27.61,5,36.23,17.76,16.77,24.8.1,58.84-29.71,60.82-3.57.24-7.15.25-10.73.25q-208.68,0-417.35-.05c-12.66,0-23.9,3.1-32.83,12.45a37.55,37.55,0,0,0-10.61,24c-.21,3.12-.18,6.26-.18,9.39q0,330.79,0,661.59c0,5.12,0,10.36,1.06,15.34a38.44,38.44,0,0,0,33,30.09,85,85,0,0,0,10.71.47q343.2,0,686.41.09c12.59,0,24-2.36,33.17-11.59,8.33-8.41,11.69-18.73,11.67-30.46q-.09-98,0-195.92c0-55.69-.11-111.39,0-167.08.07-26.64,23.8-45.22,49.1-38.85,16.56,4.17,28.69,19,29.74,36.45.1,1.56.07,3.13.07,4.7q0,181.17,0,362.33c0,54.81-35.31,101.1-88.29,115.08-11.3,3-23.42,3.93-35.17,4Q638.58,982.58,466.8,982.33Z"/><path d="M229.23,818.66c-28.5-.74-47.11-28.57-36.42-55.55,11.11-28.06,22.76-55.9,34.18-83.83,20-49,39.94-98.14,60.35-147a61.38,61.38,0,0,1,12.77-19.31Q540.54,271.89,781.36,31.22c18.06-18.07,42.15-18.13,60.12-.18q72.63,72.53,145.12,145.19c17.93,18,17.86,41.43-.16,59.46Q745.08,477.24,503.52,718.6a51.27,51.27,0,0,1-18.4,11.7q-120.06,42.62-240.41,84.43C239.7,816.48,234.39,817.37,229.23,818.66Zm150-272.74,91.67,91.59L903.38,205.79l-91.67-91.66ZM298.59,712.38l138.94-48.72L353,579.08Z"/><path d="M829.8,204.53c.19,7.17-3.8,12.1-8.53,16.82Q765.49,277,709.8,332.84q-60.48,60.51-121.06,120.89a33.6,33.6,0,0,1-14,8.4c-8,2.2-16.27-2.62-20.14-9.95-4.21-7.94-2.77-16.95,4.18-23.94Q584.81,402,611,376q91.77-91.81,183.54-183.64c7.56-7.55,15.54-9.62,23.63-5.9C825.78,190,829.54,196.19,829.8,204.53Z"/><path d="M540.46,497c-1.32,2.46-3,7.79-6.38,11.47-10.49,11.28-21.52,22.06-32.61,32.76-8,7.73-19.45,7.6-27.15.2a19.47,19.47,0,0,1-.67-27.73c11-11.45,22.23-22.62,33.62-33.66,6-5.81,13.35-7.16,21.08-3.81S539.77,485.82,540.46,497Z"/></svg>