<svg xmlns="http://www.w3.org/2000/svg" viewBox="0 0 32.02 20"><g id="Слой_2" data-name="Слой 2"><g id="Слой_1-2" data-name="Слой 1"><path d="M32,9.94v.12c-.09.16-.2.31-.29.48A17.29,17.29,0,0,1,28.37,15,17.6,17.6,0,0,1,17.85,19.9a17,17,0,0,1-7.33-.78A17.77,17.77,0,0,1,.93,11.61c-.33-.51-.62-1-.93-1.55V9.94c.1-.16.2-.31.29-.47A17.43,17.43,0,0,1,3.66,5,17.57,17.57,0,0,1,14.17.1a17.4,17.4,0,0,1,7.34.78A17.8,17.8,0,0,1,31.1,8.39C31.42,8.9,31.72,9.42,32,9.94ZM23.55,5.08a7.94,7.94,0,0,1-.88,7.16,7.7,7.7,0,0,1-6.22,3.55,7.55,7.55,0,0,1-6-2.28,7.94,7.94,0,0,1-2-8.39l-.11,0A15.08,15.08,0,0,0,3.55,9.86a.36.36,0,0,0,0,.32c.42.57.81,1.17,1.28,1.69a14.42,14.42,0,0,0,14.27,4.78,14.44,14.44,0,0,0,9.32-6.43.32.32,0,0,0,0-.44c-.44-.56-.85-1.16-1.32-1.71A14.67,14.67,0,0,0,23.55,5.08ZM13,3.81a3,3,0,1,0,3,3A3,3,0,0,0,13,3.81Z"/></g></g></svg>