<svg xmlns="http://www.w3.org/2000/svg" viewBox="0 0 49.85 50.72"><path d="M35.33,46c0,.66,0,1.27,0,1.89a2.79,2.79,0,0,1-1.44,2.49,2.89,2.89,0,0,1-1.55.37H3a2.85,2.85,0,0,1-3-3v-38A2.86,2.86,0,0,1,3.07,6.68h10.8c.29,0,.4-.07.43-.38.1-1.22.24-2.43.36-3.65A2.82,2.82,0,0,1,17.91,0l16,1.58L47.24,2.94a2.87,2.87,0,0,1,2.6,3.15c-.27,2.87-.56,5.73-.85,8.6Q48.47,20,47.93,25.4L46.49,39.88l-.42,4.18a2.82,2.82,0,0,1-3.21,2.65l-5-.5Zm-3,1.85V9.64H2.91V47.82Zm2.86-29.18c0,1.2,0,2.33,0,3.46,0,.27.09.34.34.36l4.48.46a2.53,2.53,0,0,1,.36.07l-.27,2.85-4.9-.47c0,1.24,0,2.43,0,3.62,0,.06.18.17.28.18l3.51.34.73.08-.26,2.87L35.29,32c0,1.24,0,2.41,0,3.58,0,.2.12.21.26.23l1.91.18,1.67.17-.27,2.88-3.54-.36c0,.09,0,.14,0,.18,0,1.31,0,2.62,0,3.93,0,.21.08.26.27.28l6.49.66,1.08.1c1.23-12.7,2.45-25.35,3.68-38L17.46,2.89l-.37,3.79H32.33a2.77,2.77,0,0,1,2.78,2.1.33.33,0,0,0,.34.28l5.36.52.88.09-.28,2.88-6.18-.63c0,1.24,0,2.41,0,3.59,0,.07.16.19.25.21l3.28.34,2.27.23-.27,2.88Z"/><path d="M7.65,23.47V20.64h20v2.83Z"/><path d="M7.64,27.24h20V30.1l-.36,0q-9.64,0-19.3,0c-.31,0-.4-.08-.39-.39C7.65,28.91,7.64,28.1,7.64,27.24Z"/><path d="M27.69,36.77h-20V33.93h20Z"/><path d="M7.65,43.44V40.61h20v2.83Z"/><path d="M7.65,16.8V14h20V16.8Z"/></svg>