<svg xmlns="http://www.w3.org/2000/svg" viewBox="0 0 1000 1000"><defs><style>.a{fill:none;}</style></defs><rect class="a" width="1000" height="1000"/><path d="M650.79,971.14c-75.73,47.21-173.63,35.71-235.41-28.75C351.26,875.5,288,807.85,224,740.86c-10.59-11.09-11.49-24.69-13.76-38.21C200,641.89,189.84,581.1,179.48,520.36a22.29,22.29,0,0,0-4.75-9.81Q129,454.75,83,399.24C66.24,379.07,65.4,364,80.88,343c21.5-29.28,48.85-49.79,85.51-55.64,32.66-5.22,64,1.13,94.34,12.82,51.42,19.79,92.27,53.12,123.93,98,1.49,2.1,2.92,4.25,4.45,6.33s3.15,4.07,5.28,6.81c5.6-5.36,11.14-10.56,16.58-15.88q76-74.28,152-148.59c50.36-49.16,100.62-98.42,151.27-147.28C758,57.35,836.62,65.71,870.54,115.76c2.2,3.25,4.31,6.94,5.11,10.71,3.58,16.88,7.92,33.72,9.63,50.82,3,29.49-5.87,55.46-27.24,76.83-30.2,30.19-60,60.73-90.21,90.95-11.76,11.77-24,23.05-37.37,35.85,4.13,1.62,6.09,2.86,8.17,3.13,15.61,2,23.79,12.92,30.66,25.34,9.19,16.59,11.57,34.58,9.79,53.13-.63,6.46.28,9.54,7.5,10.83,50.28,9,66.32,49.42,66.42,84.8,0,4.05,0,7,5.29,7.92,71.62,12.57,89.32,92.59,54.89,143.91-7,10.42-15.82,19.75-24.68,28.73C835.27,792.65,670.75,958.69,650.79,971.14ZM153.66,372.07c.77,1,1.56,2.14,2.42,3.2Q197,425,238,474.65a47.56,47.56,0,0,1,10.64,23.29Q264.55,595.42,281,692.82a16,16,0,0,0,3.74,8q90.9,96.12,182.07,192c44.34,46.51,118,48.69,163.71,3.55,72.9-72.06,144.83-145.11,217-217.89,9.61-9.68,10.8-22.07,7.87-34.78a13.82,13.82,0,0,0-5.67-7.55c-10.22-6.64-24.31-5.56-34,2a36.21,36.21,0,0,1-47.54-3A35.46,35.46,0,0,1,766,587.73c3-3.62,6.3-6.94,9.51-10.36,10.13-10.77,11-23.8,2.21-33.37-9.1-9.89-26.74-11.23-37.14-2.81C724,554.64,703.31,553.92,690,539.42c-13.85-15.1-12.67-36.06,2.84-51.61,4.81-4.81,9.76-9.52,14.17-14.69,7.46-8.75,7.52-19.46.65-28.36-7.23-9.38-18.16-12.54-28-7.73-3.1,1.51-5.85,3.86-8.57,6.05a35.76,35.76,0,0,1-49-3.72c-13.75-15.11-12.48-35.44,3.41-51.55Q716.68,295.38,807.94,203c14.86-15,15.38-35.19,1.26-49.49-13.89-14.08-33.73-13.84-49,.66-4.25,4-8.27,8.32-12.47,12.42l-204.06,199q-63,61.44-126,122.85c-18.69,18.16-42.69,15.38-57.93-5.85-11.34-15.81-23.16-31.28-35.11-46.64-23.77-30.53-52.55-54.74-89-68.87-19.72-7.65-39.92-12.13-61.22-8.22C165.88,360.49,158.24,363.54,153.66,372.07Z"/><path d="M250.2,215.38a37,37,0,0,1-27.55-11.28c-23.76-23.66-47.54-47.29-71-71.28-14.64-15-14.38-37.14-.11-51,14.44-14,36.2-13.53,51.05,1.24q35.13,35,70.22,70c11.35,11.36,15.05,24.89,9,39.91C276,207.29,264.69,214.69,250.2,215.38Z"/><path d="M390.2,215.77c-14.23-.62-27.56-9.34-32.57-22.36-5.58-14.49-3.12-27.95,7.75-39,23.5-24,47.32-47.6,71.14-71.23,15.15-15,36.85-15.25,51.68-.79,14.09,13.74,13.92,36.08-.92,51.15-20.9,21.24-42.18,42.11-63.23,63.2-7,7-13.4,14.62-23.55,17.11C397.11,214.65,393.64,215.13,390.2,215.77Z"/><path d="M355.37,72.18c0,12,.19,23.93,0,35.88-.39,20.25-15.41,35.53-34.91,35.86a35.65,35.65,0,0,1-36.49-35.14q-.74-36.59,0-73.19A35.84,35.84,0,0,1,320.76,0C340,.4,355,16,355.37,36.29c.23,12,0,23.93,0,35.89Z"/></svg>