<svg xmlns="http://www.w3.org/2000/svg" viewBox="0 0 33.81 33.81"><g id="Слой_2" data-name="Слой 2"><g id="Слой_1-2" data-name="Слой 1"><path d="M16.53,33.81a10.12,10.12,0,0,1-1.12-.25,4.6,4.6,0,1,1,5.64-6.36.23.23,0,0,0,.26.16H26a4.51,4.51,0,0,0,1.55-.22,2.66,2.66,0,0,0,.64-.35.86.86,0,0,0,.28-.63h2.33c0,.29-.05.58-.11.86a4.47,4.47,0,0,1-3.06,3.41,5.07,5.07,0,0,1-1.81.31c-1.45,0-2.91,0-4.36,0a.21.21,0,0,0-.23.15,4.53,4.53,0,0,1-3.79,2.89l-.11,0Zm1.91-4.57a1.54,1.54,0,1,0-3.07,0,1.54,1.54,0,1,0,3.07,0Z"/><path d="M17.46,0l1,.13A10.56,10.56,0,0,1,23.65,2.5a10.8,10.8,0,0,1,3.79,6.22c.13.62.15,1.26.22,1.9a.91.91,0,0,1,0,.17H24.6l0-.69a8.39,8.39,0,0,0-.83-3.23,6.48,6.48,0,0,0-4.17-3.38,9.88,9.88,0,0,0-3.75-.29,7.84,7.84,0,0,0-3.16,1,6.48,6.48,0,0,0-3.1,4,9.39,9.39,0,0,0-.33,2.3v.3H6.14c0-.28,0-.57,0-.85A11.06,11.06,0,0,1,13.69.51,9.76,9.76,0,0,1,16.14,0a.8.8,0,0,0,.15,0Z"/><path d="M0,18.05c.06-.31.1-.63.17-.93a6.27,6.27,0,0,1,5.52-4.75c1.14-.08,2.28,0,3.42,0h.1V24.6h-.1c-1,0-2,0-3,0a6,6,0,0,1-4.73-2.35A5.88,5.88,0,0,1,0,19l0-.08Zm6.14,3.49V15.39c-.4.13-.78.24-1.15.38a2.74,2.74,0,0,0-1.9,2.41,2.69,2.69,0,0,0,.82,2.34A4.9,4.9,0,0,0,6.14,21.54Z"/><path d="M33.81,18.91c-.05.31-.1.63-.17.94a6.29,6.29,0,0,1-5.54,4.73c-1.08.08-2.17,0-3.26,0h-.23V12.36l.1,0c1,0,2,0,3,0a6.06,6.06,0,0,1,4.71,2.34A6,6,0,0,1,33.79,18a.31.31,0,0,0,0,.08Zm-6.37,3,.57-.17a4.14,4.14,0,0,0,2.26-1.67,3,3,0,0,0-.12-3.41,4.44,4.44,0,0,0-2.48-1.28Z"/></g></g></svg>