<svg xmlns="http://www.w3.org/2000/svg" viewBox="0 0 499.98 500"><g id="Слой_2" data-name="Слой 2"><g id="Слой_1-2" data-name="Слой 1"><path d="M421.71,428.68c2.26,8,5.86,15.81,6.49,23.86,2,26.17-18.43,47.38-45,47.41q-108.78.14-217.57,0H38.45C14.89,500,0,485.21,0,461.81q0-113.55,0-227.1c0-23.46,14.85-38.29,38.33-38.3,31.05,0,62.11-.35,93.16.09,27.12.39,49.45-10.47,68.88-28.13,21.08-19.14,31.67-43.53,34-71.75,1.62-19.62,2.56-39.37,5.48-58.8C244.13,9.23,262.12-2.88,293.59.57c27,3,42,21,51.35,44.66,9.83,24.82,12.5,50.94,11.36,77.24-1.07,24.44-4.12,48.79-6.36,73.93H451.81c23.91,0,42,13.21,46.88,34.14,5,21.53-4.74,40.79-26.13,51.72a9.26,9.26,0,0,0-.92.62c21.58,29.1,6.95,61.15-18.16,71.49,11,14.56,14.38,30.51,6.89,47.47S438.81,427.16,421.71,428.68ZM393.07,267.83h6.44c18.41,0,36.84.41,55.23-.25a34.15,34.15,0,0,0,16.51-5.35c9.7-6.26,13.08-18.68,9.46-29.7a26.51,26.51,0,0,0-25.42-18.24q-61.1-.1-122.19,0h-6.18c.27-1.76.39-2.86.61-3.94,7.94-38.75,12.94-77.76,9.45-117.42-1.56-17.68-4.77-35-13.43-50.82-5.81-10.6-13.8-18.85-25.77-22.48-21.46-6.49-36.87,2.36-41.85,24.08a21.17,21.17,0,0,0-.46,2.74c-1.1,13.33-2.33,26.66-3.24,40-1.16,17.09-1.94,34.4-8.69,50.32-18.82,44.42-53.07,69.52-100.41,78.89V481.68a9.93,9.93,0,0,0,1.83.41c80,0,159.94.12,239.9-.23,5.16,0,10.93-2.61,15.32-5.6,9.4-6.41,12.67-18.53,9.13-29.34a26.76,26.76,0,0,0-24.83-18.32c-9-.17-18.07,0-26.93,0V410.68c21.29,0,42.12.19,62.94-.07,14.51-.18,25.9-12.27,25.86-26.78a26.67,26.67,0,0,0-26-26.68c-3.71-.11-7.43,0-11.15,0H375.34V339.26c20.66,0,40.91,0,61.16,0,7.84,0,14.72-2.39,20.06-8.13,7.83-8.38,9.94-18.22,5.53-28.87S449.33,286,437.82,285.76c-14.82-.26-29.65-.06-44.75-.06ZM124.59,482.09V214.26H39.46c-15.21,0-21.6,6.43-21.6,21.76V460.87c0,1.68-.07,3.36.09,5,.85,8.69,7.82,16,16.48,16.1C64.34,482.24,94.26,482.09,124.59,482.09Z"/><path d="M71.5,410.7a17.85,17.85,0,1,1-17.92,17.48A17.92,17.92,0,0,1,71.5,410.7Z"/></g></g></svg>