<svg xmlns="http://www.w3.org/2000/svg" viewBox="0 0 36.49 36.5"><g id="Слой_2" data-name="Слой 2"><g id="Слой_1-2" data-name="Слой 1"><path d="M0,23.33v-17c0-.07,0-.13,0-.2A6.3,6.3,0,0,1,.88,3.5,6.69,6.69,0,0,1,7,0Q18.26,0,29.56,0a6.08,6.08,0,0,1,1.13.08A6.71,6.71,0,0,1,36.2,4.91a11.32,11.32,0,0,1,.29,1.43v17a.86.86,0,0,0,0,.17A6.75,6.75,0,0,1,34.12,28a6.82,6.82,0,0,1-4.65,1.68H16.21a.42.42,0,0,0-.39.21c-1.31,2-2.63,3.95-3.94,5.92l-.47.7-.12-.16Q9.15,33.13,7,29.91a.45.45,0,0,0-.45-.25,3.15,3.15,0,0,1-.53,0A6.83,6.83,0,0,1,.18,24.36C.1,24,.06,23.67,0,23.33Zm11.4,6.32.13-.18,2.77-4.16a.4.4,0,0,1,.39-.21H29.55a2.28,2.28,0,0,0,2.37-2.34V15.38c0-2.82,0-5.63,0-8.45a2.28,2.28,0,0,0-2.31-2.37H6.88a2.92,2.92,0,0,0-.5.05,2.27,2.27,0,0,0-1.82,2.3V17.12c0,1.89,0,3.77,0,5.66a2.25,2.25,0,0,0,2.14,2.31,8.69,8.69,0,0,0,1.25,0,.62.62,0,0,1,.62.33c.88,1.35,1.78,2.69,2.68,4Z"/><path d="M9.13,16V13.71H27.36V16Z"/><path d="M27.36,9.15v2.24H9.14V9.15Z"/><path d="M18.24,18.27v2.25H9.14V18.27Z"/></g></g></svg>