<svg xmlns="http://www.w3.org/2000/svg" viewBox="0 0 38.49 36.92"><g id="Слой_2" data-name="Слой 2"><g id="Слой_1-2" data-name="Слой 1"><path d="M35.88,6A13,13,0,0,0,27.61.29C27,.16,26.4.13,25.79.05l-.35,0H13.07c-.44.05-.88.08-1.32.14A12.74,12.74,0,0,0,4.48,3.73a14.64,14.64,0,0,0-4.33,8.7c-.06.4-.1.8-.15,1.2V15.4c.05.44.09.88.15,1.32A14.34,14.34,0,0,0,7.09,27.34a11.94,11.94,0,0,0,3.75,1.43l.27.06v.3c0,1.94,0,3.87,0,5.81a2,2,0,0,0,3.13,1.59,2.83,2.83,0,0,0,.37-.33l6.59-6.9a.77.77,0,0,1,.63-.26c1.14,0,2.27,0,3.41,0a12.63,12.63,0,0,0,9.12-4,14.47,14.47,0,0,0,3.91-8A14.92,14.92,0,0,0,35.88,6ZM29,20.46H9.5a2,2,0,0,1,0-4H29a2,2,0,1,1,0,4Zm0-8.17H9.5a2,2,0,0,1,0-4H29a2,2,0,1,1,0,4Z"/></g></g></svg>