<svg xmlns="http://www.w3.org/2000/svg" viewBox="0 0 249.9 221.64"><defs><style>.cls-1{fill:#fbc83f;}</style></defs><g id="Слой_2" data-name="Слой 2"><g id="Слой_1-2" data-name="Слой 1"><path class="cls-1" d="M215.12,0h-144A34.79,34.79,0,0,0,36.35,34.78v97.07a34.79,34.79,0,0,0,34.79,34.78h74.15l36.67,55h21V175.88H185.24V195l-18.92-28.39h48.8a34.78,34.78,0,0,0,34.78-34.78V34.78A34.78,34.78,0,0,0,215.12,0Zm18.61,131.85a18.63,18.63,0,0,1-18.61,18.61h-144a18.63,18.63,0,0,1-18.61-18.61V34.78a18.62,18.62,0,0,1,18.61-18.6h144a18.62,18.62,0,0,1,18.61,18.6Z"/><path class="cls-1" d="M34.78,185.58A18.62,18.62,0,0,1,16.18,167V69.91a18.59,18.59,0,0,1,10.47-16.7V36.13A34.76,34.76,0,0,0,0,69.91V167a34.78,34.78,0,0,0,34.78,34.78h4.81v19.88H57.38L76.8,201.76h83L149,185.58Z"/><rect class="cls-1" x="88.12" y="75.23" width="114.86" height="11.32"/><rect class="cls-1" x="88.12" y="42.06" width="63.09" height="11.32"/><rect class="cls-1" x="164.97" y="42.06" width="38.02" height="11.32"/><rect class="cls-1" x="178.32" y="108.39" width="24.67" height="11.32"/><rect class="cls-1" x="119.27" y="108.39" width="45.3" height="11.32"/><rect class="cls-1" x="88.12" y="108.39" width="17.39" height="11.32"/></g></g></svg>