<svg xmlns="http://www.w3.org/2000/svg" viewBox="0 0 43.55 49.98"><path d="M43.55,4.68c0,.36,0,.71,0,1.05q-.31,6.81-1.06,13.59c-.28,2.5-.55,5-.9,7.5a40,40,0,0,1-2.22,8.82,19.77,19.77,0,0,1-5.59,7.83,34.51,34.51,0,0,1-10.89,6.3,3,3,0,0,1-2.2,0A33.73,33.73,0,0,1,9.44,43.05,20.2,20.2,0,0,1,3,31.76q-.87-4.65-1.55-9.35A157.15,157.15,0,0,1,.05,6.05c0-.42,0-.84,0-1.25,0,0,0-.07,0-.14A19.1,19.1,0,0,0,11.73,6,16.26,16.26,0,0,0,21.78,0c.36.41.69.82,1.06,1.2A16.59,16.59,0,0,0,32,6,19,19,0,0,0,43.35,4.75ZM21.82,25H36.5l.37,0c.46-4.57.93-9.13,1.39-13.73A24.07,24.07,0,0,1,21.8,7V24.65c0,.11,0,.22,0,.33H6.91a1.89,1.89,0,0,0,0,.24c.31,1.8.61,3.61,1,5.41A15.08,15.08,0,0,0,12,38.5a27.19,27.19,0,0,0,9.51,6.2,2.49,2.49,0,0,0,.32.1V25.34C21.79,25.22,21.81,25.1,21.82,25Z"/></svg>