<svg xmlns="http://www.w3.org/2000/svg" viewBox="0 0 1000 1000"><path d="M58.59,712.12c1.91-7.19,5-20.22,8.84-33C78.28,642.63,71.12,609,50.55,578.18c-6.77-10.15-16.65-18.27-25.43-27C16.89,543,8.94,534.71,4.49,523.64a63.41,63.41,0,0,1,13.67-67.79c11.74-12,25.1-23.06,34.15-36.88,19.63-30,25.59-63,15.11-98.23-3.75-12.62-7.86-25.61-8.45-38.58-1.36-29.59,18.35-54.18,47-61.53,6.72-1.73,13.48-3.29,20.21-5,47.34-11.92,76.9-41.67,89.26-88.84,3-11.34,5.34-23.14,10.31-33.62,12.91-27.19,42.86-40,72.07-32.25,14,3.7,27.84,8.91,42.09,10.51,34.87,3.94,66.18-5.79,92.58-29.35,7.67-6.85,14.46-14.69,21.59-22.13,24.55-25.6,63.07-26.76,88.89-2.43,7.34,6.92,14.14,14.41,21.18,21.66,18.71,19.26,42.23,28.08,68.18,32.4,22.77,3.79,43.7-3,64.85-9.28,39.06-11.59,73.28,8,83,47.44,2.76,11.22,4.63,22.87,9.05,33.43,16.33,39.09,45.09,64,86.89,73.28,8.6,1.9,17.34,3.75,25.52,6.89,30,11.53,45.82,44.23,37.17,75.24-4,14.34-9.16,28.7-10.53,43.36-3.39,36.08,7.25,68,32.87,94.43,10.21,10.53,21.72,20.32,29.64,32.41,15.38,23.46,11,54.24-8.59,74.38-6.44,6.64-13.46,12.73-19.86,19.4-31.28,32.64-41.8,70.9-30.62,114.88,3,11.59,7.38,23,8.73,34.76,3.78,32.88-17.66,60.73-50.39,68.43-14.46,3.4-29.51,6.46-42.61,13-34.15,17.13-55.93,44.79-64.22,82.7-2.36,10.8-5.09,21.89-10,31.68-13.37,26.74-43.31,38.94-72.08,31-13.74-3.8-27.43-8.82-41.46-10.34-36.06-3.9-68.21,6.2-94.9,31.45-7.32,6.93-14,14.6-21.15,21.68-25.1,24.71-64.21,24.08-88.93-1-11.05-11.19-21.56-23.53-34.43-32.21-30.16-20.34-63.46-26.62-99.19-16.34-12.27,3.53-24.72,7.77-37.29,8.6-30.28,2-55.66-17.55-63.46-47-2.15-8.12-3.72-16.41-6.05-24.48q-19.32-66.79-86.63-84.56c-10.35-2.72-21-4.73-30.88-8.72C72.59,766.37,58.57,744.37,58.59,712.12ZM499.91,116c-212.83.31-384.72,172.42-384,385.59.73,211.62,172.89,385.63,390.15,382.4,209.29-3.12,377.77-173.47,377.68-384.75S710.94,115.69,499.91,116Z"/><path d="M499.45,820.12C323.6,820.23,180,676.49,179.85,500.35,179.74,324,322.5,180.9,497,180.2c179.63-.71,322.79,142.18,322.8,320.83C819.79,676.71,675.93,820,499.45,820.12ZM436.14,537.57c-2-1.91-3.55-3.28-5-4.73Q392.29,494,353.46,455.23c-25.46-25.42-64.39-25.6-90.67-.45-24.47,23.41-25.37,63.4-1.54,88.78,12.81,13.64,26.31,26.63,39.54,39.88,29.57,29.63,59.06,59.34,88.77,88.83,27,26.75,66.2,26.39,93-.47q51.24-51.37,102.62-102.64Q645,509.35,704.7,449.5c28.18-28.41,24.83-72.68-7-96.81-25.41-19.29-60.38-16.41-84.36,7.45Q539.56,433.6,466.09,507.38C456.16,517.32,446.29,527.33,436.14,537.57Z"/></svg>