<svg xmlns="http://www.w3.org/2000/svg" viewBox="0 0 33.55 32.06"><g id="Слой_2" data-name="Слой 2"><g id="Слой_1-2" data-name="Слой 1"><path d="M18.25,1.07,21.15,10a1.55,1.55,0,0,0,1.47,1.07H32a1.55,1.55,0,0,1,.92,2.8l-7.59,5.51a1.56,1.56,0,0,0-.56,1.74L27.66,30a1.56,1.56,0,0,1-2.39,1.74l-7.58-5.51a1.55,1.55,0,0,0-1.83,0L8.28,31.76A1.56,1.56,0,0,1,5.89,30l2.9-8.91a1.55,1.55,0,0,0-.57-1.74L.64,13.86a1.55,1.55,0,0,1,.91-2.8h9.38A1.56,1.56,0,0,0,12.4,10l2.9-8.92A1.55,1.55,0,0,1,18.25,1.07Z"/></g></g></svg>