<svg xmlns="http://www.w3.org/2000/svg" viewBox="0 0 86.84 85.41"><path d="M46.73,8.24c-1.49,0-2.87,0-4.25,0a4.17,4.17,0,0,1-4.07-3A4.18,4.18,0,0,1,42.72,0c4.81,0,9.62,0,14.43,0H59a4.18,4.18,0,0,1,4.36,4.11A4.27,4.27,0,0,1,59,8.23c-1.33,0-2.66,0-4.12,0,0,1.55,0,3,0,4.54,0,.14.45.35.71.39A35.8,35.8,0,0,1,74.85,22,34.63,34.63,0,0,1,86.13,42c2.1,11.34-.49,21.61-7.91,30.46A35.21,35.21,0,0,1,52.67,85.32,35.73,35.73,0,0,1,29,78.49c-2.66-1.89-2.65-5.41,0-7a4.27,4.27,0,0,1,4.8.35,48.36,48.36,0,0,0,5.38,3.32A28.21,28.21,0,0,0,68.68,27.47a28,28,0,0,0-19.81-6.29A27.34,27.34,0,0,0,34,26.66a4.45,4.45,0,0,1-3.8,1,3.94,3.94,0,0,1-3.1-3.06,3.69,3.69,0,0,1,1.5-4.15,64.63,64.63,0,0,1,6.49-4,33.07,33.07,0,0,1,11-3.32c.23,0,.61-.32.61-.5C46.75,11.22,46.73,9.78,46.73,8.24Z"/><path d="M50.79,56.79A7.42,7.42,0,1,1,51.13,42a2,2,0,0,0,1.23-.41c3.32-2.63,6.61-5.28,9.91-7.93a2.89,2.89,0,0,1,3.1-.45,2.79,2.79,0,0,1,1.77,2.47A3.21,3.21,0,0,1,66.3,38c-2.59,3.23-5.19,6.46-7.75,9.71a1.9,1.9,0,0,0-.39,1.15A7.5,7.5,0,0,1,50.79,56.79Z"/><path d="M17.18,33.14c4.52,0,9,0,13.55,0a3.45,3.45,0,0,1,3.37,2.51,3.34,3.34,0,0,1-1.35,3.82,5.29,5.29,0,0,1-2.52.69c-4.84.07-9.68,0-14.51,0H3.82A3.62,3.62,0,0,1,.16,37.69a3.5,3.5,0,0,1,3.38-4.54C8.09,33.13,12.64,33.14,17.18,33.14Z"/><path d="M20.51,45.83c3.38,0,6.77,0,10.16,0a3.5,3.5,0,0,1,1.4,6.74,3.89,3.89,0,0,1-1.51.28q-10.08,0-20.15,0A3.52,3.52,0,0,1,9.32,46a5.92,5.92,0,0,1,1.46-.12Z"/><path d="M23.12,65.51h-7.2a3.52,3.52,0,1,1-.16-7c5,0,10,0,14.94,0A3.44,3.44,0,0,1,34.22,62a3.49,3.49,0,0,1-3.63,3.51Z"/></svg>