<svg xmlns="http://www.w3.org/2000/svg" xmlns:xlink="http://www.w3.org/1999/xlink" viewBox="0 0 71.5 74.46"><defs><style>.cls-1{fill:url(#Безымянный_градиент_4);}.cls-2{fill:url(#Безымянный_градиент_2);}.cls-3{fill:url(#Безымянный_градиент_3);}.cls-4{fill:#fff;}</style><linearGradient id="Безымянный_градиент_4" x1="31.55" y1="426.95" x2="31.55" y2="496.46" gradientTransform="translate(0 -422)" gradientUnits="userSpaceOnUse"><stop offset="0.15" stop-color="#4e65ad"/><stop offset="1" stop-color="#5fa3d9"/></linearGradient><linearGradient id="Безымянный_градиент_2" x1="39.95" y1="422" x2="39.95" y2="491.55" gradientTransform="translate(0 -422)" gradientUnits="userSpaceOnUse"><stop offset="0" stop-color="#662681"/><stop offset="0.36" stop-color="#652883"/><stop offset="0.55" stop-color="#613088"/><stop offset="0.7" stop-color="#5d3d90"/><stop offset="0.83" stop-color="#56509d"/><stop offset="0.93" stop-color="#4e65ad"/></linearGradient><linearGradient id="Безымянный_градиент_3" x1="35.75" y1="426.95" x2="35.75" y2="491.55" gradientTransform="translate(0 -422)" gradientUnits="userSpaceOnUse"><stop offset="0.15" stop-color="#271940"/><stop offset="1" stop-color="#3e67b0"/></linearGradient></defs><g id="Слой_2" data-name="Слой 2"><g id="Слой_1-2" data-name="Слой 1"><path class="cls-1" d="M6,17.8,25.5,6.6a11.92,11.92,0,0,1,12.1,0L57,17.8a12.06,12.06,0,0,1,6.1,10.4v23A12.28,12.28,0,0,1,57,61.6L37.6,72.8a12.15,12.15,0,0,1-12.1.1L6,61.7A12.26,12.26,0,0,1,0,51.2v-23A12,12,0,0,1,6,17.8Z"/><path class="cls-2" d="M14.5,12.9,34,1.7a11.74,11.74,0,0,1,12-.1L65.4,12.8a12.14,12.14,0,0,1,6.1,10.5V46.2a12.14,12.14,0,0,1-6.1,10.5L46,67.9a11.92,11.92,0,0,1-12.1,0L14.5,56.7A12.14,12.14,0,0,1,8.4,46.2V23.3A12.06,12.06,0,0,1,14.5,12.9Z"/><path class="cls-3" d="M57,17.8,37.6,6.6a11.92,11.92,0,0,0-12.1,0l-12.2,7a12.08,12.08,0,0,0-4.9,9.7V46.2a12.14,12.14,0,0,0,6.1,10.5L33.9,67.9a11.92,11.92,0,0,0,12.1,0l12.2-7a12.67,12.67,0,0,0,4.9-9.7v-23A12.06,12.06,0,0,0,57,17.8Z"/><path class="cls-4" d="M54.8,41.4c0-12.6-10.3-17.6-20-17.6H25.7V54.6h3.8V40.9h.2L50.8,65.1l2.8-1.6L47,55.8A16.57,16.57,0,0,0,54.8,41.4Zm-21.1-1,7.6-11.1H37.1L29.5,39.9V27.2h5.1c7.8,0,16,4.1,16,14.2a13.79,13.79,0,0,1-6,11.6Z"/><path class="cls-4" d="M35.3,55.8H22.6V14.6H51.5l-7-4h-26V59H35.6a23,23,0,0,0,6.4-.9l-2.5-2.8A20.07,20.07,0,0,1,35.3,55.8Z"/></g></g></svg>