<?xml version="1.0" encoding="utf-8"?>
<!-- Generator: Adobe Illustrator 24.2.3, SVG Export Plug-In . SVG Version: 6.00 Build 0)  -->
<svg version="1.1" id="Слой_1" xmlns="http://www.w3.org/2000/svg" xmlns:xlink="http://www.w3.org/1999/xlink" x="0px" y="0px"
	 viewBox="0 0 323.9 76.3" style="enable-background:new 0 0 323.9 76.3;" xml:space="preserve">
<style type="text/css">
	.st0{fill:url(#SVGID_1_);}
	.st1{fill:url(#SVGID_2_);}
	.st2{fill:url(#SVGID_3_);}
	.st3{fill:#FFFFFF;}
</style>
<g>
	<path d="M100,33.8h-2.2v-3.6h7.3l0.5-3.6H93v20.2h7.1c4.6,0,7.9-2.1,7.9-6.7S105,33.8,100,33.8z M99.6,43.3h-1.8v-6.2h1.8
		c2.3,0,3.4,1,3.4,3.1C103,42.3,101.8,43.3,99.6,43.3z M122.6,42.3v-6c0-3.6-1.9-5.5-6.4-5.5c-2,0-3.9,0.4-5.8,1.1l1,3.1
		c1.3-0.5,2.7-0.8,4.1-0.9c1.9,0,2.6,0.6,2.6,2.4v0.7h-1.6c-4.7,0-7.2,1.8-7.2,5.2c-0.2,2.5,1.7,4.7,4.3,4.9c0.2,0,0.5,0,0.7,0
		c1.9,0.1,3.7-0.8,4.7-2.4c0.7,1.6,1.9,2.1,3.7,2.3l1-3C123,43.9,122.6,43.5,122.6,42.3z M115.7,44c-1.2,0-1.8-0.7-1.8-2
		s1-2.3,3.1-2.3h1.1v2.8C117.6,43.3,116.7,43.9,115.7,44z M135.2,46.8h4.6V31.3h-4.6v5.9h-4.3v-5.9h-4.6v15.5h4.6v-6.2h4.3V46.8z
		 M157.3,31.3h-4.4l-3.4,6H148v-6h-4.6v15.5h4.6v-6.7h1.4l3.4,6.7h4.9l-4.5-8.3L157.3,31.3z M168.2,30.8c-1.8,0-3.4,0.8-4.5,2.2
		l-0.2-1.7h-4.1v22l4.6-0.5v-7.1c1,1.1,2.4,1.7,3.8,1.6c3.8,0,6.1-3.5,6.1-8.3S172.2,30.8,168.2,30.8L168.2,30.8z M166.4,43.9
		c-1,0-1.9-0.5-2.4-1.4V36c0.5-1.1,1.5-1.8,2.7-1.8c1.5,0,2.5,1,2.5,4.8S168.1,43.9,166.4,43.9L166.4,43.9z M183.5,30.8
		c-4.7,0-7.5,3.3-7.5,8.2s2.8,8.3,7.5,8.3s7.6-3.3,7.6-8.3S188.3,30.8,183.5,30.8z M183.5,34.2c1.9,0,2.8,1.4,2.8,4.8
		c0,3.4-0.9,4.9-2.8,4.9s-2.8-1.4-2.8-4.9S181.7,34.2,183.5,34.2z M205.3,31.3h-13.9v3.4h4.5v12.1h4.6V34.7h4.2L205.3,31.3z
		 M229.2,26.7h-2.9l-5,8.4h-2.8v-8.4h-2.8v20.1h2.8v-9.4h2.8l5.2,9.4h3.2l-6.1-10.7L229.2,26.7z M238.2,31c-4.4,0-6.9,3.3-6.9,8.1
		s2.5,8,6.8,8s6.9-3.3,6.9-8S242.5,31,238.2,31z M238.2,33.2c2.5,0,3.9,1.9,3.9,5.9s-1.4,5.9-4,5.9s-3.9-1.9-3.9-5.9
		S235.6,33.2,238.2,33.2z M258.5,46.8h2.7V31.4h-2.7v6.5h-6.4v-6.5h-2.7v15.4h2.7V40h6.4V46.8z M272.3,31c-4.1,0-6.7,3.3-6.7,8.2
		s2.6,7.9,6.7,7.9c1.7,0.1,3.4-0.5,4.7-1.7l-1.2-1.7c-1,0.7-2.1,1.1-3.3,1.2c-2.5,0-4-1.7-4-5.7s1.5-5.9,4-5.9
		c1.2,0,2.4,0.4,3.3,1.1l1.2-1.7C275.7,31.5,274,30.9,272.3,31z M290.8,43.2v-7c0-3.3-1.7-5.2-5.4-5.2c-1.9,0-3.7,0.4-5.4,1.1l0.7,2
		c1.3-0.5,2.8-0.9,4.2-0.9c2.1,0,3.2,0.9,3.2,3.1v1.1h-2.4c-4.3,0-6.8,1.8-6.8,5.1c0,3.3,1.9,4.6,4.9,4.6c1.8,0.1,3.6-0.8,4.6-2.3
		c0.4,1.4,1.6,2.3,3,2.3l0.6-1.8C291.1,44.9,290.6,44,290.8,43.2z M284.5,45.1c-1.8,0-2.7-0.9-2.7-2.8c0-1.9,1.4-3.1,4.3-3.1h2v3.5
		C287.4,44.1,286,45,284.5,45.1L284.5,45.1z M297.6,31.4l-0.6,7c-0.4,5.1-0.5,5.9-2.4,6.6l0.7,2.1c3.3-1,3.9-2.5,4.4-8.4l0.4-5.1
		h4.8v13.2h2.6V31.4H297.6z M323.5,31.4h-13v2.2h5v13.2h2.7V33.6h5L323.5,31.4z"/>
	<g>
		
			<linearGradient id="SVGID_1_" gradientUnits="userSpaceOnUse" x1="31.55" y1="73.0527" x2="31.55" y2="3.5437" gradientTransform="matrix(1 0 0 -1 0 78)">
			<stop  offset="0.15" style="stop-color:#4D64AF"/>
			<stop  offset="1" style="stop-color:#5DA3DC"/>
		</linearGradient>
		<path class="st0" d="M6,17.8L25.5,6.6c3.7-2.2,8.4-2.2,12.1,0L57,17.8c3.7,2.1,6.1,6.1,6.1,10.4v23c-0.1,4.3-2.4,8.3-6.1,10.4
			L37.6,72.8c-3.7,2.2-8.3,2.2-12.1,0.1L6,61.7c-3.7-2.2-6-6.2-6-10.5v-23C0,23.9,2.3,19.9,6,17.8z"/>
		
			<linearGradient id="SVGID_2_" gradientUnits="userSpaceOnUse" x1="39.95" y1="78.0061" x2="39.95" y2="8.4473" gradientTransform="matrix(1 0 0 -1 0 78)">
			<stop  offset="0" style="stop-color:#662482"/>
			<stop  offset="0.36" style="stop-color:#652684"/>
			<stop  offset="0.55" style="stop-color:#622E89"/>
			<stop  offset="0.7" style="stop-color:#5D3C93"/>
			<stop  offset="0.83" style="stop-color:#554FA0"/>
			<stop  offset="0.93" style="stop-color:#4D64AF"/>
		</linearGradient>
		<path class="st1" d="M14.5,12.9L34,1.7c3.7-2.2,8.3-2.3,12-0.1l19.4,11.2c3.8,2.2,6.1,6.2,6.1,10.5v22.9c0,4.3-2.3,8.3-6.1,10.5
			L46,67.9c-3.7,2.2-8.4,2.2-12.1,0L14.5,56.7c-3.8-2.2-6.1-6.2-6.1-10.5V23.3C8.4,19,10.8,15,14.5,12.9z"/>
		
			<linearGradient id="SVGID_3_" gradientUnits="userSpaceOnUse" x1="35.75" y1="73.0527" x2="35.75" y2="8.4473" gradientTransform="matrix(1 0 0 -1 0 78)">
			<stop  offset="0.15" style="stop-color:#290042"/>
			<stop  offset="1" style="stop-color:#3B68BD"/>
		</linearGradient>
		<path class="st2" d="M57,17.8L37.6,6.6c-3.7-2.2-8.4-2.2-12.1,0l-12.2,7c-3.1,2.3-4.9,5.9-4.9,9.7v22.9c0,4.3,2.3,8.3,6.1,10.5
			l19.4,11.2c3.7,2.2,8.4,2.2,12.1,0l12.2-7c3-2.3,4.8-5.9,4.9-9.7v-23C63.1,23.9,60.7,19.9,57,17.8z"/>
		<g>
			<path class="st3" d="M54.8,41.4c0-12.6-10.3-17.6-20-17.6h-9.1v30.8h3.8V40.9h0.2l21.1,24.2l2.8-1.6L47,55.8
				C52,52.7,54.9,47.2,54.8,41.4z M33.7,40.4l7.6-11.1h-4.2l-7.6,10.6V27.2h5.1c7.8,0,16,4.1,16,14.2c0.1,4.6-2.2,9-6,11.6
				C44.6,53,33.7,40.4,33.7,40.4z"/>
			<path class="st3" d="M35.3,55.8H22.6V14.6h28.9l-7-4h-26V59h17.1c2.2,0,4.3-0.3,6.4-0.9l-2.5-2.8C38.1,55.6,36.7,55.8,35.3,55.8z
				"/>
		</g>
	</g>
</g>
</svg>
