<svg xmlns="http://www.w3.org/2000/svg" viewBox="0 0 226 55">
  <defs>
    <style>
      .a {
        fill: #247bc5;
      }

      .b {
        fill: #6c278d;
      }

      .c {
        fill: #34ace4;
      }

      .d {
        fill: #7d3d99;
      }
    </style>
  </defs>
  <title>logo-n</title>
  <g>
    <path class="a" d="M39,27.5a11.5,11.5,0,0,1-23,0H0a27.5,27.5,0,0,0,55,0Z"/>
    <path class="b" d="M16,27.5a11.5,11.5,0,0,1,23,0H55a27.5,27.5,0,0,0-55,0Z"/>
    <path class="c" d="M47,19.5a8,8,0,0,0-8,8,19.5,19.5,0,0,1-39,0,27.5,27.5,0,0,0,55,0A8,8,0,0,0,47,19.5Z"/>
    <path class="d" d="M8,35.5a8,8,0,0,0,8-8,19.5,19.5,0,0,1,39,0,27.5,27.5,0,0,0-55,0A8,8,0,0,0,8,35.5Z"/>
    <g>
      <path d="M72.9,36.6a8.9,8.9,0,0,1-9-9,8.7,8.7,0,0,1,2.6-6.5A8.9,8.9,0,0,1,73,18.5a8.6,8.6,0,0,1,3.8.7,8.9,8.9,0,0,1,3,2.2L77.5,24a10.5,10.5,0,0,0-2.1-1.5,6.1,6.1,0,0,0-2.4-.4,4.6,4.6,0,0,0-3.6,1.5,5.7,5.7,0,0,0-1.5,4,5.6,5.6,0,0,0,1.5,3.9A4.7,4.7,0,0,0,73,33.1a6,6,0,0,0,2.4-.5A13.4,13.4,0,0,0,77.6,31L80,33.6a9.3,9.3,0,0,1-3,2.3A10.4,10.4,0,0,1,72.9,36.6Z"/>
      <path d="M93.9,22.9V36.3H90.1V26.2H85.5V36.3H81.7V22.9Z"/>
      <path d="M108.8,22.9V36.3h-3.7V28.5l-5.2,7.8H96.3V22.9H100v7.8l5.2-7.8Z"/>
      <path d="M131.1,22.9V36.3H111.2V22.9H115V33.1h4.3V22.9h3.8V33.1h4.2V22.9Z"/>
      <path d="M136.7,40.4a6.3,6.3,0,0,1-3.3-.9l1.2-2.8a3,3,0,0,0,1.7.5,1.4,1.4,0,0,0,1.3-.8l-5.3-13.5h4.1l3,9.1,2.9-9.1h4l-5.2,13.7a6.9,6.9,0,0,1-1.7,2.9A4,4,0,0,1,136.7,40.4Z"/>
      <path d="M152.6,40V32.8h1.6a20.7,20.7,0,0,0,1.5-5,42.5,42.5,0,0,0,.5-6.9V18.8h12.7v14H171l-.5,7.2h-3.2V36.3h-11l-.2,3.7ZM165,22.3h-5.1v1.8a23.3,23.3,0,0,1-1.6,8.7H165Z"/>
      <path d="M184.1,34.6a7.5,7.5,0,0,1-5.2,2,7.3,7.3,0,0,1-5.2-2,6.7,6.7,0,0,1-2.1-5,6.5,6.5,0,0,1,2.1-4.9,7.8,7.8,0,0,1,10.4,0,6.4,6.4,0,0,1,2,4.9A7,7,0,0,1,184.1,34.6Zm-5.2-1.3a3,3,0,0,0,2.5-1,3.6,3.6,0,0,0,1-2.7,3.5,3.5,0,0,0-1-2.6,3.4,3.4,0,0,0-2.5-1.1,3.5,3.5,0,0,0-2.6,1.1,3.9,3.9,0,0,0-.9,2.6,3.5,3.5,0,0,0,1,2.6A3,3,0,0,0,178.9,33.3Z"/>
      <path d="M189.5,22.9h10.8V36.3h-3.8V26.2h-3.4c0,1.7-.1,3.2-.2,4.4a17.6,17.6,0,0,1-.6,3,3.2,3.2,0,0,1-1,1.8,2.6,2.6,0,0,1-1.3.8,4.8,4.8,0,0,1-1.8.3,5.8,5.8,0,0,1-1.9-.3l.2-3h.8a1.7,1.7,0,0,0,1-.3,3.1,3.1,0,0,0,.6-1.3,14.1,14.1,0,0,0,.5-3.1C189.4,27.1,189.5,25.2,189.5,22.9Z"/>
      <path d="M212.4,26.2h-5.9V36.3h-3.8V22.9h9.7Z"/>
      <path d="M226,22.9V36.3h-3.7V28.5l-5.2,7.8h-3.6V22.9h3.7v7.8l5.2-7.8Z"/>
    </g>
  </g>
</svg>
