<svg xmlns="http://www.w3.org/2000/svg" xmlns:xlink="http://www.w3.org/1999/xlink" viewBox="0 0 71.06 77.86"><defs><style>.a{fill:none;}.b{fill:#d8dee8;}.c{clip-path:url(#a);}.d{fill:#ffac9d;}.e{fill:#cc887f;}.f{fill:#7aa8ce;}.g{fill:#6f96bd;}.h{fill:#ffa65b;}.i{fill:#d68950;}.j{fill:#fff;}.k,.l{fill:#352c38;}.l{opacity:0.3;}.m{fill:#965450;}.n{fill:#76413b;}</style><clipPath id="a"><circle class="a" cx="35.53" cy="35.53" r="35.53"/></clipPath></defs><circle class="b" cx="35.53" cy="35.53" r="35.53"/><g class="c"><path class="d" d="M42,56.07c-3.16-1.72-2.3-10-2.3-10l-4.72.3V46l-.5.15L34,46v.3L29.23,46s.86,8.32-2.3,10S5.14,58.65,7.15,77.86H61.76C63.77,58.65,45.13,57.79,42,56.07Z"/><path class="e" d="M28.56,53.92q5.67-.84,11.32-1.74a25.45,25.45,0,0,1-.2-6.15l-4.72.3V46l-.5.15L34,46v.3L29.23,46S29.72,50.86,28.56,53.92Z"/><path class="f" d="M45,57a21.28,21.28,0,0,1-10.63,2.64,21.36,21.36,0,0,1-10.55-2.6c-6.25,1.69-18.27,5.17-16.64,20.8H61.76C63.41,62.1,51.16,58.69,45,57Z"/><path class="g" d="M57.83,63.62c-2.51,1.2-5.28,1.61-8,2.46Q44,67.9,38.11,69.57C30.27,71.82,22.39,73.93,14.52,76L7.78,77.86h54C62.47,71.14,60.64,66.67,57.83,63.62Z"/><path class="h" d="M21.59,57.69c-6.48,2-15.9,6.22-14.44,20.17H29.4Z"/><path class="h" d="M47.17,57.64,43.62,77.86H61.76C63.23,63.8,53.65,59.57,47.17,57.64Z"/><path class="i" d="M27.45,77.86H29.4L21.59,57.69a31.81,31.81,0,0,0-5.35,2.09Z"/><path class="i" d="M47.17,57.64,43.62,77.86h1.63l9.36-17A28.19,28.19,0,0,0,47.17,57.64Z"/><path class="e" d="M25.22,33.86c-.93-2.89-3.13-2.22-3.34-2.15s-2.49.36-2.09,3.37,2.14,4.66,3.79,4.17C25.27,39,26.15,36.76,25.22,33.86Z"/><path class="e" d="M43.78,33.86c.93-2.89,3.13-2.22,3.33-2.15s2.49.36,2.1,3.37-2.15,4.66-3.79,4.17C43.73,39,42.84,36.76,43.78,33.86Z"/><path class="d" d="M23,29.49c1.15-12.64,10.76-11.93,11.66-11.84.91-.09,10.52-.8,11.67,11.84s-4.51,21-11.67,20.56C27.47,50.51,21.81,42.2,23,29.49Z"/><path class="e" d="M36.29,35.44a11,11,0,0,1,1,3.68v.15l-.08.08a19.26,19.26,0,0,1-1.63,1.33A17.7,17.7,0,0,1,36.9,39l-.07.22A11.17,11.17,0,0,1,36.29,35.44Z"/><path class="j" d="M39.53,43c-2.29,2.22-6.16,2.1-9.1.12"/><path class="k" d="M43.69,31.15a7.88,7.88,0,0,0-3-1.19,3,3,0,0,0-1.46.2,11.24,11.24,0,0,0-1.54.74,3.11,3.11,0,0,1,1.18-1.44,2.83,2.83,0,0,1,1.91-.5,3.52,3.52,0,0,1,1.8.73A3.43,3.43,0,0,1,43.69,31.15Z"/><path class="k" d="M31.72,31.15a7.88,7.88,0,0,0-3-1.19,3,3,0,0,0-1.46.2,11.24,11.24,0,0,0-1.54.74,3.17,3.17,0,0,1,1.18-1.44,2.83,2.83,0,0,1,1.91-.5,3.52,3.52,0,0,1,1.8.73A3.43,3.43,0,0,1,31.72,31.15Z"/><path class="k" d="M31.34,35.73a3.72,3.72,0,0,0-.7-1.44,1.64,1.64,0,0,0-1.3-.6,1.45,1.45,0,0,0-1.3.55,2.92,2.92,0,0,0-.51,1.49A2.35,2.35,0,0,1,27.76,34a1.75,1.75,0,0,1,1.59-.79,1.91,1.91,0,0,1,1.56.84A2.62,2.62,0,0,1,31.34,35.73Z"/><path class="k" d="M42.1,35.56a3.59,3.59,0,0,0-.7-1.44,1.64,1.64,0,0,0-1.31-.6,1.45,1.45,0,0,0-1.29.54,3.09,3.09,0,0,0-.52,1.5,2.4,2.4,0,0,1,.24-1.69,1.74,1.74,0,0,1,1.58-.79,1.92,1.92,0,0,1,1.57.83A2.73,2.73,0,0,1,42.1,35.56Z"/><path class="l" d="M17.36,31.38a6.71,6.71,0,0,0,1.71-1.82,5.87,5.87,0,0,0,.29-.67c.06-.23.14-.47.18-.72s.07-.51.08-.77v-.79l-.06-.78,0-.2v-.17c0-.13,0-.26,0-.39a12.9,12.9,0,0,1,.19-1.6,7.84,7.84,0,0,1,.42-1.58c.06-.12.1-.25.17-.37a2.59,2.59,0,0,1,.19-.33l.1-.15.14-.17.07-.08,0,0h0l0,0,.16-.15A6.25,6.25,0,0,1,22,20c0-.27,0-.55,0-.82a6.82,6.82,0,0,0-1.4.93l-.16.15,0,0,0,0,0,0-.07.08-.14.17-.14.22a2.25,2.25,0,0,0-.24.42c-.07.14-.12.29-.18.43a8.49,8.49,0,0,0-.43,1.72A12.19,12.19,0,0,0,19,25.05c0,.13,0,.27,0,.41v.23l0,.2.09.77a5.27,5.27,0,0,1-.38,2.7,7,7,0,0,1-1.52,1.82A6.55,6.55,0,0,0,16,32.66a4.16,4.16,0,0,0-.32.63,3,3,0,0,0-.18.48l-.13.42.17-.4a5.3,5.3,0,0,1,.58-1A6.51,6.51,0,0,1,17.36,31.38Z"/><path class="m" d="M41.16,18.63s4.21.12,5.58,5.33-.13,6.2-.13,10.41c0,0,0,2.6-.62,3.47l-.86-8.55S39.3,26.19,41.16,18.63Z"/><path class="n" d="M33.56,11.65a6.85,6.85,0,0,0-2.26,0,4.67,4.67,0,0,0-1.57.58,5.32,5.32,0,0,0-1.33,1.13c-.76.89-1.34,1.91-2,2.81a6.84,6.84,0,0,1-2.57,2.18,7.4,7.4,0,0,1-.8.33c-.27.11-.55.21-.84.35a6.61,6.61,0,0,0-1.58,1l-.16.15,0,0,0,0h0l0,0-.07.08-.14.17-.14.22a2.25,2.25,0,0,0-.24.42c-.07.14-.12.29-.18.43a8.49,8.49,0,0,0-.43,1.72A12.19,12.19,0,0,0,19,25.05c0,.13,0,.27,0,.41v.23l0,.2.09.77a5.27,5.27,0,0,1-.38,2.7,7,7,0,0,1-1.52,1.82A6.55,6.55,0,0,0,16,32.66a4.16,4.16,0,0,0-.32.63,3,3,0,0,0-.18.48l-.13.42.17-.4a5.3,5.3,0,0,1,.58-1,6.51,6.51,0,0,1,1.27-1.36,6.71,6.71,0,0,0,1.71-1.82,5.87,5.87,0,0,0,.29-.67c.06-.23.14-.47.18-.72s.07-.51.08-.77v-.79l-.06-.78,0-.2v-.17c0-.13,0-.26,0-.39a12.9,12.9,0,0,1,.19-1.6,7.84,7.84,0,0,1,.42-1.58c.06-.12.1-.25.17-.37a2.59,2.59,0,0,1,.19-.33l.1-.15.14-.17.07-.08,0,0h0l0,0,.16-.15a5.53,5.53,0,0,1,1.05-.71,5.85,5.85,0,0,0-.48.34l-.23.18-.09.08a2.65,2.65,0,0,0-.29.29c-1.35,1.44-1.19,5.08-1.17,5.17,1,5.7-2.48,4.59-3.6,8.68s4.41,6.74,3.1,8.18c-2.48,2.73-3.72-.87-3.72-.87-.49,2.11,1.74,5.21,4.47,4.84s5.38-2.38,4.41-6.58v0l.29.69c.08.21.19.43.26.65l.2.67.14.68c0,.23,0,.46.05.69a5.34,5.34,0,0,1-.05.69,4.07,4.07,0,0,1-.16.67,5,5,0,0,1-.25.64,4.41,4.41,0,0,1-.82,1.14,5.41,5.41,0,0,1-1.13.89,6.7,6.7,0,0,1-1.33.61,6.13,6.13,0,0,0,1.42-.44A5.46,5.46,0,0,0,24.41,47a4.88,4.88,0,0,0,1-1.16A4.72,4.72,0,0,0,26,44.39a5.06,5.06,0,0,0,.12-.78c0-.26,0-.52,0-.78s-.06-.52-.1-.78-.12-.5-.18-.75-.17-.48-.25-.73l-.25-.68-.12-.35-.07-.31a2.72,2.72,0,0,1-.08-.63,1.56,1.56,0,0,1,.36-1.05c.25-.32.63-.64,1-1a5.07,5.07,0,0,0,.52-.61,4.63,4.63,0,0,0,.43-.71l.17-.37.13-.39c0-.13.09-.26.12-.39l.07-.39.07-.4,0-.39.05-.75,0-.73a5.43,5.43,0,0,1,.05-.72,10.49,10.49,0,0,1,.25-1.36,5.12,5.12,0,0,1,.19-.67l.22-.62.23-.32.27-.32.32-.27.35-.23.39-.18.41-.14.44-.09.45-.05,1-.11.49-.06c.17,0,.34-.07.51-.1.34-.09.68-.14,1-.25l1-.35.13-.06a7.64,7.64,0,0,0,5.94-5.38C42.37,17.12,39.19,12.05,33.56,11.65ZM26.4,34.73a4.11,4.11,0,0,1-.75,1.08c-.3.35-.68.67-1,1.13a2,2,0,0,0-.23.38,1.77,1.77,0,0,0-.18.42l-.06.22,0,.23a2.19,2.19,0,0,0,0,.44v.18c-.67-2.88,1.21-2.71,2.46-4.51l0,.14Z"/><path class="l" d="M25.2,29.25A15.05,15.05,0,0,1,22,20a3.12,3.12,0,0,0-.35.25l-.23.18-.09.08a2.65,2.65,0,0,0-.29.29c-1.35,1.44-1.19,5.08-1.17,5.17,1,5.7-2.48,4.59-3.6,8.68s4.41,6.74,3.1,8.18c-2.48,2.73-3.72-.87-3.72-.87-.49,2.11,1.74,5.21,4.47,4.84s5.38-2.38,4.41-6.58v0l.29.69c.08.21.19.43.26.65l.2.67.14.68c0,.23,0,.46.05.69a5.34,5.34,0,0,1-.05.69,4.07,4.07,0,0,1-.16.67,5,5,0,0,1-.25.64,4.41,4.41,0,0,1-.82,1.14,5.41,5.41,0,0,1-1.13.89,6.7,6.7,0,0,1-1.33.61,6.13,6.13,0,0,0,1.42-.44A5.46,5.46,0,0,0,24.41,47a4.88,4.88,0,0,0,1-1.16A4.72,4.72,0,0,0,26,44.39a5.06,5.06,0,0,0,.12-.78c0-.26,0-.52,0-.78s-.06-.52-.1-.78-.12-.5-.18-.75-.17-.48-.25-.73l-.25-.68-.12-.35-.07-.31a2.72,2.72,0,0,1-.08-.63,1.56,1.56,0,0,1,.36-1.05c.25-.32.63-.64,1-1a5.07,5.07,0,0,0,.52-.61,4.63,4.63,0,0,0,.43-.71l.17-.37.13-.39c0-.13.09-.26.12-.39l.07-.39.07-.4,0-.39.05-.73A18.83,18.83,0,0,1,25.2,29.25Zm1.34,5.19-.14.29a4.11,4.11,0,0,1-.75,1.08c-.3.35-.68.67-1,1.13a2,2,0,0,0-.23.38,1.77,1.77,0,0,0-.18.42l-.06.22,0,.23a2.19,2.19,0,0,0,0,.44v.18c-.67-2.88,1.21-2.71,2.46-4.51Z"/></g></svg>