<svg xmlns="http://www.w3.org/2000/svg" xmlns:xlink="http://www.w3.org/1999/xlink" viewBox="0 0 71.06 78.51"><defs><style>.a{fill:none;}.b{fill:#d8dee8;}.c{clip-path:url(#a);}.d{fill:#76413b;}.e{fill:#965450;}.f{fill:#ffac9d;}.g{fill:#cc887f;}.h{fill:#5d8584;}.i{fill:#78a8a5;}.j{fill:#352c38;}.k{fill:#fff;}</style><clipPath id="a"><circle class="a" cx="35.53" cy="35.53" r="35.53"/></clipPath></defs><circle class="b" cx="35.53" cy="35.53" r="35.53"/><g class="c"><path class="d" d="M30,48.86s-6,3.81-2.76,9.58,26,4.21,14.31-9.58C31.86,37.47,30,48.86,30,48.86Z"/><path class="d" d="M52.06,34.15s-2.63,3.16-2.1,6.31C50.72,45,43.79,51,36.7,49s.52-15.23.52-15.23Z"/><path class="d" d="M18.93,34.15s2.62,3.16,2.1,6.31C20.27,45,27.2,51,34.29,49s-.53-15.23-.53-15.23Z"/><path class="e" d="M37,44.07a19.84,19.84,0,0,0,9.45-2,10,10,0,0,0,3.54-3.11,10.45,10.45,0,0,1,2.12-4.77l-14.84-.39S34,39.39,33.7,43.85A29.73,29.73,0,0,0,37,44.07Z"/><path class="e" d="M21.09,39.91A35.58,35.58,0,0,0,37,44.07h.35c-.2-4.5-3.54-10.31-3.54-10.31l-14.83.39S21.25,37,21.09,39.91Z"/><path class="f" d="M43.43,55.43C40.09,53.61,41,44.8,41,44.8l-5,.32V44.8l-.53.16-.54-.16v.32l-5-.32s.91,8.81-2.43,10.63S3.62,58.16,5.74,78.51H65.17C67.3,58.16,46.77,57.25,43.43,55.43Z"/><path class="g" d="M29.22,53.16q6-.9,12-1.85A26.68,26.68,0,0,1,41,44.8l-5,.32V44.8l-.53.16-.54-.16v.32l-5-.32S30.45,49.92,29.22,53.16Z"/><path class="h" d="M50.22,57a21.24,21.24,0,0,1-12.16,5L35.4,71.51,34,62a21.6,21.6,0,0,1-13.16-5C13.9,59.22,3.76,64,5.28,78.51h60.5C67.3,64,57.16,59.22,50.22,57Z"/><path class="i" d="M34.36,64.46,34,62a21.6,21.6,0,0,1-13.16-5,33.72,33.72,0,0,0-3.68,1.39C19.62,61.74,26.31,64.2,34.36,64.46Z"/><path class="i" d="M54.31,58.58A34.51,34.51,0,0,0,50.22,57a21.24,21.24,0,0,1-12.16,5l-.7,2.5C45.21,64.18,51.76,61.81,54.31,58.58Z"/><path class="i" d="M34.8,73.82a1.11,1.11,0,1,0,1.1-1.1A1.1,1.1,0,0,0,34.8,73.82Z"/><path class="g" d="M25.68,31.9c-1-3-3.32-2.34-3.54-2.27S19.5,30,19.92,33.2s2.28,4.93,4,4.42C25.73,37.34,26.67,35,25.68,31.9Z"/><path class="g" d="M45.33,31.9c1-3,3.32-2.34,3.54-2.27s2.63.38,2.22,3.57-2.28,4.93-4,4.42C45.28,37.34,44.34,35,45.33,31.9Z"/><path class="f" d="M23.29,27.28c1.22-13.39,11.4-12.64,12.36-12.54,1-.1,11.14-.85,12.36,12.54S43.23,49.54,35.65,49.06C28.06,49.54,22.06,40.75,23.29,27.28Z"/><path class="e" d="M22.87,29.82s-.66,17.6,9.71,19.57,16.81-6.7,15.89-20.49l-1.31-.13s-.86,13.92-4,14.05,1.51-4.33-4.53-4.6-9-2.27-9.52,2.83c-.33,3.41-4.53-2.43-5.05-11.49S22.87,29.82,22.87,29.82Z"/><path class="d" d="M24.54,33.6a32.14,32.14,0,0,1-.49-4c-.53-9.06-1.18.26-1.18.26a34.06,34.06,0,0,0,.2,4.54Z"/><path class="d" d="M48.48,33.72a37,37,0,0,0,0-4.82l-1.31-.13s-.12,1.91-.43,4.31Z"/><path class="g" d="M37.4,28.85a31.71,31.71,0,0,1,.72,3.72c.17,1.24.3,2.5.37,3.75v.17l-.12.08c-.8.5-1.63,1-2.48,1.38.71-.64,1.43-1.25,2.18-1.81l-.11.24c-.2-1.24-.35-2.49-.46-3.75A34,34,0,0,1,37.4,28.85Z"/><path class="j" d="M45.25,27.85l-1-.55-.49-.23c-.17-.08-.35-.15-.54-.22s-.38-.1-.56-.17a3,3,0,0,0-.59-.09,1.82,1.82,0,0,0-.57,0,2.7,2.7,0,0,0-.57.08c-.18,0-.35.12-.52.17a3,3,0,0,0-.48.21,6,6,0,0,0-.74.39l-.3.15s0-.11.15-.3a3.15,3.15,0,0,1,.52-.73,2,2,0,0,1,.46-.41,2.73,2.73,0,0,1,.6-.36,2.64,2.64,0,0,1,.74-.22,2.76,2.76,0,0,1,.81,0,5.14,5.14,0,0,1,.78.16,3.85,3.85,0,0,1,.68.32,4,4,0,0,1,1,.81A3.24,3.24,0,0,1,45.25,27.85Z"/><path class="j" d="M32.57,27.85l-1-.55-.49-.23c-.17-.08-.35-.15-.54-.22s-.38-.1-.56-.17a3,3,0,0,0-.59-.09,1.82,1.82,0,0,0-.57,0,2.52,2.52,0,0,0-.56.08c-.19,0-.36.12-.53.17a3,3,0,0,0-.48.21,6,6,0,0,0-.74.39l-.3.15.15-.3a3.15,3.15,0,0,1,.52-.73,2,2,0,0,1,.46-.41,2.93,2.93,0,0,1,1.34-.58,2.76,2.76,0,0,1,.81,0,5.14,5.14,0,0,1,.78.16,3.85,3.85,0,0,1,.68.32,4,4,0,0,1,1,.81A3.24,3.24,0,0,1,32.57,27.85Z"/><path class="j" d="M32.16,32.71a4.07,4.07,0,0,0-.39-1,2.39,2.39,0,0,0-.66-.81,1.49,1.49,0,0,0-.5-.26,1.75,1.75,0,0,0-.57-.08,2.8,2.8,0,0,0-.29,0,2.51,2.51,0,0,0-.31.05,1.35,1.35,0,0,0-.48.24,1.77,1.77,0,0,0-.59.81,3.73,3.73,0,0,0-.25,1.06,2.1,2.1,0,0,1-.05-.31,3,3,0,0,1,0-.82,1.93,1.93,0,0,1,.59-1.06,1.77,1.77,0,0,1,.65-.35c.12,0,.22,0,.33-.07s.24,0,.37,0a2.14,2.14,0,0,1,.71.14,1.86,1.86,0,0,1,.61.36,2.26,2.26,0,0,1,.64,1A2.84,2.84,0,0,1,32.16,32.71Z"/><path class="j" d="M43.56,32.52a4.6,4.6,0,0,0-.4-1,2.36,2.36,0,0,0-.66-.8,1.44,1.44,0,0,0-.49-.26,1.41,1.41,0,0,0-.58-.08,1.31,1.31,0,0,0-.28,0,2.4,2.4,0,0,0-.32.05,1.52,1.52,0,0,0-.48.23,1.88,1.88,0,0,0-.59.82,3.8,3.8,0,0,0-.24,1.05,1.14,1.14,0,0,1-.05-.3,2.39,2.39,0,0,1,0-.82,1.84,1.84,0,0,1,.59-1.07,1.78,1.78,0,0,1,.64-.34,2.46,2.46,0,0,1,.33-.07,1.59,1.59,0,0,1,.37,0,1.73,1.73,0,0,1,.71.14,1.7,1.7,0,0,1,.61.36,2.38,2.38,0,0,1,.65,1A2.8,2.8,0,0,1,43.56,32.52Z"/><path class="k" d="M40.84,40.35c-2.43,2.36-6.53,2.23-9.64.13"/><path class="d" d="M35.83,16.69S28.48,15.38,27.29,20s.53,10.77-4.85,9.85c0,0-3.91.79-1.41,7,0,0-7.39-7.09-3.06-12.21,3.54-4.18,2.1-13.26,10.77-14.71S35.83,15,35.83,16.69Z"/><path class="e" d="M35.83,16.69S28.48,15.38,27.29,20s.53,10.77-4.85,9.85c0,0-3.91.79-1.41,7,0,0-7.39-7.09-3.06-12.21,3.54-4.18,2.1-13.26,10.77-14.71S35.83,15,35.83,16.69Z"/><path class="e" d="M35.16,16.69s7.35-1.31,8.53,3.28-.52,10.77,4.86,9.85c0,0,3.9.79,1.41,7,0,0,7.39-7.09,3.06-12.21-3.54-4.18-2.11-13.26-10.77-14.71S35.16,15,35.16,16.69Z"/><path class="e" d="M35,15.61a16.3,16.3,0,0,1,3,.22,11,11,0,0,1,2.88.89,5.74,5.74,0,0,1,2.38,2,4.47,4.47,0,0,1,.6,1.47,7.56,7.56,0,0,1,.11.75c0,.25.05.5.06.75.13,2-.15,3.89,0,5.76a3.76,3.76,0,0,0,.88,2.49,3.39,3.39,0,0,0,2.56.69h0a3.6,3.6,0,0,1,1.61.67,1.92,1.92,0,0,1,.55.68,1.87,1.87,0,0,1,.15.84,2,2,0,0,0-.21-.81,1.82,1.82,0,0,0-.57-.6,3.35,3.35,0,0,0-1.56-.51h0a5.64,5.64,0,0,1-1.48,0,2.8,2.8,0,0,1-1.39-.63A2.92,2.92,0,0,1,43.75,29a6.71,6.71,0,0,1-.33-1.46c-.21-2-.06-3.88-.22-5.75,0-.24,0-.46-.07-.69s-.07-.47-.12-.67a3.5,3.5,0,0,0-.51-1.17,4.72,4.72,0,0,0-2-1.59,11,11,0,0,0-2.63-.75,15.19,15.19,0,0,0-2.77-.2Z"/></g></svg>