<svg xmlns="http://www.w3.org/2000/svg" xmlns:xlink="http://www.w3.org/1999/xlink" viewBox="0 0 71.06 85.2"><defs><style>.a{fill:none;}.b{fill:#d8dee8;}.c{clip-path:url(#a);}.d{fill:#f19c7c;}.e{fill:#c47d66;}.f{fill:#fc6a5a;}.g{fill:#d35450;}.h{fill:#765e69;}.i{fill:#8e7280;}.j{fill:#a06653;}.k{fill:#fff;}.l{fill:#352c38;}</style><clipPath id="a"><circle class="a" cx="35.53" cy="35.53" r="35.53"/></clipPath></defs><circle class="b" cx="35.53" cy="35.53" r="35.53"/><g class="c"><path class="d" d="M43.16,60.54c-3.56-1.94-2.59-11.35-2.59-11.35l-5.34.35v-.35l-.57.18-.57-.18v.35l-5.34-.35s1,9.41-2.6,11.35S1.51,63.46,3.78,85.18H65.53C67.8,63.46,46.73,62.49,43.16,60.54Z"/><path class="e" d="M28,58.12q6.39-1,12.79-2a28.62,28.62,0,0,1-.22-7l-5.34.35v-.35l-.57.18-.57-.18v.35l-5.34-.35S29.31,54.66,28,58.12Z"/><path class="f" d="M46.59,61.63a18,18,0,0,1-11.93,4.23,18,18,0,0,1-11.93-4.23c-7,1.89-20.81,5.77-18.95,23.55H65.53C67.39,67.4,53.61,63.52,46.59,61.63Z"/><path class="g" d="M3.63,81.49a29.56,29.56,0,0,0,.15,3.69H65.53c.81-7.72-1.33-12.81-4.59-16.27C41.67,72.28,22.59,76.67,3.63,81.49Z"/><path class="h" d="M21.78,60.82,25.42,85.2H2.16S-.37,64.46,21.78,60.82Z"/><path class="i" d="M21.78,60.82,25.42,85.2,15.61,69.79l3.92-5.33-5-2A21.45,21.45,0,0,1,21.78,60.82Z"/><path class="h" d="M47.34,60.82,43.69,85.2H67S69.48,64.46,47.34,60.82Z"/><path class="i" d="M47.34,60.82,43.69,85.2,53.5,69.79l-3.92-5.33,5-2A21.43,21.43,0,0,0,47.34,60.82Z"/><path class="e" d="M24.22,35.43c-1-3.26-3.54-2.51-3.78-2.43s-2.81.41-2.37,3.81,2.43,5.27,4.29,4.72C24.27,41.23,25.27,38.71,24.22,35.43Z"/><path class="e" d="M45.2,35.43c1-3.26,3.54-2.51,3.77-2.43s2.81.41,2.37,3.81-2.43,5.27-4.29,4.72C45.14,41.23,44.14,38.71,45.2,35.43Z"/><path class="d" d="M21.67,30.49C23,16.2,33.83,17,34.86,17.11c1-.11,11.89-.91,13.19,13.38S43,54.26,34.86,53.74C26.76,54.26,20.36,44.87,21.67,30.49Z"/><path class="j" d="M35.13,41.88a5.4,5.4,0,0,1,1.06-1.12A7.38,7.38,0,0,1,37.46,40l-.12.26q-.37-4-.61-8,.66,4,1.17,8v.13l-.13.13a8.1,8.1,0,0,1-1.22.89A4.77,4.77,0,0,1,35.13,41.88Z"/><path class="k" d="M40.4,44.45c-2.59,2.51-6.62,2.35-9.94.11"/><path class="l" d="M45.1,31.11l-1.25-.47-.56-.2c-.19-.07-.4-.12-.6-.18s-.42-.09-.62-.15a4.44,4.44,0,0,0-.61-.08,3.12,3.12,0,0,0-.61,0,4.2,4.2,0,0,0-.6.06c-.2,0-.38.09-.58.12s-.36.13-.54.17-.36.1-.49.17a3.6,3.6,0,0,1-.39.16l-.38.12a3.86,3.86,0,0,1,.14-.36,3,3,0,0,1,.56-.88,2.46,2.46,0,0,1,.52-.49,3.44,3.44,0,0,1,.7-.43,3.07,3.07,0,0,1,.86-.26,3.3,3.3,0,0,1,.94,0,3.86,3.86,0,0,1,.91.18,3.8,3.8,0,0,1,.79.36,4.39,4.39,0,0,1,1.13,1A3.28,3.28,0,0,1,45.1,31.11Z"/><path class="l" d="M32.89,30.83l-1.32-.38L31,30.29c-.2-.06-.42-.09-.64-.14s-.43-.06-.65-.11S29.25,30,29,30a2.61,2.61,0,0,0-.63,0,4,4,0,0,0-.62.1,5.9,5.9,0,0,0-.6.17,4.61,4.61,0,0,0-.56.2c-.17.08-.35.13-.49.21l-.39.18-.38.15s0-.14.13-.38a3.32,3.32,0,0,1,.54-.92,2.81,2.81,0,0,1,.51-.53,3.29,3.29,0,0,1,.7-.47,3.15,3.15,0,0,1,.86-.31,3.05,3.05,0,0,1,.95-.11,4.93,4.93,0,0,1,.94.11,5.09,5.09,0,0,1,.83.31,4.52,4.52,0,0,1,1.24.87A3.43,3.43,0,0,1,32.89,30.83Z"/><path class="l" d="M31.14,36.29a4.51,4.51,0,0,0-.42-1.08,2.48,2.48,0,0,0-.71-.86A2,2,0,0,0,28.87,34h-.3a2.46,2.46,0,0,0-.33.06,1.75,1.75,0,0,0-.52.24,2,2,0,0,0-.63.87,4,4,0,0,0-.22.81c0,.2,0,.32,0,.32a1.64,1.64,0,0,1-.06-.33,3.16,3.16,0,0,1,.05-.88A2,2,0,0,1,27.45,34a1.66,1.66,0,0,1,.68-.37,3,3,0,0,1,.36-.08c.15,0,.26,0,.39,0a2.55,2.55,0,0,1,.77.14,2.07,2.07,0,0,1,.64.39A2.69,2.69,0,0,1,31,35.1,3.1,3.1,0,0,1,31.14,36.29Z"/><path class="l" d="M43.3,36.09A4.68,4.68,0,0,0,42.88,35a2.36,2.36,0,0,0-.71-.85,1.44,1.44,0,0,0-.52-.27,1.62,1.62,0,0,0-.62-.1h-.3c-.11,0-.25,0-.33.06a1.43,1.43,0,0,0-.51.25,1.8,1.8,0,0,0-.64.87,4.73,4.73,0,0,0-.22.8c0,.2,0,.32,0,.32a1.62,1.62,0,0,1-.06-.32,3.14,3.14,0,0,1,0-.88,2,2,0,0,1,.63-1.14,1.66,1.66,0,0,1,.68-.37,1.75,1.75,0,0,1,.36-.07,1.82,1.82,0,0,1,.4,0,2,2,0,0,1,.76.14,1.9,1.9,0,0,1,.64.39,2.5,2.5,0,0,1,.69,1.08A3.11,3.11,0,0,1,43.3,36.09Z"/><path class="l" d="M28.36,44.42h6.73l7,.14s-1.64-3-7-2.68S29.34,43.44,28.36,44.42Z"/><path class="l" d="M26.54,21.15s5.47,7,13.31,5.75L38,24.38s4.77,2.24,12.76.14c0,0,.56-8.69-13-10.65,0,0,6.45.56,10.93,3.22,0,0-13.17-13.73-24,0,0,0-6.17.14-6.45,7s1.4,9.39,1.4,9.39,1.41-1.12,1.83,1.26,0,6,1.54,9.39l2.52-1.82S22.34,34.75,23,28.44C23,28.44,27.1,27.6,26.54,21.15Z"/><path class="l" d="M48.82,23.26s1.83,15.41-2.52,21.58l-1.68-2.1a23.78,23.78,0,0,0,1.12-18.5Z"/></g></svg>