<svg xmlns="http://www.w3.org/2000/svg" viewBox="0 0 164 164"><defs><style>.cls-1{fill:#FFC951;}</style></defs><g id="Слой_2" data-name="Слой 2"><g id="Слой_1-2" data-name="Слой 1"><path class="cls-1" d="M85.68,164H78.32a8.26,8.26,0,0,0-1-.14,78.88,78.88,0,0,1-23.72-4.92,81.37,81.37,0,0,1-42.51-35.75A79.27,79.27,0,0,1,.48,90.74C.3,89.05.16,87.37,0,85.68V78.32c.1-1.1.22-2.21.31-3.31A78.39,78.39,0,0,1,5.8,51.68,81.46,81.46,0,0,1,42.69,10,79.3,79.3,0,0,1,73.17.49C74.88.3,76.6.16,78.32,0h7.36l1.15.15c4,.53,8.12.78,12.08,1.64a80.64,80.64,0,0,1,49.75,32.5,79.66,79.66,0,0,1,14.86,39c.18,1.68.32,3.37.48,5.06v7.36a8.26,8.26,0,0,0-.14,1,74.6,74.6,0,0,1-1.94,13.72q-7.69,32-35,50.22a79.26,79.26,0,0,1-36.14,12.92C89.06,163.7,87.37,163.84,85.68,164ZM98.41,82.67c7.5-5.27,12.08-12.42,13-21.65a28.83,28.83,0,0,0-8.35-23.89,29.6,29.6,0,0,0-42-.11A28.55,28.55,0,0,0,52.42,58.1c.12,10.45,4.76,18.59,13.27,24.64l-.64.3a41.13,41.13,0,0,0-12.52,8.2,40.07,40.07,0,0,0-12.66,29.59,4.6,4.6,0,0,0,.58,2.13,3.92,3.92,0,0,0,4.37,1.87,4,4,0,0,0,3.08-3.54c.13-1.44.12-2.9.3-4.33A31.16,31.16,0,0,1,59.3,96.07c9.94-8.31,21.35-10.34,33.58-6.55,11.09,3.43,18.39,11,21.87,22.12a36.36,36.36,0,0,1,1.34,9.4,4,4,0,1,0,8-.3,48.13,48.13,0,0,0-.55-6.58c-2.14-12.35-8.65-21.8-19.29-28.37C102.42,84.62,100.38,83.71,98.41,82.67Z"/><path class="cls-1" d="M60.47,57.93A21.53,21.53,0,1,1,81.93,79.48,21.54,21.54,0,0,1,60.47,57.93Z"/></g></g></svg>