<svg xmlns="http://www.w3.org/2000/svg" xmlns:xlink="http://www.w3.org/1999/xlink" viewBox="0 0 361.56 217.6"><defs><style>.a{isolation:isolate;}.b{fill:#b0002d;}.c{fill:#e8e8e8;opacity:0.5;}.c,.i{mix-blend-mode:overlay;}.d{opacity:0.6;mix-blend-mode:screen;fill:url(#a);}.e{opacity:0.4;mix-blend-mode:multiply;}.f{fill:#670010;}.g{fill:#fff;}.h{fill:url(#b);}.j{fill:#070a10;}</style><linearGradient id="a" x1="120.41" y1="-75.45" x2="100.9" y2="206.07" gradientUnits="userSpaceOnUse"><stop offset="0" stop-color="#fff"/><stop offset="0.07" stop-color="#d4d4d4"/><stop offset="0.16" stop-color="#a3a3a3"/><stop offset="0.26" stop-color="#777"/><stop offset="0.36" stop-color="#525252"/><stop offset="0.47" stop-color="#343434"/><stop offset="0.58" stop-color="#1d1d1d"/><stop offset="0.7" stop-color="#0d0d0d"/><stop offset="0.83" stop-color="#030303"/><stop offset="1"/></linearGradient><linearGradient id="b" x1="66.31" y1="94.99" x2="66.31" y2="57.96" gradientUnits="userSpaceOnUse"><stop offset="0" stop-color="#fff08a"/><stop offset="0.05" stop-color="#e6cc64"/><stop offset="0.1" stop-color="#d1ac42"/><stop offset="0.15" stop-color="#c09328"/><stop offset="0.21" stop-color="#b48116"/><stop offset="0.26" stop-color="#ac760b"/><stop offset="0.32" stop-color="#aa7307"/><stop offset="0.39" stop-color="#ae790d"/><stop offset="0.49" stop-color="#ba891e"/><stop offset="0.6" stop-color="#cea33a"/><stop offset="0.66" stop-color="#dcb64e"/><stop offset="0.68" stop-color="#dfbc55"/><stop offset="0.82" stop-color="#f1d975"/><stop offset="0.93" stop-color="#fbeb89"/><stop offset="1" stop-color="#fff290"/></linearGradient></defs><g class="a"><rect class="b" width="361.56" height="217.59" rx="10.64"/><path class="c" d="M46.85,58.13c.65,0,.73.24,1.28,0s2.2-1.32,2.76-1.47.91.05.09.51a13.3,13.3,0,0,0-2.17,1.37,22.08,22.08,0,0,0,2.31-1c1.17-.55,1.07-.31,1.37-.9l.47-.9s1.86,1.91,2,2,.24,0,.33-.25.29-.57.55-.46,0,.57.2.63.43,0,.92-.17.24-.52.24-.52-.06,0,.51-.06a11.57,11.57,0,0,1,2.89.82c.53.2,2.13.38,2.59.53s.62-.26,1.24.07,1.09.78.62,1-1.63.41-1,.56a9.72,9.72,0,0,0,2.36.31c.86,0,2.41-.35,2.89-.35s.77.3,1.22,1,.8,1.05,1,1.11-.18-.36-.08-.73a3,3,0,0,0-.2-1.34c-.11-.25,0-.37-.21-.73s-.56-.3.08-.61,1.07-.76,1.84-.66,1,1.07,1.64,1.14a12.17,12.17,0,0,0,1.92.42c1.14.09.66,0,1.94.1s.81-.13,1.07-.79.56-.77.86-.75,1.38.17,1.38.31-.45.84-.23,1.18a5.38,5.38,0,0,0,1.14.92s-.19-.79-.19-.88-.07-.7.06-.81.89.06,1.37-.87-.32-.87-.32-.87-.29,0-.15-.37,1-.62,1-.62l0-.14c-.1-.31-.66-.24-1.26-.28s-1-.12-1.11-.63a14.18,14.18,0,0,1-.15-2.29c0-.73.59-.47.69-.88a10.16,10.16,0,0,0-.17-2.8c-.14-.41.21-1.29.29-1.86s.68-.33.68-.33c-.11-.19.17-.75,1-1a6.82,6.82,0,0,1,2.3,0s-.13,0-.5.49-.13,1.34-.69,1.94-2,.41-2,.41.43,1,.25,1.32a3.86,3.86,0,0,0-.31,1s1.25.35,1.31,1.14.69.92.84,1.65-.61,1.33-.45,1.44.21.17.66.19,1.06.11,1.06.11a.78.78,0,0,0,0,.77c.23.39.06.64.08,1.06s.28.77.39.7a6.73,6.73,0,0,0,.7-1.63c.11-.48.19-.74.4-.74a2.3,2.3,0,0,1,1,.89c.08.23.14.56-.26,1.2s-.36.93,0,1.18a4.26,4.26,0,0,0,1,.47c.62.3.5.27.88.16s-.15-1.09-.12-1.11.92-.12.72-.62-.4-.74,0-1,.71-.45.71-.45a4.37,4.37,0,0,1-.52-1.16c-.29-.83.25-.6,1.39-.52s1.19.48,1.8.79.23.42.43.92-.51.56-.51.56-.46.09-.35.47a6,6,0,0,0,.65,1.43c.33.6-.1,1-.61,1.48A2.46,2.46,0,0,1,92.8,61c-.61,0-.87.26-.91.09s-.34-.33-.67-.26-1.08.37-.82.47,1,.07.68.62-.55.54-1.13.48-1.12-.06-1.5-.09l-2.2-.13a12.82,12.82,0,0,0,2.22,1.06,4.7,4.7,0,0,0,2,.12s-.4.74-.87,1.53-.93.45-1.33.49-.63.38-1.38.47-2.29-.21-2.05-.09.34.3.77.37a1.8,1.8,0,0,1,1.06.44c.37.31-.24.38-.73.47a1,1,0,0,0-.85.48l-1.32,1.87a4,4,0,0,0-.61,1.72c-.11.73-.73,1.6-.45,1.79s1.32.21,1.76.48.93,1.6,1.26,2.11.59.89,1,.49,1.1-.29,1.79,0A10.4,10.4,0,0,1,91,77.63c.43.43,1.2.36,2.06.48s1,.45,1,.45.9,0,.53.43-.48,0-.11.65a2.89,2.89,0,0,1,.25,1.94c-.11.43,1.19.21,1.73.53s.58,1.63.86,1.47.74-.45.79-.79a6.6,6.6,0,0,0-.07-1.4,5.84,5.84,0,0,0-.49-2.11c-.29-.43.53-.6.4-.79s-.11-.55.45-.7.6,0,.9-.25.36-1.33.41-1.73a4.22,4.22,0,0,0-.22-1.56,9.84,9.84,0,0,0-.88-1.57c-.2-.22-.45-.28.1-1s.22-.55.14-.76a11.77,11.77,0,0,1-.3-1.19c-.11-.47.22-1,0-1.66s-.41-.52-.37-.66a5.91,5.91,0,0,1,2.23,0,5.17,5.17,0,0,0,1.56-.1,3.11,3.11,0,0,1,1.26.6c.52.33.72.24,1,.65s.41.63,1,.61a2.84,2.84,0,0,1,1.13.23s-.38.22-.31,1a11.26,11.26,0,0,1-.07,1.56c0,.29.16.3.41.34s.93.64,1.63.89.89.17,1.11-.4.28-.51.56-.55.37.06.49-.06-.21-.37-.13-.77a2.71,2.71,0,0,1,.78-1.21c.31-.29.54.3.82.84s1.24,2.31,1.52,2.89.64.62.31,1.16-.49.78,0,1,1,.68,1,1.09-.15.42,0,.53.8-.22,1.25,0a4.21,4.21,0,0,1,1.31.7c.32.32.29.43-.16.59a7.58,7.58,0,0,0-1.13.46c-.22.13-.58.39-.57.6s-.09.56.27.29a4.54,4.54,0,0,1,1.36-.67c.43-.12.11,0,.49-.06a3.71,3.71,0,0,1,1.29.33c.53.15.38.48.25.79a1,1,0,0,0,0,1c.21.35-.09.66-.56,1.07a2.3,2.3,0,0,1-1.56.58,2.91,2.91,0,0,0-1.64,1c-.53.5-.8.37-1.57.41s-.46-.38-.7-.3a3.14,3.14,0,0,1-1,.4,20.56,20.56,0,0,0-2.78.26c-.64.18-.44.62-.6,1s-.41.21-.89.37a4.09,4.09,0,0,0-1.6,1.83,6,6,0,0,1-1.31,1.55,3.94,3.94,0,0,0,1.32-1,21.11,21.11,0,0,1,2.48-1.93,4.53,4.53,0,0,1,1.8-.78c.25.08.88.56.88.81s-.19.44-.64.86-1,0-1,.17a1.17,1.17,0,0,0,.71.66c.34.08.33.5.33.71s-.2.48.59,1.15a2.41,2.41,0,0,0,1.94.68c.58,0,.28.2.51.17s.3-.48.38-.85a1.58,1.58,0,0,1,.42-.88c.21-.16.37-.45.44.12a1.86,1.86,0,0,1-.55,1.51c-.3.18-.23.4-.23.57s-.35.19-1.17.64-1.09.57-1.23.51-.45.07-.85.43-.82.84-1.11.83-.55-.14-.15-.55.53-1,.93-1.17a1.57,1.57,0,0,1,.91-.17c.33,0,.17-.2.44-.39s-.2-.14-.65-.22-.11-.47-.11-.47l-.46.25a6.16,6.16,0,0,1-.89.4c-.18,0-.14.14-.2.22a2.85,2.85,0,0,1-.71.12s-.35.71-.86.8-.16.07-.53.23-.31-.19-.39-.09a2.21,2.21,0,0,1-.55.49c-.41.31-.65.41-.94,1.53a2.67,2.67,0,0,0,0,1.71c0,.17-.52-.11-.67,0a2.26,2.26,0,0,1-.91.68,5.07,5.07,0,0,0-1.5.56c-.2.21-.21.5-.3.93a10.06,10.06,0,0,1-.61,1.45.73.73,0,0,0-.24-.71c-.36-.29-.31-.56-.31-.56a1.78,1.78,0,0,0,.06.82,2.47,2.47,0,0,1,.28,1.3,2.25,2.25,0,0,1-.63,1.18c-.28.16.07-.31.07-.68s-.19-.39-.31-.57a1.8,1.8,0,0,1,.09-1.29c.22-.63-.19-.25-.43.17a1.71,1.71,0,0,0,0,1.71c.37.5-.24.45,0,1.18s-.3,1.09-.2,1.2.4,0,.53.31-.26.19-.39.29-.07.24,0,.44.24.07.17.13a1.42,1.42,0,0,1-.6.42c-.34.11-.37-.06-.58.19s-.37.46-.59.75-.39.18-.63.38-.33.36-.62.61A6.72,6.72,0,0,0,95.73,109c-.36.48-.27.6-.44,1.38s.44,2.13.82,3.42.55.92.49,1.33a2.17,2.17,0,0,1-.5,1.18c-.28.29-.44-.2-.82-.48s-.08-.48-.45-1.07a2.1,2.1,0,0,1-.39-1.24,5.32,5.32,0,0,0-.3-1.51c-.2-.47-.63-1.07-1.26-.83s-.48.12-.82,0-1.26-.46-1.72-.22-1.94-.07-2.24,0-.53.1-.53.31-.14.25.41.4.46.3.42.54-.44-.13-.65-.21-.41.17-.78.17-.44-.36-.77-.41a3,3,0,0,1-.78-.12,3,3,0,0,0-1.11-.31,11,11,0,0,0-2.48,1.48,4.09,4.09,0,0,0-1.35,1.41c-.16.41-.18.44.37,1s.29.51.18.85-.42.76-.8,1.65-.16,1.32.3,2.18a7.85,7.85,0,0,0,1.25,1.82,4.36,4.36,0,0,0,1,.88,1.21,1.21,0,0,1,.53.33c.15.15.11.21.61.07a6,6,0,0,1,1.23-.33,1.29,1.29,0,0,1,.89.2c.2.18.22.07.22,0a2.32,2.32,0,0,1,.22-.56,5.55,5.55,0,0,0,.61-1.15c.08-.37.08-1.11.54-1.16a12.26,12.26,0,0,1,2.36-.22c.9.06.5.5.26,1s-.33.52-.33.88.11.36-.18.57-.11-.13-.23.08a1.84,1.84,0,0,1-.49.46s.19.36.19.55,0,.3,0,.78-.94,1-.94,1a1.87,1.87,0,0,0,.84.19,3.85,3.85,0,0,1,1.65.25c.53.25,1.53-.2,2.28.17s.47.6.53.94a11.24,11.24,0,0,1,.08,1.8c-.06.27-.4,1-.59,1.58s.53.94,1.2,1.38a5.1,5.1,0,0,0,1.59.74c.34.1,1-.51,2.14-.44a1.81,1.81,0,0,1,1.56,1.06,5.2,5.2,0,0,1,.67-1.46c.53-.83.55-1.08,1.27-1.35s.95-.32,2.12-.69,1-.1,1.56-.05a16.9,16.9,0,0,1,3.42.59c1.41.42,3.55.54,4.37.89s1.2,1.31,2,2.1,1.9,1.5,2.35,1.87,3,.72,3.53.94a2.79,2.79,0,0,1,1.38,1.68c0,.54.61.81,1.37,1.13s1,.69,1.52,1.68.34,1.26,1,1.51,5.46,1.53,6.65,2a29.74,29.74,0,0,1,3.1,1.87c.4.15,1.11-.12,1.43.05s-.18,1.11.21,1.78.43.71.19,1.21-1.19,1.67-1.56,2.27a4.38,4.38,0,0,1-1.62,1.21c-.45.24-.85,0-.45.49s0,.91-.32,1.36,0,.39-.08,1.82,0,3-.16,3.61-1.08-.55-2.14.79-1.36,2.34-2,2.49a8.4,8.4,0,0,0-2.62,1.36,3.1,3.1,0,0,0-.93,1.33c-.32.69-.64,2.1-1,3a7.14,7.14,0,0,1-2.18,2.52,29.57,29.57,0,0,0-2.65,3.26c-.82.91-.61.71-.78.88-.44.44-2.25-.71-1.78-.07.35.47-.19,0,.1.44s.5.62-.13,1.41-1.37.63-1.88.76-1.25-.52-1.3-.2a2.23,2.23,0,0,1-.75,1.32c-.39.19-1.45.49-1.43.61.51,2.34,1.53,2.58.44,2.48-3-.29-.85-1-2.93,3.35-.32.66-.63.32-.58,1.11s0,1.38.42,1.87.14.47-.58,1.14a5.44,5.44,0,0,0-1.43,1.58c-.66,1-1.3,1-1.06,1.73s.29,1.9.69,3,1.22.94,2.52,1.73,1.45.37,2.09.57-.45.24-1.59.44a7.16,7.16,0,0,1-2.68.25,14.3,14.3,0,0,1-3.31-1.73,6.78,6.78,0,0,1-2-2.12c-.37-.82-.64-1.63-1.11-2.74s-.14-1.8.08-4.25a39.26,39.26,0,0,1,.71-5.65c.34-1.31,1.41-7.13,1.7-8.64s1.64-7.62,1.75-8.58a22,22,0,0,1,.39-2.67,14.66,14.66,0,0,0,.08-3c0-.1-.08-.17-.37-1.09a2.71,2.71,0,0,0-1.43-1.67c-.66-.4-1.35-.89-1.88-1.26a8,8,0,0,1-1.7-1.56,14.58,14.58,0,0,1-1.3-2.59A33.27,33.27,0,0,0,96.79,147a7.51,7.51,0,0,1-1.41-2.77c-.45-1.41.4-1.43.56-2.22a12,12,0,0,1,1.27-2.69c.59-1.11,1.35-1.43,1.8-2.42s.11-1-.05-1.95.05-.81-.24-1.33-.45-1.16-.71-1.33-.66-.3-.9,0-.67,1.06-.93,1.11-.37-.24-.53-.42-.93-.17-1.09-.34-.55-.2-.82-.32a12.66,12.66,0,0,1-1.59-.92,2.1,2.1,0,0,1-.66-1.48c0-.64-.56-.89-1.8-1.77a7.44,7.44,0,0,0-3.29-1.39A6.51,6.51,0,0,1,83.78,125c-.51-.3-.45-.62-1.57-.5a7.44,7.44,0,0,1-3.31-.84,23.37,23.37,0,0,1-3-1c-.63-.42-1.74-.57-2.22-1.58s-.4-.61-.21-1.5-1.09-1.63-1.86-2.47-1.35-1-1.75-2-1-1-1.75-1.73A5.8,5.8,0,0,1,67,110.85c-.32-.84-2.44-2-2.44-2s.56,1.4.8,2a21,21,0,0,0,1.43,2.94c.63,1,1.19,1.26,1.78,2.27s0,1.63-.19,1.23-1.06-.56-1.06-1a2.33,2.33,0,0,0-.4-1.14c-.18-.37-1-.79-1.8-1.43s-1.35-.94-.85-.94,1.22.47,1.09.17-1-1.2-1.46-1.85a13.58,13.58,0,0,1-1-2.44,4.29,4.29,0,0,0-2.76-2.2c-.76-.07-1-.44-1.24-1.23a15.92,15.92,0,0,0-.66-2.25c-.35-.61-1.83-2.68-1.86-3.47S56,96.31,56.48,95a13.24,13.24,0,0,0,.32-4.72c-.08-.56-1-1.65-1-2.07s.56-.17,1,0,1.32.49,1.32.49A11.66,11.66,0,0,0,57,87a6,6,0,0,0-2.23-1.14A2.43,2.43,0,0,1,53.17,85c-.29-.47-.61-1.08-.82-1.48s-1.12-.86-1.33-1.28-.16-1.24-.45-1.66a1,1,0,0,0-1.19-.49c-.48.17-.64-.25-1-.86a2.65,2.65,0,0,0-1.43-1,4.06,4.06,0,0,1-1.11-1.43,9.59,9.59,0,0,0-1.78-2,44.59,44.59,0,0,0-4.64-1.63,8.58,8.58,0,0,1-1.61.08c-.32-.1-1.41-1-2-1.24s-1,.22-1.22.84A8,8,0,0,1,32.34,75c-.72.47-1.3.52-1.25.27a5,5,0,0,1,.27-1.24c.24-.59.37-.76,1.11-1.13s.71-.4.42-.37-.5,0,.08-.39.83-.4.8-.7-1.27.4-2.07,1a7.22,7.22,0,0,0-2,2.22c-.69,1.14.08.72-.5,1.46S26.67,78.44,26.08,79a15.57,15.57,0,0,1-4,2.12,4.64,4.64,0,0,0-1.86.82c-.47.39-1.67.51-1.27.24s1.14-.89,1.64-1.18a21.72,21.72,0,0,1,2.26-1,7.4,7.4,0,0,0,2.06-1.45,12.82,12.82,0,0,0,1.3-1.93c.37-.59.45-.86-.31-.62a3.25,3.25,0,0,1-2,0c-.39-.14-1.43.47-1.8.2s0-.84-.21-1.11-1.06-.1-1.59-.2-1.27-.51-1.27-1.26-.53-1.38-.24-1.94.72-.72,1.19-1a7,7,0,0,1,2.07-.74,1.56,1.56,0,0,0,.87-.52c.24-.25-.55-1.14-.55-1.14l.45-.29c.31-.2.08-.62-.48-.54s-1.75.64-2.49.83-1.75.08-1.72-.24.18-.52-.08-.77-.48-.52-.22-.64,1.91-1,1.91-1A2.4,2.4,0,0,0,21,66.3c.64.08,2-1.11,2-1.11-.85-.52-.66-.67-.66-.67a6.12,6.12,0,0,1-1.7-.22,1.39,1.39,0,0,1-.5-.94c-.08-.34-1.43-.61-1.06-1.18s1.06-.77,1.51-1.33a5.37,5.37,0,0,1,2.14-2.22A32.79,32.79,0,0,0,26.3,57c.68-.5,1,0,1.27,0S29.48,57,30.11,57s.74.72,1,.89,5.8.35,5.8.35a50.38,50.38,0,0,1,5.7.34c1,.27,2.67,1,2.67,1C46.29,59.4,46.2,58.13,46.85,58.13Zm63.72-28.62A3.67,3.67,0,0,1,108.19,32a54.75,54.75,0,0,0-5.57,2.17c-.16.1.21,1.19.69,1.73s.92.91,1.35,1.46,1.16.49,1.75,1.06,1,.37,2.6.39,1.16.15,2.94.25,3.63.25,4.24.79,1.48,2.67,2,4,1.54,3.4,1.54,3.6-.61,1.75-.61,2a2.2,2.2,0,0,0,.61,1c.29.35.13.62.07.94a3.19,3.19,0,0,0,.38,1.23c0,.1.84-.79,1.35-.93s1.75.89,1.75,1.6c0,1.62.44,1.07-2.2,3a4.8,4.8,0,0,0-.43,3.13c.27.94.9,2,1.41,3.38a33.26,33.26,0,0,0,2.46,4.07c.48.87.61,2,1.67,2.32s2.07.65,2.84.82,1.27.42,1.64-.3,1.11-3.43,1.72-5.4-.05-2.57,1.38-3,3.71-1.34,4.32-1.61.5-2.22,1.86-2.86a15.3,15.3,0,0,1,2.86-1,18,18,0,0,0,4.5-2.2c1.33-.94,1.7-.44,2.18-1.31s-.48-2.12-.59-3.4.43-1.36.69-2.52a3.86,3.86,0,0,1,1.43-2.71c1-.79,1.59-1.24,1.41-2a12.59,12.59,0,0,1-.72-2.66c0-.82.19-.35-.24-1.48a2.4,2.4,0,0,1,0-2.35c.4-1.06,1.45-.79,1.37-1.26s-1.69-1.18-1.72-2.49a2.55,2.55,0,0,1,.56-2c.26-.33,3-2.47,3.15-2.67s0-.74,1.27-1.38,1.78-1.06,2.28-1.26,1.3-.17-.24-.62-1.88-.64-2.88-.51-1.35.69-3.16.86a15.94,15.94,0,0,0-3.84,1s.61-.54.08-1.06,1.38-2.22,1.7-2.42-2.49-.89-3.95-1.16-4.32-1.13-6-1a37,37,0,0,0-4.87.37c-.82.27-.72,1.33-1.64,1.38s-2.65-.54-4-.34A24.47,24.47,0,0,0,126,21.76c-.24,0,.82.69,1.51.84s1.59,1.58,1.59,1.58-1.86-.62-3.74-1.14a9.83,9.83,0,0,0-4.85.22,12.56,12.56,0,0,1-3.31.72c-1.54.07-3.29,1.33-4.16,1.92s-3.61,2.17-4.3,2.54-.42.55.32.74S110.57,29.51,110.57,29.51ZM71.29,49.91c.22.9.22,2.2-.28,1.64s-.9-1.69-1.69-1.23-1.66.33-1.52.23,0-.59-.43-.74-.65.08-1.07.33-1.77.57-1.22.14.37-.65.17-1.15-1.59.35-2.33.88a8.87,8.87,0,0,0-1.63,1.87c-.44.54-.12.89.55,1.09s1.75.33.85.66-1.59.55-1.13.83a3.45,3.45,0,0,0,2,.23,5.64,5.64,0,0,1,2.74,0,8.3,8.3,0,0,0,2,.33,4.19,4.19,0,0,1-1.33.44c-.84.15-2.4,0-3.19.15s-2,.36-1.74.66a3.37,3.37,0,0,0,1.67,1.1c1.09.34,1.29,0,1.94.18s.3.9.48,1a10.52,10.52,0,0,0,2.65-.33c1.23-.23.77-.43,1.75-.68s1-1,1.57-1.15.16.38.83.55.3.21,1,.33.59.39,1.29.34,1.54-.52,1.43-.61a.62.62,0,0,1-.14-.62c.07-.33-.71.06-1,.23s-.26-.45.34-.74,1.13,0,1.48,0,0-1-.6-1.19-.92-.56-1.87-1.08-.46-.76-.74-1.45-.89-2.73-1.42-3.09-1.09-.27-1.62-.63A3.59,3.59,0,0,0,71.29,49.91Zm-14.66-1.4c.23.66.26.24-.19,1s-.2,1-.52,1.53-1.16,1.27-.9,1.63,1.12.57,1.47.85.71.86,1.34.64a6.58,6.58,0,0,0,1.29-.59c.44-.23.81-.49.8-1.07s0-.85.14-.8.46.31.6-.07a3.48,3.48,0,0,1,.69-1.17c.3-.29,1.16-.59,1.57-.94a9.23,9.23,0,0,0,1.29-1c.19-.3-.35-.53-.69-.66s-.72-.66-1.5-.66-1.2.59-1.17.33-.53-.4-.84-.51a2.66,2.66,0,0,0-1.63-.18,11,11,0,0,0-2.23.41C55.46,47.4,56.4,47.85,56.63,48.51Zm23,7.88c-.1.15-.56.29-.84.62s.6.15.88.25.49.38.72.46a4.2,4.2,0,0,0,2-.12c.51-.24.57-.32.51-.44a8,8,0,0,0-1.8-1.5c-.74-.39-.76-.41-.92-.31S79.74,56.24,79.63,56.39Zm-3.34-7.7c-.48.24-.82.52,0,.94a13.15,13.15,0,0,1,1.62,1.1c.55.34.78,1.33,1.93.89s1.61-1,1.77-1.43-.16-.56-.45-1-.35-.61-.93-.55-.78.07-.78.07a3.29,3.29,0,0,1,1-.8c.64-.32.11-.53.41-.83s-.76-.44-1.22-.33-.48,0-1.24-.06-2,.66-1.9.9.61.15,1.14.45.69.26.16,1.1-.81-.2-1-.33S76.79,48.44,76.29,48.69ZM72.9,47.18c-.79.07-1.06.62-.76.7s.5-.08,1,.43.91.79,1.1-.05S74.12,47.06,72.9,47.18ZM60.15,40.81c-.89.71-1.06,1.26-1.75,1.71s-.53.82-.3,1.07.92,0,1.23-.18.59-.58.78-.33,1-.84,1.33-1.2a2.84,2.84,0,0,1,.9-.73c.09,0-.3.43-.16.78s.77.36,1.34-.23,0-1.14.5-1.6.81-.39-.06-.81a1.25,1.25,0,0,0-1.59.27A5.85,5.85,0,0,0,60.15,40.81Zm5.38,1.12a3.66,3.66,0,0,0-1.55.46A3,3,0,0,0,62.6,44.2c-.19.51.09.51.85.8a1.66,1.66,0,0,0,2.07-.79c.24-.7.55.17.4.53s.53,0,.85-.13a4.83,4.83,0,0,1,1.34-.23,4.67,4.67,0,0,1-1.6.92,11.36,11.36,0,0,1-1.74.46c-.23,0,.22.38,1.19.58s1.55-.6,3-1.12,1.32-.63,1.78-.5,1-.23,1.52-.36.8.08,1.05-.76.68-1.64-.11-1.69-.85,0-1,.86-.18.34-.18.34-.53-.79-.85-1.2a16,16,0,0,0-.9-1.4c-.35-.34-.51.15-1.06.76s-.11.84.44,1.1.94.94.67,1.12-.56,0-1.57.08-1-.31-1.25-.44.47-.41-.61-.86S65.89,41.91,65.53,41.93Zm-3.26.85A5.77,5.77,0,0,0,60.7,44c-.22.34.22.28.67.27S61.9,43.42,62.27,42.78Zm2.79-2.18c-.37.17-.37.29.23.36s.93-.2.81-.45S65.35,40.47,65.06,40.6Zm3-3.12a4.06,4.06,0,0,0-1.6.66,1.57,1.57,0,0,0,.19,1c.17.33.24.38,1.22.12s1.67-.78,1.35-.87a7.09,7.09,0,0,0-.82-.27c-.3-.05.25-.2.91-.41S70.19,37.12,68.07,37.48ZM64.72,38c-.28.13-.38.14.21.36s1.21.2,1.13,0A1,1,0,0,0,64.72,38ZM67,36.37a1.58,1.58,0,0,0-.8.78c-.13.15.62-.12,1-.2s.42.12.76-.17,1,0,1.6-.13.7-.52.56-.87S68.58,35.75,67,36.37Zm6,1.49c-.16.08-.11.34,0,.64s.17.23.47.35a2.26,2.26,0,0,1,.67.43c.08.07.12.1.24-.2s-.06-.25-.39-.64S73.42,37.66,73,37.86Zm2,2.59a1,1,0,0,0-.88.22c-.17.08.09.27.2.62s0,.47.69.52.87-.07.93-.5S75.46,40.56,75,40.45Zm2.61.77c-.42-.31-.62-.55-1-.38s-.07.39-.07.5.52,0,.53.27.16.39-.46.42-.78,0-1,.19.46,0,.67.26.58.31,1.17.22l1.39-.22a4.87,4.87,0,0,0-.61.7c-.17.28-.24.7.06.9s.35-.21,1.21-.23a1.25,1.25,0,0,0,1.11-.46.84.84,0,0,1-.17-.62,1.52,1.52,0,0,0,0-.52,3.38,3.38,0,0,1,.43.34s-.06-.25-.19-.71,0-.5-.16-1.12-.1-.76-.75-.74-1.09.24-1.62.24-.76.1-.37.29.45.44.63.66.15.76.16.73S77.64,41.22,77.64,41.22Zm-3.23,2.34,0,0a.75.75,0,0,0-.37.63c0,.22.35.09.94-.11S75.25,43.29,74.41,43.56Zm8.34-1.11a4.17,4.17,0,0,0-1.16.94c-.29.32,0,.36.69.73s1.52.45,1.87.06S84,41.77,82.75,42.45Zm3.41-2.88c-.94.1-.65.24-1.74-.12a10.17,10.17,0,0,0-2.82-.4c-.37,0-.19.18.19.81s.49.85,1.28.65,1.45-.33,2,.51.89,1.1.41,1.4-.25.81,0,1.45.91.61,1.8.61,6.51-.08,7.38-.24A5.5,5.5,0,0,0,96.84,43c.47-.33.72-.85.08-1.23A5,5,0,0,0,94.67,41c-.72,0-1.33.37-2.41.48s-.85.63-1.83.66-.51.45-1.71,0-2.1-1.11-1.52-1.2,1-.16.71-.43S87,39.49,86.16,39.57ZM74.93,35c.58.2.72.35.07.52s-1.15.63-.5.54a7.31,7.31,0,0,1,2,.2c.84.14.77,0,1.14.52s.77.47,1.34.33.65-.17.28-.58-.76-1.16-1.26-1.45-.93-.72-1.43-.67-.62.06-1.06-.53-.78-.31-1.42-.15-.84.62-1.09.82C72.54,34.94,74.34,34.79,74.93,35Zm7.63-6c-.69.86-1.25,1.59-.47,1.68s1.13-.07,1.18.18-.13.42-1.3.42-.8.26-.15,1,.71.51,1.7.49,1.33-.39,2.15-.18,1.07.42.33.64-2.49.65-2.09,1a6.88,6.88,0,0,0,2.19,1.34c.55.09.67-.37,1.88-.23s.91.26,1-.08.8-1.18.93-1.49.47-.51,1.13-.65.87-.36.25-.58S90,32.2,90.07,32s.45-.68.18-.94-.68-.24-1-.38-.73-.76-1.16-1A11.33,11.33,0,0,1,86.7,29c-.53-.4-1.37-1.4-2.43-1.34C83.55,27.65,83.25,28.07,82.56,28.94ZM81.2,36.16c-.26.13-.92.16-.43.56s.36.42,1,.19a5.09,5.09,0,0,0,1.6-1c.08-.17-.62-.5-1.1-.65a13.16,13.16,0,0,0-1.8-.81C79,34.07,81.47,36,81.2,36.16Zm32.42-12.84c-1.09-.3-5-1.05-6.28-.76s-1.21-.66-3-.43-4.49.1-5.34.23.43.5.89.79-2.19-.32-4.21.24-3.32.85-1.16,1.67A13.69,13.69,0,0,1,97,26.12a30.53,30.53,0,0,1-3.92-1c-1.17-.46-.53-.43-2.72.2S86,26.31,86.14,27,87.9,28.52,89,28.75a10.23,10.23,0,0,0,3.53-.4c.18-.06-.88.89-.88.89s1.13-.23,2.4-.56,2.26-.69,3.46-1.12A9.59,9.59,0,0,0,98.93,27a18.84,18.84,0,0,1-3.54,2.18,16.06,16.06,0,0,1-4.2.95c-.88,0-.75.59.14,1.05a13.13,13.13,0,0,1,2,1.78,1.38,1.38,0,0,1,.53.86,2.43,2.43,0,0,0-2.89,0c-1.52,1.08-1.31,1.64-.92,1.77s1.73.27,2,.73,2-.43,2-.43S93.17,37,92.32,37s-.81-.73-2-.6-1.17.43-.64.86,1,.56,0,1-1.34.56-1.38,1.08,1.2.53,2,.53,1.52-.07,2.93-.1,1.24-.49,1.77-.49,1.06.16.85.69.21.2,1.76-.36.85-1.42.75-1.71-.68-.4-1-.56,1.06-1.62.85-2.11,1.73-.1,2.61-1.25.57-2-.07-2.2,1.17-.07,1.73-.4a8,8,0,0,0,2.3-1.35c.5-.62.67-.85-.53-.72s1.73-.53,3.15-1.45,3-2,3.39-2.27.67-.13-1,0-3.64-.14-2.55-.27,4.35-.52,5.2-1.15A11.76,11.76,0,0,1,113.62,23.32ZM93.84,46.15c-1.77-.16-4.35-.59-4.88.93a47,47,0,0,0-1.41,5.49c-.07.63,2.12,1.55,3.64,1.61s4,.17,3.5-.19-.07-.56,1.34-.5,1.55-.29,1.55-.59.25.36,1.24.89,1.84,2,2.72,2.86,2.86,2,2.48,2.67.42,3-2.62,3.49-3.22.16-3.18.85.18,1,1.38,1,2.86-1,3.43-.27a3.62,3.62,0,0,0,1.83,1.16c.5.16-.6.46-.88.56s.6.19,2.33,1,3.82.92,2.79.32-1.52-1.67-2-2,0-.06.78.14a5,5,0,0,1,1.91,1.15c.35.29.53-.1.78-1.25s-.11-1.15-1.49-2.08-1.8-1.64-1.94-2.3.71-.79,1.06-1.25,1.34.82,2,1.58,1.24,2.07,1.77,1.12a12,12,0,0,0,1-3.59c0-.49-.53,0-2.79-1.08a18.28,18.28,0,0,0-3.64-1.55c-.21,0,.6-.43,1.6-.92s1.41-.43-.71-2.44-2.72-2.43-4.1-2.56-1.77-1.58-2.76-2.08-3.28.6-4,.76-.46.43-1.3-.79S93.84,46.15,93.84,46.15Zm1.59,0c-.88.11.53,1.72,1.66,1.78a5.3,5.3,0,0,0,2.33-.56A8,8,0,0,0,95.43,46.15Zm-4,16.32a8.26,8.26,0,0,0-.55,2,3.51,3.51,0,0,1-.3,1.18c-.13.42.43-.07.8.55s.21.79.87.07a2.09,2.09,0,0,1,2.33-.67c.93.3,1.65.42,1.33-.14S95.2,65,94.56,64.2a3.76,3.76,0,0,0-1.9-1.26C91.86,62.65,91.78,61.71,91.46,62.47Zm6.67,57.66a2.87,2.87,0,0,0-2.4-1.81,4.07,4.07,0,0,0-2.94.53c-.63.22.6.32,1.41,0a1.56,1.56,0,0,1,1.56.08c.1.15-.28.24-.42.08s-.17.38.76.72,1.15.49,1.24.89a2.41,2.41,0,0,0,.29.93c.22.34.29.48-.09.62s-.26.13,0,.3a3.78,3.78,0,0,0,1.67.54c.81.07,1.08.22.51-.52S98.22,120.31,98.13,120.13Zm2.57,3.62A1.31,1.31,0,0,1,101,125c0,.26-.51.06-1.4-.18s-.75-.12,0,.3,1.27.31,1.24.87.71.05,1-.27.31,0,1.68.17,1.65.45,1.43-.15.63-.55-.59-1.12S100.19,123.23,100.7,123.75Zm-3.91.34c-.51-.57-1.16-.65-1.16-.17s.17.46.65.59S97.12,124.45,96.79,124.09Zm10,2.48c-.56-.2-.68.23-.31.58s1,.23,1.51.2S107.73,126.9,106.75,126.57ZM100.3,57.7c-.74.31-1.18.53-.53,1.38s1,1.38,1.28.77S101.56,57.17,100.3,57.7Zm-6,9.14c-1.12.18-1.48.21-1.31.84s.48.52,1.24.14S95.57,66.64,94.35,66.84Zm2.33,1c-.19.06-.24.49,0,.89s.73-.13.94-.61S97.39,67.58,96.68,67.79ZM84.46,37.42c-1.06,0-2.65.41-1.77.43a27.6,27.6,0,0,0,3,.11c1.43-.08,1.57-.18,1.61-.87S86.4,37.35,84.46,37.42Zm-6.63-5.81c-1.08.34-.81.56.46,1.12s1.31.3,1.17-.76S78.47,31.41,77.83,31.61Zm75.52,27.54c-1.34.37-1.78.15-2,.83s-.78.31-1.08.4-.73,2-.94,1.69a4.81,4.81,0,0,1-.6-1.08c-.31-.65.1-.54-.49-1.22s-1.75-.61-1.83-.33.8.52.5.83a15.41,15.41,0,0,1-1.29.94c-.28.23.52.13,1,0s.85.38,1.05.73-.23.69-.45.86.73.13,1.11.2a.48.48,0,0,1,.32.81c-.26.43,1.12.06,1.89,0s1,.52,2.12.16a7,7,0,0,0,2.76-1.11c1-.78,1-.6,1.67-1.1s.53-.66.56-1.22.46.16.29-.68-1-.62-1.62-.68-.59-.54-.89-.69S154.71,58.77,153.35,59.15Zm89.45,72.49a2.58,2.58,0,0,0-.14.87c0,.45,0,.92,0,1.37s.06.75.31.85a.81.81,0,0,0,.82,0c.41-.19.79-.53.59-1a14.42,14.42,0,0,0-.81-1.58C243.33,131.74,242.91,131.26,242.8,131.64Zm-.32-.61c0,.19.1.15.19.28s.19,0,.06-.16-.11-.19-.11-.19-.15-.05-.15.1m38.16,26.23s0,0-.05.05c-.72.73-1.38.53-2.63.91s-3.47,1.68-3.63,2.25,0,.64-.16.57a2,2,0,0,1-.42-.42,2.66,2.66,0,0,0-.27,1.31,8.15,8.15,0,0,1,.35,1.77c0,.79-.32,1.26-.3,1.8s.93,1.58,1.17,2.23a3.54,3.54,0,0,1,.53,1.62c.13,1.16.74,1.8.13,2.42s-1.06.5-.32,1.14a2.24,2.24,0,0,0,2.55.64c1.19-.42.87-.79,1.8-1a11.92,11.92,0,0,1,1.91-.44c.79-.05,1.35,0,1.64-.54s.08-.55.88-.94.71-.5,1.24-.6.88.28,1.59-.29.19-.62,1.78-.62a7.45,7.45,0,0,1,2.83.42,4.47,4.47,0,0,1,1.78,1.09c.24.37.56.81.66.81s.24,0,.61-.34a15.94,15.94,0,0,1,1.43-1.11,2.55,2.55,0,0,1-.29,1.08,1.41,1.41,0,0,0-.24.87c0,.14.61-.47.69-.5s.16,1.09.24,1.19.32,0,.56.37a4.19,4.19,0,0,1,.79,1.18,2.84,2.84,0,0,0,1.88,1.33,5.41,5.41,0,0,0,1.67,0c.48-.08.51-.64,1-.42s0,.69,1.17.59a3.17,3.17,0,0,0,2-.81c.48-.32.53.44,1.14-.4s.72-.64.82-1.65a3.72,3.72,0,0,1,.67-2.17c.58-1,.71-.5,1.11-1.9a13.76,13.76,0,0,0,.85-3.9,5.32,5.32,0,0,0-.24-1.71c-.27-1.3-.08-1.15-.93-1.7s-1.06-.39-1.27-1.16.05-1-.35-1-.74.18-1-.34a3.09,3.09,0,0,0-.66-1.21c-.45-.49-.87-.4-1.69-.76s-.4-.47-.4-1.12,0-1.32-.61-1.62-.27.17-.27-.89,0-.9-.53-1.08-.7-.16-1-.81a22.05,22.05,0,0,1-.93-2.12c-.16-.43-.36,0-.57.36a3.39,3.39,0,0,0-.51,1.65c0,.64.28,1,.28,1.86a4.06,4.06,0,0,1-1,2.2c-.37.5-.67,0-1-.08s-.39-.61-1.06-.94a11.78,11.78,0,0,1-2.47-1.13c-.57-.51-.18-.53,0-1.06a2.7,2.7,0,0,1,.84-1.3c.43-.34.3-.47-.23-.77a4.6,4.6,0,0,0-2.17-.31c-.9,0-1.43-.07-1.38.44s.58.71-.17.56-1.42-.21-1.75.15a2.4,2.4,0,0,0-.6,1.35c-.2.77.05.82-.27.82a11.71,11.71,0,0,1-2-.79c-.43-.18-.66-.16-1.15.3a27.16,27.16,0,0,1-2.85,2.32C281.24,155.35,281.27,155.27,280.63,157.29Zm-23.58-22.24c-.38-.05-.58-.15-.12.44a7.17,7.17,0,0,0,1,1.12c.44.41.6-.3.94.49s.21.81.54,1.11.62.38.71.67a2.13,2.13,0,0,0,.58,1.09c.39.33.39.28.62.92s.59,1.1.76,1.64,1.19,1.06,1.7,1.71,1.38,1.62,1.52,1.35.51,0,.78-.09.35-.48.53-1.4a1.52,1.52,0,0,0-.41-1.57c-.25-.21-.71-.26-.83-.46s-.34-.87-.64-1.08-.37,0-.37-.51.35-.48-.09-.78a2.31,2.31,0,0,1-.63-.65c-.14-.15-1.1-.38-1.35-.65s-1.28-.74-1.78-1.23a6.35,6.35,0,0,1-1.2-1.25C259.17,135.56,258.67,135.26,257.05,135.05Zm10.28,10.61c-.42,0-.63-.25-.92.26s-.24.51.2.51.35.23.33.3-.21,0,.69.31a2.2,2.2,0,0,0,1.79.08c.24-.13.33.33,1.57.53s1.89-.11,2.68.08.61-.1,0-.52-.51-.2-1.08-.61a4,4,0,0,0-1.73-.5c-.37-.06.32.4-.81.25s-.73.1-1.31-.28-.58-.44-1-.51S267.33,145.66,267.33,145.66Zm9,1.81c-.32.1-1,.28-.67.41s.06.21,1,.13a4.07,4.07,0,0,0,1.87-.39c.13-.2-.15-.07-.54-.18s-.36.08-.89.14A1.12,1.12,0,0,1,276.31,147.47Zm3.28-.07c-.62.08-.55.22,0,.37a2.59,2.59,0,0,0,1.32.11,5.94,5.94,0,0,1,1.12-.31c.69-.12.92-.1,1.46-.17l.55-.06s-.05-.12-.42-.1-.64,0-1,0-1,.33-1.27.31-.78-.18-.9-.09S280.27,147.32,279.59,147.4Zm3.54.81,0,0c-.43.29-.45.38-.41.61a.45.45,0,0,1-.05.35,1.88,1.88,0,0,0,1.13-.52,1.82,1.82,0,0,1,1-.67,3.86,3.86,0,0,0,1.07-.73,3,3,0,0,1-.83,0,1.54,1.54,0,0,0-1,.35C283.88,147.78,284.16,147.81,283.13,148.21Zm-3.7.26c-.46-.33-.9-.28-.94-.08s-.39.19.25.43,1.27.56,1.22.23S279.63,148.61,279.43,148.47Zm-4.22-13.72c-.26.38.25.28-.14.61s-.69.18-1.08.67a5.12,5.12,0,0,1-1.22,1c-.24.19-1,.4-1.39.88a.47.47,0,0,0,.12.74s-.21.09-.78-.12-.6-.47-.6-.47-.4,0-.63.59-.36.67.05,1-.28.38-.19.63.09.71.33.76.3-.24.6.14.06,1.45.44,1.5.68-.11,1,0a1.25,1.25,0,0,0,1,.14,1.49,1.49,0,0,1,1.14.13,3.86,3.86,0,0,0,1.47.38c.41,0,.48.06.55-.51s0-1.12.51-1.57.51-.44.55-.85a2.28,2.28,0,0,1,.33-1.27c.3-.43.48.25.64-.08s.32-.33.23-.5-.55-.16-.72-.47.05-.48-.16-1.12-.34-.4,0-.76.55-.43.58-.71.16-.29.53-.56-.05-.14-.41-.4-1-1.25-1.42-1.24C276.32,133.37,275.48,134.37,275.21,134.75Zm52.21,34.93c-.17-.13-.32,0,.07.43s.42.33.67.34.46.92.6,1.16a4.07,4.07,0,0,0,.41.5,5.2,5.2,0,0,1,0,1.44c-.13.44-.39.64-.48,1s.4.3.72.43.27.13.14.49-.49.53-.49.59.72.48,1.1,0a7.12,7.12,0,0,0,1.11-1.58c.16-.48-.29-.27.23-.61s.44-.18.7-.61.55-.87.25-1.1-.63.28-.9.37a.93.93,0,0,1-.85-.06c-.37-.18-.44-.18-.58-.51a1.73,1.73,0,0,0-.32-.51s-.11.56-.37.38-.19-.38-.39-.69-.19-.42-.32-.65,0-.67-.63-.74S327.58,169.79,327.42,169.68Zm.1,6a6.94,6.94,0,0,0-.93,1,5,5,0,0,0-.66,1.17,3.31,3.31,0,0,1-1.5,1.16,3.53,3.53,0,0,0-1.45,1c-.28.41-1.29,1.7-1.41,1.84s.48.3,1.1.3,1.59.56,2.12,0a19.5,19.5,0,0,0,1.39-2.43,6.24,6.24,0,0,1,1.19-1.15c.52-.48,1.41-1.37,1.41-1.71a3.19,3.19,0,0,0-.23-.91.67.67,0,0,1-.66.33C327.44,176.26,327.52,175.65,327.52,175.65ZM323.36,182c-.62-.33-.74.29-.84.91s.26.1.8-.19S323.59,182.1,323.36,182Zm-21-4.31c-.7-.23-.58.43-.48.92a3.88,3.88,0,0,0,.51,1.3,1.7,1.7,0,0,0,1.65.38c.39-.18.67-.79,1.06-1.37a2.45,2.45,0,0,0,.49-1.58c-.07-.34-.56.32-.88.46a1.78,1.78,0,0,1-1.34.37A5.72,5.72,0,0,1,302.35,177.66Zm-8.8-35.32c-.56.13-.85-.37-1.31-1.32s-.81-1.09-2-.66-1,.33-.21.63.89.39,1,.39,1.24.17,1,.33-1.31.33-.64.79a21.5,21.5,0,0,0,2.16,1c1.77.89,2.05.23,2.62,1.38s.56,1,.1,1.25-1.06.6-.81.63a17.94,17.94,0,0,0,1.91.2c1.2.06.07.75,1.41.75a2.37,2.37,0,0,0,2.23-1c.53-.63.63-.3,1.76,0s1.52,1.25,2.94,1.64,2,.92,1.13.1a32.26,32.26,0,0,0-2.41-2.37c-1.2-1-1.27-1.05-1.62-1.78a6.09,6.09,0,0,0-3-2.13,30.44,30.44,0,0,0-3.78-1.09C294.4,140.56,294.12,142.2,293.55,142.34Zm-9.3-3.29c-.52.36-.59.14-1-.11s-.28.52-1.16.11-1.21-.62-2.16.08-.35,1-.37,1.47a10.34,10.34,0,0,1-1.08,2.4c-.29.51-.29.7-.07,1s.53.2.66.36a4.46,4.46,0,0,1-.15,1.89c-.16.43.37.51.92.39s.07-.16.07-.62.26-.65.26-1.49v-1.23s.16-.08.36.2.48,1.09.72,1.5.49.72.86.43.73-.61.73-.61-.73-.23-.73-.48a1.24,1.24,0,0,0-.2-1.27c-.5-.82-.77-.86-.13-.9s.62-.68,1-.86a1.93,1.93,0,0,1,.9-.12,1,1,0,0,0-.94-.23,7.42,7.42,0,0,0-1.57.52c-.48.26-.9.43-1-.07a3.44,3.44,0,0,1-.08-1.29c.06-.67.83-.16,1.4-.33a4.12,4.12,0,0,1,1.83,0c1.25.08,1.34-.2,1.72-.71a5.48,5.48,0,0,0,.59-1.11S284.78,138.68,284.25,139.05Zm3-1.8c.11-.2-.92.71-1.12.89s0,.44.14.71a6.86,6.86,0,0,1,.16,1.36c.06.2.59.38.59.38a1.93,1.93,0,0,1,.17-.89c.2-.28,0-.62,0-1.13S286.89,137.86,287.23,137.25Zm-2,5.4c-.81-.31-1.11-.1-1.11.32s-.09.64.77.64S286.69,143.23,285.19,142.65Zm1.62-.27c-.2.06-.41.7-.3,1.08s.25.13.71,0,.38-.44.95-.49a6.08,6.08,0,0,1,1.75.41s.25-.3-.65-.87A2.32,2.32,0,0,0,286.81,142.38Zm-16.17-20.93-.93,0c-.13,0-.41.32-.61.44s-.2.3-.06.62.38.33.77.44.26-.17.55-.28a.79.79,0,0,0,.44-.61c.06-.24.25-.34.32-.43s-.23-.36-.23-.38S270.64,121.45,270.64,121.45Zm9.57,1.14c-.32-.23-.49.6-.58,1s-.2.71,0,1,.09.42.09.42l-.46-.35a3,3,0,0,0-.12.74c0,.35-.14.49.39.74s.7.11.77.49.07.55.43.61a1.46,1.46,0,0,1,.9.45c.14.23.07-.61.32-.56a1.41,1.41,0,0,1,.7.64.59.59,0,0,0,.44.29s-.4-.67-.22-.75.22-.15-.23-.43a2.45,2.45,0,0,0-1.19-.26c-.35,0-.35.24-.62-.45a2,2,0,0,1-.05-1.26c0-.15.2.23.41-.25a2.61,2.61,0,0,0,.23-1.32c0-.46.32-.64.05-.66A3.91,3.91,0,0,1,280.21,122.59Zm4.21,8.84c.05.34-.32-.09-.46.1s-.21.16-.44.25a4.81,4.81,0,0,0-.77.6s0-.33,0-.4-.17-.46-.33-.2a1.53,1.53,0,0,1-.7.61,1.1,1.1,0,0,0-.65.79c0,.33.23.32.23.32a1.93,1.93,0,0,0,.39-.49c.25-.38.29-.37.74-.43s.41-.05.55.19,0,.61,0,.87,0,.59.44.74.24,0,.66,0,.41,0,.35-.24a3.69,3.69,0,0,1-.21-.64c0-.24.24-.35.33-.4s.13.25.26.56.18.29.23.06a3.46,3.46,0,0,0,.15-1.09,3.6,3.6,0,0,1-.08-.77,1,1,0,0,0-.33-.63c-.12-.09-.53-.45-.53-.45Zm-2-2s0-.21-.37-.59-.39-.48-1-.58-1.17.05-.92.68.32.72.81.79a1,1,0,0,0,.8-.19s0,.1-.43.39-.53.86-.16,1.07.36.56.57.39.36-.75.79-1.15.46-.46.51-.89a3,3,0,0,0,0-.77Zm1-1.21c-.05,0-.36,0,0,.28s.61.38.57.61,0,.27-.19.24-.23-.07-.31-.07-.09.15,0,.29,0,0,.19.22a1.22,1.22,0,0,1,.16.6c0,.28.17.14.17.14s0-.67,0-.8-.06-.46.17-.36.16.5.3.13a1.67,1.67,0,0,0,0-1c-.06-.3-.29-.31-.57-.31A2.69,2.69,0,0,0,283.38,128.21Zm-4.57,1.14c-.13,0-.21.17-.29.62a1.69,1.69,0,0,1-.6.95,9.08,9.08,0,0,0-1.05,1.11c0,.14-.05.06.5-.2s1-.61,1.06-1-.07-.13.42-.36.23-.3.25-.66S279.06,129.29,278.81,129.35Zm29.26,13.48c-.06.46.13.59-.3.93a2.53,2.53,0,0,1-1.35.41c-.45.07-.12-.07-.68-.09s-.7,0-.44.3.19.55,1,.52a6.81,6.81,0,0,0,2-.64c.53-.16.48-.59.53-.79S308.13,142.34,308.07,142.83Zm2.29,1c.23.32.14.27.43.7a1.83,1.83,0,0,0,1.1.61c.34.12,0-.12-.26-.47a4.05,4.05,0,0,0-.65-.88C310.6,143.44,310,143.25,310.36,143.82Zm-29.84-27.67c-1.13.72-1.64.67-1.19,1.58s.73,1.3.79,1.47.29-.11.6-.84a15.94,15.94,0,0,0,.47-2C281.32,116.12,280.91,115.9,280.52,116.15Zm19.39-35.49c.13.47.25,1.21,0,1.29s-.48.61-.55,1.16a2.52,2.52,0,0,0,.09,1.66c.3.43.08.46.08.82a6.47,6.47,0,0,1-.07,1.83,2.25,2.25,0,0,0-.21,1.25,10.7,10.7,0,0,1,0,1.51c0,.82-.05,1.48,0,1.81s.21-.16.33-.28a.73.73,0,0,1,.86.1l.27.28s.42.18-.16-1.07-.69-1-.53-2.12.25-1.15.85-1.27.92.71,1,.79-.05-.28-.27-.92a5.5,5.5,0,0,1-.47-1.66,2.54,2.54,0,0,0-.64-1.71c-.32-.23-.16-.61,0-.92a2.62,2.62,0,0,0,.13-1.34,12.58,12.58,0,0,0-.32-1.59c-.09-.3-.44.18-.44.18Zm-.53,12.6a1.58,1.58,0,0,1-.17,1.1c-.25.41-.08.51-.22,1.09s-.83,0-.83.11a1.18,1.18,0,0,1-.28.68c-.18.14-.78.18-.6.75a8.9,8.9,0,0,0,.49,1.19,3,3,0,0,1,.46-.36l.39-.12s-.05-.16-.44-.34a.54.54,0,0,1-.3-.68c.05-.12.55,0,.86,0s.59-.2,1,.11a2.46,2.46,0,0,0,.95.43,2.84,2.84,0,0,1,.25-.79c.17-.32.69-.18,1.2-.32s.9-.24.72-.45-.16-.69-.26-1-.44,0-.71.11a1,1,0,0,1-.95-.19,7.34,7.34,0,0,1-1.22-1.45S299.34,92.9,299.38,93.26Zm-1.58,5.39a1.16,1.16,0,0,0-.34,1c0,.49.44,0-.09,1.45s-.79,1.81-1.31,2.19a1.25,1.25,0,0,1-1.19.29c-.2-.1.05-.43.2-.53s-.45-.14-.7-.1,0,.32,0,.55-.52.87-.47,1.15.06.37-.26.47-.53-.23-.62-.28a6.77,6.77,0,0,0-1.2.17,1.15,1.15,0,0,0-1,.75c-.27.46-.89.53-1.34.7s-.28.82-.77,1-.49.63-.53,1,.3.1.36.08.05-.47.36-.42.34.06.18.41-.25.51-.41.81.05.43.29.73.47-.09,1-.62.54-.65.5-1.26-.24-.61-.61-.79-.45,0,0-.47.6,0,.88-.22a6.75,6.75,0,0,1,1.6-.36c.65-.16,1.27-.37,1.3-.16s.23.92.25,1.06.45-.2.89-.37,0-.23,0-.51a.49.49,0,0,1,.19-.45s.23.47.93.14.76-.47.94-.42.31.23.6,0,.34,0,.29.13.85-.28,1.05-.42.09,0,0-.53-.33-.55-.18-1.22a6.21,6.21,0,0,0,.14-1.15c0-.42.2-.48.31-.5s.1-.58.33-.88.17-.43.17-1.11-.37-.55-.4-1a3.94,3.94,0,0,1,.09-1s-.75.28-.83.45l-.08.17S298.05,98.53,297.8,98.65Zm-4.95,7.42a13.77,13.77,0,0,0-1.8.36c-.46.15-.56.36-.49.82a10,10,0,0,0,.32,1.17c.06.24.32,0,.76-.23s.4-.91.82-.91.27.48.83-.2.14-.73.15-1.07S292.85,106.07,292.85,106.07Zm49.52-36.54c-.84-.17-1.08-.35-1.16,0s-.17.41.36.6.79-.14,1.29.23a1.06,1.06,0,0,0,1,.3.82.82,0,0,0,.53-.24A12,12,0,0,0,342.37,69.53ZM332.8,56.34c-.31.09-.56-.21-.48.55s.25.84,1.22.7a10.89,10.89,0,0,1,1.56-.14,4.05,4.05,0,0,0,1.6-.28,2.31,2.31,0,0,0-.63-.72c-.45-.34-1.05.24-2.07.07A10.86,10.86,0,0,0,332.8,56.34ZM302.94,45.23c0,.28,1.33,1.09,1.8,1.33s.85.13,1.86,0,1.09-.54,1.2-.79-.47-.16-1.15-.29-1.23.12-1.47,0,.36-.25-.24-.47-.74.07-.87,0-.16-.31-.45-.33A.68.68,0,0,0,302.94,45.23Zm-5.19,1.69c-.46.18-.43.34.09.77s.34.34.12.64,0,0,.74.32,1.05.94,1.51,1.08a1.1,1.1,0,0,0,.78,0,4.33,4.33,0,0,0-.59-1.08c-.44-.6-1.38-.77-1.56-1.29S298.4,46.66,297.75,46.92Zm4.73-2.42-1.7-1a4.69,4.69,0,0,0-1.75-.86c-.34-.05-.29.35-.42.67s-.23.26-.76,0a8.73,8.73,0,0,0-1.6-.78c-.54-.12-.87.33-1.5.94s-.26.79.49,1.71,1.09,1,1.7.6.43-.59.87-.42a6.54,6.54,0,0,0,2-.17c.06,0-.09.84.57.62a4,4,0,0,0,1.58-.67C302.26,44.76,302.48,44.5,302.48,44.5ZM256.59,26.87c-.19.17-1.33.07-1.91,1s-1,.28-1.29.84a11.71,11.71,0,0,0-.55,1.23s.54.63,1.1.58a2.52,2.52,0,0,1,2.1.95c.55.76,1,.76,2.28,1s.72.4,1.42.33,1.64.09,1.43-.26a1.46,1.46,0,0,1-.29-1.23c.09-.68.71-.65,0-1.09a1.49,1.49,0,0,0-1.21-.16c0-.09.66-.33.41-.35s-1.47-.08-1.61-.77.34-.75.58-.79.18-.13-.53-.64a16.91,16.91,0,0,0-1.65-1C256.41,26.66,256.78,26.71,256.59,26.87Zm6.64,5a2.28,2.28,0,0,0-1.23,1,8,8,0,0,1-1.28,1.41c-.37.3-.26.38.34.6s1.66-.38,2-.4.53.45,1.49.33,2.4-.29,1.69-.8-.46-.27-1.24-.89a3.36,3.36,0,0,0-1.76-.68s1.61-.54,1.22-.57S263.23,31.86,263.23,31.86Zm-40.84-8.11c-.93.33-.6.49-1.21,1s-.19.61,1.1.29a7.94,7.94,0,0,0,2.19-.82C225.3,23.81,223.77,23.25,222.39,23.75Zm2.05,2.32c-.87.38-.64.79-.41,1.12s.86-.2,1,.16.23.21,1-.33.52-.38.2-.95S225.92,25.41,224.44,26.07Zm-4.83-.24c-.56.26-.56.23,0,.48a3.14,3.14,0,0,0,2.48,0c.66-.43.61-.34-.23-.47A4,4,0,0,0,219.61,25.83Zm-8.19,1a12.51,12.51,0,0,1,2.35,0c.68.07.43.67-.84.8s.12.34,1,.3.32-.78,1.07-1,1.24-.1,2.14-.42-.52-.63-1.57-.6a22,22,0,0,1-2.28,0,10.44,10.44,0,0,0-2.51.5C208.91,26.67,210.56,26.9,211.42,26.83Zm6.76.23c-.76,0-2.59.42-1.05.57s1.42.25,2.05,0S219,27.06,218.18,27.06Zm5.35.32a3.44,3.44,0,0,0-1.93-.17c-.84,0-1.17.56-.63.78a2.24,2.24,0,0,0,1.37.06c.45-.07.42-.21.13-.32S224.17,27.59,223.53,27.38Zm4.53-1.33c-.83.1-.87.25-.95.52s.12.21,1,.1a4.5,4.5,0,0,0,1.86-.55c.57-.3-.12-1.06-.12-1.19s-.81.41-1,.6S229,25.93,228.06,26.05ZM163.17,73.38c-.42,1.15-1.1,1.68-.29,1.37s1.62-1.31,1.58-.47-.83.73-.58,1.56.06.76,1.42,1.07.25.19.58,1,.56,1,.21,1.27-1.4-.72-1.46-.32.15.71.4,1.28-.17.88-1,1.25-.11.61.5.57,2.12-.32,1.87.21-1-.08-1.5.8-2.44,1.65-1.44,1.59.86-.31,3.84-.74.92,0,2.87-.64,1.34-.76.26-.58.7-1.06.45-2.21-.95-.06-1.41-.78-.4-.94.48-.68.79-.17-.9-1.25-.65-.87-1.42-1.77a2.67,2.67,0,0,0-2.08-.8,2.68,2.68,0,0,0,.89-1,14.63,14.63,0,0,0,.75-1.4c.36-.8-.35-.73-1.24-.53s-1.19.28-1-.07a3.75,3.75,0,0,1,.73-.94c.42-.44.5-.67-.27-.5a5.9,5.9,0,0,0-1.54.46C162.9,71.59,163.59,72.23,163.17,73.38Zm-2.1,2.71c-1.37.54-1,.89-.75,1.08s.64-.18-.63.55-1.29,1.52-.62,1.68.58-.39-.13.94-1.19,2.23.25,1.9,1.84-1.08,2.52-1.17.82-.64.82-1.47-.46-.85.08-1.54.58-1.42-.48-1.76S161.92,75.75,161.07,76.09Zm17.11,18.58c-.07.19.09.69-.46,1s.27.66.44,1,.41-1.12.36-1.81S178.41,94.08,178.18,94.67Zm-.26,2.73a1.47,1.47,0,0,0-1.06,1.42c-.11.67.72.13.51.72s0,.91.92.35.41-1.07.55-1.78S179.1,96.85,177.92,97.4Zm13.85,7.28c-.79-.08-1.14.41.21.56a7.28,7.28,0,0,0,2.47.05c.5-.12.07,0-.59-.47S192.78,104.77,191.77,104.68Zm7.52.41c-1.08-.23-.79,1.09.32.89s.69.08,1.2-.74S200.43,105.34,199.29,105.09ZM172.23,99c-.89.11-.95.41-.27.59s.6,0,1-.31S172.62,98.92,172.23,99ZM118.7,82.86a7.61,7.61,0,0,0-1.93,2.44,5.91,5.91,0,0,1-1.43,2c-.74.77-.37.59,1.93,1s2.12.79,2.65.64.64.3.64.77.5.19.74-.55a4.27,4.27,0,0,0-.71-2.83c-.48-.77-.59-.77-1.33-.57s-.5-.18-.77-.77-.69-.12,0-1S119.23,82.44,118.7,82.86ZM48.17,81.28a3.88,3.88,0,0,0,1.36,2.4c.58.41.46.19.19-.69s0-.87-.17-1.43S48.17,81,48.17,81.28Zm3.87,4a7,7,0,0,0,1.43,1.36,5.09,5.09,0,0,0,1.87.86c.85.24,1.22-.09.67-.58s-.09-.44-1.08-.67-1.2-.15-1.69-.47S51.7,85,52,85.3ZM30.5,77.11c-.64-.14-.89-.17-1.33.17s-.56.64-.32,1,.1.17.65-.21.29-.43,1-.61.55-.41.55-.41A.71.71,0,0,1,30.5,77.11Zm-.23-.85c-.43.26-.57.47-.09.37s.41-.37.71-.31.41-.06.41-.06A1.23,1.23,0,0,0,30.27,76.26ZM18,74.3c-.58.28-1.13,0-.77.16a2.17,2.17,0,0,0,1.23.38c.38,0,.63,0,.49-.23a.62.62,0,0,1-.18-.43C18.8,73.92,18.62,74,18,74.3Zm195.58,80.41c-.67,1.48-2.08.75-3.21,1.84s-1,.76-.11,2.27-.7,1.35-1.1,3.13.46,1.45.92,3,.68,1.05,1.52.85a4.74,4.74,0,0,0,1.45-.59,22.29,22.29,0,0,1,.71-3.26,25.51,25.51,0,0,0,1.06-4.63c.11-1.29.21-2.21.49-1.82s.32.4.32-.23-.34-2.38-.88-2.79C213.83,151.71,214.29,153.23,213.62,154.71Zm1-101.22c-.92.21-1.36.78-.69,1s.61.1,1.73-.29S215.53,53.28,214.61,53.49Zm17.32-16.81c-.32-.5-.6.16-3.85,1.58s-3.22.19-6.26,2.6-2.37,2.1-2.54,3.55-.89.82-1.17,2.14-1.84,1.38-1.06,2.47a5.77,5.77,0,0,0,3.43,2.17c1.62.46,2.08,0,1.73-.2a5.51,5.51,0,0,1-1.34-4.31c.24-2.2,1.06-1.87,1.76-2.7a22.24,22.24,0,0,1,3.75-3.68,43.72,43.72,0,0,1,5.84-2.23c.05,0,.1,0,.13,0C233.59,36.65,232.24,37.17,231.93,36.68Zm-8.77,14.79c-.38.05-.56.06.15.76s1.32,1.21,1.09.29S223.52,51.42,223.16,51.47Zm11.61-6.7c-.52-.24-.79-.49-.92-.1s.59.93,1.27,1.06S235.27,45,234.77,44.77ZM113.13,86.18a5.58,5.58,0,0,0-2.07-.7c-.51,0,.11.54.92,1S113.59,86.41,113.13,86.18Zm-1.87,3.31c0-.65-.44.75.15,1.06s.88.4,1.25,0,.07-.14-.44-.23S111.22,90,111.26,89.49ZM342.75,66.82a4,4,0,0,1-1.67-.17,2.6,2.6,0,0,1-.35,1.13.74.74,0,0,0-.08.77s-.95-.42-1.51-.62-1.06,0-1.38-.86-1.27-.69-2-.69-.53-1-.53-1l-.45,0c-.45,0-.37,1.11-.95,1.45a9.68,9.68,0,0,1-2.42.57A4.73,4.73,0,0,1,332.81,69a6.92,6.92,0,0,0,.69,1.36s-.11.32-1.52.05-1.32.27-2.83.88a21,21,0,0,0-3.66,1.91c-.42.34-.45.14-1.77-.18a1.81,1.81,0,0,0-1.94.55c-.34.17-.21-.79-.21-.79a2.61,2.61,0,0,0-1.06.29c-6,3.07-1.87,2.91-2.07,3.53l-.63,2.4c-.89,2.64-1.51,1.26-2.25,3.35-2.39,6.66-3.77-1-3.77-2.79,0-1.08-.24-2.49.45-2.81,5.93-2.76.56-.38,6.12-4.2,1.81-1.23.83-2,1.22-2.32a2.44,2.44,0,0,1,1-.44l-1-.1c-1-.1-1,.13-1.78,1s-1.38,1-1.22.35.19-1.31-.39-1a5.45,5.45,0,0,1-1.91.52,5.3,5.3,0,0,0-3.24,2c-1,1.24-.42,1.09-.1,1.38s-1.57.22-2.47.15-.42-.25.11-.42-.8-.32-2-.57-.72.2-1.41.47-.66-.24-1-.32-1.89-.17-3-.3-1,.08-1.3.45-2.31,2.15-3.18,3.16-2,1.23-2.94,2.17-1.14.89-.35,1,.9.07,1,.81.5,1,1.35,1,.61.22.77-.42-.22-1.38.5-.82a3.5,3.5,0,0,1,1.51,1.81c.21.81-.05,1.4-.42,2.76s-.51,3.31-1,4.29-.9,1.73-1.46,2.82A17.11,17.11,0,0,1,291.94,96c-.61.24-1,.27-1.3-.27s-.5-.45-1.19.17a3.39,3.39,0,0,0-1.27,2c-.27,1-.85,1-1.46,1.73s-.77.57-.32,1.41a8.55,8.55,0,0,1,1.28,2.54,5.4,5.4,0,0,1-.67,2.52c-.29.52-1.67.76-1.64.52a19.69,19.69,0,0,0,0-2.2c-.05-.72-.58-.72-.4-.94s1-.59.4-1.11-.95-.07-1.19-.69.1-1.11,0-1.33-.53-.47-1.35-.55-1,.74-1.19,0,.08-.79-.29-1.09-.69-.1-1.65.72a4.66,4.66,0,0,1-1.93,1c-.8.34-.8.54-.61.81s.85,1.46,1.4,1.58,1-.25,1.8-.25,1,.13.8.45-.8.64-1.83,1.68-.72.84-.37,1.25a7.17,7.17,0,0,1,1.22,1.76c.37.81,0,1.11,0,1.57a2.13,2.13,0,0,0,.55,1.93c.69.74.21.49.14.77s-1.25,2.39-1.78,3.45-.53,1.16-2.25,2.37a7.1,7.1,0,0,1-3.42,1.5,11.76,11.76,0,0,0-2.2.65c-.48.2-.29.59-.34.84s-.51,0-.43-.35,0-.64-.21-.74a1.5,1.5,0,0,0-1.75.34c-.77.75-1.7.79-2,1.73s-.26.62.09,1a17.63,17.63,0,0,1,2.41,2.86,5.68,5.68,0,0,1,.5,2.44c0,.94-1.91,2.67-2.76,3.23s-1,1.11-.9.23-.37-1.41-1-2.08a7.39,7.39,0,0,0-2.81-1.28c-.34-.07.14-.62-.1-.59s-.8-.13-.72.74-.55.59-.69,1.45-.29,1.76.27,1.68.45.77.87,1.71.27.41,1.33,1.28.79.71,1,1.58a5.77,5.77,0,0,0,.69,2.15c.53.78.56,1-.32.51a4.89,4.89,0,0,1-1.93-1.53,14,14,0,0,1-.77-2.61c-.21-.69-1.64-1.51-2.12-2s-.19-.89,0-2a8.15,8.15,0,0,0-.18-2.91,20,20,0,0,0-.91-3.28c-.26-.65-.15-.57-.57,0s-.72.91-1.12.91-1-.06-.93-.32.45-1.24.33-1.61a4.7,4.7,0,0,0-1-2,4.21,4.21,0,0,1-1.55-2c-.36-1-.46-.69-1.14-.19a7.1,7.1,0,0,1-3,.63c-.75.06-.13.43-.31.8s-1.08.85-2.86,2.72-2.06,1.92-2.53,2.12-.75.14-.73.9a11.48,11.48,0,0,1,0,1.86,3.86,3.86,0,0,1-.49,1.4,8.28,8.28,0,0,0-.46,1.64,2.33,2.33,0,0,1-1.05,1.31c-.58.42-.58.34-.84-.27s-1.65-3-2.76-5.21a6.27,6.27,0,0,1-.95-3.26c-.11-.64-.13-4.49-.08-4.79s-.54.46-.7.77-.15.69-.79.75-.77.06-1.37-.54-.87-.93-.77-.92a3.17,3.17,0,0,0,1.2-.26c.39-.2.26-.41.26-.41s-.43,0-.94.07-.29-.11-1-.39-.83-.29-.94-.6-.28-.73-.38-1-.18-.25-.29-.53-.44,0-1.18.06-.56.05-1.45.4a3.65,3.65,0,0,1-2,.19,6.3,6.3,0,0,1-2.2-.64,5.58,5.58,0,0,0-1.32-.2c-.75-.11-.59-.49-.77-.8s-.5-.39-1.47-.31a3.09,3.09,0,0,1-1.55-.13c-.55-.14-.6-.34-1.06-.8s-.3-.1-.6-.34a2.53,2.53,0,0,1-.84-1.21c-.24-.64-.19-.78-.46-1.08s-.26-.22-1.12-.22-.46.06-.57.12a4.76,4.76,0,0,0-.61.73c-.24.29.19.71.54,1.11s0,.36.59,1,.36.55.75,1.4.64,1.06.72,1.31.17-.09.26-.33a3.73,3.73,0,0,0,0-1,4.93,4.93,0,0,1,.31,1c.15.6.05.61.15,1s0,.34.67.34a6.67,6.67,0,0,0,1.8-.15c.73-.17,1-.84,1.39-1s.35-.89.58-.81,0,.81.22,1.3.26.31.78.52.65.34,1.17.54.17.22.45.74.27.23.54.41.17,0,0,.67a2,2,0,0,1-.68,1.12c-.46.51-.46.35-.53.33s-.22-.37-.22-.37a3.86,3.86,0,0,0-.33,1.3c-.05.7.23.45-.61.78a6.91,6.91,0,0,0-1.67.76c-.33.28-.33.65-.51.83s-.45,0-1,.22a1.83,1.83,0,0,0-.88.51c-.48.37-.06.33-.67.56a13.68,13.68,0,0,1-2.27.83c-.55.05-.44.2-.58.41s-.15.31-.86.42a8.2,8.2,0,0,0-2,.42c-.43.21-1.07.69-1.53.6s-.33-.11-.48-.52a4.93,4.93,0,0,1-.3-1.38,6.46,6.46,0,0,0-.7-2.36c-.39-.65-.38-.69-.81-1.37a5.64,5.64,0,0,0-1.07-1.52c-.37-.27-.56-.28-.74-.48s-.07-.87-.25-1.45a4.59,4.59,0,0,0-.59-1.45,7.13,7.13,0,0,1-1.07-1.38c-.38-.68-.41-.75-1-1.81s-.74-1.18-1.1-1.89-.13-.57-.26-1-.47.69-.75.9-.41.11-.63-.52-.41-1.17-.58-.93-.3.5-.07,1.16.34.53.64,1.16,1.12,2.23,1.45,2.88a4.47,4.47,0,0,1,.52,1.34,2.65,2.65,0,0,0,.9,1.52c.41.42.34.2.53.88a8.92,8.92,0,0,1,.14,1.87c0,.41.26.63.75,1s.25.26.48.7a9.12,9.12,0,0,1,.59,1.48,1.29,1.29,0,0,0,.68.91,6.52,6.52,0,0,0,.88.36c.39.14.26.23.52.57s.78.59,1.1,1.13.11.38.09.9-.19.28,0,.55a6.92,6.92,0,0,0,1.3.93c.67.45.13.14.73.12a6,6,0,0,0,1.37-.31c.65-.14,1.48-.38,2.27-.57s1.57-.31,2-.45.42.32.11,1-.46,1.27-.73,1.83-.36.6-.55,1.06-1.51,2.3-1.78,2.88a6.68,6.68,0,0,1-1,1.54,20.28,20.28,0,0,1-2.22,1.84c-.59.47-.44.47-.87,1s-1.75,2.08-2.1,2.62a9.16,9.16,0,0,0-.82,1.28c-.27.53-1,1.29-1.06,1.67s-.47.44-.15.78.48.39.6.82-.36.91-.05,1.69.08.23.53.85a2.92,2.92,0,0,1,.48,1.94,10.23,10.23,0,0,1-.05,2.4,11.33,11.33,0,0,1-.54,1.52c-.2.53-1.32.9-2,1.18s-.63.18-.93.54a12.58,12.58,0,0,0-1.46,1.68c-.29.56-.51.5-.39.85a15.47,15.47,0,0,0,.66,1.47c.3.66.09.61,0,1.18s-.07.48-.14,1.17-.9.71-1.82,1.07-.6.18-.7.68a17.32,17.32,0,0,0-.08,2.08c0,.59-.32.36-.82,1.09s-.71,1.08-1.25,2a3.14,3.14,0,0,1-1.18,1.3c-.67.55-1.21.69-1.51,1.33s-.65.21-2.11.68a3.88,3.88,0,0,1-1.78.4c-1.39.15-1.88.26-2.62.39s-.63,0-1.08-.53-.52-.46-.72-.87-.06-.51-.12-1.25a1.89,1.89,0,0,0-.4-1.22,7.86,7.86,0,0,1-.55-1.27,6.25,6.25,0,0,0-.77-1.43c-.34-.5-.44-.34-.75-.66a1.59,1.59,0,0,1-.38-1c-.07-.46-.18-1.52-.33-2.65s0-.53-.2-1a18,18,0,0,0-.68-1.68,9.81,9.81,0,0,0-.66-1.25,8.18,8.18,0,0,1-.71-1.36c-.29-.68-.33-.38-.35-.64s.15-.74.17-1.2.17-1,.28-1.71-.16-.69.14-1.18a8.16,8.16,0,0,0,.81-1.48,2.7,2.7,0,0,0,.16-1.28,2.32,2.32,0,0,0-.28-1.22c-.21-.58-.29-1.27-.54-2.21a5.67,5.67,0,0,1-.29-1.26,8.39,8.39,0,0,0-.39-1.67c-.17-.5-.26-.3-.65-.62s-.13-.18-.47-.53-.27-.47-.6-.86a4.78,4.78,0,0,1-.64-.84c-.26-.43-.12-.17-.08-.9a29.26,29.26,0,0,1,.38-2.94c.13-.81.16-.77-.15-1.1s-.53-.83-.77-.91-.81.08-1.65.07-.81-.21-1.17-.63-.84-1-1-1.16-.46-.15-1.89,0-.56.13-1.52.28-1.32.65-2.06.91-.94.19-2.23-.07a3.64,3.64,0,0,0-2.59.58,1.27,1.27,0,0,1-1.45-.18,9,9,0,0,0-1.49-1c-.73-.36-.57-.56-1.29-.91s-.49-.37-1.09-.94-.64-1.14-1.06-1.73a18.55,18.55,0,0,0-1.32-2,20.66,20.66,0,0,1-1.38-2.26c-.27-.38-.48-.42-.48-.6s.54-1.24.76-1.79a6.74,6.74,0,0,0,.38-.82,4.57,4.57,0,0,0-.34-1.89c-.21-.54-.45-1.68-.62-2.22s.09-.54.29-.84a17,17,0,0,0,1.19-1.88c.51-.94.79-1.4,1.06-1.84a13.16,13.16,0,0,1,1.27-2.13,11.72,11.72,0,0,1,1.84-1.31c.44-.22.79-.35.86-.54s.26-1.83.38-2.51,0-1.06.45-1.33,1.29-.75,1.71-1,.47-.57.68-1.07.31-1.14.62-1.34.23.09.65.37a1.61,1.61,0,0,0,.68.34c.19,0,.37-.15.86-.16a1.25,1.25,0,0,1,.83.21c.29.16.13.16,1-.35a13.47,13.47,0,0,1,2.58-1.23,11.53,11.53,0,0,1,2.33-.68c.5-.06.25,0,.81.23s.6.32.71.16.49-.63.72-.61.52.11,1.13.22a1.53,1.53,0,0,0,1.11-.08c.25-.13.56-.4.63-.4a9.64,9.64,0,0,1,1,.34c.43.16.44.18.35.29a2.17,2.17,0,0,0-.42.68c-.2.46-.1.21.09.7s.34.46.25.81-.49.69-.78,1-.22.4.5.81a9.46,9.46,0,0,0,1.35.7,10,10,0,0,0,1.77.51c.94.28.82.31,1.15.69s.35.74.91.94a9.32,9.32,0,0,1,1.49.4,3,3,0,0,0,1,.58c.44.09.44.14.65-.18s.39-.61.31-.77-.32-.42-.27-.58.43-.78.54-1,.41-.24,1.11-.27,1.18-.13,1.3.28.09.22.62.45.6.22,1.05.39.22.42.45.4a2.76,2.76,0,0,1,1,.08,7.77,7.77,0,0,0,2,.52,2,2,0,0,0,1.27-.27c.12,0,.7-.77,1.05-.28s.79.5,1.66.45.87-.18,1.07-.4a6.09,6.09,0,0,0,.88-1.64c.17-.57.63-1.83.75-2.4a3.4,3.4,0,0,0,0-1.35,1.94,1.94,0,0,1,.17-.94c.13-.38-.42-.15-.64-.08s-.28-.11-.48-.17-.42-.11-.57.27-.08.57-.89.53-.66-.09-.93-.38a2.25,2.25,0,0,0-1.08-.47c-.36-.11-.39-.09-.42.14s0,.39-.3.48a2.3,2.3,0,0,1-1.37-.26,3.37,3.37,0,0,1-1.15-.84c-.49-.48-.42-.48-.63-1.23a3.26,3.26,0,0,1-.11-1.61c.09-.22.23-.29-.15-.17s-.64.18-.38-.39.49-.59.76-.67a7.24,7.24,0,0,1,1.17-.11,3.08,3.08,0,0,0,1.07-.36c.18-.08.54-.2.36-.25s-.75-.11-.65-.26.16-.15.46-.19.77-.05,1.17-.07.63,0,.77-.19a1.89,1.89,0,0,1,.6-.78c.31-.19.65-.09,1.46-.12s.69.16,1,.35.44.1.78.16.13.28.4.38.75.22,1.34.41.21.1.93.1a4.88,4.88,0,0,0,1.27-.09,2.51,2.51,0,0,0,1.22-.6c.41-.29.12-.91,0-1.4s-.79-.79-1.08-1-.92-.93-1.26-1.21a6,6,0,0,0-1.09-.58c-.37-.21-1-.54-1.1-.81s.14-.28.69-.41.37-.25.48-.54.15-.28.6-.44-.52-.51-.66-.7.3-.14.76-.24.48-.32.54-.51,0-.28-.48-.27a9.88,9.88,0,0,0-2.1.47c-.89.23-.48.24-1,.66s-.58.24-.5.47.1.45.65.74.32.3.47.34.52.1.35.15-.32.31-.57.31-.35.25-.77.49a2.24,2.24,0,0,1-.92.32c-.31.05-.53,0-.49-.57s-.16-.17-.48-.3a1.12,1.12,0,0,1-.45-.26,4.38,4.38,0,0,0,.65-.32,1.29,1.29,0,0,0,.64-.73c.16-.41-.36-.19-.73-.24s-.26-.08-.62-.13a.68.68,0,0,1-.51-.33,1.22,1.22,0,0,0,.48,0c.31,0,.24-.12.35-.2s.21-.16.12-.16a6.41,6.41,0,0,1-.73,0,2.45,2.45,0,0,0-.77,0c-.38.06-.23.2-.49.37s-.27.23-.42.49-.18.21-.28.37a2.25,2.25,0,0,0-.09.86.82.82,0,0,1-.24.6c-.16.23-.16.13-.45.27s-.09.24-.13.52-.13.39-.16.75-.17.38-.39.63-.34.25-.36.52a3.17,3.17,0,0,0,0,.89c.06.51.2.38.6.89s.61.33.47.59-.11.16-.6.11-.56,0-.92.35-.42.53-.61.65-.12-.25-.19-.42-.89-.23-1.44-.4a7.49,7.49,0,0,0-.85-.26,1.59,1.59,0,0,0-.94.29c-.58.32-.45.51-.41.92s.5.51.37,1.5.49.53.75,1.13,0,.56-.13.63-.32.59-.44,1.09,0,.55-.13.53-.32.09-.59-.32-.51,0-.55-.26-.38-.63-.25-1.17.35-.6-.13-.88-.36-.32-.59-.9a3.12,3.12,0,0,0-.71-1.22c-.44-.53-.4-.38-.28-.92a2.25,2.25,0,0,0-.05-1.59,9,9,0,0,0-2.27-1.87c-.9-.48-1.08-.11-1.48-.88s-.58-1.57-1.25-2-.33-.5-1-.27-.65.34-.6.52a1.59,1.59,0,0,1,.1.94c-.09.51-.22.35.44.74s.39.31.72,1a3.69,3.69,0,0,0,.65,1.16,1.53,1.53,0,0,0,1,.7c.66.15.55,0,.73.12s-.47.23-.35.3a7.71,7.71,0,0,0,.82.63,4.39,4.39,0,0,1,1.28,1c.14.28.63,1.3-.08.55s-.73-.41-.93.11.18.91.16,1.29-.36.24-.59.55a3.63,3.63,0,0,1-.61.87c-.26.2-.18-.22-.33-.22s-.19.19-.38.54,0,.51.08,1,.21.52-.31.49-.39-.5-.87-.82-.75-.21-1.15-.46.17-.31,1.16-.43,1.12-.22,1.42-.46.2-.29.53-.76,0-.66-.23-1.23a2,2,0,0,0-.79-.93,7.76,7.76,0,0,1-.77-.77,1.84,1.84,0,0,0-1.1-.49c-.5-.12-.41-.58-.69-.72a9.4,9.4,0,0,1-1.19-1.12c-.63-.59-.4-1-.69-1.55s-.58-.92-1.22-.92-1.11.45-1.75,1.06-.5.92-1.24.45-1-.42-1.54,0a2,2,0,0,0-.64,1.78c0,.89-.63.52-1.13.76s-1,.87-1.73,2.32.06.77-.1,1.26.05.89-.67,1.53-.39-.07-.82.45a2,2,0,0,1-2,.81c-1-.12-.72.27-1.35.42s-1,.37-.83-.34,0-.62-1.19-.57-1.64.37-1.54.2a4.4,4.4,0,0,0,.3-1.16c.13-.69.32-.92.13-.92s-.58.1-.29-1.13a4.28,4.28,0,0,0,.26-2.17c-.13-.72.05-1.68-.1-2.1s.32-.84.1-1.06-.45-.52-.29-.52a10.69,10.69,0,0,1,1.67.17,14.83,14.83,0,0,0,2.23-.07c.5.05,1.56.27,2.62.44s1-.15.93-1.7.08-2.27-.24-2.59-.66-.3-1-.72-.08-1-.82-1.26-1.56,0-1.16-.19.55-.2.13-.52-.53-.67-.21-.72,1.21,0,1.21,0,.08.45.56.25,1.09-.39,1-.72-.38-.71-.3-.71a1.63,1.63,0,0,0,1.28.44c1,0,.92-.15.84-.57s.67-.39,1.17-.74-.19-.74-.08-1.06.69-.52,1.72-.59.85-.25.75-.37,0-.64.1-1.31-.08-.89.45-1.21.37-.19,1.46-.29.42-.35.61-.4,1.48-.37,1.72-.47.21-.07,0-.54a6.49,6.49,0,0,1-.74-2.91c-.24-2.17-.19-2.17,1.14-2.57s1-.27.93.94-.69,1.21-.83,2.1a3.12,3.12,0,0,0,.53,2.37c.56.94.51.47,1.7.47s.93.29,1.72.56.53-.49,1.3-.76.61.17,2.41-.1l1-.13c-.06,0-.25,0,0-.12.43-.24.53-.69,1.14-.76s1,.17,1-.77-.37-.79-.27-1.5.13-.4.19-1-.08-.66.69-.86.24.69,1.16.89.8.34,1-.37.66-1.66.21-1.6-.56,0-1-.7-.71-.81-.42-.81a15.39,15.39,0,0,1,2.67-.22c1.41,0,1.81.17,1.89,0s-.24-.29.23-.59,2.05.15,1.81-.12a4,4,0,0,0-2.55-.5c-.92.15-3.18.42-3.52.4a2.42,2.42,0,0,1-1.14-.45,1.19,1.19,0,0,1-.66-1.11c0-.81.29-1.13-.19-1.92s.87-1.46,1.8-2.3.69-1.53,1.25-1.58.77-.34.5-.61a5.85,5.85,0,0,0-1.72-1.31c-.48-.1-1.19-.64-1.94.64s.06,1.41.19,2.07-1,1.16-1.91,1.78-1.19.47-1.46,2.05-.53,1.63.45,2.17,1.17.81.72,1.28-1.4.45-2,1.56-.34,1.65-.58,2.15-1,.71-1.19,1.2-.21,1.44-1.12,1.29-.39-1.36-.79-2-.72-1.13-1.19-1.9-.11-1.5-.56-1.9a2.2,2.2,0,0,1-.56-1.18l-.16.37a3.84,3.84,0,0,1-1,1.7,2.65,2.65,0,0,1-2.91.91c-.66-.27-.56-.91-.56-1.72a23.47,23.47,0,0,1,0-3.19c.13-1.28.5-1.18,1.91-2s1.43-.79,1.77-1.33a12.08,12.08,0,0,1,1.93-1.81,12.44,12.44,0,0,0,2.12-3.7c.54-1.33,1.51-2.14,2.47-3.57a10.68,10.68,0,0,1,4.82-3.61c2.17-.91,1.81-1,2.31-1.73s.71-.29,1.56-.46.72,0-.13.83-1.22,1.73-.5,1.07,1.27-1.46,2.38-1.41.66,0,1.75.49,1.27.55.66.94a3,3,0,0,1-1.64.3,1.71,1.71,0,0,0,1.35.94c1,.12,1.56-.79,2.23-.45s.84.59-.06.52-1.16.49,0,.89a9.5,9.5,0,0,0,2.68.64c1.45.2,2.09,1.26,3.2,1.73s2.41.07,2.05,1.08.29,2-1.65,2.47-1.88-.15-3.5-.64a27.52,27.52,0,0,1-2.75-1,10.23,10.23,0,0,0,1.16,1.26c.74.69.82,1.33.74,2.59s-.42,1.61.85,2.22,1.09.45,1.49.35,1.06-.22.9-.42a1.88,1.88,0,0,0-.72-.77.47.47,0,0,1,0-.89c.42-.22.82.2,1.75.15s0-.34.45-.81.47-1.26,1.56-1.68,2.25.2,2.54-.27a1.26,1.26,0,0,0,0-1.73c-.61-.72-1.08-1-.71-1.31s1.11-1.26,1.46-.74,1.22,1.09.1,1-.34,1.65.66,1.56.93-.42,1.75-.82a35.41,35.41,0,0,1,3.58-2.1c1.14-.39,1.38-.29,1.83-.1a1.66,1.66,0,0,0,1.7.32c1.24-.24,1.61-.54,2.78-.74s-.08.42.45.6.58.32,1,.05,1.67-.72,1.09-1.16-1-.74-1-.74a1.59,1.59,0,0,1,1.54-.87,10.32,10.32,0,0,1,3.89,1.85,15.37,15.37,0,0,1,2.41,2.32,2.87,2.87,0,0,0,.08-2.17c-.4-1.36-1.4-1-1.4-2.32s-.93-.94-.61-1.85,1.22-1.26,1.46-2.42.45-2.12,1.27-2.12,2.6.25,2.6.25a7.49,7.49,0,0,1-.67,2.64c-.66,1.58.35,1.75.19,3.67s-.19,2.18.26,2.62,1.3,1,1,1.83a2.4,2.4,0,0,1-1.67,1.82c-1.19.47-2.7.2-2.14.57a5.21,5.21,0,0,0,2.06.81c.8.13.4,0,1-.56s2.07-1.56,2-2-.82-1.26-.29-1.63.74-.94,1.56-.47S241,57.76,241,57.69A4.87,4.87,0,0,0,239.84,55c-1-1-2.59,0-2.59-.91a27.86,27.86,0,0,0,.34-3c-.11-.93-.48-1.87.13-2.69a2.9,2.9,0,0,0,.64-1.45,3.5,3.5,0,0,1,0,1.72c-.21,1,.11,1.54.56,1.54s2.46,0,1.38-.3-1.41-.62-.32-1.21,1-.2,2.62.17a16,16,0,0,0,2.49.62c.53,0,.45-.07.27-.54a2.15,2.15,0,0,0-.93-1.11c-.51-.32-.85.07-1-.42s-.45-1.73-.58-2.2.4-.1,1.24-.1,3.16-.12,4.93-.17,0-1.9-.1-3.21,3.28-1.36,4.95-1.6a51.79,51.79,0,0,0,6.73-.92c3.13-.74,1.12-.61,1.57-1.5a2.06,2.06,0,0,1,2.14-1c.93,0,1.78.17,1.44.3s-1.38.64.23,1,1.2.32.35.61-.13.84,1.51.84.66-.15.4-.69.24-.35,1.59-.12a4.12,4.12,0,0,1,2.62,1.13c.74.69.88.52,1.14,1.48s0,.82-1.17,1.71-1.82.88-3.47,1.92-1.24,1.58-2.14,2.27-.67.49,1.24,0a12.37,12.37,0,0,1,3.92-.71c1,.09,1.46.46,2.2.46a14.17,14.17,0,0,0,2.28.13c2.33,0,2,0,1.14.66s.16.87,1.19.87a23.24,23.24,0,0,0,3.26-.1c1-.15.14-.86,1.28-.91s1.51-.15,2.73-.15.84.49,1.27.94,1,.74.61,1.62-.61.92-.37,2.13.84,1.38,1.59,1.6.74-1.08,1.45-1.53.88.89,1.7.69a4.84,4.84,0,0,1,2.46.12,4,4,0,0,0,2.34.13c1-.22.69-.62.34-1.24s-.37-.56.27-1.2,1.06-.33,3.12.22,1.41.54,2.57.86A11.08,11.08,0,0,1,306,52.75c1.78.82,1.44,1.78,2.26,2.3s.87,0,2.52-.15,1.61.2,3.41.67,1.33,1.06,1.33,1.58-.5.91.61,1.16a4.66,4.66,0,0,0,2.52.22c.95-.25.1.24,2.22.27s1.41-.25,2,.2.8,1.33,1.83,1.23,1-.07.53-1-.69-1.06-.08-1,1.86.29,4.16.66,2.39.79,4.27,2a40.94,40.94,0,0,1,3.79,2.34,3.68,3.68,0,0,1,.64.55,3.27,3.27,0,0,1,.71.29c1.48.69,1.22.47,2.49,1.09a14.09,14.09,0,0,1,2.36,1.48S343.7,66.72,342.75,66.82ZM219.1,91.9s-.14.19.6-.4-.34,0-.77-.15-.56-.32-.42-.86-.06-.55-.51-1.26c0,0-.23-.15-.74.14s-.79-.29-1.4-.07-1.27.12-1.65,1-.79.32-.92,1.06S212,92.53,212,92.53s.46.45.8.87.11.15.45,1.53.59,1.26,1.06,1.45a10.7,10.7,0,0,1,1.22.67s-.45-.27-.45.47-.72,1.26-.64,2.34-1,2.1-.13,2.2.58.47,1.51.72a9,9,0,0,0,2.81.42c1.35,0,.61-.52.42-1.29a10.71,10.71,0,0,1-.34-2.1c-.05-.83-.37-.61-.58-1.13s.1-.82.74-.82.72,0,.37-.59-.13-.79-.56-1-.61.81-.61.81-.26-.25-.15-1.28.18-.55-.14-.74-.5,0-.93-.64-.05-.55-.55-1.39-.24-.39.32-.39.26-.13,0-.4-.45-.69.26-.64,1.64.2,2,.22S219.1,91.9,219.1,91.9Zm-98.87-38c-.24.42.42,1,.89.79s.64,0,.91-.2.3-.53,0-.85-.19-.49-.24-.53C121.15,52.72,120.48,53.46,120.23,53.88Zm131-27.21c-.72,0-1.51,0-.85.27s.4,1.33,1.67.71,1-.66,1.88-1,.37-.2-.69-.47C252.59,26,252,26.64,251.24,26.67Z"/><path class="d" d="M229.72,0H9.56A9.56,9.56,0,0,0,0,9.56V208a9.56,9.56,0,0,0,9.56,9.56h95.59Z"/><g class="e"><path class="f" d="M42.81,130.17v16.09h-2.3V132.47H37.75v-2.3Z"/><path class="f" d="M50,132.47v2.07H47.64v-2.07a2.3,2.3,0,0,1,.18-.9,2.16,2.16,0,0,1,.5-.72,2.31,2.31,0,0,1,.73-.5,2.26,2.26,0,0,1,.9-.18h7.28a2.25,2.25,0,0,1,.89.18,2.31,2.31,0,0,1,.73.5,2.31,2.31,0,0,1,.68,1.62v2.94a3.61,3.61,0,0,1-.09.84,2.13,2.13,0,0,1-.29.67,2.08,2.08,0,0,1-.5.53,3.91,3.91,0,0,1-.74.45l-8,3.74V144h7.57v-2.07h2.3v4.37H47.64V142a3.45,3.45,0,0,1,.1-.84,2.13,2.13,0,0,1,.29-.67,2.21,2.21,0,0,1,.49-.53,3.92,3.92,0,0,1,.73-.44l8-3.75v-3.33Z"/><path class="f" d="M63.49,141.39h2.26v.85a2,2,0,0,0,.4,1.34,1.78,1.78,0,0,0,1.33.42h4.63a1.78,1.78,0,0,0,1.33-.42,1.9,1.9,0,0,0,.4-1.34V141a1.87,1.87,0,0,0-.4-1.34,1.78,1.78,0,0,0-1.33-.42H67.35V137h4.7a1.58,1.58,0,0,0,1.2-.45,1.92,1.92,0,0,0,.37-1.3V134.2a1.9,1.9,0,0,0-.41-1.35,1.76,1.76,0,0,0-1.32-.43H67.7a1.72,1.72,0,0,0-1.31.43,1.9,1.9,0,0,0-.4,1.35v.85H63.73v-1q0-3.92,3.91-3.91H72a3.42,3.42,0,0,1,3.91,3.91v.29a4.62,4.62,0,0,1-.48,2.24A2.92,2.92,0,0,1,74,137.92a2.63,2.63,0,0,1,1.56,1.21,4.72,4.72,0,0,1,.54,2.42v.8c0,2.61-1.31,3.91-3.91,3.91H67.41q-3.91,0-3.92-3.91Z"/><path class="f" d="M78.63,140.72l7.93-10.55h2.7v10.55h2.17v2.21H89.26v3.33H87v-3.33H78.63Zm8.33,0V133l-5.83,7.77Z"/><path class="f" d="M121.25,142.35a4.13,4.13,0,0,1-1,2.94,3.94,3.94,0,0,1-2.91,1H113q-3.92,0-3.91-3.91v-1h2.25v.85a1.9,1.9,0,0,0,.41,1.34,1.77,1.77,0,0,0,1.32.42h4.18a1.77,1.77,0,0,0,1.32-.42,1.9,1.9,0,0,0,.4-1.34v-2.16a1.86,1.86,0,0,0-.4-1.33,1.77,1.77,0,0,0-1.32-.43h-7.7v-8.15h11.26v2.3h-9v3.61h5.48a3.43,3.43,0,0,1,3.9,3.91Z"/><path class="f" d="M125.38,132.47a2.3,2.3,0,0,1,.18-.9,2.16,2.16,0,0,1,.5-.72,2.31,2.31,0,0,1,.73-.5,2.25,2.25,0,0,1,.89-.18H135a2.26,2.26,0,0,1,.9.18,2.31,2.31,0,0,1,.73.5,2.16,2.16,0,0,1,.5.72,2.49,2.49,0,0,1,.18.9v2.07H135v-2.07h-7.35v4.6H135a2.26,2.26,0,0,1,.9.18,2.29,2.29,0,0,1,.73.49,2.36,2.36,0,0,1,.5.74,2.4,2.4,0,0,1,.18.89V144a2.44,2.44,0,0,1-.18.89,2.21,2.21,0,0,1-.5.73,2.31,2.31,0,0,1-.73.5,2.26,2.26,0,0,1-.9.18h-7.35a2.25,2.25,0,0,1-.89-.18,2.31,2.31,0,0,1-.73-.5,2.21,2.21,0,0,1-.5-.73,2.25,2.25,0,0,1-.18-.89Zm2.3,6.9V144H135v-4.59Z"/><path class="f" d="M142.79,146.26,150,132.47h-9v-2.3h12.41v.69l-8,15.4Z"/><path class="f" d="M159.87,146.26q-3.92,0-3.92-3.91v-.8a4.72,4.72,0,0,1,.54-2.42,2.63,2.63,0,0,1,1.56-1.21,2.94,2.94,0,0,1-1.39-1.31,4.74,4.74,0,0,1-.47-2.24v-.29q0-3.92,3.9-3.91h4.32q3.92,0,3.91,3.91v.29a4.62,4.62,0,0,1-.48,2.24,2.94,2.94,0,0,1-1.39,1.31,2.6,2.6,0,0,1,1.56,1.21,4.72,4.72,0,0,1,.54,2.42v.8q0,3.92-3.9,3.91Zm4.7-2.26a1.77,1.77,0,0,0,1.32-.42,1.9,1.9,0,0,0,.41-1.34V141a1.87,1.87,0,0,0-.41-1.34,1.77,1.77,0,0,0-1.32-.42h-4.63a1.78,1.78,0,0,0-1.33.42,1.87,1.87,0,0,0-.4,1.34v1.24a1.9,1.9,0,0,0,.4,1.34,1.78,1.78,0,0,0,1.33.42Zm-.07-7a1.58,1.58,0,0,0,1.2-.45,2,2,0,0,0,.36-1.3V134.2a1.9,1.9,0,0,0-.4-1.35,1.73,1.73,0,0,0-1.32-.43h-4.18a1.71,1.71,0,0,0-1.31.43,1.9,1.9,0,0,0-.41,1.35v1.05a1.92,1.92,0,0,0,.37,1.3A1.58,1.58,0,0,0,160,137Z"/><path class="f" d="M200,144a2.25,2.25,0,0,1-.18.89,2.18,2.18,0,0,1-.49.73,2.36,2.36,0,0,1-.74.5,2.21,2.21,0,0,1-.89.18h-7.35a2.25,2.25,0,0,1-.89-.18,2.31,2.31,0,0,1-1.23-1.23,2.25,2.25,0,0,1-.18-.89v-2.07h2.3V144h7.35v-4.59h-7.35a2.09,2.09,0,0,1-.89-.19,2.51,2.51,0,0,1-.74-.49,2.46,2.46,0,0,1-.49-.73,2.25,2.25,0,0,1-.18-.89v-4.6a2.25,2.25,0,0,1,.67-1.62,2.36,2.36,0,0,1,.74-.5,2.25,2.25,0,0,1,.89-.18h7.35a2.21,2.21,0,0,1,.89.18,2.36,2.36,0,0,1,.74.5,2.14,2.14,0,0,1,.49.72,2.3,2.3,0,0,1,.18.9Zm-2.3-6.89v-4.6h-7.35v4.6Z"/><path class="f" d="M217.5,144a2.25,2.25,0,0,1-.18.89,2.18,2.18,0,0,1-.49.73,2.36,2.36,0,0,1-.74.5,2.25,2.25,0,0,1-.89.18h-8a2.25,2.25,0,0,1-.89-.18,2.31,2.31,0,0,1-.73-.5,2.21,2.21,0,0,1-.5-.73,2.25,2.25,0,0,1-.18-.89V132.47a2.3,2.3,0,0,1,.18-.9,2.16,2.16,0,0,1,.5-.72,2.31,2.31,0,0,1,.73-.5,2.25,2.25,0,0,1,.89-.18h8a2.25,2.25,0,0,1,.89.18,2.36,2.36,0,0,1,.74.5,2.14,2.14,0,0,1,.49.72,2.3,2.3,0,0,1,.18.9Zm-10.35-11.49V144h8V132.47Z"/><path class="f" d="M226,130.17v16.09h-2.3V132.47h-2.76v-2.3Z"/><path class="f" d="M233.13,132.47v2.07h-2.3v-2.07a2.3,2.3,0,0,1,.18-.9,2.14,2.14,0,0,1,.49-.72,2.36,2.36,0,0,1,.74-.5,2.25,2.25,0,0,1,.89-.18h7.28a2.3,2.3,0,0,1,.9.18,2.16,2.16,0,0,1,.72.5,2.32,2.32,0,0,1,.5.72,2.3,2.3,0,0,1,.18.9v2.94a3.61,3.61,0,0,1-.09.84,2.11,2.11,0,0,1-.28.67,2.27,2.27,0,0,1-.5.53,3.91,3.91,0,0,1-.74.45l-8,3.74V144h7.58v-2.07H243v4.37H230.83V142a3,3,0,0,1,.1-.84,2.11,2.11,0,0,1,.28-.67,2.49,2.49,0,0,1,.5-.53,4.18,4.18,0,0,1,.72-.44l8-3.75v-3.33Z"/><path class="f" d="M261.84,141.39h2.25v.85a1.9,1.9,0,0,0,.41,1.34,1.77,1.77,0,0,0,1.32.42h4.64a1.77,1.77,0,0,0,1.32-.42,1.9,1.9,0,0,0,.41-1.34V141a1.87,1.87,0,0,0-.41-1.34,1.77,1.77,0,0,0-1.32-.42H265.7V137h4.69a1.63,1.63,0,0,0,1.21-.45,2,2,0,0,0,.36-1.3V134.2a1.9,1.9,0,0,0-.41-1.35,1.73,1.73,0,0,0-1.32-.43h-4.18a1.73,1.73,0,0,0-1.32.43,1.94,1.94,0,0,0-.4,1.35v.85h-2.26v-1c0-2.61,1.31-3.91,3.91-3.91h4.32a3.42,3.42,0,0,1,3.91,3.91v.29a4.62,4.62,0,0,1-.48,2.24,2.94,2.94,0,0,1-1.39,1.31,2.63,2.63,0,0,1,1.56,1.21,4.72,4.72,0,0,1,.54,2.42v.8q0,3.92-3.9,3.91h-4.78c-2.62,0-3.92-1.3-3.92-3.91Z"/><path class="f" d="M277,140.72l7.93-10.55h2.71v10.55h2.16v2.21h-2.16v3.33h-2.3v-3.33H277Zm8.34,0V133l-5.84,7.77Z"/><path class="f" d="M304.44,142.35a4.22,4.22,0,0,1-1,2.94,4,4,0,0,1-2.92,1h-4.32q-3.91,0-3.92-3.91v-1h2.26v.85a1.9,1.9,0,0,0,.4,1.34,1.78,1.78,0,0,0,1.33.42h4.17a1.78,1.78,0,0,0,1.33-.42,2,2,0,0,0,.4-1.34v-2.16a1.9,1.9,0,0,0-.4-1.33,1.78,1.78,0,0,0-1.33-.43h-7.7v-8.15H304v2.3h-9v3.61h5.48a3.43,3.43,0,0,1,3.91,3.91Z"/><path class="f" d="M308.57,132.47a2.3,2.3,0,0,1,.18-.9,2.14,2.14,0,0,1,.49-.72,2.36,2.36,0,0,1,.74-.5,2.25,2.25,0,0,1,.89-.18h7.35a2.25,2.25,0,0,1,.89.18,2.36,2.36,0,0,1,.74.5,2.14,2.14,0,0,1,.49.72,2.3,2.3,0,0,1,.18.9v2.07h-2.3v-2.07h-7.35v4.6h7.35a2.25,2.25,0,0,1,.89.18,2.23,2.23,0,0,1,1.23,1.23,2.21,2.21,0,0,1,.18.89V144a2.25,2.25,0,0,1-.18.89,2.18,2.18,0,0,1-.49.73,2.36,2.36,0,0,1-.74.5,2.25,2.25,0,0,1-.89.18h-7.35a2.25,2.25,0,0,1-.89-.18,2.36,2.36,0,0,1-.74-.5,2.18,2.18,0,0,1-.49-.73,2.25,2.25,0,0,1-.18-.89Zm2.3,6.9V144h7.35v-4.59Z"/></g><path class="g" d="M41.44,128.8v16.09h-2.3V131.1H36.38v-2.3Z"/><path class="g" d="M48.58,131.1v2.07H46.27V131.1a2.3,2.3,0,0,1,.18-.9,2.16,2.16,0,0,1,.5-.72,2.31,2.31,0,0,1,.73-.5,2.26,2.26,0,0,1,.9-.18h7.28a2.25,2.25,0,0,1,.89.18,2.31,2.31,0,0,1,.73.5,2.31,2.31,0,0,1,.68,1.62V134a3.61,3.61,0,0,1-.09.84,2.13,2.13,0,0,1-.29.67,2.26,2.26,0,0,1-.5.53,3.91,3.91,0,0,1-.74.45l-8,3.74v2.32h7.57v-2.07h2.3v4.37H46.27v-4.23a3.45,3.45,0,0,1,.1-.84,2.13,2.13,0,0,1,.29-.67,2.21,2.21,0,0,1,.49-.53,3.92,3.92,0,0,1,.73-.44l8-3.75V131.1Z"/><path class="g" d="M62.12,140h2.26v.85a2,2,0,0,0,.4,1.34,1.78,1.78,0,0,0,1.33.42h4.63a1.78,1.78,0,0,0,1.33-.42,1.9,1.9,0,0,0,.4-1.34v-1.24a1.87,1.87,0,0,0-.4-1.34,1.78,1.78,0,0,0-1.33-.42H66v-2.24h4.7a1.58,1.58,0,0,0,1.2-.45,1.92,1.92,0,0,0,.37-1.3v-1a1.9,1.9,0,0,0-.41-1.35,1.76,1.76,0,0,0-1.32-.43H66.33a1.72,1.72,0,0,0-1.31.43,1.9,1.9,0,0,0-.4,1.35v.85H62.36v-1q0-3.92,3.91-3.91h4.31a3.42,3.42,0,0,1,3.91,3.91V133a4.62,4.62,0,0,1-.48,2.24,2.92,2.92,0,0,1-1.38,1.31,2.63,2.63,0,0,1,1.56,1.21,4.72,4.72,0,0,1,.54,2.42v.8c0,2.61-1.31,3.91-3.91,3.91H66q-3.92,0-3.92-3.91Z"/><path class="g" d="M77.26,139.35l7.93-10.55h2.7v10.55h2.17v2.21H87.89v3.33h-2.3v-3.33H77.26Zm8.33,0v-7.77l-5.83,7.77Z"/><path class="g" d="M119.88,141a4.13,4.13,0,0,1-1,2.94,3.94,3.94,0,0,1-2.91,1h-4.33q-3.91,0-3.91-3.91v-1H110v.85a1.9,1.9,0,0,0,.41,1.34,1.77,1.77,0,0,0,1.32.42h4.18a1.77,1.77,0,0,0,1.32-.42,1.9,1.9,0,0,0,.4-1.34v-2.16a1.86,1.86,0,0,0-.4-1.33,1.77,1.77,0,0,0-1.32-.43h-7.7V128.8h11.26v2.3h-9v3.61H116a3.43,3.43,0,0,1,3.9,3.91Z"/><path class="g" d="M124,131.1a2.3,2.3,0,0,1,.18-.9,2.16,2.16,0,0,1,.5-.72,2.31,2.31,0,0,1,.73-.5,2.25,2.25,0,0,1,.89-.18h7.35a2.26,2.26,0,0,1,.9.18,2.31,2.31,0,0,1,.73.5,2.16,2.16,0,0,1,.5.72,2.49,2.49,0,0,1,.18.9v2.07h-2.31V131.1h-7.35v4.6h7.35a2.26,2.26,0,0,1,.9.18,2.29,2.29,0,0,1,.73.49,2.36,2.36,0,0,1,.5.74,2.4,2.4,0,0,1,.18.89v4.59a2.44,2.44,0,0,1-.18.89,2.21,2.21,0,0,1-.5.73,2.31,2.31,0,0,1-.73.5,2.26,2.26,0,0,1-.9.18h-7.35a2.25,2.25,0,0,1-.89-.18,2.31,2.31,0,0,1-.73-.5,2.21,2.21,0,0,1-.5-.73,2.25,2.25,0,0,1-.18-.89Zm2.3,6.9v4.59h7.35V138Z"/><path class="g" d="M141.42,144.89l7.22-13.79h-9v-2.3h12.41v.69l-8,15.4Z"/><path class="g" d="M158.5,144.89q-3.92,0-3.92-3.91v-.8a4.72,4.72,0,0,1,.54-2.42,2.63,2.63,0,0,1,1.56-1.21,2.94,2.94,0,0,1-1.39-1.31,4.74,4.74,0,0,1-.47-2.24v-.29q0-3.92,3.9-3.91H163q3.92,0,3.91,3.91V133a4.62,4.62,0,0,1-.48,2.24,2.94,2.94,0,0,1-1.39,1.31,2.6,2.6,0,0,1,1.56,1.21,4.72,4.72,0,0,1,.54,2.42v.8q0,3.92-3.9,3.91Zm4.7-2.26a1.77,1.77,0,0,0,1.32-.42,1.9,1.9,0,0,0,.41-1.34v-1.24a1.87,1.87,0,0,0-.41-1.34,1.77,1.77,0,0,0-1.32-.42h-4.63a1.78,1.78,0,0,0-1.33.42,1.87,1.87,0,0,0-.4,1.34v1.24a1.9,1.9,0,0,0,.4,1.34,1.78,1.78,0,0,0,1.33.42Zm-.07-7a1.58,1.58,0,0,0,1.2-.45,2,2,0,0,0,.36-1.3v-1a1.9,1.9,0,0,0-.4-1.35,1.73,1.73,0,0,0-1.32-.43h-4.18a1.71,1.71,0,0,0-1.31.43,1.9,1.9,0,0,0-.41,1.35v1a1.92,1.92,0,0,0,.37,1.3,1.58,1.58,0,0,0,1.19.45Z"/><path class="g" d="M198.65,142.59a2.25,2.25,0,0,1-.18.89,2.18,2.18,0,0,1-.49.73,2.36,2.36,0,0,1-.74.5,2.21,2.21,0,0,1-.89.18H189a2.25,2.25,0,0,1-.89-.18,2.31,2.31,0,0,1-1.23-1.23,2.25,2.25,0,0,1-.18-.89v-2.07H189v2.07h7.35V138H189a2.09,2.09,0,0,1-.89-.19,2.51,2.51,0,0,1-.74-.49,2.46,2.46,0,0,1-.49-.73,2.25,2.25,0,0,1-.18-.89v-4.6a2.25,2.25,0,0,1,.67-1.62,2.36,2.36,0,0,1,.74-.5,2.25,2.25,0,0,1,.89-.18h7.35a2.21,2.21,0,0,1,.89.18,2.36,2.36,0,0,1,.74.5,2.14,2.14,0,0,1,.49.72,2.3,2.3,0,0,1,.18.9Zm-2.3-6.89v-4.6H189v4.6Z"/><path class="g" d="M216.13,142.59a2.25,2.25,0,0,1-.18.89,2.18,2.18,0,0,1-.49.73,2.36,2.36,0,0,1-.74.5,2.25,2.25,0,0,1-.89.18h-8.05a2.25,2.25,0,0,1-.89-.18,2.31,2.31,0,0,1-.73-.5,2.21,2.21,0,0,1-.5-.73,2.25,2.25,0,0,1-.18-.89V131.1a2.3,2.3,0,0,1,.18-.9,2.16,2.16,0,0,1,.5-.72,2.31,2.31,0,0,1,.73-.5,2.25,2.25,0,0,1,.89-.18h8.05a2.25,2.25,0,0,1,.89.18,2.36,2.36,0,0,1,.74.5,2.14,2.14,0,0,1,.49.72,2.3,2.3,0,0,1,.18.9ZM205.78,131.1v11.49h8.05V131.1Z"/><path class="g" d="M224.63,128.8v16.09h-2.3V131.1h-2.76v-2.3Z"/><path class="g" d="M231.76,131.1v2.07h-2.3V131.1a2.3,2.3,0,0,1,.18-.9,2.14,2.14,0,0,1,.49-.72,2.36,2.36,0,0,1,.74-.5,2.25,2.25,0,0,1,.89-.18H239a2.3,2.3,0,0,1,.9.18,2.16,2.16,0,0,1,.72.5,2.32,2.32,0,0,1,.5.72,2.3,2.3,0,0,1,.18.9V134a3.61,3.61,0,0,1-.09.84,2.11,2.11,0,0,1-.28.67,2.49,2.49,0,0,1-.5.53,3.91,3.91,0,0,1-.74.45l-8,3.74v2.32h7.58v-2.07h2.3v4.37H229.46v-4.23a3,3,0,0,1,.1-.84,2.11,2.11,0,0,1,.28-.67,2.49,2.49,0,0,1,.5-.53,4.18,4.18,0,0,1,.72-.44l8-3.75V131.1Z"/><path class="g" d="M260.47,140h2.25v.85a1.9,1.9,0,0,0,.41,1.34,1.77,1.77,0,0,0,1.32.42h4.64a1.77,1.77,0,0,0,1.32-.42,1.9,1.9,0,0,0,.41-1.34v-1.24a1.87,1.87,0,0,0-.41-1.34,1.77,1.77,0,0,0-1.32-.42h-4.76v-2.24H269a1.63,1.63,0,0,0,1.21-.45,2,2,0,0,0,.36-1.3v-1a1.9,1.9,0,0,0-.41-1.35,1.73,1.73,0,0,0-1.32-.43h-4.18a1.73,1.73,0,0,0-1.32.43,1.94,1.94,0,0,0-.4,1.35v.85H260.7v-1c0-2.61,1.31-3.91,3.91-3.91h4.32a3.42,3.42,0,0,1,3.91,3.91V133a4.62,4.62,0,0,1-.48,2.24,2.94,2.94,0,0,1-1.39,1.31,2.63,2.63,0,0,1,1.56,1.21,4.72,4.72,0,0,1,.54,2.42v.8q0,3.92-3.9,3.91h-4.78c-2.62,0-3.92-1.3-3.92-3.91Z"/><path class="g" d="M275.6,139.35l7.93-10.55h2.71v10.55h2.16v2.21h-2.16v3.33h-2.3v-3.33H275.6Zm8.34,0v-7.77l-5.84,7.77Z"/><path class="g" d="M303.07,141a4.22,4.22,0,0,1-1,2.94,4,4,0,0,1-2.92,1h-4.32q-3.91,0-3.92-3.91v-1h2.26v.85a1.9,1.9,0,0,0,.4,1.34,1.78,1.78,0,0,0,1.33.42h4.17a1.78,1.78,0,0,0,1.33-.42,2,2,0,0,0,.4-1.34v-2.16a1.9,1.9,0,0,0-.4-1.33,1.78,1.78,0,0,0-1.33-.43h-7.7V128.8h11.27v2.3h-9v3.61h5.48a3.43,3.43,0,0,1,3.91,3.91Z"/><path class="g" d="M307.2,131.1a2.3,2.3,0,0,1,.18-.9,2.14,2.14,0,0,1,.49-.72,2.36,2.36,0,0,1,.74-.5,2.25,2.25,0,0,1,.89-.18h7.35a2.25,2.25,0,0,1,.89.18,2.36,2.36,0,0,1,.74.5,2.14,2.14,0,0,1,.49.72,2.3,2.3,0,0,1,.18.9v2.07h-2.3V131.1H309.5v4.6h7.35a2.25,2.25,0,0,1,.89.18,2.23,2.23,0,0,1,1.23,1.23,2.21,2.21,0,0,1,.18.89v4.59a2.25,2.25,0,0,1-.18.89,2.18,2.18,0,0,1-.49.73,2.36,2.36,0,0,1-.74.5,2.25,2.25,0,0,1-.89.18H309.5a2.25,2.25,0,0,1-.89-.18,2.36,2.36,0,0,1-.74-.5,2.18,2.18,0,0,1-.49-.73,2.25,2.25,0,0,1-.18-.89Zm2.3,6.9v4.59h7.35V138Z"/><path class="g" d="M38.39,155.16v7.54H37.32v-6.46H36v-1.08Z"/><path class="g" d="M41.74,156.24v1H40.66v-1a1.16,1.16,0,0,1,.08-.42,1.2,1.2,0,0,1,.23-.34,1,1,0,0,1,.35-.23,1,1,0,0,1,.42-.09h3.41a1,1,0,0,1,.42.09,1.08,1.08,0,0,1,.57.57,1,1,0,0,1,.09.42v1.38a1.61,1.61,0,0,1,0,.39,1,1,0,0,1-.13.31,1.14,1.14,0,0,1-.24.25,1.3,1.3,0,0,1-.35.21l-3.73,1.76v1.09h3.55v-1h1.08v2H40.66v-2a1.51,1.51,0,0,1,0-.39,1,1,0,0,1,.14-.31.78.78,0,0,1,.23-.25,1.63,1.63,0,0,1,.34-.21l3.74-1.76v-1.56Z"/><path class="g" d="M48.09,160.42h1.06v.4a.9.9,0,0,0,.19.63.82.82,0,0,0,.62.2h2.17a.82.82,0,0,0,.62-.2.9.9,0,0,0,.19-.63v-.58a.86.86,0,0,0-.19-.63.82.82,0,0,0-.62-.19H49.9v-1.06h2.2a.79.79,0,0,0,.57-.21.93.93,0,0,0,.17-.61v-.49a.91.91,0,0,0-.19-.63.81.81,0,0,0-.62-.2h-2a.79.79,0,0,0-.61.2.86.86,0,0,0-.19.63v.4H48.2V157A1.62,1.62,0,0,1,50,155.16h2A1.6,1.6,0,0,1,53.89,157v.14a2.15,2.15,0,0,1-.22,1.05,1.37,1.37,0,0,1-.65.61,1.26,1.26,0,0,1,.73.57,2.2,2.2,0,0,1,.25,1.13v.38a1.62,1.62,0,0,1-1.83,1.83H49.93a1.62,1.62,0,0,1-1.84-1.83Z"/><path class="g" d="M55.19,160.11l3.72-5h1.26v5h1v1h-1v1.56H59.1v-1.56H55.19Zm3.91,0v-3.65l-2.74,3.65Z"/><path class="g" d="M236.34,162.62l-1.9-4.94h.76l1.53,4.06,1.54-4.06H239l-1.9,4.94Z"/><path class="g" d="M241.77,157.68l1.9,4.94H243l-.44-1.14H240.3l-.43,1.14h-.71l1.9-4.94Zm-1.2,3.1h1.69l-.84-2.18Z"/><path class="g" d="M245.44,157.68v4.23H248v.71h-3.24v-4.94Z"/><path class="g" d="M249.73,157.68v4.94H249v-4.94Z"/><path class="g" d="M251.21,162.62v-4.94h2.51a2,2,0,0,1,.71.13,1.41,1.41,0,0,1,.89.89,1.8,1.8,0,0,1,.13.71v1.48a1.8,1.8,0,0,1-.13.71,1.46,1.46,0,0,1-.34.55,1.55,1.55,0,0,1-.55.34,1.8,1.8,0,0,1-.71.13Zm2.51-.71a.91.91,0,0,0,1-1v-1.48a1.18,1.18,0,0,0-.07-.43.83.83,0,0,0-.2-.32.76.76,0,0,0-.32-.2,1.18,1.18,0,0,0-.43-.07h-1.8v3.52Z"/><path class="g" d="M235.08,166.14H239v.7H237.4v4.23h-.7v-4.23h-1.62Z"/><path class="g" d="M244.32,166.14v4.93h-.71V169h-2.82v2.11h-.71v-4.93h.71v2.11h2.82v-2.11Z"/><path class="g" d="M249.69,167.9c0,.69-.29,1.08-.88,1.18l.93,2H249l-.92-2H246.5v2h-.71v-4.93h2.7a1.06,1.06,0,0,1,1.2,1.2Zm-3.19.5h2a.56.56,0,0,0,.4-.13.52.52,0,0,0,.13-.4v-.5a.52.52,0,0,0-.13-.4.56.56,0,0,0-.4-.13h-2Z"/><path class="g" d="M251.08,166.14h.7v4.23h2.82v-4.23h.71v4.23a.66.66,0,0,1-.06.27.57.57,0,0,1-.15.23.7.7,0,0,1-.5.2h-2.82a.86.86,0,0,1-.27,0,.71.71,0,0,1-.22-.15.73.73,0,0,1-.16-.23.86.86,0,0,1,0-.27Z"/><polygon class="g" points="258.78 161.08 258.78 167.29 262.64 164.19 258.78 161.08"/><rect class="h" x="36.28" y="57.96" width="60.05" height="37.03" rx="7.76"/><g class="i"><path class="j" d="M66.31,89a7.08,7.08,0,0,1-4.5-12.55A7,7,0,0,1,59.22,71a7.09,7.09,0,0,1,14.17,0,7,7,0,0,1-2.59,5.46A7.08,7.08,0,0,1,66.31,89Zm0-23.93A5.92,5.92,0,0,0,63.11,76l.76.48-.76.49a5.93,5.93,0,1,0,6.39,0l-.76-.49L69.5,76a5.92,5.92,0,0,0-3.19-10.9Z"/><rect class="j" x="36.28" y="68.15" width="23.95" height="1.16"/><rect class="j" x="72.81" y="68.15" width="23.52" height="1.16"/><rect class="j" x="36.28" y="83.46" width="23.95" height="1.16"/><rect class="j" x="72.81" y="83.46" width="23.52" height="1.16"/><rect class="j" x="47.67" y="57.96" width="1.16" height="37.03"/><rect class="j" x="80.53" y="68.74" width="1.16" height="15.31"/><rect class="j" x="86.08" y="57.96" width="1.16" height="10.78"/><rect class="j" x="86.08" y="84.04" width="1.16" height="10.95"/></g><polygon class="g" points="32.36 80.44 32.36 71.27 26.67 75.86 32.36 80.44"/><path class="g" d="M38.88,193a8.14,8.14,0,0,0,4,1.09c1.82,0,2.84-.82,2.84-2.06s-.76-1.79-2.85-2.43c-2.7-.83-4.4-2.12-4.4-4.47,0-2.53,2.18-4.4,5.53-4.4a8.71,8.71,0,0,1,4,.82l-.71,2.29a7.44,7.44,0,0,0-3.33-.78c-1.84,0-2.59.94-2.59,1.82,0,1.16.94,1.71,3.06,2.41,2.79.93,4.19,2.2,4.19,4.56s-1.75,4.59-6,4.59a9.43,9.43,0,0,1-4.43-1.07Z"/><path class="g" d="M60.27,189.49H54v4.32h7v2.34H51.2V181h9.44v2.35H54v3.81h6.25Z"/><path class="g" d="M63.49,181.19a28.14,28.14,0,0,1,4.51-.34c2.31,0,3.81.4,4.85,1.26a3.82,3.82,0,0,1,1.32,3,4,4,0,0,1-2.8,3.77V189a4,4,0,0,1,2.11,2.86,41.29,41.29,0,0,0,1.26,4.3H71.86a19.36,19.36,0,0,1-1.08-3.54c-.47-2-1.22-2.62-2.87-2.67H66.28v6.21H63.49Zm2.79,6.66H68.2c2,0,3.18-.95,3.18-2.44,0-1.7-1.31-2.41-3.13-2.41a9.3,9.3,0,0,0-2,.16Z"/><path class="g" d="M90,195.36a16.74,16.74,0,0,1-5.39.95c-2.81,0-4.93-.71-6.46-2.2a7.42,7.42,0,0,1-2.15-5.4c0-4.51,3.44-7.88,9-7.88a11.14,11.14,0,0,1,4.46.8l-.65,2.28a9.12,9.12,0,0,0-3.91-.74c-3.55,0-5.93,2.07-5.93,5.35S81.23,194,84.79,194a6.28,6.28,0,0,0,2.46-.36V190H84.31v-2.25H90Z"/><path class="g" d="M102,189.49H95.75v4.32h7v2.34H92.93V181h9.44v2.35H95.75v3.81H102Z"/><path class="g" d="M109.07,196.15v-6.39L103.92,181h3.29l2,4c.56,1.15,1,1.91,1.41,2.91h0c.41-.92.87-1.79,1.42-2.89l2-4h3.24l-5.42,8.71v6.46Z"/><path class="g" d="M124,193a8.17,8.17,0,0,0,4,1.09c1.82,0,2.84-.82,2.84-2.06s-.76-1.79-2.84-2.43c-2.71-.83-4.4-2.12-4.4-4.47,0-2.53,2.17-4.4,5.52-4.4a8.68,8.68,0,0,1,4,.82l-.71,2.29a7.4,7.4,0,0,0-3.33-.78c-1.84,0-2.59.94-2.59,1.82,0,1.16.94,1.71,3.06,2.41,2.8.93,4.19,2.2,4.19,4.56s-1.75,4.59-5.95,4.59a9.43,9.43,0,0,1-4.43-1.07Z"/><path class="g" d="M145.41,189.49h-6.25v4.32h7v2.34h-9.78V181h9.43v2.35h-6.62v3.81h6.25Z"/><path class="g" d="M148.63,181.19a28.14,28.14,0,0,1,4.51-.34c2.31,0,3.81.4,4.85,1.26a3.82,3.82,0,0,1,1.32,3,4,4,0,0,1-2.8,3.77V189a4,4,0,0,1,2.12,2.86,39.5,39.5,0,0,0,1.25,4.3H157a18.84,18.84,0,0,1-1.07-3.54c-.47-2-1.23-2.62-2.88-2.67h-1.63v6.21h-2.79Zm2.79,6.66h1.92c2,0,3.18-.95,3.18-2.44,0-1.7-1.31-2.41-3.13-2.41a9.3,9.3,0,0,0-2,.16Z"/><path class="g" d="M175.16,195.36a16.69,16.69,0,0,1-5.39.95c-2.81,0-4.93-.71-6.46-2.2a7.42,7.42,0,0,1-2.15-5.4c0-4.51,3.44-7.88,9-7.88a11.14,11.14,0,0,1,4.46.8l-.65,2.28a9.1,9.1,0,0,0-3.9-.74c-3.56,0-5.94,2.07-5.94,5.35s2.25,5.47,5.81,5.47a6.28,6.28,0,0,0,2.46-.36V190h-2.94v-2.25h5.71Z"/><path class="g" d="M187.14,189.49h-6.25v4.32h7v2.34h-9.78V181h9.44v2.35h-6.62v3.81h6.25Z"/><path class="g" d="M199.42,189.49h-6.25v4.32h7v2.34h-9.79V181h9.44v2.35h-6.62v3.81h6.25Z"/><path class="g" d="M206.6,196.15,201.34,181h3.07l2.28,6.93c.66,2,1.19,3.7,1.63,5.53h0c.46-1.76,1.06-3.58,1.73-5.45l2.47-7h3l-5.67,15.17Z"/><path class="g" d="M216.4,37.27a10.58,10.58,0,0,1-4.39.79c-5.11,0-8.28-3.08-8.28-7.68s3.52-8,8.66-8a9.46,9.46,0,0,1,4.13.77l-.64,2.27a8.07,8.07,0,0,0-3.37-.69c-3.48,0-5.82,2.07-5.82,5.55,0,3.1,2,5.43,5.77,5.43a8.78,8.78,0,0,0,3.43-.64Z"/><path class="g" d="M218.89,22.83a28.24,28.24,0,0,1,4.51-.34c2.32,0,3.82.4,4.85,1.26a3.82,3.82,0,0,1,1.33,3,4,4,0,0,1-2.81,3.77v.07a4,4,0,0,1,2.12,2.85,39.17,39.17,0,0,0,1.25,4.31h-2.88a18.84,18.84,0,0,1-1.07-3.54c-.47-2-1.22-2.62-2.88-2.67h-1.63v6.21h-2.79Zm2.79,6.66h1.93c2,0,3.18-.95,3.18-2.44,0-1.7-1.32-2.41-3.13-2.41a9.42,9.42,0,0,0-2,.16Z"/><path class="g" d="M241.31,31.12h-6.25v4.33h7v2.34h-9.79V22.62h9.44V25h-6.62v3.81h6.25Z"/><path class="g" d="M244.53,22.83a33,33,0,0,1,4.86-.34c3.11,0,5.23.65,6.74,1.92a6.57,6.57,0,0,1,2.44,5.4,7.74,7.74,0,0,1-2.43,5.9c-1.64,1.48-4.27,2.24-7.47,2.24a32.73,32.73,0,0,1-4.14-.21Zm2.81,12.78a11.89,11.89,0,0,0,1.82.09c4.13,0,6.42-2.18,6.42-5.76,0-3.31-2.17-5.22-6-5.22a10.76,10.76,0,0,0-2.23.19Z"/><path class="g" d="M263.85,22.62V37.79H261V22.62Z"/><path class="g" d="M270.33,25h-4.74V22.62h12.34V25h-4.78v12.8h-2.82Z"/><path class="g" d="M296.42,37.27a10.62,10.62,0,0,1-4.39.79c-5.12,0-8.28-3.08-8.28-7.68s3.52-8,8.66-8a9.37,9.37,0,0,1,4.12.77l-.63,2.27a8.07,8.07,0,0,0-3.37-.69c-3.48,0-5.82,2.07-5.82,5.55,0,3.1,2,5.43,5.77,5.43a8.78,8.78,0,0,0,3.43-.64Z"/><path class="g" d="M302.29,33.39l-1.41,4.4h-3l5.22-15.17h3.67l5.37,15.17h-3.09l-1.52-4.4Zm4.77-2.16-1.35-3.82c-.32-.93-.58-1.84-.82-2.66h-.05c-.23.83-.46,1.75-.74,2.64l-1.31,3.84Z"/><path class="g" d="M314.34,22.83a28.28,28.28,0,0,1,4.52-.34c2.31,0,3.81.4,4.85,1.26a3.85,3.85,0,0,1,1.32,3,4,4,0,0,1-2.81,3.77v.07a4,4,0,0,1,2.12,2.85,36.47,36.47,0,0,0,1.26,4.31h-2.89a19.68,19.68,0,0,1-1.07-3.54c-.47-2-1.22-2.62-2.87-2.67h-1.63v6.21h-2.8Zm2.8,6.66h1.92c2,0,3.18-.95,3.18-2.44,0-1.7-1.31-2.41-3.13-2.41a9.3,9.3,0,0,0-2,.16Z"/><path class="g" d="M327.7,22.83a33,33,0,0,1,4.86-.34c3.12,0,5.23.65,6.74,1.92a6.57,6.57,0,0,1,2.44,5.4,7.77,7.77,0,0,1-2.42,5.9C337.67,37.19,335,38,331.84,38a32.85,32.85,0,0,1-4.14-.21Zm2.81,12.78a11.89,11.89,0,0,0,1.82.09c4.13,0,6.42-2.18,6.42-5.76,0-3.31-2.17-5.22-6-5.22a10.76,10.76,0,0,0-2.23.19Z"/><path class="g" d="M275.45,164c0,2.8-1,4.22-2.53,4.22s-2.39-1.48-2.41-4.13,1-4.19,2.54-4.19S275.45,161.47,275.45,164Zm-3.91.09c0,2.05.54,3.29,1.44,3.29s1.44-1.32,1.44-3.34-.43-3.3-1.43-3.3S271.54,162,271.54,164.13Z"/><path class="g" d="M278.53,161.07h0l-1.35.76L277,161l1.7-1h.86v8.07h-1Z"/><path class="g" d="M281.61,168.64l3.14-9h.79l-3.15,9Z"/><path class="g" d="M286,168.14v-.65l.78-.86c1.68-1.78,2.65-3,2.66-4.27,0-.85-.38-1.54-1.42-1.54a2.37,2.37,0,0,0-1.51.61l-.31-.75a3.1,3.1,0,0,1,2-.74,2.13,2.13,0,0,1,2.24,2.3c0,1.51-1,2.79-2.48,4.34l-.59.65v0h3.25v.89Z"/><path class="g" d="M296.47,160.07v.67l-3.15,7.4h-1l3.13-7.16v0h-3.54v-.88Z"/></g></svg>