<svg xmlns="http://www.w3.org/2000/svg" viewBox="0 0 311.79 155.89"><defs><style>.cls-1{fill:#0c0d0d;}.cls-2{fill:#66b32e;}.cls-3{fill:#e5231f;}.cls-4{fill:#e62354;}.cls-5{fill:#fbc83f;}</style></defs><g id="Слой_2" data-name="Слой 2"><g id="Слой_1-2" data-name="Слой 1"><path class="cls-1" d="M119.67,122.72V120l3.45-3.35c8.3-7.9,12-12.1,12.1-17,0-3.3-1.6-6.35-6.45-6.35a11.07,11.07,0,0,0-6.9,2.75l-1.4-3.1a14.26,14.26,0,0,1,9.2-3.3c7,0,10,4.8,10,9.45,0,6-4.35,10.85-11.2,17.45l-2.6,2.4v.1h14.6v3.65Z"/><path class="cls-1" d="M163.87,93.32a15.89,15.89,0,0,0-3.3.2,13.21,13.21,0,0,0-11.3,11.55h.15a9.68,9.68,0,0,1,7.85-3.75c5.75,0,9.8,4.15,9.8,10.5,0,6-4,11.45-10.8,11.45-7,0-11.5-5.4-11.5-13.85,0-6.4,2.3-11.45,5.5-14.65a17.69,17.69,0,0,1,10.4-4.8,21.13,21.13,0,0,1,3.2-.25Zm-1.25,18.75c0-4.65-2.65-7.45-6.7-7.45a7.24,7.24,0,0,0-6.3,4,3.75,3.75,0,0,0-.5,1.95c.1,5.35,2.55,9.3,7.15,9.3C160.07,119.87,162.62,116.72,162.62,112.07Z"/><path class="cls-1" d="M192.57,106.12c0,11-4.1,17.15-11.3,17.15-6.35,0-10.65-6-10.75-16.7s4.7-16.9,11.3-16.9C188.67,89.67,192.57,95.77,192.57,106.12Zm-17.65.5c0,8.45,2.6,13.25,6.6,13.25,4.5,0,6.65-5.25,6.65-13.55,0-8-2-13.25-6.6-13.25C177.72,93.07,174.92,97.77,174.92,106.62Z"/><path class="cls-1" d="M86.69,143.75a23.29,23.29,0,0,1,3.54-.26c1.85,0,4.93.3,4.93,2.78a2.62,2.62,0,0,1-2.32,2.5v0c1.63.23,2.82,1.15,2.82,2.75,0,2.92-3.67,3.28-5.85,3.28-1.24,0-2.52-.09-3.12-.13Zm1.91,9.64a12,12,0,0,0,1.63.09c1.35,0,3.37-.32,3.37-1.93s-1.61-2-3.53-2H88.6Zm0-5.12h1.51c1.5,0,3-.44,3-1.75,0-1.1-1-1.63-3-1.63a13,13,0,0,0-1.56.1Z"/><path class="cls-1" d="M106.13,154.3a7.32,7.32,0,0,1-3.19.65,5.28,5.28,0,0,1-5.53-5.67,5.65,5.65,0,0,1,6-5.9,6.86,6.86,0,0,1,2.8.57l-.46,1.56a4.75,4.75,0,0,0-2.34-.52c-2.55,0-3.93,1.88-3.93,4.2a3.81,3.81,0,0,0,3.86,4.15,5.76,5.76,0,0,0,2.48-.55Z"/><path class="cls-1" d="M109.49,149.53a3.56,3.56,0,0,0,3.81,3.86,7.31,7.31,0,0,0,3.07-.58l.35,1.45a9.06,9.06,0,0,1-3.7.69c-3.42,0-5.46-2.25-5.46-5.6s2-6,5.21-6c3.62,0,4.59,3.19,4.59,5.23a8.31,8.31,0,0,1-.07.94Zm5.92-1.45c0-1.28-.53-3.28-2.8-3.28-2,0-2.94,1.88-3.1,3.28Z"/><path class="cls-1" d="M126.63,143.61v1.63h-4.82v9.48h-2V143.61Z"/><path class="cls-1" d="M138.29,149.07c0,4.11-2.84,5.9-5.53,5.9-3,0-5.32-2.2-5.32-5.71,0-3.72,2.43-5.9,5.51-5.9S138.29,145.68,138.29,149.07Zm-8.81.12c0,2.43,1.4,4.27,3.37,4.27s3.38-1.82,3.38-4.32c0-1.88-.94-4.27-3.33-4.27S129.48,147.07,129.48,149.19Z"/><path class="cls-1" d="M155.76,149.07c0,4.11-2.84,5.9-5.53,5.9-3,0-5.32-2.2-5.32-5.71,0-3.72,2.43-5.9,5.51-5.9S155.76,145.68,155.76,149.07Zm-8.81.12c0,2.43,1.4,4.27,3.37,4.27s3.38-1.82,3.38-4.32c0-1.88-.94-4.27-3.33-4.27S147,147.07,147,149.19Z"/><path class="cls-1" d="M165.64,143.61v1.61h-3.47v9.5h-2v-9.5h-3.46v-1.61Z"/><path class="cls-1" d="M168.6,148.27h1c1.7,0,2.85-.78,2.85-1.81s-.9-1.61-2.16-1.61a5.37,5.37,0,0,0-2.68.78l-.51-1.24a7.06,7.06,0,0,1,3.7-1c1.69,0,3.76.76,3.76,2.92a2.83,2.83,0,0,1-2.5,2.52v.05c1.65.13,3,1.14,3,2.77,0,2.41-2.46,3.31-4.8,3.31a7.62,7.62,0,0,1-3.6-.9l.53-1.35a6.46,6.46,0,0,0,2.93.76c1.68,0,2.73-.81,2.73-1.91,0-1.49-1.56-1.91-3.23-1.91h-1Z"/><path class="cls-1" d="M179.53,143.61v3.79a8.77,8.77,0,0,1,1.81-.14c2.38,0,4.8,1,4.8,3.72a3.15,3.15,0,0,1-1.15,2.57,7,7,0,0,1-4.48,1.28,27.88,27.88,0,0,1-3-.16V143.61Zm0,9.71a12.47,12.47,0,0,0,1.4.09c1.53,0,3.21-.64,3.21-2.36s-1.61-2.35-3.12-2.35a8.88,8.88,0,0,0-1.49.12Zm10-9.71v11.11h-2V143.61Z"/><path class="cls-1" d="M192.79,143.75a23.29,23.29,0,0,1,3.54-.26c1.86,0,4.93.3,4.93,2.78a2.62,2.62,0,0,1-2.32,2.5v0c1.63.23,2.83,1.15,2.83,2.75,0,2.92-3.67,3.28-5.85,3.28-1.24,0-2.53-.09-3.13-.13Zm1.91,9.64a12,12,0,0,0,1.63.09c1.35,0,3.37-.32,3.37-1.93s-1.6-2-3.53-2H194.7Zm0-5.12h1.52c1.49,0,3-.44,3-1.75,0-1.1-1-1.63-3-1.63a13.18,13.18,0,0,0-1.56.1Z"/><path class="cls-1" d="M214.37,149.07c0,4.11-2.85,5.9-5.53,5.9-3,0-5.33-2.2-5.33-5.71,0-3.72,2.44-5.9,5.51-5.9S214.37,145.68,214.37,149.07Zm-8.81.12c0,2.43,1.4,4.27,3.37,4.27s3.37-1.82,3.37-4.32c0-1.88-.94-4.27-3.32-4.27S205.56,147.07,205.56,149.19Z"/><path class="cls-1" d="M216.88,143.75a23.14,23.14,0,0,1,3.53-.26c1.86,0,4.93.3,4.93,2.78a2.62,2.62,0,0,1-2.31,2.5v0c1.63.23,2.82,1.15,2.82,2.75,0,2.92-3.67,3.28-5.85,3.28-1.24,0-2.53-.09-3.12-.13Zm1.9,9.64a12,12,0,0,0,1.63.09c1.35,0,3.37-.32,3.37-1.93s-1.6-2-3.53-2h-1.47Zm0-5.12h1.52c1.49,0,3-.44,3-1.75,0-1.1-1-1.63-3-1.63a13.33,13.33,0,0,0-1.56.1Z"/><path class="cls-2" d="M155.89,34.81A121.22,121.22,0,0,1,277,155.89h34.82A155.9,155.9,0,0,0,0,155.89H34.81A121.22,121.22,0,0,1,155.89,34.81Z"/><path class="cls-3" d="M1.2,136.49A157.27,157.27,0,0,0,0,155.89H34.81a121.22,121.22,0,0,1,1-15.33Z"/><path class="cls-4" d="M35.78,140.56A120.35,120.35,0,0,1,39,124.48L5.13,116.13A153.54,153.54,0,0,0,1.2,136.49Z"/><path class="cls-5" d="M39,124.48a120.1,120.1,0,0,1,5.6-16.17L12.09,95.61a153.8,153.8,0,0,0-7,20.52Z"/></g></g></svg>