<svg xmlns="http://www.w3.org/2000/svg" viewBox="0 0 311.79 155.89"><defs><style>.cls-1{fill:#0c0d0d;}.cls-2{fill:#fbc83f;}.cls-3{fill:#66b32e;}</style></defs><g id="Слой_2" data-name="Слой 2"><g id="Слой_1-2" data-name="Слой 1"><path class="cls-1" d="M142,94.7h-.1l-5.65,3-.85-3.35,7.1-3.8h3.75v32.5H142Z"/><path class="cls-1" d="M179.24,90.6v2.9l-14.15,29.6h-4.55l14.1-28.75v-.1h-15.9V90.6Z"/><path class="cls-1" d="M70.19,149.46c0,4.1-2.84,5.89-5.53,5.89-3,0-5.32-2.2-5.32-5.71,0-3.72,2.43-5.9,5.51-5.9S70.19,146.06,70.19,149.46Zm-8.81.11c0,2.43,1.4,4.27,3.38,4.27s3.37-1.81,3.37-4.31c0-1.89-.94-4.27-3.33-4.27S61.38,147.46,61.38,149.57Z"/><path class="cls-1" d="M80.07,144v1.61H76.6v9.5h-2v-9.5H71.14V144Z"/><path class="cls-1" d="M83,148.65h1c1.7,0,2.85-.78,2.85-1.81s-.9-1.61-2.16-1.61A5.37,5.37,0,0,0,82,146l-.51-1.24a7.15,7.15,0,0,1,3.7-1c1.7,0,3.76.76,3.76,2.92a2.82,2.82,0,0,1-2.5,2.52v.05c1.65.14,3,1.15,3,2.78,0,2.41-2.46,3.3-4.8,3.3a7.61,7.61,0,0,1-3.6-.89l.53-1.36a6.34,6.34,0,0,0,2.93.76c1.68,0,2.74-.8,2.74-1.91,0-1.49-1.57-1.9-3.24-1.9H83Z"/><path class="cls-1" d="M94,144v3.79a9.61,9.61,0,0,1,1.81-.14c2.39,0,4.8,1,4.8,3.72a3.15,3.15,0,0,1-1.15,2.57,7,7,0,0,1-4.48,1.29,28,28,0,0,1-3-.16V144Zm0,9.71a10.47,10.47,0,0,0,1.4.09c1.53,0,3.21-.64,3.21-2.36s-1.61-2.34-3.12-2.34a9,9,0,0,0-1.49.11ZM104,144V155.1h-2V144Z"/><path class="cls-1" d="M107.23,144.13a23.32,23.32,0,0,1,3.53-.25c1.86,0,4.93.3,4.93,2.78a2.63,2.63,0,0,1-2.31,2.5v0c1.63.23,2.82,1.15,2.82,2.76,0,2.91-3.67,3.28-5.85,3.28-1.24,0-2.53-.09-3.12-.14Zm1.9,9.64a12,12,0,0,0,1.63.09c1.35,0,3.37-.32,3.37-1.93s-1.6-2-3.53-2h-1.47Zm0-5.12h1.52c1.49,0,3-.43,3-1.74,0-1.1-1-1.63-3-1.63-.66,0-1.07.05-1.56.09Z"/><path class="cls-1" d="M128.8,149.46c0,4.1-2.84,5.89-5.53,5.89-3,0-5.32-2.2-5.32-5.71,0-3.72,2.43-5.9,5.5-5.9S128.8,146.06,128.8,149.46Zm-8.81.11c0,2.43,1.4,4.27,3.37,4.27s3.38-1.81,3.38-4.31c0-1.89-.94-4.27-3.33-4.27S120,147.46,120,149.57Z"/><path class="cls-1" d="M131.31,144.13a23.32,23.32,0,0,1,3.53-.25c1.86,0,4.94.3,4.94,2.78a2.64,2.64,0,0,1-2.32,2.5v0c1.63.23,2.82,1.15,2.82,2.76,0,2.91-3.67,3.28-5.85,3.28-1.24,0-2.53-.09-3.12-.14Zm1.9,9.64a12.14,12.14,0,0,0,1.63.09c1.35,0,3.37-.32,3.37-1.93s-1.6-2-3.53-2h-1.47Zm0-5.12h1.52c1.49,0,3-.43,3-1.74,0-1.1-1-1.63-3-1.63-.67,0-1.08.05-1.57.09Z"/><path class="cls-1" d="M155.61,154.69a7.47,7.47,0,0,1-3.19.64c-3.35,0-5.53-2.27-5.53-5.67a5.65,5.65,0,0,1,6-5.9,6.67,6.67,0,0,1,2.8.58l-.46,1.56a4.63,4.63,0,0,0-2.34-.53c-2.55,0-3.92,1.88-3.92,4.2a3.8,3.8,0,0,0,3.85,4.15,5.62,5.62,0,0,0,2.48-.55Z"/><path class="cls-1" d="M172.9,149.46c0,4.1-2.85,5.89-5.53,5.89-3,0-5.32-2.2-5.32-5.71,0-3.72,2.43-5.9,5.5-5.9S172.9,146.06,172.9,149.46Zm-8.81.11c0,2.43,1.4,4.27,3.37,4.27s3.38-1.81,3.38-4.31c0-1.89-1-4.27-3.33-4.27S164.09,147.46,164.09,149.57Z"/><path class="cls-1" d="M182.77,144v1.61h-3.46v9.5h-2v-9.5h-3.47V144Z"/><path class="cls-1" d="M184.5,144.13a23.32,23.32,0,0,1,3.53-.25c1.86,0,4.93.3,4.93,2.78a2.63,2.63,0,0,1-2.31,2.5v0c1.63.23,2.82,1.15,2.82,2.76,0,2.91-3.67,3.28-5.85,3.28-1.24,0-2.53-.09-3.12-.14Zm1.9,9.64a12,12,0,0,0,1.63.09c1.35,0,3.37-.32,3.37-1.93s-1.6-2-3.53-2H186.4Zm0-5.12h1.52c1.49,0,3-.43,3-1.74,0-1.1-1-1.63-3-1.63-.66,0-1.07.05-1.56.09Z"/><path class="cls-1" d="M197.14,149.92a3.56,3.56,0,0,0,3.81,3.85,7.35,7.35,0,0,0,3.08-.57l.34,1.44a9,9,0,0,1-3.69.69c-3.42,0-5.46-2.25-5.46-5.6s2-6,5.21-6c3.62,0,4.59,3.19,4.59,5.23a8.33,8.33,0,0,1-.07.95Zm5.93-1.45c0-1.29-.53-3.28-2.8-3.28-2.05,0-2.94,1.88-3.1,3.28Z"/><path class="cls-1" d="M214.93,144v1.61h-3.46v9.5h-2v-9.5H206V144Z"/><path class="cls-1" d="M222.69,155.1l-.16-1.4h-.07a4.13,4.13,0,0,1-3.39,1.65,3.17,3.17,0,0,1-3.4-3.19c0-2.68,2.39-4.15,6.68-4.13v-.23a2.29,2.29,0,0,0-2.52-2.57,5.5,5.5,0,0,0-2.9.83l-.46-1.33a6.87,6.87,0,0,1,3.65-1c3.4,0,4.23,2.32,4.23,4.55v4.15a15.45,15.45,0,0,0,.18,2.66Zm-.29-5.67c-2.21,0-4.71.35-4.71,2.5a1.79,1.79,0,0,0,1.91,1.93,2.76,2.76,0,0,0,2.68-1.86,2,2,0,0,0,.12-.64Z"/><path class="cls-1" d="M227.72,144h2.48l2,5.6c.28.83.76,2.18,1,3.06h.05c.25-.83.87-2.6,1.31-3.81l1.79-4.85h2.5l.78,11.11h-1.93l-.25-5.3c-.07-1.19-.16-2.62-.21-4h-.07c-.3,1-.6,1.9-1.21,3.6l-2.14,5.6h-1.47l-2-5.48c-.35-1.06-.83-2.66-1.1-3.7h-.1c0,1.31-.11,2.78-.18,4l-.27,5.25H226.9Z"/><path class="cls-1" d="M244.14,144v4.69c0,1.76,0,2.86-.12,4.45l.07,0c.67-1.35,1.06-2.13,1.79-3.42l3.47-5.74h2.36V155.1h-1.93v-4.7c0-1.82.05-2.76.14-4.55h-.07c-.71,1.43-1.19,2.32-1.84,3.44-1,1.73-2.27,3.86-3.46,5.81h-2.32V144Z"/><path class="cls-2" d="M155.89,34.81A121.22,121.22,0,0,1,277,155.89h34.82A155.9,155.9,0,0,0,0,155.89H34.81A121.22,121.22,0,0,1,155.89,34.81Z"/><path class="cls-3" d="M270.82,117.79a120.36,120.36,0,0,1,6.15,38.1h34.82A155.62,155.62,0,0,0,304,107.28Z"/></g></g></svg>