<svg xmlns="http://www.w3.org/2000/svg" xmlns:xlink="http://www.w3.org/1999/xlink" viewBox="0 0 193 279.67"><defs><style>.a{fill:#ef4058;}.b{fill:#1466ac;}.c{fill:url(#a);}</style><linearGradient id="a" x1="99.81" y1="788.29" x2="99.81" y2="1000.19" gradientTransform="translate(0 -788.29)" gradientUnits="userSpaceOnUse"><stop offset="0.4" stop-color="#1466ac"/><stop offset="0.66" stop-color="#ef4058"/></linearGradient></defs><path class="a" d="M79.2,107.9H59.6c-.2,0-.3.1-.4.3a114.74,114.74,0,0,1-4.6,26.2.35.35,0,0,0,.4.4h6.7c.2,0,.3-.1.3-.2a103.79,103.79,0,0,0,4-20.4h6.4v20.3a.43.43,0,0,0,.4.4h6.4a.43.43,0,0,0,.4-.4V108.2c0-.2-.2-.3-.4-.3m82.9,0h-6.4a.43.43,0,0,0-.4.4v20.3a15.6,15.6,0,0,1-4.4.6c-4.2,0-5.2-1.3-5.2-6.9v-14a.43.43,0,0,0-.4-.4H139a.43.43,0,0,0-.4.4V123c0,9.2,3.1,12.7,11,12.7a40.49,40.49,0,0,0,12.6-2.3c.1-.1.2-.2.2-.3V108.3c.1-.3-.1-.4-.3-.4m-135.6,0H20a.27.27,0,0,0-.3.3,157.23,157.23,0,0,1-5.9,17.9L7.3,108.2c-.1-.1-.2-.2-.3-.2H.4c-.1,0-.2.1-.3.2a.19.19,0,0,0,0,.3l9.8,26.8c-1,2.1-1.9,3.8-2.8,5.4-.7,1.2-1.3,2.4-1.9,3.6a.19.19,0,0,0,0,.3c.1.1.2.2.3.2h7.1c.1,0,.3-.1.3-.2,1.2-2.3,2.7-5.5,4.1-8.8a253.49,253.49,0,0,0,10-27.4.37.37,0,0,0-.1-.3c-.2-.2-.3-.2-.4-.2m23.3,20.7a.22.22,0,0,0-.2-.2h-.3a22.15,22.15,0,0,1-6.5,1c-4.5,0-6.6-1.2-6.6-8,0-5.5.7-8,6.6-8a16.91,16.91,0,0,1,5.2.8c.2,0,.3,0,.4-.2.7-1.4,1.6-3.1,2.6-5.2v-.3a.22.22,0,0,0-.2-.2,30.17,30.17,0,0,0-8.5-1.3c-9.3,0-13.5,4.4-13.5,14.3s4.2,14.5,13.5,14.5c2.3,0,7-.5,9.2-1.4a.37.37,0,0,0,.2-.5l-1.9-5.3m60.9-20.7h-6.5a.27.27,0,0,0-.3.3A151,151,0,0,1,98,126.1l-6.5-17.9c-.1-.1-.2-.2-.3-.2H84.6c-.1,0-.2.1-.3.2a.19.19,0,0,0,0,.3l9.8,26.8c-1,2.1-1.9,3.8-2.8,5.4-.7,1.2-1.3,2.4-1.9,3.7a.19.19,0,0,0,0,.3c.1.1.2.2.3.2h7.1c.1,0,.3-.1.3-.2,1.2-2.3,2.7-5.5,4.1-8.8a276.75,276.75,0,0,0,10-27.4.37.37,0,0,0-.1-.3c-.2-.3-.3-.3-.4-.3m24,0H115.8a.43.43,0,0,0-.4.4v26.3a.43.43,0,0,0,.4.4h6.4a.43.43,0,0,0,.4-.4V114.3h9.9c.1,0,.3-.1.3-.2.8-1.8,1.5-3.7,2.3-5.6v-.3c-.2-.3-.3-.3-.4-.3" transform="translate(0)"/><path class="b" d="M34.1,67.5c-9.2,0-12.8,4-12.8,14.1,0,10.3,3.6,14.3,12.8,14.3S47,91.9,47,81.6,43.4,67.5,34.1,67.5m0,22.5c-4.2,0-5.5-1.1-5.5-8.3,0-7.6,1.4-8.3,5.5-8.3s5.6.7,5.6,8.3c0,7.2-1.3,8.3-5.6,8.3m38.5-1.1a.22.22,0,0,0-.2-.2h-.3a22.15,22.15,0,0,1-6.5,1c-4.5,0-6.6-1.2-6.6-8,0-5.5.7-8,6.6-8a16.91,16.91,0,0,1,5.2.8c.2,0,.3,0,.4-.2.7-1.4,1.6-3.1,2.6-5.2v-.3a.22.22,0,0,0-.2-.2,30.17,30.17,0,0,0-8.5-1.3c-9.3,0-13.5,4.4-13.5,14.3s4.2,14.5,13.5,14.5c2.3,0,7-.5,9.2-1.4a.37.37,0,0,0,.2-.5l-1.9-5.3M19.3,68.2H.4a.43.43,0,0,0-.4.4V94.9a.43.43,0,0,0,.4.4H6.8a.43.43,0,0,0,.4-.4V74.5H17c.1,0,.3-.1.3-.2.8-1.8,1.5-3.7,2.3-5.6v-.3c-.1-.1-.2-.2-.3-.2" transform="translate(0)"/><path class="c" d="M192,132.1v-.4a1.7,1.7,0,0,1,.1-.7c.3-3.7.5-8.2.7-13.4v-.4c.1-3.5.2-7.3.2-11.2s-.1-7.7-.2-11.2v-.4c-.2-5.1-.4-9.7-.7-13.4a1.7,1.7,0,0,0-.1-.7v-.4c0-.4-.1-.7-.1-1.1v-.4c-.3-3.9-.5-6.3-.6-6.5,0-.4-.1-.8-.1-1.1v-.3a14.16,14.16,0,0,0-.4-2,.37.37,0,0,0-.1-.3,57.54,57.54,0,0,0-11.8-23.7,43.32,43.32,0,0,0-6.9-6.7c-.2-.2-3-2.2-7.4-5.3-5.1-3.5-12.4-8.4-20.7-13.2A307.1,307.1,0,0,0,114.2,3.8a.1.1,0,0,1-.1-.1A45.86,45.86,0,0,0,100.4.3c-1-.1-2-.2-3-.2A27.15,27.15,0,0,0,94.6,0H93.2C86.4.2,80.1,1.4,75.1,3.7,74.4,4,61.1,10.1,46,19l-.6.3A327.3,327.3,0,0,0,17.3,37.8,43.72,43.72,0,0,0,7,48.8c-.7,1-.7,3.6,2.3,3.6H17c3.3,0,4.1-2,7.8-4.7a306.86,306.86,0,0,1,27-17.8c10.7-6.3,20.7-11.3,25.6-13.6.1,0,.2-.1.3-.1a2653771530218.94,2653771530218.94,0,0,1,.2-.2.35.35,0,0,0,.2-.1c.1,0,.2-.1.3-.1,1.2-.6,2-.9,2-.9a36.11,36.11,0,0,1,13.3-2.6h2a31.45,31.45,0,0,1,4.4.3,30.79,30.79,0,0,1,8.2,2c.2.1.5.2.7.3a1.09,1.09,0,0,0,.4.2c2.3,1,14.7,6.9,28.2,14.8,8,4.7,15.1,9.4,20,12.8,4.3,3,6.9,4.9,7,5a32.9,32.9,0,0,1,5.6,5.6c4.5,5.8,8.2,13.7,8.8,19.8,0,.1.3,2.5.6,6.6a2.2,2.2,0,0,0,.1.8v.6c0,.4.1.7.1,1.1v.4a1.7,1.7,0,0,0,.1.7c0,.5.1,1,.1,1.5a2.77,2.77,0,0,0,.1.9v.2a4.1,4.1,0,0,0,.1,1.1v.8c.3,5.2.5,11.4.5,17.9s-.2,12.7-.5,17.9v.8a4.1,4.1,0,0,1-.1,1.1v.2a2.77,2.77,0,0,1-.1.9c0,.5-.1,1-.1,1.5a1.48,1.48,0,0,1-.1.7v.4c0,.4-.1.7-.1,1.1v.6a2,2,0,0,1-.1.8c-.3,4.1-.6,6.6-.6,6.6-.6,6.1-4.3,14-8.8,19.8a29.61,29.61,0,0,1-5.6,5.6c-.1,0-2.7,2-7,5-4.9,3.4-12.1,8.1-20,12.8-13.5,8-26,13.8-28.2,14.8l-.4.2c-.2.1-.5.2-.7.3a35.17,35.17,0,0,1-8.2,2,31.45,31.45,0,0,1-4.4.3h-2a34.18,34.18,0,0,1-13.3-2.6s-.7-.3-2-.9c-.1-.1-.3-.1-.4-.2s-.2-.1-.3-.2-.1-.1-.2-.1-.2-.1-.3-.1-.2-.1-.4-.2h-.1c-5.1-2-14.7-6.8-24.9-12.8a271,271,0,0,1-27-17.8c-3.7-2.7-4.5-4.7-7.8-4.7H9.3c-3,0-3,2.6-2.3,3.6a43.72,43.72,0,0,0,10.3,11c.5.4,12.7,9.4,28.1,18.5a20.13,20.13,0,0,0,2.5,1.4c14.3,8.2,26.6,13.8,27.3,14.2a48.89,48.89,0,0,0,18.1,3.7h1.4a24.37,24.37,0,0,0,2.7-.1c1,0,2-.1,3-.2a45.1,45.1,0,0,0,13.7-3.4.1.1,0,0,0,.1-.1c1.7-.8,14.9-6.9,29.6-15.5,8.3-4.9,15.6-9.7,20.7-13.2,4.4-3.1,7.2-5.1,7.4-5.3a43.32,43.32,0,0,0,6.9-6.7,57.54,57.54,0,0,0,11.8-23.7.37.37,0,0,1,.1-.3c.1-.7.3-1.4.4-2v-.3a4.48,4.48,0,0,0,.1-1.1c0-.2.3-2.6.6-6.5v-.4a1.64,1.64,0,0,0,.2-1" transform="translate(0)"/><path class="b" d="M2.27,247.52V226.16h13.4V229H7.08v18.48Z" transform="translate(0)"/><path class="b" d="M13.93,237.41a7.05,7.05,0,0,1,.19-1.71,3.23,3.23,0,0,1,.7-1.38,5.89,5.89,0,0,1,2.44-1.59,10.83,10.83,0,0,1,3.84-.6,10.88,10.88,0,0,1,3.85.6,5.79,5.79,0,0,1,2.43,1.59,3.14,3.14,0,0,1,.71,1.38,7.05,7.05,0,0,1,.19,1.71v5a7.05,7.05,0,0,1-.19,1.71,3.14,3.14,0,0,1-.71,1.38A5.79,5.79,0,0,1,25,247.1a10.88,10.88,0,0,1-3.85.6,10.83,10.83,0,0,1-3.84-.6,5.89,5.89,0,0,1-2.44-1.59,3.23,3.23,0,0,1-.7-1.38,7.05,7.05,0,0,1-.19-1.71Zm4.81,5.49a1.5,1.5,0,0,0,.64,1.31,3,3,0,0,0,1.72.43,3,3,0,0,0,1.73-.43,1.49,1.49,0,0,0,.63-1.31v-6a1.47,1.47,0,0,0-.63-1.3,3,3,0,0,0-1.73-.44,3,3,0,0,0-1.72.44,1.48,1.48,0,0,0-.64,1.3Z" transform="translate(0)"/><path class="b" d="M37.39,243.14a1.22,1.22,0,0,0,.64,1.11,3.27,3.27,0,0,0,1.72.39,2.41,2.41,0,0,0,1.82-.51,2.12,2.12,0,0,0,.54-1h4.82A3.71,3.71,0,0,1,45,246.35a7.68,7.68,0,0,1-2.26,1,11.37,11.37,0,0,1-3,.36,10.92,10.92,0,0,1-3.85-.6,5.92,5.92,0,0,1-2.43-1.59,3.23,3.23,0,0,1-.7-1.38,7.05,7.05,0,0,1-.19-1.71v-5a7.05,7.05,0,0,1,.19-1.71,3.23,3.23,0,0,1,.7-1.38,5.92,5.92,0,0,1,2.43-1.59,10.92,10.92,0,0,1,3.85-.6,11.64,11.64,0,0,1,3,.36,7.65,7.65,0,0,1,2.29,1A4.13,4.13,0,0,1,46.93,237H42.11a1.53,1.53,0,0,0-.63-1.36,3,3,0,0,0-1.73-.44,3,3,0,0,0-1.72.44,1.46,1.46,0,0,0-.64,1.3Z" transform="translate(0)"/><path class="b" d="M48.2,232.31h5.1l3.31,9.48h.09L60,232.31h5L58,250.16A4.36,4.36,0,0,1,57,251.84a5.82,5.82,0,0,1-1.58,1.08,7.31,7.31,0,0,1-1.91.59,13.14,13.14,0,0,1-2.1.16H50v-2.88h1.09a5.57,5.57,0,0,0,1.23-.12,2,2,0,0,0,.94-.54A4.37,4.37,0,0,0,54,249c.22-.51.47-1.22.76-2.12Z" transform="translate(0)"/><path class="b" d="M72.42,243.14a1.22,1.22,0,0,0,.64,1.11,3.27,3.27,0,0,0,1.72.39,2.41,2.41,0,0,0,1.82-.51,2.12,2.12,0,0,0,.54-1H82A3.71,3.71,0,0,1,80,246.35a7.68,7.68,0,0,1-2.26,1,11.37,11.37,0,0,1-3,.36,10.83,10.83,0,0,1-3.84-.6,5.89,5.89,0,0,1-2.44-1.59,3.23,3.23,0,0,1-.7-1.38,7.05,7.05,0,0,1-.19-1.71v-5a7.05,7.05,0,0,1,.19-1.71,3.23,3.23,0,0,1,.7-1.38,5.89,5.89,0,0,1,2.44-1.59,10.83,10.83,0,0,1,3.84-.6,11.64,11.64,0,0,1,3,.36,7.65,7.65,0,0,1,2.29,1A4.13,4.13,0,0,1,82,237H77.14a1.53,1.53,0,0,0-.63-1.36,3,3,0,0,0-1.73-.44,3,3,0,0,0-1.72.44,1.46,1.46,0,0,0-.64,1.3Z" transform="translate(0)"/><path class="b" d="M83.61,244.64a3.32,3.32,0,0,0,1.06-.18,3.49,3.49,0,0,0,1.11-.63,2.42,2.42,0,0,0,.76-1,6.75,6.75,0,0,0,.42-1.41,10.54,10.54,0,0,0,.19-1.41c0-.45,0-.8,0-1v-6.63h13.22v15.21H95.6V234.86H91.73v2.82c0,.7,0,1.41-.09,2.12a18.15,18.15,0,0,1-.31,2,11.63,11.63,0,0,1-.54,1.81,5.08,5.08,0,0,1-.85,1.44,6.39,6.39,0,0,1-2.6,1.8,9.87,9.87,0,0,1-3.63.63h-.33v-2.88Z" transform="translate(0)"/><path class="b" d="M102.83,232.31h5.1l3.3,9.48h.09l3.26-9.48h5l-6.89,17.85a4.49,4.49,0,0,1-1.07,1.68,5.67,5.67,0,0,1-1.58,1.08,7.19,7.19,0,0,1-1.91.59,13.14,13.14,0,0,1-2.1.16h-1.32v-2.88h1.08a5.51,5.51,0,0,0,1.23-.12,2,2,0,0,0,1-.54,4.37,4.37,0,0,0,.7-1.18,22.14,22.14,0,0,0,.76-2.12Z" transform="translate(0)"/><path class="b" d="M122,247.52V232.31h11.42V235h-6.61v12.51Z" transform="translate(0)"/><path class="b" d="M146.4,247.52v-9.66h-.09L141,247.52h-4.91V232.31h4.54V242h.09l5.29-9.66h5v15.21Z" transform="translate(0)"/><path class="b" d="M15.72,252.16a3,3,0,0,1-.45,1.67,3.7,3.7,0,0,1-1.15,1.11,7.37,7.37,0,0,1-1.63.72c-.62.19-1.24.36-1.87.52-.82.2-1.6.41-2.33.62a4.87,4.87,0,0,0-1.77.85,1.57,1.57,0,0,0-.62,1A8.66,8.66,0,0,0,5.81,260H5.9a6.1,6.1,0,0,1,1.91-1.3,6.11,6.11,0,0,1,2.58-.56,12.5,12.5,0,0,1,2.45.21,4.51,4.51,0,0,1,1.84.81A2.86,2.86,0,0,1,15.77,261a16.49,16.49,0,0,1,.14,2.14v5.31a7.05,7.05,0,0,1-.19,1.71,3.14,3.14,0,0,1-.71,1.38,5.79,5.79,0,0,1-2.43,1.59,10.85,10.85,0,0,1-3.85.6,10.83,10.83,0,0,1-3.84-.6,5.79,5.79,0,0,1-2.43-1.59,3.14,3.14,0,0,1-.71-1.38,7.05,7.05,0,0,1-.19-1.71v-7.86a9.33,9.33,0,0,1,.33-2.8,3.82,3.82,0,0,1,1.37-1.82,7.86,7.86,0,0,1,2.48-1.21c1-.29,1.81-.54,2.57-.74.5-.14.92-.27,1.25-.39a3.57,3.57,0,0,0,.78-.37,1.13,1.13,0,0,0,.4-.45,2.41,2.41,0,0,0,.17-.62ZM6.37,268.9A1.5,1.5,0,0,0,7,270.21a3,3,0,0,0,1.72.43,3,3,0,0,0,1.73-.43,1.49,1.49,0,0,0,.63-1.31v-6a1.47,1.47,0,0,0-.63-1.3,3,3,0,0,0-1.73-.44,3,3,0,0,0-1.72.44,1.48,1.48,0,0,0-.64,1.3Z" transform="translate(0)"/><path class="b" d="M33.9,267.07H24.36v2.07a1.22,1.22,0,0,0,.64,1.11,3.27,3.27,0,0,0,1.72.39,2.43,2.43,0,0,0,1.82-.51,2.12,2.12,0,0,0,.54-1H33.9A3.71,3.71,0,0,1,32,272.35a7.68,7.68,0,0,1-2.26,1,11.43,11.43,0,0,1-3,.36,10.92,10.92,0,0,1-3.85-.6,5.92,5.92,0,0,1-2.43-1.59,3.37,3.37,0,0,1-.71-1.38,7.61,7.61,0,0,1-.18-1.71v-5a7.61,7.61,0,0,1,.18-1.71,3.37,3.37,0,0,1,.71-1.38,5.92,5.92,0,0,1,2.43-1.59,10.92,10.92,0,0,1,3.85-.6,11.64,11.64,0,0,1,3,.36,7.65,7.65,0,0,1,2.29,1,4,4,0,0,1,1.89,3.39Zm-9.54-2.4h4.72v-1.74a1.46,1.46,0,0,0-.64-1.3,3,3,0,0,0-1.72-.44,3,3,0,0,0-1.72.44,1.46,1.46,0,0,0-.64,1.3Z" transform="translate(0)"/><path class="b" d="M36.82,262.57a3.73,3.73,0,0,1,.64-1.69,5.23,5.23,0,0,1,1.47-1.41,7.61,7.61,0,0,1,2.19-1,10.24,10.24,0,0,1,2.79-.36,13.15,13.15,0,0,1,2.9.32,7.93,7.93,0,0,1,2.38.91,4.71,4.71,0,0,1,1.49,1.37,3.09,3.09,0,0,1,.54,1.78,3.88,3.88,0,0,1-.09.77,2.54,2.54,0,0,1-.4.88,3.8,3.8,0,0,1-.9.89,5.18,5.18,0,0,1-1.58.73,7.14,7.14,0,0,1,1.72.6,3.09,3.09,0,0,1,1,.81,2.81,2.81,0,0,1,.5.95,3.67,3.67,0,0,1,.14,1,3.13,3.13,0,0,1-.47,1.68,5.14,5.14,0,0,1-1.42,1.41,7.84,7.84,0,0,1-2.53,1.11,12.65,12.65,0,0,1-3.23.39,9.52,9.52,0,0,1-5.43-1.41,4.11,4.11,0,0,1-2-3.18h4.53a1.66,1.66,0,0,0,.78,1.26,3.78,3.78,0,0,0,2.05.45,3.62,3.62,0,0,0,2-.46,1.53,1.53,0,0,0,.74-1.37,1.75,1.75,0,0,0-.6-1.39,3.25,3.25,0,0,0-2.14-.53H42.4v-2.55h1.32a3.62,3.62,0,0,0,2.05-.45,1.66,1.66,0,0,0,.64-1.47,1.34,1.34,0,0,0-.66-1.12,3.17,3.17,0,0,0-1.84-.47,4,4,0,0,0-1.7.35,1.39,1.39,0,0,0-.85,1.21Z" transform="translate(0)"/><path class="b" d="M64.49,263.41a7.05,7.05,0,0,1,.19-1.71,3.14,3.14,0,0,1,.71-1.38,5.79,5.79,0,0,1,2.43-1.59,12.62,12.62,0,0,1,7.69,0A5.89,5.89,0,0,1,78,260.32a3.23,3.23,0,0,1,.7,1.38,7.05,7.05,0,0,1,.19,1.71v5a7.05,7.05,0,0,1-.19,1.71,3.23,3.23,0,0,1-.7,1.38,5.89,5.89,0,0,1-2.44,1.59,12.62,12.62,0,0,1-7.69,0,5.79,5.79,0,0,1-2.43-1.59,3.14,3.14,0,0,1-.71-1.38,7.05,7.05,0,0,1-.19-1.71Zm4.82,5.49a1.49,1.49,0,0,0,.63,1.31,3.68,3.68,0,0,0,3.45,0A1.5,1.5,0,0,0,74,268.9v-6a1.48,1.48,0,0,0-.64-1.3,3.6,3.6,0,0,0-3.45,0,1.47,1.47,0,0,0-.63,1.3Z" transform="translate(0)"/><path class="b" d="M92.16,273.52V267a7.24,7.24,0,0,1-.76.09,16.63,16.63,0,0,1-2,.09l-1,0c-.39,0-.81-.06-1.25-.12a11.47,11.47,0,0,1-1.3-.25,6.86,6.86,0,0,1-1.2-.44,3.51,3.51,0,0,1-1.72-1.47,4.1,4.1,0,0,1-.36-1.74v-4.86h4.82v4.59a1.45,1.45,0,0,0,.71,1.32,4.31,4.31,0,0,0,2.12.45,9,9,0,0,0,1.46-.09,2.58,2.58,0,0,0,.48-.09v-6.18H97v15.21Z" transform="translate(0)"/><path class="b" d="M115.34,267.07H105.8v2.07a1.22,1.22,0,0,0,.64,1.11,3.27,3.27,0,0,0,1.72.39,2.43,2.43,0,0,0,1.82-.51,2.12,2.12,0,0,0,.54-1h4.82a3.71,3.71,0,0,1-1.94,3.24,7.68,7.68,0,0,1-2.26,1,11.43,11.43,0,0,1-3,.36,10.92,10.92,0,0,1-3.85-.6,5.92,5.92,0,0,1-2.43-1.59,3.37,3.37,0,0,1-.71-1.38,7.59,7.59,0,0,1-.19-1.71v-5a7.59,7.59,0,0,1,.19-1.71,3.37,3.37,0,0,1,.71-1.38,5.92,5.92,0,0,1,2.43-1.59,10.92,10.92,0,0,1,3.85-.6,11.64,11.64,0,0,1,3,.36,7.65,7.65,0,0,1,2.29,1,4,4,0,0,1,1.89,3.39Zm-9.54-2.4h4.72v-1.74a1.46,1.46,0,0,0-.64-1.3,3.58,3.58,0,0,0-3.44,0,1.46,1.46,0,0,0-.64,1.3Z" transform="translate(0)"/><path class="b" d="M119.35,279.67V258.31h4.82v1.38a11,11,0,0,1,1.84-1.11,6.54,6.54,0,0,1,2.73-.45c2,0,3.39.48,4.21,1.44a3.22,3.22,0,0,1,.61,1.26,8.32,8.32,0,0,1,.19,2v5.79a15.2,15.2,0,0,1-.14,2.43,3.12,3.12,0,0,1-2.17,2.25,7.51,7.51,0,0,1-2.74.39,7.34,7.34,0,0,1-2.53-.4,5.5,5.5,0,0,1-1.91-1.16h-.09v7.53Zm9.58-16.41a2.06,2.06,0,0,0-.56-1.5,2.46,2.46,0,0,0-1.8-.57,2.71,2.71,0,0,0-1.74.53,1.65,1.65,0,0,0-.66,1.36V269a1.38,1.38,0,0,0,.68,1.19,3,3,0,0,0,1.72.46,2.5,2.5,0,0,0,1.87-.54,1.8,1.8,0,0,0,.49-1.26Z" transform="translate(0)"/><path class="b" d="M152.11,267.07h-9.53v2.07a1.22,1.22,0,0,0,.64,1.11,3.25,3.25,0,0,0,1.72.39,2.43,2.43,0,0,0,1.82-.51,2.12,2.12,0,0,0,.54-1h4.81a3.7,3.7,0,0,1-1.93,3.24,7.75,7.75,0,0,1-2.27,1,11.29,11.29,0,0,1-3,.36,10.92,10.92,0,0,1-3.85-.6,5.92,5.92,0,0,1-2.43-1.59,3.25,3.25,0,0,1-.71-1.38,7.59,7.59,0,0,1-.19-1.71v-5a7.59,7.59,0,0,1,.19-1.71,3.25,3.25,0,0,1,.71-1.38,5.92,5.92,0,0,1,2.43-1.59,10.92,10.92,0,0,1,3.85-.6,11.64,11.64,0,0,1,3,.36,7.76,7.76,0,0,1,2.29,1,4,4,0,0,1,1.88,3.39Zm-9.53-2.4h4.72v-1.74a1.46,1.46,0,0,0-.64-1.3,3.58,3.58,0,0,0-3.44,0,1.46,1.46,0,0,0-.64,1.3Z" transform="translate(0)"/><path class="b" d="M157.59,273.52v3h-4.06V271h2.17a5.73,5.73,0,0,0,.92-1.68,13.94,13.94,0,0,0,.64-2.22,12.76,12.76,0,0,0,.24-2c0-.68,0-1.3,0-1.86v-4.92h13.22V271H173v5.55H169v-3Zm4.49-12.66v2.28c0,.26,0,.58-.05.95s-.07.75-.12,1.14-.09.77-.14,1.14a7.7,7.7,0,0,1-.17.94,14.66,14.66,0,0,1-.59,1.85,7.85,7.85,0,0,1-.92,1.81H166V260.86Z" transform="translate(0)"/><path class="b" d="M186,273.52v-9.66h-.09l-5.34,9.66h-4.91V258.31h4.54V268h.09l5.29-9.66h4.95v15.21Z" transform="translate(0)"/></svg>