<svg xmlns="http://www.w3.org/2000/svg" viewBox="0 0 589.7 410.9"><defs><style>.a{fill:#b3b3b3;}.b{opacity:0.3;}.c{fill:#ff6a00;}.d{fill:#ffba66;}.e{fill:#85cc82;}.f{fill:#60b336;}.g{fill:#e32400;}.h{fill:#fff;}</style></defs><path class="a" d="M94.83,7.06h4V17.79L109.06,7.06H114l-9.15,9.41,9.79,14.15h-5l-7.51-11.25L98.84,22.7v7.92h-4Z"/><path class="a" d="M116.83,7.06h10.11a9.25,9.25,0,0,1,4,.73A6.34,6.34,0,0,1,133.3,9.6,6.17,6.17,0,0,1,134.44,12a10.53,10.53,0,0,1,.3,2.37,10.24,10.24,0,0,1-.3,2.36,6,6,0,0,1-3.52,4.16,9.42,9.42,0,0,1-4,.71h-6.1v9h-4Zm4,11.16h5.88a5.17,5.17,0,0,0,1.38-.2,3.87,3.87,0,0,0,1.3-.65,3.33,3.33,0,0,0,1-1.18,4.15,4.15,0,0,0,.37-1.87,5,5,0,0,0-.32-1.91,3.07,3.07,0,0,0-.87-1.21,3.11,3.11,0,0,0-1.25-.61,6.6,6.6,0,0,0-1.51-.16h-5.94Z"/><path class="a" d="M138.24,7.06h16.51v3.57H142.26V16.8h11.56v3.36H142.26v6.9H155v3.56H138.24Z"/><path class="a" d="M177.64,30.62H160.37v5.84h-4v-9.4h2.57a3.54,3.54,0,0,0,.48-.23,3,3,0,0,0,1-1,5.82,5.82,0,0,0,.66-1.58,19.09,19.09,0,0,0,.4-2c.09-.73.17-1.39.24-2s.14-1.21.18-1.81.08-1.25.11-1.92,0-1.44.07-2.32,0-1.89,0-3,0-2.5,0-4.06h15.8v20h3.73v9.4h-4Zm-13.52-3.56h9.8V10.63h-8c0,1.45-.07,2.74-.08,3.86s0,2.16-.06,3.12-.1,1.88-.18,2.77-.21,1.85-.39,2.89a20.21,20.21,0,0,1-.51,2.34A10.08,10.08,0,0,1,164.12,27.06Z"/><path class="a" d="M184.32,7.06h4V24.62l9.72-17.56h4.73V30.62h-4V12.94l-9.86,17.68h-4.59Z"/><path class="a" d="M205.42,7.06H224v3.57h-7.29v20h-4v-20h-7.25Z"/><path class="a" d="M226.55,7.06h4v9.37H241V7.06h4V30.62h-4V20H230.56V30.62h-4Z"/><path class="a" d="M249.83,7.06h4v9h6.1a9.61,9.61,0,0,1,4,.71,6.32,6.32,0,0,1,2.38,1.8A6.46,6.46,0,0,1,267.44,21a10.31,10.31,0,0,1,.3,2.36,10.54,10.54,0,0,1-.3,2.38,6.42,6.42,0,0,1-1.14,2.37,6.35,6.35,0,0,1-2.38,1.82,9.44,9.44,0,0,1-4,.72H249.83Zm4,20.2h5.94a6.65,6.65,0,0,0,1.51-.17,3,3,0,0,0,1.25-.61,3.13,3.13,0,0,0,.87-1.2,5.06,5.06,0,0,0,.32-1.92,4.11,4.11,0,0,0-.37-1.86,3.36,3.36,0,0,0-1-1.19,3.85,3.85,0,0,0-1.3-.64,5.29,5.29,0,0,0-1.38-.2h-5.88Zm17.4-20.2h4V30.62h-4Z"/><path class="a" d="M280.07,7.06h4V24.62l9.73-17.56h4.72V30.62h-4V12.94l-9.86,17.68h-4.59ZM286,0a2.7,2.7,0,0,0,1.2,2,4.38,4.38,0,0,0,2.24.56,3.53,3.53,0,0,0,2.1-.63A2.9,2.9,0,0,0,292.66,0h1.83a5,5,0,0,1-1.69,3.5,5.59,5.59,0,0,1-3.64,1.15,5,5,0,0,1-3.53-1.19A5,5,0,0,1,284.12,0Z"/><path class="a" d="M312.28,7.06h10.11a9.33,9.33,0,0,1,4,.73,6.38,6.38,0,0,1,2.37,1.81A6.17,6.17,0,0,1,329.89,12a10.58,10.58,0,0,1,.31,2.37,10.28,10.28,0,0,1-.31,2.36,6.09,6.09,0,0,1-1.14,2.36,6.16,6.16,0,0,1-2.37,1.8,9.5,9.5,0,0,1-4,.71h-6.1v9h-4Zm4,11.16h5.88a5.17,5.17,0,0,0,1.38-.2,3.87,3.87,0,0,0,1.3-.65,3.13,3.13,0,0,0,1-1.18,4.15,4.15,0,0,0,.37-1.87,4.79,4.79,0,0,0-.32-1.91A3,3,0,0,0,325,11.2a3.11,3.11,0,0,0-1.25-.61,6.6,6.6,0,0,0-1.51-.16h-5.94Z"/><path class="a" d="M333.7,7.06h16.5v3.57H337.71V16.8h11.56v3.36H337.71v6.9h12.72v3.56H333.7Z"/><path class="a" d="M353.83,7.06h4V24.62l9.73-17.56h4.72V30.62h-4V12.94l-9.86,17.68h-4.59ZM359.74,0a2.7,2.7,0,0,0,1.2,2,4.34,4.34,0,0,0,2.23.56,3.54,3.54,0,0,0,2.11-.63A3,3,0,0,0,366.42,0h1.83a5,5,0,0,1-1.69,3.5,5.61,5.61,0,0,1-3.64,1.15,5.06,5.06,0,0,1-3.54-1.19A5,5,0,0,1,357.88,0Z"/><path class="a" d="M374.93,7.06h18.55v3.57H386.2v20h-4v-20h-7.25Z"/><path class="a" d="M396.05,7.06h4V24.62L409.8,7.06h4.72V30.62h-4V12.94l-9.86,17.68h-4.59Z"/><path class="a" d="M419.24,7.06h4v9.37h10.44V7.06h4V30.62h-4V20H423.25V30.62h-4Z"/><path class="a" d="M442.52,7.06h15.83v3.57H446.53v20h-4Z"/><g class="b"><path d="M164.42,289.5a10,10,0,0,0,3.21-.78,6.25,6.25,0,0,0,2.45-1.87,5.17,5.17,0,0,0,1-3.27,5.71,5.71,0,0,0-2-4.69,7,7,0,0,0-4.56-1.63,6.32,6.32,0,0,0-5.39,2.41,9.52,9.52,0,0,0-1.76,6.09h-8.93a20.84,20.84,0,0,1,1.29-6.7,15.52,15.52,0,0,1,3.24-5.2,14.31,14.31,0,0,1,5-3.36,16.85,16.85,0,0,1,6.48-1.19,18.82,18.82,0,0,1,5.56.85,15.31,15.31,0,0,1,5,2.55,13.67,13.67,0,0,1,3.61,4.14A11.22,11.22,0,0,1,180,282.5a11.45,11.45,0,0,1-1.62,6.11,8.16,8.16,0,0,1-4.86,3.61v.13a10.09,10.09,0,0,1,6,3.81,11.4,11.4,0,0,1,2.18,7,15.17,15.17,0,0,1-1.42,6.67,14.43,14.43,0,0,1-3.81,4.89,16.6,16.6,0,0,1-5.49,3,20.63,20.63,0,0,1-6.48,1,20.88,20.88,0,0,1-7.11-1.15,14.49,14.49,0,0,1-8.93-8.77,19.37,19.37,0,0,1-1.16-7.35h8.93a14,14,0,0,0,.59,3.64,9,9,0,0,0,1.53,3,7.29,7.29,0,0,0,2.48,2,7.77,7.77,0,0,0,3.54.75,7.6,7.6,0,0,0,5.35-2,8.29,8.29,0,0,0,1.16-9.62,5.87,5.87,0,0,0-2.61-2.07,10.78,10.78,0,0,0-3.47-.75c-1.26-.07-2.46-.1-3.61-.1v-6.8A19.46,19.46,0,0,0,164.42,289.5Z"/><path d="M185.62,282.19a21.19,21.19,0,0,1,3.68-7.58,13.24,13.24,0,0,1,5.39-4.08,17.36,17.36,0,0,1,6.51-1.22,17.59,17.59,0,0,1,6.59,1.22,13.46,13.46,0,0,1,5.42,4.08,20.89,20.89,0,0,1,3.71,7.58,43.08,43.08,0,0,1,1.35,11.66,44.7,44.7,0,0,1-1.35,11.93,20.85,20.85,0,0,1-3.71,7.65,13.46,13.46,0,0,1-5.42,4.08,17.78,17.78,0,0,1-6.59,1.22,17.56,17.56,0,0,1-6.51-1.22,13.24,13.24,0,0,1-5.39-4.08,21.15,21.15,0,0,1-3.68-7.65,44.7,44.7,0,0,1-1.35-11.93A43.08,43.08,0,0,1,185.62,282.19Zm8.18,16.59a26.73,26.73,0,0,0,.82,5.57,11.92,11.92,0,0,0,2.22,4.59,5.26,5.26,0,0,0,4.36,1.91,5.45,5.45,0,0,0,4.47-1.91,11.68,11.68,0,0,0,2.25-4.59,27.41,27.41,0,0,0,.83-5.57c.08-1.93.13-3.57.13-4.93,0-.82,0-1.8,0-3a34.58,34.58,0,0,0-.27-3.57,32.13,32.13,0,0,0-.66-3.63,11.37,11.37,0,0,0-1.29-3.23,7.14,7.14,0,0,0-2.18-2.32,5.82,5.82,0,0,0-3.25-.88,5.58,5.58,0,0,0-3.2.88,7,7,0,0,0-2.12,2.32,12.67,12.67,0,0,0-1.29,3.23,25.15,25.15,0,0,0-.66,3.63c-.13,1.23-.21,2.42-.23,3.57s0,2.14,0,3C193.66,295.21,193.71,296.85,193.8,298.78Z"/><path d="M222.41,282.19a21.19,21.19,0,0,1,3.67-7.58,13.24,13.24,0,0,1,5.39-4.08,17.37,17.37,0,0,1,6.52-1.22,17.57,17.57,0,0,1,6.58,1.22,13.46,13.46,0,0,1,5.42,4.08,20.89,20.89,0,0,1,3.71,7.58,43.08,43.08,0,0,1,1.35,11.66,44.7,44.7,0,0,1-1.35,11.93,20.85,20.85,0,0,1-3.71,7.65,13.46,13.46,0,0,1-5.42,4.08,17.77,17.77,0,0,1-6.58,1.22,17.57,17.57,0,0,1-6.52-1.22,13.24,13.24,0,0,1-5.39-4.08,21.15,21.15,0,0,1-3.67-7.65,44.26,44.26,0,0,1-1.36-11.93A42.65,42.65,0,0,1,222.41,282.19Zm8.17,16.59a26.73,26.73,0,0,0,.82,5.57,12.21,12.21,0,0,0,2.22,4.59,5.26,5.26,0,0,0,4.37,1.91,5.42,5.42,0,0,0,4.46-1.91,11.68,11.68,0,0,0,2.25-4.59,27.41,27.41,0,0,0,.83-5.57c.09-1.93.13-3.57.13-4.93,0-.82,0-1.8,0-3a34.84,34.84,0,0,0-.93-7.2,11.37,11.37,0,0,0-1.29-3.23,7.14,7.14,0,0,0-2.18-2.32,5.76,5.76,0,0,0-3.24-.88,5.62,5.62,0,0,0-3.21.88,7,7,0,0,0-2.12,2.32,12.67,12.67,0,0,0-1.29,3.23,25.15,25.15,0,0,0-.66,3.63c-.13,1.23-.21,2.42-.23,3.57s0,2.14,0,3C230.45,295.21,230.49,296.85,230.58,298.78Z"/><path d="M279.86,295.14v8.3H260v-8.3Z"/><path d="M287.6,276.65a13,13,0,0,1,3.61-4.08,16,16,0,0,1,5-2.45,20.06,20.06,0,0,1,5.63-.81,17.38,17.38,0,0,1,7.27,1.36,14.9,14.9,0,0,1,4.8,3.29,12,12,0,0,1,2.61,4.15,11.91,11.91,0,0,1,.8,4,11.29,11.29,0,0,1-1.69,6.18,9.31,9.31,0,0,1-5.06,3.81v.14a10.48,10.48,0,0,1,6.42,4,12.56,12.56,0,0,1,2.25,7.58,13.39,13.39,0,0,1-5.43,11.22,17.12,17.12,0,0,1-5.56,2.75,22,22,0,0,1-6.35.92,24.63,24.63,0,0,1-6.51-.85,16.65,16.65,0,0,1-5.63-2.68,13.36,13.36,0,0,1-5.46-11.29,12.39,12.39,0,0,1,2.29-7.61,11,11,0,0,1,6.45-4.08v-.14a8.58,8.58,0,0,1-5.1-3.6,12.06,12.06,0,0,1-.33-11.83Zm6.75,30.12a8.26,8.26,0,0,0,1.75,2.55,7.7,7.7,0,0,0,2.62,1.63,9,9,0,0,0,3.17.58A8.41,8.41,0,0,0,305,311a8,8,0,0,0,2.51-1.63,7.34,7.34,0,0,0,1.69-2.55,8.92,8.92,0,0,0,.59-3.27,7.35,7.35,0,0,0-2.35-5.5,7.66,7.66,0,0,0-2.51-1.57,8.63,8.63,0,0,0-3.08-.54,8.94,8.94,0,0,0-5.82,1.94,6.8,6.8,0,0,0-2.38,5.61A8.18,8.18,0,0,0,294.35,306.77Zm2.51-18.94a8,8,0,0,0,5,1.6,7.63,7.63,0,0,0,5-1.6,5.61,5.61,0,0,0,2-4.65,9.46,9.46,0,0,0-.26-2.08,5.77,5.77,0,0,0-3.14-3.84,8,8,0,0,0-3.54-.68,8.32,8.32,0,0,0-2.68.44,7.6,7.6,0,0,0-2.29,1.26,5.54,5.54,0,0,0-1.55,2,6.73,6.73,0,0,0-.56,2.86A5.45,5.45,0,0,0,296.86,287.83Z"/><path d="M334.11,278.21,332.26,289l.13.14a11.54,11.54,0,0,1,4.1-2.82,13.54,13.54,0,0,1,5-.85,13.74,13.74,0,0,1,6.09,1.29,13.4,13.4,0,0,1,4.46,3.47,15.11,15.11,0,0,1,2.78,5.13,20.25,20.25,0,0,1,1,6.29,16.72,16.72,0,0,1-1.39,6.83,17.21,17.21,0,0,1-3.74,5.47,16.21,16.21,0,0,1-5.45,3.57,16.53,16.53,0,0,1-6.62,1.19,22.16,22.16,0,0,1-6.45-.92,15.93,15.93,0,0,1-5.46-2.82,14.08,14.08,0,0,1-3.8-4.72,15.06,15.06,0,0,1-1.49-6.56h9.4a8,8,0,0,0,2.38,5.2,7.3,7.3,0,0,0,5.22,1.94,7,7,0,0,0,3.34-.79,8,8,0,0,0,2.52-2,9.34,9.34,0,0,0,1.59-2.92,10.77,10.77,0,0,0,.56-3.43,11.25,11.25,0,0,0-.53-3.47,8,8,0,0,0-1.59-2.85,7.55,7.55,0,0,0-2.51-1.91,8,8,0,0,0-3.38-.68,8.16,8.16,0,0,0-4.1.92,9.51,9.51,0,0,0-3,2.89H322.8l4.56-26.31h25.87v7.95Z"/><path d="M359.68,282.19a21.19,21.19,0,0,1,3.67-7.58,13.24,13.24,0,0,1,5.39-4.08,18.19,18.19,0,0,1,13.1,0,13.56,13.56,0,0,1,5.43,4.08,21,21,0,0,1,3.7,7.58,43,43,0,0,1,1.36,11.66A44.66,44.66,0,0,1,391,305.78a21,21,0,0,1-3.7,7.65,13.56,13.56,0,0,1-5.43,4.08,18.19,18.19,0,0,1-13.1,0,13.24,13.24,0,0,1-5.39-4.08,21.15,21.15,0,0,1-3.67-7.65,44.26,44.26,0,0,1-1.36-11.93A42.65,42.65,0,0,1,359.68,282.19Zm8.17,16.59a26.73,26.73,0,0,0,.83,5.57,12,12,0,0,0,2.21,4.59,5.28,5.28,0,0,0,4.37,1.91,5.42,5.42,0,0,0,4.46-1.91,11.68,11.68,0,0,0,2.25-4.59,26.73,26.73,0,0,0,.83-5.57c.09-1.93.13-3.57.13-4.93,0-.82,0-1.8,0-3a34.84,34.84,0,0,0-.93-7.2,11.08,11.08,0,0,0-1.29-3.23,7.14,7.14,0,0,0-2.18-2.32,5.76,5.76,0,0,0-3.24-.88,5.62,5.62,0,0,0-3.21.88,7,7,0,0,0-2.12,2.32,12.67,12.67,0,0,0-1.29,3.23,25.15,25.15,0,0,0-.66,3.63c-.13,1.23-.21,2.42-.23,3.57s0,2.14,0,3C367.72,295.21,367.76,296.85,367.85,298.78Z"/></g><g class="b"><path d="M503.24,393.57a5.47,5.47,0,0,1,1.49-1.68,6.6,6.6,0,0,1,2.06-1,8.27,8.27,0,0,1,2.31-.33,7.11,7.11,0,0,1,3,.56,6.12,6.12,0,0,1,2,1.35,5.12,5.12,0,0,1,1.08,1.71,4.87,4.87,0,0,1,.33,1.64,4.6,4.6,0,0,1-.7,2.55,3.85,3.85,0,0,1-2.08,1.57V400a4.33,4.33,0,0,1,2.64,1.67,5.15,5.15,0,0,1,.93,3.12,5.69,5.69,0,0,1-.62,2.72,5.62,5.62,0,0,1-1.62,1.9,7.11,7.11,0,0,1-2.29,1.13,8.86,8.86,0,0,1-2.61.38,9.9,9.9,0,0,1-2.68-.35,6.81,6.81,0,0,1-2.32-1.1,5.72,5.72,0,0,1-1.64-1.91,5.83,5.83,0,0,1-.61-2.74,5.09,5.09,0,0,1,.94-3.14,4.53,4.53,0,0,1,2.66-1.68v-.05a3.52,3.52,0,0,1-2.1-1.49,5,5,0,0,1-.14-4.87ZM506,406a3.19,3.19,0,0,0,.73,1,3,3,0,0,0,1.07.68,3.88,3.88,0,0,0,1.31.23,3.57,3.57,0,0,0,1.29-.23,3.29,3.29,0,0,0,1-.68,2.83,2.83,0,0,0,.69-1,3.44,3.44,0,0,0,.25-1.34,3.07,3.07,0,0,0-.26-1.27,3,3,0,0,0-.71-1,3.13,3.13,0,0,0-1-.64,3.54,3.54,0,0,0-1.27-.23,3.7,3.7,0,0,0-2.4.8,2.81,2.81,0,0,0-1,2.31A3.35,3.35,0,0,0,506,406Zm1-7.79a3.34,3.34,0,0,0,2,.65,3.17,3.17,0,0,0,2-.65,2.31,2.31,0,0,0,.82-1.92,3.44,3.44,0,0,0-.11-.86,2.37,2.37,0,0,0-.42-.88,2.47,2.47,0,0,0-.87-.7,3.72,3.72,0,0,0-2.56-.1,3.17,3.17,0,0,0-.94.52,2.41,2.41,0,0,0-.64.84,2.73,2.73,0,0,0-.23,1.18A2.26,2.26,0,0,0,507.06,398.18Z"/><path d="M522.4,394.21l-.76,4.46.05.05a4.79,4.79,0,0,1,1.69-1.16,5.66,5.66,0,0,1,6.39,1.61,6.22,6.22,0,0,1,1.14,2.11,8.21,8.21,0,0,1,.4,2.59,6.81,6.81,0,0,1-.58,2.82,7,7,0,0,1-1.54,2.25,6.61,6.61,0,0,1-2.24,1.47,6.76,6.76,0,0,1-2.73.49,8.94,8.94,0,0,1-2.65-.38,6.34,6.34,0,0,1-2.25-1.16,5.84,5.84,0,0,1-1.57-1.94,6.25,6.25,0,0,1-.61-2.71H521a3.33,3.33,0,0,0,1,2.15,3,3,0,0,0,2.15.79,2.87,2.87,0,0,0,1.38-.32,3.12,3.12,0,0,0,1-.84,3.86,3.86,0,0,0,.66-1.2,4.54,4.54,0,0,0,.23-1.42,4.69,4.69,0,0,0-.22-1.42,3.48,3.48,0,0,0-.65-1.18,2.94,2.94,0,0,0-1-.78,3.19,3.19,0,0,0-1.39-.28,3.39,3.39,0,0,0-1.69.37,4.14,4.14,0,0,0-1.22,1.19h-3.49l1.88-10.83h10.65v3.27Z"/><path d="M532.93,395.85a8.65,8.65,0,0,1,1.51-3.12,5.56,5.56,0,0,1,2.22-1.68,7.13,7.13,0,0,1,2.68-.5,7.22,7.22,0,0,1,2.72.5,5.66,5.66,0,0,1,2.23,1.68,8.66,8.66,0,0,1,1.52,3.12,17.37,17.37,0,0,1,.56,4.8,18.1,18.1,0,0,1-.56,4.92,8.73,8.73,0,0,1-1.52,3.15,5.66,5.66,0,0,1-2.23,1.68,7.43,7.43,0,0,1-2.72.5,7.33,7.33,0,0,1-2.68-.5,5.56,5.56,0,0,1-2.22-1.68,8.73,8.73,0,0,1-1.51-3.15,18.51,18.51,0,0,1-.56-4.92A17.76,17.76,0,0,1,532.93,395.85Zm3.36,6.83a11.49,11.49,0,0,0,.34,2.3,4.91,4.91,0,0,0,.92,1.89,2.15,2.15,0,0,0,1.79.78,2.23,2.23,0,0,0,1.84-.78,4.79,4.79,0,0,0,.93-1.89,11.49,11.49,0,0,0,.34-2.3c0-.79,0-1.47,0-2,0-.33,0-.74,0-1.21a14.5,14.5,0,0,0-.38-3,4.8,4.8,0,0,0-.53-1.33,3,3,0,0,0-.9-.95,2.3,2.3,0,0,0-1.34-.37,2.25,2.25,0,0,0-1.32.37,3,3,0,0,0-.87.95,5.13,5.13,0,0,0-.53,1.33,9.43,9.43,0,0,0-.27,1.5c-.06.5-.09,1-.1,1.47s0,.88,0,1.21C536.24,401.21,536.26,401.89,536.29,402.68Z"/></g><g class="b"><path d="M258.78,62.73,258,67.18l.05.06a4.79,4.79,0,0,1,1.69-1.16,5.46,5.46,0,0,1,2-.35,5.58,5.58,0,0,1,2.51.53,5.41,5.41,0,0,1,1.84,1.43,6.13,6.13,0,0,1,1.14,2.11,8.17,8.17,0,0,1,.4,2.59,6.89,6.89,0,0,1-.57,2.81,7.48,7.48,0,0,1-1.54,2.26,7.07,7.07,0,0,1-2.25,1.47,6.93,6.93,0,0,1-2.73.49A9.28,9.28,0,0,1,258,79a6.5,6.5,0,0,1-2.25-1.16,5.78,5.78,0,0,1-1.57-1.95,6.17,6.17,0,0,1-.61-2.7h3.87a3.28,3.28,0,0,0,1,2.14,3.23,3.23,0,0,0,3.53.48,3.39,3.39,0,0,0,1-.84,4,4,0,0,0,.66-1.21,4.43,4.43,0,0,0,.23-1.41A4.51,4.51,0,0,0,263.6,71a3.19,3.19,0,0,0-.65-1.17,3.09,3.09,0,0,0-1-.79,3.35,3.35,0,0,0-1.39-.28,3.38,3.38,0,0,0-1.69.38,4,4,0,0,0-1.22,1.19h-3.49L256,59.45h10.65v3.28Z"/><path d="M277.88,62.79a2.22,2.22,0,0,0-1.69-.73,2.47,2.47,0,0,0-1.73.63,4.55,4.55,0,0,0-1.1,1.54,7.82,7.82,0,0,0-.6,1.94,12.76,12.76,0,0,0-.22,1.85l0,.06a4.61,4.61,0,0,1,1.86-1.68,5.56,5.56,0,0,1,2.45-.51,5.67,5.67,0,0,1,2.39.55A5.59,5.59,0,0,1,282.4,70a7.75,7.75,0,0,1,.35,2.33,8,8,0,0,1-.47,2.81,6.74,6.74,0,0,1-1.36,2.27,6.31,6.31,0,0,1-2.12,1.51,6.48,6.48,0,0,1-2.72.55,6.31,6.31,0,0,1-5.83-3.19A9.84,9.84,0,0,1,269.08,73a20.39,20.39,0,0,1-.33-3.68,16.72,16.72,0,0,1,.41-3.64,10.74,10.74,0,0,1,1.31-3.29A7.44,7.44,0,0,1,272.78,60a6.19,6.19,0,0,1,3.46-.93,6.83,6.83,0,0,1,2.29.37,5.67,5.67,0,0,1,1.88,1,5.34,5.34,0,0,1,1.34,1.69,7.08,7.08,0,0,1,.68,2.32h-3.68A3.42,3.42,0,0,0,277.88,62.79Zm-3.26,6.39a2.78,2.78,0,0,0-1,.8,3.61,3.61,0,0,0-.58,1.16,4.91,4.91,0,0,0-.19,1.39,4.35,4.35,0,0,0,.21,1.33,3.56,3.56,0,0,0,.6,1.18,2.92,2.92,0,0,0,1,.82,2.67,2.67,0,0,0,1.31.31,2.38,2.38,0,0,0,1.24-.31,2.92,2.92,0,0,0,.91-.81,3.56,3.56,0,0,0,.58-1.15,4.88,4.88,0,0,0,.19-1.31,5.13,5.13,0,0,0-.18-1.36,4.09,4.09,0,0,0-.53-1.18,2.86,2.86,0,0,0-.92-.84,2.57,2.57,0,0,0-1.29-.32A3,3,0,0,0,274.62,69.18Z"/><path d="M284.46,64.37A8.57,8.57,0,0,1,286,61.25a5.39,5.39,0,0,1,2.22-1.68,7.14,7.14,0,0,1,2.68-.51,7.23,7.23,0,0,1,2.72.51,5.48,5.48,0,0,1,2.23,1.68,8.74,8.74,0,0,1,1.53,3.12,17.8,17.8,0,0,1,.55,4.8,18.42,18.42,0,0,1-.55,4.91,8.74,8.74,0,0,1-1.53,3.15,5.48,5.48,0,0,1-2.23,1.68,7.23,7.23,0,0,1-2.72.51,7.14,7.14,0,0,1-2.68-.51A5.39,5.39,0,0,1,286,77.23a8.57,8.57,0,0,1-1.51-3.15,18,18,0,0,1-.56-4.91A17.37,17.37,0,0,1,284.46,64.37Zm3.36,6.83a11.6,11.6,0,0,0,.34,2.3,5.06,5.06,0,0,0,.92,1.89,2.15,2.15,0,0,0,1.79.78,2.23,2.23,0,0,0,1.84-.78,4.92,4.92,0,0,0,.93-1.89,11.6,11.6,0,0,0,.34-2.3c0-.79,0-1.47,0-2,0-.34,0-.74,0-1.22a12.75,12.75,0,0,0-.11-1.47,13.12,13.12,0,0,0-.27-1.5,5.07,5.07,0,0,0-.53-1.33,3.15,3.15,0,0,0-.9-.95,2.37,2.37,0,0,0-1.34-.36,2.33,2.33,0,0,0-1.32.36,3.06,3.06,0,0,0-.87.95,5.43,5.43,0,0,0-.53,1.33,9.85,9.85,0,0,0-.27,1.5c-.06.51-.09,1-.1,1.47s0,.88,0,1.22C287.77,69.73,287.79,70.41,287.82,71.2Z"/></g><g class="b"><path d="M383.28,86.79a2.22,2.22,0,0,0-1.69-.73,2.47,2.47,0,0,0-1.73.63,4.55,4.55,0,0,0-1.1,1.54,7.69,7.69,0,0,0-.6,1.94,12.61,12.61,0,0,0-.22,1.85l.05.06a4.61,4.61,0,0,1,1.86-1.68,5.56,5.56,0,0,1,2.45-.51,5.72,5.72,0,0,1,2.4.55A5.62,5.62,0,0,1,387.8,94a7.76,7.76,0,0,1,.36,2.33,8.05,8.05,0,0,1-.48,2.81,6.74,6.74,0,0,1-1.36,2.27,6.37,6.37,0,0,1-2.11,1.51,6.56,6.56,0,0,1-2.73.55,6.31,6.31,0,0,1-5.83-3.19A9.84,9.84,0,0,1,374.48,97a20.39,20.39,0,0,1-.33-3.68,16.72,16.72,0,0,1,.41-3.64,10.74,10.74,0,0,1,1.31-3.29A7.44,7.44,0,0,1,378.18,84a6.19,6.19,0,0,1,3.46-.93,6.83,6.83,0,0,1,2.29.37,5.67,5.67,0,0,1,1.88,1,5.34,5.34,0,0,1,1.34,1.69,7.08,7.08,0,0,1,.68,2.32h-3.68A3.42,3.42,0,0,0,383.28,86.79ZM380,93.18a2.78,2.78,0,0,0-1,.8,3.61,3.61,0,0,0-.58,1.16,5.24,5.24,0,0,0-.19,1.39,4.35,4.35,0,0,0,.21,1.33,3.56,3.56,0,0,0,.6,1.18,2.92,2.92,0,0,0,1,.82,2.7,2.7,0,0,0,1.31.31,2.38,2.38,0,0,0,1.24-.31,2.82,2.82,0,0,0,.91-.81,3.56,3.56,0,0,0,.58-1.15,4.88,4.88,0,0,0,.19-1.31,5.13,5.13,0,0,0-.18-1.36,4.09,4.09,0,0,0-.53-1.18,2.93,2.93,0,0,0-.91-.84,2.64,2.64,0,0,0-1.3-.32A3,3,0,0,0,380,93.18Z"/><path d="M394.48,86.73l-.77,4.45.06.06a4.79,4.79,0,0,1,1.69-1.16,5.46,5.46,0,0,1,2-.35,5.61,5.61,0,0,1,2.51.53,5.51,5.51,0,0,1,1.84,1.43A6.13,6.13,0,0,1,403,93.8a8.46,8.46,0,0,1,.4,2.59,6.89,6.89,0,0,1-.58,2.81,7.14,7.14,0,0,1-1.54,2.26,6.81,6.81,0,0,1-5,2,9.28,9.28,0,0,1-2.65-.38,6.5,6.5,0,0,1-2.25-1.16,5.66,5.66,0,0,1-1.57-1.95,6.17,6.17,0,0,1-.61-2.7h3.87a3.23,3.23,0,0,0,1,2.14,3.23,3.23,0,0,0,3.53.48,3.39,3.39,0,0,0,1-.84,4,4,0,0,0,.66-1.21,4.43,4.43,0,0,0,.23-1.41A4.81,4.81,0,0,0,399.3,95a3.21,3.21,0,0,0-.66-1.17,3.06,3.06,0,0,0-1-.79,3.35,3.35,0,0,0-1.39-.28,3.38,3.38,0,0,0-1.69.38,4,4,0,0,0-1.22,1.19h-3.49l1.88-10.84h10.65v3.28Z"/><path d="M405,88.37a8.57,8.57,0,0,1,1.51-3.12,5.26,5.26,0,0,1,2.22-1.68,7.38,7.38,0,0,1,5.39,0,5.44,5.44,0,0,1,2.24,1.68,8.57,8.57,0,0,1,1.52,3.12,17.37,17.37,0,0,1,.56,4.8,18,18,0,0,1-.56,4.91,8.57,8.57,0,0,1-1.52,3.15,5.44,5.44,0,0,1-2.24,1.68,7.38,7.38,0,0,1-5.39,0,5.26,5.26,0,0,1-2.22-1.68A8.57,8.57,0,0,1,405,98.08a18,18,0,0,1-.56-4.91A17.37,17.37,0,0,1,405,88.37Zm3.36,6.83a11.6,11.6,0,0,0,.34,2.3,5.06,5.06,0,0,0,.92,1.89,2.15,2.15,0,0,0,1.79.78,2.23,2.23,0,0,0,1.84-.78,4.92,4.92,0,0,0,.93-1.89,11.6,11.6,0,0,0,.34-2.3c0-.79.05-1.47.05-2,0-.34,0-.74,0-1.22s-.05-1-.11-1.47a13.12,13.12,0,0,0-.27-1.5,5.07,5.07,0,0,0-.53-1.33,3,3,0,0,0-.9-1,2.39,2.39,0,0,0-1.34-.36,2.33,2.33,0,0,0-1.32.36,3,3,0,0,0-.87,1A5.43,5.43,0,0,0,408.7,89a9.85,9.85,0,0,0-.27,1.5c-.06.51-.09,1-.1,1.47s0,.88,0,1.22C408.32,93.73,408.34,94.41,408.37,95.2Z"/></g><g class="b"><path d="M505.76,175.08a23.36,23.36,0,0,0-1.94,4.17,30.84,30.84,0,0,0-1.19,4.48,23.46,23.46,0,0,0-.45,4.23H498a27.38,27.38,0,0,1,2-8.46,30,30,0,0,1,4.4-7.45h-9.05v-3.69h13v3.41A13.85,13.85,0,0,0,505.76,175.08Z"/><path d="M510.61,173.27a8.57,8.57,0,0,1,1.51-3.12,5.56,5.56,0,0,1,2.22-1.68A7.13,7.13,0,0,1,517,168a7.22,7.22,0,0,1,2.72.5,5.66,5.66,0,0,1,2.23,1.68,8.74,8.74,0,0,1,1.53,3.12,17.8,17.8,0,0,1,.55,4.8,18.55,18.55,0,0,1-.55,4.92,8.9,8.9,0,0,1-1.53,3.15,5.66,5.66,0,0,1-2.23,1.68,7.43,7.43,0,0,1-2.72.5,7.33,7.33,0,0,1-2.68-.5,5.56,5.56,0,0,1-2.22-1.68,8.73,8.73,0,0,1-1.51-3.15,18.51,18.51,0,0,1-.56-4.92A17.76,17.76,0,0,1,510.61,173.27ZM514,180.1a11.49,11.49,0,0,0,.34,2.3,4.91,4.91,0,0,0,.92,1.89,2.15,2.15,0,0,0,1.79.78,2.23,2.23,0,0,0,1.84-.78,4.79,4.79,0,0,0,.93-1.89,11.49,11.49,0,0,0,.34-2.3c0-.79,0-1.47,0-2,0-.33,0-.74,0-1.21a14.5,14.5,0,0,0-.38-3,4.8,4.8,0,0,0-.53-1.33,3,3,0,0,0-.9-.95,2.3,2.3,0,0,0-1.34-.37,2.25,2.25,0,0,0-1.32.37,3,3,0,0,0-.87.95,5.13,5.13,0,0,0-.53,1.33,9.43,9.43,0,0,0-.27,1.5c-.06.5-.09,1-.1,1.47s0,.88,0,1.21C513.92,178.63,513.94,179.31,514,180.1Z"/><path d="M525.76,173.27a8.57,8.57,0,0,1,1.51-3.12,5.43,5.43,0,0,1,2.22-1.68,7.51,7.51,0,0,1,5.39,0,5.62,5.62,0,0,1,2.24,1.68,8.57,8.57,0,0,1,1.52,3.12,17.37,17.37,0,0,1,.56,4.8,18.1,18.1,0,0,1-.56,4.92,8.73,8.73,0,0,1-1.52,3.15,5.62,5.62,0,0,1-2.24,1.68,7.51,7.51,0,0,1-5.39,0,5.43,5.43,0,0,1-2.22-1.68,8.73,8.73,0,0,1-1.51-3.15,18.1,18.1,0,0,1-.56-4.92A17.37,17.37,0,0,1,525.76,173.27Zm3.36,6.83a11.49,11.49,0,0,0,.34,2.3,4.91,4.91,0,0,0,.92,1.89,2.15,2.15,0,0,0,1.79.78,2.23,2.23,0,0,0,1.84-.78,4.79,4.79,0,0,0,.93-1.89,11.49,11.49,0,0,0,.34-2.3c0-.79.05-1.47.05-2,0-.33,0-.74,0-1.21s-.05-1-.11-1.47a12.38,12.38,0,0,0-.27-1.5,4.8,4.8,0,0,0-.53-1.33,3,3,0,0,0-.9-.95,2.32,2.32,0,0,0-1.34-.37,2.25,2.25,0,0,0-1.32.37,3,3,0,0,0-.87.95,5.13,5.13,0,0,0-.53,1.33,9.43,9.43,0,0,0-.27,1.5c-.06.5-.09,1-.1,1.47s0,.88,0,1.21C529.07,178.63,529.09,179.31,529.12,180.1Z"/></g><g class="b"><path d="M556.26,266.74a23.31,23.31,0,0,0-1.94,4.17,31.23,31.23,0,0,0-1.2,4.48,25.41,25.41,0,0,0-.45,4.23h-4.14a27.38,27.38,0,0,1,2-8.46,30,30,0,0,1,4.4-7.45h-9.05V260h13v3.41A13.82,13.82,0,0,0,556.26,266.74Z"/><path d="M565.73,263.29l-.77,4.46.06.05a4.7,4.7,0,0,1,1.69-1.16,5.67,5.67,0,0,1,2-.35,5.75,5.75,0,0,1,2.51.53,5.5,5.5,0,0,1,1.83,1.43,6.24,6.24,0,0,1,1.15,2.11,8.5,8.5,0,0,1,.39,2.59,7,7,0,0,1-2.11,5.07,6.55,6.55,0,0,1-2.25,1.47,6.71,6.71,0,0,1-2.72.49,9,9,0,0,1-2.66-.38,6.37,6.37,0,0,1-2.24-1.16,5.72,5.72,0,0,1-1.57-1.94,6.11,6.11,0,0,1-.61-2.71h3.87a3.28,3.28,0,0,0,1,2.15,3,3,0,0,0,2.15.79,2.8,2.8,0,0,0,1.37-.32,3.16,3.16,0,0,0,1-.84,3.65,3.65,0,0,0,.65-1.2,4.28,4.28,0,0,0,.24-1.42,4.69,4.69,0,0,0-.22-1.42,3.5,3.5,0,0,0-.66-1.18,2.91,2.91,0,0,0-1-.78,3.23,3.23,0,0,0-1.39-.28,3.39,3.39,0,0,0-1.69.37,4,4,0,0,0-1.23,1.19h-3.48L563,260H573.6v3.27Z"/><path d="M576.26,264.93a8.65,8.65,0,0,1,1.51-3.12,5.43,5.43,0,0,1,2.22-1.68,7.09,7.09,0,0,1,2.68-.5,7.17,7.17,0,0,1,2.71.5,5.62,5.62,0,0,1,2.24,1.68,8.66,8.66,0,0,1,1.52,3.12,17.76,17.76,0,0,1,.56,4.8,18.51,18.51,0,0,1-.56,4.92,8.73,8.73,0,0,1-1.52,3.15,5.62,5.62,0,0,1-2.24,1.68,7.37,7.37,0,0,1-2.71.5,7.29,7.29,0,0,1-2.68-.5,5.43,5.43,0,0,1-2.22-1.68,8.73,8.73,0,0,1-1.51-3.15,18.1,18.1,0,0,1-.56-4.92A17.37,17.37,0,0,1,576.26,264.93Zm3.36,6.83a11.49,11.49,0,0,0,.34,2.3,5,5,0,0,0,.91,1.89,2.18,2.18,0,0,0,1.8.78,2.25,2.25,0,0,0,1.84-.78,4.79,4.79,0,0,0,.93-1.89,11.49,11.49,0,0,0,.34-2.3c0-.79.05-1.47.05-2,0-.33,0-.74,0-1.21s-.05-1-.11-1.47a14.69,14.69,0,0,0-.27-1.5,4.8,4.8,0,0,0-.53-1.33,3,3,0,0,0-.9-1,2.32,2.32,0,0,0-1.34-.37,2.21,2.21,0,0,0-1.32.37,3,3,0,0,0-.87,1,4.8,4.8,0,0,0-.53,1.33,10.72,10.72,0,0,0-.28,1.5q-.07.75-.09,1.47c0,.47,0,.88,0,1.21C579.57,270.29,579.58,271,579.62,271.76Z"/></g><g class="b"><path d="M14.06,398.86a4.12,4.12,0,0,0,1.32-.32,2.47,2.47,0,0,0,1-.77,2.08,2.08,0,0,0,.4-1.34,2.36,2.36,0,0,0-.82-1.94,2.9,2.9,0,0,0-1.88-.67,2.59,2.59,0,0,0-2.22,1,3.88,3.88,0,0,0-.72,2.5H7.46A8.91,8.91,0,0,1,8,394.56a6.42,6.42,0,0,1,1.34-2.14A5.75,5.75,0,0,1,11.39,391a6.87,6.87,0,0,1,2.67-.49,7.52,7.52,0,0,1,2.28.35A6.27,6.27,0,0,1,18.4,392a5.66,5.66,0,0,1,1.49,1.7,5.06,5.06,0,0,1-.1,4.85,3.32,3.32,0,0,1-2,1.48V400a4.11,4.11,0,0,1,2.48,1.57,4.66,4.66,0,0,1,.9,2.88,6.17,6.17,0,0,1-.59,2.74,5.83,5.83,0,0,1-1.57,2,6.77,6.77,0,0,1-2.26,1.23,8.48,8.48,0,0,1-2.67.42,8.78,8.78,0,0,1-2.93-.47,6,6,0,0,1-3.67-3.62,7.89,7.89,0,0,1-.48-3h3.68a5.74,5.74,0,0,0,.24,1.5,3.86,3.86,0,0,0,.63,1.23,3,3,0,0,0,1,.83,3.28,3.28,0,0,0,1.46.3,3.11,3.11,0,0,0,2.2-.82,3.43,3.43,0,0,0,.48-4,2.42,2.42,0,0,0-1.07-.86,4.73,4.73,0,0,0-1.44-.31c-.51,0-1,0-1.48,0v-2.8A7.49,7.49,0,0,0,14.06,398.86Z"/><path d="M22.79,395.85a8.65,8.65,0,0,1,1.51-3.12,5.5,5.5,0,0,1,2.22-1.68,7.51,7.51,0,0,1,5.39,0,5.62,5.62,0,0,1,2.24,1.68,8.66,8.66,0,0,1,1.52,3.12,17.37,17.37,0,0,1,.56,4.8,18.1,18.1,0,0,1-.56,4.92,8.73,8.73,0,0,1-1.52,3.15,5.62,5.62,0,0,1-2.24,1.68,7.51,7.51,0,0,1-5.39,0,5.5,5.5,0,0,1-2.22-1.68,8.73,8.73,0,0,1-1.51-3.15,18.1,18.1,0,0,1-.56-4.92A17.37,17.37,0,0,1,22.79,395.85Zm3.36,6.83a11.49,11.49,0,0,0,.34,2.3,4.91,4.91,0,0,0,.92,1.89,2.15,2.15,0,0,0,1.79.78,2.23,2.23,0,0,0,1.84-.78A4.79,4.79,0,0,0,32,405a11.49,11.49,0,0,0,.34-2.3c0-.79,0-1.47,0-2,0-.33,0-.74,0-1.21s-.05-1-.11-1.47a12.38,12.38,0,0,0-.27-1.5,4.8,4.8,0,0,0-.53-1.33,3,3,0,0,0-.9-.95,2.3,2.3,0,0,0-1.34-.37,2.25,2.25,0,0,0-1.32.37,3,3,0,0,0-.87.95,5.13,5.13,0,0,0-.53,1.33,9.43,9.43,0,0,0-.27,1.5c-.06.5-.09,1-.1,1.47s0,.88,0,1.21C26.1,401.21,26.12,401.89,26.15,402.68Z"/><path d="M37.94,395.85a8.65,8.65,0,0,1,1.51-3.12,5.43,5.43,0,0,1,2.22-1.68,7.09,7.09,0,0,1,2.68-.5,7.17,7.17,0,0,1,2.71.5,5.62,5.62,0,0,1,2.24,1.68,8.66,8.66,0,0,1,1.52,3.12,17.76,17.76,0,0,1,.56,4.8,18.51,18.51,0,0,1-.56,4.92,8.73,8.73,0,0,1-1.52,3.15,5.62,5.62,0,0,1-2.24,1.68,7.37,7.37,0,0,1-2.71.5,7.29,7.29,0,0,1-2.68-.5,5.43,5.43,0,0,1-2.22-1.68,8.73,8.73,0,0,1-1.51-3.15,18.1,18.1,0,0,1-.56-4.92A17.37,17.37,0,0,1,37.94,395.85Zm3.36,6.83a11.49,11.49,0,0,0,.34,2.3,5,5,0,0,0,.91,1.89,2.18,2.18,0,0,0,1.8.78,2.25,2.25,0,0,0,1.84-.78,4.79,4.79,0,0,0,.93-1.89,11.49,11.49,0,0,0,.34-2.3c0-.79,0-1.47,0-2,0-.33,0-.74,0-1.21s0-1-.11-1.47a12.38,12.38,0,0,0-.27-1.5,4.8,4.8,0,0,0-.53-1.33,3,3,0,0,0-.9-.95,2.32,2.32,0,0,0-1.34-.37,2.21,2.21,0,0,0-1.32.37,3,3,0,0,0-.87.95,4.8,4.8,0,0,0-.53,1.33,10.72,10.72,0,0,0-.28,1.5q-.08.75-.09,1.47c0,.47,0,.88,0,1.21C41.25,401.21,41.26,401.89,41.3,402.68Z"/></g><path class="c" d="M275.75,92h0v57.53h0a217.3,217.3,0,0,1,97.08,22.75l23.47-52.59A274.65,274.65,0,0,0,275.75,92Z"/><path class="d" d="M396.3,119.69l-23.47,52.59A219,219,0,0,1,443.35,228l41.47-40A276.74,276.74,0,0,0,396.3,119.69Z"/><path class="e" d="M482.6,298l52.76-23.4A275.28,275.28,0,0,0,484.82,188l-41.47,40A217.76,217.76,0,0,1,482.6,298Z"/><path class="f" d="M494,367.76h57.53a275.22,275.22,0,0,0-16.15-93.14L482.6,298A218,218,0,0,1,494,367.76Z"/><path class="g" d="M275.75,92C123.46,92,0,215.46,0,367.76H57.53c0-120.53,97.7-218.23,218.22-218.23Z"/><path class="h" d="M85.49,213.14a5.89,5.89,0,0,1,1.06,8.68,5.78,5.78,0,0,1-8.39,1.11A5.9,5.9,0,0,1,77,214.16,5.67,5.67,0,0,1,85.49,213.14Zm-6.25,8.29c2,1.52,4.74,1.65,6.38-.45s.87-4.7-1.22-6.38c-1.84-1.48-4.66-1.93-6.46.39S77.15,219.87,79.24,221.43Z"/><path class="h" d="M83.44,206.53,86.32,209c1.24,1,2.54.9,3.77-.52A5.87,5.87,0,0,0,91.32,206l-4.22-3.72c.47-.54.71-.8,1.19-1.34l8.83,7.9L96,210.12l-3.77-3.32,0,0a7.08,7.08,0,0,1-1.54,2.89c-1.14,1.33-3,2.56-5.27.71l-3.07-2.55Z"/><path class="h" d="M99.72,197.92c-1.44,1.49-2.15,2.24-3.56,3.75l3.12,2.91c1.55-1.66,2.33-2.48,3.91-4.1l.92.89c-2,2.1-3,3.16-5,5.32l-8.73-8c2-2.17,3-3.24,5.06-5.36l.92.9c-1.55,1.6-2.32,2.41-3.85,4l2.75,2.55c1.42-1.52,2.13-2.28,3.58-3.77Z"/><path class="h" d="M98.48,190.23l3.49,3.51c1.84-1.82,2.77-2.72,4.65-4.49l-3.4-3.61,1.3-1.21c3.23,3.47,4.85,5.2,8.07,8.67l-1.24,1.16-3.81-4c-1.87,1.77-2.8,2.66-4.62,4.47l3.91,3.94-1.18,1.19-8.42-8.35Z"/><path class="h" d="M108.08,181.18l3,3.3a16.3,16.3,0,0,1,1.18-1.16c2-1.81,4.6-2.55,6.29-.55a3.39,3.39,0,0,1,.87,2.58,7,7,0,0,1-2.62,4.11,26,26,0,0,1-2,1.65l-7.94-8.75Zm7.12,7.95a6.84,6.84,0,0,0,1.1-.86c1.41-1.24,2.09-2.91.91-4.28s-2.95-.86-4.37.4a11.68,11.68,0,0,0-1,1Z"/><path class="h" d="M126.24,166.42l7,9.53-1.35,1-6.34-8.45c-2,1.51-3,2.28-5,3.84l6.55,8.29c-.53.41-.79.62-1.31,1l-7.42-9.24C121.51,170,123.07,168.77,126.24,166.42Z"/><path class="h" d="M136.15,159.47l6.59,9.85-1.41,1-5.94-8.75c-1.48,1-2.22,1.52-3.69,2.55l2.06,2.94c1.48,2.09,3,4.5,2.19,6.48a4.3,4.3,0,0,1-1.28,1.62l-.9-.87a3,3,0,0,0,.74-1.32c.31-1.36-.95-3.3-2-4.84s-1.74-2.44-2.91-4.06C132.16,162.16,133.48,161.25,136.15,159.47Z"/><path class="h" d="M151.59,156.66a5.89,5.89,0,0,1-2,8.5,5.76,5.76,0,0,1-8.23-1.89,5.89,5.89,0,0,1,1.94-8.61A5.67,5.67,0,0,1,151.59,156.66Zm-8.73,5.58c1.37,2.13,3.87,3.21,6.13,1.81s2.44-4.09,1.06-6.4c-1.2-2-3.69-3.43-6.18-1.89S141.45,160.05,142.86,162.24Z"/><path class="h" d="M162.31,157.58c-1.08-.61-1.62-.91-2.72-1.51s-1.78-.91-2.47-1.31l0,0c0,.78,0,1.52-.1,2.76s-.06,1.82-.09,3l-1.67,1c.17-2.87.27-4.31.53-7.2-2.52-1.28-3.79-1.9-6.36-3.12l1.78-1,2.93,1.53c.82.43,1.44.77,2.06,1.15l.06,0a21.34,21.34,0,0,1,.1-2.34c.11-1.33.17-2,.31-3.33l1.79-1c-.4,2.81-.57,4.22-.89,7,2.63,1.33,3.94,2,6.51,3.41Z"/><path class="h" d="M172.79,145.6a5.91,5.91,0,0,1-2.87,8.28,5.77,5.77,0,0,1-8-2.67,5.9,5.9,0,0,1,2.8-8.39A5.68,5.68,0,0,1,172.79,145.6Zm-9.27,4.73c1.16,2.25,3.54,3.57,5.94,2.39s2.84-3.85,1.69-6.28c-1-2.13-3.34-3.76-6-2.46S162.33,148,163.52,150.33Z"/><path class="h" d="M305.09,118.9c-.61,4.83-.92,7.24-1.54,12.06l-1.68-.21,1.3-10.76c-2.52-.31-3.78-.45-6.31-.7-.43,4.31-.65,6.47-1.08,10.78l-1.69-.16c.45-4.84.68-7.26,1.13-12.11C299.18,118.18,301.15,118.4,305.09,118.9Z"/><path class="h" d="M317.15,120.71l-2,12-1.7-.28,1.75-10.7c-1.79-.3-2.68-.44-4.47-.7-.22,1.45-.32,2.18-.54,3.64-.38,2.6-.94,5.49-2.94,6.37a4.22,4.22,0,0,1-2.07.3l0-1.28a3.11,3.11,0,0,0,1.47-.46c1.18-.8,1.61-3.12,1.89-5.05s.43-3,.72-5.07C312.37,119.91,314,120.16,317.15,120.71Z"/><path class="h" d="M330.4,129.37c-.91,4.09-4.08,5.65-7.37,5a5.86,5.86,0,0,1-4.73-7.17,6,6,0,0,1,7.39-5.1A5.76,5.76,0,0,1,330.4,129.37Zm-10.27-1.89c-.47,2.56.61,5.11,3.25,5.64s4.63-1.37,5.21-4.07c.51-2.36-.35-5.14-3.24-5.72S320.62,124.86,320.13,127.48Z"/><path class="h" d="M337.68,137.5c-.38-1.21-.58-1.82-1-3s-.69-1.92-.92-2.7h0c-.54.59-1.06,1.13-2,2L331.61,136l-1.9-.43c2.1-2.05,3.17-3.06,5.35-5.07-1-2.71-1.49-4.06-2.53-6.76l2,.46c.45,1.28.67,1.92,1.1,3.19.31.89.54,1.58.73,2.29l.06,0c.54-.61,1-1.07,1.68-1.7l2.51-2.31,2,.51c-2.22,1.86-3.31,2.81-5.47,4.71,1,2.82,1.53,4.24,2.48,7.07Z"/><path class="h" d="M353.61,135.57c-1.24,4-4.53,5.29-7.76,4.36a5.87,5.87,0,0,1-4.12-7.55,6,6,0,0,1,7.79-4.46A5.76,5.76,0,0,1,353.61,135.57Zm-10.08-2.74c-.68,2.51.19,5.15,2.77,5.89s4.73-1,5.54-3.62c.7-2.31.07-5.16-2.76-6S344.23,130.26,343.53,132.83Z"/><path class="h" d="M359.17,131.1,357.59,136c-.6,1.83-1.13,3.33-1.75,4.84l0,0a38.29,38.29,0,0,1,3.61-3c2.45-1.82,3.69-2.72,6.2-4.49l1.67.6-4.1,11.44-1.52-.54c.69-1.95,1-2.93,1.72-4.88s1.16-3.21,1.8-4.61l-.05,0a41.45,41.45,0,0,1-3.72,3c-2.38,1.74-3.56,2.62-5.88,4.4l-1.73-.56,3.7-11.58Zm2.94-1.71a1.12,1.12,0,0,0,.83,1.46,1.1,1.1,0,0,0,1.55-.65l1.3.45c-.49,1.09-1.5,1.52-3.15,1s-2.11-1.49-1.84-2.65Z"/><path class="h" d="M401.44,162.12a8.39,8.39,0,0,1-2.82-1.27c-2.73-1.78-3.86-4.63-2.08-7.49s5-3.25,8.13-1.22a7.14,7.14,0,0,1,2.13,2l-.91.7a6.19,6.19,0,0,0-1.78-1.68c-2.35-1.54-4.75-1.22-6.19,1.07-1.33,2.13-.8,4.36,1.57,5.9a6.58,6.58,0,0,0,2.28,1Z"/><path class="h" d="M408.49,155a19.43,19.43,0,0,1,2.57,1.51,5.47,5.47,0,0,1,2.26,2.63,2.59,2.59,0,0,1-.39,2.35,2.87,2.87,0,0,1-2,1.27,5.52,5.52,0,0,1-3.6-1.14,6.08,6.08,0,0,1-.95-.77l-2.32,3.41-1.24-.84ZM407,160a5.94,5.94,0,0,0,1,.8c1.51,1,2.87,1.06,3.68-.1s.25-2.3-1.15-3.26a7.32,7.32,0,0,0-1.26-.74Z"/><path class="h" d="M418,168.41c-1.46-1.11-2.19-1.66-3.67-2.74-.88,1.2-1.31,1.8-2.19,3,1.63,1.19,2.43,1.8,4,3l-.68.89c-2.07-1.57-3.11-2.35-5.22-3.88l6-8.33c2.1,1.52,3.14,2.3,5.2,3.86l-.67.89c-1.57-1.19-2.35-1.78-3.94-2.94L415,164.79c1.48,1.08,2.22,1.63,3.68,2.74Z"/><path class="h" d="M430,170.92,424.21,178l.77.67-2.32,2.65-.89-.73,1.48-2c-2.26-1.85-3.4-2.76-5.71-4.54-.64.75-1,1.13-1.59,1.89l-.92-.71c.83-1.14,1.24-1.71,2.06-2.86l.72.51a11.3,11.3,0,0,0,2.28-1.08,13.7,13.7,0,0,0,3.1-3.07l1.6-2.06C426.91,168.38,428,169.22,430,170.92Zm-6-.92a12.77,12.77,0,0,1-3.06,2.93,9.7,9.7,0,0,1-1.95.95c1.62,1.27,2.42,1.91,4,3.2l5.08-6.28c-1.15-.94-1.73-1.4-2.89-2.32Z"/><path class="h" d="M433.53,173.83l-2.77,3.29c1.74,1.48,2.61,2.22,4.33,3.73,1.13-1.29,1.7-1.93,2.83-3.23l1.18,1-6.83,7.69c-.45-.41-.67-.61-1.13-1l3.18-3.62c-1.71-1.5-2.57-2.24-4.31-3.71l-3.1,3.68-1.15-1c2.64-3.16,3.95-4.74,6.59-7.89Z"/><path class="h" d="M442.17,181.44l-2.91,3.2c-1.11,1.2-2,2.17-3,3.11l0,0a34.59,34.59,0,0,1,3.9-1c2.55-.52,3.84-.76,6.42-1.22l1.12,1.07L440.55,194c-.4-.4-.61-.59-1-1l3-3.17c1.15-1.2,2-2.07,3-2.92l0,0a33.84,33.84,0,0,1-4,1c-2.48.48-3.71.73-6.16,1.25l-1.18-1.07,6.9-7.62Z"/><path class="h" d="M450.66,189.53l-3.05,3.07c-1.15,1.16-2.12,2.09-3.15,3v0a35.51,35.51,0,0,1,3.94-.87c2.57-.41,3.87-.6,6.47-1l1.07,1.12L448.54,202l-1-1L450.7,198c1.2-1.15,2.08-2,3.1-2.8l0,0a35.15,35.15,0,0,1-4,.84c-2.49.37-3.73.57-6.2,1l-1.14-1.12,7.2-7.34Zm2.91-.13a1.11,1.11,0,0,0,1.54,1.56l.84.86c-.79.63-1.73.56-2.8-.52s-1.08-2-.43-2.76Z"/><path class="h" d="M465.69,221.8c.4-1,.6-1.52,1-2.54s.59-1.64.85-2.29l0,0c-.67.1-1.31.18-2.4.26l-2.64.3-1-1.33c2.52-.2,3.78-.28,6.31-.44.82-2.32,1.23-3.49,2-5.84.43.56.65.83,1.07,1.39-.4,1.09-.6,1.63-1,2.71-.28.75-.5,1.33-.76,1.91l0,0a20,20,0,0,1,2-.21l2.91-.19c.41.56.62.84,1,1.4-2.47.05-3.71.09-6.17.18-.86,2.44-1.3,3.64-2.2,6C466.3,222.62,466.09,222.34,465.69,221.8Z"/><path class="h" d="M477.35,229.09a5.12,5.12,0,0,1-7.52-1.25,5,5,0,0,1,1.32-7.25,5.15,5.15,0,0,1,7.59,1.2A5,5,0,0,1,477.35,229.09Zm-5.24-7.23c-1.81,1.3-2.66,3.53-1.34,5.42s3.69,1.88,5.65.54c1.71-1.17,2.82-3.4,1.38-5.45S474,220.52,472.11,221.86Z"/><path class="h" d="M482.57,227.93a18.31,18.31,0,0,1,1.76,2.3,5.17,5.17,0,0,1,1.05,3.23,2.69,2.69,0,0,1-1.3,2,3,3,0,0,1-2.35.44,5.17,5.17,0,0,1-2.87-2.32,5.51,5.51,0,0,1-.57-1.05l-3.49,2.3-.8-1.22Zm-3.36,4a5.11,5.11,0,0,0,.58,1.09c1,1.5,2.23,2,3.44,1.22s1.13-2,.23-3.41a7.14,7.14,0,0,0-.87-1.13Z"/><path class="h" d="M488.34,246.63a5.13,5.13,0,0,1-7.42-1.75,5,5,0,0,1,1.82-7.14,5.15,5.15,0,0,1,7.49,1.71A4.94,4.94,0,0,1,488.34,246.63Zm-4.73-7.56c-1.9,1.17-2.89,3.34-1.7,5.31s3.55,2.12,5.59.92c1.79-1.05,3.05-3.2,1.75-5.34S485.55,237.86,483.61,239.07Z"/><path class="h" d="M494.48,247.06l-8.09,4.59c.72,1.28,1.08,1.92,1.79,3.21l8.15-4.48c.29.52.43.78.71,1.31l-8.16,4.44c.7,1.29,1.05,1.94,1.73,3.24l8.22-4.35.7,1.34-9.24,4.83c-2.16-4.14-3.28-6.19-5.6-10.24l9.05-5.19Z"/><path class="h" d="M501.38,260l-3.92,2c-1.47.74-2.7,1.33-4,1.87v0a34.38,34.38,0,0,1,4,.34c2.59.38,3.88.58,6.47,1,.27.54.4.81.66,1.36l-9.41,4.49-.6-1.24,4-1.93c1.52-.73,2.64-1.26,3.88-1.72v-.05a33.59,33.59,0,0,1-4.1-.4c-2.49-.38-3.74-.55-6.23-.88l-.7-1.39,9.28-4.76C501,259.2,501.13,259.45,501.38,260Z"/><path class="h" d="M506.35,270.26l-4,1.84c-1.5.69-2.75,1.23-4.06,1.72v0a36.48,36.48,0,0,1,4,.49c2.57.47,3.86.72,6.43,1.25l.6,1.39-9.57,4.14c-.21-.51-.32-.76-.54-1.26l4.06-1.79c1.55-.67,2.69-1.16,3.94-1.57v-.06a34.44,34.44,0,0,1-4.08-.54c-2.48-.47-3.71-.7-6.19-1.12-.26-.57-.39-.85-.66-1.42l9.45-4.41Zm2.78.83a1.08,1.08,0,0,0,.88,2l.47,1.07c-1,.34-1.83-.05-2.43-1.4s-.29-2.18.6-2.68Z"/><polygon class="h" points="519.05 313.63 522.49 324.19 533.59 324.19 524.61 330.72 528.04 341.29 519.05 334.76 510.07 341.29 513.5 330.72 504.51 324.19 515.62 324.19 519.05 313.63"/></svg>