<svg xmlns="http://www.w3.org/2000/svg" viewBox="0 0 425.06 383.67"><defs><style>.a{fill:#d8dee8;}.b{fill:#ffbb83;}.c{fill:#9e9e46;}.d{fill:#e8c392;}.e{fill:#a2a53f;}.f{fill:#723939;}.g{fill:#ff9d66;}.h{fill:#8c8a38;}.i{fill:#adaa50;}.j{fill:#513642;}.k{fill:#3a272f;}.l{fill:#f4d3a2;}.m{fill:#7a9993;}.n{fill:#a5c4be;}.o{fill:#c5d3d1;}.p{fill:#8e6050;}.q{fill:#ffe3bd;}.r{fill:#ed7656;}.s{fill:#baba4a;}.t{fill:#604748;}.u{fill:#6b3832;}.v{fill:#492e36;}.w{fill:#f9ebd7;}.x{fill:#8c8c34;}.y{fill:#999739;}.z{fill:#a09d42;}.aa{fill:#bcbc53;}.ab{fill:#d8d56c;}.ac{fill:#b29479;}.ad{isolation:isolate;}</style></defs><path class="a" d="M210.34,366.75c-63.3.39-80.12-2.33-141.12-.43-23.32.73-68.9,2.15-69.22,5-.41,3.71,73.6,8.63,129.27,10.7,151.56,5.65,295.9-5,295.79-10.69-.07-4-70.31-6.27-101-6.81C274.83,363.7,271.91,366.38,210.34,366.75Z"/><path class="b" d="M283.17,74.91c5.88-3.32,5.25-8.65,4-9.74s-4.88-1.7-5.93.08,1.8,6.61-.34,8.43S283.17,74.91,283.17,74.91Z"/><path class="b" d="M283.65,65.58c-1.54-4.52-4.3-8.18-5.16-8.06s2.91,7.64,2.55,9.26S283.65,65.58,283.65,65.58Z"/><path class="b" d="M286.08,66.24c-.46-4.62-2.38-8.92-3.29-9.14s1.1,7.91.35,9.22S286.08,66.24,286.08,66.24Z"/><path class="b" d="M287.92,68.2c.89-4.62.29-9-.52-9.28s-1.22,7.93-2.33,9.2S287.92,68.2,287.92,68.2Z"/><path class="c" d="M187.32,154.85H149.43c.31,5.77-2.07,11.24-5.78,16.26l42.07-1.64Z"/><path class="d" d="M310.39,300.28c-1.63-.82.51-1.94,4.4-.88,39.93,10.84,41.33,31,41.33,31s-14.33,13.91-29.92,6.8C326.2,337.15,321.56,305.91,310.39,300.28Z"/><path class="e" d="M99.51,192l.86-14.11c-15.52.69-29.21,8.73-29.21,8.73l-.46,15.59S89.59,191.71,99.51,192Z"/><path class="e" d="M109,142.52l-12.34,6.89c9,12.69,23.14,19.86,23.14,19.86l13.36-8S114.13,151,109,142.52Z"/><path class="f" d="M215.11,105.83c-12.32,29.65-30,32.31-44,21.32S154.14,26.2,194.46,4.21,238,50.78,215.11,105.83Z"/><path class="b" d="M221.94,62.68c23,20.74,36.73,42,38.23,44.73s-2.91,8-6.91,6.74-29.07-35-32.32-40.22S221.94,62.68,221.94,62.68Z"/><path class="g" d="M260.17,107.41c-.4-.74-1.73-2.87-3.87-5.94-1.4,1.67-2.32,3.41-4.46,2.74-3.52-1.1-24.75-28-31.64-37.79a9.06,9.06,0,0,0,.74,7.51c3.25,5.24,28.32,39,32.32,40.22S261.67,110.16,260.17,107.41Z"/><polygon class="c" points="201.12 157.8 152.48 160.46 122.16 199.78 201.12 199.78 201.12 157.8"/><path class="h" d="M208.74,153.84l-32.69,1.21c1.32,5,1.08,9.69.33,14.7l35,3Z"/><path class="h" d="M204.08,168.25l-33.11.94a36.93,36.93,0,0,1,.75,15l35,3Z"/><path class="h" d="M204.37,183.24l-43.73.88A24.83,24.83,0,0,1,158.85,198l45.52,2.74Z"/><path class="c" d="M145.65,182.78H120.33a28.06,28.06,0,0,1,0,14.83h25.32Z"/><path class="c" d="M159.81,169.62,138,168.13c.44,5.06-.94,10.55-3.5,16.32h25.32Z"/><path class="h" d="M135.28,197.61a31.2,31.2,0,0,0-.14-14.75h-.48a27.22,27.22,0,0,1-1.8,14.59Z"/><polygon class="i" points="155.24 185.11 149.54 184.59 147.65 198.28 154.01 198.28 155.24 185.11"/><polygon class="i" points="152.23 169.25 146.54 168.69 144.23 183.62 150.6 183.62 152.23 169.25"/><polygon class="i" points="167.26 154.86 160.56 154.86 159.31 168.79 165.68 168.79 167.26 154.86"/><polygon class="h" points="152.03 183.83 134.86 182.96 152.27 185.1 177.88 185.14 179.22 183.03 152.03 183.83"/><polygon class="h" points="161.39 168.79 145.35 168.63 161.62 170.05 184.63 169.96 186.79 166.88 161.39 168.79"/><path class="h" d="M160.71,184.43a35.15,35.15,0,0,0,.73-15.63H161a31.12,31.12,0,0,1-2.65,15.46Z"/><path class="j" d="M221.19,69.43c-10-17.66-12.41-13.91-17.74-10.25s2.25,14.25,3,38.48c1.07,34.73-20.6,45.71-28.49,74.13a20,20,0,0,0,19.22,25.32h15.93l14.33-34.23C222.44,132.64,231.19,87.09,221.19,69.43Z"/><path class="k" d="M209.7,168.8c-18.57-13.5,5.75-48.11,14.84-48.11a6.93,6.93,0,0,1,1.45.17c.47-20.94,1.09-41-4.8-51.43-10-17.66-12.41-13.91-17.74-10.25s2.25,14.25,3,38.48c1.07,34.73-20.6,45.71-28.49,74.13a20,20,0,0,0,19.22,25.32h15.93l2.23-5.31C214,192.47,211.05,168.8,209.7,168.8Z"/><path class="l" d="M401.34,370.35H185.79c13.82-25.65,115.65-76.59,126.77-70.63C324.71,306.23,401.34,370.35,401.34,370.35Z"/><path class="d" d="M310.76,299.28c-17.43-1.43-111.71,46.45-125,71.07H286C268.56,334.3,279.54,304.7,310.76,299.28Z"/><rect class="m" x="144.65" y="351.36" width="114.6" height="11.49"/><polygon class="m" points="208.07 343.7 192.08 343.7 200.33 370.35 209.32 370.35 208.07 343.7"/><polygon class="n" points="268.79 343.7 252.8 343.7 261.05 370.35 270.04 370.35 268.79 343.7"/><polygon class="m" points="262.8 343.7 246.8 343.7 255.05 370.35 264.04 370.35 262.8 343.7"/><polygon class="n" points="182.94 343.7 166.95 343.7 173.95 370.35 182.94 370.35 182.94 343.7"/><polygon class="m" points="177.44 343.7 161.45 343.7 168.45 370.35 177.44 370.35 177.44 343.7"/><rect class="m" x="105.5" y="197.11" width="77.46" height="162.91"/><polygon class="n" points="261.92 197.11 177.47 197.11 177.47 360.02 269.42 360.02 261.92 197.11"/><polygon class="o" points="178.73 336.25 264.56 281.83 261.61 217.68 178.73 270.23 178.73 336.25"/><path class="m" d="M218.92,197.11c-6.24,32-4.29,72.46-4.29,72.46s24.34-40.74,36.43-72.46Z"/><path class="m" d="M260.25,351.56H186.67v-146h67.67Zm-71.58-2H259l-5.75-142H188.67Z"/><path class="d" d="M161.09,370.35H27.21s44.63-78.52,68.8-85.1S161.09,370.35,161.09,370.35Z"/><path class="l" d="M158.92,365.65c-17.46-34.86-45.49-60.87-63-58.26-16.66,2.49-17.77,30.1-3.21,63h68.35S160.31,368.61,158.92,365.65Z"/><path class="p" d="M105,285.94c0-1.54-1.86-2.79-4.16-2.79s-4.16,1.25-4.16,2.79,1.86,2.79,4.16,2.79S105,287.48,105,285.94Z"/><path class="l" d="M102.88,285.73c1.69-.42,0-2-3.83-1.87-39.32,1.34-45.52,20.52-45.52,20.52s9.76,16.78,25.82,13.47C79.35,317.85,91.24,288.62,102.88,285.73Z"/><path class="k" d="M218.24,154.36c29.74-1.75,51,6.27,51,6.27s4.66,17.74-12.58,36.48h-60Z"/><path class="j" d="M218.24,154.36,209.7,168.8c7.74,3.87,20,6.39,33.73,6.39a93.45,93.45,0,0,0,26-3.41,30.6,30.6,0,0,0-.18-11.15S248,152.61,218.24,154.36Z"/><path class="j" d="M222.69,58.18c15.66,19.76,26,47,25.24,50s-30.49,4.5-32.48,2.75-14.57-45.85-13.84-49.26C204.2,49.44,220.61,55.56,222.69,58.18Z"/><path class="k" d="M215.45,110.91a7.71,7.71,0,0,0,3.24.62c-.43-4.77-1.16-10.08-2.19-15.66-3.59-19.41-9.43-34.59-13.05-33.92-.68.12-1.24.81-1.67,2C203.36,73.69,213.65,109.34,215.45,110.91Z"/><path class="b" d="M202.05,60.22c1.49.55,3.15,2.92,4,5.13,5.62,15,13.62,28.92,20.26,29.67s7.45-10.77,1.83-25.73a79.76,79.76,0,0,0-4.53-9.94l-.9-1.17C220.7,55.67,205.62,50,202.05,60.22Z"/><path class="b" d="M232.19,183.31c-11.76,33.17-12.25,86.26-12.25,86.26s57.5-90.13,47.5-108.3C249.54,166,232.19,183.31,232.19,183.31Z"/><path class="g" d="M233,206.19c10.91-27.66,24.12-35.66,34.21-44.85-17.82,4.75-35,22-35,22-9,25.49-11.42,62.73-12,78.61C222.73,249.79,227.13,221.13,233,206.19Z"/><path class="b" d="M201.7,61.26C188.29,72.18,205,191.86,205,191.86h1.25S209,89.2,207.28,78.17C205.37,65.76,201.7,61.26,201.7,61.26Z"/><path class="g" d="M203.83,65.2a18.56,18.56,0,0,0-2.13-3.94C188.29,72.18,205,191.86,205,191.86h1.12C204.6,175.67,197.52,92.81,203.83,65.2Z"/><path class="i" d="M62.94,264l8.75,10.08c11.63-10.2,16.92-24.24,16.92-24.24L78.55,239S70.84,258,62.94,264Z"/><path class="i" d="M130.5,266.58l13-3C139.89,248.49,130,237.27,130,237.27l-14.28,3.84S128.83,256.77,130.5,266.58Z"/><path class="b" d="M205.53,189.61c-1-.39-4,2.94-4.38,6.64a.93.93,0,0,0,.91,1h6.18a.9.9,0,0,0,.84-1.26C208.16,193.92,206.33,189.93,205.53,189.61Z"/><path class="g" d="M224,60.14c-.14-.26-.26-.54-.4-.79l-.9-1.17c-2-2.51-17.07-8.17-20.64,2,1.49.55,3.15,2.92,4,5.13q.63,1.66,1.29,3.3C215.15,67.85,221.52,64.54,224,60.14Z"/><path class="g" d="M200.35,69.53a41.35,41.35,0,0,0,4.93-.29c-1.75-5.71-3.58-8-3.58-8-1.61,1.31-2.78,4.18-3.6,8.21Q199.21,69.53,200.35,69.53Z"/><path class="b" d="M253.42,102.66c12.33-19.16,32-32.15,32-32.15l1,.5s-25,43.07-31.49,42S253.42,102.66,253.42,102.66Z"/><path class="g" d="M253.17,104.24c-.11,0-1.3,0-1.41,0-1,3-1.37,9.09,3.48,9.92C261.75,115.24,286.41,71,286.41,71S258.11,104.94,253.17,104.24Z"/><path class="m" d="M212.51,283.49c-5.38-5.07-1.66-16.91,1.62-17.29S212.51,283.49,212.51,283.49Z"/><path class="m" d="M216.83,284c-6.2-4.09-4.38-16.21-1.16-17.11S216.83,284,216.83,284Z"/><path class="q" d="M219.61,283.1c-5.71-4.69-2.8-16.75.45-17.36S219.61,283.1,219.61,283.1Z"/><path class="q" d="M224.22,281.62c-6.46-3.66-5.46-15.88-2.31-17S224.22,281.62,224.22,281.62Z"/><path class="b" d="M205,196.28c-.45,2.71-.54,5.87.25,6s1.5-5.34,1.33-6.21A.8.8,0,0,0,205,196.28Z"/><path class="b" d="M202.66,196.4c-.45,2.71-.54,5.87.25,6s1.5-5.33,1.33-6.21A.8.8,0,0,0,202.66,196.4Z"/><path class="b" d="M207.49,196.44c-.45,2.72-.54,5.88.25,6s1.5-5.33,1.33-6.2A.8.8,0,0,0,207.49,196.44Z"/><path class="b" d="M207.65,197.11h6.43c.18-.12.31-.25.31-.43,0-1-5.19-.32-6.57-3.4C207.46,192.46,206.69,196.77,207.65,197.11Z"/><path class="r" d="M200.68,33.56l3.77,22.88c6.36,3.28,10.73,3.38,12.1-1.32L210.62,34.5Z"/><path class="b" d="M197.48,21.06c.71,14.88,4.34,25.29,24.57,30.48a45.86,45.86,0,0,0-1-36.28C216.45,5.54,197.13,13.63,197.48,21.06Z"/><path class="f" d="M214.2,9.22c8.16,5.32-14.83,15.9-12,33.42,0,0-12.59-12.44-7.35-24C200.77,5.68,208.58,5.55,214.2,9.22Z"/><path class="b" d="M202.57,34c-1.25-2-3.32-3-4.62-2.27s-1.33,3-.08,5.05,3.32,3,4.61,2.27S203.82,36,202.57,34Z"/><path class="r" d="M201.61,34.76c-.84-1.2-2.15-1.75-2.92-1.22s-.71,1.91.13,3.11,2.16,1.75,2.93,1.22S202.46,36,201.61,34.76Z"/><path class="b" d="M202.06,36.29c-.53-.74-1.34-1.08-1.82-.76s-.44,1.19.08,1.94,1.34,1.08,1.82.76S202.58,37,202.06,36.29Z"/><path class="s" d="M118.33,156.46c0-1.61-2.44-2.91-5.45-2.91s-5.46,1.3-5.46,2.91,2.44,2.92,5.46,2.92S118.33,158.07,118.33,156.46Z"/><path class="s" d="M82.2,193.78c1.45.7,3.69-.94,5-3.66s1.18-5.48-.28-6.18-3.68.95-5,3.66S80.75,193.09,82.2,193.78Z"/><path class="s" d="M79.25,260.64c.76-1.42-.31-3.75-2.38-5.2s-4.37-1.47-5.12-.05.31,3.75,2.38,5.2S78.5,262.06,79.25,260.64Z"/><path class="s" d="M135.68,250.11c-1.12-1.78-4-2.6-6.49-1.82s-3.55,2.85-2.43,4.63,4,2.6,6.49,1.82S136.8,251.89,135.68,250.11Z"/><path class="t" d="M212.34,28.12c-.36-1.56-1.24-2.69-2-2.52s-1,1.57-.65,3.14,1.24,2.69,2,2.52S212.7,29.69,212.34,28.12Z"/><path class="t" d="M223,25.61c-.37-1.56-1.24-2.69-2-2.52s-1,1.57-.64,3.13,1.23,2.7,2,2.53S223.35,27.18,223,25.61Z"/><path class="u" d="M224.46,21.28v.38c0,.67-.45,1.16-1,1.08L219,22.13a1.32,1.32,0,0,1-1-1.36v-.23Z"/><path class="r" d="M218.5,29.22s-.08.33-.17.83c1.76,1.77,4.14,5,.46,5.57a2.29,2.29,0,0,0,.14.27C225.46,35.8,219.85,30.24,218.5,29.22Z"/><path class="v" d="M222,39.1A8.48,8.48,0,0,1,222,40c0,3.2-2.37,5.16-4.7,4.87-2.13-.28-3.42-2.29-3.68-5.14Z"/><path class="w" d="M221.34,39.59a5.05,5.05,0,0,1,.06.67c0,2.44-2.06,2.31-4.09,2.06-1.85-.23-2.92-.17-3.19-2.35Z"/><path class="u" d="M213.73,20.92l.08.22a1.42,1.42,0,0,1-.82,1.7l-5.53,2.42a1.18,1.18,0,0,1-1.64-.62l-.08-.22Z"/><path class="x" d="M280.23,51l-9.82,3.63c.86,2.36,1,4.58,0,6.53,12.24,4.72,18.95,9.44,27.89,12.33l10.48-11.56S287.61,57.59,280.23,51Z"/><path class="y" d="M298.61,65.06l-.31,1.84v6.54l10.48-11.56a11.17,11.17,0,0,1,0-6.54Z"/><path class="e" d="M280.23,44.41l-9.82,10.17C282.67,64.13,298.3,66.9,298.3,66.9l10.48-11.56S287.61,51.05,280.23,44.41Z"/><polygon class="z" points="288.29 64.09 278.97 60.03 279.42 64.97 288.51 69.39 288.29 64.09"/><polygon class="aa" points="288.29 64.09 299.2 52.94 288.86 49.19 278.81 60.06 288.29 64.09"/><path class="ab" d="M293.91,55.21c-.26-1.6-2.67-2.46-5.39-1.92s-4.72,2.27-4.45,3.87,2.67,2.46,5.39,1.92S294.17,56.81,293.91,55.21Z"/><path class="b" d="M284.87,69.91c-1.25-5.66-4.16-8.82-5.32-8.62s3.66,5.2,2.09,11.29C280.84,75.68,285.34,72,284.87,69.91Z"/><path class="ac" d="M86.71,311.64l31.53,7.64-11,45.38L75.71,357Zm-6.35,40,14.72-13.93-6.71-19.13ZM103,360.2l-6.71-19.13L81.54,355Zm9.43-38.9L91,316.11l6.71,19.12Zm-6.83,36.44,8-33.06L98.87,338.61Z"/><g class="ad"><path class="ac" d="M305.86,336.86,300,326.75l4.32-2.62a11.44,11.44,0,0,1,3.6-1.42,5,5,0,0,1,5.74,3.05c1.92,3.33.78,6.2-3.45,8.62l-4.33,2.48m1.85-21.29a23.88,23.88,0,0,0-7.52,3c-1.71,1-3.38,2-5,2.95s-3.21,1.9-4.65,2.73l9.36,16.07-4.82,2.76,2.77,4.77,4.82-2.76,2.5,4.31-4.82,2.76,2.78,4.77,4.82-2.76,3.71,6.38,6-3.44-3.71-6.38,8.06-4.62-2.78-4.77-8.06,4.62-2.5-4.3,4.52-2.59q5.94-3.41,7.65-8.05a10.75,10.75,0,0,0-1.11-9.45q-4.29-7.37-12-6"/></g></svg>