<svg xmlns="http://www.w3.org/2000/svg" xmlns:xlink="http://www.w3.org/1999/xlink" viewBox="0 0 368.98 297.49"><defs><style>.a{fill:#e5e5e5;}.b{fill:url(#a);}.c{fill:#53b439;}.d{fill:none;stroke:#fbc83e;stroke-miterlimit:10;stroke-width:5px;}.e{fill:#fbc83e;}</style><linearGradient id="a" x1="25.97" y1="170.71" x2="304.06" y2="170.71" gradientUnits="userSpaceOnUse"><stop offset="0" stop-color="#eb4248"/><stop offset="0.37" stop-color="#f99424"/><stop offset="0.55" stop-color="#ffb815"/><stop offset="0.6" stop-color="#e9ba13"/><stop offset="0.71" stop-color="#b2c00f"/><stop offset="0.86" stop-color="#5aca07"/><stop offset="1" stop-color="#00d300"/></linearGradient></defs><path d="M135.85,184.6H163v5.54a72.73,72.73,0,0,0-5.66,7.48,54.48,54.48,0,0,0-4.45,8.21,55.81,55.81,0,0,0-3.09,9.17,62.92,62.92,0,0,0-1.59,10.37h-7.08a50.3,50.3,0,0,1,1.61-9.55,60,60,0,0,1,3.29-9.14,63.43,63.43,0,0,1,4.68-8.51,72.25,72.25,0,0,1,5.72-7.63H135.85Z"/><path d="M187.76,194.91a6.44,6.44,0,0,0-1.73-4,5.42,5.42,0,0,0-4.05-1.54,6.39,6.39,0,0,0-3,.67,6.78,6.78,0,0,0-2.16,1.78,9.13,9.13,0,0,0-1.41,2.53,20.08,20.08,0,0,0-.88,3,24.57,24.57,0,0,0-.48,3.12c-.1,1-.18,2-.26,2.88l.11.11a8.49,8.49,0,0,1,3.6-3.64,10.68,10.68,0,0,1,5-1.19,12.65,12.65,0,0,1,5.27,1,11.52,11.52,0,0,1,3.94,2.88,12.6,12.6,0,0,1,2.47,4.34,17,17,0,0,1,.85,5.42,15.84,15.84,0,0,1-.94,5.5,13,13,0,0,1-2.69,4.43,12.26,12.26,0,0,1-4.2,2.94,13.41,13.41,0,0,1-5.38,1.05,14,14,0,0,1-7.17-1.66,12,12,0,0,1-4.42-4.55,20.56,20.56,0,0,1-2.24-6.75,53.36,53.36,0,0,1-.62-8.36,36.84,36.84,0,0,1,.77-7.4,22.73,22.73,0,0,1,2.52-6.78,14.72,14.72,0,0,1,4.62-5,13.46,13.46,0,0,1,11.53-1.11,12.1,12.1,0,0,1,3.71,2.27,11.79,11.79,0,0,1,2.64,3.5,11.22,11.22,0,0,1,1.13,4.54Zm-6.24,25.74a6.25,6.25,0,0,0,3.07-.72,7.11,7.11,0,0,0,2.18-1.9,7.93,7.93,0,0,0,1.3-2.71,11.94,11.94,0,0,0,.43-3.17,11.67,11.67,0,0,0-.43-3.14,7.63,7.63,0,0,0-1.3-2.65,6.93,6.93,0,0,0-2.18-1.84,6.47,6.47,0,0,0-3.07-.7,6.82,6.82,0,0,0-3.08.67,6.61,6.61,0,0,0-2.24,1.81,7.65,7.65,0,0,0-1.36,2.65,11.36,11.36,0,0,0,0,6.4,8.22,8.22,0,0,0,1.36,2.71,6.37,6.37,0,0,0,5.32,2.59Z"/><path d="M206,215.06a6.43,6.43,0,0,0,1.72,4.05,5.42,5.42,0,0,0,4.06,1.54,5.93,5.93,0,0,0,4.16-1.42,9.56,9.56,0,0,0,2.41-3.56,18.45,18.45,0,0,0,1.16-4.54c.21-1.61.37-3.09.48-4.45l-.11-.12a8.94,8.94,0,0,1-3.57,3.64,10.07,10.07,0,0,1-5,1.25,12.82,12.82,0,0,1-5.13-1,11.46,11.46,0,0,1-3.93-2.76,12.42,12.42,0,0,1-2.55-4.31,16.67,16.67,0,0,1-.91-5.68,16.13,16.13,0,0,1,.91-5.51,12.62,12.62,0,0,1,2.66-4.42,11.93,11.93,0,0,1,4.31-2.94,15,15,0,0,1,5.78-1.05,13,13,0,0,1,6.91,1.66,11.77,11.77,0,0,1,4.28,4.54,21,21,0,0,1,2.18,6.79,52.2,52.2,0,0,1,.62,8.32,36.67,36.67,0,0,1-.76,7.4,22.69,22.69,0,0,1-2.52,6.79,14.78,14.78,0,0,1-4.62,5A13.36,13.36,0,0,1,207,225.37a12,12,0,0,1-3.72-2.27,11.76,11.76,0,0,1-2.63-3.49,11.11,11.11,0,0,1-1.13-4.55Zm6.17-25.74a6.57,6.57,0,0,0-3.06.67,6.15,6.15,0,0,0-2.15,1.83,8.42,8.42,0,0,0-1.28,2.68,11.74,11.74,0,0,0-.42,3.15,12.22,12.22,0,0,0,.42,3.23,8.38,8.38,0,0,0,1.28,2.71,6.53,6.53,0,0,0,2.15,1.89,6.13,6.13,0,0,0,3.06.73,6.84,6.84,0,0,0,3.18-.7,6.3,6.3,0,0,0,2.23-1.89,8.86,8.86,0,0,0,1.34-2.74,11.46,11.46,0,0,0,.45-3.23,11,11,0,0,0-.45-3.15,8.17,8.17,0,0,0-1.34-2.65,6.69,6.69,0,0,0-2.23-1.83A6.84,6.84,0,0,0,212.18,189.32Z"/><path d="M309,264.17a6.15,6.15,0,0,0,1.22-.11,3.88,3.88,0,0,0,1.06-.35,2.7,2.7,0,0,0,.81-.64,2,2,0,0,0,.45-1h1.61v12.45H312v-8.79h-3Z"/><path d="M322.51,261.86a3.46,3.46,0,0,1,2.12.61,4.1,4.1,0,0,1,1.28,1.57,6.69,6.69,0,0,1,.62,2.09,14.39,14.39,0,0,1,0,4.41,6.69,6.69,0,0,1-.62,2.09,4.1,4.1,0,0,1-1.28,1.57,4,4,0,0,1-4.24,0,4.1,4.1,0,0,1-1.28-1.57,7,7,0,0,1-.63-2.09,15.27,15.27,0,0,1,0-4.41,7,7,0,0,1,.63-2.09,4.1,4.1,0,0,1,1.28-1.57A3.44,3.44,0,0,1,322.51,261.86Zm0,11.26a1.53,1.53,0,0,0,1.07-.38,2.59,2.59,0,0,0,.69-1,6.68,6.68,0,0,0,.35-1.52,17.16,17.16,0,0,0,0-3.7,6.94,6.94,0,0,0-.35-1.52,2.63,2.63,0,0,0-.69-1,1.71,1.71,0,0,0-2.15,0,2.62,2.62,0,0,0-.68,1,6.41,6.41,0,0,0-.35,1.52,15.61,15.61,0,0,0,0,3.7,6.19,6.19,0,0,0,.35,1.52,2.58,2.58,0,0,0,.68,1A1.52,1.52,0,0,0,322.51,273.12Z"/><path d="M332.14,261.86a3.46,3.46,0,0,1,2.12.61,4.19,4.19,0,0,1,1.28,1.57,7,7,0,0,1,.62,2.09,14.39,14.39,0,0,1,0,4.41,7,7,0,0,1-.62,2.09,4.19,4.19,0,0,1-1.28,1.57,3.46,3.46,0,0,1-2.12.61,3.42,3.42,0,0,1-2.12-.61,4.21,4.21,0,0,1-1.29-1.57,7.27,7.27,0,0,1-.62-2.09,15.27,15.27,0,0,1,0-4.41,7.27,7.27,0,0,1,.62-2.09,4.21,4.21,0,0,1,1.29-1.57A3.42,3.42,0,0,1,332.14,261.86Zm0,11.26a1.54,1.54,0,0,0,1.07-.38,2.48,2.48,0,0,0,.68-1,6.17,6.17,0,0,0,.36-1.52,17.16,17.16,0,0,0,0-3.7,6.4,6.4,0,0,0-.36-1.52,2.52,2.52,0,0,0-.68-1,1.59,1.59,0,0,0-1.07-.38,1.61,1.61,0,0,0-1.09.38,2.71,2.71,0,0,0-.67,1,6.4,6.4,0,0,0-.36,1.52,17.16,17.16,0,0,0,0,3.7,6.17,6.17,0,0,0,.36,1.52,2.67,2.67,0,0,0,.67,1A1.56,1.56,0,0,0,332.14,273.12Z"/><path d="M341.77,261.86a3.46,3.46,0,0,1,2.12.61,4.29,4.29,0,0,1,1.28,1.57,7.27,7.27,0,0,1,.62,2.09,14.39,14.39,0,0,1,0,4.41,7.27,7.27,0,0,1-.62,2.09,4.29,4.29,0,0,1-1.28,1.57,4,4,0,0,1-4.25,0,4.29,4.29,0,0,1-1.28-1.57,7.27,7.27,0,0,1-.62-2.09,14.39,14.39,0,0,1,0-4.41,7.27,7.27,0,0,1,.62-2.09,4.29,4.29,0,0,1,1.28-1.57A3.47,3.47,0,0,1,341.77,261.86Zm0,11.26a1.54,1.54,0,0,0,1.07-.38,2.48,2.48,0,0,0,.68-1,6.17,6.17,0,0,0,.36-1.52,17.16,17.16,0,0,0,0-3.7,6.4,6.4,0,0,0-.36-1.52,2.52,2.52,0,0,0-.68-1,1.59,1.59,0,0,0-1.07-.38,1.61,1.61,0,0,0-1.09.38,2.71,2.71,0,0,0-.67,1,6.4,6.4,0,0,0-.36,1.52,17.16,17.16,0,0,0,0,3.7,6.17,6.17,0,0,0,.36,1.52,2.67,2.67,0,0,0,.67,1A1.56,1.56,0,0,0,341.77,273.12Z"/><path d="M42.78,261.86a3.46,3.46,0,0,1,2.12.61A4.19,4.19,0,0,1,46.18,264a7,7,0,0,1,.62,2.09,14.39,14.39,0,0,1,0,4.41,7,7,0,0,1-.62,2.09,4.19,4.19,0,0,1-1.28,1.57,4,4,0,0,1-4.25,0,4.29,4.29,0,0,1-1.28-1.57,7.27,7.27,0,0,1-.62-2.09,15.27,15.27,0,0,1,0-4.41,7.27,7.27,0,0,1,.62-2.09,4.29,4.29,0,0,1,1.28-1.57A3.47,3.47,0,0,1,42.78,261.86Zm0,11.26a1.54,1.54,0,0,0,1.07-.38,2.48,2.48,0,0,0,.68-1,6.17,6.17,0,0,0,.36-1.52,17.16,17.16,0,0,0,0-3.7,6.4,6.4,0,0,0-.36-1.52,2.52,2.52,0,0,0-.68-1,1.59,1.59,0,0,0-1.07-.38,1.61,1.61,0,0,0-1.09.38,2.71,2.71,0,0,0-.67,1,6.4,6.4,0,0,0-.36,1.52,17.16,17.16,0,0,0,0,3.7,6.17,6.17,0,0,0,.36,1.52,2.67,2.67,0,0,0,.67,1A1.56,1.56,0,0,0,42.78,273.12Z"/><path class="a" d="M184.49,124.52A125.46,125.46,0,0,1,309.94,250H343a158.52,158.52,0,0,0-317,0H59A125.46,125.46,0,0,1,184.49,124.52Z"/><path class="b" d="M279.41,167.94l24.65-22A158.52,158.52,0,0,0,26,250H59a125.45,125.45,0,0,1,220.37-82Z"/><circle class="c" cx="273.18" cy="174.57" r="4.58"/><rect class="d" x="2.5" y="2.5" width="363.98" height="292.49" rx="10.41"/><path class="e" d="M12.91,2.5H356.07a10.41,10.41,0,0,1,10.41,10.41V57a0,0,0,0,1,0,0H2.5a0,0,0,0,1,0,0V12.91A10.41,10.41,0,0,1,12.91,2.5Z"/><path d="M21.05,17.76h3.63v9.69l9.22-9.69h4.47l-8.27,8.5L39,39.05H34.43L27.64,28.88l-3,3v7.16H21.05Z"/><path d="M40.92,17.76h9.14a8.45,8.45,0,0,1,3.6.66,5.7,5.7,0,0,1,2.14,1.64,5.49,5.49,0,0,1,1,2.15,9,9,0,0,1,.28,2.14,8.79,8.79,0,0,1-.28,2.13,5.41,5.41,0,0,1-1,2.13,5.58,5.58,0,0,1-2.14,1.63,8.63,8.63,0,0,1-3.6.64H44.55v8.17H40.92Zm3.63,10.08h5.31a4.54,4.54,0,0,0,1.24-.18,3.51,3.51,0,0,0,1.18-.58A3,3,0,0,0,53.15,26a3.83,3.83,0,0,0,.33-1.69,4.37,4.37,0,0,0-.29-1.73,2.67,2.67,0,0,0-.78-1.08A2.79,2.79,0,0,0,51.28,21a6,6,0,0,0-1.37-.15H44.55Z"/><path d="M60.27,17.76H75.18V21H63.9v5.58H74.34v3H63.9v6.23H75.38v3.22H60.27Z"/><path d="M95.86,39.05H80.26v5.27H76.63V35.83H79a2.86,2.86,0,0,0,.43-.21,2.7,2.7,0,0,0,.93-.94,5.49,5.49,0,0,0,.6-1.43q.21-.82.36-1.8c.08-.66.15-1.26.22-1.81s.12-1.09.16-1.64.07-1.12.1-1.73,0-1.3.06-2.1,0-1.71,0-2.74,0-2.25,0-3.67H96.12V35.83h3.37v8.49H95.86ZM83.65,35.83H92.5V21H85.24c0,1.31-.06,2.48-.07,3.49s0,2-.06,2.82S85,29,85,29.79s-.19,1.68-.34,2.61c-.1.62-.26,1.32-.47,2.12A9.79,9.79,0,0,1,83.65,35.83Z"/><path d="M101.89,17.76h3.63V33.62l8.79-15.86h4.26V39.05H115v-16l-8.91,16h-4.15Z"/><path d="M121,17.76h16.77V21h-6.59V39.05h-3.62V21H121Z"/><path d="M140,17.76h3.62v8.47h9.43V17.76h3.63V39.05h-3.63v-9.6h-9.43v9.6H140Z"/><path d="M161.07,17.76h3.62v8.17h5.51a8.79,8.79,0,0,1,3.6.64A5.62,5.62,0,0,1,176,28.2a5.69,5.69,0,0,1,1,2.13,9.27,9.27,0,0,1,.27,2.13,9.57,9.57,0,0,1-.27,2.15,5.74,5.74,0,0,1-1,2.14,5.64,5.64,0,0,1-2.15,1.64,8.45,8.45,0,0,1-3.6.66h-9.13ZM164.69,36h5.37a5.9,5.9,0,0,0,1.36-.15,2.71,2.71,0,0,0,1.13-.55,2.82,2.82,0,0,0,.79-1.09,4.53,4.53,0,0,0,.29-1.73,3.74,3.74,0,0,0-.34-1.68,2.93,2.93,0,0,0-.87-1.08,3.56,3.56,0,0,0-1.17-.58A4.61,4.61,0,0,0,170,29h-5.31Zm15.72-18.25H184V39.05h-3.63Z"/><path d="M188.39,17.76H192V33.62l8.79-15.86h4.26V39.05h-3.63v-16l-8.9,16h-4.15Zm5.34-6.38a2.39,2.39,0,0,0,1.09,1.76,3.85,3.85,0,0,0,2,.51,3.17,3.17,0,0,0,1.9-.57,2.59,2.59,0,0,0,1-1.7h1.66a4.49,4.49,0,0,1-1.53,3.16,5,5,0,0,1-3.29,1.05,4.57,4.57,0,0,1-3.19-1.08,4.5,4.5,0,0,1-1.36-3.13Z"/><path d="M217.48,17.76h9.14a8.45,8.45,0,0,1,3.6.66,5.62,5.62,0,0,1,2.14,1.64,5.49,5.49,0,0,1,1,2.15,9,9,0,0,1,.28,2.14,8.79,8.79,0,0,1-.28,2.13,5.41,5.41,0,0,1-1,2.13,5.51,5.51,0,0,1-2.14,1.63,8.63,8.63,0,0,1-3.6.64h-5.51v8.17h-3.63Zm3.63,10.08h5.31a4.66,4.66,0,0,0,1.25-.18,3.56,3.56,0,0,0,1.17-.58,3,3,0,0,0,.87-1.07,3.83,3.83,0,0,0,.33-1.69,4.37,4.37,0,0,0-.29-1.73,2.67,2.67,0,0,0-.78-1.08,2.79,2.79,0,0,0-1.13-.56,6,6,0,0,0-1.36-.15h-5.37Z"/><path d="M236.83,17.76h14.91V21H240.46v5.58H250.9v3H240.46v6.23h11.48v3.22H236.83Z"/><path d="M255,17.76h3.62V33.62l8.79-15.86h4.27V39.05h-3.63v-16l-8.9,16H255Zm5.34-6.38a2.38,2.38,0,0,0,1.08,1.76,3.89,3.89,0,0,0,2,.51,3.19,3.19,0,0,0,1.9-.57,2.63,2.63,0,0,0,1-1.7H268a4.44,4.44,0,0,1-1.52,3.16,5,5,0,0,1-3.29,1.05A4.55,4.55,0,0,1,260,14.51a4.51,4.51,0,0,1-1.37-3.13Z"/><path d="M274.08,17.76h16.76V21h-6.58V39.05h-3.63V21h-6.55Z"/><path d="M293.16,17.76h3.63V33.62l8.79-15.86h4.26V39.05h-3.63v-16l-8.9,16h-4.15Z"/><path d="M314.1,17.76h3.63v8.47h9.43V17.76h3.62V39.05h-3.62v-9.6h-9.43v9.6H314.1Z"/><path d="M335.13,17.76h14.3V21H338.76V39.05h-3.63Z"/></svg>