<svg xmlns="http://www.w3.org/2000/svg" xmlns:xlink="http://www.w3.org/1999/xlink" viewBox="0 0 408.2 326.94"><defs><style>.a,.d{fill:#fff;}.b{fill:#fbc83e;}.c{mask:url(#a);}.d,.e,.g{stroke:#262626;}.e,.g{fill:none;}.f{fill:#4bd0a0;fill-opacity:0.1;}.g{opacity:0.7;isolation:isolate;}</style><mask id="a" x="-87.73" y="-3.83" width="550" height="320" maskUnits="userSpaceOnUse"><rect class="a" x="-87.73" y="-3.83" width="550" height="320"/></mask></defs><circle class="b" cx="187.41" cy="163.47" r="163.47"/><g class="c"><path class="d" d="M76.43,290.41,66.67,254l139.57-37.4c1.68,6.91,5.65,21.11,9.87,36.86,3.22,12,14.53,22.76,34.52,17.41S130.4,303.56,110.86,308.8,80.71,306.4,76.43,290.41Z"/><path class="d" d="M131.9,277.67c4,17.39-5.07,26.76-21.06,31.05l145-38.86c15.58-4.17,15.72-21.15,13.85-29.11L208.3,11.64c-28.92,7.49-91.47,24.51-111.1,29.77C77.74,46.62,74.12,62,77.25,73.7,93.78,134.44,127.86,260.28,131.9,277.67Z"/><path class="d" d="M271.84,21.41l9.87,36.85L142.14,95.66c-1.68-6.9-5.65-21.11-9.87-36.86-3.22-12-14.53-22.76-34.52-17.41S227,6.13,241.92,2.5,268.62,9.42,271.84,21.41Z"/><rect class="d" x="230.95" y="174.35" width="122.21" height="101.98" rx="9.5" transform="translate(-1.2 449.13) rotate(-75)"/><path class="e" d="M281.22,171.64l48,12.85A11,11,0,0,1,337,198h0a11,11,0,0,1-13.46,7.77l-48-12.85a11,11,0,0,1-7.78-13.46h0A11,11,0,0,1,281.22,171.64Z"/><rect class="e" x="261.96" y="197.15" width="55.09" height="79" transform="translate(-14.01 455.04) rotate(-75)"/><line class="e" x1="277.02" y1="205.22" x2="262.74" y2="258.51"/><line class="e" x1="296.56" y1="210.46" x2="282.28" y2="263.75"/><line class="e" x1="316.1" y1="215.69" x2="301.82" y2="268.98"/><line class="e" x1="330.51" y1="238.16" x2="253.24" y2="217.45"/><line class="e" x1="306.21" y1="250.69" x2="248.48" y2="235.22"/><rect class="f" x="238.9" y="188.49" width="123.21" height="102.98" rx="10" transform="translate(-9.08 468.14) rotate(-75)"/><line class="e" x1="134.64" y1="205.68" x2="183.48" y2="192.59"/><line class="e" x1="142.25" y1="234.1" x2="191.1" y2="221.01"/><line class="e" x1="138.23" y1="219.08" x2="187.08" y2="205.99"/><line class="e" x1="146.06" y1="248.31" x2="172.7" y2="241.17"/><line class="g" x1="183.59" y1="164.84" x2="212.2" y2="115.29"/><circle class="e" cx="182.84" cy="131.37" r="7.78"/><circle class="e" cx="213.25" cy="148.93" r="7.78"/><path class="b" d="M381,53.87l-14.52,1.35a2,2,0,0,0-1.45.84L356.58,68l-1.34-14.52A2,2,0,0,0,354.4,52l-11.9-8.43L357,42.21a2,2,0,0,0,1.45-.83l8.43-11.9L368.24,44a2,2,0,0,0,.84,1.44Z"/><path class="b" d="M408.2,135.64l-11.29,1.05a2,2,0,0,0-1.45.84l-6.55,9.26-1.05-11.3A2,2,0,0,0,387,134l-9.26-6.55,11.3-1a2,2,0,0,0,1.45-.84l6.55-9.25,1.05,11.29a2,2,0,0,0,.84,1.45Z"/><path class="d" d="M35.57,213.31,30.4,217a2,2,0,0,0-.83,1.45l-.59,6.3-3.65-5.16a2,2,0,0,0-1.45-.84l-6.3-.58,5.16-3.66a2,2,0,0,0,.84-1.45l.58-6.3,3.66,5.17a2,2,0,0,0,1.45.83Z"/><path class="d" d="M336.42,92.36l-6.56.61a2,2,0,0,0-1.45.83l-3.81,5.38L324,92.62a2,2,0,0,0-.84-1.45l-5.38-3.81,6.57-.61a2,2,0,0,0,1.45-.84l3.81-5.38.61,6.57a2,2,0,0,0,.83,1.44Z"/><path class="d" d="M118.2,143.74a38.37,38.37,0,0,1-27.4,46.81c-20.59,5.51-41.69-6.51-47.13-26.84a38.58,38.58,0,0,1,74.53-20Z"/><path class="d" d="M112.89,145.25a33.07,33.07,0,1,1-40.37-22.93A32.84,32.84,0,0,1,112.89,145.25Z"/><path class="e" d="M78.3,170.24l-2.36-8.53m-1.18-4.27-4.39-15.87,9.06-2.51c2.85-.79,9-.73,10.81,5.83,1.61,5.8-3.51,9.24-6.42,10Zm0,0-4.28,1.18m4.28-1.18,1.18,4.27m0,0-4.28,1.18,12.48-3.45"/><ellipse class="f" cx="95.57" cy="162.18" rx="39.08" ry="38.62" transform="translate(-38.72 30.26) rotate(-15)"/><line class="e" x1="29.65" y1="128.89" x2="5.76" y2="115.1"/><line class="e" x1="27.59" y1="141.73" y2="141.73"/><line class="e" x1="38.48" y1="120.56" x2="24.69" y2="96.67"/></g></svg>