<svg xmlns="http://www.w3.org/2000/svg" xmlns:xlink="http://www.w3.org/1999/xlink" viewBox="0 0 315.53 215.39"><defs><style>.a{fill:#0d0d0d;}.b{fill:#45af00;}.c{fill:url(#a);}</style><linearGradient id="a" x1="43.73" y1="61.5" x2="273.01" y2="61.5" gradientUnits="userSpaceOnUse"><stop offset="0" stop-color="#e32400"/><stop offset="0.52" stop-color="#ffc000"/><stop offset="0.98" stop-color="#22c000"/></linearGradient></defs><path class="a" d="M1.22,179.62H9.6v1H2.38v4.15H7a3.58,3.58,0,0,1,2.65.94,3.91,3.91,0,0,1,0,5.13,3.58,3.58,0,0,1-2.65.94H1.22ZM6.7,190.77a2.79,2.79,0,0,0,2-.67,2.75,2.75,0,0,0,0-3.69,2.79,2.79,0,0,0-2-.67H2.38v5Z" transform="translate(-1.22)"/><path class="a" d="M14.82,192a4.19,4.19,0,0,1-1.14-.14,2.66,2.66,0,0,1-.94-.46,2.38,2.38,0,0,1-.63-.8,2.68,2.68,0,0,1-.23-1.15,2.25,2.25,0,0,1,.41-1.43,2.5,2.5,0,0,1,1.08-.79,6.53,6.53,0,0,1,1.51-.39l1.71-.21.59-.08a1.21,1.21,0,0,0,.43-.18.87.87,0,0,0,.27-.35,1.57,1.57,0,0,0,.09-.58,1.93,1.93,0,0,0-.18-.89,1.38,1.38,0,0,0-.49-.55,2,2,0,0,0-.73-.28,5.11,5.11,0,0,0-.9-.08,2.64,2.64,0,0,0-1.66.49,1.88,1.88,0,0,0-.68,1.55H12.26a2.79,2.79,0,0,1,1.06-2.24,4.1,4.1,0,0,1,2.49-.7,6.6,6.6,0,0,1,1.16.11,2.61,2.61,0,0,1,1,.42,2.18,2.18,0,0,1,.75.86,3.08,3.08,0,0,1,.29,1.43v4.66a.57.57,0,0,0,.63.65.86.86,0,0,0,.34-.07v.9l-.33.05-.37,0a1.65,1.65,0,0,1-.65-.11,1,1,0,0,1-.39-.32,1.06,1.06,0,0,1-.17-.48,4,4,0,0,1-.05-.62h0a6.75,6.75,0,0,1-.59.75,3.17,3.17,0,0,1-.66.56,3.21,3.21,0,0,1-.84.34A5.21,5.21,0,0,1,14.82,192Zm.09-.9a3.77,3.77,0,0,0,1.17-.18,2.93,2.93,0,0,0,1-.55,2.63,2.63,0,0,0,.91-2V187h0a.65.65,0,0,1-.4.27l-.51.12c-.45.08-.92.15-1.4.21a7.14,7.14,0,0,0-1.32.28,2.53,2.53,0,0,0-1,.54,1.28,1.28,0,0,0-.39,1,1.53,1.53,0,0,0,.17.72,1.75,1.75,0,0,0,.43.55,1.79,1.79,0,0,0,.62.34A2.25,2.25,0,0,0,14.91,191.09Z" transform="translate(-1.22)"/><path class="a" d="M21.16,183h1.08v3.73h5V183h1.07v8.78H27.22v-4.15h-5v4.15H21.16Z" transform="translate(-1.22)"/><path class="a" d="M30.31,183h1.07v4.51L36.24,183h1.43L34,186.42l3.94,5.34H36.55l-3.38-4.61-1.79,1.65v3H30.31Z" transform="translate(-1.22)"/><path class="a" d="M38.76,183h1.07v7.52L44.68,183H46v8.78H44.93v-7.52l-4.84,7.52H38.76Z" transform="translate(-1.22)"/><path class="a" d="M56.46,192a4.16,4.16,0,0,1-1.78-.36,3.69,3.69,0,0,1-1.3-1,4.26,4.26,0,0,1-.8-1.47,6,6,0,0,1,0-3.57,4.31,4.31,0,0,1,.8-1.48,3.83,3.83,0,0,1,1.3-1,4,4,0,0,1,1.78-.37,3.78,3.78,0,0,1,2.38.75A3.18,3.18,0,0,1,60,185.74H58.94a3,3,0,0,0-.82-1.55,2.33,2.33,0,0,0-1.66-.56,2.81,2.81,0,0,0-1.35.32,3.13,3.13,0,0,0-1,.85,3.93,3.93,0,0,0-.58,1.2,4.8,4.8,0,0,0-.19,1.36,4.87,4.87,0,0,0,.19,1.37,4,4,0,0,0,.58,1.19,3,3,0,0,0,1,.85,2.7,2.7,0,0,0,1.35.32,2.44,2.44,0,0,0,.93-.18,2.48,2.48,0,0,0,.78-.52,2.63,2.63,0,0,0,.56-.79,3,3,0,0,0,.28-1h1.07a4.07,4.07,0,0,1-1.18,2.5A3.4,3.4,0,0,1,56.46,192Z" transform="translate(-1.22)"/><path class="a" d="M70.09,192a4,4,0,0,1-2-.44,3.4,3.4,0,0,1-1.24-1.17,5,5,0,0,1-.65-1.68,10.72,10.72,0,0,1-.18-2c0-.41,0-.85,0-1.31a10.11,10.11,0,0,1,.18-1.36,8.7,8.7,0,0,1,.33-1.29,4.48,4.48,0,0,1,.53-1.1,3.46,3.46,0,0,1,1.42-1.31,6,6,0,0,1,2.09-.48l.82-.05a3.42,3.42,0,0,0,.92-.13.65.65,0,0,0,.34-.33H73.9a1.38,1.38,0,0,1-.69,1.07,4.53,4.53,0,0,1-1.67.34l-1.3.09A3,3,0,0,0,68,181.93a6.19,6.19,0,0,0-1.08,3H67a3.48,3.48,0,0,1,1.3-1.42,3.61,3.61,0,0,1,1.94-.54,4.16,4.16,0,0,1,1.61.31,3.55,3.55,0,0,1,1.25.88,4,4,0,0,1,.81,1.42,5.44,5.44,0,0,1,.29,1.87,5.5,5.5,0,0,1-.29,1.86,3.94,3.94,0,0,1-.82,1.43,3.64,3.64,0,0,1-1.28.92A4.11,4.11,0,0,1,70.09,192Zm0-.9a2.73,2.73,0,0,0,2.15-1,3.53,3.53,0,0,0,.62-1.15,4.64,4.64,0,0,0,.22-1.48,4.52,4.52,0,0,0-.22-1.46,3.28,3.28,0,0,0-.62-1.12,3,3,0,0,0-.93-.73,2.57,2.57,0,0,0-1.17-.26,3,3,0,0,0-1.24.25,2.82,2.82,0,0,0-1,.72,3.28,3.28,0,0,0-.62,1.12,4.56,4.56,0,0,0-.22,1.48,4.64,4.64,0,0,0,.22,1.48,3.53,3.53,0,0,0,.62,1.15,2.73,2.73,0,0,0,2.15,1Z" transform="translate(-1.22)"/><path class="a" d="M79.46,192a4.19,4.19,0,0,1-1.78-.36,3.69,3.69,0,0,1-1.3-1,4.26,4.26,0,0,1-.8-1.47,6,6,0,0,1,0-3.57,4.31,4.31,0,0,1,.8-1.48,3.83,3.83,0,0,1,1.3-1,4,4,0,0,1,1.78-.37,4,4,0,0,1,1.77.37,3.83,3.83,0,0,1,1.3,1,4.15,4.15,0,0,1,.8,1.48,6,6,0,0,1,0,3.57,4.1,4.1,0,0,1-.8,1.47,3.69,3.69,0,0,1-1.3,1A4.11,4.11,0,0,1,79.46,192Zm0-.9a2.66,2.66,0,0,0,1.34-.32,2.81,2.81,0,0,0,1-.85,3.77,3.77,0,0,0,.58-1.19,4.87,4.87,0,0,0,.19-1.37,4.8,4.8,0,0,0-.19-1.36,3.72,3.72,0,0,0-.58-1.2,2.92,2.92,0,0,0-1-.85,2.77,2.77,0,0,0-1.34-.32,2.81,2.81,0,0,0-1.35.32,3.13,3.13,0,0,0-1,.85,3.91,3.91,0,0,0-.57,1.2,4.48,4.48,0,0,0-.2,1.36,4.54,4.54,0,0,0,.2,1.37,4,4,0,0,0,.57,1.19,3,3,0,0,0,1,.85A2.7,2.7,0,0,0,79.46,191.09Z" transform="translate(-1.22)"/><path class="a" d="M85.1,191.84a.75.75,0,0,1-.2,0l-.25,0-.24,0-.16,0v-.94a3,3,0,0,0,.41.09l.46,0a1.72,1.72,0,0,0,.37,0,.91.91,0,0,0,.41-.28,2.25,2.25,0,0,0,.39-.72,6.8,6.8,0,0,0,.32-1.37c.09-.59.17-1.32.22-2.21s.09-2,.09-3.28h5.87v8.78H91.71v-7.87H88c0,1.27,0,2.34-.11,3.23a16.34,16.34,0,0,1-.32,2.21,5.73,5.73,0,0,1-.47,1.39,2.57,2.57,0,0,1-.59.76,1.51,1.51,0,0,1-.66.3A4.25,4.25,0,0,1,85.1,191.84Z" transform="translate(-1.22)"/><path class="a" d="M94.88,183H96v3.52h3.14a2.93,2.93,0,0,1,2,.68,2.51,2.51,0,0,1,.74,1.92,2.58,2.58,0,0,1-.74,2,2.85,2.85,0,0,1-2,.71H94.88Zm4,7.88a2.1,2.1,0,0,0,1.43-.45,1.61,1.61,0,0,0,.52-1.31,1.54,1.54,0,0,0-.52-1.28,2.2,2.2,0,0,0-1.43-.42H96v3.46Z" transform="translate(-1.22)"/><path class="a" d="M103.29,183h1.07v7.88h4V183h1.07v7.88h4V183h1.08v8.78H103.29Z" transform="translate(-1.22)"/><path class="a" d="M120.32,192a4.15,4.15,0,0,1-1.77-.36,3.69,3.69,0,0,1-1.3-1,4.26,4.26,0,0,1-.8-1.47,6,6,0,0,1,0-3.57,4.31,4.31,0,0,1,.8-1.48,3.83,3.83,0,0,1,1.3-1,4.44,4.44,0,0,1,3.55,0,3.83,3.83,0,0,1,1.3,1,4.31,4.31,0,0,1,.8,1.48,6,6,0,0,1,0,3.57,4.26,4.26,0,0,1-.8,1.47,3.69,3.69,0,0,1-1.3,1A4.16,4.16,0,0,1,120.32,192Zm0-.9a2.7,2.7,0,0,0,1.35-.32,3,3,0,0,0,1-.85,4,4,0,0,0,.58-1.19,4.87,4.87,0,0,0,.19-1.37,4.8,4.8,0,0,0-.19-1.36,3.93,3.93,0,0,0-.58-1.2,3.13,3.13,0,0,0-1-.85,2.81,2.81,0,0,0-1.35-.32A2.77,2.77,0,0,0,119,184a3.13,3.13,0,0,0-1,.85,3.93,3.93,0,0,0-.58,1.2,4.8,4.8,0,0,0-.19,1.36,4.87,4.87,0,0,0,.19,1.37,4,4,0,0,0,.58,1.19,3,3,0,0,0,1,.85A2.66,2.66,0,0,0,120.32,191.09Z" transform="translate(-1.22)"/><path class="a" d="M126.05,183h1.07v7.52L132,183h1.33v8.78h-1.08v-7.52l-4.84,7.52h-1.33Zm1.92-1.86a2.67,2.67,0,0,1-.73-1.64h.67a1.5,1.5,0,0,0,.53,1,1.85,1.85,0,0,0,1.22.38,1.93,1.93,0,0,0,1.2-.37,1.68,1.68,0,0,0,.6-1h.66a2.77,2.77,0,0,1-.8,1.64,2.36,2.36,0,0,1-1.68.57A2.33,2.33,0,0,1,128,181.12Z" transform="translate(-1.22)"/><path class="a" d="M140,183h4a3.5,3.5,0,0,1,2.07.53,1.78,1.78,0,0,1,.73,1.55,2.08,2.08,0,0,1-.4,1.31,2,2,0,0,1-1.11.73v0a2.35,2.35,0,0,1,1.36.68,2.1,2.1,0,0,1,.49,1.5,2.19,2.19,0,0,1-.79,1.82,3.76,3.76,0,0,1-2.35.63h-4Zm3.89,3.8a2.1,2.1,0,0,0,1.39-.4,1.3,1.3,0,0,0,.46-1c0-1-.61-1.44-1.85-1.44H141.1v2.89Zm0,4.08a2.68,2.68,0,0,0,1.66-.42,1.48,1.48,0,0,0,.53-1.25,1.37,1.37,0,0,0-.53-1.17,2.69,2.69,0,0,0-1.66-.41H141.1v3.25Z" transform="translate(-1.22)"/><path class="a" d="M152.35,192a4.13,4.13,0,0,1-1.8-.36,3.24,3.24,0,0,1-1.22-1,4.37,4.37,0,0,1-.71-1.47,6.85,6.85,0,0,1-.23-1.79,6.51,6.51,0,0,1,.23-1.7,4.56,4.56,0,0,1,.71-1.49,3.57,3.57,0,0,1,1.22-1.05,3.74,3.74,0,0,1,1.8-.4,3.58,3.58,0,0,1,1.8.42,3.65,3.65,0,0,1,1.22,1.12,4.49,4.49,0,0,1,.67,1.58,6.87,6.87,0,0,1,.17,1.81h-6.75a5.08,5.08,0,0,0,.16,1.2,3.28,3.28,0,0,0,.52,1.1,2.92,2.92,0,0,0,.9.81,2.5,2.5,0,0,0,1.31.32,2.65,2.65,0,0,0,1.84-.6,3.25,3.25,0,0,0,.92-1.62h1.07a4.39,4.39,0,0,1-1.25,2.31A3.76,3.76,0,0,1,152.35,192Zm2.79-5.23a3.79,3.79,0,0,0-.21-1.17,3.34,3.34,0,0,0-.55-1,2.83,2.83,0,0,0-.87-.7,2.74,2.74,0,0,0-2.33,0,2.83,2.83,0,0,0-.87.7,3.38,3.38,0,0,0-.57,1,5.25,5.25,0,0,0-.28,1.17Z" transform="translate(-1.22)"/><path class="a" d="M157.66,183h1v1.67h0a2.9,2.9,0,0,1,1.21-1.42,3.7,3.7,0,0,1,1.91-.5,3.86,3.86,0,0,1,1.75.37,3.58,3.58,0,0,1,1.23,1,4.22,4.22,0,0,1,.73,1.47,6.54,6.54,0,0,1,.24,1.78,6.45,6.45,0,0,1-.24,1.79,4.4,4.4,0,0,1-.73,1.47,3.53,3.53,0,0,1-1.23,1,4,4,0,0,1-1.75.36,4.49,4.49,0,0,1-1-.11,3.33,3.33,0,0,1-.87-.36,3,3,0,0,1-.72-.6,2.53,2.53,0,0,1-.49-.83h0V195h-1.07Zm4.14,8.11a2.47,2.47,0,0,0,1.31-.33,2.81,2.81,0,0,0,.9-.85,3.81,3.81,0,0,0,.51-1.2,5.78,5.78,0,0,0,0-2.7,3.86,3.86,0,0,0-.51-1.19,2.84,2.84,0,0,0-.9-.86,2.47,2.47,0,0,0-1.31-.33,3.09,3.09,0,0,0-1.48.31,2.59,2.59,0,0,0-.95.81,3.45,3.45,0,0,0-.5,1.19,7.2,7.2,0,0,0-.14,1.42,5.66,5.66,0,0,0,.16,1.35,3.44,3.44,0,0,0,.53,1.2,2.79,2.79,0,0,0,1,.85A2.88,2.88,0,0,0,161.8,191.09Z" transform="translate(-1.22)"/><path class="a" d="M171.12,192a4.19,4.19,0,0,1-1.78-.36,3.78,3.78,0,0,1-1.3-1,4.44,4.44,0,0,1-.8-1.47,6,6,0,0,1,0-3.57,4.49,4.49,0,0,1,.8-1.48,3.93,3.93,0,0,1,1.3-1,4.47,4.47,0,0,1,3.56,0,3.93,3.93,0,0,1,1.3,1,4.49,4.49,0,0,1,.8,1.48,6,6,0,0,1,0,3.57,4.44,4.44,0,0,1-.8,1.47,3.78,3.78,0,0,1-1.3,1A4.19,4.19,0,0,1,171.12,192Zm0-.9a2.63,2.63,0,0,0,1.34-.32,2.81,2.81,0,0,0,1-.85,3.77,3.77,0,0,0,.58-1.19,4.88,4.88,0,0,0,.2-1.37A4.81,4.81,0,0,0,174,186a3.72,3.72,0,0,0-.58-1.2,2.92,2.92,0,0,0-1-.85,3,3,0,0,0-2.68,0,2.92,2.92,0,0,0-1,.85,3.72,3.72,0,0,0-.58,1.2,4.81,4.81,0,0,0-.2,1.36,4.88,4.88,0,0,0,.2,1.37,3.77,3.77,0,0,0,.58,1.19,2.81,2.81,0,0,0,1,.85A2.63,2.63,0,0,0,171.12,191.09Z" transform="translate(-1.22)"/><path class="a" d="M179.09,188.2a2.78,2.78,0,0,1-1.86-.77,2.47,2.47,0,0,1-.69-1.83,3,3,0,0,1,.19-1.06,2.19,2.19,0,0,1,.53-.82,2.3,2.3,0,0,1,.83-.54,3,3,0,0,1,1.11-.2h4.25v8.78h-1.08v-3.49H180.3l-3,3.49H175.9Zm3.28-.83v-3.48h-2.92a1.83,1.83,0,0,0-1.36.48,1.7,1.7,0,0,0-.48,1.25,1.74,1.74,0,0,0,.48,1.26,1.8,1.8,0,0,0,1.36.49Z" transform="translate(-1.22)"/><path class="a" d="M187.68,183.89h-3.25V183H192v.91h-3.25v7.87h-1.07Z" transform="translate(-1.22)"/><path class="a" d="M193,183h1.07v3.73h5V183h1.07v8.78H199v-4.15h-5v4.15H193Z" transform="translate(-1.22)"/><path class="a" d="M205.83,192a4.15,4.15,0,0,1-1.77-.36,3.69,3.69,0,0,1-1.3-1,4.26,4.26,0,0,1-.8-1.47,6,6,0,0,1,0-3.57,4.31,4.31,0,0,1,.8-1.48,3.83,3.83,0,0,1,1.3-1,4,4,0,0,1,1.77-.37,4,4,0,0,1,1.78.37,3.83,3.83,0,0,1,1.3,1,4.31,4.31,0,0,1,.8,1.48,6,6,0,0,1,0,3.57,4.26,4.26,0,0,1-.8,1.47,3.69,3.69,0,0,1-1.3,1A4.19,4.19,0,0,1,205.83,192Zm0-.9a2.7,2.7,0,0,0,1.35-.32,3,3,0,0,0,1-.85,4.25,4.25,0,0,0,.58-1.19,4.87,4.87,0,0,0,.19-1.37,4.8,4.8,0,0,0-.19-1.36,4.18,4.18,0,0,0-.58-1.2,3.13,3.13,0,0,0-1-.85,2.81,2.81,0,0,0-1.35-.32,2.77,2.77,0,0,0-1.34.32,3.13,3.13,0,0,0-1,.85A3.93,3.93,0,0,0,203,186a4.8,4.8,0,0,0-.19,1.36,4.87,4.87,0,0,0,.19,1.37,4,4,0,0,0,.58,1.19,3,3,0,0,0,1,.85A2.66,2.66,0,0,0,205.83,191.09Z" transform="translate(-1.22)"/><path class="a" d="M215.29,192a4.16,4.16,0,0,1-1.78-.36,3.69,3.69,0,0,1-1.3-1,4.26,4.26,0,0,1-.8-1.47,6,6,0,0,1,0-3.57,4.31,4.31,0,0,1,.8-1.48,3.83,3.83,0,0,1,1.3-1,4,4,0,0,1,1.78-.37,3.78,3.78,0,0,1,2.38.75,3.18,3.18,0,0,1,1.17,2.26h-1.07a3,3,0,0,0-.82-1.55,2.33,2.33,0,0,0-1.66-.56,2.81,2.81,0,0,0-1.35.32,3.13,3.13,0,0,0-1,.85,3.93,3.93,0,0,0-.58,1.2,4.8,4.8,0,0,0-.19,1.36,4.87,4.87,0,0,0,.19,1.37,4,4,0,0,0,.58,1.19,3,3,0,0,0,1,.85,2.7,2.7,0,0,0,1.35.32,2.44,2.44,0,0,0,.93-.18,2.48,2.48,0,0,0,.78-.52,2.63,2.63,0,0,0,.56-.79,3,3,0,0,0,.28-1h1.07a4.07,4.07,0,0,1-1.18,2.5A3.4,3.4,0,0,1,215.29,192Z" transform="translate(-1.22)"/><path class="a" d="M222.61,183.89h-3.24V183h7.56v.91h-3.25v7.87h-1.07Z" transform="translate(-1.22)"/><path class="a" d="M228,183h1.07v3.52h3.15a2.9,2.9,0,0,1,2,.68,2.48,2.48,0,0,1,.75,1.92,2.55,2.55,0,0,1-.75,2,2.83,2.83,0,0,1-2,.71H228Zm4,7.88a2.14,2.14,0,0,0,1.44-.45,1.64,1.64,0,0,0,.52-1.31,1.57,1.57,0,0,0-.52-1.28,2.24,2.24,0,0,0-1.44-.42h-2.89v3.46Z" transform="translate(-1.22)"/><path class="a" d="M243.47,192a3.78,3.78,0,0,1-1.63-.34,3.69,3.69,0,0,1-1.25-.92,4.37,4.37,0,0,1-.82-1.39,5.9,5.9,0,0,1-.33-1.7h-1.95v4.12h-1.07V183h1.07v3.76h2a5,5,0,0,1,.4-1.56,4.45,4.45,0,0,1,.82-1.28,3.75,3.75,0,0,1,1.21-.86,3.71,3.71,0,0,1,1.56-.31,3.67,3.67,0,0,1,1.68.37,3.82,3.82,0,0,1,1.27,1,4.49,4.49,0,0,1,.8,1.48,5.83,5.83,0,0,1,0,3.57,4.44,4.44,0,0,1-.8,1.47,3.67,3.67,0,0,1-1.27,1A3.8,3.8,0,0,1,243.47,192Zm0-.9a2.38,2.38,0,0,0,1.25-.32,3,3,0,0,0,.94-.85,4,4,0,0,0,.57-1.19,4.88,4.88,0,0,0,.2-1.37,4.81,4.81,0,0,0-.2-1.36,3.91,3.91,0,0,0-.57-1.2,3.18,3.18,0,0,0-.94-.85,2.47,2.47,0,0,0-1.25-.32,2.5,2.5,0,0,0-1.25.32,3,3,0,0,0-.93.85,3.72,3.72,0,0,0-.58,1.2,4.81,4.81,0,0,0-.2,1.36,4.88,4.88,0,0,0,.2,1.37,3.77,3.77,0,0,0,.58,1.19,2.91,2.91,0,0,0,.93.85A2.4,2.4,0,0,0,243.47,191.09Z" transform="translate(-1.22)"/><path class="a" d="M257.53,192a4.19,4.19,0,0,1-1.78-.36,3.78,3.78,0,0,1-1.3-1,4.44,4.44,0,0,1-.8-1.47,6,6,0,0,1,0-3.57,4.49,4.49,0,0,1,.8-1.48,3.93,3.93,0,0,1,1.3-1,4.47,4.47,0,0,1,3.56,0,3.93,3.93,0,0,1,1.3,1,4.31,4.31,0,0,1,.8,1.48,6,6,0,0,1,0,3.57,4.26,4.26,0,0,1-.8,1.47,3.78,3.78,0,0,1-1.3,1A4.19,4.19,0,0,1,257.53,192Zm0-.9a2.63,2.63,0,0,0,1.34-.32,2.81,2.81,0,0,0,1-.85,3.77,3.77,0,0,0,.58-1.19,4.88,4.88,0,0,0,.2-1.37,4.81,4.81,0,0,0-.2-1.36,3.72,3.72,0,0,0-.58-1.2,2.92,2.92,0,0,0-1-.85,3,3,0,0,0-2.68,0,2.92,2.92,0,0,0-1,.85,3.72,3.72,0,0,0-.58,1.2,4.81,4.81,0,0,0-.2,1.36,4.88,4.88,0,0,0,.2,1.37,3.77,3.77,0,0,0,.58,1.19,2.81,2.81,0,0,0,1,.85A2.63,2.63,0,0,0,257.53,191.09Z" transform="translate(-1.22)"/><path class="a" d="M262.36,190.86h1a9.73,9.73,0,0,0,.91-2.79,22.07,22.07,0,0,0,.29-3.93V183h5.9v7.88h1.31v3.68h-1.07v-2.78h-7.31v2.78h-1.07Zm7.07,0v-7h-3.79v.61a19.82,19.82,0,0,1-.32,3.8,10.42,10.42,0,0,1-.82,2.56Z" transform="translate(-1.22)"/><path class="a" d="M276.67,192a4.11,4.11,0,0,1-1.77-.36,3.69,3.69,0,0,1-1.3-1,4.1,4.1,0,0,1-.8-1.47,5.83,5.83,0,0,1,0-3.57,4.15,4.15,0,0,1,.8-1.48,3.83,3.83,0,0,1,1.3-1,4,4,0,0,1,1.77-.37,4,4,0,0,1,1.78.37,3.93,3.93,0,0,1,1.3,1,4.31,4.31,0,0,1,.8,1.48,6,6,0,0,1,0,3.57,4.26,4.26,0,0,1-.8,1.47,3.78,3.78,0,0,1-1.3,1A4.19,4.19,0,0,1,276.67,192Zm0-.9a2.7,2.7,0,0,0,1.35-.32,3,3,0,0,0,1-.85,4,4,0,0,0,.57-1.19,4.88,4.88,0,0,0,.2-1.37,4.81,4.81,0,0,0-.2-1.36,3.91,3.91,0,0,0-.57-1.2,3.13,3.13,0,0,0-1-.85,2.81,2.81,0,0,0-1.35-.32,2.74,2.74,0,0,0-1.34.32,2.92,2.92,0,0,0-1,.85,3.72,3.72,0,0,0-.58,1.2,4.8,4.8,0,0,0-.19,1.36,4.87,4.87,0,0,0,.19,1.37,3.77,3.77,0,0,0,.58,1.19,2.81,2.81,0,0,0,1,.85A2.63,2.63,0,0,0,276.67,191.09Z" transform="translate(-1.22)"/><path class="a" d="M286.21,192a3.94,3.94,0,0,1-2-.44,3.4,3.4,0,0,1-1.24-1.17,5,5,0,0,1-.65-1.68,10.72,10.72,0,0,1-.18-2c0-.41,0-.85.05-1.31a10.11,10.11,0,0,1,.18-1.36,8.7,8.7,0,0,1,.33-1.29,4.84,4.84,0,0,1,.52-1.1,3.55,3.55,0,0,1,1.43-1.31,6,6,0,0,1,2.09-.48l.82-.05a3.42,3.42,0,0,0,.92-.13.65.65,0,0,0,.34-.33H290a1.38,1.38,0,0,1-.69,1.07,4.54,4.54,0,0,1-1.68.34l-1.29.09a3.06,3.06,0,0,0-2.28,1.07,6.3,6.3,0,0,0-1.07,3h.05a3.61,3.61,0,0,1,3.25-2,4.16,4.16,0,0,1,1.61.31,3.55,3.55,0,0,1,1.25.88,4,4,0,0,1,.81,1.42,5.44,5.44,0,0,1,.29,1.87,5.5,5.5,0,0,1-.29,1.86,3.94,3.94,0,0,1-.82,1.43,3.64,3.64,0,0,1-1.28.92A4.11,4.11,0,0,1,286.21,192Zm0-.9a2.73,2.73,0,0,0,2.15-1,3.53,3.53,0,0,0,.62-1.15,4.64,4.64,0,0,0,.22-1.48A4.52,4.52,0,0,0,289,186a3.28,3.28,0,0,0-.62-1.12,2.88,2.88,0,0,0-.94-.73,2.5,2.5,0,0,0-1.16-.26,3,3,0,0,0-1.24.25,2.82,2.82,0,0,0-1,.72,3.28,3.28,0,0,0-.62,1.12,4.56,4.56,0,0,0-.22,1.48,4.64,4.64,0,0,0,.22,1.48,3.53,3.53,0,0,0,.62,1.15,2.73,2.73,0,0,0,2.15,1Z" transform="translate(-1.22)"/><path class="a" d="M291.87,183h1v1.67h0a2.87,2.87,0,0,1,1.22-1.42,3.68,3.68,0,0,1,1.91-.5,3.78,3.78,0,0,1,1.74.37,3.58,3.58,0,0,1,1.23,1,4.06,4.06,0,0,1,.73,1.47,6.54,6.54,0,0,1,.24,1.78,6.45,6.45,0,0,1-.24,1.79,4.22,4.22,0,0,1-.73,1.47,3.53,3.53,0,0,1-1.23,1A3.92,3.92,0,0,1,296,192a4.35,4.35,0,0,1-1-.11,3.4,3.4,0,0,1-.88-.36,3,3,0,0,1-.72-.6,2.35,2.35,0,0,1-.48-.83h0V195h-1.07Zm4.15,8.11a2.5,2.5,0,0,0,1.31-.33,2.78,2.78,0,0,0,.89-.85,3.81,3.81,0,0,0,.51-1.2,5.78,5.78,0,0,0,0-2.7,3.86,3.86,0,0,0-.51-1.19,2.81,2.81,0,0,0-.89-.86,2.5,2.5,0,0,0-1.31-.33,3.14,3.14,0,0,0-1.49.31,2.55,2.55,0,0,0-.94.81,3.1,3.1,0,0,0-.5,1.19,6.51,6.51,0,0,0-.15,1.42,6.22,6.22,0,0,0,.16,1.35,3.63,3.63,0,0,0,.53,1.2,2.79,2.79,0,0,0,.95.85A2.89,2.89,0,0,0,296,191.09Z" transform="translate(-1.22)"/><path class="a" d="M303.86,188.2a2.79,2.79,0,0,1-1.87-.77,2.47,2.47,0,0,1-.68-1.83,3,3,0,0,1,.18-1.06,2.32,2.32,0,0,1,.53-.82,2.39,2.39,0,0,1,.83-.54A3,3,0,0,1,304,183h4.25v8.78h-1.07v-3.49h-2.08l-3,3.49h-1.39Zm3.28-.83v-3.48h-2.93a1.83,1.83,0,0,0-1.36.48,1.73,1.73,0,0,0-.47,1.25,1.77,1.77,0,0,0,.47,1.26,1.8,1.8,0,0,0,1.36.49Z" transform="translate(-1.22)"/><path class="a" d="M312.44,183.89h-3.25V183h7.57v.91h-3.25v7.87h-1.07Z" transform="translate(-1.22)"/><path class="a" d="M27,203.38h4a3.52,3.52,0,0,1,2.07.53,1.78,1.78,0,0,1,.73,1.55,2.08,2.08,0,0,1-.4,1.31,2,2,0,0,1-1.11.73v0a2.35,2.35,0,0,1,1.36.68,2.1,2.1,0,0,1,.49,1.5,2.16,2.16,0,0,1-.8,1.82,3.71,3.71,0,0,1-2.34.63H27Zm3.89,3.8a2.1,2.1,0,0,0,1.38-.4,1.27,1.27,0,0,0,.47-1.05c0-1-.62-1.44-1.85-1.44H28.07v2.89Zm0,4.08a2.68,2.68,0,0,0,1.66-.42,1.51,1.51,0,0,0,.53-1.25,1.39,1.39,0,0,0-.53-1.17,2.69,2.69,0,0,0-1.66-.41H28.07v3.25Z" transform="translate(-1.22)"/><path class="a" d="M38.27,212.39a4.27,4.27,0,0,1-1.15-.14,2.66,2.66,0,0,1-.94-.46,2.16,2.16,0,0,1-.62-.8,2.54,2.54,0,0,1-.23-1.15,2.25,2.25,0,0,1,.4-1.43,2.62,2.62,0,0,1,1.08-.79,6.15,6.15,0,0,1,1.52-.38L40,207l.58-.08a1.27,1.27,0,0,0,.44-.18.85.85,0,0,0,.26-.35,1.57,1.57,0,0,0,.09-.58,1.93,1.93,0,0,0-.18-.89,1.38,1.38,0,0,0-.49-.55,1.89,1.89,0,0,0-.73-.28,5.08,5.08,0,0,0-.89-.08,2.73,2.73,0,0,0-1.67.48,1.92,1.92,0,0,0-.68,1.56H35.7a2.82,2.82,0,0,1,1.06-2.24,4.1,4.1,0,0,1,2.49-.7,6.51,6.51,0,0,1,1.16.11,2.72,2.72,0,0,1,1,.42,2.28,2.28,0,0,1,.74.85,3,3,0,0,1,.29,1.44v4.66a.57.57,0,0,0,.63.65.82.82,0,0,0,.34-.07v.9l-.33,0-.36,0a1.67,1.67,0,0,1-.66-.11.92.92,0,0,1-.38-.32,1.2,1.2,0,0,1-.18-.48,4,4,0,0,1,0-.62h0a8.16,8.16,0,0,1-.58.75,3,3,0,0,1-.67.56,3.21,3.21,0,0,1-.84.34A5.11,5.11,0,0,1,38.27,212.39Zm.08-.9a3.88,3.88,0,0,0,1.18-.18,2.88,2.88,0,0,0,1-.55,2.51,2.51,0,0,0,.91-2v-1.39h0a.65.65,0,0,1-.39.27l-.51.12c-.46.08-.92.15-1.41.21a6.86,6.86,0,0,0-1.31.28,2.5,2.5,0,0,0-1,.54,1.27,1.27,0,0,0-.38,1,1.53,1.53,0,0,0,.16.72A1.91,1.91,0,0,0,37,211a2,2,0,0,0,.62.34A2.25,2.25,0,0,0,38.35,211.49Z" transform="translate(-1.22)"/><path class="a" d="M44.61,203.38H46L49.3,211l3.23-7.57H54v8.78H52.89v-7.23h0l-3.08,7.23h-.95l-3.08-7.23h0v7.23H44.61Z" transform="translate(-1.22)"/><path class="a" d="M60.71,203.38h1.07v4.51l4.86-4.51h1.43l-3.72,3.44,3.94,5.34H67l-3.39-4.61-1.78,1.65v3H60.71Z" transform="translate(-1.22)"/><path class="a" d="M69.17,203.38h1v1.67h0a2.92,2.92,0,0,1,1.22-1.42,3.7,3.7,0,0,1,1.91-.5,3.78,3.78,0,0,1,1.74.37,3.61,3.61,0,0,1,1.24,1A4.55,4.55,0,0,1,77,206a7,7,0,0,1,0,3.57A4.6,4.6,0,0,1,76.3,211a3.47,3.47,0,0,1-1.24,1,3.92,3.92,0,0,1-1.74.36,4.35,4.35,0,0,1-1-.11,3.54,3.54,0,0,1-.88-.36,3,3,0,0,1-.72-.6,2.35,2.35,0,0,1-.48-.83h0v4.9H69.17Zm4.15,8.11a2.47,2.47,0,0,0,1.31-.33,2.78,2.78,0,0,0,.89-.85,3.81,3.81,0,0,0,.51-1.2,5.78,5.78,0,0,0,0-2.7,3.86,3.86,0,0,0-.51-1.19,2.81,2.81,0,0,0-.89-.86,2.47,2.47,0,0,0-1.31-.33,3.14,3.14,0,0,0-1.49.31,2.55,2.55,0,0,0-.94.81,3,3,0,0,0-.5,1.19,6.51,6.51,0,0,0-.15,1.42,5.67,5.67,0,0,0,.17,1.35,3.42,3.42,0,0,0,.52,1.2,2.88,2.88,0,0,0,.95.85A2.92,2.92,0,0,0,73.32,211.49Z" transform="translate(-1.22)"/><path class="a" d="M82.45,212.39a4.13,4.13,0,0,1-1.8-.36,3.35,3.35,0,0,1-1.23-1,4.54,4.54,0,0,1-.7-1.47,6.46,6.46,0,0,1-.23-1.79,6.11,6.11,0,0,1,.23-1.7,4.75,4.75,0,0,1,.7-1.49,3.7,3.7,0,0,1,1.23-1.05,3.74,3.74,0,0,1,1.8-.4,3.45,3.45,0,0,1,3,1.54,4.69,4.69,0,0,1,.67,1.58,7.31,7.31,0,0,1,.17,1.81H79.56a4.61,4.61,0,0,0,.16,1.2,3.28,3.28,0,0,0,.52,1.1,2.92,2.92,0,0,0,.9.81,2.47,2.47,0,0,0,1.31.32,2.66,2.66,0,0,0,1.84-.6,3.24,3.24,0,0,0,.91-1.62h1.07A4.25,4.25,0,0,1,85,211.58,3.72,3.72,0,0,1,82.45,212.39Zm2.79-5.23A3.52,3.52,0,0,0,85,206a3.13,3.13,0,0,0-.55-1,2.79,2.79,0,0,0-.86-.7,2.74,2.74,0,0,0-2.33,0,2.83,2.83,0,0,0-.87.7,3.38,3.38,0,0,0-.57,1,4.75,4.75,0,0,0-.28,1.17Z" transform="translate(-1.22)"/><path class="a" d="M86.84,211.26h1a9.43,9.43,0,0,0,.92-2.79,23.05,23.05,0,0,0,.29-3.93v-1.16H95v7.88h1.31v3.68H95.22v-2.78H87.91v2.78H86.84Zm7.07,0v-7H90.12v.61a19,19,0,0,1-.33,3.8,10,10,0,0,1-.81,2.56Z" transform="translate(-1.22)"/><path class="a" d="M97.43,203.38H98.5v7.52l4.84-7.52h1.33v8.78H103.6v-7.52l-4.85,7.52H97.43Z" transform="translate(-1.22)"/><path class="a" d="M108.9,204.29h-3.25v-.91h7.57v.91H110v7.87H108.9Z" transform="translate(-1.22)"/><path class="a" d="M118.93,203.38H120v3.73h5v-3.73h1.07v8.78H125V208h-5v4.15h-1.07Z" transform="translate(-1.22)"/><path class="a" d="M130.54,212.39a4.27,4.27,0,0,1-1.15-.14,2.7,2.7,0,0,1-.93-.46,2.08,2.08,0,0,1-.63-.8,2.68,2.68,0,0,1-.23-1.15,2.25,2.25,0,0,1,.41-1.43,2.5,2.5,0,0,1,1.08-.79,6.07,6.07,0,0,1,1.51-.38l1.71-.22.59-.08a1.21,1.21,0,0,0,.43-.18.85.85,0,0,0,.26-.35,1.37,1.37,0,0,0,.1-.58,1.93,1.93,0,0,0-.18-.89,1.38,1.38,0,0,0-.49-.55,1.93,1.93,0,0,0-.74-.28,4.91,4.91,0,0,0-.89-.08,2.7,2.7,0,0,0-1.66.48,1.92,1.92,0,0,0-.68,1.56H128a2.79,2.79,0,0,1,1.06-2.24,4.1,4.1,0,0,1,2.49-.7,6.4,6.4,0,0,1,1.15.11,2.59,2.59,0,0,1,1,.42,2.22,2.22,0,0,1,.75.85,3.15,3.15,0,0,1,.29,1.44v4.66a.57.57,0,0,0,.63.65.86.86,0,0,0,.34-.07v.9l-.33,0-.37,0a1.65,1.65,0,0,1-.65-.11.89.89,0,0,1-.39-.32,1.2,1.2,0,0,1-.18-.48,5.87,5.87,0,0,1,0-.62h0a6.75,6.75,0,0,1-.59.75,3.17,3.17,0,0,1-.66.56,3.52,3.52,0,0,1-.84.34A5.21,5.21,0,0,1,130.54,212.39Zm.09-.9a3.77,3.77,0,0,0,1.17-.18,3,3,0,0,0,1-.55,2.54,2.54,0,0,0,.66-.86,2.71,2.71,0,0,0,.25-1.16v-1.39h0a.65.65,0,0,1-.39.27l-.51.12c-.45.08-.92.15-1.4.21a7.14,7.14,0,0,0-1.32.28,2.65,2.65,0,0,0-1,.54,1.31,1.31,0,0,0-.38,1,1.66,1.66,0,0,0,.16.72,1.94,1.94,0,0,0,.44.55,2,2,0,0,0,.62.34A2.25,2.25,0,0,0,130.63,211.49Z" transform="translate(-1.22)"/><path class="a" d="M141.61,203.38h4a3.48,3.48,0,0,1,2.07.53,1.79,1.79,0,0,1,.74,1.55,2.15,2.15,0,0,1-.4,1.31,2.1,2.1,0,0,1-1.12.73v0a2.35,2.35,0,0,1,1.36.68,2.11,2.11,0,0,1,.5,1.5,2.19,2.19,0,0,1-.8,1.82,3.76,3.76,0,0,1-2.35.63h-4Zm3.89,3.8a2.13,2.13,0,0,0,1.39-.4,1.3,1.3,0,0,0,.46-1.05c0-1-.61-1.44-1.85-1.44h-2.82v2.89Zm0,4.08a2.68,2.68,0,0,0,1.66-.42,1.48,1.48,0,0,0,.53-1.25,1.37,1.37,0,0,0-.53-1.17,2.69,2.69,0,0,0-1.66-.41h-2.82v3.25Z" transform="translate(-1.22)"/><path class="a" d="M150.4,203.38h1.07v3.52h2.84a2.9,2.9,0,0,1,2,.68,2.48,2.48,0,0,1,.75,1.92,2.55,2.55,0,0,1-.75,1.95,2.83,2.83,0,0,1-2,.71H150.4Zm3.65,7.88a2.12,2.12,0,0,0,1.44-.45,1.64,1.64,0,0,0,.52-1.31,1.57,1.57,0,0,0-.52-1.28,2.23,2.23,0,0,0-1.44-.42h-2.58v3.46Zm4.68-7.88h1.07v8.78h-1.07Z" transform="translate(-1.22)"/><path class="a" d="M161.91,203.38h5.79v.91H163v7.87h-1.07Z" transform="translate(-1.22)"/><path class="a" d="M172.33,212.39a4.19,4.19,0,0,1-1.78-.36,3.78,3.78,0,0,1-1.3-1,4.26,4.26,0,0,1-.8-1.47,6,6,0,0,1,0-3.57,4.31,4.31,0,0,1,.8-1.48,3.93,3.93,0,0,1,1.3-1,4,4,0,0,1,1.78-.37,4,4,0,0,1,1.77.37,3.83,3.83,0,0,1,1.3,1,4.15,4.15,0,0,1,.8,1.48,5.83,5.83,0,0,1,0,3.57,4.1,4.1,0,0,1-.8,1.47,3.69,3.69,0,0,1-1.3,1A4.11,4.11,0,0,1,172.33,212.39Zm0-.9a2.63,2.63,0,0,0,1.34-.32,2.81,2.81,0,0,0,1-.85,3.77,3.77,0,0,0,.58-1.19,4.87,4.87,0,0,0,.19-1.37,4.8,4.8,0,0,0-.19-1.36,3.72,3.72,0,0,0-.58-1.2,2.92,2.92,0,0,0-1-.85,2.74,2.74,0,0,0-1.34-.32,2.81,2.81,0,0,0-1.35.32,3.13,3.13,0,0,0-1,.85,3.91,3.91,0,0,0-.57,1.2,4.81,4.81,0,0,0-.2,1.36,4.88,4.88,0,0,0,.2,1.37,4,4,0,0,0,.57,1.19,3,3,0,0,0,1,.85A2.7,2.7,0,0,0,172.33,211.49Z" transform="translate(-1.22)"/><path class="a" d="M177.16,211.26h1a9.43,9.43,0,0,0,.92-2.79,23.05,23.05,0,0,0,.29-3.93v-1.16h5.9v7.88h1.31v3.68h-1.07v-2.78h-7.31v2.78h-1.07Zm7.07,0v-7h-3.79v.61a19,19,0,0,1-.33,3.8,10,10,0,0,1-.81,2.56Z" transform="translate(-1.22)"/><path class="a" d="M187.75,203.38h1.07v3.73h5v-3.73h1.07v8.78H193.8V208h-5v4.15h-1.07Z" transform="translate(-1.22)"/><path class="a" d="M196.88,203.38H198v3.52h2.84a2.9,2.9,0,0,1,2,.68,2.48,2.48,0,0,1,.75,1.92,2.55,2.55,0,0,1-.75,1.95,2.83,2.83,0,0,1-2,.71h-3.91Zm3.65,7.88a2.14,2.14,0,0,0,1.44-.45,1.63,1.63,0,0,0,.51-1.31,1.57,1.57,0,0,0-.51-1.28,2.24,2.24,0,0,0-1.44-.42H198v3.46Zm4.68-7.88h1.07v8.78h-1.07Z" transform="translate(-1.22)"/><path class="a" d="M210.7,207.6l-3.15-4.22h1.34l2.5,3.34,2.45-3.34h1.34l-3.16,4.2,3.42,4.58h-1.36l-2.75-3.69-2.71,3.69H207.3Z" transform="translate(-1.22)"/><path class="a" d="M221.9,215.39l-.5,0a.79.79,0,0,1-.32-.06v-.9l.37.06.36,0a1.41,1.41,0,0,0,.59-.11,1.12,1.12,0,0,0,.4-.28,1.71,1.71,0,0,0,.29-.43l.25-.56.38-1-3.5-8.74h1.13l2.9,7.48,2.7-7.48H228l-3.81,10.1a9.33,9.33,0,0,1-.44.93,2.54,2.54,0,0,1-.45.58,1.53,1.53,0,0,1-.58.3A2.84,2.84,0,0,1,221.9,215.39Z" transform="translate(-1.22)"/><path class="a" d="M232.78,212.39A4.19,4.19,0,0,1,231,212a3.78,3.78,0,0,1-1.3-1,4.26,4.26,0,0,1-.8-1.47,6,6,0,0,1,0-3.57,4.31,4.31,0,0,1,.8-1.48,3.93,3.93,0,0,1,1.3-1,4,4,0,0,1,1.78-.37,3.81,3.81,0,0,1,2.39.75,3.17,3.17,0,0,1,1.16,2.26h-1.07a3,3,0,0,0-.82-1.55,2.33,2.33,0,0,0-1.66-.56,2.74,2.74,0,0,0-1.34.32,2.92,2.92,0,0,0-1,.85,3.72,3.72,0,0,0-.58,1.2,4.81,4.81,0,0,0-.2,1.36,4.88,4.88,0,0,0,.2,1.37,3.77,3.77,0,0,0,.58,1.19,2.81,2.81,0,0,0,1,.85,2.63,2.63,0,0,0,1.34.32,2.41,2.41,0,0,0,.93-.18,2.64,2.64,0,0,0,.79-.52,3,3,0,0,0,.56-.79,3.27,3.27,0,0,0,.27-1h1.07a4.11,4.11,0,0,1-1.17,2.5A3.43,3.43,0,0,1,232.78,212.39Z" transform="translate(-1.22)"/><path class="a" d="M237.79,212.24a.79.79,0,0,1-.2,0l-.25,0-.23,0-.17,0v-.94a3,3,0,0,0,.41.09l.46,0a1.89,1.89,0,0,0,.38,0,.89.89,0,0,0,.4-.28,2.37,2.37,0,0,0,.39-.72,6.71,6.71,0,0,0,.33-1.37c.09-.59.16-1.32.22-2.21s.08-2,.08-3.28h5.87v8.78h-1.07v-7.87h-3.76c0,1.26,0,2.34-.11,3.23a16.52,16.52,0,0,1-.31,2.21,6.15,6.15,0,0,1-.48,1.39,2.42,2.42,0,0,1-.59.76,1.51,1.51,0,0,1-.66.3A4.17,4.17,0,0,1,237.79,212.24Z" transform="translate(-1.22)"/><path class="a" d="M251.21,212.39a4.19,4.19,0,0,1-1.78-.36,3.69,3.69,0,0,1-1.3-1,4.26,4.26,0,0,1-.8-1.47,6,6,0,0,1,0-3.57,4.31,4.31,0,0,1,.8-1.48,3.83,3.83,0,0,1,1.3-1,4,4,0,0,1,1.78-.37,4,4,0,0,1,1.77.37,3.83,3.83,0,0,1,1.3,1,4.31,4.31,0,0,1,.8,1.48,6,6,0,0,1,0,3.57,4.26,4.26,0,0,1-.8,1.47,3.69,3.69,0,0,1-1.3,1A4.11,4.11,0,0,1,251.21,212.39Zm0-.9a2.66,2.66,0,0,0,1.34-.32,3,3,0,0,0,1-.85,3.77,3.77,0,0,0,.58-1.19,4.87,4.87,0,0,0,.19-1.37,4.8,4.8,0,0,0-.19-1.36,3.72,3.72,0,0,0-.58-1.2,3.13,3.13,0,0,0-1-.85,2.77,2.77,0,0,0-1.34-.32,2.81,2.81,0,0,0-1.35.32,3.13,3.13,0,0,0-1,.85,3.91,3.91,0,0,0-.57,1.2,4.48,4.48,0,0,0-.2,1.36,4.54,4.54,0,0,0,.2,1.37,4,4,0,0,0,.57,1.19,3,3,0,0,0,1,.85A2.7,2.7,0,0,0,251.21,211.49Z" transform="translate(-1.22)"/><path class="a" d="M256.94,203.38h4a3.52,3.52,0,0,1,2.07.53,1.78,1.78,0,0,1,.73,1.55,2.08,2.08,0,0,1-.4,1.31,2,2,0,0,1-1.11.73v0a2.35,2.35,0,0,1,1.36.68,2.1,2.1,0,0,1,.49,1.5,2.16,2.16,0,0,1-.8,1.82,3.71,3.71,0,0,1-2.34.63h-4Zm3.89,3.8a2.1,2.1,0,0,0,1.38-.4,1.27,1.27,0,0,0,.47-1.05c0-1-.62-1.44-1.85-1.44H258v2.89Zm0,4.08a2.68,2.68,0,0,0,1.66-.42,1.51,1.51,0,0,0,.53-1.25,1.39,1.39,0,0,0-.53-1.17,2.69,2.69,0,0,0-1.66-.41H258v3.25Z" transform="translate(-1.22)"/><path class="a" d="M265.72,203.38h1.08v7.52l4.84-7.52H273v8.78H271.9v-7.52l-4.85,7.52h-1.33Z" transform="translate(-1.22)"/><path class="a" d="M277.22,208.6a2.79,2.79,0,0,1-1.87-.77,2.51,2.51,0,0,1-.68-1.83,3,3,0,0,1,.18-1.06,2.32,2.32,0,0,1,.53-.82,2.39,2.39,0,0,1,.83-.54,3,3,0,0,1,1.11-.2h4.25v8.78H280.5v-3.49h-2.08l-3,3.49H274Zm3.28-.83v-3.48h-2.93a1.83,1.83,0,0,0-1.36.48,1.73,1.73,0,0,0-.47,1.25,1.77,1.77,0,0,0,.47,1.26,1.8,1.8,0,0,0,1.36.49Z" transform="translate(-1.22)"/><path class="a" d="M286,207.6l-3.15-4.22h1.35l2.5,3.34,2.44-3.34h1.35l-3.17,4.2,3.42,4.58h-1.36l-2.75-3.69-2.71,3.69h-1.32Z" transform="translate(-1.22)"/><path class="b" d="M81,140.81h4.35l4.72,7.56L95,140.81h4.08L92.2,151.13l7.38,11.1H95.14L90,154l-5.29,8.19H80.49l7.39-11.1Z" transform="translate(-1.22)"/><path class="b" d="M110.59,140.3a9.43,9.43,0,0,1,4.18.9,9.31,9.31,0,0,1,3.14,2.43,10.69,10.69,0,0,1,2,3.57,14,14,0,0,1,0,8.67,10.69,10.69,0,0,1-2,3.57,9.13,9.13,0,0,1-3.14,2.41,10.28,10.28,0,0,1-8.37,0,9.13,9.13,0,0,1-3.14-2.41,10.86,10.86,0,0,1-2-3.57,14,14,0,0,1,0-8.67,10.86,10.86,0,0,1,2-3.57,9.31,9.31,0,0,1,3.14-2.43A9.45,9.45,0,0,1,110.59,140.3Zm0,3.06a5.54,5.54,0,0,0-4.85,2.53,8.29,8.29,0,0,0-1.12,2.63,12.35,12.35,0,0,0,0,6,8.24,8.24,0,0,0,1.12,2.62,5.8,5.8,0,0,0,9.69,0,8.49,8.49,0,0,0,1.13-2.62,12.68,12.68,0,0,0,0-6,8.54,8.54,0,0,0-1.13-2.63,5.54,5.54,0,0,0-4.84-2.53Z" transform="translate(-1.22)"/><path class="b" d="M123.9,140.81h9.19a8.52,8.52,0,0,1,3.62.66,5.5,5.5,0,0,1,3.2,3.81,9.7,9.7,0,0,1,.28,2.16,9.47,9.47,0,0,1-.28,2.14,5.72,5.72,0,0,1-1,2.15,5.51,5.51,0,0,1-2.16,1.63,8.69,8.69,0,0,1-3.62.65h-5.54v8.22H123.9ZM127.55,151h5.34a4.61,4.61,0,0,0,1.25-.18,3.68,3.68,0,0,0,1.19-.59,2.93,2.93,0,0,0,.87-1.08,3.82,3.82,0,0,0,.34-1.69,4.58,4.58,0,0,0-.29-1.74,2.86,2.86,0,0,0-.79-1.1,2.75,2.75,0,0,0-1.14-.55,6.06,6.06,0,0,0-1.37-.15h-5.4Z" transform="translate(-1.22)"/><path class="b" d="M152.24,140.3a9.31,9.31,0,0,1,7.33,3.33,11,11,0,0,1,2,3.57,14.16,14.16,0,0,1,0,8.67,11,11,0,0,1-2,3.57,9.23,9.23,0,0,1-3.14,2.41,10.31,10.31,0,0,1-8.38,0,9.33,9.33,0,0,1-3.14-2.41,11,11,0,0,1-2-3.57,14.16,14.16,0,0,1,0-8.67,11,11,0,0,1,2-3.57,9.31,9.31,0,0,1,7.33-3.33Zm0,3.06a5.67,5.67,0,0,0-2.87.69,5.61,5.61,0,0,0-2,1.84,8.31,8.31,0,0,0-1.13,2.63,12.68,12.68,0,0,0,0,6,8.25,8.25,0,0,0,1.13,2.62,5.52,5.52,0,0,0,4.84,2.54,5.74,5.74,0,0,0,2.88-.69,5.81,5.81,0,0,0,2-1.85,8.47,8.47,0,0,0,1.12-2.62,12.35,12.35,0,0,0,0-6,8.53,8.53,0,0,0-1.12-2.63,5.54,5.54,0,0,0-4.85-2.53Z" transform="translate(-1.22)"/><path class="b" d="M180.5,159h7.73V140.81h3.65v21.42H165.46V140.81h3.65V159h7.74V140.81h3.65Z" transform="translate(-1.22)"/><path class="b" d="M196.14,140.81h3.65v16l8.85-16h4.29v21.42h-3.65V146.15l-9,16.08h-4.18Z" transform="translate(-1.22)"/><path class="b" d="M217.22,140.81h3.65v16l8.84-16H234v21.42h-3.64V146.15l-9,16.08h-4.17Zm5.37-6.42a2.44,2.44,0,0,0,1.1,1.77,3.89,3.89,0,0,0,2,.51,3.25,3.25,0,0,0,1.92-.57,2.64,2.64,0,0,0,1-1.71h1.67a4.53,4.53,0,0,1-1.54,3.18,5.09,5.09,0,0,1-3.31,1.05,4.62,4.62,0,0,1-3.21-1.08,4.54,4.54,0,0,1-1.37-3.15Z" transform="translate(-1.22)"/><path d="M140.61,79.16a36.7,36.7,0,0,0-3.05,6.56,47.65,47.65,0,0,0-1.88,7,39.79,39.79,0,0,0-.71,6.65h-6.51a42.79,42.79,0,0,1,3.15-13.3,47.14,47.14,0,0,1,6.92-11.72H124.3V68.59h20.49V74A21.44,21.44,0,0,0,140.61,79.16Z" transform="translate(-1.22)"/><path d="M155.5,73.74l-1.2,7,.09.09A7.54,7.54,0,0,1,157,79a9,9,0,0,1,3.22-.55,8.85,8.85,0,0,1,3.94.84,8.68,8.68,0,0,1,2.89,2.25,9.67,9.67,0,0,1,1.8,3.32,13,13,0,0,1,.62,4.07,10.86,10.86,0,0,1-.9,4.43,11.18,11.18,0,0,1-2.42,3.55,10.59,10.59,0,0,1-3.53,2.31,10.85,10.85,0,0,1-4.29.77,14.42,14.42,0,0,1-4.18-.6,10.21,10.21,0,0,1-3.53-1.82,9.24,9.24,0,0,1-2.47-3.06,9.81,9.81,0,0,1-1-4.25h6.08a5.2,5.2,0,0,0,1.55,3.37,4.74,4.74,0,0,0,3.38,1.25,4.6,4.6,0,0,0,2.17-.51A5.1,5.1,0,0,0,162,93.05a5.93,5.93,0,0,0,1-1.89,6.73,6.73,0,0,0,.37-2.23,7.15,7.15,0,0,0-.35-2.24,5.21,5.21,0,0,0-1-1.85,4.78,4.78,0,0,0-1.63-1.23,5,5,0,0,0-2.19-.45,5.2,5.2,0,0,0-2.65.6,6.28,6.28,0,0,0-1.93,1.87h-5.49l3-17h16.75v5.15Z" transform="translate(-1.22)"/><path d="M173,72.73a8.49,8.49,0,0,1,2.33-2.65,10.4,10.4,0,0,1,3.24-1.58,12.93,12.93,0,0,1,3.64-.53,11.3,11.3,0,0,1,4.72.88,9.72,9.72,0,0,1,3.1,2.14,7.89,7.89,0,0,1,2.21,5.26,7.3,7.3,0,0,1-1.09,4,6,6,0,0,1-3.28,2.46v.09a6.85,6.85,0,0,1,4.16,2.62,8.15,8.15,0,0,1,1.45,4.91A8.65,8.65,0,0,1,190,97.61a11.23,11.23,0,0,1-3.6,1.78,14.36,14.36,0,0,1-4.12.6,16,16,0,0,1-4.22-.55,11,11,0,0,1-3.64-1.74,8.78,8.78,0,0,1-2.57-3,9.05,9.05,0,0,1-1-4.31,8,8,0,0,1,1.48-4.93,7.1,7.1,0,0,1,4.18-2.65v-.09a5.52,5.52,0,0,1-3.3-2.33,7.82,7.82,0,0,1-.21-7.66Zm4.37,19.51a5.21,5.21,0,0,0,1.13,1.65,4.94,4.94,0,0,0,1.7,1.06,5.68,5.68,0,0,0,2.05.37,5.33,5.33,0,0,0,2-.37A5,5,0,0,0,186,93.89,4.8,4.8,0,0,0,187,92.24a5.63,5.63,0,0,0,.39-2.12,4.79,4.79,0,0,0-1.52-3.56,5.21,5.21,0,0,0-1.63-1,5.68,5.68,0,0,0-2-.35,5.78,5.78,0,0,0-3.77,1.26A4.38,4.38,0,0,0,177,90.08,5.24,5.24,0,0,0,177.4,92.24ZM179,80a5.17,5.17,0,0,0,3.21,1,5,5,0,0,0,3.22-1,3.66,3.66,0,0,0,1.28-3,6.14,6.14,0,0,0-.17-1.34,3.67,3.67,0,0,0-2-2.49,5.16,5.16,0,0,0-2.29-.44,5.28,5.28,0,0,0-1.73.29,4.72,4.72,0,0,0-1.48.81,3.71,3.71,0,0,0-1,1.33,4.38,4.38,0,0,0-.36,1.84A3.53,3.53,0,0,0,179,80Z" transform="translate(-1.22)"/><path class="a" d="M135.79,123.29a5,5,0,0,1-2.46-.55,4.3,4.3,0,0,1-1.54-1.45,6,6,0,0,1-.8-2.09,12.87,12.87,0,0,1-.23-2.44c0-.51,0-1.06.06-1.63a16.1,16.1,0,0,1,.22-1.68,15.4,15.4,0,0,1,.41-1.59,5.72,5.72,0,0,1,.66-1.36,4.29,4.29,0,0,1,1.76-1.62,7.12,7.12,0,0,1,2.59-.59l1-.07a3.85,3.85,0,0,0,1.14-.16.86.86,0,0,0,.42-.4h1.47a1.69,1.69,0,0,1-.85,1.31,5.46,5.46,0,0,1-2.07.43l-1.6.11a3.72,3.72,0,0,0-2.82,1.32,7.63,7.63,0,0,0-1.33,3.73h.07a4.22,4.22,0,0,1,1.62-1.76,4.45,4.45,0,0,1,2.39-.66,4.91,4.91,0,0,1,2,.38,4.32,4.32,0,0,1,1.55,1.09,5.14,5.14,0,0,1,1,1.74,7.8,7.8,0,0,1,0,4.62,5.1,5.1,0,0,1-1,1.78,4.55,4.55,0,0,1-1.59,1.14A5.29,5.29,0,0,1,135.79,123.29Zm0-1.12a3.38,3.38,0,0,0,2.66-1.24,4.56,4.56,0,0,0,.77-1.43,5.86,5.86,0,0,0,.27-1.83,5.67,5.67,0,0,0-.27-1.8,4.14,4.14,0,0,0-.77-1.39,3.47,3.47,0,0,0-1.16-.9,3.17,3.17,0,0,0-1.44-.33,3.72,3.72,0,0,0-1.54.32,3.21,3.21,0,0,0-1.18.89,4,4,0,0,0-.77,1.39,5.75,5.75,0,0,0-.28,1.82,5.86,5.86,0,0,0,.28,1.83,4.36,4.36,0,0,0,.77,1.43,3.59,3.59,0,0,0,1.17.92A3.53,3.53,0,0,0,135.79,122.17Z" transform="translate(-1.22)"/><path class="a" d="M145.84,123.29a5.42,5.42,0,0,1-1.42-.18,3.18,3.18,0,0,1-1.15-.57,2.73,2.73,0,0,1-.78-1,3.27,3.27,0,0,1-.29-1.42,2.79,2.79,0,0,1,.51-1.78,3.26,3.26,0,0,1,1.33-1,7.84,7.84,0,0,1,1.88-.47l2.11-.26a6.66,6.66,0,0,0,.73-.11,1.21,1.21,0,0,0,.53-.22,1,1,0,0,0,.33-.43,1.79,1.79,0,0,0,.11-.71,2.41,2.41,0,0,0-.22-1.11,1.67,1.67,0,0,0-.61-.68,2.39,2.39,0,0,0-.9-.35,6.36,6.36,0,0,0-1.1-.09,3.37,3.37,0,0,0-2.07.6,2.34,2.34,0,0,0-.84,1.92h-1.32a3.5,3.5,0,0,1,1.31-2.78,5.15,5.15,0,0,1,3.08-.86,7.62,7.62,0,0,1,1.43.14,3.49,3.49,0,0,1,1.29.51,2.85,2.85,0,0,1,.92,1.07,3.76,3.76,0,0,1,.36,1.77v5.77a.7.7,0,0,0,.78.8.87.87,0,0,0,.42-.09v1.12l-.41.06-.45,0a1.84,1.84,0,0,1-.81-.14,1.15,1.15,0,0,1-.48-.38,1.59,1.59,0,0,1-.22-.6,6.1,6.1,0,0,1,0-.77h0a8.14,8.14,0,0,1-.73.93,3.35,3.35,0,0,1-.82.69,3.9,3.9,0,0,1-1,.42A5.57,5.57,0,0,1,145.84,123.29Zm.11-1.12a4.68,4.68,0,0,0,1.45-.23,3.56,3.56,0,0,0,1.21-.67,3.36,3.36,0,0,0,.82-1.08,3.27,3.27,0,0,0,.3-1.43V117h0a.74.74,0,0,1-.48.33,5.56,5.56,0,0,1-.63.15q-.84.15-1.74.27a9.37,9.37,0,0,0-1.63.34,3.16,3.16,0,0,0-1.21.68,1.6,1.6,0,0,0-.47,1.22,2,2,0,0,0,.2.89,2,2,0,0,0,.54.67,2.2,2.2,0,0,0,.76.43A2.82,2.82,0,0,0,146,122.17Z" transform="translate(-1.22)"/><path class="a" d="M153.58,123.1l-.25,0-.3,0-.3,0-.2,0v-1.16a2.7,2.7,0,0,0,.51.11c.22,0,.41,0,.57,0a2,2,0,0,0,.46-.06,1,1,0,0,0,.5-.35,3,3,0,0,0,.49-.9,9.62,9.62,0,0,0,.4-1.69q.16-1.08.27-2.73c.07-1.1.11-2.45.11-4h7.25V123h-1.32v-9.74h-4.65c0,1.57-.05,2.9-.14,4a19.34,19.34,0,0,1-.39,2.73,7,7,0,0,1-.59,1.73,2.78,2.78,0,0,1-.72.93,1.75,1.75,0,0,1-.82.38A5.14,5.14,0,0,1,153.58,123.1Z" transform="translate(-1.22)"/><path class="a" d="M170.18,123.29a5,5,0,0,1-2.2-.46,4.64,4.64,0,0,1-1.6-1.23,5.17,5.17,0,0,1-1-1.82,7,7,0,0,1-.34-2.22,7.09,7.09,0,0,1,.34-2.21,5.22,5.22,0,0,1,1-1.83,4.92,4.92,0,0,1,1.6-1.24,5.49,5.49,0,0,1,4.4,0,4.86,4.86,0,0,1,1.61,1.24,5.39,5.39,0,0,1,1,1.83,7.4,7.4,0,0,1,.34,2.21,7.27,7.27,0,0,1-.34,2.22,5.34,5.34,0,0,1-1,1.82,4.58,4.58,0,0,1-1.61,1.23A5,5,0,0,1,170.18,123.29Zm0-1.12a3.29,3.29,0,0,0,1.66-.4,3.44,3.44,0,0,0,1.19-1,4.53,4.53,0,0,0,.72-1.48,6,6,0,0,0,.24-1.69,6.11,6.11,0,0,0-.24-1.69,4.74,4.74,0,0,0-.72-1.48,3.65,3.65,0,0,0-1.19-1,3.73,3.73,0,0,0-3.32,0,3.76,3.76,0,0,0-1.19,1,5,5,0,0,0-.71,1.48,6.11,6.11,0,0,0-.24,1.69,6,6,0,0,0,.24,1.69,4.72,4.72,0,0,0,.71,1.48,3.53,3.53,0,0,0,1.19,1A3.32,3.32,0,0,0,170.18,122.17Z" transform="translate(-1.22)"/><path class="a" d="M177.27,112.14h5a4.27,4.27,0,0,1,2.56.65,2.19,2.19,0,0,1,.91,1.91,2.59,2.59,0,0,1-.5,1.62,2.51,2.51,0,0,1-1.37.91v0a3,3,0,0,1,1.68.84,2.6,2.6,0,0,1,.61,1.85,2.69,2.69,0,0,1-1,2.25,4.62,4.62,0,0,1-2.9.78h-5Zm4.82,4.69a2.55,2.55,0,0,0,1.71-.49,1.58,1.58,0,0,0,.58-1.3c0-1.19-.76-1.79-2.29-1.79H178.6v3.58Zm0,5a3.34,3.34,0,0,0,2-.52,1.84,1.84,0,0,0,.66-1.55,1.72,1.72,0,0,0-.66-1.45,3.42,3.42,0,0,0-2-.5H178.6v4Z" transform="translate(-1.22)"/><path class="c" d="M264.67,123a8.35,8.35,0,0,1-8.35-8.35,98,98,0,0,0-195.9,0,8.35,8.35,0,1,1-16.69,0,114.64,114.64,0,0,1,229.28,0A8.34,8.34,0,0,1,264.67,123Z" transform="translate(-1.22)"/></svg>