<svg xmlns="http://www.w3.org/2000/svg" viewBox="0 0 654.54 305.69"><defs><style>.a{fill:#e8505b;}.b{fill:#d39e1a;}.c{fill:#263238;}.d{fill:#fafafa;}.e{fill:#e0e0e0;}.f{fill:#fbc83e;}.g{opacity:0.4;}.h{fill:#fff;}.i{fill:#455a64;}.j{opacity:0.2;}.k{fill:#b78876;}.l{fill:#aa6550;}.m{fill:#ebebeb;}.n{opacity:0.3;}</style></defs><rect class="a" x="58.4" y="171.33" width="554.82" height="81.41"/><rect class="b" x="58.4" y="171.33" width="554.82" height="81.41"/><circle class="c" cx="132.95" cy="252.19" r="53.5" transform="translate(-16.63 9.49) rotate(-3.85)"/><path class="c" d="M79.47,251.28c0,.05,0,.1,0,.14a53.5,53.5,0,1,0,107,1.54.57.57,0,0,0,0-.13Z"/><path class="d" d="M95.4,251.65a37.56,37.56,0,1,0,38.09-37A37.56,37.56,0,0,0,95.4,251.65Z"/><path class="e" d="M133.49,214.64a37.55,37.55,0,0,0-38.09,37l75.11,1.08A37.56,37.56,0,0,0,133.49,214.64Z"/><path class="c" d="M110.07,251.86a22.88,22.88,0,1,0,23.21-22.54A22.88,22.88,0,0,0,110.07,251.86Z"/><circle class="c" cx="542.05" cy="252.19" r="53.5" transform="matrix(1, -0.06, 0.06, 1, -13.68, 31.77)"/><path class="c" d="M488.57,251.28c0,.05,0,.1,0,.14a53.5,53.5,0,1,0,107,1.54s0-.09,0-.13Z"/><path class="d" d="M504.5,251.65a37.56,37.56,0,1,0,38.09-37A37.56,37.56,0,0,0,504.5,251.65Z"/><path class="e" d="M542.59,214.64a37.55,37.55,0,0,0-38.09,37l75.11,1.08A37.55,37.55,0,0,0,542.59,214.64Z"/><path class="c" d="M519.18,251.86a22.88,22.88,0,1,0,23.2-22.54A22.87,22.87,0,0,0,519.18,251.86Z"/><path class="f" d="M203.08,125.53s-78.78,5.81-108,12.36c-20.58,4.61-60.26,12.58-59.78,37.54l3.15,17.9s-14.73,6.72-14.73,23.88S20.15,261,54.51,262c5.66.17,16.41,0,16.41,0s-6.59-73.18,60.63-75.32c68.39-2.18,63.85,74.65,63.85,74.65H480.82s-11.71-74.85,61.91-75,62.42,75.45,62.42,75.45,27.08,2.34,39.68-20.42,9.32-39,9.32-39l-.41-14.38a9.32,9.32,0,0,0-9-9h0s4.91-36.22-2.63-42.49-48.93-44.1-48.93-44.1l2-1.24a4.64,4.64,0,0,0-1-8.31c-15.71-5.4-46.77-16.09-54.07-18.65a13.56,13.56,0,0,0-3.39-.71c-4.36-.33-16.7-1.11-39.35-1.36-27.59-.29-137.13,0-137.13,0s-37.7,3.1-58.7,12.35C279.53,84.26,203.08,125.53,203.08,125.53Z"/><g class="g"><path d="M43.72,215.22c-2.86-.58-7.24-.63-9.42,1.3-1.62,1.44-2,3.77-2.29,5.92a25.4,25.4,0,0,0,.19,8.87,10.86,10.86,0,0,0,5,7.07c2.62,1.42,6.2,1.18,8.23-1,1.86-2,2.07-5,2-7.68-.07-3.85.24-7.12-.47-10.92a5.27,5.27,0,0,0-1-2.2,3,3,0,0,0-2.28-1.37"/></g><path class="d" d="M38.47,193.33c8.36,0,16.47-.46,24.82-1a4,4,0,0,0,2.54-.77,4.06,4.06,0,0,0,.87-3c0-4.49-.18-9.58-3.58-12.5-2.08-1.79-4.93-2.34-7.66-2.6a49.51,49.51,0,0,0-20.14,2Z"/><path class="h" d="M212.12,259.08s0-.25-.06-.72-.08-1.19-.14-2.1c-.1-1.86-.25-4.57-.44-8.07s-.43-7.79-.93-12.75a100.8,100.8,0,0,0-3-16.63,75.75,75.75,0,0,0-8-18.75A59,59,0,0,0,184,182.7c-13.5-9.6-31.72-15-50.79-15.26s-37.28,5.81-50.44,15.88A74,74,0,0,0,66.38,200a79.11,79.11,0,0,0-9.59,18,73.43,73.43,0,0,0-4,16.36,68.77,68.77,0,0,0-.49,12.74,63.7,63.7,0,0,0,1,8c.16.89.28,1.58.37,2.06s.11.71.11.71-.06-.23-.16-.7-.24-1.16-.43-2.06a61.48,61.48,0,0,1-1.08-8,68.35,68.35,0,0,1,.41-12.78,72.9,72.9,0,0,1,4-16.46A79,79,0,0,1,66,199.78a74,74,0,0,1,16.44-16.84c13.22-10.16,31.5-16.25,50.72-16s37.48,5.7,51.07,15.39a59.12,59.12,0,0,1,15.65,17.52,75.3,75.3,0,0,1,8,18.88,99.39,99.39,0,0,1,2.89,16.7c.47,5,.68,9.27.84,12.77s.27,6.21.34,8.08q.06,1.37.09,2.1C212.13,258.83,212.12,259.08,212.12,259.08Z"/><path class="c" d="M215.15,260.32l0-.6-.06-1.77c-.05-1.58-.13-3.9-.22-6.92-.17-6.06-.42-14.93-.75-26.22s-.68-25-1.11-40.7q-.16-5.9-.33-12.15a40.19,40.19,0,0,1,.28-6.36q.23-1.59.45-3.21l.66-3.23a65.4,65.4,0,0,1,4.45-12.81,64.52,64.52,0,0,1,7.33-12.17l0,0,0,0L275.3,103l13.35-8.4a104.88,104.88,0,0,1,14.13-7.89,145.91,145.91,0,0,1,15.34-6.13c2.63-.92,5.32-1.67,8-2.47s5.43-1.46,8.21-2a187.26,187.26,0,0,1,31.85-4,301.64,301.64,0,0,1,30.84.1l.3,0-.07.29L384,131.88v0l0,0a64.76,64.76,0,0,0-6,12.77,34.86,34.86,0,0,0-2,13.2c.34,4.39.46,8.69.57,12.85s.16,8.22.24,12.15c.23,15.7.29,29.39.33,40.67s0,20.15,0,26.21c0,3,0,5.33,0,6.9,0,.78,0,1.37,0,1.78s0,.6,0,.6,0-.21,0-.6,0-1,0-1.78c0-1.57,0-3.89,0-6.9,0-6.06-.09-14.93-.16-26.21s-.17-25-.44-40.67q-.12-5.88-.26-12.13c-.12-4.17-.24-8.45-.59-12.84a35.22,35.22,0,0,1,2-13.37,65.08,65.08,0,0,1,6-12.87l0,.07c4.07-18.29,8.52-38.25,13.23-59.42l.23.3a303.4,303.4,0,0,0-30.78-.09,186.22,186.22,0,0,0-31.77,4c-2.77.55-5.47,1.32-8.18,2s-5.36,1.55-8,2.46A145,145,0,0,0,303,87.17,103.18,103.18,0,0,0,288.94,95l-13.36,8.4-49.46,31.11,0-.05a63.55,63.55,0,0,0-7.28,12.06,64.8,64.8,0,0,0-4.44,12.72c-2.25,8.57-1.12,17-1.1,24.86.39,15.7.73,29.41,1,40.7S214.84,245,215,251c.06,3,.11,5.34.15,6.92q0,1.16,0,1.77C215.16,260.12,215.15,260.32,215.15,260.32Z"/><path class="c" d="M396.7,73.85s.15,0,.46,0l1.38,0,5.31-.13,19.69-.39,66.38-1.13h.13l.08.1,9.3,11.39L526,116.17l3,3.71a21.35,21.35,0,0,1,2.48,4,20.74,20.74,0,0,1,.38,16.88q-1.57,3.67-3,7c-3.86,9-7,16.21-9.17,21.24l-2.52,5.76-.67,1.5c-.15.33-.24.5-.24.5a5.19,5.19,0,0,1,.19-.52c.15-.36.35-.87.62-1.52l2.43-5.8,9-21.3c1.72-4.52,4.75-9.28,4.54-15.08a20.42,20.42,0,0,0-2-8.51,21.25,21.25,0,0,0-2.44-3.89l-3-3.7L499,83.93l-9.29-11.39.2.1-66.39,1-19.69.23-5.31,0h-1.38Z"/><path class="c" d="M363.19,162.12s.27,0,.79-.11a5.56,5.56,0,0,0,2.1-.84,5.35,5.35,0,0,0,2.14-2.78,5.82,5.82,0,0,0,.27-2.2,5.21,5.21,0,0,0-.62-2.38,5.28,5.28,0,0,0-4.6-2.81l-6.74,0-15.45,0a5.25,5.25,0,0,0-5.2,4.65,5.89,5.89,0,0,0,.64,3.53,5.32,5.32,0,0,0,2.56,2.27,8.11,8.11,0,0,0,3.33.41h3.27l5.88,0,8.51.08,2.31,0a7.37,7.37,0,0,1,.81.05,4.29,4.29,0,0,1-.81.06l-2.31,0-8.51.08-5.88,0h-3.27c-.57,0-1.12,0-1.73,0a5.55,5.55,0,0,1-1.78-.41,5.75,5.75,0,0,1-2.81-2.47,6.31,6.31,0,0,1-.71-3.83,5.75,5.75,0,0,1,5.7-5.11l15.45,0,6.75,0a5.67,5.67,0,0,1,4.92,3.07,5.77,5.77,0,0,1,.63,2.54,6.35,6.35,0,0,1-.33,2.3,5.55,5.55,0,0,1-2.31,2.86,5.27,5.27,0,0,1-2.19.77A3.12,3.12,0,0,1,363.19,162.12Z"/><path class="c" d="M511.12,162.12s.28,0,.79-.11a5.56,5.56,0,0,0,2.1-.84,5.35,5.35,0,0,0,2.14-2.78,5.82,5.82,0,0,0,.27-2.2,5.21,5.21,0,0,0-.62-2.38,5.28,5.28,0,0,0-4.6-2.81l-6.74,0L489,151a5.25,5.25,0,0,0-5.2,4.65,5.89,5.89,0,0,0,.64,3.53,5.32,5.32,0,0,0,2.56,2.27,8.13,8.13,0,0,0,3.33.41h3.27l5.88,0L508,162l2.31,0a7.37,7.37,0,0,1,.81.05,4.29,4.29,0,0,1-.81.06l-2.31,0-8.51.08-5.88,0h-3.27c-.57,0-1.12,0-1.73,0a5.55,5.55,0,0,1-1.78-.41,5.75,5.75,0,0,1-2.81-2.47,6.31,6.31,0,0,1-.71-3.83,5.75,5.75,0,0,1,5.7-5.11l15.45,0,6.75,0a5.67,5.67,0,0,1,4.92,3.07,5.77,5.77,0,0,1,.63,2.54,6.35,6.35,0,0,1-.33,2.3,5.55,5.55,0,0,1-2.31,2.86,5.27,5.27,0,0,1-2.19.77A3.12,3.12,0,0,1,511.12,162.12Z"/><path class="d" d="M640.84,138h-29.6a10.93,10.93,0,0,0-9.67,5.84h0a10.94,10.94,0,0,0-.33,9.49l11.61,26.37,29.64-.3S648.79,146,640.84,138Z"/><path class="c" d="M229.75,134.26l152.73-2.82,99.4-1.82,32.78-18.93a5.09,5.09,0,0,0,1.51-7.48L495.76,76.4a11.35,11.35,0,0,0-8.94-4.48L375.64,71s-41.86-2.44-74.85,16C266.08,106.49,229.75,134.26,229.75,134.26Z"/><path class="i" d="M299.74,73.79s7.66,3.49,2.68,6.72-82.36,52-82.36,52l-17.79-8C233.78,106.92,265.6,89.88,299.74,73.79Z"/><path class="c" d="M222.55,133.75s-.15.05-.47.12l-1.41.31-5.43,1.12c-4.72.94-11.56,2.26-20,3.72-17,2.92-40.52,6.32-66.69,8.58-6.55.57-12.95,1-19.13,1.44s-12.13.78-17.8,1.3c-11.32,1-21.46,2.64-29.7,5.09a83.73,83.73,0,0,0-18.73,7.81c-2.13,1.13-3.65,2.22-4.72,2.89l-1.22.77-.43.25a4.84,4.84,0,0,1,.4-.29l1.19-.82c1.06-.69,2.56-1.82,4.68-3a81.59,81.59,0,0,1,18.72-8c8.26-2.51,18.43-4.2,29.77-5.21,5.67-.54,11.63-.92,17.81-1.34s12.57-.88,19.11-1.45c26.16-2.26,49.71-5.6,66.68-8.43,8.48-1.41,15.33-2.67,20.06-3.55l5.45-1,1.42-.25A4.44,4.44,0,0,1,222.55,133.75Z"/><path class="c" d="M652.67,202.14c0,.15-10.18.26-22.74.26s-22.73-.11-22.73-.26,10.18-.26,22.73-.26S652.67,202,652.67,202.14Z"/><path class="c" d="M466.44,228.12c0,.15-57.46.26-128.33.26s-128.34-.11-128.34-.26,57.45-.26,128.34-.26S466.44,228,466.44,228.12Z"/><path class="c" d="M64.1,203c0,.15-8.13.26-18.15.26S27.8,203.15,27.8,203s8.13-.26,18.15-.26S64.1,202.86,64.1,203Z"/><path class="i" d="M592.42,91.42s-6.82,7.63-4.14,13.23,30.39,25.22,30.39,25.22l20.11,3.77Z"/><polygon class="i" points="401.22 77.75 396.7 126.58 477.62 124.28 510.23 105.32 489.12 77.75 401.22 77.75"/><path class="i" d="M248.91,129.09S297.73,93.83,317,86.82c18.59-6.76,28.28-8.46,45.74-8.95,16.69-.48,26.86,0,26.86,0l-12.9,49.65Z"/><path class="f" d="M241.77,129.25h0a8.54,8.54,0,0,1,4.36-7.46l11.21-6.3a21.37,21.37,0,0,1,10.48-2.74h0a21.28,21.28,0,0,1,6.65,1.06A12.16,12.16,0,0,1,282.65,125h0A12.35,12.35,0,0,1,270.3,137.8h-20A8.55,8.55,0,0,1,241.77,129.25Z"/><path class="c" d="M241.77,129.25s0,.38.12,1.08a8.84,8.84,0,0,0,1,2.93,8.72,8.72,0,0,0,3.44,3.38,8.25,8.25,0,0,0,2.88.91,32.25,32.25,0,0,0,3.45.07l17.11-.06a13.07,13.07,0,0,0,4.76-.78,12.13,12.13,0,0,0,4.23-2.69,11.93,11.93,0,0,0,2.85-4.33,12.45,12.45,0,0,0,.75-5.29,12.11,12.11,0,0,0-5.05-9,13,13,0,0,0-4.63-2,21.23,21.23,0,0,0-13.62,1.31c-1.29.58-2.47,1.31-3.64,1.94l-3.34,1.86-5.75,3.18a8.61,8.61,0,0,0-3.44,3.39,8.73,8.73,0,0,0-1,2.92c-.1.71-.09,1.09-.12,1.09a4.84,4.84,0,0,1,0-1.1,8.54,8.54,0,0,1,4.4-6.55l5.71-3.26,3.32-1.88c1.16-.64,2.34-1.38,3.66-2a21.45,21.45,0,0,1,8.95-2,21.71,21.71,0,0,1,5,.57,13.25,13.25,0,0,1,4.81,2,12.6,12.6,0,0,1,5.28,9.33,12.8,12.8,0,0,1-.78,5.51,12.69,12.69,0,0,1-7.4,7.31,13.47,13.47,0,0,1-4.93.79l-17.11,0a33,33,0,0,1-3.49-.11,8.65,8.65,0,0,1-3-1,8.86,8.86,0,0,1-3.48-3.54,8.4,8.4,0,0,1-.91-3A6.43,6.43,0,0,1,241.77,129.25Z"/><path class="h" d="M617.88,259.53l0-.69c0-.48.08-1.15.14-2s.16-2,.22-3.3.1-2.82.15-4.51,0-3.59,0-5.65-.15-4.31-.43-6.71a86.58,86.58,0,0,0-2.89-16.08,72.65,72.65,0,0,0-3.19-9,60,60,0,0,0-4.82-9.09,61.91,61.91,0,0,0-15.64-16.31A73.73,73.73,0,0,0,569,175.14c-8.35-2.56-17.42-3.48-26.66-3.55a87.52,87.52,0,0,0-26.6,3.87,75.38,75.38,0,0,0-11.85,4.89,68.33,68.33,0,0,0-10.27,6.72,85.26,85.26,0,0,0-15.84,16.24,62.5,62.5,0,0,0-5.26,8.84,89.2,89.2,0,0,0-3.65,8.78A105.35,105.35,0,0,0,463.11,249c-.16,3.39-.14,6-.05,7.82.05.88.09,1.55.11,2s0,.69,0,.69,0-.23-.07-.69-.1-1.15-.17-2a77.28,77.28,0,0,1,0-7.83,103.1,103.1,0,0,1,5.63-28.17,89.64,89.64,0,0,1,3.62-8.84,64.15,64.15,0,0,1,5.28-8.92,86.08,86.08,0,0,1,15.89-16.36,68.82,68.82,0,0,1,10.34-6.78A76.35,76.35,0,0,1,515.59,175a88,88,0,0,1,26.76-3.9c9.28.06,18.4,1,26.8,3.58a74.3,74.3,0,0,1,22.57,11.16,68.55,68.55,0,0,1,8.84,7.76,54.06,54.06,0,0,1,6.87,8.71,59,59,0,0,1,4.83,9.16,71.13,71.13,0,0,1,3.17,9,85.22,85.22,0,0,1,2.83,16.16c.27,2.4.27,4.65.38,6.72s0,4,0,5.66-.15,3.2-.21,4.52-.19,2.4-.27,3.3-.14,1.55-.18,2S617.88,259.53,617.88,259.53Z"/><path class="h" d="M374.55,134.26l-.23,0-.68,0-2.61.06-9.59.17c-8.1.15-19.28.45-31.64.79s-23.55.57-31.65.63c-4,0-7.33,0-9.6,0l-2.61,0-.67,0-.24,0,.24,0,.67,0,2.61-.06,9.59-.17c8.1-.15,19.29-.45,31.65-.78s23.54-.58,31.65-.64c4.05,0,7.33,0,9.59,0l2.61,0,.68,0Z"/><path class="h" d="M361.29,149.29a72.38,72.38,0,0,1-8.76.26,72.38,72.38,0,0,1-8.76-.26,74.92,74.92,0,0,1,8.76-.26A74.92,74.92,0,0,1,361.29,149.29Z"/><path class="h" d="M364.51,95.78c.05.13-10.82,4.66-24.29,10.11s-24.43,9.76-24.49,9.63,10.82-4.66,24.29-10.11S364.45,95.65,364.51,95.78Z"/><path class="h" d="M342.47,99.19c.06.14-10.3,4.7-23.13,10.19s-23.27,9.84-23.33,9.71,10.3-4.69,23.13-10.19S342.41,99.06,342.47,99.19Z"/><path class="h" d="M482.23,93.89c0,.13-10.82,4.66-24.29,10.11s-24.43,9.76-24.49,9.63,10.82-4.66,24.3-10.11S482.18,93.75,482.23,93.89Z"/><path class="h" d="M460.19,97.3c.06.13-10.3,4.7-23.12,10.19s-23.28,9.84-23.34,9.71S424,112.51,436.86,107,460.14,97.17,460.19,97.3Z"/><path class="h" d="M484.36,134.25c0,.14-21.63.39-48.31.55s-48.31.17-48.31,0,21.62-.39,48.31-.55S484.36,134.1,484.36,134.25Z"/><path class="h" d="M508.31,148.46c0,.14-6.07.31-13.55.38s-13.55,0-13.55-.13,6.06-.32,13.55-.39S508.31,148.31,508.31,148.46Z"/><path class="h" d="M94.16,141.06a2.41,2.41,0,0,1-.59.12l-1.69.22c-.74.08-1.64.19-2.68.37s-2.23.31-3.53.57c-2.61.46-5.7,1.14-9.08,2A112.6,112.6,0,0,0,65.78,148c-3.76,1.49-7.26,3.12-10.37,4.73s-5.82,3.23-8,4.68c-1.13.69-2.11,1.39-3,2s-1.61,1.11-2.21,1.55l-1.39,1a3.1,3.1,0,0,1-.51.32,2.36,2.36,0,0,1,.44-.4l1.34-1.07c.58-.47,1.3-1,2.17-1.63s1.82-1.33,3-2c2.2-1.49,4.92-3.12,8-4.8a110.57,110.57,0,0,1,10.39-4.79,109.41,109.41,0,0,1,10.88-3.55c3.41-.88,6.52-1.53,9.15-1.94,1.3-.24,2.5-.36,3.55-.5s2-.23,2.69-.28l1.71-.13A3.9,3.9,0,0,1,94.16,141.06Z"/><path class="h" d="M272.73,117.47s-.29-.39-1-.93a6.75,6.75,0,0,0-3.31-1.34,14.45,14.45,0,0,0-5.33.58,41,41,0,0,0-16.53,8.51c-2.38,2-3.64,3.47-3.71,3.4a6.43,6.43,0,0,1,.84-1.06,35.27,35.27,0,0,1,2.62-2.62,38.19,38.19,0,0,1,10.28-6.56,37.1,37.1,0,0,1,6.39-2.13,14.17,14.17,0,0,1,5.5-.48,6.42,6.42,0,0,1,3.38,1.55,4.33,4.33,0,0,1,.67.76C272.69,117.35,272.75,117.46,272.73,117.47Z"/><path class="c" d="M594.69,91.06a16,16,0,0,1-4.26.44,27,27,0,0,1-5-.62,45.62,45.62,0,0,1-6.37-2c-2.31-.87-4.77-2-7.43-3.11l-4.15-1.67c-1.43-.57-2.94-1.06-4.46-1.62A174.83,174.83,0,0,0,542.65,77a233.38,233.38,0,0,0-38.09-4.75c-2.46-.13-4.68-.13-6.64-.19h-5l-3.16.07h-.83a.84.84,0,0,1-.28,0,1.91,1.91,0,0,1,.28,0l.82-.06,3.17-.17,5-.09c1.95,0,4.18,0,6.64.12a220.6,220.6,0,0,1,38.18,4.6,166.39,166.39,0,0,1,20.43,5.61c1.53.56,3,1.06,4.48,1.64l4.15,1.71c2.66,1.15,5.11,2.27,7.4,3.16a45.13,45.13,0,0,0,6.29,2,26.49,26.49,0,0,0,4.93.7,22.86,22.86,0,0,0,3.16-.11l.81-.1A1.26,1.26,0,0,1,594.69,91.06Z"/><path class="f" d="M113.56,92.44c-4-21.88-6.69-25.25-9-32.77S98.76,47.25,94.29,45.52c-3-1.16-18.07-6.59-23.31-4.79A65.75,65.75,0,0,0,56.45,48a19.46,19.46,0,0,0-7.58,9.7L40.81,80.3l14.09,14,7.06-15,7.66,18-1.14,18.15,43.94,11.82C116.43,120.87,115.82,104.85,113.56,92.44Z"/><g class="j"><path d="M102.12,68.57c-1.94,11.39-2.25,13-4.19,24.35-.67,3.91-2.62,10-5.4,12.84-2.06,2.09-4.09,4.1-7,4.78-2.66.63-6.71.7-9.21-.4s-4.64-6-3.61-8.51c3.72.8,4.88,2,8.09,0,2.8-1.78,6.78-5.72,8.3-8.67,6.41-12.4,8.18-12.85,13-24.39"/></g><path class="c" d="M70.32,90.64a27.71,27.71,0,0,1-1.94-3c-1.23-2-2.79-4.56-4.53-7.38l-4.63-7.32a26.27,26.27,0,0,1-1.87-3.07,3.82,3.82,0,0,1,.63.74c.38.49.9,1.22,1.54,2.13,1.28,1.82,3,4.37,4.78,7.24s3.33,5.53,4.4,7.48c.54,1,1,1.76,1.24,2.32A3.61,3.61,0,0,1,70.32,90.64Z"/><path class="c" d="M101,111.07a5,5,0,0,1-1,.39,11.34,11.34,0,0,1-1.25.34,16.9,16.9,0,0,1-1.68.35,26.57,26.57,0,0,1-4.44.41,31.4,31.4,0,0,1-5.46-.47,30.81,30.81,0,0,1-5.26-1.49,27,27,0,0,1-4-1.95c-.56-.3-1-.64-1.45-.92a10.93,10.93,0,0,1-1-.76,4.62,4.62,0,0,1-.83-.73c.06-.08,1.3.89,3.5,2.09a30.21,30.21,0,0,0,4,1.82,30.66,30.66,0,0,0,10.54,1.93,32.85,32.85,0,0,0,4.4-.29C99.45,111.44,101,111,101,111.07Z"/><path class="k" d="M83.35,77c-.08.39-4.8,9.79-4.8,9.79L56.27,75,54,65.43a5.94,5.94,0,0,0-2.57-3.64A6,6,0,0,0,46.78,61l-6.57,2.69A1.79,1.79,0,0,0,39.13,65c-.09.48,0,1,.87.89,1.63-.13,5-.49,5-.49l-1.55,5.47a5.81,5.81,0,0,0,.44,4.29l1,1.89,2.17,3.51,0,0s21.66,22.25,33.82,23.7c7.31.87,15.59-19.62,15.59-19.62Z"/><path class="l" d="M44.84,65.74s.17-.24.54-.48a2.9,2.9,0,0,1,1.69-.52,1.76,1.76,0,0,1,1.49,1c.2.44.07.75,0,.73s0-.28-.24-.62a1.73,1.73,0,0,0-1.31-.75,3.39,3.39,0,0,0-1.55.4C45.11,65.65,44.87,65.78,44.84,65.74Z"/><path class="l" d="M47.65,69.15s-.15-.18-.36-.45a2.62,2.62,0,0,0-1-.77A2.49,2.49,0,0,0,45,67.79c-.34,0-.55.12-.57.08s.16-.19.52-.31a2.24,2.24,0,0,1,2.55,1C47.66,68.9,47.68,69.14,47.65,69.15Z"/><path class="f" d="M88,47.31l-6,28.59,16,9.61,6.14-17.57S101.53,46.6,88,47.31Z"/><path class="m" d="M96.59,47.81s-.13.1-.41.26-.68.37-1.21.64c-1.06.54-2.62,1.3-4.57,2.17a67.39,67.39,0,0,1-15.89,5,39.77,39.77,0,0,1-16.62-.57,27.5,27.5,0,0,1-4.77-1.71c-.55-.24-.95-.48-1.23-.62s-.42-.24-.41-.26.62.25,1.72.7A34.79,34.79,0,0,0,58,55a41.24,41.24,0,0,0,16.44.4,72.84,72.84,0,0,0,15.84-4.83c2-.82,3.53-1.53,4.62-2A14.51,14.51,0,0,1,96.59,47.81Z"/><path class="m" d="M100.8,51a3.11,3.11,0,0,1-.45.32L99,52.14a24.17,24.17,0,0,1-2.16,1.26c-.86.45-1.82,1-3,1.5l-1.74.8c-.61.27-1.27.51-1.94.77-1.33.56-2.81,1-4.35,1.51a65.59,65.59,0,0,1-10.32,2.15A64.38,64.38,0,0,1,65,60.45c-1.62-.13-3.16-.22-4.59-.45-.71-.11-1.4-.18-2.06-.3l-1.89-.38c-1.2-.21-2.27-.53-3.21-.77a24.09,24.09,0,0,1-2.39-.71l-1.49-.52a2.12,2.12,0,0,1-.51-.21,1.89,1.89,0,0,1,.54.11l1.52.42c.65.2,1.45.43,2.4.63s2,.51,3.21.69l1.89.34c.65.11,1.34.17,2,.27,1.42.21,3,.29,4.55.4a69.56,69.56,0,0,0,10.45-.35,68.88,68.88,0,0,0,10.25-2.1c1.53-.48,3-.91,4.33-1.45.66-.26,1.32-.48,1.93-.74l1.75-.77c1.13-.46,2.09-1,3-1.42s1.6-.83,2.19-1.17l1.38-.77A1.79,1.79,0,0,1,100.8,51Z"/><path class="c" d="M97.93,85.51a10.41,10.41,0,0,1-1.3-.66l-3.52-2-12-6.93-.15-.09,0-.17c.43-2.14.89-4.43,1.37-6.79.72-3.56,1.41-6.94,2-10,.33-1.54.6-3,.9-4.39a15.85,15.85,0,0,1,1.28-3.71A7.45,7.45,0,0,1,90.7,47a4.59,4.59,0,0,1,1.53-.25,1.48,1.48,0,0,1,.53.06,6.63,6.63,0,0,0-2,.38,7.42,7.42,0,0,0-3.88,3.76,16.12,16.12,0,0,0-1.19,3.65c-.27,1.37-.55,2.84-.85,4.37-.62,3.1-1.3,6.48-2,10-.48,2.37-1,4.66-1.39,6.79l-.12-.26L93.27,82.6l3.45,2.1A10,10,0,0,1,97.93,85.51Z"/><path class="c" d="M102.82,67.09a10.41,10.41,0,0,1-.08,2.67,40,40,0,0,1-1.14,6.33,41.71,41.71,0,0,1-2.12,6.08,10.84,10.84,0,0,1-1.25,2.36,19.06,19.06,0,0,1,.91-2.5,60.58,60.58,0,0,0,2-6.07,63.3,63.3,0,0,0,1.29-6.25A18.85,18.85,0,0,1,102.82,67.09Z"/><path class="i" d="M16.07,226.11l-.18,15.27S.31,246.33,0,249.15l29.58,1.4,1.26-23.77Z"/><path class="e" d="M25.1,240.53a1.21,1.21,0,0,1,.77,1.42,1.17,1.17,0,0,1-1.4.78,1.29,1.29,0,0,1-.81-1.51,1.21,1.21,0,0,1,1.55-.64"/><path class="e" d="M29.59,250.55l0-2.4L1.25,247.7s-1.35.51-1.24,1.45Z"/><path class="c" d="M15.42,241.21c0,.14.71.24,1.4.74s1,1.12,1.18,1.07,0-.89-.89-1.48S15.39,241.07,15.42,241.21Z"/><path class="c" d="M12.25,242.34c0,.14.58.42,1,1s.57,1.29.72,1.29.27-.81-.32-1.59S12.26,242.21,12.25,242.34Z"/><path class="c" d="M10.31,246c.13,0,.37-.67,0-1.48s-1-1.16-1.07-1,.34.56.6,1.23S10.17,246,10.31,246Z"/><path class="c" d="M15.84,237.73c.06.14.73,0,1.54.06s1.44.39,1.52.27-.5-.67-1.46-.77S15.78,237.62,15.84,237.73Z"/><g class="n"><polygon points="16.04 229.14 16 231.86 30.55 232.42 30.68 229.97 16.04 229.14"/></g><path class="c" d="M15.94,234.65a2.74,2.74,0,0,0,1.48.07,6.42,6.42,0,0,0,1.57-.41,5.69,5.69,0,0,0,.87-.41,2,2,0,0,0,.47-.32.64.64,0,0,0,.1-.77.79.79,0,0,0-.62-.36,2,2,0,0,0-.56.05,5.29,5.29,0,0,0-.93.27,5.47,5.47,0,0,0-1.41.83c-.72.61-1,1.14-.93,1.17s.42-.39,1.14-.88a6,6,0,0,1,2.22-.91c.32-.06.59,0,.66.09s0,.08,0,.17a1.42,1.42,0,0,1-.34.23,6.16,6.16,0,0,1-.81.41,7.74,7.74,0,0,1-1.45.49A11.47,11.47,0,0,0,15.94,234.65Z"/><path class="c" d="M16.11,234.87a2.32,2.32,0,0,0,.46-1.41,4.62,4.62,0,0,0-.46-2.55,1.25,1.25,0,0,0-.91-.8.7.7,0,0,0-.63.39,1.75,1.75,0,0,0-.18.53,3.43,3.43,0,0,0-.05,1,3.39,3.39,0,0,0,.56,1.56c.54.8,1.14,1,1.15.95s-.44-.37-.85-1.13a3.4,3.4,0,0,1-.4-1.42,3.12,3.12,0,0,1,.07-.85c.06-.31.19-.56.31-.52s.38.25.49.51A4.69,4.69,0,0,1,16,232a5.32,5.32,0,0,1,.22,1.49C16.22,234.31,16,234.84,16.11,234.87Z"/><path class="c" d="M76.37,115.61S30.16,96.23,15.85,95.4c-9-.53-15.76,5.24-14.54,14.52.61,4.65,13.38,59,13.38,59L34.17,160l-9.36-37.59,38,18.46Z"/><path class="i" d="M19,112.94c-.15.13,1.38,2.1,3,4.71s2.7,4.86,2.88,4.78-.65-2.48-2.3-5.14S19.11,112.82,19,112.94Z"/><path class="i" d="M15.2,115.1c-.1.17,2.23,1.65,5,3.67s4.85,3.79,5,3.65-1.8-2.17-4.58-4.2S15.28,114.94,15.2,115.1Z"/><path class="c" d="M112.42,127.27s-5.81,7.49-11.35,9.53c-7,2.58-58.46,26.87-58.46,26.87s-9.34,69.39-8.6,66.49l-21.55-.52,2.34-63.91c.28-8.18,6.84-17.58,13.89-21.76l47.68-28.36Z"/><path class="i" d="M14.39,177.43a3.38,3.38,0,0,0,.09-.88c0-.64.08-1.48.13-2.51a85.74,85.74,0,0,1,.85-9.19,31.73,31.73,0,0,1,4.66-12.67,24.15,24.15,0,0,1,5.54-5.72A66.54,66.54,0,0,1,33,141.83c10.37-5.94,19.32-12,25.94-16.15,3.3-2.1,6-3.77,7.84-4.91l2.14-1.32a4.6,4.6,0,0,0,.73-.5,4,4,0,0,0-.79.38c-.51.27-1.26.67-2.21,1.21-1.91,1.07-4.63,2.69-8,4.73-6.69,4.06-15.69,10-26,16a64,64,0,0,0-7.38,4.69,24.46,24.46,0,0,0-5.66,5.9A31.65,31.65,0,0,0,15,164.78a72,72,0,0,0-.64,9.25c0,1,0,1.87,0,2.52A4.59,4.59,0,0,0,14.39,177.43Z"/><path class="i" d="M93.4,134.58a18.11,18.11,0,0,0-1.32-1.77,12.94,12.94,0,0,1-2-10,16.18,16.18,0,0,0,.52-2.15,4.82,4.82,0,0,0-1,2,11.47,11.47,0,0,0-.22,5.46,11.32,11.32,0,0,0,2.32,4.94C92.61,134.18,93.36,134.64,93.4,134.58Z"/><path class="i" d="M20.37,229.64s0-.12.07-.35.08-.62.13-1c.11-1,.25-2.33.43-4,.35-3.56.85-8.63,1.46-14.87.3-3.14.63-6.58,1-10.27s.73-7.64,1-11.8.71-8.51,1.47-13a53.2,53.2,0,0,1,4-13.35,45,45,0,0,1,7.82-11.47,71.1,71.1,0,0,1,9.76-8.6,197.42,197.42,0,0,1,18.76-11.71c5.47-3.14,9.83-5.82,12.72-7.84,1.46-1,2.56-1.81,3.3-2.38l.83-.65c.18-.15.28-.23.27-.24a1.27,1.27,0,0,0-.31.18l-.87.6c-.76.53-1.89,1.31-3.36,2.27-2.94,2-7.32,4.56-12.82,7.65A187.9,187.9,0,0,0,47.1,140.38,70.28,70.28,0,0,0,37.22,149a45.3,45.3,0,0,0-7.95,11.64,53.69,53.69,0,0,0-4,13.51c-.75,4.5-1.13,8.87-1.44,13s-.62,8.11-.95,11.8-.62,7.13-.89,10.28c-.53,6.24-.95,11.32-1.25,14.88-.13,1.72-.23,3.08-.31,4.06,0,.43,0,.77-.06,1.05A1.63,1.63,0,0,0,20.37,229.64Z"/><path class="c" d="M71.12,5.54A8.42,8.42,0,0,0,61.49.36a10,10,0,0,1-2.68.58A18.88,18.88,0,0,1,55.55.08,4.9,4.9,0,0,0,50,3.66a6.68,6.68,0,0,0-5.5,1.09,4.32,4.32,0,0,0-1.28,5.18c.39.73,1,1.31,1.39,2.05.59,1.24.32,2.71.73,4A5.41,5.41,0,0,0,50,19.34a15.68,15.68,0,0,0,6-.86"/><path class="k" d="M61.84,45.09c-.25-1.93-.42-3.29-.42-3.29s-6.44,0-9-8c-1.29-4-2.15-10.68-2.68-16.2A8.76,8.76,0,0,1,58,8l17.12-.89.37,2.65L80,42.68A9.14,9.14,0,0,1,72.09,53h0A9.16,9.16,0,0,1,61.84,45.09Z"/><path class="c" d="M52.13,22.31a1.07,1.07,0,0,0,1.18.9,1,1,0,0,0,.93-1.12,1.06,1.06,0,0,0-1.18-.9A1,1,0,0,0,52.13,22.31Z"/><path class="c" d="M51.71,20.83c.15.11.85-.6,2-.78s2.05.26,2.15.1-.12-.3-.52-.5a2.86,2.86,0,0,0-1.75-.25,2.7,2.7,0,0,0-1.55.79C51.71,20.51,51.63,20.77,51.71,20.83Z"/><path class="c" d="M62.87,20.49a1.07,1.07,0,0,0,1.18.89A1,1,0,0,0,65,20.26a1,1,0,0,0-1.18-.89A1,1,0,0,0,62.87,20.49Z"/><path class="c" d="M62.85,19.27c.15.12.85-.6,2-.77s2,.25,2.15.09-.12-.29-.52-.5a3,3,0,0,0-1.75-.25,2.84,2.84,0,0,0-1.55.79C62.85,19,62.77,19.22,62.85,19.27Z"/><path class="c" d="M60.08,28.3a8.29,8.29,0,0,0-1.89,0c-.29,0-.57,0-.65-.18a1.47,1.47,0,0,1,.05-.89c.16-.74.33-1.52.51-2.33a39.85,39.85,0,0,0,1-6.05,38.87,38.87,0,0,0-1.49,6c-.16.82-.32,1.6-.46,2.34a1.66,1.66,0,0,0,0,1.16.73.73,0,0,0,.54.35,2.7,2.7,0,0,0,.5,0A7.05,7.05,0,0,0,60.08,28.3Z"/><path class="l" d="M61.42,41.8a21.11,21.11,0,0,0,10.51-4.67s-1.77,6-10.09,6.59Z"/><path class="c" d="M63.53,28.56c-.19,0,0,1.24-.91,2.28S60.39,32,60.4,32.12s.33.2.89.12a3,3,0,0,0,1.86-1,2.65,2.65,0,0,0,.68-1.9C63.8,28.82,63.61,28.54,63.53,28.56Z"/><path class="c" d="M61.85,14.89c.16.29,1.27,0,2.62-.09s2.48.14,2.61-.16-.17-.41-.65-.63a4.52,4.52,0,0,0-4,.19C62,14.47,61.78,14.75,61.85,14.89Z"/><path class="c" d="M51.6,17.49c.24.22,1-.17,1.91-.33s1.76-.1,1.9-.4c.06-.14-.11-.38-.49-.57A2.78,2.78,0,0,0,53.29,16a2.6,2.6,0,0,0-1.44.76C51.56,17.1,51.49,17.38,51.6,17.49Z"/><path class="c" d="M48.86,14s4.53,1.53,9.73-2C62,9.76,66.14,8.33,67.17,9s1.7,4.34,5.45,5c0,0,.66,7.2,3.49,6.58,2-.44.83-8.38,0-12.91a4,4,0,0,0-3.74-3.21l-5.27-.21L60.51,6,53.45,7.94l-5.37,2.23Z"/><path class="k" d="M75.48,17.6c.1-.07,4.47-2.37,5.28,2.4s-4.14,4.59-4.18,4.46S75.48,17.6,75.48,17.6Z"/><path class="l" d="M77.73,22.4s.1.05.25.09a.85.85,0,0,0,.62-.09,2.11,2.11,0,0,0,.64-2,2.78,2.78,0,0,0-.43-1.15,1,1,0,0,0-.74-.53.43.43,0,0,0-.45.31c0,.14,0,.23,0,.25s-.11-.07-.11-.27a.5.5,0,0,1,.14-.33.65.65,0,0,1,.44-.2,1.18,1.18,0,0,1,1,.59,2.93,2.93,0,0,1,.51,1.28,2.17,2.17,0,0,1-.86,2.27.91.91,0,0,1-.78,0C77.76,22.52,77.72,22.42,77.73,22.4Z"/><path class="i" d="M51.15,1.9s.16.26.5.64a4.11,4.11,0,0,0,1.8,1.16,6,6,0,0,0,3.18.14,29.53,29.53,0,0,0,3.85-1.22,10.5,10.5,0,0,1,4.08-.73,4.56,4.56,0,0,1,3.11,1.39,3.32,3.32,0,0,1,1,2.09,1.37,1.37,0,0,1-.14.83s0-.3-.06-.81a3.33,3.33,0,0,0-1-1.85,4.21,4.21,0,0,0-2.86-1.17,10.64,10.64,0,0,0-3.89.74,25.33,25.33,0,0,1-3.93,1.2,6.14,6.14,0,0,1-3.39-.26,4,4,0,0,1-1.84-1.38C51.18,2.21,51.12,1.91,51.15,1.9Z"/><path class="i" d="M67.26,6.47s-.24-.25-.74-.6a4.49,4.49,0,0,0-2.4-.71,7.77,7.77,0,0,0-3.64.89,38.53,38.53,0,0,1-4.34,2,10.81,10.81,0,0,1-8.55-.93,9.52,9.52,0,0,1-2.1-1.62c-.43-.45-.63-.74-.6-.76a16.83,16.83,0,0,0,2.88,2.05A10.8,10.8,0,0,0,56,7.58a44.05,44.05,0,0,0,4.3-2,7.7,7.7,0,0,1,3.86-.82,4.35,4.35,0,0,1,2.5.91A1.83,1.83,0,0,1,67.26,6.47Z"/><path class="k" d="M52.45,87.73,29.23,67.94l-7.66,1.73s8.07,16.78,13.91,22.92c0,0,5.77,7.73,15.29,4.39S52.45,87.73,52.45,87.73Z"/><path class="i" d="M27.47,46.14H17.6a2.51,2.51,0,0,0-2.29,3.15l9.93,19.33a2.23,2.23,0,0,0,2,1.22l12,0a1.73,1.73,0,0,0,1.31-2.55L31,48.34A4,4,0,0,0,27.47,46.14Z"/><path class="c" d="M26.81,47.31H16.94a1.65,1.65,0,0,0-1.48,2.4l9.69,18.91a2.26,2.26,0,0,0,2,1.22h11.9a1,1,0,0,0,.87-1.41L30.34,49.51A3.93,3.93,0,0,0,26.81,47.31Z"/><path class="k" d="M26,55.22l-6,2.4-1.28,4.84,2.89,7.21,10.61,1.54L29.07,68l.4-2.77s3-.93,3-1.38-.37-2-.82-2a22.79,22.79,0,0,0-3.56,1.09S31.8,60,31.7,59.55s-.5-1.66-1.23-1.8-6.67,2.67-6.67,2.67l-1,2.19L22,59.1S27.27,57.62,26,55.22Z"/><path class="l" d="M26.72,66.57s-.14-.21-.2-.6a3.15,3.15,0,0,1,.18-1.51,3.27,3.27,0,0,1,.85-1.27c.3-.26.53-.35.55-.32A6.25,6.25,0,0,0,27,64.57,7.27,7.27,0,0,0,26.72,66.57Z"/><path class="l" d="M23.87,65.52A13.41,13.41,0,0,0,24.11,64a6.42,6.42,0,0,1,.3-1.74,2.69,2.69,0,0,1,.55-.93,2.81,2.81,0,0,1,1-.62c1.44-.52,2.73-.94,3.68-1.25A8.88,8.88,0,0,1,31.17,59a8.18,8.18,0,0,1-1.48.64c-.92.35-2.22.82-3.63,1.33a2.38,2.38,0,0,0-.88.54,2.24,2.24,0,0,0-.5.82A7,7,0,0,0,24.33,64,3.19,3.19,0,0,1,23.87,65.52Z"/><path class="l" d="M22.49,64.44a2.4,2.4,0,0,1,0-1.19c.11-.64.26-1.14.34-1.13s.07.54,0,1.18S22.58,64.45,22.49,64.44Z"/><path class="d" d="M22.33,51a1.26,1.26,0,1,0,1.26-1.25A1.25,1.25,0,0,0,22.33,51Z"/></svg>