<svg xmlns="http://www.w3.org/2000/svg" viewBox="0 0 771.5 434.27"><defs><style>.a{fill:#fff;}.b{fill:#fbc83e;}.c{fill:#e5af28;}.d{fill:#e0a205;}.e{opacity:0.5;}.f{fill:#aac9f5;}.g{fill:#cde0fb;}.h{opacity:0.7;}.i{fill:#f2ae14;}.j{fill:#dceaff;}.k{fill:#eef2f8;}.l{fill:#ffbb83;}.m{fill:#5e425b;}.n{fill:#302833;}.o{fill:#493e4c;}.p{fill:#372e3a;}.q{fill:#ea8e50;}.r{fill:#4f364d;}.s{fill:#723939;}.t{fill:#fc9490;}.u{fill:#1e3d70;}.v{fill:#ffb07b;}</style></defs><path class="a" d="M25.54,433.67s-65.36-101.31,13-210.37c120.93-168.19,280-61.92,341.85-160.65,84.36-134.64,403.7-40,350.39,167.14C705,330,809.34,333.68,756.18,433.88Z"/><path class="b" d="M649.73,302.29c-10.6-19.08-43.54-4.14-43.54-4.14S591.61,339.76,585,342.3s5.51-38,5.51-38c-13.53,2-43.19,26.54-43.19,26.54s12.48,41.24,5.45,42.07-9.19-37.08-9.19-37.08c-11.83,7-20.07,24.88-20.07,24.88-8.9,28,27.5,38,27.5,38l2.46,30.86c1.57-7.34,4-17,6.68-19.55a7.28,7.28,0,0,1-1.15-1.41l1.15,1.41c9.13,11.31,39.49,6,55.27-1.48s7.37-10.42-3.47-15.81-29.09,1.26-35.37-.35,1.08-6.6,12.37-8.5,19.58,7.82,37.91,5.09,23.62-39.78,23.62-39.78c-11.41,6.9-35.27,5.57-37.17,1.52s31-11.76,35.81-14.3S660.34,321.38,649.73,302.29Z"/><path class="b" d="M519.56,59.31c-8-14.37-32.79-3.12-32.79-3.12s-11,31.33-15.95,33.24S475,60.82,475,60.82c-10.18,1.5-32.51,20-32.51,20s9.39,31.06,4.1,31.69-6.92-27.92-6.92-27.92c-8.91,5.27-15.11,18.73-15.11,18.73-6.7,21.07,20.7,28.59,20.7,28.59s3,10.83-.61,25h0a38.09,38.09,0,0,0-1.52,7l2.62-.65c0-.76.11-1.5.21-2.21V161c.08-.45.19-1.09.34-1.87h0c.41-1.77.67-3.06.8-4h0c1.19-5.52,3.06-12.8,5-14.72a5.49,5.49,0,0,1-.86-1.06l.86,1.06c6.88,8.51,29.74,4.55,41.62-1.11s5.55-7.85-2.61-11.91-21.9.95-26.63-.26.81-5,9.31-6.4,14.74,5.89,28.54,3.83,17.78-29.95,17.78-29.95c-8.59,5.19-26.54,4.19-28,1.14s23.35-8.85,27-10.76S527.55,73.68,519.56,59.31Z"/><polygon class="b" points="305.48 253.95 213.94 319.37 126.73 197.32 126.72 197.32 89.98 145.9 181.52 80.48 250.13 176.5 305.48 253.95"/><path class="a" d="M288.16,251.35l-71.07,50.78L105.67,146.21l71.07-50.78Zm-63.9,42.39,53.6-38.3a8.1,8.1,0,0,0,1.88-11.3L180.92,105.85a8.25,8.25,0,0,0-11.5-1.92L116,142.08a8.17,8.17,0,0,0-1.89,11.4L213,291.87A8.06,8.06,0,0,0,224.26,293.74Z"/><path class="a" d="M177.79,212.45a23.51,23.51,0,1,1,32.79,5.45A23.51,23.51,0,0,1,177.79,212.45Z"/><polygon class="b" points="384.43 238.55 274.21 261.14 244.1 114.19 244.1 114.18 231.41 52.27 341.63 29.68 365.32 145.29 384.43 238.55"/><path class="a" d="M369.66,229.13l-85.57,17.54L245.62,58.93,331.19,41.4Zm-75.61,12.78,64.54-13.22a8.11,8.11,0,0,0,6.31-9.56L330.78,52.61a8.26,8.26,0,0,0-9.73-6.42L256.77,59.37A8.17,8.17,0,0,0,250.4,69l34.14,166.63A8.07,8.07,0,0,0,294.05,241.91Z"/><circle class="a" cx="307.64" cy="144.03" r="23.5" transform="translate(138.94 438.87) rotate(-85.31)"/><path class="b" d="M153.27,278.81s6.22,10.53,11.91,10.68,14.37-4.88,14.37-4.88,5.23-14,1.68-19.52c0,0-3.56-1.88-7.28,1.44a12.18,12.18,0,0,0-1.92,2.22,6.26,6.26,0,0,1-3,2.44c-4.07,1.49-8.89-2-10.7,1.36A22.28,22.28,0,0,1,155.2,277,14.66,14.66,0,0,1,153.27,278.81Z"/><path class="c" d="M242.41,432.75s15.26-133.86-69.62-143.26c0,0-65.87,15.68-49.44,143.26Z"/><path class="b" d="M183.62,291.44s-15.85,4.24-20.74,1.75c0,0-.74-8,5.94-6.86,4.56.77,7.54-1.87,9.29-2.94C180.59,281.87,184.28,288.11,183.62,291.44Z"/><path class="c" d="M169.83,279.42c1,.92,4.12-12.89,4.12-12.89a12.18,12.18,0,0,0-1.92,2.22,6.26,6.26,0,0,1-3,2.44C169,271.59,168.84,278.53,169.83,279.42Z"/><path class="c" d="M155.2,277c.22.16,7.55,5.44,8.54,5.44s-5.4-9.92-5.4-9.92A22.28,22.28,0,0,1,155.2,277Z"/><circle class="d" cx="151.4" cy="394.05" r="38.7"/><circle class="b" cx="148.02" cy="394.05" r="38.7"/><path class="a" d="M148,429.77A35.27,35.27,0,1,1,173,419.44,35,35,0,0,1,148,429.77Zm0-68.43a33.16,33.16,0,1,0,33.16,33.16A33.2,33.2,0,0,0,148,361.34Z"/><g class="e"><path class="f" d="M490.4,163.27l21.5,82.26a6.85,6.85,0,0,1-4.88,8.33l-144.3,37.72a6.85,6.85,0,0,1-8.33-4.88l-21.5-82.26a6.84,6.84,0,0,1,4.88-8.32l144.3-37.72A6.84,6.84,0,0,1,490.4,163.27Z"/><path class="g" d="M403.3,261.71l-38.46,10.05a3.05,3.05,0,0,1-3.73-2.18l-.1-.37a3.07,3.07,0,0,1,2.19-3.73l38.46-10.06a3.08,3.08,0,0,1,3.73,2.19l.09.37A3.05,3.05,0,0,1,403.3,261.71Z"/><rect class="g" x="411" y="247.1" width="45.87" height="6.5" rx="3.06" transform="translate(-49.21 117.88) rotate(-14.65)"/><path class="g" d="M410.44,218.73a7.54,7.54,0,0,1,.17,3.64,3.16,3.16,0,0,1-2.41,2.44,3.12,3.12,0,0,1-3.29-.95,7.35,7.35,0,0,1-1.64-3.26,7.6,7.6,0,0,1-.18-3.62,3.38,3.38,0,0,1,5.73-1.49A7.47,7.47,0,0,1,410.44,218.73Zm-1.77.46a7.15,7.15,0,0,0-.88-2.14c-.54-.82-1.16-1.14-1.85-1s-1.11.76-1.18,1.72a7,7,0,0,0,.28,2.32q.93,3.59,2.77,3.11c.7-.19,1.08-.77,1.15-1.76A7.25,7.25,0,0,0,408.67,219.19Z"/><path class="g" d="M418.33,216.67a7.26,7.26,0,0,1,.17,3.63,3.34,3.34,0,0,1-5.7,1.49,8.81,8.81,0,0,1-1.81-6.87,3.37,3.37,0,0,1,5.73-1.5A7.34,7.34,0,0,1,418.33,216.67Zm-1.76.45a7.26,7.26,0,0,0-.88-2.14c-.54-.81-1.16-1.13-1.86-.95s-1.1.76-1.17,1.73a7.2,7.2,0,0,0,.27,2.31q.94,3.59,2.77,3.11c.71-.18,1.09-.77,1.15-1.75A7.3,7.3,0,0,0,416.57,217.12Z"/><path class="g" d="M430.3,213.54a7.42,7.42,0,0,1,.17,3.64,3.35,3.35,0,0,1-5.7,1.49,8.84,8.84,0,0,1-1.81-6.88,3.38,3.38,0,0,1,5.72-1.5A7.46,7.46,0,0,1,430.3,213.54Zm-1.76.45a7.34,7.34,0,0,0-.88-2.13q-.81-1.23-1.86-1c-.71.19-1.1.77-1.17,1.73a7.17,7.17,0,0,0,.27,2.31c.62,2.4,1.55,3.43,2.77,3.11.7-.18,1.09-.77,1.15-1.75A7.6,7.6,0,0,0,428.54,214Z"/><path class="g" d="M438.2,211.47a7.54,7.54,0,0,1,.17,3.64,3.35,3.35,0,0,1-5.7,1.49,7.36,7.36,0,0,1-1.64-3.25,7.46,7.46,0,0,1-.17-3.62,3.37,3.37,0,0,1,5.72-1.5A7.47,7.47,0,0,1,438.2,211.47Zm-1.77.46a7.26,7.26,0,0,0-.88-2.14c-.54-.82-1.16-1.13-1.85-.95s-1.11.76-1.17,1.73a6.67,6.67,0,0,0,.27,2.31q.93,3.59,2.77,3.11c.7-.19,1.09-.77,1.15-1.75A7.34,7.34,0,0,0,436.43,211.93Z"/><path class="g" d="M446.1,209.41a7.4,7.4,0,0,1,.16,3.64,3.35,3.35,0,0,1-5.7,1.49,7.45,7.45,0,0,1-1.63-3.26,7.36,7.36,0,0,1-.18-3.62,3.38,3.38,0,0,1,5.73-1.49A7.47,7.47,0,0,1,446.1,209.41Zm-1.77.45a7.19,7.19,0,0,0-.88-2.13q-.81-1.23-1.86-1c-.71.19-1.1.77-1.17,1.73a7.23,7.23,0,0,0,.27,2.32c.63,2.39,1.55,3.42,2.77,3.11.71-.19,1.09-.77,1.15-1.76A7.3,7.3,0,0,0,444.33,209.86Z"/><path class="g" d="M454,207.35a7.38,7.38,0,0,1,.17,3.63,3.35,3.35,0,0,1-5.7,1.49,8.81,8.81,0,0,1-1.81-6.87,3.37,3.37,0,0,1,5.73-1.5A7.34,7.34,0,0,1,454,207.35Zm-1.76.45a7.54,7.54,0,0,0-.88-2.14c-.54-.81-1.16-1.13-1.86-.95s-1.1.76-1.17,1.73a7.2,7.2,0,0,0,.27,2.31q.95,3.58,2.77,3.11c.71-.18,1.09-.77,1.15-1.75A7.3,7.3,0,0,0,452.23,207.8Z"/><path class="g" d="M466,204.22a7.42,7.42,0,0,1,.17,3.64,3.35,3.35,0,0,1-5.7,1.49,8.84,8.84,0,0,1-1.81-6.88,3.37,3.37,0,0,1,5.72-1.5A7.51,7.51,0,0,1,466,204.22Zm-1.77.45a7.55,7.55,0,0,0-.87-2.14c-.55-.81-1.17-1.13-1.86-.95s-1.11.77-1.17,1.73a6.67,6.67,0,0,0,.27,2.31c.62,2.4,1.55,3.43,2.77,3.11.7-.18,1.09-.77,1.15-1.75A7.34,7.34,0,0,0,464.19,204.67Z"/><path class="g" d="M473.86,202.15a7.41,7.41,0,0,1,.16,3.64,3.34,3.34,0,0,1-5.69,1.49,7.36,7.36,0,0,1-1.64-3.25,7.61,7.61,0,0,1-.18-3.62,3.37,3.37,0,0,1,5.73-1.5A7.47,7.47,0,0,1,473.86,202.15Zm-1.77.46a7.26,7.26,0,0,0-.88-2.14c-.54-.82-1.16-1.13-1.86-.95s-1.1.76-1.17,1.73a7.2,7.2,0,0,0,.27,2.31q.94,3.58,2.77,3.11c.71-.19,1.09-.77,1.15-1.75A7.24,7.24,0,0,0,472.09,202.61Z"/><path class="g" d="M481.75,200.09a7.3,7.3,0,0,1,.17,3.64,3.35,3.35,0,0,1-5.7,1.49,7.51,7.51,0,0,1-1.63-3.26,7.36,7.36,0,0,1-.18-3.62,3.38,3.38,0,0,1,5.73-1.5A7.45,7.45,0,0,1,481.75,200.09Zm-1.76.45a7.34,7.34,0,0,0-.88-2.13q-.81-1.23-1.86-1c-.71.19-1.1.77-1.17,1.73a7.14,7.14,0,0,0,.27,2.31c.63,2.4,1.55,3.43,2.77,3.11.71-.18,1.09-.77,1.15-1.75A7.3,7.3,0,0,0,480,200.54Z"/><path class="g" d="M489.65,198a7.42,7.42,0,0,1,.17,3.64,3.35,3.35,0,0,1-5.7,1.49,8.81,8.81,0,0,1-1.81-6.87,3.37,3.37,0,0,1,5.72-1.5A7.47,7.47,0,0,1,489.65,198Zm-1.77.46a7.55,7.55,0,0,0-.87-2.14c-.55-.82-1.16-1.13-1.86-1s-1.11.76-1.17,1.73a7.2,7.2,0,0,0,.27,2.31c.62,2.39,1.55,3.43,2.77,3.11.7-.18,1.09-.77,1.15-1.75A7.34,7.34,0,0,0,487.88,198.48Z"/><path class="g" d="M385.52,197.07l-37.63,9.84a3.08,3.08,0,0,1-3.74-2.19h0a3.07,3.07,0,0,1,2.19-3.73L384,191.15a3.08,3.08,0,0,1,3.73,2.19h0A3.08,3.08,0,0,1,385.52,197.07Z"/><path class="g" d="M476.58,180a4.7,4.7,0,0,0-1.75-2.59.51.51,0,0,0-.73.16l-.13.22a.51.51,0,0,0,.13.65,3.38,3.38,0,0,1,1.26,1.87,3.48,3.48,0,0,1-.18,2.26.5.5,0,0,0,.2.62l.23.13a.49.49,0,0,0,.71-.22A4.69,4.69,0,0,0,476.58,180Z"/><path class="g" d="M479,179.36a7.17,7.17,0,0,0-2.95-4.16.49.49,0,0,0-.7.17l-.08.13a.51.51,0,0,0,.16.67,6.06,6.06,0,0,1,2,7.72.5.5,0,0,0,.19.66l.13.07a.5.5,0,0,0,.7-.2A7.14,7.14,0,0,0,479,179.36Z"/><path class="g" d="M481.15,178.8a9.4,9.4,0,0,0-4-5.52.5.5,0,0,0-.7.17h0a.51.51,0,0,0,.16.67,8.4,8.4,0,0,1,2.87,11,.5.5,0,0,0,.19.66h0a.49.49,0,0,0,.69-.2A9.35,9.35,0,0,0,481.15,178.8Z"/><path class="g" d="M483.47,178.19a11.81,11.81,0,0,0-5.12-7,.5.5,0,0,0-.7.18l-.13.22a.5.5,0,0,0,.17.67,10.55,10.55,0,0,1,3.64,13.92.49.49,0,0,0,.18.66l.22.14a.51.51,0,0,0,.7-.2A11.82,11.82,0,0,0,483.47,178.19Z"/><path class="g" d="M367.11,278.43a3.43,3.43,0,0,1,.08,1.75,1.62,1.62,0,0,1-2.75.72,4.31,4.31,0,0,1-.87-3.32,1.62,1.62,0,0,1,2.76-.72A3.46,3.46,0,0,1,367.11,278.43Zm-.85.22a3.63,3.63,0,0,0-.42-1,.81.81,0,0,0-.9-.45c-.34.09-.53.36-.56.83a3.06,3.06,0,0,0,.13,1.11c.3,1.16.74,1.66,1.33,1.5.34-.08.53-.37.56-.84A3.65,3.65,0,0,0,366.26,278.65Z"/><path class="g" d="M370.92,277.43a3.58,3.58,0,0,1,.08,1.76,1.5,1.5,0,0,1-1.16,1.17,1.52,1.52,0,0,1-1.59-.46,3.46,3.46,0,0,1-.78-1.57,3.52,3.52,0,0,1-.09-1.74,1.5,1.5,0,0,1,1.17-1.18,1.52,1.52,0,0,1,1.59.46A3.57,3.57,0,0,1,370.92,277.43Zm-.85.22a3.55,3.55,0,0,0-.42-1c-.27-.4-.56-.55-.9-.46s-.53.37-.57.83a3.64,3.64,0,0,0,.13,1.12c.31,1.15.75,1.65,1.34,1.5.34-.09.53-.37.56-.85A3.65,3.65,0,0,0,370.07,277.65Z"/><path class="g" d="M373.23,274.53a.54.54,0,0,1,0,.25l-.91,4.62c0,.23-.14.36-.3.4a.32.32,0,0,1-.27,0,.34.34,0,0,1-.17-.22.53.53,0,0,1,0-.25l.93-4.62a.43.43,0,0,1,.29-.39.39.39,0,0,1,.28,0A.29.29,0,0,1,373.23,274.53Z"/><path class="g" d="M377.33,275.75a3.6,3.6,0,0,1,.09,1.76,1.55,1.55,0,0,1-1.17,1.18,1.51,1.51,0,0,1-1.58-.46,3.62,3.62,0,0,1-.79-1.57,3.56,3.56,0,0,1-.09-1.75,1.55,1.55,0,0,1,1.17-1.18,1.51,1.51,0,0,1,1.59.46A3.47,3.47,0,0,1,377.33,275.75Zm-.85.22a3.67,3.67,0,0,0-.42-1,.83.83,0,0,0-.9-.46c-.34.09-.53.37-.56.84a3.32,3.32,0,0,0,.13,1.11c.3,1.16.75,1.66,1.33,1.5.34-.09.53-.37.56-.84A3.45,3.45,0,0,0,376.48,276Z"/><path class="g" d="M381.14,274.76a3.43,3.43,0,0,1,.08,1.75,1.61,1.61,0,0,1-2.74.72,3.46,3.46,0,0,1-.79-1.57,3.52,3.52,0,0,1-.09-1.74,1.63,1.63,0,0,1,2.76-.73A3.46,3.46,0,0,1,381.14,274.76Zm-.85.22a3.44,3.44,0,0,0-.42-1c-.26-.4-.56-.55-.9-.46a.8.8,0,0,0-.56.83,3.35,3.35,0,0,0,.13,1.12c.3,1.15.74,1.65,1.33,1.5.34-.09.53-.37.56-.85A3.65,3.65,0,0,0,380.29,275Z"/><path class="g" d="M385,273.76a3.47,3.47,0,0,1,.08,1.76,1.62,1.62,0,0,1-2.75.72,3.62,3.62,0,0,1-.78-1.57,3.56,3.56,0,0,1-.09-1.75,1.62,1.62,0,0,1,2.76-.72A3.57,3.57,0,0,1,385,273.76Zm-.85.22a3.55,3.55,0,0,0-.42-1c-.26-.39-.56-.55-.9-.46s-.53.37-.56.84a3.08,3.08,0,0,0,.13,1.11c.3,1.15.74,1.65,1.33,1.5.34-.09.53-.37.56-.84A3.75,3.75,0,0,0,384.1,274Z"/><path class="g" d="M388.76,272.77a3.54,3.54,0,0,1,.08,1.75,1.5,1.5,0,0,1-1.16,1.18,1.52,1.52,0,0,1-1.59-.46,3.57,3.57,0,0,1-.79-1.57,3.67,3.67,0,0,1-.08-1.75,1.63,1.63,0,0,1,2.76-.72A3.67,3.67,0,0,1,388.76,272.77Zm-.85.22a3.44,3.44,0,0,0-.42-1c-.27-.4-.56-.55-.9-.46s-.53.36-.57.83a3.67,3.67,0,0,0,.13,1.12c.31,1.15.75,1.65,1.34,1.5.34-.09.53-.38.56-.85A3.65,3.65,0,0,0,387.91,273Z"/></g><path class="b" d="M514.8,162.81s17.65-37.75,28-34.62S514.8,162.81,514.8,162.81Z"/><path class="b" d="M501.92,180s43.15-43.89,60.38-36.35-10.11,16.47-20.56,19S501.92,180,501.92,180Z"/><path class="b" d="M509.65,160.41c-.82-4-2.2-10.5-3.27-13.73-1.61-4.9.91-9.81,7.06-6.59s-3.1,23.79-3.1,23.79S510.07,162.47,509.65,160.41Z"/><g class="e"><path class="b" d="M686,144.17l17.83,68.2a5.66,5.66,0,0,1-4,6.9L580.11,250.55a5.68,5.68,0,0,1-6.9-4l-17.83-68.2a5.69,5.69,0,0,1,4-6.91l119.64-31.27A5.66,5.66,0,0,1,686,144.17Z"/><g class="h"><path class="d" d="M613.76,225.79l-31.89,8.33a2.54,2.54,0,0,1-3.09-1.81l-.08-.31a2.53,2.53,0,0,1,1.81-3.09l31.88-8.34a2.56,2.56,0,0,1,3.1,1.82l.08.3A2.55,2.55,0,0,1,613.76,225.79Z"/><path class="d" d="M655.78,214.8l-31.89,8.34a2.55,2.55,0,0,1-3.09-1.81l-.08-.31a2.54,2.54,0,0,1,1.81-3.1l31.88-8.33a2.55,2.55,0,0,1,3.1,1.81l.08.31A2.55,2.55,0,0,1,655.78,214.8Z"/><path class="d" d="M619.67,190.15a6.09,6.09,0,0,1,.14,3,2.77,2.77,0,0,1-4.72,1.23,7.23,7.23,0,0,1-1.5-5.7,2.8,2.8,0,0,1,4.74-1.24A6.12,6.12,0,0,1,619.67,190.15Zm-1.46.38a5.86,5.86,0,0,0-.73-1.77c-.45-.68-1-.94-1.54-.79s-.91.63-1,1.43a5.81,5.81,0,0,0,.23,1.92c.51,2,1.28,2.84,2.29,2.58.59-.16.9-.64,1-1.46A6.41,6.41,0,0,0,618.21,190.53Z"/><path class="d" d="M626.22,188.44a6.21,6.21,0,0,1,.14,3,2.77,2.77,0,0,1-4.72,1.23,6.17,6.17,0,0,1-1.36-2.7,6.27,6.27,0,0,1-.15-3,2.8,2.8,0,0,1,4.75-1.24A6.12,6.12,0,0,1,626.22,188.44Zm-1.46.38A6.32,6.32,0,0,0,624,187c-.45-.67-1-.94-1.54-.78s-.92.63-1,1.43a5.77,5.77,0,0,0,.22,1.92c.52,2,1.29,2.84,2.3,2.57.58-.15.9-.63,1-1.45A6.06,6.06,0,0,0,624.76,188.82Z"/><path class="d" d="M636.14,185.85a6,6,0,0,1,.14,3,2.77,2.77,0,0,1-4.72,1.24,6.23,6.23,0,0,1-1.36-2.7,6.13,6.13,0,0,1-.14-3,2.79,2.79,0,0,1,4.74-1.24A6.07,6.07,0,0,1,636.14,185.85Zm-1.46.37a5.86,5.86,0,0,0-.73-1.77c-.45-.68-1-.94-1.54-.79s-.92.63-1,1.44a6,6,0,0,0,.22,1.91c.52,2,1.29,2.84,2.3,2.58.59-.15.9-.64.95-1.45A6.15,6.15,0,0,0,634.68,186.22Z"/><path class="d" d="M642.69,184.14a6.17,6.17,0,0,1,.14,3,2.78,2.78,0,0,1-4.73,1.24,7.33,7.33,0,0,1-1.5-5.7,2.8,2.8,0,0,1,4.75-1.24A6.07,6.07,0,0,1,642.69,184.14Zm-1.46.37a6.13,6.13,0,0,0-.73-1.77c-.45-.68-1-.94-1.54-.79a1.38,1.38,0,0,0-1,1.43,5.74,5.74,0,0,0,.22,1.92c.52,2,1.29,2.84,2.3,2.58.58-.15.9-.64,1-1.45A6.12,6.12,0,0,0,641.23,184.51Z"/><path class="d" d="M649.24,182.42a6.21,6.21,0,0,1,.14,3,2.79,2.79,0,0,1-4.73,1.24,7.34,7.34,0,0,1-1.5-5.71,2.59,2.59,0,0,1,2-2,2.62,2.62,0,0,1,2.74.78A6.23,6.23,0,0,1,649.24,182.42Zm-1.47.38a6.13,6.13,0,0,0-.72-1.77c-.45-.68-1-.94-1.55-.79s-.91.63-1,1.43a6.08,6.08,0,0,0,.23,1.92c.52,2,1.28,2.84,2.29,2.58.59-.16.91-.64,1-1.46A5.82,5.82,0,0,0,647.77,182.8Z"/><path class="d" d="M655.78,180.71a6.09,6.09,0,0,1,.14,3A2.77,2.77,0,0,1,651.2,185a7.2,7.2,0,0,1-1.5-5.7,2.8,2.8,0,0,1,4.74-1.24A6.12,6.12,0,0,1,655.78,180.71Zm-1.46.38a5.86,5.86,0,0,0-.73-1.77c-.45-.68-1-.94-1.54-.79s-.91.63-1,1.43a5.81,5.81,0,0,0,.23,1.92c.51,2,1.28,2.84,2.29,2.58.59-.16.9-.64,1-1.46A6.41,6.41,0,0,0,654.32,181.09Z"/><path class="d" d="M665.71,178.12a6.21,6.21,0,0,1,.14,3,2.78,2.78,0,0,1-4.73,1.23,6.12,6.12,0,0,1-1.35-2.7,6,6,0,0,1-.15-3,2.79,2.79,0,0,1,4.75-1.24A6.23,6.23,0,0,1,665.71,178.12Zm-1.47.38a6,6,0,0,0-.73-1.78c-.45-.67-1-.94-1.54-.79s-.91.64-1,1.44a5.72,5.72,0,0,0,.23,1.91c.52,2,1.28,2.85,2.29,2.58.59-.15.91-.64,1-1.45A6.1,6.1,0,0,0,664.24,178.5Z"/><path class="d" d="M672.25,176.41a6.05,6.05,0,0,1,.14,3,2.77,2.77,0,0,1-4.72,1.24,6.23,6.23,0,0,1-1.36-2.7,6.13,6.13,0,0,1-.14-3,2.79,2.79,0,0,1,4.74-1.24A6.12,6.12,0,0,1,672.25,176.41Zm-1.46.37a6,6,0,0,0-.73-1.77c-.45-.68-1-.94-1.54-.79a1.39,1.39,0,0,0-1,1.44,6,6,0,0,0,.22,1.91c.52,2,1.29,2.85,2.3,2.58.59-.15.9-.64.95-1.45A6.15,6.15,0,0,0,670.79,176.78Z"/><path class="d" d="M678.8,174.7a6.17,6.17,0,0,1,.14,3,2.78,2.78,0,0,1-4.73,1.24,7.33,7.33,0,0,1-1.5-5.7,2.8,2.8,0,0,1,4.75-1.24A6.07,6.07,0,0,1,678.8,174.7Zm-1.46.37a6.13,6.13,0,0,0-.73-1.77c-.45-.68-1-.94-1.54-.79a1.38,1.38,0,0,0-1,1.43,5.74,5.74,0,0,0,.22,1.92c.52,2,1.29,2.84,2.3,2.58.58-.15.9-.64,1-1.45A6.12,6.12,0,0,0,677.34,175.07Z"/><path class="d" d="M685.35,173a6.21,6.21,0,0,1,.14,3,2.79,2.79,0,0,1-4.73,1.24,6.12,6.12,0,0,1-1.35-2.7,6,6,0,0,1-.15-3,2.59,2.59,0,0,1,2-2,2.62,2.62,0,0,1,2.74.78A6.29,6.29,0,0,1,685.35,173Zm-1.47.38a6.13,6.13,0,0,0-.72-1.77c-.45-.68-1-.94-1.55-.79s-.91.63-1,1.43a6.08,6.08,0,0,0,.23,1.92c.52,2,1.28,2.84,2.29,2.58.59-.15.91-.64,1-1.46A5.85,5.85,0,0,0,683.88,173.36Z"/><path class="d" d="M599,172.19l-31.21,8.16a2.54,2.54,0,0,1-3.09-1.81h0a2.55,2.55,0,0,1,1.81-3.1l31.21-8.15a2.53,2.53,0,0,1,3.09,1.81h0A2.54,2.54,0,0,1,599,172.19Z"/><path class="d" d="M674.51,158a3.91,3.91,0,0,0-1.45-2.14.41.41,0,0,0-.6.12l-.11.19a.41.41,0,0,0,.1.53,2.85,2.85,0,0,1,.9,3.43.42.42,0,0,0,.17.52l.18.11a.43.43,0,0,0,.6-.19A4,4,0,0,0,674.51,158Z"/><path class="d" d="M676.53,157.51a5.94,5.94,0,0,0-2.45-3.45.41.41,0,0,0-.58.15l-.06.1a.41.41,0,0,0,.13.55,5,5,0,0,1,2,2.89,5,5,0,0,1-.37,3.51.42.42,0,0,0,.16.55l.1.06a.41.41,0,0,0,.58-.16A5.94,5.94,0,0,0,676.53,157.51Z"/><path class="d" d="M678.3,157.05a7.77,7.77,0,0,0-3.31-4.58.42.42,0,0,0-.58.14h0a.42.42,0,0,0,.14.56,7,7,0,0,1,2.37,9.1.41.41,0,0,0,.16.54h0a.41.41,0,0,0,.58-.16A7.8,7.8,0,0,0,678.3,157.05Z"/><path class="d" d="M680.22,156.54a9.77,9.77,0,0,0-4.24-5.79.41.41,0,0,0-.58.14l-.11.19a.41.41,0,0,0,.14.55,8.76,8.76,0,0,1,3,11.54.4.4,0,0,0,.15.55l.18.11a.42.42,0,0,0,.58-.16A9.76,9.76,0,0,0,680.22,156.54Z"/><path class="d" d="M583.75,239.64a3,3,0,0,1,.07,1.46,1.34,1.34,0,0,1-2.28.59,3.52,3.52,0,0,1-.72-2.75,1.35,1.35,0,0,1,2.29-.59A2.89,2.89,0,0,1,583.75,239.64Zm-.7.19a2.9,2.9,0,0,0-.35-.86.68.68,0,0,0-.75-.38c-.28.07-.44.3-.46.69a3,3,0,0,0,.1.93c.25.95.62,1.37,1.11,1.24.28-.07.44-.31.46-.7A2.9,2.9,0,0,0,583.05,239.83Z"/><path class="d" d="M586.91,238.82a2.92,2.92,0,0,1,.07,1.45,1.34,1.34,0,0,1-2.28.6,2.89,2.89,0,0,1-.65-1.3,2.93,2.93,0,0,1-.07-1.45,1.25,1.25,0,0,1,1-1,1.28,1.28,0,0,1,1.33.38A3,3,0,0,1,586.91,238.82Zm-.7.18a2.82,2.82,0,0,0-.36-.85c-.21-.33-.46-.46-.74-.39a.69.69,0,0,0-.47.7,2.93,2.93,0,0,0,.11.92c.25,1,.62,1.37,1.11,1.24.28-.07.43-.3.46-.7A3,3,0,0,0,586.21,239Z"/><path class="d" d="M588.83,236.42a.47.47,0,0,1,0,.2l-.76,3.83a.35.35,0,0,1-.25.33.24.24,0,0,1-.22,0,.28.28,0,0,1-.14-.18.74.74,0,0,1,0-.21l.77-3.83a.36.36,0,0,1,.24-.32.26.26,0,0,1,.23,0A.24.24,0,0,1,588.83,236.42Z"/><path class="d" d="M592.23,237.43a2.92,2.92,0,0,1,.07,1.45,1.27,1.27,0,0,1-1,1,1.25,1.25,0,0,1-1.31-.38,3,3,0,0,1-.66-1.3,3,3,0,0,1-.07-1.45,1.35,1.35,0,0,1,2.29-.6A3,3,0,0,1,592.23,237.43Zm-.71.18a3,3,0,0,0-.35-.86.67.67,0,0,0-.74-.38c-.29.08-.44.31-.47.7a2.93,2.93,0,0,0,.11.92c.25,1,.62,1.37,1.11,1.24.28-.07.43-.3.46-.7A3,3,0,0,0,591.52,237.61Z"/><path class="d" d="M595.39,236.6a3,3,0,0,1,.06,1.46,1.33,1.33,0,0,1-2.27.59,3,3,0,0,1-.66-1.3,3,3,0,0,1-.07-1.45,1.25,1.25,0,0,1,1-1,1.24,1.24,0,0,1,1.32.38A3,3,0,0,1,595.39,236.6Zm-.71.18a2.94,2.94,0,0,0-.35-.85c-.22-.33-.46-.45-.74-.38s-.45.3-.47.69a2.64,2.64,0,0,0,.11.92c.25,1,.62,1.38,1.1,1.25.29-.08.44-.31.46-.7A3,3,0,0,0,594.68,236.78Z"/><path class="d" d="M598.54,235.78a2.92,2.92,0,0,1,.07,1.45,1.34,1.34,0,0,1-2.28.6,3,3,0,0,1-.65-1.3,2.93,2.93,0,0,1-.07-1.45,1.35,1.35,0,0,1,2.29-.6A2.93,2.93,0,0,1,598.54,235.78Zm-.7.18a3,3,0,0,0-.35-.86.69.69,0,0,0-.75-.38.67.67,0,0,0-.46.69,2.92,2.92,0,0,0,.1.93c.25,1,.62,1.37,1.11,1.24.28-.07.44-.3.46-.7A3,3,0,0,0,597.84,236Z"/><path class="d" d="M601.7,235a3,3,0,0,1,.07,1.46,1.26,1.26,0,0,1-1,1,1.24,1.24,0,0,1-1.32-.38,2.84,2.84,0,0,1-.65-1.3,2.92,2.92,0,0,1-.07-1.45,1.24,1.24,0,0,1,1-1,1.28,1.28,0,0,1,1.33.37A3,3,0,0,1,601.7,235Zm-.7.18a3.25,3.25,0,0,0-.35-.85.68.68,0,0,0-.75-.38c-.28.07-.44.3-.47.69a2.9,2.9,0,0,0,.11.92c.25,1,.62,1.37,1.11,1.25.28-.08.43-.31.46-.7A3,3,0,0,0,601,235.13Z"/></g></g><rect class="d" x="197.75" y="415.21" width="397.19" height="5.74"/><rect class="i" x="193.68" y="420.95" width="405.33" height="5.74"/><rect class="d" x="188.09" y="426.69" width="416.51" height="5.74"/><rect class="b" x="207.01" y="195.76" width="371.46" height="219.45"/><polygon class="a" points="603.7 199.94 184.99 199.94 398.15 91.9 603.7 199.94"/><polygon class="b" points="248.54 185.52 540.14 184.91 398 111 248.54 185.52"/><rect class="d" x="195.91" y="199.94" width="398.9" height="7.21"/><rect class="a" x="225.53" y="199.94" width="39.29" height="13.91"/><rect class="a" x="234.35" y="213.85" width="21.66" height="201.36"/><rect class="a" x="310.43" y="199.94" width="39.29" height="13.91"/><rect class="a" x="319.25" y="213.85" width="21.66" height="201.36"/><rect class="a" x="443.9" y="199.94" width="39.29" height="13.91"/><rect class="a" x="452.71" y="213.85" width="21.66" height="201.36"/><rect class="a" x="523.84" y="199.94" width="39.29" height="13.91"/><rect class="a" x="532.66" y="213.85" width="21.66" height="201.36"/><path class="d" d="M286.35,248.06h2.57a11.42,11.42,0,0,1,11.42,11.42V287.8a0,0,0,0,1,0,0H274.9a0,0,0,0,1,0,0V259.51A11.45,11.45,0,0,1,286.35,248.06Z"/><path class="d" d="M286.69,333.38h1.91a11.76,11.76,0,0,1,11.76,11.76v28a0,0,0,0,1,0,0H274.9a0,0,0,0,1,0,0v-28A11.78,11.78,0,0,1,286.69,333.38Z"/><path class="d" d="M503.89,248.06h0a12.71,12.71,0,0,1,12.71,12.71v27a0,0,0,0,1,0,0H491.15a0,0,0,0,1,0,0v-27A12.74,12.74,0,0,1,503.89,248.06Z"/><path class="d" d="M503.12,333.38h1.3a12.06,12.06,0,0,1,12.06,12.06v27.68a0,0,0,0,1,0,0H491a0,0,0,0,1,0,0V345.47A12.09,12.09,0,0,1,503.12,333.38Z"/><path class="j" d="M234.35,222.94a12,12,0,0,1,10.83-5.68c8.31.31,10.83,5.68,10.83,5.68v-9.09H234.35Z"/><path class="j" d="M319.25,222.94a12,12,0,0,1,10.83-5.68c8.31.31,10.83,5.68,10.83,5.68v-9.09H319.25Z"/><path class="j" d="M452.71,222.94a12,12,0,0,1,10.83-5.68c8.31.31,10.83,5.68,10.83,5.68v-9.09H452.71Z"/><path class="j" d="M532.66,222.94a12,12,0,0,1,10.83-5.68c8.3.31,10.83,5.68,10.83,5.68v-9.09H532.66Z"/><rect class="j" x="225.53" y="199.92" width="39.29" height="2.42"/><rect class="j" x="310.43" y="199.92" width="39.29" height="2.42"/><rect class="j" x="443.9" y="199.92" width="39.29" height="2.42"/><rect class="j" x="523.84" y="199.92" width="39.29" height="2.42"/><polygon class="d" points="393.51 113.24 529.29 184.93 540.14 184.95 398 111 393.51 113.24"/><path class="a" d="M301.26,288.71H274V260a12.85,12.85,0,0,1,12.84-12.84h2.27a12.16,12.16,0,0,1,12.15,12.15Zm-25.45-1.81h23.63V259.31A10.35,10.35,0,0,0,289.11,249h-2.27a11,11,0,0,0-11,11Z"/><rect class="a" x="275.1" y="259.69" width="24.84" height="1.72"/><rect class="a" x="286.69" y="260.55" width="1.67" height="27.11"/><path class="a" d="M517.15,288.71H489.88V260a12.86,12.86,0,0,1,12.85-12.84H505a12.17,12.17,0,0,1,12.16,12.15ZM491.7,286.9h23.63V259.31A10.35,10.35,0,0,0,505,249h-2.26a11,11,0,0,0-11,11Z"/><rect class="a" x="490.99" y="259.69" width="24.84" height="1.72"/><rect class="a" x="502.57" y="260.55" width="1.67" height="27.11"/><path class="a" d="M517.39,374H490.12V345.32A12.87,12.87,0,0,1,503,332.47h2.26a12.17,12.17,0,0,1,12.16,12.16Zm-25.45-1.82h23.63V344.63a10.35,10.35,0,0,0-10.34-10.34H503a11,11,0,0,0-11,11Z"/><rect class="a" x="491.23" y="345.01" width="24.84" height="1.72"/><rect class="a" x="502.81" y="345.87" width="1.67" height="27.11"/><path class="a" d="M301.15,374H273.89V345.32a12.86,12.86,0,0,1,12.84-12.85H289a12.17,12.17,0,0,1,12.15,12.16Zm-25.45-1.82h23.64V344.63A10.35,10.35,0,0,0,289,334.29h-2.27a11,11,0,0,0-11,11Z"/><rect class="a" x="274.99" y="345.01" width="24.84" height="1.72"/><rect class="a" x="286.58" y="345.87" width="1.67" height="27.11"/><path class="a" d="M281.25,237.58s5.44-1.82,13.86,0l-2.93,7.29a34,34,0,0,0-8,0Z"/><path class="a" d="M283.13,245.05,280,238.87s-3.45.7-4.7,2l5.26,4.78Z"/><path class="a" d="M293.21,245.08,296.1,239a8.68,8.68,0,0,1,4.71,2.05l-5.22,4.68Z"/><path class="a" d="M281.25,318.68s5.44-2.75,13.86,0l-2.93,11a22.5,22.5,0,0,0-8,0Z"/><path class="a" d="M283.13,330,280,320.62s-3.45,1.07-4.7,3.11l5.26,7.23Z"/><path class="a" d="M293.21,330l2.89-9.25a7.43,7.43,0,0,1,4.71,3.11L295.59,331Z"/><path class="a" d="M497.1,233.42s5.43-2.75,13.85,0l-2.92,11a22.5,22.5,0,0,0-8,0Z"/><path class="a" d="M499,244.71l-3.17-9.35s-3.46,1.07-4.71,3.11l5.27,7.23Z"/><path class="a" d="M509.06,244.76l2.89-9.25a7.42,7.42,0,0,1,4.7,3.11l-5.22,7.08Z"/><path class="a" d="M497,318.68s5.43-2.75,13.85,0l-2.93,11a22.44,22.44,0,0,0-8,0Z"/><path class="a" d="M498.86,330l-3.17-9.35s-3.46,1.07-4.71,3.11l5.26,7.23Z"/><path class="a" d="M508.94,330l2.88-9.25a7.43,7.43,0,0,1,4.71,3.11L511.31,331Z"/><path class="k" d="M588.8,127.61a7.73,7.73,0,1,1,7.73,7.73A7.73,7.73,0,0,1,588.8,127.61Z"/><path class="k" d="M597.24,89.86A11.18,11.18,0,1,1,608.42,101,11.17,11.17,0,0,1,597.24,89.86Z"/><circle class="k" cx="563.51" cy="57.67" r="20.79" transform="translate(458.26 614.26) rotate(-85.14)"/><path class="l" d="M138.35,269c-.89,2.42-2.45,5.22-4.08,5.92a6.32,6.32,0,0,0-2.63,1.9l-1.5-.87-1.78-1s0-.2.13-.53a13.13,13.13,0,0,1,.4-1.26,1.72,1.72,0,0,0,.21-1.59,3.7,3.7,0,0,1,.31-3.09c.57-.83,1.12-2.88,1.47-2.82.83.14-.41,3-.06,3.49a.62.62,0,0,0,.81.27h0c2.34-1,5.19-6.58,6.45-5.83C138.56,263.85,138.74,268,138.35,269Z"/><rect class="d" x="128.74" y="265.43" width="14" height="4.51" rx="0.46" transform="translate(-161.32 224.81) rotate(-54.9)"/><path class="b" d="M132.69,274.1l2.21,1.56a.05.05,0,0,0,.07,0l8-11.37s0-.06,0-.07l-2.21-1.56a.05.05,0,0,0-.07,0l-8,11.37A0,0,0,0,0,132.69,274.1Z"/><path class="m" d="M88.12,257s14.94,26.06,20.36,30.85l19.88-14.82a7.27,7.27,0,0,1,4.14,3.78s-12.06,24.59-24,25.63S80,273,80,273Z"/><path class="n" d="M54.31,434.27H45.68a5.2,5.2,0,0,1-2.36-4c-.42-2.78-3.54-4.29-4.22-6.57s2.79-5.47,2.79-5.47l.57-.75.6-.77,5.73,1.35s.15,1.36.23,3.1c.06,1.25.1,2.7,0,4-.17,3,.85,6.3,3.54,6.89C54.58,432.5,54.49,433.68,54.31,434.27Z"/><path class="n" d="M104.41,434.27H84.67c-1-1.16-.6-5.43-.46-6.83,0-.28.05-.45.05-.45s6.74-5.39,7.67-1.26c0,.13.06.26.1.38,1.17,3.86,6.4,5.62,9.42,6.11A3.42,3.42,0,0,1,104.41,434.27Z"/><path class="o" d="M100.65,324.07s-1,12.77-2.23,28.13c-1.63,20.85-3.6,46.47-3.79,51.32-.34,8.43-1.69,21.91-1.69,21.91s-3.2,3.2-9.6,1.85A220.31,220.31,0,0,1,76,387.68c0-.34,0-.67-.08-1C74.41,366,72.05,322.3,72.05,322.3Z"/><path class="p" d="M100.65,324.07s-1,12.77-2.23,28.13L76,387.68c0-.34,0-.67-.08-1C74.41,366,72.05,322.3,72.05,322.3Z"/><path class="o" d="M96,325.59s-18.46,46.25-30.59,68-15.92,27.8-15.92,27.8-6.95-2.78-7.58-4.67c0,0,4.63-42,12.76-52.2,4.59-5.78,10-23.12,10.24-29.19s1.64-18.07,1.64-18.07Z"/><path class="l" d="M91.38,258.16c-7.21,2.27-19.68-3.87-19.68-3.87s6.64-5,6.3-15.36l5.57,4.49,3.79,3.06a46.92,46.92,0,0,1-.43,5q-.17,1.24-.42,2.76A17.16,17.16,0,0,1,91.38,258.16Z"/><path class="q" d="M87.36,246.48a46.92,46.92,0,0,1-.43,5c-4.2-.72-9-7.51-9-7.51a13.6,13.6,0,0,1,5.6-.5Z"/><path class="l" d="M89.56,246.3s-11.91,2-13-5.45-3.41-12.19,4.14-13.77,9.47,1,10.44,3.43S92.63,245.6,89.56,246.3Z"/><path class="m" d="M101.45,325.14a1.17,1.17,0,0,1-.76.28c-2.71,0-10.61,1.47-17.29.79a50.06,50.06,0,0,1-16-4.61c-.71-.32-2.34-1.2-2.31-2s.11-2.13.22-3.72a199.46,199.46,0,0,0,.4-26q-.18-3.06-.19-6.06c0-14.86,2.89-27.93,8.82-32.35.5-.36,3.61,1.15,6.46,2.56a11.83,11.83,0,0,0,7.76.94l2.49,2.2a24.86,24.86,0,0,1,7.8,12.46c1.23,4.95,2,13.86,2.35,23.11.18,4.19.32,8.41.36,12.42v.14c0,.4,0,.83,0,1.23C101.77,316.83,101.63,325,101.45,325.14Z"/><path class="r" d="M65.34,315.89a199.46,199.46,0,0,0,.4-26q-.18-3.06-.19-6.06c2.47-6,4.49-10.32,4.49-10.32h6.21S80.81,304.64,65.34,315.89Z"/><rect class="d" x="36.32" y="321.31" width="24.28" height="39.46" rx="6.34" transform="translate(-296 340.91) rotate(-81.89)"/><path class="b" d="M64.93,334.34h0a6.36,6.36,0,0,0-4.39-3.84h0a6,6,0,0,0-.61-.12l-5.28-.75.36-2.48a2.13,2.13,0,0,0-.4-1.56,2.1,2.1,0,0,0-1.39-.82l-1.37-.19-5.55-.79-1-.14a2.09,2.09,0,0,0-2.37,1.78l-.35,2.48-9.12-1.3a6.37,6.37,0,0,0-7.19,5.4L24.6,343.63a6.39,6.39,0,0,0,5.4,7.2l26.47,3.77a5.83,5.83,0,0,0,1.38,0h0a6,6,0,0,0,2.07-.52,6.38,6.38,0,0,0,3.75-4.92l1.65-11.62A6.29,6.29,0,0,0,64.93,334.34Zm-20.71-8.73a.79.79,0,0,1,.65-.66h.24l1.18.17,4.36.62,2.38.34a.78.78,0,0,1,.66.88l-.35,2.48-9.47-1.35Z"/><path class="l" d="M53.66,317a9.29,9.29,0,0,0-1.45,2.59c-.37,5,1.92,5.72-4,8.51,0,0-2.54,1-2.58-1s1.76-2,1.43-4.76c-.38-3.18-.34-3.21,1.74-4.87l1.39-2.28Z"/><path class="m" d="M50.12,318.38a20.11,20.11,0,0,0,4.66.26s6.65-20.53,7.5-22.41S82,272.16,82,272.16l-7.87-19.69s-20.43,34.12-22.5,38.91C48.23,299.31,47,317.07,47,317.07A8.5,8.5,0,0,0,50.12,318.38Z"/><path class="s" d="M76.53,240.13s1.22-.2,1-1.89-.19-3.88,1.17-3.47,1.44,1.51,2,.87.58-3.34,4.65-3.53,5.73,1.23,7.62.4,2-3.7,2-3.7a3.3,3.3,0,0,1-1.35,1.35s3.16-4.32-.5-7.28-7.38-1-9.5-.9c-4.67.28-7.68.56-9.2,3.63S73.53,237.18,76.53,240.13Z"/><path class="t" d="M51.46,319.17s1.34,1.4,1.43,2c.27,1.86.89,2.67.58,2.87-.65.42-1.51-1-1.92-2.2A5.66,5.66,0,0,1,51.46,319.17Z"/><path class="q" d="M434.16,328.71l1.91,1.55s5.22-1.88,6.4,4.33c0,0,.32,2.65-1.36,2.65s-1-.29-3.36-.22-4.34-1.18-4.69-3.1l-1.13-1.64Z"/><path class="u" d="M433.94,332c1.53-1.59,1.4-2.76,1.4-2.76s-17.64-14.45-19.43-15.62c-1.22-.81-14.21-12.33-20.29-19.35-3-3.48-6.74-2.13-11-.9l-3.52,1c-4.24,1.22-5.35,7.16-1.86,10.05,9.81,8.12,26.13,17.26,29.18,19.18,7.58,4.77,22.42,10.44,22.42,10.44A9.41,9.41,0,0,0,433.94,332Z"/><path class="n" d="M454.08,420.78a13.28,13.28,0,0,0,10.84,1.51s5.29-1.2,6.45,1.44c0,0-8.11,4.12-10.17,5.25a25.11,25.11,0,0,0-4.3,3.22,2.13,2.13,0,0,1-3.08-.23c-.36-.44-.77-1-1.21-1.57-1.25-1.7-4.17-7.17-4.17-7.17Z"/><path class="o" d="M456.59,419.15s-2.61,6-8.63,4.91c0,0-12.28-10.14-20.7-20.68a46.2,46.2,0,0,1-6.43-10.05c-5.59-12.94-20.67-32.23-30.25-42l24-8.68s7.68,15.45,17.9,34.44C439.83,390.76,448.51,406.27,456.59,419.15Z"/><path class="p" d="M432.46,377.09l-5.2,26.29a46.2,46.2,0,0,1-6.43-10.05c-5.59-12.94-20.67-32.23-30.25-42l24-8.68S422.24,358.1,432.46,377.09Z"/><path class="n" d="M412.86,424.27s-.26,4.8,5.55,5.44c0,0,3.33,0,3.34,3.07l-16.91.05a13.16,13.16,0,0,1-.61-3.87c-.09-2,2-7.32,2-7.32Z"/><path class="o" d="M406.69,342.65s10.69,11.74,17.47,32.89c3.69,11.51-6.76,40.44-8.8,50.5,0,0-7,.59-11.81-1.26,0,0-.36-20.77,2.44-36.77,1.57-9-14.07-19.15-20.9-35.34-4.65-11,1-10.82,8-11.08Z"/><path class="v" d="M394.36,290.27c-5.95,3.36-18.12.26-18.12.26s4.95-5.65,2.7-14.75l4.67,2.37,5,2.55a40,40,0,0,1,.55,4.49c.06.75.11,1.58.15,2.48A15.67,15.67,0,0,1,394.36,290.27Z"/><path class="m" d="M416.16,342c0,1-1.21,1.55-1.46,1.6-2.4.44-9.09,3-15.13,3.64a48.42,48.42,0,0,1-15-1c-.68-.14-2.29-.58-2.41-1.23s-20-40.44-4.56-57.5c.36-.4,3.41.32,6.19,1a11.41,11.41,0,0,0,7-.58l2.61,1.38c3.2,1.78,9.27,8.13,10,13.11.36,2.53,1.81,4.41,2.23,6.64.15.82.31,1.62.47,2.41.32,1.54.64,3,1,4.39.91,3.77,1.86,7,2.8,9.81,1,3,2,5.45,2.86,7.52,1.14,2.69,2.1,4.69,2.7,6.23A7.79,7.79,0,0,1,416.16,342Z"/><path class="r" d="M415.49,339.43c-28-13.2-37.7-38.53-37.7-38.53s22.75,8.39,28.36,10.58c.32,1.54.64,3,1,4.39.91,3.77,1.86,7,2.8,9.81,1,3,2,5.45,2.86,7.52C413.93,335.89,414.89,337.89,415.49,339.43Z"/><path class="q" d="M389.17,285.19c-5.84.33-9.65-4.5-9.65-4.5a45.19,45.19,0,0,0,4.09-2.54l5,2.55A40,40,0,0,1,389.17,285.19Z"/><path class="v" d="M391.66,279.19s-8.86,6.36-12.73.78-7.62-8.51-2.13-12.81,8.08-2.93,9.82-1.39S393.87,277.39,391.66,279.19Z"/><path class="s" d="M387.56,260.74a14.46,14.46,0,0,0-1-3.66s-.56,2.31-4.77,2-10.87.41-13.1,5.21a9.71,9.71,0,0,0-.38.94,11.24,11.24,0,0,1-.5-2.66,8.19,8.19,0,0,0,0,4.65h0l0,.22a9.41,9.41,0,0,0-1.71,3.23,3,3,0,0,1,1.58-1.4c0,3.73,1.49,7.38,4.15,8.47,3.88,1.58,3.85.37,7.75,3,0,0,1.05-1.3.34-2.17s-3.42-2.14-1.91-3.41,2.07.16,2.62-.72-2.22-3.41,1.35-5.79S387.88,262.88,387.56,260.74Z"/><path class="a" d="M395.26,303.31a43.19,43.19,0,1,1,52.59,31.06A43.19,43.19,0,0,1,395.26,303.31Z"/><path class="b" d="M447,331.15a39.35,39.35,0,1,1,24.07-18.09A39.07,39.07,0,0,1,447,331.15Zm-19-73.94a37,37,0,1,0,45.06,26.61A37,37,0,0,0,428,257.21Z"/><path class="v" d="M432.46,336.09s4.74,1.6,7.47,1.53,7.48-2.94,7.49-3.14-2.13-1.44-5.24-1.05-3.75-.07-2.78-.46,1.86-1.08,1.6-1.5c-.15-.22-1.71.27-2.24.45s-1.87-.31-3,.49a13.21,13.21,0,0,1-3.5.93Z"/><path class="m" d="M434.34,334.55c.83-2.36,1.21-3.42,1.21-3.42S416.9,316.69,415,315.46c-1.3-.84-14.17-10-20.51-17.17a12.9,12.9,0,0,0-12.65-4l-3.81.9a5.71,5.71,0,0,0-2.3,10c10.34,8.42,27.67,18.05,30.91,20.07,8,5,25.69,11.83,25.69,11.83A4.5,4.5,0,0,0,434.34,334.55Z"/><circle class="d" cx="347.05" cy="411.76" r="20.99"/><circle class="b" cx="345.22" cy="411.76" r="20.99"/><path class="a" d="M345.22,431.13a19.12,19.12,0,1,1,13.53-5.6A19,19,0,0,1,345.22,431.13Zm0-37.11a18,18,0,1,0,18,18A18,18,0,0,0,345.22,394Z"/><path class="b" d="M414.18,276.08l30.67-8.74,12.57,44.12-30.67,8.74Zm13.94,37.25,5.84-19-15-13.1Zm12.72-41.44L420,277.83l15,13.1Zm10.77,37.81-15-13.1-5.85,19Zm1-3.36-9.16-32.14-5.85,19Z"/><path class="b" d="M554.58,51.05l12-3.41,4.91,17.24-12,3.42ZM560,65.62l2.29-7.45-5.87-5.12Zm5-16.2-8.15,2.32,5.86,5.12Zm4.21,14.78-5.87-5.12-2.28,7.44Zm.4-1.31L566,50.32l-2.28,7.44Z"/><path class="b" d="M603.81,84.66l6.77-.23.33,9.75-6.77.22Zm1,8.4L607,89.43,604.53,86Zm4.76-7.9-4.61.16,2.42,3.47Zm.27,8.36L607.38,90l-2.18,3.63Zm.39-.64-.24-7.1-2.18,3.62Z"/><path class="b" d="M593.56,123.48l6.77-.22.33,9.74-6.77.23Zm1,8.4,2.18-3.62-2.42-3.48Zm4.76-7.89-4.61.15,2.42,3.48Zm.27,8.35-2.42-3.47L595,132.5Zm.39-.64-.24-7.1-2.18,3.63Z"/><path class="a" d="M377.65,130.08l31.88.47-.68,45.87L377,176Zm2.6,39.69,11.08-16.55-10.59-16.87Zm23.54,3.3L393.2,156.2l-11.08,16.55Zm.59-39.32-21.68-.32,10.59,16.87Zm1.37,36.4.5-33.42-11.09,16.55Z"/><path class="a" d="M143.77,365.8l27.39,16.31L147.7,421.53l-27.4-16.31Zm-17.54,35.7,17.86-8.81-.77-19.91ZM145,416.1l-.77-19.9L126.36,405Zm20.11-33.78-18.63-11.09.77,19.9Zm-17,32.23,17.1-28.72-17.86,8.81Z"/><path class="a" d="M333.82,406.43l12.77-5.54,8,18.37L341.8,424.8ZM342,421.76l1.44-8.58-7.25-4.81Zm3.13-18.67-8.68,3.77,7.24,4.81ZM352,418.84,344.71,414l-1.44,8.57Zm.26-1.52-5.82-13.38L345,412.51Z"/></svg>