<svg xmlns="http://www.w3.org/2000/svg" viewBox="0 0 123.23 156.63"><defs><style>.a{fill:#fbc83e;}.b{fill:#fff;}</style></defs><path d="M26.72,66.35l6.13,5.08.28-.29a4.07,4.07,0,0,0-.31-.49c-7.09-8.49-9.67-18.19-8-29.11s5.76-21,13.11-29.51C42.61,6.62,48.22,2.51,55.29.8c8.53-2.06,16.29-.07,23.28,5C86.76,11.8,92,20,95.41,29.39a53.67,53.67,0,0,1,3.47,20.33c-.23,7.39-3,13.86-7.44,19.69C91,70,90.6,70.49,90.19,71c0,0,0,.07,0,.55l6.31-5.24a58.16,58.16,0,0,1,15,13.62,17.6,17.6,0,0,1,2.4,4.66c2.8,8.17,5.5,16.37,8.22,24.56a19.93,19.93,0,0,1-10,24.56c-3.47,1.79-7,3.56-10.41,5.4a2,2,0,0,0-1,1.28,8.38,8.38,0,0,1-5.19,7.7l1.06.15a4.13,4.13,0,0,1,3.52,4.26,4.07,4.07,0,0,1-3.61,4,10.87,10.87,0,0,1-1.28,0H27.91c-2.83,0-4.62-1.49-4.77-4s1.29-3.92,4.49-4.61l-.49-.23a7.92,7.92,0,0,1-4.55-7.12,1.71,1.71,0,0,0-1.1-1.65c-3.58-1.79-7.12-3.63-10.66-5.48A19.84,19.84,0,0,1,1,109.83c2.8-8.75,5.77-17.45,8.72-26.16a12,12,0,0,1,1.61-3.06C15.47,74.74,20.92,70.26,26.72,66.35Zm61.19-5c-.43.49-.65.73-.86,1-2.31,2.83-4.59,5.68-6.93,8.49a41.12,41.12,0,0,1-10.81,9.46,14.3,14.3,0,0,1-15.4,0,39.85,39.85,0,0,1-10.13-8.7c-2.5-3-4.9-6-7.36-9-.27-.33-.56-.65-1-1.19a45.73,45.73,0,0,0,8.25,16c2.84,3.45,6,6.65,9,10l1.05,1.16C43.2,86.38,34.23,81.38,25.81,75c-4.62,4.13-9.75,7.78-11.29,14.3-.18.75-.48,1.47-.72,2.21-2.23,6.68-4.59,13.32-6.64,20.06-1.73,5.7-.39,8.67,3.93,11.42a34.26,34.26,0,0,0,9.4,4.12,8.85,8.85,0,0,0,.92.13c0-.49,0-.87-.06-1.25-.66-7.88-1.36-15.75-2-23.64C19,96.67,22.3,93.14,28,93.14H95.4c5.52,0,9,3.66,8.51,9.14-.53,6.55-1.11,13.1-1.67,19.65-.14,1.74-.26,3.49-.4,5.37a35.5,35.5,0,0,0,10.77-4.61c3.41-2.16,4.6-5.18,4-9a15.36,15.36,0,0,0-.62-2.49q-4-12.24-8.15-24.45a7.71,7.71,0,0,0-.82-1.88A46.45,46.45,0,0,0,97.43,75C89,81.37,80.05,86.4,69.62,88.54,77.41,80.71,84.69,72.59,87.91,61.32ZM30.83,46.05c9-7.84,19.55-10.35,30.81-10.35S83.49,38.23,92.43,46a48.76,48.76,0,0,0-2.36-12.48C87.26,25,82.87,17.49,75.72,11.82A22.24,22.24,0,0,0,61.87,6.6C56,6.54,51,8.85,46.6,12.57A44,44,0,0,0,34.3,30.43,50.18,50.18,0,0,0,30.83,46.05Zm50,8.42c-1.31-.25-2.38-.52-3.47-.66-5-.68-9.92-1.66-13.94-5.12-1.14-1-2.4-.82-3.68.1-.87.63-1.7,1.33-2.62,1.87a26,26,0,0,1-9.42,2.9c-1.68.25-3.34.56-5.18.88.54,1.37.94,2.5,1.43,3.58,2.34,5.12,5.34,9.73,10.07,13,5,3.45,10.29,3.49,15.27,0C75,67,78.29,61.19,80.78,54.47ZM23.48,99.11H99.86a8,8,0,0,0-.74-.67,8.37,8.37,0,0,0-5-1.33h-65a9.92,9.92,0,0,0-1.54.06A6.18,6.18,0,0,0,23.48,99.11Zm38.15,27.8a5.23,5.23,0,0,0,0-10.45,5.23,5.23,0,0,0,0,10.45ZM55.69,44.42c-2.84-3-7.25-3.73-10.12-1.75a5.18,5.18,0,0,0,3.58,4C51.83,47.45,53.74,46,55.69,44.42Zm22.09-1.73a8.11,8.11,0,0,0-10.2,1.75c1.83,1.47,3.65,2.9,6.22,2.3C75.93,46.25,77.1,44.76,77.78,42.69Z"/><path class="a" d="M87.91,61.32c-3.22,11.27-10.5,19.39-18.29,27.22C80.05,86.4,89,81.37,97.43,75A46.45,46.45,0,0,1,107,84.83a7.71,7.71,0,0,1,.82,1.88Q112,98.92,116,111.16a15.36,15.36,0,0,1,.62,2.49c.58,3.86-.61,6.88-4,9a35.5,35.5,0,0,1-10.77,4.61c.14-1.88.26-3.63.4-5.37.56-6.55,1.14-13.1,1.67-19.65.45-5.48-3-9.14-8.51-9.14H28c-5.65,0-9,3.53-8.57,9.18.61,7.89,1.31,15.76,2,23.64,0,.38,0,.76.06,1.25a8.85,8.85,0,0,1-.92-.13,34.26,34.26,0,0,1-9.4-4.12c-4.32-2.75-5.66-5.72-3.93-11.42,2.05-6.74,4.41-13.38,6.64-20.06.24-.74.54-1.46.72-2.21C16.06,82.75,21.19,79.1,25.81,75c8.42,6.41,17.39,11.41,27.86,13.5l-1.05-1.16c-3-3.31-6.13-6.51-9-10a45.73,45.73,0,0,1-8.25-16c.46.54.75.86,1,1.19,2.46,3,4.86,6,7.36,9a39.85,39.85,0,0,0,10.13,8.7,14.3,14.3,0,0,0,15.4,0A41.12,41.12,0,0,0,80.12,70.8c2.34-2.81,4.62-5.66,6.93-8.49C87.26,62.05,87.48,61.81,87.91,61.32Z"/><path class="a" d="M30.83,46.05A50.18,50.18,0,0,1,34.3,30.43,44,44,0,0,1,46.6,12.57c4.4-3.72,9.39-6,15.27-6a22.24,22.24,0,0,1,13.85,5.22C82.87,17.49,87.26,25,90.07,33.56A48.76,48.76,0,0,1,92.43,46C83.49,38.23,72.92,35.69,61.64,35.7S39.82,38.21,30.83,46.05Zm12.75-9.81a59.2,59.2,0,0,1,36.13,0C72.31,27.86,50.71,28,43.58,36.24Z"/><path class="b" d="M80.78,54.47C78.29,61.19,75,67,69.24,71,64.26,74.49,59,74.45,54,71c-4.73-3.25-7.73-7.86-10.07-13-.49-1.08-.89-2.21-1.43-3.58,1.84-.32,3.5-.63,5.18-.88a26,26,0,0,0,9.42-2.9c.92-.54,1.75-1.24,2.62-1.87,1.28-.92,2.54-1.09,3.68-.1,4,3.46,8.91,4.44,13.94,5.12C78.4,54,79.47,54.22,80.78,54.47Z"/><path class="a" d="M23.48,99.11a6.18,6.18,0,0,1,4.09-1.93,9.92,9.92,0,0,1,1.54-.06h65a8.37,8.37,0,0,1,5,1.33,8,8,0,0,1,.74.67Z"/><path class="b" d="M61.63,126.91a5.23,5.23,0,1,1,5.09-5.22A5.15,5.15,0,0,1,61.63,126.91Z"/><path class="b" d="M55.69,44.42c-1.95,1.59-3.86,3-6.54,2.24a5.18,5.18,0,0,1-3.58-4C48.44,40.69,52.85,41.41,55.69,44.42Z"/><path class="b" d="M77.78,42.69c-.68,2.07-1.85,3.56-4,4.05-2.57.6-4.39-.83-6.22-2.3A8.11,8.11,0,0,1,77.78,42.69Z"/><path d="M43.58,36.24c7.13-8.25,28.73-8.38,36.13,0A59.2,59.2,0,0,0,43.58,36.24Z"/></svg>