<svg xmlns="http://www.w3.org/2000/svg" viewBox="0 0 598.95 344.6"><defs><style>.a{fill:#fff;}.b{fill:#dfebfd;}.c{fill:#afcdfb;}.d{fill:#cde0fb;}.e{fill:#6bb7bf;}.f{fill:#86d1cd;}.g{fill:#f99746;}.h{fill:#5685d8;}.i{fill:#739af0;}.j{fill:#f1a34f;}.k{fill:#ffa412;}.l{fill:#ffb93e;}.m{fill:#fa9712;}.n{fill:#ed7d2b;}.o{fill:#ffc261;}.p{fill:#f69b34;}.q{fill:#ffa15a;}.r{fill:#f78639;}.s{fill:#ffbe55;}.t{fill:#233862;}.u{fill:#ffb27d;}.v{fill:#ed975d;}.w{fill:#2b478b;}.x{fill:#b64c41;}.y{fill:#4a75cb;}.z{fill:#88b3ff;}.aa{fill:#72a9f7;}.ab{fill:#3969b7;}</style></defs><path class="a" d="M33.72,343.73s-67.55-72.52-11.43-151c49.8-69.67,107.86-64.91,150.46-36.64,18.14,12,70.45,1.49,115-69.4,60.71-96.68,271.17-38,232.8,110.69-18.57,72,56.51,74.6,18.25,146.55Z"/><path class="b" d="M581.49,247.46c-4.75-17.56-34.39-12.07-34.39-12.07s-20.12,30.73-26,31.47,12.08-29.64,12.08-29.64C521.85,236.12,493,250,493,250s1.83,35.85-4,35.12,0-31.83,0-31.83c-11,3.29-21.23,16.1-21.23,16.1-12.8,20.85,14.64,36.22,14.64,36.22s.37,12.44-7.32,26.71h0a42.22,42.22,0,0,0-3.49,7.11h3c.24-.8.51-1.58.81-2.32v-.05c.2-.46.5-1.12.87-1.92h0c.91-1.79,1.53-3.11,1.92-4.06h0c2.74-5.62,6.69-12.94,9.32-14.47a5.93,5.93,0,0,1-.64-1.38c.21.44.42.9.64,1.38,5.12,11,30.74,12.8,45,9.87s8-6.95.36-13.48-23.78-4.81-28.54-7.37,2.2-5.12,11.71-4.39,14.27,10.24,29.64,11.71,27.07-27.44,27.07-27.44c-10.61,3.29-29.63-2.57-30.37-6.22s27.44-3.3,31.84-4.39S586.25,265,581.49,247.46Z"/><path class="c" d="M177.6,252.26s1.31,10.43-.64,10.55-.62-11.73-.62-11.73-9.31-5.2-13.09-5.06c0,0,5.33,10.43,3.4,10.07s-8-11-8-11S149,242.7,147,248.43s.43,8.8,1.86,9.25,10.79.9,10.47,2.1-6.75,2.76-10.2,1.45c0,0,3.3,9.82,8.42,9.65s6.9-3.23,10.07-3.28,5.42.94,3.79,1.69-6.93-.14-9.61,1.87-4.83,3.22-.16,4.48,13.21,1.17,15.13-2.36l.24-.44a2,2,0,0,1-.24.44c.84.56,2,3.07,2.8,5,.11.32.28.77.55,1.39h0c.11.28.19.5.25.66,1.41,4.28.09,11.43.09,11.43l1,.33a16.83,16.83,0,0,0-.87-13.33,19.44,19.44,0,0,1-1.89-9s9.42-4.54,5.59-11.71C184.31,258,181.18,253.57,177.6,252.26Z"/><path class="d" d="M107.21,298.82c-.84-12.87,20.29-16,20.29-16s20.55,16,24.64,15.13-14.9-17.1-14.9-17.1c7.36-3.34,29.93-.65,29.93-.65s7,24.46,10.76,22.63-7.3-21.35-7.3-21.35c8.11-.31,17.92,5.92,17.92,5.92,13.38,11-1.49,27.65-1.49,27.65a41.36,41.36,0,0,0,11,16.23h0a30.31,30.31,0,0,1,4,4l-2,.69c-.35-.49-.71-.94-1.08-1.37h0v0l-1-1.09h0c-1-1-1.74-1.74-2.22-2.29h0c-3.12-3.14-7.45-7.15-9.57-7.57a4,4,0,0,0,.12-1.07l-.12,1.07c-.91,8.54-17.67,15.64-27.91,17s-7-2.82-3.34-9,14.84-8.69,17.45-11.5-2.65-2.93-8.86-.25S156.26,330,146.29,334.5s-24.45-12.18-24.45-12.18c7.87-.23,19.28-8.52,18.93-11.14s-19.16,4.09-22.35,4.36S108.05,311.69,107.21,298.82Z"/><path class="e" d="M503,68a8.35,8.35,0,0,1-2.84-4.24,7.56,7.56,0,0,1,.74-4.36l-3-.6s-.89,4,.62,6.66a7.63,7.63,0,0,0,2.68,2.36A2.58,2.58,0,0,0,503,68Z"/><path class="f" d="M508.23,66.18,511,69.32s-7.77,2.07-12.2-3.43C498.78,65.89,505.31,68.1,508.23,66.18Z"/><path class="g" d="M366.7,26.74a5.52,5.52,0,0,1,7.74-1.8l2.71-3s-2.83-1.87-8.81,2.2C364.42,26.86,366.7,26.74,366.7,26.74Z"/><path class="g" d="M363.93,31.3s-.94-5.06,7.4-8.8c0,0-3,1.69-3.62,6.85Z"/><path class="h" d="M193.87,177.65a5,5,0,0,1-2.79-6.66l-3-2s-1.26,2.81,3.3,7.56C194.31,179.67,193.87,177.65,193.87,177.65Z"/><path class="i" d="M198.37,179.44s-4.4,1.61-9-5.3c0,0,2,2.43,6.69,2.21Z"/><path class="j" d="M207.09,114s2.53-1.6,2.8-3.53c0,0,2.46.13,3,.93,0,0-1.14,3.2-2.47,3.8C210.42,115.24,207.42,115.44,207.09,114Z"/><path class="j" d="M40.89,229.62s-2.7-1.7-3-3.77c0,0-2.63.15-3.19,1,0,0,1.2,3.41,2.63,4.05C37.34,230.9,40.53,231.11,40.89,229.62Z"/><path class="f" d="M343.56,79s-3.77-2.38-4.17-5.26c0,0-3.67.2-4.47,1.39,0,0,1.69,4.76,3.68,5.66C338.6,80.8,343.06,81.1,343.56,79Z"/><path class="d" d="M575.2,67.93l23.46,73.43a6.22,6.22,0,0,1-4,7.78L465.83,190.28a6.21,6.21,0,0,1-7.78-4L434.6,112.84a6.22,6.22,0,0,1,4-7.78L567.43,63.92A6.2,6.2,0,0,1,575.2,67.93Z"/><rect class="c" x="462.26" y="161.01" width="41.59" height="5.89" rx="2.77" transform="translate(-26.98 154.74) rotate(-17.71)"/><rect class="c" x="507.51" y="146.55" width="41.59" height="5.89" rx="2.77" transform="translate(-20.44 167.83) rotate(-17.71)"/><path class="c" d="M505.5,122a6.69,6.69,0,0,1,.33,3.28,3,3,0,0,1-5.09,1.63,8,8,0,0,1-2-6.14,3.06,3.06,0,0,1,5.11-1.63A6.67,6.67,0,0,1,505.5,122Zm-1.58.49a6.94,6.94,0,0,0-.89-1.89c-.53-.71-1.11-1-1.73-.77s-1,.74-1,1.62a6.4,6.4,0,0,0,.36,2.08q1,3.21,2.66,2.68c.63-.2,1-.75,1-1.64A6.53,6.53,0,0,0,503.92,122.51Z"/><path class="c" d="M512.55,119.76a6.74,6.74,0,0,1,.33,3.29,3,3,0,0,1-5.09,1.62,7.89,7.89,0,0,1-2-6.13,3.06,3.06,0,0,1,5.11-1.64A6.79,6.79,0,0,1,512.55,119.76Zm-1.58.5a6.8,6.8,0,0,0-.89-1.89c-.54-.72-1.11-1-1.73-.77s-1,.74-1,1.62a6.44,6.44,0,0,0,.36,2.08c.68,2.13,1.57,3,2.66,2.68.63-.2.94-.75.95-1.64A6.49,6.49,0,0,0,511,120.26Z"/><path class="c" d="M523.23,116.35a6.73,6.73,0,0,1,.33,3.29,3,3,0,0,1-5.09,1.62,6.68,6.68,0,0,1-1.63-2.87,6.8,6.8,0,0,1-.34-3.27,3.06,3.06,0,0,1,5.11-1.63A6.79,6.79,0,0,1,523.23,116.35Zm-1.57.5a6.4,6.4,0,0,0-.9-1.89c-.53-.72-1.11-1-1.73-.78s-1,.75-1,1.63a6.73,6.73,0,0,0,.36,2.08c.68,2.13,1.57,3,2.66,2.68q.95-.3,1-1.65A6.77,6.77,0,0,0,521.66,116.85Z"/><path class="c" d="M530.28,114.1a6.73,6.73,0,0,1,.33,3.29,3,3,0,0,1-5.09,1.62,8,8,0,0,1-2-6.14,3.06,3.06,0,0,1,5.11-1.63A6.79,6.79,0,0,1,530.28,114.1Zm-1.57.5a6.6,6.6,0,0,0-.9-1.9c-.53-.71-1.11-1-1.73-.77a1.52,1.52,0,0,0-1,1.62,6.63,6.63,0,0,0,.36,2.08c.68,2.14,1.57,3,2.66,2.69.63-.21,1-.75,1-1.65A6.77,6.77,0,0,0,528.71,114.6Z"/><path class="c" d="M537.33,111.85a6.7,6.7,0,0,1,.33,3.28,3,3,0,0,1-5.09,1.63,8,8,0,0,1-2-6.14,2.87,2.87,0,0,1,2.07-2.33,2.84,2.84,0,0,1,3,.7A6.73,6.73,0,0,1,537.33,111.85Zm-1.57.5a6.6,6.6,0,0,0-.9-1.9c-.53-.71-1.11-1-1.73-.77s-1,.75-1,1.62a6.63,6.63,0,0,0,.36,2.08q1,3.21,2.66,2.68c.63-.2,1-.75,1-1.64A7.09,7.09,0,0,0,535.76,112.35Z"/><path class="c" d="M544.38,109.6a6.69,6.69,0,0,1,.33,3.28,3,3,0,0,1-5.09,1.63,8,8,0,0,1-2-6.14,2.87,2.87,0,0,1,2.07-2.33,2.84,2.84,0,0,1,3,.7A6.73,6.73,0,0,1,544.38,109.6Zm-1.57.49a6.94,6.94,0,0,0-.9-1.89c-.53-.71-1.11-1-1.73-.77s-1,.74-1,1.62a6.68,6.68,0,0,0,.36,2.08q1,3.21,2.66,2.68c.63-.2.95-.75.95-1.64A6.78,6.78,0,0,0,542.81,110.09Z"/><path class="c" d="M555.07,106.18a6.72,6.72,0,0,1,.32,3.29,3,3,0,0,1-5.08,1.63,8,8,0,0,1-2-6.14,3.06,3.06,0,0,1,5.11-1.63A6.59,6.59,0,0,1,555.07,106.18Zm-1.58.5a6.66,6.66,0,0,0-.9-1.89c-.53-.71-1.11-1-1.73-.77s-1,.74-1,1.62a6.36,6.36,0,0,0,.35,2.08c.68,2.13,1.57,3,2.66,2.68.63-.2,1-.75,1-1.64A6.77,6.77,0,0,0,553.49,106.68Z"/><path class="c" d="M562.12,103.93a6.83,6.83,0,0,1,.32,3.29,3,3,0,0,1-5.08,1.62,6.6,6.6,0,0,1-1.64-2.86,6.82,6.82,0,0,1-.34-3.27,3.06,3.06,0,0,1,5.11-1.64A6.7,6.7,0,0,1,562.12,103.93Zm-1.58.5a6.53,6.53,0,0,0-.9-1.89,1.53,1.53,0,0,0-1.73-.78c-.64.21-1,.75-1,1.63a6.4,6.4,0,0,0,.35,2.08c.68,2.13,1.57,3,2.66,2.68.63-.2.95-.75,1-1.64A6.77,6.77,0,0,0,560.54,104.43Z"/><path class="c" d="M569.16,101.68a6.73,6.73,0,0,1,.33,3.29,3,3,0,0,1-5.08,1.62,6.58,6.58,0,0,1-1.64-2.87,6.8,6.8,0,0,1-.34-3.27,3.06,3.06,0,0,1,5.11-1.63A6.79,6.79,0,0,1,569.16,101.68Zm-1.57.5a6.4,6.4,0,0,0-.9-1.89c-.53-.72-1.11-1-1.73-.78s-1,.75-1,1.63a6.73,6.73,0,0,0,.36,2.08q1,3.19,2.66,2.68.94-.3,1-1.65A6.77,6.77,0,0,0,567.59,102.18Z"/><path class="c" d="M576.21,99.43a6.73,6.73,0,0,1,.33,3.29,3,3,0,0,1-5.08,1.62,6.64,6.64,0,0,1-1.64-2.87,6.8,6.8,0,0,1-.34-3.27,3.06,3.06,0,0,1,5.11-1.63A6.79,6.79,0,0,1,576.21,99.43Zm-1.57.5a6.6,6.6,0,0,0-.9-1.9c-.53-.71-1.11-1-1.73-.77a1.52,1.52,0,0,0-1,1.62,6.63,6.63,0,0,0,.36,2.08c.68,2.14,1.57,3,2.66,2.69.63-.21,1-.75,1-1.65A6.77,6.77,0,0,0,574.64,99.93Z"/><path class="c" d="M481.89,103.61,448.3,114.34a2.77,2.77,0,0,1-3.49-1.8h0a2.78,2.78,0,0,1,1.8-3.48l33.6-10.73a2.77,2.77,0,0,1,3.48,1.8h0A2.77,2.77,0,0,1,481.89,103.61Z"/><path class="c" d="M563.5,83.74a4.21,4.21,0,0,0-1.7-2.25.46.46,0,0,0-.66.17l-.1.21a.46.46,0,0,0,.15.58,3.11,3.11,0,0,1,1.17,3.69.45.45,0,0,0,.22.55l.21.11a.44.44,0,0,0,.63-.24A4.19,4.19,0,0,0,563.5,83.74Z"/><path class="c" d="M565.68,83a6.47,6.47,0,0,0-2.87-3.61.44.44,0,0,0-.63.18l-.06.12a.46.46,0,0,0,.17.6,5.47,5.47,0,0,1,2.2,6.89.46.46,0,0,0,.21.59l.11.06a.46.46,0,0,0,.63-.21A6.54,6.54,0,0,0,565.68,83Z"/><path class="c" d="M567.59,82.44a8.58,8.58,0,0,0-3.88-4.81.46.46,0,0,0-.63.19h0a.45.45,0,0,0,.18.6,7.61,7.61,0,0,1,3.13,9.8.46.46,0,0,0,.2.59h0a.46.46,0,0,0,.62-.21A8.52,8.52,0,0,0,567.59,82.44Z"/><path class="c" d="M569.65,81.78a10.66,10.66,0,0,0-5-6.09.45.45,0,0,0-.63.2l-.11.2a.47.47,0,0,0,.19.6,9.57,9.57,0,0,1,4,12.43.44.44,0,0,0,.19.59l.21.11a.46.46,0,0,0,.62-.21A10.65,10.65,0,0,0,569.65,81.78Z"/><rect class="k" x="409.62" y="131.69" width="73.34" height="211.25"/><rect class="l" x="215.86" y="131.69" width="193.76" height="211.25"/><rect class="k" x="305.35" y="145.54" width="14.79" height="193.76" transform="translate(555.17 -70.32) rotate(90)"/><rect class="m" x="438.9" y="205.75" width="14.79" height="73.34" transform="translate(688.72 -203.87) rotate(90)"/><path class="g" d="M349.45,134s43.78-28.44,73.53-19.3l-6.13,5.73,2.76,9.64s-33.09-10.78-71.06,5.56Z"/><path class="g" d="M347,127.51s-7.73-.93-19.24-2.51c-30.56-4.21-87.8-13-98.08-21.14-16.14-12.79,22.11-67.08,38.67-74.62S347,127.51,347,127.51Z"/><path class="g" d="M468.12,59.9c2.76,13.45-122.25,71.56-122.25,71.56s2.27-6.15,6-15.78h0C365.37,80.5,397.93-1.12,408.63,0a13.08,13.08,0,0,1,3.73,1.11C428.79,8.35,465.57,47.51,468.12,59.9Z"/><path class="n" d="M411.31,13.08c-7.64,13.27-58.66,101.22-59.46,102.59C365.37,80.5,397.93-1.12,408.63,0a6.81,6.81,0,0,1,3.73,1.11C414.31,2.54,415.52,5.76,411.31,13.08Z"/><path class="n" d="M327.79,125h0c-30.56-4.21-87.8-13-98.08-21.14-4.64-13.07,7.4-14.13,16.16-15S327.79,125,327.79,125Z"/><path class="n" d="M323.69,131.67s7-15.94,20.8-16.82c14.41-.92,22.59,16.82,22.59,16.82Z"/><rect class="o" x="209.99" y="131.69" width="202.74" height="29.06"/><rect class="m" x="412.73" y="131.69" width="76.42" height="29.06"/><path class="g" d="M330.79,129.26s-39.71-12.58-66.5-4.26c-30.89,9.58-29.06,47.69-29.06,47.69l7.27-3,9.8,4.6s1.66-40.36,26.84-46C300.91,123.42,330.79,129.26,330.79,129.26Z"/><rect class="k" x="295.64" y="131.69" width="14.79" height="211.23"/><rect class="n" x="167.29" y="69.48" width="14.32" height="41.24" transform="translate(-19.59 60.11) rotate(-18.53)"/><rect class="g" x="130.82" y="77.76" width="37.82" height="41.24" transform="translate(-23.5 52.68) rotate(-18.53)"/><rect class="l" x="148.6" y="80.42" width="2.89" height="37.82" transform="translate(196.54 -74.5) rotate(71.47)"/><rect class="p" x="173.32" y="83.89" width="2.89" height="14.32" transform="translate(205.55 -103.59) rotate(71.47)"/><path class="l" d="M151.2,75.47s9.32-8.67,17.62-9.34l-1.18,1.53L169,69.21a39.8,39.8,0,0,0-17.93,6.63Z"/><path class="l" d="M149.26,75.93s-1.49.31-3.72.73c-5.92,1.12-17.06,3-19.46,2.17-3.78-1.36-.07-13.78,2.53-16.21S149.26,75.93,149.26,75.93Z"/><path class="l" d="M167.48,55.91c1.34,2.32-18.19,20.83-18.19,20.83s0-1.28.13-3.3h0c.32-7.35,1.28-24.47,3.33-24.93a2.67,2.67,0,0,1,.76,0C157,48.81,166.24,53.77,167.48,55.91Z"/><path class="p" d="M154.06,50.77c-.59,2.92-4.58,22.37-4.64,22.67.32-7.35,1.28-24.47,3.33-24.93a1.32,1.32,0,0,1,.76,0C154,48.63,154.39,49.15,154.06,50.77Z"/><path class="p" d="M145.54,76.66h0c-5.92,1.12-17.06,3-19.46,2.17-1.67-2.13.49-3.07,2-3.78S145.54,76.66,145.54,76.66Z"/><path class="p" d="M145.2,78.15s.31-3.38,2.81-4.4,5.22,1.71,5.22,1.71Z"/><rect class="q" x="124.03" y="78.77" width="39.58" height="5.67" transform="translate(-18.48 49.94) rotate(-18.53)"/><rect class="r" x="162.2" y="70.11" width="14.92" height="5.67" transform="matrix(0.95, -0.32, 0.32, 0.95, -14.39, 57.7)"/><path class="s" d="M146.36,77.26s-8.13.14-12.57,3.34c-5.12,3.69-2.42,10.63-2.42,10.63l1.16-1,2.1.24s-2.2-7.57,2.11-10.18C140.47,78,146.36,77.26,146.36,77.26Z"/><rect class="l" x="146.54" y="78.36" width="2.89" height="41.59" transform="translate(-23.84 52.17) rotate(-18.53)"/><path class="t" d="M411.15,154.1s-5.36,3.16-2.07,9.29c0,0-4.7-.86-5.71-2.26a3.45,3.45,0,0,0,.29.88s-4.32-1-5.74-2.78,5.52-23.41,16.75-17.81c0,0,10.27,1.9,6.25,13.31s-.22,12.4-.22,12.4a5.37,5.37,0,0,1-1.7.11s-.68-.48-.71-.93a2.64,2.64,0,0,0,.11.94s-4.21-.7-5.85-2.79S409.93,156.35,411.15,154.1Z"/><path class="u" d="M403.4,172.46h0S403.36,172.46,403.4,172.46Z"/><path class="u" d="M416.45,168.7c.16,1.42.35,2.68.43,3.29.19,1.35-12.66.47-13.48.47.57-.25,2.32-5.78,2.87-7.89.67-2.55,1.19-5.32,1.19-5.32l9.07.58.54,0a31.68,31.68,0,0,0-.73,3.49c0,.15,0,.29-.07.44A24.28,24.28,0,0,0,416.45,168.7Z"/><path class="t" d="M406.21,158.34A26.16,26.16,0,0,1,405,150.1c.21-2.55,3.85-11.27,12.59-7.56a12.74,12.74,0,0,1,4.6,3.29c1.62,1.86,3.71,5.48-1.56,12.53l-1.54,2.45Z"/><path class="v" d="M416.45,168.7c-6.34-1.86-9-9.19-9-9.19,2.69.08,6.18,2,8.93,3.84,0,.15,0,.29-.07.44A24.28,24.28,0,0,0,416.45,168.7Z"/><path class="u" d="M416.9,166.13s-11.46-2.84-9.59-9.95,1.66-12.27,9.06-10.76,8.1,4.6,8.05,7.12S419.93,166.68,416.9,166.13Z"/><path class="t" d="M421.61,146.62s-5.33,7.52-10.46,7.48-6.86-1.87-6.86-1.87a14.08,14.08,0,0,0,6.57-6.85S420.3,142,421.61,146.62Z"/><path class="t" d="M420.66,147.1s1.84,2.48,1.93,4.44-.64,5.75.48,5.92c0,0,3.85-5.05,2.06-9C423.22,144.36,420.66,147.1,420.66,147.1Z"/><path class="t" d="M421,147.49s-4.54,8.15-11.34,9.34c0,0,7.48-3.76,9.52-9.39S421,147.49,421,147.49Z"/><path class="a" d="M415.11,161.57s.14,1.08.83,1.34a10,10,0,0,0,2.71.6,8.49,8.49,0,0,0,.88-1A14.43,14.43,0,0,0,415.11,161.57Z"/><path class="u" d="M410.83,270.36c-.15.61-.29,1.22-.43,1.81-.87,3.59-1.67,6.92-2.18,9.71-.66,3.63-.81,6.33,0,7.46,3.56,4.67,0,41.71,0,41.71l-4,4.18s-7.05-36.58-9-42.31c-.87-2.6-2.13-13.73-3.25-25.09-.06-.57-.11-1.14-.17-1.7-.19-2-.38-4-.55-5.9-1-10.75-1.76-20-1.76-20s7.47-5.26,14.26-5.84c4-.35,7.76.92,9.62,5.84C416.12,247.43,413.38,259.77,410.83,270.36Z"/><path class="v" d="M410.83,270.36c-5.55-4-13.36-11.14-16.2-22.84-.54-5.81,4.05-11.34,9.16-13.08,4-.35,7.76.92,9.62,5.84C416.12,247.43,413.38,259.77,410.83,270.36Z"/><path class="u" d="M431.08,199.72l27.28,7.05V210s-27.15-.32-28.9-3.35S431.08,199.72,431.08,199.72Z"/><path class="u" d="M458.36,304.73,457.08,310s-36.9-19.06-41.68-22.72c-1.91-1.47-4.45-9.46-6.8-18.49-3.49-13.47-6.57-29.27-6.57-29.27s5.17-19.9,19-7.72c8.29,7.29,7,21.33,6.09,32.26-.6,7.32-1,13.25,1.71,14.78,5.36,3,21.1,16.78,26.07,26.26Z"/><path class="u" d="M395.75,216.28c-9.64-2.46-20.23-17.41-20.23-17.41l2.71-2.35c2.81,3.31,14.49,9,14.49,9-.06-3,0-5.8.21-8.32,1.3-17.1,7.75-22.8,9.51-24.05a3.29,3.29,0,0,1,.44-.29s0,.12,0,.36c0,.51.07,1.53.12,2.94C403.38,186.65,403.81,218.33,395.75,216.28Z"/><path class="a" d="M403.38,195.75c-.5,12.2-2.32,24.28-7.63,23.51-6.52-.95-8.21-7-8.56-11.55a26.12,26.12,0,0,1,.1-5s3.2,0,3.72-.49c2.46-2.28,1.73-24.58,2.95-26.89s9.12-3.8,9.12-3.8S403.88,183.69,403.38,195.75Z"/><path class="b" d="M403.38,195.75c-.5,12.2-2.32,24.28-7.63,23.51-6.52-.95-8.21-7-8.56-11.55,1.6-.08,4.42-.47,5.53-2.18,1.6-2.44,6.6-18.16,6.6-18.16S401.29,190.9,403.38,195.75Z"/><path class="a" d="M444.46,199.72c1.77,2.51.8,7.37-2.9,11.28-2.3,2.43-5.42,3.87-10.48,3.12-2.21-.32-8.39-3.81-9-8.06l-.19-1.22s-2.81,2.82-2.91,3.35c-.05.24-.29,2.36-.33,2.65a10.58,10.58,0,0,0,.21,1.65s-13.43,5.87-24.52-.82c0,0-3.17-27.11-.9-31.63,1.13-2.24,7.47-6.6,9.67-8.53a3.55,3.55,0,0,0,.87-2.59c-.12-.71.7-1.91,1.39-1.69,1.33.43,5.08,2.28,7.72,1.57,1.32-.35,3-1.87,4.26-1.52,1.56.43-.09,4.18.79,4.23,1.22.06,7.8,1.37,8.35,2.43.19.37,2.08,5.38,4.45,12h0C435.36,198.37,441.87,196,444.46,199.72Z"/><path class="b" d="M421.86,204.84s-.32-10.34-1.16-10.21-12.89,11.73-10,16.37S421.86,204.84,421.86,204.84Z"/><path class="w" d="M431.08,247.26a81,81,0,0,1-11.5,2.38c-8.48,1.17-20.33,1.59-30.91-2.38,0,0-.87-15.75,1.63-24S394,211.16,394,211.16a53,53,0,0,0,20.25.56,32.8,32.8,0,0,0,4.28-1.1s6.29,13.36,8,19.09S431.08,247.26,431.08,247.26Z"/><path class="t" d="M431.08,247.26a81,81,0,0,1-11.5,2.38c-12.55-7.12-6.43-37.08-6.43-37.08.37-.3.73-.58,1.09-.84a32.8,32.8,0,0,0,4.28-1.1s6.29,13.36,8,19.09S431.08,247.26,431.08,247.26Z"/><path class="x" d="M404.65,214.12c-7.44,0-10.51-2.56-10.73-2.73l-.48-3.51c.07.06,10.05,6.05,25.51.31l-.33,2.65C412.68,213.05,408.52,214.12,404.65,214.12Z"/><path class="u" d="M458.36,206.77s5-2.47,7-2.7,5.34-.32,5.34,0-3.58,2.54-4.54,2.7-2.79,1.51-2.23,1.67,3.5-.51,3.54,0-1.79.84-2.11,1.24-1.43.87-3.22.63-3.77-.35-3.77-.35Z"/><path class="u" d="M378.23,196.51l-2.73,2.37s-4.83-3.53-5.06-5v-.14c0-1.51,3.07-4.63,5.61-4.75a1.33,1.33,0,0,1,.7.18c1.36.84,1.52,4.38,1.51,6.21C378.25,196.07,378.23,196.51,378.23,196.51Z"/><path class="w" d="M458.36,304.73,457.08,310s-36.9-19.06-41.68-22.72c-1.91-1.47-4.45-9.46-6.8-18.49,3.15.64,10,1,18.54-4.73-.6,7.32-1,13.25,1.71,14.78,5.36,3,21.1,16.78,26.07,26.26Z"/><path class="t" d="M465.65,306.77h0a2.32,2.32,0,0,1-1.43-1.49c-.33-.8-.43-1.45-.73-2.24l-1.25-2.15c-1.3-1.72-1.76-1.31-1.76-1.31s-.34.43-.84,1a10.54,10.54,0,0,1-3,2.62,2.65,2.65,0,0,0-1.29,1,2.4,2.4,0,0,0-.39.88s2.68.47,2.45,1.79c-.46,2.55-.35,3-.3,3.1h0s4.57,2.39,6,2.86a11.44,11.44,0,0,1,4.79,3.4,1.51,1.51,0,0,0,1.28.41c.68-.11,1.57-.33,1.77-.75Z"/><path class="t" d="M408.27,289.34c3.56,4.67,0,41.71,0,41.71l-4,4.18s-7.05-36.58-9-42.31c-.87-2.6-2.13-13.73-3.25-25.09,3.38,1.51,11.62,4.79,18.39,4.34-.87,3.59-1.67,6.92-2.18,9.71C407.56,285.51,407.41,288.21,408.27,289.34Z"/><path class="t" d="M412.34,337.09l-2.18,1.18c-.8.28-1.45.36-2.26.67a4.71,4.71,0,0,0-2.12,1.55c-.62,2.51-1.49,2.35-1.49,2.35l-8.78.08c-.42-.2.28-2,.62-2.31.83-.82,3.31-.4,4.22-3,.51-1.44,3-5.94,3-5.94h0c.08-.05.55-.14,3.09.39,1.31.27,1.86-2.39,1.86-2.39a2.47,2.47,0,0,1,.87.41,2.64,2.64,0,0,1,1,1.32,10.42,10.42,0,0,0,2.53,3.08c.56.52,1,.87,1,.87S414.1,335.83,412.34,337.09Z"/><rect class="y" x="286.75" y="235.78" width="37.3" height="107.43"/><rect class="i" x="188.21" y="235.78" width="98.54" height="107.43"/><rect class="c" x="233.72" y="242.82" width="7.52" height="98.54" transform="translate(529.58 54.61) rotate(90)"/><rect class="z" x="301.64" y="273.44" width="7.52" height="37.3" transform="translate(597.49 -13.31) rotate(90)"/><path class="y" d="M260.1,234.12s30.21-13.71,51.26-8.5l-4.2,2.82,2.12,5a103.66,103.66,0,0,0-49.79,1.53Z"/><path class="aa" d="M254.92,233.6s-3.93-.48-9.78-1.28c-15.54-2.14-44.65-6.61-49.88-10.75-8.21-6.5,11.25-34.12,19.67-37.95S254.92,233.6,254.92,233.6Z"/><path class="aa" d="M316.51,199.21c1.41,6.84-62.17,36.4-62.17,36.4s1.16-3.13,3-8h0c6.87-17.88,23.43-59.39,28.87-58.81a6.4,6.4,0,0,1,1.9.56C296.52,173,315.22,192.91,316.51,199.21Z"/><path class="y" d="M287.62,175.4c-3.88,6.75-29.83,51.48-30.23,52.17,6.87-17.88,23.43-59.39,28.87-58.81a3.39,3.39,0,0,1,1.9.56C289.15,170,289.77,171.68,287.62,175.4Z"/><path class="y" d="M245.15,232.32h0c-15.54-2.14-44.65-6.61-49.88-10.75-2.36-6.65,3.76-7.19,8.22-7.66S245.15,232.32,245.15,232.32Z"/><path class="y" d="M243.07,235.71s3.56-8.1,10.57-8.55c7.33-.47,11.49,8.55,11.49,8.55Z"/><rect class="z" x="185.23" y="235.78" width="103.11" height="14.78"/><rect class="ab" x="288.33" y="235.78" width="38.86" height="14.78"/><path class="y" d="M246.66,234.54s-20.19-6.4-33.82-2.17c-15.7,4.88-14.77,24.26-14.77,24.26l3.69-1.52,5,2.34s.84-20.52,13.64-23.4C231.47,231.57,246.66,234.54,246.66,234.54Z"/><rect class="c" x="228.78" y="235.78" width="7.52" height="108.36"/><path class="t" d="M68.89,191.66S96.66,212,103.46,211.53s30.85-15.34,30.85-15.34l-5.09-6.05s-21.79,8.07-25.78,5.84-19.57-21.11-26.11-20.11S64.33,184.34,68.89,191.66Z"/><path class="t" d="M52.51,344.6H44.2a5.07,5.07,0,0,1-2.27-3.8c-.4-2.68-3.4-4.14-4-6.33s2.68-5.26,2.68-5.26l.55-.72.58-.74,5.51,1.3s.14,1.31.22,3a37.43,37.43,0,0,1,0,3.82c-.16,2.92.82,6.06,3.41,6.63C52.77,342.9,52.68,344,52.51,344.6Z"/><path class="t" d="M100.69,344.6h-19c-.92-1.11-.58-5.23-.44-6.57,0-.27,0-.43,0-.43s6.49-5.18,7.38-1.21c0,.12.06.24.1.36,1.12,3.72,6.15,5.41,9.06,5.88A3.28,3.28,0,0,1,100.69,344.6Z"/><path class="g" d="M97.08,238.61s-1,12.29-2.15,27.05c-1.57,20.06-3.46,44.7-3.65,49.37-.32,8.1-1.62,21.07-1.62,21.07s-3.08,3.08-9.24,1.78a211.7,211.7,0,0,1-7-38.09c0-.32-.05-.65-.08-1-1.46-19.93-3.72-61.91-3.72-61.91Z"/><path class="n" d="M97.08,238.61s-1,12.29-2.15,27.05L73.37,299.79c0-.32-.05-.65-.08-1-1.46-19.93-3.72-61.91-3.72-61.91Z"/><path class="g" d="M92.58,240.07s-17.75,44.49-29.42,65.4-15.31,26.74-15.31,26.74-6.69-2.68-7.29-4.5c0,0,4.46-40.36,12.27-50.2,4.42-5.56,9.6-22.24,9.85-28.08s1.58-17.38,1.58-17.38Z"/><path class="u" d="M80.88,176.73c-6.62,3-19.24-1.43-19.24-1.43s5.77-5.53,4.25-15.39l5.84,3.65,4,2.48a41,41,0,0,1,.16,4.77c0,.81,0,1.71-.08,2.69A16.71,16.71,0,0,1,80.88,176.73Z"/><path class="v" d="M75.69,166a41,41,0,0,1,.16,4.77c-4.09-.2-9.41-6.13-9.41-6.13a12.81,12.81,0,0,1,5.29-1.12Z"/><path class="u" d="M77.78,165.62s-11.14,3.26-13.07-3.71-4.65-11.25,2.38-13.63,9.16-.09,10.36,2.08S80.63,164.59,77.78,165.62Z"/><path class="w" d="M97.77,234.23a45.8,45.8,0,0,1,.43,5.29,1.12,1.12,0,0,1-.69.37c-2.59.28-10,2.62-16.42,2.73a47.54,47.54,0,0,1-15.78-2.56c-.71-.22-2.38-.87-2.43-1.63s-.14-2.05-.22-3.58A190.45,190.45,0,0,0,60,210c-.34-1.93-.63-3.86-.87-5.76-1.76-14.19-.45-27,4.69-31.91.45-.41,3.58.69,6.47,1.7a11.4,11.4,0,0,0,7.52,0l2.63,1.81a23.92,23.92,0,0,1,8.88,11c1.75,4.58,3.46,13,4.9,21.79.66,4,1.28,8,1.78,11.82v.14a11.38,11.38,0,0,1,.18,1.17c.09.68.18,1.35.27,2C97,227.84,97.47,231.48,97.77,234.23Z"/><path class="w" d="M64.62,161.22s1.14-.33.76-1.92-.63-3.68.72-3.45,1.55,1.27,2,.6.16-3.25,4-3.9,5.61.51,7.32-.5,1.48-3.76,1.48-3.76a3.08,3.08,0,0,1-1.13,1.44s2.52-4.49-1.32-6.89-7.17-.13-9.18.23c-4.42.81-7.26,1.42-8.36,4.53S61.42,158.75,64.62,161.22Z"/><path class="t" d="M97.77,234.23c-.55.1-10,1.81-16.51-2.45-6.66-4.38-14.45-30.36-14.45-30.36S81.75,218,82,218.69s11,4,14.46,5.06C97,227.84,97.47,231.48,97.77,234.23Z"/><rect class="n" x="101.81" y="151.37" width="73.92" height="73.92" transform="translate(-2.67 1.99) rotate(-0.82)"/><rect class="g" x="86.04" y="151.6" width="73.92" height="73.92" transform="translate(-2.67 1.77) rotate(-0.82)"/><path class="a" d="M95.21,174.82c-.1-7,4.68-12.68,11.87-12.78s12,5.4,12.09,12.44-4.69,12.69-11.87,12.79S95.31,181.87,95.21,174.82ZM136,162.19l8.39-.12-35.31,49.85-8.39.12Zm-24.21,12.4c0-3.31-1.92-6.18-4.74-6.14s-4.47,2.89-4.42,6.27,1.92,6.17,4.74,6.13S111.81,177.9,111.77,174.59Zm14.1,25c-.1-7,4.68-12.68,11.87-12.78s12,5.39,12.09,12.44S145.15,212,138,212.07,126,206.67,125.87,199.62Zm16.56-.23c-.05-3.32-1.92-6.18-4.74-6.14s-4.47,2.88-4.42,6.27,1.92,6.17,4.74,6.13S142.48,202.7,142.43,199.39Z"/><path class="u" d="M122.75,228.38a19.53,19.53,0,0,1-6.72-1.63,11.39,11.39,0,0,1-2.62-1.7l.26-1.64.32-2,.51-.06c.32,0,.77-.07,1.28-.08a1.66,1.66,0,0,0,1.5-.36,3.56,3.56,0,0,1,2.87-.79c.95.23,3,0,3,.35.16.8-2.8.65-3.14,1.15a.59.59,0,0,0,0,.82h0c1.73,1.75,7.7,2.38,7.46,3.77C127.46,226.78,123.8,228.4,122.75,228.38Z"/><path class="w" d="M62.26,191.47S75.93,223.07,82,226.08s34,.67,34,.67l.18-5.39s-24-4.76-26.33-8.69-6.21-28.12-12.36-30.56S62,182.85,62.26,191.47Z"/><path class="l" d="M545.76,276.07c-.3.19-.61.36-.92.54l-.32.17-.73.37a24.56,24.56,0,0,1-22.67-43.56l1-.5.94-.44a23.4,23.4,0,0,1,2.92-1.08,24.45,24.45,0,0,1,17.86,1.48,24.55,24.55,0,0,1,2,43Z"/><path class="k" d="M533.14,277.73A22.37,22.37,0,1,1,543.92,275,22.41,22.41,0,0,1,533.14,277.73Zm0-43.42a21,21,0,1,0,18.45,10.89A21,21,0,0,0,533.1,234.31Z"/><polygon class="k" points="533.12 238.88 538.05 248.88 549.09 250.48 541.1 258.26 542.99 269.25 533.12 264.06 523.25 269.25 525.13 258.26 517.15 250.48 528.18 248.88 533.12 238.88"/><path class="l" d="M560.48,216.31l-.53.3-.17.09-.42.22a13.86,13.86,0,0,1-14.2-23.7,14.58,14.58,0,0,1,1.41-.89l.54-.28.53-.25a12.6,12.6,0,0,1,1.65-.61,13.47,13.47,0,0,1,2.51-.51,13.94,13.94,0,0,1,7.56,1.34,13.87,13.87,0,0,1,1.12,24.29Z"/><path class="k" d="M553.35,217.24a12.63,12.63,0,1,1,11-18.72,12.63,12.63,0,0,1-5,17.15A12.64,12.64,0,0,1,553.35,217.24Zm0-24.51a11.9,11.9,0,0,0-11.4,8.58,11.87,11.87,0,1,0,11.4-8.58Z"/><polygon class="k" points="553.34 195.31 556.13 200.96 562.36 201.86 557.85 206.25 558.91 212.46 553.34 209.53 547.77 212.46 548.84 206.25 544.33 201.86 550.56 200.96 553.34 195.31"/><path class="d" d="M322.74,36.7l-.32.37-.11.12-.25.27A11.11,11.11,0,0,1,305,23.35a10.34,10.34,0,0,1,.83-1.05l.33-.36.33-.33a11.56,11.56,0,0,1,1.09-.9,10.9,10.9,0,0,1,1.76-1.05,11.11,11.11,0,0,1,13.39,17Z"/><path class="c" d="M314.22,39.89a10.24,10.24,0,1,1,.59,0Zm0-19.63h-.56a9.77,9.77,0,1,0,.56,0Z"/><polygon class="c" points="311.75 22.75 315.36 26.27 320.31 25.29 318.07 29.81 320.53 34.21 315.54 33.48 312.11 37.18 311.26 32.21 306.69 30.09 311.15 27.75 311.75 22.75"/><path class="d" d="M290.27,335.65c-.18.22-.37.44-.56.65l-.2.22-.45.48a19.83,19.83,0,0,1-30.45-25.2,18.79,18.79,0,0,1,1.48-1.88c.19-.22.39-.43.59-.64l.59-.59a21,21,0,0,1,1.94-1.61,19.41,19.41,0,0,1,3.15-1.88,19.94,19.94,0,0,1,10.85-1.79,19.84,19.84,0,0,1,13.06,32.24Z"/><path class="c" d="M275.05,341.34a18.07,18.07,0,1,1,1.07,0Zm.05-35.07c-.34,0-.67,0-1,0a16.9,16.9,0,1,0,1,0Z"/><polygon class="c" points="270.65 310.72 277.09 317.01 285.93 315.26 281.94 323.34 286.33 331.2 277.42 329.9 271.29 336.5 269.77 327.63 261.6 323.85 269.57 319.66 270.65 310.72"/><path class="e" d="M352.41,207.78a9.84,9.84,0,0,1-5.8,1.56,8.9,8.9,0,0,1-4.58-2.47L340.22,210s4.13,2.5,7.67,1.82a9,9,0,0,0,3.64-2.1A3,3,0,0,0,352.41,207.78Z"/><path class="f" d="M352.34,201.23l4.54-1.88s-.63,9.44-8.42,12.32C348.46,211.67,353.38,205.21,352.34,201.23Z"/><path class="g" d="M384.19,314s2,2.25,3.93,2.2c0,0,.26,2.46-.44,3.11,0,0-3.34-.61-4.15-1.83C383.53,317.5,382.86,314.57,384.19,314Z"/><path class="d" d="M353.09,283.15a8.35,8.35,0,0,1-1.77-4.79,7.57,7.57,0,0,1,1.73-4.06L350.26,273s-1.81,3.69-.95,6.63a7.69,7.69,0,0,0,2.05,2.92A2.61,2.61,0,0,0,353.09,283.15Z"/><path class="d" d="M358.62,282.58l1.94,3.7s-8,.2-11.07-6.18C349.49,280.1,355.33,283.77,358.62,282.58Z"/></svg>