<svg xmlns="http://www.w3.org/2000/svg" viewBox="0 0 417 233.49"><defs><style>.a{fill:#0d0d0d;}.b{fill:#d8dee8;}.c{fill:#c2d000;}.d{fill:#fbc83e;}</style></defs><path d="M56.33,26.09h2.74V36.35L69.51,26.09h3.55l-9.81,9.43L73.41,47.27H70l-8.78-10-2.1,2v8H56.33Z"/><path d="M75.25,31.94h2.46V34h.05a3.71,3.71,0,0,1,1.91-1.85,6.87,6.87,0,0,1,2.86-.58,6.64,6.64,0,0,1,3,.65A6.15,6.15,0,0,1,87.68,34,8,8,0,0,1,89,36.56a10.73,10.73,0,0,1,.43,3.09A10.94,10.94,0,0,1,89,42.74a7.13,7.13,0,0,1-1.27,2.52A5.87,5.87,0,0,1,85.57,47a6.85,6.85,0,0,1-3,.62,7,7,0,0,1-1.24-.12A6.56,6.56,0,0,1,80,47.09a5,5,0,0,1-1.26-.73,4,4,0,0,1-1-1.14h-.05v7.89H75.25ZM82.32,45.4a4.1,4.1,0,0,0,2.11-.51,3.94,3.94,0,0,0,1.39-1.33,6.19,6.19,0,0,0,.75-1.9,10.57,10.57,0,0,0,.23-2.19,8.16,8.16,0,0,0-.28-2.09,5.87,5.87,0,0,0-.83-1.83,4.13,4.13,0,0,0-1.45-1.27,4.21,4.21,0,0,0-2.06-.48,4.1,4.1,0,0,0-2.11.51,4.15,4.15,0,0,0-1.41,1.32,5.4,5.4,0,0,0-.79,1.85,8.82,8.82,0,0,0-.25,2.11,9.29,9.29,0,0,0,.26,2.18,5.55,5.55,0,0,0,.82,1.85,4.34,4.34,0,0,0,1.46,1.29A4.42,4.42,0,0,0,82.32,45.4Z"/><path d="M98.62,47.59A7.8,7.8,0,0,1,95.49,47a6.1,6.1,0,0,1-2.23-1.66,6.91,6.91,0,0,1-1.34-2.55,11.11,11.11,0,0,1-.45-3.23A9.4,9.4,0,0,1,92,36.37a7.48,7.48,0,0,1,1.46-2.54,6.54,6.54,0,0,1,5-2.25,6,6,0,0,1,3.3.84,6.69,6.69,0,0,1,2.11,2.16,8.53,8.53,0,0,1,1.1,2.84,12.58,12.58,0,0,1,.24,2.94H94.07a6,6,0,0,0,.23,1.91,4.36,4.36,0,0,0,.83,1.6A4,4,0,0,0,96.61,45a4.86,4.86,0,0,0,2.1.42,4.22,4.22,0,0,0,2.56-.74,3.63,3.63,0,0,0,1.31-2.26H105a6.16,6.16,0,0,1-2.16,3.9A6.71,6.71,0,0,1,98.62,47.59Zm4-9.46a5.41,5.41,0,0,0-.39-1.69,4.24,4.24,0,0,0-2.23-2.3,4.2,4.2,0,0,0-1.68-.34,4.29,4.29,0,0,0-1.72.34,3.88,3.88,0,0,0-1.31.94,4.26,4.26,0,0,0-.87,1.38,5.14,5.14,0,0,0-.37,1.67Z"/><path d="M106,45h1.76a10.75,10.75,0,0,0,.65-1.7c.22-.72.42-1.52.61-2.4s.33-1.82.44-2.81a24,24,0,0,0,.18-2.9V31.94h10.79V45h2v6.88h-2.34V47.27H108.35v4.65H106Zm12,0V34.16H112v1.3a25.49,25.49,0,0,1-.16,2.9c-.1,1-.24,1.86-.41,2.71s-.36,1.62-.57,2.31a12.12,12.12,0,0,1-.59,1.66Z"/><path d="M124.77,31.94h2.45V44.45l7-12.51h3.15V47.27H135V34.75l-7,12.52h-3.14Z"/><path d="M144.7,34.16h-5.33V31.94H152.5v2.22h-5.34V47.27H144.7Z"/><path d="M154.46,31.94h2.45V38h7.56v-6.1h2.45V47.27h-2.45V40.21h-7.56v7.06h-2.45Z"/><path d="M170.62,31.94h2.45v5.87h4.62A5,5,0,0,1,181.21,39a4.48,4.48,0,0,1,1.32,3.45A4.74,4.74,0,0,1,181.26,46a4.6,4.6,0,0,1-3.46,1.31h-7.18ZM176.91,45c2.05,0,3.08-.85,3.08-2.55S179,40,176.91,40h-3.84V45Zm8-13.1h2.45V47.27H184.9Z"/><path d="M191,31.94h2.46V44.45l7-12.51h3.14V47.27h-2.45V34.75l-7,12.52H191Zm6.32-2.26a5,5,0,0,1-1.61-.26,3.84,3.84,0,0,1-1.31-.78,3.5,3.5,0,0,1-.9-1.23,4,4,0,0,1-.33-1.67h2q.06,2.19,2.07,2.19a2,2,0,0,0,1.55-.58,2.3,2.3,0,0,0,.53-1.61h2.05a4,4,0,0,1-.32,1.63,3.58,3.58,0,0,1-.86,1.24,4,4,0,0,1-1.3.79A4.52,4.52,0,0,1,197.36,29.68Z"/><path d="M221.57,47.59a7.66,7.66,0,0,1-3-.56,5.93,5.93,0,0,1-2.2-1.6A6.93,6.93,0,0,1,215,43a10.53,10.53,0,0,1-.45-3.18,11.48,11.48,0,0,1,.43-3.21A7.63,7.63,0,0,1,216.33,34a6.19,6.19,0,0,1,2.2-1.75,7,7,0,0,1,3.1-.64,8.67,8.67,0,0,1,2.38.31,5.79,5.79,0,0,1,2,1,5.22,5.22,0,0,1,1.4,1.65,6,6,0,0,1,.69,2.36h-2.53a3.93,3.93,0,0,0-1.22-2.26,3.66,3.66,0,0,0-2.48-.8,4.45,4.45,0,0,0-2.22.51,4,4,0,0,0-1.43,1.33,5.79,5.79,0,0,0-.76,1.91,10.38,10.38,0,0,0-.23,2.24,8.9,8.9,0,0,0,.24,2.08,5.45,5.45,0,0,0,.77,1.79,3.77,3.77,0,0,0,1.34,1.26,3.9,3.9,0,0,0,2,.48,4,4,0,0,0,2.85-1,4.45,4.45,0,0,0,1.25-2.76h2.51a7.14,7.14,0,0,1-2.05,4.41A6.41,6.41,0,0,1,221.57,47.59Z"/><path d="M230.89,31.94h2.45v7.32l6.84-7.32h3.26l-6.6,6.64,7.38,8.69h-3.14L234.85,40l-1.51,1.51v5.79h-2.45Z"/><path d="M252.5,47.59a7.63,7.63,0,0,1-3.13-.6,6.37,6.37,0,0,1-2.26-1.7,7.16,7.16,0,0,1-1.39-2.53,10.28,10.28,0,0,1-.46-3.14,10.41,10.41,0,0,1,.46-3.16,7.16,7.16,0,0,1,1.39-2.55,6.63,6.63,0,0,1,2.26-1.71,8.19,8.19,0,0,1,6.25,0,6.71,6.71,0,0,1,2.28,1.71,7.14,7.14,0,0,1,1.38,2.55,10.41,10.41,0,0,1,.47,3.16,10.28,10.28,0,0,1-.47,3.14,7.14,7.14,0,0,1-1.38,2.53,6.44,6.44,0,0,1-2.28,1.7A7.62,7.62,0,0,1,252.5,47.59Zm0-2.19a4.3,4.3,0,0,0,1.81-.39,4.18,4.18,0,0,0,1.48-1.11,5.09,5.09,0,0,0,1-1.81,8.69,8.69,0,0,0,0-5,5.23,5.23,0,0,0-1-1.82,4.24,4.24,0,0,0-1.48-1.13,4.32,4.32,0,0,0-5.1,1.13,5.38,5.38,0,0,0-1,1.82,8.69,8.69,0,0,0,0,5,5.24,5.24,0,0,0,1,1.81A4.22,4.22,0,0,0,250.7,45,4.29,4.29,0,0,0,252.5,45.4Z"/><path d="M262.72,31.94h2.45V34h.06a3.69,3.69,0,0,1,1.9-1.85,6.9,6.9,0,0,1,2.86-.58,6.61,6.61,0,0,1,3,.65A6.15,6.15,0,0,1,275.14,34a7.79,7.79,0,0,1,1.28,2.56,10.73,10.73,0,0,1,.44,3.09,10.94,10.94,0,0,1-.42,3.09,7.3,7.3,0,0,1-1.27,2.52A6,6,0,0,1,273,47a6.81,6.81,0,0,1-3,.62,6.92,6.92,0,0,1-1.24-.12,6.47,6.47,0,0,1-1.33-.38,5.36,5.36,0,0,1-1.26-.73,3.92,3.92,0,0,1-1-1.14h-.06v7.89h-2.45Zm7.07,13.46a4.06,4.06,0,0,0,2.1-.51,3.94,3.94,0,0,0,1.39-1.33,6.19,6.19,0,0,0,.75-1.9,10.57,10.57,0,0,0,.23-2.19,8.15,8.15,0,0,0-.27-2.09,6.13,6.13,0,0,0-.84-1.83,4.13,4.13,0,0,0-1.45-1.27,4.21,4.21,0,0,0-2.06-.48,4.06,4.06,0,0,0-2.1.51,4.18,4.18,0,0,0-1.42,1.32,5.6,5.6,0,0,0-.79,1.85,8.82,8.82,0,0,0-.25,2.11,9.29,9.29,0,0,0,.26,2.18,5.76,5.76,0,0,0,.82,1.85,4.2,4.2,0,0,0,3.63,1.78Z"/><path d="M279.74,31.94h2.45V44.45l7-12.51h3.15V47.27h-2.45V34.75l-7,12.52h-3.15Z"/><path d="M296.07,31.94h2.46V38h7.56v-6.1h2.45V47.27h-2.45V40.21h-7.56v7.06h-2.46Z"/><path d="M312.29,31.94H322.5v2.22h-7.76V47.27h-2.45Z"/><path d="M232.2,182.51a17.58,17.58,0,0,1-5.66-.89,12.92,12.92,0,0,1-4.5-2.56,11.64,11.64,0,0,1-3-4.1,13.39,13.39,0,0,1-1.06-5.43,10.64,10.64,0,0,1,2-6.55,9.46,9.46,0,0,1,5.37-3.54v-.12a8.55,8.55,0,0,1-4.22-3.28,9.19,9.19,0,0,1-1.47-5.22q0-5.31,3.25-8.29t9.27-3q6,0,9.27,3t3.25,8.29a9.19,9.19,0,0,1-1.47,5.22,8.55,8.55,0,0,1-4.22,3.28v.12A9.46,9.46,0,0,1,244.4,163a10.64,10.64,0,0,1,2,6.55,13.39,13.39,0,0,1-1.06,5.43,11.64,11.64,0,0,1-3,4.1,12.92,12.92,0,0,1-4.5,2.56A17.58,17.58,0,0,1,232.2,182.51Zm0-5.31a7.77,7.77,0,0,0,5.46-2,7.3,7.3,0,0,0,2.18-5.66,6.75,6.75,0,0,0-2.18-5.34,8.72,8.72,0,0,0-10.92,0,6.75,6.75,0,0,0-2.18,5.34,7.3,7.3,0,0,0,2.18,5.66A7.77,7.77,0,0,0,232.2,177.2Zm0-32.34a6.55,6.55,0,0,0-4.48,1.62,6,6,0,0,0-1.84,4.69,5.72,5.72,0,0,0,1.78,4.52,7.39,7.39,0,0,0,9.08,0,5.72,5.72,0,0,0,1.78-4.52,6,6,0,0,0-1.84-4.69A6.55,6.55,0,0,0,232.2,144.86Z"/><path d="M250.17,140.38h27.51V146a72.94,72.94,0,0,0-5.74,7.58,55.53,55.53,0,0,0-4.51,8.32,56.44,56.44,0,0,0-3.13,9.3,62.4,62.4,0,0,0-1.61,10.5h-7.18a50.66,50.66,0,0,1,1.64-9.67,60.19,60.19,0,0,1,3.33-9.27,65.08,65.08,0,0,1,4.74-8.62,73.15,73.15,0,0,1,5.8-7.73H250.17Z"/><path d="M309.78,181.68H282.33a17.21,17.21,0,0,1,2.41-9,22.33,22.33,0,0,1,6.43-6.66c1.3-1,2.66-1.94,4.08-2.87a31.07,31.07,0,0,0,3.9-3,15.45,15.45,0,0,0,2.93-3.45,8.33,8.33,0,0,0,1.21-4.28,12.27,12.27,0,0,0-.26-2.39,6.4,6.4,0,0,0-1-2.36,6,6,0,0,0-2.06-1.83,7.07,7.07,0,0,0-3.45-.73,6.08,6.08,0,0,0-3.24.79,5.9,5.9,0,0,0-2.07,2.19,10.94,10.94,0,0,0-1.15,3.27,24.42,24.42,0,0,0-.43,4.07h-6.54a21.45,21.45,0,0,1,.89-6.34,14.12,14.12,0,0,1,2.67-5,12.7,12.7,0,0,1,4.33-3.33,15.53,15.53,0,0,1,12.09,0,11.89,11.89,0,0,1,4,3.13,11.55,11.55,0,0,1,2.15,4.1,15.37,15.37,0,0,1,.63,4.22,13,13,0,0,1-.74,4.48,14.65,14.65,0,0,1-2,3.69,21,21,0,0,1-2.87,3.1c-1.08.94-2.19,1.83-3.33,2.65s-2.3,1.62-3.45,2.36-2.21,1.5-3.19,2.25a18.65,18.65,0,0,0-2.55,2.33,6.48,6.48,0,0,0-1.49,2.56h19.58Z"/><path class="a" d="M65,80.88h-.66V70.74H57.53V80.88h-.66V70.17H65Z"/><path class="a" d="M67,77.1v.09a4.57,4.57,0,0,0,.18,1.29,3.4,3.4,0,0,0,.53,1.08,2.56,2.56,0,0,0,.89.74,2.73,2.73,0,0,0,1.24.27A2.65,2.65,0,0,0,71.71,80a3.17,3.17,0,0,0,.93-1.69h.57a3.47,3.47,0,0,1-1.1,2.07,3.38,3.38,0,0,1-2.25.72,3.33,3.33,0,0,1-1.49-.31,3,3,0,0,1-1.06-.83,3.57,3.57,0,0,1-.64-1.26,5.67,5.67,0,0,1-.21-1.57,5.28,5.28,0,0,1,.22-1.55,3.83,3.83,0,0,1,.65-1.31,3.45,3.45,0,0,1,4.06-.94,3.11,3.11,0,0,1,1,.82,3.84,3.84,0,0,1,.64,1.2,5,5,0,0,1,.21,1.46V77a.86.86,0,0,0,0,.15Zm5.67-.49a4.56,4.56,0,0,0-.21-1.19,2.79,2.79,0,0,0-.54-1,2.59,2.59,0,0,0-.85-.69A2.52,2.52,0,0,0,70,73.49a2.77,2.77,0,0,0-1.22.26,2.91,2.91,0,0,0-.89.69,3.15,3.15,0,0,0-.56,1A4.68,4.68,0,0,0,67,76.61Z"/><path class="a" d="M75.29,74.94h0a2.94,2.94,0,0,1,.3-.63,2.54,2.54,0,0,1,.56-.63,2.86,2.86,0,0,1,.84-.49,3,3,0,0,1,1.12-.2,3.39,3.39,0,0,1,1.54.33,3.23,3.23,0,0,1,1.08.89,3.9,3.9,0,0,1,.64,1.29A5.56,5.56,0,0,1,81.61,77a5.88,5.88,0,0,1-.21,1.62,3.62,3.62,0,0,1-.64,1.27,3,3,0,0,1-1.08.83,3.68,3.68,0,0,1-1.54.3,3.45,3.45,0,0,1-1.72-.42,2.45,2.45,0,0,1-1.1-1.36h0v4.36h-.55V73.17h.55Zm2.85,5.63a2.8,2.8,0,0,0,1.3-.29,2.65,2.65,0,0,0,.9-.76,3.32,3.32,0,0,0,.53-1.12A5.39,5.39,0,0,0,81,77a5.07,5.07,0,0,0-.17-1.29,3.48,3.48,0,0,0-.51-1.14,2.69,2.69,0,0,0-.89-.82,2.75,2.75,0,0,0-1.33-.3,2.64,2.64,0,0,0-1.31.3,2.49,2.49,0,0,0-.88.79,3.29,3.29,0,0,0-.49,1.13A5.83,5.83,0,0,0,75.31,77a6.38,6.38,0,0,0,.13,1.33,3.36,3.36,0,0,0,.46,1.13,2.47,2.47,0,0,0,.88.78A2.88,2.88,0,0,0,78.14,80.57Z"/><path class="a" d="M88.75,75.56a2.31,2.31,0,0,0-.26-.9,2.11,2.11,0,0,0-.57-.65,2.49,2.49,0,0,0-.8-.39,3.42,3.42,0,0,0-1-.13,2.66,2.66,0,0,0-1.28.29,2.94,2.94,0,0,0-.93.78,3.65,3.65,0,0,0-.57,1.11A4.22,4.22,0,0,0,83.17,77a5.46,5.46,0,0,0,.18,1.44,3.23,3.23,0,0,0,.55,1.15,2.54,2.54,0,0,0,.93.76,3,3,0,0,0,1.31.27,2.73,2.73,0,0,0,1-.18,2.81,2.81,0,0,0,.81-.5,2.66,2.66,0,0,0,.57-.75,3.14,3.14,0,0,0,.3-1h.57A3.61,3.61,0,0,1,89,79.4a3.09,3.09,0,0,1-.72.91,3.22,3.22,0,0,1-1,.56,3.5,3.5,0,0,1-1.17.19,3.58,3.58,0,0,1-1.61-.33,3.16,3.16,0,0,1-1.1-.91,4,4,0,0,1-.63-1.32A6,6,0,0,1,82.6,77a5.1,5.1,0,0,1,.23-1.53,3.82,3.82,0,0,1,.68-1.26,3.23,3.23,0,0,1,1.11-.85A3.5,3.5,0,0,1,86.14,73a4.1,4.1,0,0,1,1.18.16,2.92,2.92,0,0,1,1,.47,2.39,2.39,0,0,1,.7.81,2.82,2.82,0,0,1,.33,1.13Z"/><path class="a" d="M90.37,77a5.19,5.19,0,0,1,.23-1.55,4,4,0,0,1,.68-1.29,3.16,3.16,0,0,1,1.11-.87A3.37,3.37,0,0,1,93.91,73a3.32,3.32,0,0,1,1.51.33,3.16,3.16,0,0,1,1.11.87,4,4,0,0,1,.69,1.29A5.19,5.19,0,0,1,97.45,77a5.3,5.3,0,0,1-.23,1.56,3.84,3.84,0,0,1-.69,1.28,3.16,3.16,0,0,1-1.11.87,3.32,3.32,0,0,1-1.51.32,3.36,3.36,0,0,1-1.52-.32,3.16,3.16,0,0,1-1.11-.87,3.83,3.83,0,0,1-.68-1.28A5.3,5.3,0,0,1,90.37,77Zm.57,0a4.55,4.55,0,0,0,.19,1.33,3.64,3.64,0,0,0,.57,1.13,2.84,2.84,0,0,0,.93.79,2.77,2.77,0,0,0,1.28.29,2.73,2.73,0,0,0,1.27-.29,2.84,2.84,0,0,0,.93-.79,3.64,3.64,0,0,0,.57-1.13,4.56,4.56,0,0,0,.2-1.33,4.51,4.51,0,0,0-.2-1.33,3.64,3.64,0,0,0-.57-1.13,2.84,2.84,0,0,0-.93-.79,2.62,2.62,0,0,0-1.27-.29,2.66,2.66,0,0,0-1.28.29,2.84,2.84,0,0,0-.93.79,3.64,3.64,0,0,0-.57,1.13A4.5,4.5,0,0,0,90.94,77Z"/><path class="a" d="M104.32,77h-5v3.85h-.57V73.17h.57v3.36h5V73.17h.57v7.71h-.57Z"/><path class="a" d="M111.68,79.35h0a2.29,2.29,0,0,1-.39.65,2.55,2.55,0,0,1-.62.55,3,3,0,0,1-.83.38,3.65,3.65,0,0,1-1,.13,3.06,3.06,0,0,1-1.91-.53,2,2,0,0,1-.67-1.64,2,2,0,0,1,.27-1.1,2.1,2.1,0,0,1,.68-.68,3.08,3.08,0,0,1,.92-.35,8.64,8.64,0,0,1,1-.15l.89-.08a5,5,0,0,0,1-.14,1.15,1.15,0,0,0,.53-.27.74.74,0,0,0,.22-.44,4.21,4.21,0,0,0,0-.68,1.4,1.4,0,0,0-.12-.58,1.33,1.33,0,0,0-.38-.48,1.86,1.86,0,0,0-.66-.33,3.53,3.53,0,0,0-1-.12,2.6,2.6,0,0,0-1.67.51,2,2,0,0,0-.7,1.54h-.57a2.55,2.55,0,0,1,.82-1.91,3.28,3.28,0,0,1,2.15-.64,3.15,3.15,0,0,1,2,.55,1.81,1.81,0,0,1,.63,1.43v4.49c0,.11,0,.22,0,.33a1.34,1.34,0,0,0,0,.3.48.48,0,0,0,.15.22.51.51,0,0,0,.3.08,2.87,2.87,0,0,0,.42,0v.48a1.76,1.76,0,0,1-.46.06,1.4,1.4,0,0,1-.55-.09.76.76,0,0,1-.31-.24,1,1,0,0,1-.14-.35,2.87,2.87,0,0,1,0-.44Zm0-2.85a1.08,1.08,0,0,1-.63.35,8.27,8.27,0,0,1-1,.13l-1,.09c-.28,0-.56.08-.84.13a2.48,2.48,0,0,0-.75.28A1.55,1.55,0,0,0,107,78a1.66,1.66,0,0,0-.21.88,1.5,1.5,0,0,0,.54,1.27,2.41,2.41,0,0,0,1.48.41,2.89,2.89,0,0,0,1.55-.36,2.71,2.71,0,0,0,.87-.8,2.42,2.42,0,0,0,.38-.89,3.1,3.1,0,0,0,.08-.58Z"/><path class="a" d="M120.25,73.17v7.71h-.57V73.67h-3.6L115.91,78a6.77,6.77,0,0,1-.17,1.44,2.83,2.83,0,0,1-.38.94,1.43,1.43,0,0,1-.56.49,1.73,1.73,0,0,1-.73.14,2,2,0,0,1-.81-.16v-.56a1.93,1.93,0,0,0,.39.15,2.38,2.38,0,0,0,.39,0,1.12,1.12,0,0,0,.53-.12A1.08,1.08,0,0,0,115,80a2.65,2.65,0,0,0,.25-.78,8.63,8.63,0,0,0,.12-1.2l.18-4.8Z"/><path class="a" d="M121.93,73.17h.57V76.4h3.1a2.5,2.5,0,0,1,1.76.59,2.43,2.43,0,0,1,0,3.29,2.5,2.5,0,0,1-1.77.6h-3.64Zm5.49,5.45a1.64,1.64,0,0,0-.5-1.25,1.94,1.94,0,0,0-1.41-.48h-3v3.5h3a2,2,0,0,0,1.42-.47A1.69,1.69,0,0,0,127.42,78.62Z"/><path class="a" d="M134.78,77h-5v3.85h-.57V73.17h.57v3.36h5V73.17h.57v7.71h-.57Z"/><path class="a" d="M137,73.17h.57V76.4h3a2.47,2.47,0,0,1,1.75.59,2.45,2.45,0,0,1,0,3.29,2.5,2.5,0,0,1-1.77.6H137Zm5.34,5.45a1.63,1.63,0,0,0-.49-1.25,1.94,1.94,0,0,0-1.41-.48H137.6v3.5h2.85a2,2,0,0,0,1.43-.47A1.69,1.69,0,0,0,142.37,78.62Zm1.86-5.45h.57v7.71h-.57Z"/><path class="a" d="M152,74h0l-4.81,6.93h-.71V73.17h.57v7h0l4.8-7h.72v7.71H152Zm-.45-3.87a2.14,2.14,0,0,1-.22.69,1.94,1.94,0,0,1-.44.58,1.85,1.85,0,0,1-1.31.53,2.12,2.12,0,0,1-1.42-.47,2,2,0,0,1-.68-1.33h.5a1.85,1.85,0,0,0,.27.65,1.65,1.65,0,0,0,.39.4,1.24,1.24,0,0,0,.46.2,2,2,0,0,0,.47.06,1.41,1.41,0,0,0,1-.36,1.66,1.66,0,0,0,.5-1Z"/><path class="a" d="M158.47,73.17H159v4.22l4.75-4.22h.83l-3.38,3,3.62,4.71h-.78l-3.29-4.27L159,78.09v2.79h-.57Z"/><path class="a" d="M166.07,74.94h0a2.94,2.94,0,0,1,.3-.63,2.54,2.54,0,0,1,.56-.63,2.94,2.94,0,0,1,.83-.49,3,3,0,0,1,1.12-.2,3.41,3.41,0,0,1,1.55.33,3.23,3.23,0,0,1,1.08.89,3.9,3.9,0,0,1,.64,1.29,5.56,5.56,0,0,1,.21,1.54,5.88,5.88,0,0,1-.21,1.62,3.62,3.62,0,0,1-.64,1.27,3,3,0,0,1-1.08.83,3.7,3.7,0,0,1-1.55.3,3.44,3.44,0,0,1-1.71-.42,2.45,2.45,0,0,1-1.1-1.36h0v4.36h-.55V73.17h.55Zm2.84,5.63a2.81,2.81,0,0,0,1.31-.29,2.65,2.65,0,0,0,.9-.76,3.3,3.3,0,0,0,.52-1.12,5,5,0,0,0,.18-1.36,5.07,5.07,0,0,0-.17-1.29,3.48,3.48,0,0,0-.51-1.14,2.69,2.69,0,0,0-.89-.82,2.76,2.76,0,0,0-1.34-.3,2.63,2.63,0,0,0-1.3.3,2.49,2.49,0,0,0-.88.79,3.29,3.29,0,0,0-.49,1.13,5.83,5.83,0,0,0-.15,1.33,6.38,6.38,0,0,0,.13,1.33,3.36,3.36,0,0,0,.46,1.13,2.52,2.52,0,0,0,.87.78A2.94,2.94,0,0,0,168.91,80.57Z"/><path class="a" d="M173.93,77.1v.09a4.57,4.57,0,0,0,.18,1.29,3.22,3.22,0,0,0,.54,1.08,2.53,2.53,0,0,0,.88.74,2.74,2.74,0,0,0,1.25.27,2.61,2.61,0,0,0,1.83-.61,3.17,3.17,0,0,0,.93-1.69h.57a3.42,3.42,0,0,1-1.1,2.07,3.8,3.8,0,0,1-3.73.41,2.94,2.94,0,0,1-1.07-.83,3.75,3.75,0,0,1-.64-1.26,5.77,5.77,0,0,1,0-3.12,4,4,0,0,1,.65-1.31,3.42,3.42,0,0,1,1.09-.9,3.36,3.36,0,0,1,1.54-.34,3.27,3.27,0,0,1,1.43.3,3.11,3.11,0,0,1,1,.82,3.65,3.65,0,0,1,.64,1.2,4.65,4.65,0,0,1,.22,1.46,1.21,1.21,0,0,1,0,.18.86.86,0,0,0,0,.15Zm5.67-.49a4.56,4.56,0,0,0-.21-1.19,2.94,2.94,0,0,0-.53-1,2.62,2.62,0,0,0-.86-.69,2.52,2.52,0,0,0-1.15-.25,2.77,2.77,0,0,0-1.22.26,3,3,0,0,0-.89.69,3.13,3.13,0,0,0-.55,1,4.68,4.68,0,0,0-.24,1.17Z"/><path class="a" d="M180.92,80.88V83.3h-.57V80.39h.92a9.35,9.35,0,0,0,.89-2.78,20.15,20.15,0,0,0,.25-3.31V73.17h4.72v7.22h1V83.3h-.57V80.88Zm5.64-7.21H183v.64a21,21,0,0,1-.24,3.3,9.39,9.39,0,0,1-.86,2.78h4.68Z"/><path class="a" d="M194.62,74h0l-4.81,6.93h-.71V73.17h.57v7h0l4.8-7h.72v7.71h-.57Z"/><path class="a" d="M199.64,80.88h-.57V73.67h-2.92v-.5h6.42v.5h-2.93Z"/><path class="a" d="M209.06,77h-5v3.85h-.57V73.17h.57v3.36h5V73.17h.57v7.71h-.57Z"/><path class="a" d="M211.31,73.17h.57V76.4h3a2.47,2.47,0,0,1,1.75.59,2.45,2.45,0,0,1,0,3.29,2.5,2.5,0,0,1-1.77.6h-3.5Zm5.34,5.45a1.63,1.63,0,0,0-.49-1.25,1.94,1.94,0,0,0-1.41-.48h-2.87v3.5h2.85a2,2,0,0,0,1.43-.47A1.69,1.69,0,0,0,216.65,78.62Zm1.86-5.45h.57v7.71h-.57Z"/><path class="a" d="M226.3,74h0l-4.81,6.93h-.71V73.17h.57v7h0l4.8-7h.72v7.71h-.57Zm-.45-3.87a2.14,2.14,0,0,1-.22.69,2.12,2.12,0,0,1-.44.58,1.73,1.73,0,0,1-.6.39,1.7,1.7,0,0,1-.71.14,2.12,2.12,0,0,1-1.42-.47,2,2,0,0,1-.68-1.33h.5a1.85,1.85,0,0,0,.27.65,1.65,1.65,0,0,0,.39.4,1.24,1.24,0,0,0,.46.2,2,2,0,0,0,.47.06,1.41,1.41,0,0,0,1-.36,1.66,1.66,0,0,0,.5-1Z"/><path class="a" d="M238.52,75.56a2.31,2.31,0,0,0-.26-.9,2.08,2.08,0,0,0-.56-.65,2.54,2.54,0,0,0-.81-.39,3.42,3.42,0,0,0-1-.13,2.62,2.62,0,0,0-1.27.29,2.94,2.94,0,0,0-.93.78,3.65,3.65,0,0,0-.57,1.11,4.23,4.23,0,0,0-.2,1.28,5.46,5.46,0,0,0,.18,1.44,3.25,3.25,0,0,0,.56,1.15,2.54,2.54,0,0,0,.93.76,2.93,2.93,0,0,0,1.3.27,2.73,2.73,0,0,0,1-.18,2.81,2.81,0,0,0,.81-.5,2.69,2.69,0,0,0,.58-.75,3.14,3.14,0,0,0,.3-1h.57a3.62,3.62,0,0,1-.38,1.23,3.09,3.09,0,0,1-.72.91,3.22,3.22,0,0,1-1,.56,3.5,3.5,0,0,1-1.17.19,3.58,3.58,0,0,1-1.61-.33,3.16,3.16,0,0,1-1.1-.91,4,4,0,0,1-.63-1.32,6,6,0,0,1-.2-1.55,5.1,5.1,0,0,1,.23-1.53,3.84,3.84,0,0,1,.69-1.26,3.23,3.23,0,0,1,1.11-.85,3.46,3.46,0,0,1,1.51-.32,4.1,4.1,0,0,1,1.18.16,2.92,2.92,0,0,1,1,.47,2.39,2.39,0,0,1,.7.81,2.82,2.82,0,0,1,.33,1.13Z"/><path class="a" d="M240.53,73.17h.57v4.22l4.76-4.22h.82l-3.37,3,3.61,4.71h-.78l-3.28-4.27-1.76,1.48v2.79h-.57Z"/><path class="a" d="M247.09,77a4.89,4.89,0,0,1,.23-1.55,3.79,3.79,0,0,1,.68-1.29,3.16,3.16,0,0,1,1.11-.87,3.37,3.37,0,0,1,1.52-.33,3.32,3.32,0,0,1,1.51.33,3.16,3.16,0,0,1,1.11.87,3.79,3.79,0,0,1,.68,1.29,4.89,4.89,0,0,1,.24,1.55,5,5,0,0,1-.24,1.56,3.65,3.65,0,0,1-.68,1.28,3.16,3.16,0,0,1-1.11.87,3.32,3.32,0,0,1-1.51.32,3.36,3.36,0,0,1-1.52-.32,3.16,3.16,0,0,1-1.11-.87,3.65,3.65,0,0,1-.68-1.28A5,5,0,0,1,247.09,77Zm.57,0a4.55,4.55,0,0,0,.19,1.33,3.64,3.64,0,0,0,.57,1.13,2.84,2.84,0,0,0,.93.79,2.77,2.77,0,0,0,1.28.29,2.73,2.73,0,0,0,1.27-.29,2.84,2.84,0,0,0,.93-.79,3.64,3.64,0,0,0,.57-1.13,4.56,4.56,0,0,0,.2-1.33,4.51,4.51,0,0,0-.2-1.33,3.64,3.64,0,0,0-.57-1.13,2.84,2.84,0,0,0-.93-.79,2.62,2.62,0,0,0-1.27-.29,2.66,2.66,0,0,0-1.28.29,2.84,2.84,0,0,0-.93.79,3.64,3.64,0,0,0-.57,1.13A4.5,4.5,0,0,0,247.66,77Z"/><path class="a" d="M256.19,74.94h0a2.94,2.94,0,0,1,.3-.63,2.54,2.54,0,0,1,.56-.63,2.94,2.94,0,0,1,.83-.49A3,3,0,0,1,259,73a3.44,3.44,0,0,1,1.55.33,3.23,3.23,0,0,1,1.08.89,3.9,3.9,0,0,1,.64,1.29,5.56,5.56,0,0,1,.21,1.54,5.88,5.88,0,0,1-.21,1.62,3.62,3.62,0,0,1-.64,1.27,3,3,0,0,1-1.08.83,3.73,3.73,0,0,1-1.55.3,3.44,3.44,0,0,1-1.71-.42,2.45,2.45,0,0,1-1.1-1.36h0v4.36h-.55V73.17h.55ZM259,80.57a2.74,2.74,0,0,0,1.3-.29,2.59,2.59,0,0,0,.91-.76,3.3,3.3,0,0,0,.52-1.12,5,5,0,0,0,.18-1.36,5.07,5.07,0,0,0-.17-1.29,3.48,3.48,0,0,0-.51-1.14,2.69,2.69,0,0,0-.89-.82,2.76,2.76,0,0,0-1.34-.3,2.63,2.63,0,0,0-1.3.3,2.49,2.49,0,0,0-.88.79,3.29,3.29,0,0,0-.49,1.13,5.83,5.83,0,0,0-.15,1.33,6.38,6.38,0,0,0,.13,1.33,3.17,3.17,0,0,0,.46,1.13,2.52,2.52,0,0,0,.87.78A2.94,2.94,0,0,0,259,80.57Z"/><path class="a" d="M269.38,74h0l-4.81,6.93h-.71V73.17h.57v7h0l4.8-7H270v7.71h-.57Z"/><path class="a" d="M277.16,77h-5v3.85h-.57V73.17h.57v3.36h5V73.17h.57v7.71h-.57Z"/><path class="a" d="M280,80.88h-.57V73.17h5.07v.5H280Z"/><path class="a" d="M289.72,76.52h3.21v.57h-3.21Z"/><path class="a" d="M304.51,74h0l-4.81,6.93H299V73.17h.57v7h0l4.8-7h.72v7.71h-.57Z"/><path class="a" d="M312.29,77h-5v3.85h-.57V73.17h.57v3.36h5V73.17h.57v7.71h-.57Z"/><path class="a" d="M320.35,75.56a2.16,2.16,0,0,0-.27-.9,2,2,0,0,0-.56-.65,2.59,2.59,0,0,0-.8-.39,3.46,3.46,0,0,0-1-.13,2.66,2.66,0,0,0-1.28.29,2.94,2.94,0,0,0-.93.78,3.65,3.65,0,0,0-.57,1.11,4.22,4.22,0,0,0-.19,1.28,5.46,5.46,0,0,0,.18,1.44,3.23,3.23,0,0,0,.55,1.15,2.54,2.54,0,0,0,.93.76,3,3,0,0,0,1.31.27,2.64,2.64,0,0,0,1-.18,2.57,2.57,0,0,0,.81-.5,2.52,2.52,0,0,0,.58-.75,3.14,3.14,0,0,0,.3-1H321a3.61,3.61,0,0,1-.37,1.23,3.09,3.09,0,0,1-.72.91,3.22,3.22,0,0,1-1,.56,3.5,3.5,0,0,1-1.17.19,3.66,3.66,0,0,1-1.62-.33,3.13,3.13,0,0,1-1.09-.91,3.67,3.67,0,0,1-.63-1.32,5.63,5.63,0,0,1-.2-1.55,4.8,4.8,0,0,1,.23-1.53,3.65,3.65,0,0,1,.68-1.26,3.23,3.23,0,0,1,1.11-.85,3.5,3.5,0,0,1,1.52-.32,4,4,0,0,1,1.17.16,3,3,0,0,1,1,.47,2.51,2.51,0,0,1,.7.81,2.82,2.82,0,0,1,.33,1.13Z"/><path class="a" d="M324.83,80.88h-.57V73.67h-2.92v-.5h6.42v.5h-2.93Z"/><path class="a" d="M329.41,74.94h0a2.94,2.94,0,0,1,.3-.63,2.49,2.49,0,0,1,.55-.63,2.86,2.86,0,0,1,.84-.49,3,3,0,0,1,1.12-.2,3.39,3.39,0,0,1,1.54.33,3.13,3.13,0,0,1,1.08.89,3.72,3.72,0,0,1,.64,1.29,5.56,5.56,0,0,1,.21,1.54,5.88,5.88,0,0,1-.21,1.62,3.46,3.46,0,0,1-.64,1.27,2.87,2.87,0,0,1-1.08.83,3.68,3.68,0,0,1-1.54.3,3.48,3.48,0,0,1-1.72-.42,2.43,2.43,0,0,1-1.09-1.36h0v4.36h-.56V73.17h.56Zm2.84,5.63a2.8,2.8,0,0,0,1.3-.29,2.56,2.56,0,0,0,.9-.76A3.32,3.32,0,0,0,335,78.4a5.39,5.39,0,0,0,.17-1.36,5.07,5.07,0,0,0-.16-1.29,3.72,3.72,0,0,0-.52-1.14,2.6,2.6,0,0,0-.89-.82,2.75,2.75,0,0,0-1.33-.3,2.67,2.67,0,0,0-1.31.3,2.49,2.49,0,0,0-.88.79,3.29,3.29,0,0,0-.49,1.13,5.83,5.83,0,0,0-.15,1.33,6.38,6.38,0,0,0,.14,1.33A3.35,3.35,0,0,0,330,79.5a2.47,2.47,0,0,0,.88.78A2.91,2.91,0,0,0,332.25,80.57Z"/><path class="a" d="M336.13,73.17h.67l2.87,7,2.64-7H343l-3.3,8.54c-.16.38-.31.71-.44,1a1.8,1.8,0,0,1-.46.61,1.45,1.45,0,0,1-.71.29,10.38,10.38,0,0,1-1.09,0v-.49a3.47,3.47,0,0,0,1-.1,1.46,1.46,0,0,0,.65-.4,1.89,1.89,0,0,0,.34-.61q.18-.44.45-1.2Z"/><path class="a" d="M344.29,80.88h-.57V73.17h.93l3,7,3-7h.93v7.71h-.57V73.71h0l-3,7.17h-.63l-3-7.17h0Z"/><path class="a" d="M353.38,77.1v.09a4.57,4.57,0,0,0,.18,1.29,3.21,3.21,0,0,0,.53,1.08,2.56,2.56,0,0,0,.89.74,2.7,2.7,0,0,0,1.24.27,2.61,2.61,0,0,0,1.83-.61,3.18,3.18,0,0,0,.94-1.69h.57a3.43,3.43,0,0,1-1.11,2.07,3.8,3.8,0,0,1-3.73.41,3,3,0,0,1-1.07-.83,3.73,3.73,0,0,1-.63-1.26,5.9,5.9,0,0,1,0-3.12,4,4,0,0,1,.66-1.31A3.15,3.15,0,0,1,356.3,73a3.23,3.23,0,0,1,1.43.3,3,3,0,0,1,1,.82,3.62,3.62,0,0,1,.63,1.2,4.65,4.65,0,0,1,.22,1.46,1.21,1.21,0,0,1,0,.18v.15Zm5.67-.49a4.56,4.56,0,0,0-.21-1.19,3,3,0,0,0-.54-1,2.53,2.53,0,0,0-.86-.69,2.5,2.5,0,0,0-1.15-.25,2.73,2.73,0,0,0-1.21.26,2.8,2.8,0,0,0-.89.69,3.15,3.15,0,0,0-.56,1,4.68,4.68,0,0,0-.24,1.17Z"/><path class="a" d="M366.49,77h-5v3.85H361V73.17h.57v3.36h5V73.17h.57v7.71h-.57Z"/><path class="a" d="M371.51,80.88h-.57V73.67H368v-.5h6.42v.5h-2.93Z"/><path class="a" d="M56.41,95a5.19,5.19,0,0,1,.23-1.55,4,4,0,0,1,.68-1.29,3.16,3.16,0,0,1,1.11-.87A3.37,3.37,0,0,1,60,91a3.32,3.32,0,0,1,1.51.33,3.16,3.16,0,0,1,1.11.87,4,4,0,0,1,.69,1.29A5.19,5.19,0,0,1,63.49,95a5.3,5.3,0,0,1-.23,1.56,3.84,3.84,0,0,1-.69,1.28,3.16,3.16,0,0,1-1.11.87,3.32,3.32,0,0,1-1.51.32,3.36,3.36,0,0,1-1.52-.32,3.16,3.16,0,0,1-1.11-.87,3.83,3.83,0,0,1-.68-1.28A5.3,5.3,0,0,1,56.41,95ZM57,95a4.55,4.55,0,0,0,.19,1.33,3.64,3.64,0,0,0,.57,1.13,2.84,2.84,0,0,0,.93.79,2.77,2.77,0,0,0,1.28.29,2.73,2.73,0,0,0,1.27-.29,2.84,2.84,0,0,0,.93-.79,3.64,3.64,0,0,0,.57-1.13,4.56,4.56,0,0,0,.2-1.33,4.51,4.51,0,0,0-.2-1.33,3.64,3.64,0,0,0-.57-1.13,2.84,2.84,0,0,0-.93-.79A2.62,2.62,0,0,0,60,91.49a2.66,2.66,0,0,0-1.28.29,2.84,2.84,0,0,0-.93.79,3.64,3.64,0,0,0-.57,1.13A4.5,4.5,0,0,0,57,95Z"/><path class="a" d="M71.33,98.88H64.82V91.17h.57v7.22h5V91.17h.57v7.22h1v2.91h-.57Z"/><path class="a" d="M73.09,95.1v.09a4.57,4.57,0,0,0,.18,1.29,3.4,3.4,0,0,0,.53,1.08,2.56,2.56,0,0,0,.89.74,2.73,2.73,0,0,0,1.24.27A2.65,2.65,0,0,0,77.77,98a3.17,3.17,0,0,0,.93-1.69h.57a3.47,3.47,0,0,1-1.1,2.07,3.38,3.38,0,0,1-2.25.72,3.33,3.33,0,0,1-1.49-.31,3,3,0,0,1-1.06-.83,3.57,3.57,0,0,1-.64-1.26,5.67,5.67,0,0,1-.21-1.57,5.28,5.28,0,0,1,.22-1.55,3.83,3.83,0,0,1,.65-1.31,3.45,3.45,0,0,1,4.06-.94,3.11,3.11,0,0,1,1,.82,3.84,3.84,0,0,1,.64,1.2,5,5,0,0,1,.21,1.46V95a.86.86,0,0,0,0,.15Zm5.67-.49a4.56,4.56,0,0,0-.21-1.19,2.79,2.79,0,0,0-.54-1,2.59,2.59,0,0,0-.85-.69A2.52,2.52,0,0,0,76,91.49a2.74,2.74,0,0,0-1.22.26,2.91,2.91,0,0,0-.89.69,3.15,3.15,0,0,0-.56,1,4.68,4.68,0,0,0-.24,1.17Z"/><path class="a" d="M86.2,95h-5v3.85h-.57V91.17h.57v3.36h5V91.17h.57v7.71H86.2Z"/><path class="a" d="M88.48,91.17h.57v4.22l4.75-4.22h.83l-3.38,3,3.62,4.71h-.78L90.8,94.61l-1.75,1.48v2.79h-.57Z"/><path class="a" d="M100.93,92h0L96.1,98.88h-.71V91.17H96v7h0l4.8-7h.72v7.71h-.57Z"/><path class="a" d="M112.88,95h-5v3.85h-.57V91.17h.57v3.36h5V91.17h.57v7.71h-.57Z"/><path class="a" d="M120.25,97.35h0a2.29,2.29,0,0,1-.39.65,2.6,2.6,0,0,1-.63.55,3,3,0,0,1-.83.38,3.65,3.65,0,0,1-1,.13,3,3,0,0,1-1.9-.53,2,2,0,0,1-.68-1.64,2,2,0,0,1,.27-1.1,2,2,0,0,1,.69-.68,3,3,0,0,1,.91-.35,9.19,9.19,0,0,1,1-.15l.88-.08a4.83,4.83,0,0,0,1-.14,1.1,1.1,0,0,0,.53-.27.75.75,0,0,0,.23-.44,4.36,4.36,0,0,0,0-.68,1.4,1.4,0,0,0-.12-.58,1.3,1.3,0,0,0-.37-.48,1.86,1.86,0,0,0-.66-.33,3.53,3.53,0,0,0-1-.12,2.58,2.58,0,0,0-1.67.51,2,2,0,0,0-.7,1.54h-.57a2.54,2.54,0,0,1,.81-1.91,3.31,3.31,0,0,1,2.16-.64,3.12,3.12,0,0,1,2,.55,1.79,1.79,0,0,1,.64,1.43v4.49c0,.11,0,.22,0,.33a.94.94,0,0,0,0,.3.48.48,0,0,0,.15.22.51.51,0,0,0,.3.08,2.87,2.87,0,0,0,.42,0v.48a1.84,1.84,0,0,1-.47.06,1.32,1.32,0,0,1-.54-.09.7.7,0,0,1-.31-.24,1,1,0,0,1-.15-.35,2.94,2.94,0,0,1,0-.44Zm0-2.85a1.08,1.08,0,0,1-.64.35,7.8,7.8,0,0,1-1,.13l-1,.09c-.28,0-.56.08-.84.13a2.65,2.65,0,0,0-.76.28,1.55,1.55,0,0,0-.55.53,1.66,1.66,0,0,0-.21.88,1.5,1.5,0,0,0,.54,1.27,2.44,2.44,0,0,0,1.49.41,2.85,2.85,0,0,0,1.54-.36,2.71,2.71,0,0,0,.87-.8,2.42,2.42,0,0,0,.38-.89,3.42,3.42,0,0,0,.09-.58Z"/><path class="a" d="M122.53,98.88v2.42H122V98.39h.91a9.36,9.36,0,0,0,.9-2.78A21.36,21.36,0,0,0,124,92.3V91.17h4.73v7.22h1v2.91h-.57V98.88Zm5.64-7.21h-3.59v.64a21,21,0,0,1-.23,3.3,9.39,9.39,0,0,1-.86,2.78h4.68Z"/><path class="a" d="M130.9,95.1v.09a4.57,4.57,0,0,0,.18,1.29,3.4,3.4,0,0,0,.53,1.08,2.56,2.56,0,0,0,.89.74,2.73,2.73,0,0,0,1.24.27,2.65,2.65,0,0,0,1.84-.61,3.17,3.17,0,0,0,.93-1.69h.57a3.47,3.47,0,0,1-1.1,2.07,3.38,3.38,0,0,1-2.25.72,3.31,3.31,0,0,1-1.49-.31,3.12,3.12,0,0,1-1.07-.83,3.73,3.73,0,0,1-.63-1.26,5.9,5.9,0,0,1,0-3.12,4,4,0,0,1,.66-1.31A3.15,3.15,0,0,1,133.82,91a3.23,3.23,0,0,1,1.43.3,3,3,0,0,1,1.05.82,3.84,3.84,0,0,1,.64,1.2,5,5,0,0,1,.21,1.46V95a.86.86,0,0,0,0,.15Zm5.67-.49a4.56,4.56,0,0,0-.21-1.19,2.79,2.79,0,0,0-.54-1,2.59,2.59,0,0,0-.85-.69,2.52,2.52,0,0,0-1.15-.25,2.74,2.74,0,0,0-1.22.26,2.91,2.91,0,0,0-.89.69,3.15,3.15,0,0,0-.56,1,4.68,4.68,0,0,0-.24,1.17Z"/><path class="a" d="M138.22,98.88h-.75L141,94.41l-3.15-3.24h.85l4.08,4.23V91.17h.57v4.25l4.13-4.25h.81l-3.17,3.21,3.53,4.5h-.78l-3.18-4-1.34,1.35v2.7h-.57V96.2l-1.35-1.37Z"/><path class="a" d="M154.84,95h-5v3.85h-.57V91.17h.57v3.36h5V91.17h.57v7.71h-.57Z"/><path class="a" d="M156.73,95a5.19,5.19,0,0,1,.23-1.55,4,4,0,0,1,.68-1.29,3.16,3.16,0,0,1,1.11-.87,3.37,3.37,0,0,1,1.52-.33,3.32,3.32,0,0,1,1.51.33,3.16,3.16,0,0,1,1.11.87,4,4,0,0,1,.69,1.29,5.19,5.19,0,0,1,.23,1.55,5.3,5.3,0,0,1-.23,1.56,3.84,3.84,0,0,1-.69,1.28,3.16,3.16,0,0,1-1.11.87,3.32,3.32,0,0,1-1.51.32,3.36,3.36,0,0,1-1.52-.32,3.16,3.16,0,0,1-1.11-.87,3.83,3.83,0,0,1-.68-1.28A5.3,5.3,0,0,1,156.73,95Zm.57,0a4.55,4.55,0,0,0,.19,1.33,3.64,3.64,0,0,0,.57,1.13,2.84,2.84,0,0,0,.93.79,2.77,2.77,0,0,0,1.28.29,2.73,2.73,0,0,0,1.27-.29,2.84,2.84,0,0,0,.93-.79,3.64,3.64,0,0,0,.57-1.13,4.56,4.56,0,0,0,.2-1.33,4.51,4.51,0,0,0-.2-1.33,3.64,3.64,0,0,0-.57-1.13,2.84,2.84,0,0,0-.93-.79,2.62,2.62,0,0,0-1.27-.29,2.66,2.66,0,0,0-1.28.29,2.84,2.84,0,0,0-.93.79,3.64,3.64,0,0,0-.57,1.13A4.5,4.5,0,0,0,157.3,95Z"/><path class="a" d="M171,93.56a2.31,2.31,0,0,0-.26-.9,2.11,2.11,0,0,0-.57-.65,2.59,2.59,0,0,0-.8-.39,3.46,3.46,0,0,0-1-.13,2.66,2.66,0,0,0-1.28.29,2.94,2.94,0,0,0-.93.78,3.65,3.65,0,0,0-.57,1.11,4.22,4.22,0,0,0-.19,1.28,5.46,5.46,0,0,0,.18,1.44,3.23,3.23,0,0,0,.55,1.15,2.54,2.54,0,0,0,.93.76,3,3,0,0,0,1.31.27,2.64,2.64,0,0,0,1-.18,2.74,2.74,0,0,0,.82-.5,2.66,2.66,0,0,0,.57-.75,3.14,3.14,0,0,0,.3-1h.57a3.61,3.61,0,0,1-.37,1.23,3.09,3.09,0,0,1-.72.91,3.22,3.22,0,0,1-1,.56,3.5,3.5,0,0,1-1.17.19,3.58,3.58,0,0,1-1.61-.33,3.07,3.07,0,0,1-1.1-.91A3.85,3.85,0,0,1,165,96.5a6,6,0,0,1-.2-1.55,4.8,4.8,0,0,1,.23-1.53,3.82,3.82,0,0,1,.68-1.26,3.23,3.23,0,0,1,1.11-.85,3.5,3.5,0,0,1,1.52-.32,4.1,4.1,0,0,1,1.18.16,3,3,0,0,1,1,.47,2.39,2.39,0,0,1,.7.81,2.82,2.82,0,0,1,.33,1.13Z"/><path class="a" d="M175.43,98.88h-.57V91.67h-2.92v-.5h6.42v.5h-2.93Z"/><path class="a" d="M184.85,92h0L180,98.88h-.7V91.17h.57v7h0l4.8-7h.72v7.71h-.57Z"/><path class="a" d="M196.75,93.05a1.59,1.59,0,0,1-.46,1.15,2.12,2.12,0,0,1-1.19.57v0a2.32,2.32,0,0,1,1.35.55,1.68,1.68,0,0,1,.49,1.31,2.2,2.2,0,0,1-.24,1,2.44,2.44,0,0,1-.67.76,2.83,2.83,0,0,1-.94.45,4.09,4.09,0,0,1-1.12.15,3.56,3.56,0,0,1-2.28-.66,2.54,2.54,0,0,1-.84-2.11h.57a2.12,2.12,0,0,0,.67,1.72,2.85,2.85,0,0,0,1.88.56,3.26,3.26,0,0,0,.87-.12,2.77,2.77,0,0,0,.78-.35,1.94,1.94,0,0,0,.54-.6,1.65,1.65,0,0,0,.21-.85,1.31,1.31,0,0,0-.62-1.22,3.37,3.37,0,0,0-1.73-.37h-.84v-.5h.69a5.76,5.76,0,0,0,.82-.06,2.79,2.79,0,0,0,.74-.24,1.42,1.42,0,0,0,.54-.46,1.22,1.22,0,0,0,.21-.74,1.32,1.32,0,0,0-.59-1.17,2.63,2.63,0,0,0-1.53-.4,3,3,0,0,0-1.7.44,1.91,1.91,0,0,0-.73,1.51h-.57a2.21,2.21,0,0,1,.86-1.84,3.59,3.59,0,0,1,2.16-.61,4.42,4.42,0,0,1,1.07.13,2.69,2.69,0,0,1,.84.38,1.82,1.82,0,0,1,.55.65A1.87,1.87,0,0,1,196.75,93.05Z"/><path class="a" d="M203.44,97.35h0A2.29,2.29,0,0,1,203,98a2.6,2.6,0,0,1-.63.55,3,3,0,0,1-.83.38,3.65,3.65,0,0,1-1,.13,3,3,0,0,1-1.9-.53,2,2,0,0,1-.68-1.64,2,2,0,0,1,.27-1.1,2.1,2.1,0,0,1,.68-.68,3.08,3.08,0,0,1,.92-.35,8.81,8.81,0,0,1,1-.15l.88-.08a5,5,0,0,0,1-.14,1.15,1.15,0,0,0,.53-.27.75.75,0,0,0,.23-.44,4.36,4.36,0,0,0,0-.68,1.4,1.4,0,0,0-.12-.58,1.3,1.3,0,0,0-.37-.48,1.86,1.86,0,0,0-.66-.33,3.53,3.53,0,0,0-1-.12,2.63,2.63,0,0,0-1.68.51,2,2,0,0,0-.69,1.54h-.57a2.54,2.54,0,0,1,.81-1.91,3.31,3.31,0,0,1,2.16-.64,3.12,3.12,0,0,1,2,.55A1.82,1.82,0,0,1,204,93v4.82a1.33,1.33,0,0,0,.06.3.48.48,0,0,0,.15.22.51.51,0,0,0,.3.08,2.87,2.87,0,0,0,.42,0v.48a1.84,1.84,0,0,1-.47.06,1.4,1.4,0,0,1-.55-.09.73.73,0,0,1-.3-.24,1,1,0,0,1-.15-.35,2.94,2.94,0,0,1,0-.44Zm0-2.85a1.11,1.11,0,0,1-.64.35,8.09,8.09,0,0,1-1,.13l-1,.09c-.28,0-.56.08-.84.13a2.54,2.54,0,0,0-.76.28,1.55,1.55,0,0,0-.55.53,1.66,1.66,0,0,0-.21.88,1.5,1.5,0,0,0,.54,1.27,2.44,2.44,0,0,0,1.49.41,2.85,2.85,0,0,0,1.54-.36,2.71,2.71,0,0,0,.87-.8,2.42,2.42,0,0,0,.38-.89,3.42,3.42,0,0,0,.09-.58Z"/><path class="a" d="M206,95.1v.09a4.57,4.57,0,0,0,.18,1.29,3.22,3.22,0,0,0,.54,1.08,2.53,2.53,0,0,0,.88.74,2.73,2.73,0,0,0,1.24.27,2.62,2.62,0,0,0,1.84-.61,3.17,3.17,0,0,0,.93-1.69h.57a3.47,3.47,0,0,1-1.1,2.07,3.82,3.82,0,0,1-3.74.41,3,3,0,0,1-1.06-.83,3.75,3.75,0,0,1-.64-1.26,5.67,5.67,0,0,1-.21-1.57,5.28,5.28,0,0,1,.22-1.55,4,4,0,0,1,.65-1.31,3.42,3.42,0,0,1,1.09-.9A3.36,3.36,0,0,1,209,91a3.27,3.27,0,0,1,1.43.3,3.11,3.11,0,0,1,1,.82,3.84,3.84,0,0,1,.64,1.2,5,5,0,0,1,.22,1.46s0,.11,0,.18a.86.86,0,0,0,0,.15Zm5.67-.49a4.56,4.56,0,0,0-.21-1.19,2.94,2.94,0,0,0-.53-1,2.62,2.62,0,0,0-.86-.69,2.52,2.52,0,0,0-1.15-.25,2.77,2.77,0,0,0-1.22.26,2.91,2.91,0,0,0-.89.69,3.13,3.13,0,0,0-.55,1,4.68,4.68,0,0,0-.24,1.17Z"/><path class="a" d="M214.18,98.88h-.57V91.17h.93l3,7,3-7h.93v7.71h-.57V91.71h0l-3,7.17h-.63l-3-7.17h0Z"/><path class="a" d="M233.3,98.88H223.06V91.17h.57v7.22h4.06V91.17h.57v7.22h4.07V91.17h.57v7.22h1v2.91h-.57Z"/><path class="a" d="M240.43,92h0l-4.81,6.93h-.71V91.17h.57v7h0l4.8-7H241v7.71h-.57Z"/><path class="a" d="M242.71,91.17h.57v4.22L248,91.17h.83l-3.38,3,3.62,4.71h-.78L245,94.61l-1.75,1.48v2.79h-.57Z"/><path class="a" d="M254.74,97.35h0a2.29,2.29,0,0,1-.39.65,2.6,2.6,0,0,1-.63.55,3,3,0,0,1-.83.38,3.65,3.65,0,0,1-1,.13,3,3,0,0,1-1.9-.53,2,2,0,0,1-.68-1.64,2,2,0,0,1,.27-1.1,2.1,2.1,0,0,1,.68-.68,3.08,3.08,0,0,1,.92-.35,8.81,8.81,0,0,1,1-.15l.88-.08a5,5,0,0,0,1-.14,1.15,1.15,0,0,0,.53-.27.75.75,0,0,0,.23-.44,4.36,4.36,0,0,0,0-.68,1.4,1.4,0,0,0-.12-.58,1.3,1.3,0,0,0-.37-.48,1.86,1.86,0,0,0-.66-.33,3.53,3.53,0,0,0-1-.12,2.63,2.63,0,0,0-1.68.51,2,2,0,0,0-.69,1.54h-.57a2.54,2.54,0,0,1,.81-1.91,3.31,3.31,0,0,1,2.16-.64,3.12,3.12,0,0,1,2,.55,1.82,1.82,0,0,1,.64,1.43v4.82a1.33,1.33,0,0,0,.06.3.48.48,0,0,0,.15.22.51.51,0,0,0,.3.08,2.87,2.87,0,0,0,.42,0v.48a1.84,1.84,0,0,1-.47.06,1.4,1.4,0,0,1-.55-.09.73.73,0,0,1-.3-.24,1,1,0,0,1-.15-.35,2.94,2.94,0,0,1,0-.44Zm0-2.85a1.11,1.11,0,0,1-.64.35,8.09,8.09,0,0,1-.95.13l-1,.09c-.28,0-.56.08-.84.13a2.54,2.54,0,0,0-.76.28A1.55,1.55,0,0,0,250,96a1.66,1.66,0,0,0-.21.88,1.5,1.5,0,0,0,.54,1.27,2.44,2.44,0,0,0,1.49.41,2.85,2.85,0,0,0,1.54-.36,2.71,2.71,0,0,0,.87-.8,2.42,2.42,0,0,0,.38-.89,3.42,3.42,0,0,0,.09-.58Z"/><path class="a" d="M261.32,91.17h.57v4.22l4.76-4.22h.82l-3.37,3,3.61,4.71h-.78l-3.28-4.27-1.76,1.48v2.79h-.57Z"/><path class="a" d="M268.93,92.94h0a2.94,2.94,0,0,1,.3-.63,2.49,2.49,0,0,1,.55-.63,2.86,2.86,0,0,1,.84-.49,3,3,0,0,1,1.12-.2,3.39,3.39,0,0,1,1.54.33,3.13,3.13,0,0,1,1.08.89A3.72,3.72,0,0,1,275,93.5a5.56,5.56,0,0,1,.21,1.54,5.88,5.88,0,0,1-.21,1.62,3.46,3.46,0,0,1-.64,1.27,2.87,2.87,0,0,1-1.08.83,3.68,3.68,0,0,1-1.54.3,3.48,3.48,0,0,1-1.72-.42A2.43,2.43,0,0,1,269,97.28h0v4.36h-.56V91.17h.56Zm2.84,5.63a2.8,2.8,0,0,0,1.3-.29,2.47,2.47,0,0,0,.9-.76,3.32,3.32,0,0,0,.53-1.12,5.39,5.39,0,0,0,.17-1.36,5.07,5.07,0,0,0-.16-1.29,3.3,3.3,0,0,0-.52-1.14,2.6,2.6,0,0,0-.89-.82,2.75,2.75,0,0,0-1.33-.3,2.67,2.67,0,0,0-1.31.3,2.57,2.57,0,0,0-.88.79,3.29,3.29,0,0,0-.49,1.13,5.83,5.83,0,0,0-.15,1.33,6.38,6.38,0,0,0,.14,1.33,3.35,3.35,0,0,0,.45,1.13,2.47,2.47,0,0,0,.88.78A2.91,2.91,0,0,0,271.77,98.57Z"/><path class="a" d="M276.79,95.1v.09a4.57,4.57,0,0,0,.18,1.29,3.21,3.21,0,0,0,.53,1.08,2.56,2.56,0,0,0,.89.74,2.7,2.7,0,0,0,1.24.27,2.61,2.61,0,0,0,1.83-.61,3.18,3.18,0,0,0,.94-1.69H283a3.43,3.43,0,0,1-1.11,2.07,3.8,3.8,0,0,1-3.73.41,3,3,0,0,1-1.07-.83,3.73,3.73,0,0,1-.63-1.26,5.9,5.9,0,0,1,0-3.12,4,4,0,0,1,.66-1.31A3.15,3.15,0,0,1,279.71,91a3.23,3.23,0,0,1,1.43.3,3,3,0,0,1,1.05.82,3.62,3.62,0,0,1,.63,1.2,4.65,4.65,0,0,1,.22,1.46,1.21,1.21,0,0,1,0,.18v.15Zm5.67-.49a4.56,4.56,0,0,0-.21-1.19,3,3,0,0,0-.54-1,2.53,2.53,0,0,0-.86-.69,2.5,2.5,0,0,0-1.15-.25,2.73,2.73,0,0,0-1.21.26,2.8,2.8,0,0,0-.89.69,3.15,3.15,0,0,0-.56,1,4.68,4.68,0,0,0-.24,1.17Z"/><path class="a" d="M283.78,98.88v2.42h-.57V98.39h.91a9.07,9.07,0,0,0,.89-2.78,20.15,20.15,0,0,0,.25-3.31V91.17H290v7.22h1v2.91h-.57V98.88Zm5.64-7.21h-3.59v.64a22.29,22.29,0,0,1-.23,3.3,9.7,9.7,0,0,1-.86,2.78h4.68Z"/><path class="a" d="M297.47,92h0l-4.82,6.93h-.7V91.17h.57v7h0l4.8-7H298v7.71h-.57Z"/><path class="a" d="M302.5,98.88h-.57V91.67H299v-.5h6.42v.5H302.5Z"/><path class="a" d="M311.92,95h-5v3.85h-.57V91.17H307v3.36h5V91.17h.57v7.71h-.57Z"/><path class="a" d="M313.81,95a4.89,4.89,0,0,1,.23-1.55,3.79,3.79,0,0,1,.68-1.29,3.16,3.16,0,0,1,1.11-.87,3.37,3.37,0,0,1,1.52-.33,3.32,3.32,0,0,1,1.51.33,3.16,3.16,0,0,1,1.11.87,3.79,3.79,0,0,1,.68,1.29,4.89,4.89,0,0,1,.24,1.55,5,5,0,0,1-.24,1.56,3.65,3.65,0,0,1-.68,1.28,3.16,3.16,0,0,1-1.11.87,3.32,3.32,0,0,1-1.51.32,3.36,3.36,0,0,1-1.52-.32,3.16,3.16,0,0,1-1.11-.87,3.65,3.65,0,0,1-.68-1.28A5,5,0,0,1,313.81,95Zm.57,0a4.55,4.55,0,0,0,.19,1.33,3.64,3.64,0,0,0,.57,1.13,2.84,2.84,0,0,0,.93.79,2.77,2.77,0,0,0,1.28.29,2.73,2.73,0,0,0,1.27-.29,2.84,2.84,0,0,0,.93-.79,3.64,3.64,0,0,0,.57-1.13,4.56,4.56,0,0,0,.2-1.33,4.51,4.51,0,0,0-.2-1.33,3.64,3.64,0,0,0-.57-1.13,2.84,2.84,0,0,0-.93-.79,2.62,2.62,0,0,0-1.27-.29,2.66,2.66,0,0,0-1.28.29,2.84,2.84,0,0,0-.93.79,3.64,3.64,0,0,0-.57,1.13A4.5,4.5,0,0,0,314.38,95Z"/><path class="a" d="M327.76,92h0l-4.81,6.93h-.71V91.17h.57v7h0l4.8-7h.72v7.71h-.57Zm-.45-3.87a2.14,2.14,0,0,1-.22.69,2.12,2.12,0,0,1-.44.58,1.73,1.73,0,0,1-.6.39,1.7,1.7,0,0,1-.71.14,2.12,2.12,0,0,1-1.42-.47,2,2,0,0,1-.68-1.33h.5a1.85,1.85,0,0,0,.27.65,1.65,1.65,0,0,0,.39.4,1.24,1.24,0,0,0,.46.2,2,2,0,0,0,.47.06,1.41,1.41,0,0,0,1-.36,1.66,1.66,0,0,0,.5-1Z"/><path class="a" d="M333.82,95a4.89,4.89,0,0,1,.23-1.55,3.79,3.79,0,0,1,.68-1.29,3.16,3.16,0,0,1,1.11-.87,3.37,3.37,0,0,1,1.52-.33,3.32,3.32,0,0,1,1.51.33,3.16,3.16,0,0,1,1.11.87,3.79,3.79,0,0,1,.68,1.29A4.89,4.89,0,0,1,340.9,95a5,5,0,0,1-.24,1.56,3.65,3.65,0,0,1-.68,1.28,3.16,3.16,0,0,1-1.11.87,3.32,3.32,0,0,1-1.51.32,3.36,3.36,0,0,1-1.52-.32,3.16,3.16,0,0,1-1.11-.87,3.65,3.65,0,0,1-.68-1.28A5,5,0,0,1,333.82,95Zm.57,0a4.55,4.55,0,0,0,.19,1.33,3.64,3.64,0,0,0,.57,1.13,2.84,2.84,0,0,0,.93.79,2.77,2.77,0,0,0,1.28.29,2.73,2.73,0,0,0,1.27-.29,2.84,2.84,0,0,0,.93-.79,3.64,3.64,0,0,0,.57-1.13,4.56,4.56,0,0,0,.2-1.33,4.51,4.51,0,0,0-.2-1.33,3.64,3.64,0,0,0-.57-1.13,2.84,2.84,0,0,0-.93-.79,2.62,2.62,0,0,0-1.27-.29,2.66,2.66,0,0,0-1.28.29,2.84,2.84,0,0,0-.93.79,3.64,3.64,0,0,0-.57,1.13A4.5,4.5,0,0,0,334.39,95Z"/><path class="a" d="M342.92,92.94h0a2.94,2.94,0,0,1,.3-.63,2.54,2.54,0,0,1,.56-.63,2.94,2.94,0,0,1,.83-.49,3,3,0,0,1,1.12-.2,3.36,3.36,0,0,1,1.54.33,3.17,3.17,0,0,1,1.09.89A4.1,4.1,0,0,1,349,93.5a6,6,0,0,1,.21,1.54,6.29,6.29,0,0,1-.21,1.62,3.79,3.79,0,0,1-.64,1.27,2.91,2.91,0,0,1-1.09.83,3.65,3.65,0,0,1-1.54.3,3.44,3.44,0,0,1-1.71-.42,2.45,2.45,0,0,1-1.1-1.36h0v4.36h-.55V91.17h.55Zm2.84,5.63a2.77,2.77,0,0,0,1.3-.29,2.59,2.59,0,0,0,.91-.76,3.3,3.3,0,0,0,.52-1.12,5,5,0,0,0,.18-1.36,5.07,5.07,0,0,0-.17-1.29,3.48,3.48,0,0,0-.51-1.14,2.63,2.63,0,0,0-.9-.82,3.05,3.05,0,0,0-2.64,0,2.45,2.45,0,0,0-.87.79,3.29,3.29,0,0,0-.49,1.13,5.83,5.83,0,0,0-.15,1.33,6.38,6.38,0,0,0,.13,1.33,3.17,3.17,0,0,0,.46,1.13,2.44,2.44,0,0,0,.87.78A2.94,2.94,0,0,0,345.76,98.57Z"/><path class="a" d="M351.14,98.88h-.57V91.17h5.07v.5h-4.5Z"/><path class="a" d="M361.24,97.35h0a2.05,2.05,0,0,1-.38.65,2.6,2.6,0,0,1-.63.55,3,3,0,0,1-.83.38,3.65,3.65,0,0,1-1,.13,3,3,0,0,1-1.9-.53,2,2,0,0,1-.68-1.64,2,2,0,0,1,.27-1.1,2.1,2.1,0,0,1,.68-.68,3.08,3.08,0,0,1,.92-.35,8.46,8.46,0,0,1,1-.15l.88-.08a5,5,0,0,0,1-.14,1.15,1.15,0,0,0,.53-.27.74.74,0,0,0,.22-.44,3.31,3.31,0,0,0,.05-.68,1.4,1.4,0,0,0-.12-.58,1.33,1.33,0,0,0-.38-.48,1.8,1.8,0,0,0-.65-.33,3.58,3.58,0,0,0-1-.12,2.61,2.61,0,0,0-1.68.51,2,2,0,0,0-.69,1.54h-.58a2.55,2.55,0,0,1,.82-1.91,3.29,3.29,0,0,1,2.16-.64,3.12,3.12,0,0,1,2,.55,1.82,1.82,0,0,1,.64,1.43v4.82a.94.94,0,0,0,.06.3.48.48,0,0,0,.15.22.49.49,0,0,0,.3.08,3,3,0,0,0,.42,0v.48a1.89,1.89,0,0,1-.47.06,1.4,1.4,0,0,1-.55-.09.83.83,0,0,1-.31-.24,1,1,0,0,1-.14-.35,2.94,2.94,0,0,1,0-.44Zm0-2.85a1.14,1.14,0,0,1-.64.35,8.39,8.39,0,0,1-1,.13l-1,.09c-.28,0-.57.08-.84.13a2.54,2.54,0,0,0-.76.28,1.55,1.55,0,0,0-.55.53,1.66,1.66,0,0,0-.21.88,1.5,1.5,0,0,0,.54,1.27,2.44,2.44,0,0,0,1.49.41,2.88,2.88,0,0,0,1.54-.36,2.71,2.71,0,0,0,.87-.8,2.42,2.42,0,0,0,.38-.89,3.42,3.42,0,0,0,.09-.58Z"/><path class="a" d="M369.16,95h-5v3.85h-.57V91.17h.57v3.36h5V91.17h.57v7.71h-.57Z"/><path class="a" d="M376.94,92h0l-4.82,6.93h-.7V91.17H372v7h0l4.8-7h.72v7.71h-.57Z"/><path class="a" d="M379.39,94.52h3.21v.57h-3.21Z"/><path class="a" d="M62.24,111.05a1.58,1.58,0,0,1-.45,1.15,2.18,2.18,0,0,1-1.2.57v0a2.35,2.35,0,0,1,1.36.55,1.68,1.68,0,0,1,.49,1.31,2.09,2.09,0,0,1-.25,1,2.29,2.29,0,0,1-.66.76,2.92,2.92,0,0,1-.94.45,4.15,4.15,0,0,1-1.12.15,3.61,3.61,0,0,1-2.29-.66,2.57,2.57,0,0,1-.83-2.11h.57a2.09,2.09,0,0,0,.67,1.72,2.85,2.85,0,0,0,1.88.56,3.26,3.26,0,0,0,.87-.12,2.59,2.59,0,0,0,.77-.35,1.86,1.86,0,0,0,.55-.6,1.65,1.65,0,0,0,.21-.85,1.31,1.31,0,0,0-.62-1.22,3.41,3.41,0,0,0-1.74-.37h-.84v-.5h.69a5.66,5.66,0,0,0,.82-.06,2.68,2.68,0,0,0,.74-.24,1.42,1.42,0,0,0,.54-.46,1.22,1.22,0,0,0,.21-.74,1.31,1.31,0,0,0-.58-1.17,2.63,2.63,0,0,0-1.53-.4,3,3,0,0,0-1.7.44,1.91,1.91,0,0,0-.73,1.51h-.57a2.2,2.2,0,0,1,.85-1.84,3.59,3.59,0,0,1,2.16-.61,4.57,4.57,0,0,1,1.08.13,2.69,2.69,0,0,1,.84.38,1.82,1.82,0,0,1,.55.65A1.87,1.87,0,0,1,62.24,111.05Z"/><path class="a" d="M68.93,115.35h0a2.29,2.29,0,0,1-.39.65,2.55,2.55,0,0,1-.62.55,3,3,0,0,1-.83.38,3.65,3.65,0,0,1-1,.13,3.06,3.06,0,0,1-1.91-.53,2,2,0,0,1-.67-1.64,2,2,0,0,1,.27-1.1,2.1,2.1,0,0,1,.68-.68,3.08,3.08,0,0,1,.92-.35,8.64,8.64,0,0,1,1-.15l.89-.08a5,5,0,0,0,1-.14,1.15,1.15,0,0,0,.53-.27.74.74,0,0,0,.22-.44,4.21,4.21,0,0,0,0-.68,1.4,1.4,0,0,0-.12-.58,1.33,1.33,0,0,0-.38-.48,1.86,1.86,0,0,0-.66-.33,3.53,3.53,0,0,0-1-.12,2.6,2.6,0,0,0-1.67.51,2,2,0,0,0-.7,1.54h-.57a2.55,2.55,0,0,1,.82-1.91,3.28,3.28,0,0,1,2.15-.64,3.15,3.15,0,0,1,2,.55A1.81,1.81,0,0,1,69.5,111v4.49c0,.11,0,.22,0,.33a1.34,1.34,0,0,0,0,.3.48.48,0,0,0,.15.22.51.51,0,0,0,.3.08,2.87,2.87,0,0,0,.42,0v.48a1.76,1.76,0,0,1-.46.06,1.4,1.4,0,0,1-.55-.09.76.76,0,0,1-.31-.24,1,1,0,0,1-.14-.35,2.87,2.87,0,0,1,0-.44Zm0-2.85a1.08,1.08,0,0,1-.63.35,8.27,8.27,0,0,1-1,.13l-1,.09c-.28,0-.56.08-.84.13a2.48,2.48,0,0,0-.75.28,1.55,1.55,0,0,0-.55.53,1.66,1.66,0,0,0-.21.88,1.5,1.5,0,0,0,.54,1.27,2.41,2.41,0,0,0,1.48.41,2.89,2.89,0,0,0,1.55-.36,2.71,2.71,0,0,0,.87-.8,2.42,2.42,0,0,0,.38-.89,3.1,3.1,0,0,0,.08-.58Z"/><path class="a" d="M77.83,116.88H71.32v-7.71h.57v7.22h5v-7.22h.57v7.22h1v2.91h-.57Z"/><path class="a" d="M84.91,110h0l-4.81,6.93h-.71v-7.71h.57v7h0l4.8-7h.72v7.71h-.57Z"/><path class="a" d="M87.37,113.1v.09a4.57,4.57,0,0,0,.18,1.29,3.4,3.4,0,0,0,.53,1.08,2.56,2.56,0,0,0,.89.74,2.73,2.73,0,0,0,1.24.27,2.65,2.65,0,0,0,1.84-.61,3.17,3.17,0,0,0,.93-1.69h.57a3.47,3.47,0,0,1-1.1,2.07,3.38,3.38,0,0,1-2.25.72,3.33,3.33,0,0,1-1.49-.31,3,3,0,0,1-1.06-.83,3.57,3.57,0,0,1-.64-1.26,5.67,5.67,0,0,1-.21-1.57,5.28,5.28,0,0,1,.22-1.55,3.83,3.83,0,0,1,.65-1.31,3.45,3.45,0,0,1,4.06-.94,3.11,3.11,0,0,1,1,.82,3.84,3.84,0,0,1,.64,1.2,5,5,0,0,1,.21,1.46V113a.86.86,0,0,0,0,.15Zm5.67-.49a4.56,4.56,0,0,0-.21-1.19,2.79,2.79,0,0,0-.54-1,2.59,2.59,0,0,0-.85-.69,2.52,2.52,0,0,0-1.15-.25,2.77,2.77,0,0,0-1.22.26,2.91,2.91,0,0,0-.89.69,3.15,3.15,0,0,0-.56,1,4.68,4.68,0,0,0-.24,1.17Z"/><path class="a" d="M100.48,110h0l-4.81,6.93h-.71v-7.71h.57v7h0l4.8-7h.72v7.71h-.57Zm-.45-3.87a1.92,1.92,0,0,1-.22.69,2.09,2.09,0,0,1-.43.58,1.94,1.94,0,0,1-.6.39,1.78,1.78,0,0,1-.72.14,2.12,2.12,0,0,1-1.42-.47,2,2,0,0,1-.68-1.33h.5a1.85,1.85,0,0,0,.27.65,1.52,1.52,0,0,0,.4.4,1.13,1.13,0,0,0,.45.2,2,2,0,0,0,.47.06,1.39,1.39,0,0,0,1-.36,1.6,1.6,0,0,0,.5-1Z"/><path class="a" d="M107.47,109.67v7.21h-.57v-7.71H113v7.71h-.57v-7.21Z"/><path class="a" d="M115.37,110.94h0a2.94,2.94,0,0,1,.3-.63,2.54,2.54,0,0,1,.56-.63,2.94,2.94,0,0,1,.83-.49,3,3,0,0,1,1.12-.2,3.41,3.41,0,0,1,1.55.33,3.23,3.23,0,0,1,1.08.89,3.9,3.9,0,0,1,.64,1.29,5.56,5.56,0,0,1,.21,1.54,5.88,5.88,0,0,1-.21,1.62,3.62,3.62,0,0,1-.64,1.27,3,3,0,0,1-1.08.83,3.7,3.7,0,0,1-1.55.3,3.44,3.44,0,0,1-1.71-.42,2.45,2.45,0,0,1-1.1-1.36h0v4.36h-.55V109.17h.55Zm2.84,5.63a2.81,2.81,0,0,0,1.31-.29,2.65,2.65,0,0,0,.9-.76,3.3,3.3,0,0,0,.52-1.12,5,5,0,0,0,.18-1.36,5.07,5.07,0,0,0-.17-1.29,3.48,3.48,0,0,0-.51-1.14,2.69,2.69,0,0,0-.89-.82,2.76,2.76,0,0,0-1.34-.3,2.63,2.63,0,0,0-1.3.3,2.49,2.49,0,0,0-.88.79,3.29,3.29,0,0,0-.49,1.13,5.83,5.83,0,0,0-.15,1.33,6.38,6.38,0,0,0,.13,1.33,3.36,3.36,0,0,0,.46,1.13,2.52,2.52,0,0,0,.87.78A2.94,2.94,0,0,0,118.21,116.57Z"/><path class="a" d="M128.56,110h0l-4.81,6.93H123v-7.71h.57v7h0l4.8-7h.72v7.71h-.57Z"/><path class="a" d="M135.55,109.67v7.21H135v-7.71h6.1v7.71h-.57v-7.21Z"/><path class="a" d="M143.45,110.94h0a2.94,2.94,0,0,1,.3-.63,2.54,2.54,0,0,1,.56-.63,2.94,2.94,0,0,1,.83-.49,3,3,0,0,1,1.12-.2,3.41,3.41,0,0,1,1.55.33,3.23,3.23,0,0,1,1.08.89,3.9,3.9,0,0,1,.64,1.29,5.56,5.56,0,0,1,.21,1.54,5.88,5.88,0,0,1-.21,1.62,3.62,3.62,0,0,1-.64,1.27,3,3,0,0,1-1.08.83,3.7,3.7,0,0,1-1.55.3,3.44,3.44,0,0,1-1.71-.42,2.45,2.45,0,0,1-1.1-1.36h0v4.36h-.55V109.17h.55Zm2.84,5.63a2.81,2.81,0,0,0,1.31-.29,2.65,2.65,0,0,0,.9-.76,3.3,3.3,0,0,0,.52-1.12,5,5,0,0,0,.18-1.36,5.07,5.07,0,0,0-.17-1.29,3.48,3.48,0,0,0-.51-1.14,2.69,2.69,0,0,0-.89-.82,2.76,2.76,0,0,0-1.34-.3,2.63,2.63,0,0,0-1.3.3,2.49,2.49,0,0,0-.88.79,3.29,3.29,0,0,0-.49,1.13,5.83,5.83,0,0,0-.15,1.33,6.38,6.38,0,0,0,.13,1.33,3.36,3.36,0,0,0,.46,1.13,2.52,2.52,0,0,0,.87.78A2.94,2.94,0,0,0,146.29,116.57Z"/><path class="a" d="M156.64,110h0l-4.81,6.93h-.71v-7.71h.57v7h0l4.8-7h.72v7.71h-.57Z"/><path class="a" d="M164.42,113h-5v3.85h-.57v-7.71h.57v3.36h5v-3.36H165v7.71h-.57Z"/><path class="a" d="M166.55,116.88h-.72l2.58-3.34a2.59,2.59,0,0,1-.77-.21,2.13,2.13,0,0,1-.64-.41,1.82,1.82,0,0,1-.42-.65,2.21,2.21,0,0,1-.16-.89,2.1,2.1,0,0,1,.64-1.6,2.5,2.5,0,0,1,1.77-.61h3.48v7.71h-.57v-3.33h-2.67Zm5.19-7.21h-2.86a1.94,1.94,0,0,0-1.4.47,1.64,1.64,0,0,0-.49,1.24,1.56,1.56,0,0,0,.49,1.24,1.93,1.93,0,0,0,1.34.44h2.92Z"/><path class="a" d="M176.77,116.88h-.57v-7.21h-2.93v-.5h6.42v.5h-2.92Z"/><path class="a" d="M186.19,110h0l-4.81,6.93h-.71v-7.71h.57v7h0l4.8-7h.72v7.71h-.57Z"/><path class="a" d="M194,110h0l-4.82,6.93h-.7v-7.71H189v7h0l4.8-7h.72v7.71H194Z"/><path class="a" d="M201.08,110.94h0a2.94,2.94,0,0,1,.3-.63,2.54,2.54,0,0,1,.56-.63,2.94,2.94,0,0,1,.83-.49,3,3,0,0,1,1.12-.2,3.41,3.41,0,0,1,1.55.33,3.23,3.23,0,0,1,1.08.89,3.9,3.9,0,0,1,.64,1.29,5.56,5.56,0,0,1,.21,1.54,5.88,5.88,0,0,1-.21,1.62,3.62,3.62,0,0,1-.64,1.27,3,3,0,0,1-1.08.83,3.7,3.7,0,0,1-1.55.3,3.44,3.44,0,0,1-1.71-.42,2.45,2.45,0,0,1-1.1-1.36h0v4.36h-.55V109.17h.55Zm2.84,5.63a2.81,2.81,0,0,0,1.31-.29,2.65,2.65,0,0,0,.9-.76,3.3,3.3,0,0,0,.52-1.12,5,5,0,0,0,.18-1.36,5.07,5.07,0,0,0-.17-1.29,3.48,3.48,0,0,0-.51-1.14,2.69,2.69,0,0,0-.89-.82,2.76,2.76,0,0,0-1.34-.3,2.63,2.63,0,0,0-1.3.3,2.49,2.49,0,0,0-.88.79,3.29,3.29,0,0,0-.49,1.13,5.83,5.83,0,0,0-.15,1.33,6.38,6.38,0,0,0,.13,1.33,3.36,3.36,0,0,0,.46,1.13,2.52,2.52,0,0,0,.87.78A2.94,2.94,0,0,0,203.92,116.57Z"/><path class="a" d="M208.94,113.1v.09a4.57,4.57,0,0,0,.18,1.29,3.22,3.22,0,0,0,.54,1.08,2.53,2.53,0,0,0,.88.74,2.73,2.73,0,0,0,1.24.27,2.62,2.62,0,0,0,1.84-.61,3.17,3.17,0,0,0,.93-1.69h.57a3.47,3.47,0,0,1-1.1,2.07,3.82,3.82,0,0,1-3.74.41,3,3,0,0,1-1.06-.83,3.75,3.75,0,0,1-.64-1.26,5.77,5.77,0,0,1,0-3.12,4,4,0,0,1,.65-1.31,3.42,3.42,0,0,1,1.09-.9,3.36,3.36,0,0,1,1.54-.34,3.27,3.27,0,0,1,1.43.3,3.11,3.11,0,0,1,1,.82,3.84,3.84,0,0,1,.64,1.2,5,5,0,0,1,.22,1.46,1.21,1.21,0,0,1,0,.18.86.86,0,0,0,0,.15Zm5.67-.49a4.56,4.56,0,0,0-.21-1.19,2.94,2.94,0,0,0-.53-1,2.62,2.62,0,0,0-.86-.69,2.52,2.52,0,0,0-1.15-.25,2.77,2.77,0,0,0-1.22.26,2.91,2.91,0,0,0-.89.69,3.13,3.13,0,0,0-.55,1,4.68,4.68,0,0,0-.24,1.17Z"/><path class="a" d="M226.36,116.88h-9.84v-7.71h.57v7.22h4.06v-7.22h.57v7.22h4.07v-7.22h.57Z"/><path class="a" d="M228.25,113.1v.09a4.57,4.57,0,0,0,.18,1.29,3.4,3.4,0,0,0,.53,1.08,2.56,2.56,0,0,0,.89.74,2.7,2.7,0,0,0,1.24.27,2.61,2.61,0,0,0,1.83-.61,3.12,3.12,0,0,0,.94-1.69h.57a3.47,3.47,0,0,1-1.1,2.07,3.38,3.38,0,0,1-2.25.72,3.31,3.31,0,0,1-1.49-.31,3,3,0,0,1-1.07-.83,3.73,3.73,0,0,1-.63-1.26,5.9,5.9,0,0,1,0-3.12,4,4,0,0,1,.66-1.31,3.15,3.15,0,0,1,2.62-1.24,3.23,3.23,0,0,1,1.43.3,3,3,0,0,1,1.05.82,3.62,3.62,0,0,1,.63,1.2,4.65,4.65,0,0,1,.22,1.46,1.21,1.21,0,0,1,0,.18v.15Zm5.67-.49a4.56,4.56,0,0,0-.21-1.19,2.79,2.79,0,0,0-.54-1,2.59,2.59,0,0,0-.85-.69,2.54,2.54,0,0,0-1.16-.25,2.73,2.73,0,0,0-1.21.26,2.91,2.91,0,0,0-.89.69,3.15,3.15,0,0,0-.56,1,4.68,4.68,0,0,0-.24,1.17Z"/><path class="a" d="M241.36,113h-5v3.85h-.57v-7.71h.57v3.36h5v-3.36h.57v7.71h-.57Z"/><path class="a" d="M249.14,110h0l-4.82,6.93h-.7v-7.71h.57v7h0l4.8-7h.72v7.71h-.57Z"/><path class="a" d="M251.27,116.88h-.72l2.58-3.34a2.51,2.51,0,0,1-.77-.21,1.86,1.86,0,0,1-1.07-1.06,2.4,2.4,0,0,1-.15-.89,2.1,2.1,0,0,1,.64-1.6,2.5,2.5,0,0,1,1.77-.61H257v7.71h-.57v-3.33h-2.67Zm5.19-7.21H253.6a1.94,1.94,0,0,0-1.4.47,1.64,1.64,0,0,0-.49,1.24,1.56,1.56,0,0,0,.49,1.24,1.93,1.93,0,0,0,1.34.44h2.92Z"/><path class="a" d="M262.52,113a5.19,5.19,0,0,1,.23-1.55,4,4,0,0,1,.69-1.29,3.16,3.16,0,0,1,1.11-.87,3.32,3.32,0,0,1,1.51-.33,3.37,3.37,0,0,1,1.52.33,3.16,3.16,0,0,1,1.11.87,4,4,0,0,1,.68,1.29,5.19,5.19,0,0,1,.23,1.55,5.3,5.3,0,0,1-.23,1.56,3.83,3.83,0,0,1-.68,1.28,3.16,3.16,0,0,1-1.11.87,3.36,3.36,0,0,1-1.52.32,3.32,3.32,0,0,1-1.51-.32,3.16,3.16,0,0,1-1.11-.87,3.84,3.84,0,0,1-.69-1.28A5.3,5.3,0,0,1,262.52,113Zm.57,0a4.56,4.56,0,0,0,.2,1.33,3.64,3.64,0,0,0,.57,1.13,2.84,2.84,0,0,0,.93.79,2.73,2.73,0,0,0,1.27.29,2.77,2.77,0,0,0,1.28-.29,2.84,2.84,0,0,0,.93-.79,3.64,3.64,0,0,0,.57-1.13A4.55,4.55,0,0,0,269,113a4.5,4.5,0,0,0-.19-1.33,3.64,3.64,0,0,0-.57-1.13,2.84,2.84,0,0,0-.93-.79,2.66,2.66,0,0,0-1.28-.29,2.62,2.62,0,0,0-1.27.29,2.84,2.84,0,0,0-.93.79,3.64,3.64,0,0,0-.57,1.13A4.51,4.51,0,0,0,263.09,113Z"/><path class="a" d="M275.12,116.88v-7.71h3.54a2.62,2.62,0,0,1,1.74.51,1.69,1.69,0,0,1,.6,1.38,1.61,1.61,0,0,1-.39,1.14,1.89,1.89,0,0,1-1,.56v0a2.32,2.32,0,0,1,1.25.62,1.87,1.87,0,0,1,.46,1.33,1.89,1.89,0,0,1-.72,1.59,3.13,3.13,0,0,1-2,.55Zm.57-7.21v2.89h2.91a2.13,2.13,0,0,0,1.34-.37,1.24,1.24,0,0,0,.49-1A1.34,1.34,0,0,0,280,110a2.12,2.12,0,0,0-1.34-.37Zm2.88,6.72a2.53,2.53,0,0,0,1.59-.43,1.47,1.47,0,0,0,.56-1.24,1.51,1.51,0,0,0-.53-1.21,2.34,2.34,0,0,0-1.56-.45h-2.94v3.33Z"/><path class="a" d="M282.61,109.17h.57v3.23h2.95a2.5,2.5,0,0,1,1.76.59,2.43,2.43,0,0,1,0,3.29,2.5,2.5,0,0,1-1.77.6h-3.49Zm5.34,5.45a1.64,1.64,0,0,0-.5-1.25,1.94,1.94,0,0,0-1.41-.48h-2.86v3.5H286a2,2,0,0,0,1.42-.47A1.69,1.69,0,0,0,288,114.62Zm1.86-5.45h.57v7.71h-.57Z"/><path class="a" d="M292,116.88v2.42h-.57v-2.91h.92a9.35,9.35,0,0,0,.89-2.78,21.32,21.32,0,0,0,.25-3.31v-1.13h4.72v7.22h1v2.91h-.57v-2.42Zm5.64-7.21H294v.64a21,21,0,0,1-.24,3.3,9.39,9.39,0,0,1-.86,2.78h4.68Z"/><path class="a" d="M305.23,115.35h0a2.29,2.29,0,0,1-.39.65,2.6,2.6,0,0,1-.63.55,3,3,0,0,1-.83.38,3.65,3.65,0,0,1-1,.13,3,3,0,0,1-1.9-.53,2,2,0,0,1-.68-1.64,2,2,0,0,1,.27-1.1,2.1,2.1,0,0,1,.68-.68,3.08,3.08,0,0,1,.92-.35,8.81,8.81,0,0,1,1-.15l.88-.08a5,5,0,0,0,1-.14,1.15,1.15,0,0,0,.53-.27.75.75,0,0,0,.23-.44,4.36,4.36,0,0,0,0-.68,1.4,1.4,0,0,0-.12-.58,1.3,1.3,0,0,0-.37-.48,1.86,1.86,0,0,0-.66-.33,3.53,3.53,0,0,0-1-.12,2.63,2.63,0,0,0-1.68.51,2,2,0,0,0-.69,1.54h-.57a2.54,2.54,0,0,1,.81-1.91,3.31,3.31,0,0,1,2.16-.64,3.12,3.12,0,0,1,2,.55,1.82,1.82,0,0,1,.64,1.43v4.82a1.33,1.33,0,0,0,.06.3.48.48,0,0,0,.15.22.51.51,0,0,0,.3.08,2.87,2.87,0,0,0,.42,0v.48a1.84,1.84,0,0,1-.47.06,1.4,1.4,0,0,1-.55-.09.73.73,0,0,1-.3-.24,1,1,0,0,1-.15-.35,2.94,2.94,0,0,1,0-.44Zm0-2.85a1.11,1.11,0,0,1-.64.35,8.09,8.09,0,0,1-.95.13l-1,.09c-.28,0-.56.08-.84.13a2.54,2.54,0,0,0-.76.28,1.55,1.55,0,0,0-.55.53,1.66,1.66,0,0,0-.21.88,1.5,1.5,0,0,0,.54,1.27,2.44,2.44,0,0,0,1.49.41,2.85,2.85,0,0,0,1.54-.36,2.71,2.71,0,0,0,.87-.8,2.42,2.42,0,0,0,.38-.89,3.42,3.42,0,0,0,.09-.58Z"/><path class="a" d="M311.43,113.54a6,6,0,0,1-1.49.18,2.76,2.76,0,0,1-1.88-.57,2.44,2.44,0,0,1-.64-1.91v-2.07H308v2.1a1.94,1.94,0,0,0,.51,1.5,2.19,2.19,0,0,0,1.47.45,6.9,6.9,0,0,0,1.44-.15,8.77,8.77,0,0,0,1.2-.36v-3.54h.57v7.71h-.57v-3.67C312.29,113.32,311.89,113.43,311.43,113.54Z"/><path class="a" d="M315.07,113.1v.09a4.57,4.57,0,0,0,.18,1.29,3.21,3.21,0,0,0,.53,1.08,2.56,2.56,0,0,0,.89.74,2.7,2.7,0,0,0,1.24.27,2.61,2.61,0,0,0,1.83-.61,3.12,3.12,0,0,0,.94-1.69h.57a3.43,3.43,0,0,1-1.11,2.07,3.8,3.8,0,0,1-3.73.41,3,3,0,0,1-1.07-.83,3.73,3.73,0,0,1-.63-1.26,5.9,5.9,0,0,1,0-3.12,4,4,0,0,1,.66-1.31A3.15,3.15,0,0,1,318,109a3.23,3.23,0,0,1,1.43.3,3,3,0,0,1,1.05.82,3.62,3.62,0,0,1,.63,1.2,4.65,4.65,0,0,1,.22,1.46,1.21,1.21,0,0,1,0,.18v.15Zm5.67-.49a4.56,4.56,0,0,0-.21-1.19,2.79,2.79,0,0,0-.54-1,2.53,2.53,0,0,0-.86-.69,2.5,2.5,0,0,0-1.15-.25,2.73,2.73,0,0,0-1.21.26,2.8,2.8,0,0,0-.89.69,3.15,3.15,0,0,0-.56,1,4.68,4.68,0,0,0-.24,1.17Z"/><path class="a" d="M326.84,109.17h.57v4.22l4.76-4.22H333l-3.37,3,3.61,4.71h-.78l-3.28-4.27-1.76,1.48v2.79h-.57Z"/><path class="a" d="M334.45,110.94h0a2.94,2.94,0,0,1,.3-.63,2.49,2.49,0,0,1,.55-.63,2.86,2.86,0,0,1,.84-.49,3,3,0,0,1,1.12-.2,3.39,3.39,0,0,1,1.54.33,3.13,3.13,0,0,1,1.08.89,3.72,3.72,0,0,1,.64,1.29,5.56,5.56,0,0,1,.21,1.54,5.88,5.88,0,0,1-.21,1.62,3.46,3.46,0,0,1-.64,1.27,2.87,2.87,0,0,1-1.08.83,3.68,3.68,0,0,1-1.54.3,3.48,3.48,0,0,1-1.72-.42,2.43,2.43,0,0,1-1.09-1.36h0v4.36h-.56V109.17h.56Zm2.84,5.63a2.8,2.8,0,0,0,1.3-.29,2.56,2.56,0,0,0,.9-.76,3.32,3.32,0,0,0,.53-1.12,5.39,5.39,0,0,0,.17-1.36,5.07,5.07,0,0,0-.16-1.29,3.72,3.72,0,0,0-.52-1.14,2.6,2.6,0,0,0-.89-.82,2.75,2.75,0,0,0-1.33-.3,2.67,2.67,0,0,0-1.31.3,2.57,2.57,0,0,0-.88.79,3.29,3.29,0,0,0-.49,1.13,5.83,5.83,0,0,0-.15,1.33,6.38,6.38,0,0,0,.14,1.33,3.35,3.35,0,0,0,.45,1.13,2.47,2.47,0,0,0,.88.78A2.91,2.91,0,0,0,337.29,116.57Z"/><path class="a" d="M342.31,113.1v.09a4.57,4.57,0,0,0,.18,1.29,3.21,3.21,0,0,0,.53,1.08,2.56,2.56,0,0,0,.89.74,2.7,2.7,0,0,0,1.24.27A2.61,2.61,0,0,0,347,116a3.25,3.25,0,0,0,.94-1.69h.57a3.43,3.43,0,0,1-1.11,2.07,3.8,3.8,0,0,1-3.73.41,3,3,0,0,1-1.07-.83,3.73,3.73,0,0,1-.63-1.26,5.9,5.9,0,0,1,0-3.12,4,4,0,0,1,.66-1.31,3.15,3.15,0,0,1,2.62-1.24,3.23,3.23,0,0,1,1.43.3,3,3,0,0,1,1,.82,3.62,3.62,0,0,1,.63,1.2,4.65,4.65,0,0,1,.22,1.46,1.21,1.21,0,0,1,0,.18v.15Zm5.67-.49a4.56,4.56,0,0,0-.21-1.19,3,3,0,0,0-.54-1,2.53,2.53,0,0,0-.86-.69,2.5,2.5,0,0,0-1.15-.25,2.8,2.8,0,0,0-1.22.26,2.87,2.87,0,0,0-.88.69,3.15,3.15,0,0,0-.56,1,4.68,4.68,0,0,0-.24,1.17Z"/><path class="a" d="M349.3,116.88v2.42h-.57v-2.91h.91a9.07,9.07,0,0,0,.89-2.78,20.15,20.15,0,0,0,.25-3.31v-1.13h4.73v7.22h1v2.91h-.57v-2.42Zm5.64-7.21h-3.59v.64a22.29,22.29,0,0,1-.23,3.3,9.7,9.7,0,0,1-.86,2.78h4.68Z"/><path class="a" d="M363,110h0l-4.82,6.93h-.7v-7.71H358v7h0l4.8-7h.72v7.71H363Z"/><path class="a" d="M368,116.88h-.57v-7.21h-2.93v-.5h6.42v.5H368Z"/><path class="a" d="M376.75,115.35h0a2.29,2.29,0,0,1-.39.65,2.6,2.6,0,0,1-.63.55,3,3,0,0,1-.83.38,3.65,3.65,0,0,1-1,.13,3,3,0,0,1-1.9-.53,2,2,0,0,1-.68-1.64,2,2,0,0,1,.27-1.1,2.1,2.1,0,0,1,.68-.68,3.08,3.08,0,0,1,.92-.35,8.81,8.81,0,0,1,1-.15l.88-.08a5,5,0,0,0,1-.14,1.15,1.15,0,0,0,.53-.27.75.75,0,0,0,.23-.44,4.36,4.36,0,0,0,0-.68,1.4,1.4,0,0,0-.12-.58,1.3,1.3,0,0,0-.37-.48,1.86,1.86,0,0,0-.66-.33,3.53,3.53,0,0,0-1-.12,2.63,2.63,0,0,0-1.68.51,2,2,0,0,0-.69,1.54h-.57a2.54,2.54,0,0,1,.81-1.91,3.31,3.31,0,0,1,2.16-.64,3.12,3.12,0,0,1,2,.55,1.82,1.82,0,0,1,.64,1.43v4.82a1.33,1.33,0,0,0,.06.3.48.48,0,0,0,.15.22.51.51,0,0,0,.3.08,2.87,2.87,0,0,0,.42,0v.48a1.84,1.84,0,0,1-.47.06,1.4,1.4,0,0,1-.55-.09.73.73,0,0,1-.3-.24,1,1,0,0,1-.15-.35,2.94,2.94,0,0,1,0-.44Zm0-2.85a1.11,1.11,0,0,1-.64.35,8.09,8.09,0,0,1-.95.13l-1,.09c-.28,0-.56.08-.84.13a2.54,2.54,0,0,0-.76.28,1.55,1.55,0,0,0-.55.53,1.66,1.66,0,0,0-.21.88,1.5,1.5,0,0,0,.54,1.27,2.44,2.44,0,0,0,1.49.41,2.85,2.85,0,0,0,1.54-.36,2.71,2.71,0,0,0,.87-.8,2.42,2.42,0,0,0,.38-.89,3.42,3.42,0,0,0,.09-.58Z"/><path class="a" d="M380,115.34h.76v1.54H380Z"/><path class="a" d="M218.84,191.67h4.38a4.84,4.84,0,0,1,1.64.25,3,3,0,0,1,1.06.64,2.5,2.5,0,0,1,.57.91,3.16,3.16,0,0,1,.18,1,2.2,2.2,0,0,1-.16.84,2,2,0,0,1-.43.7,2.51,2.51,0,0,1-.68.52,2.63,2.63,0,0,1-.86.27l0,0a1.85,1.85,0,0,1,.51.09,2.82,2.82,0,0,1,1.61,1.23,2.45,2.45,0,0,1,.35,1.36,3,3,0,0,1-.28,1.31,2.66,2.66,0,0,1-.77,1,3.5,3.5,0,0,1-1.21.59,5.84,5.84,0,0,1-1.56.2h-4.38Zm4.38,5a3,3,0,0,0,2.08-.62,2.11,2.11,0,0,0,.69-1.64,2,2,0,0,0-.23-1,1.84,1.84,0,0,0-.61-.66,2.47,2.47,0,0,0-.88-.36,5.06,5.06,0,0,0-1.05-.1h-3.71v4.38Zm0,5.39a3.84,3.84,0,0,0,2.31-.62,2.2,2.2,0,0,0,.83-1.86,2.14,2.14,0,0,0-.29-1.16,2.09,2.09,0,0,0-.74-.71,2.83,2.83,0,0,0-1-.36,6,6,0,0,0-1.1-.1h-3.71V202Z"/><path class="a" d="M233.61,201.05h0a2.84,2.84,0,0,1-.4.66,2.89,2.89,0,0,1-.64.56,3.16,3.16,0,0,1-.85.39,3.8,3.8,0,0,1-1,.13,3.1,3.1,0,0,1-2-.54,2,2,0,0,1-.68-1.68,1.95,1.95,0,0,1,1-1.81,2.91,2.91,0,0,1,.93-.36,9.15,9.15,0,0,1,1-.15l.9-.08a5,5,0,0,0,1-.15,1.35,1.35,0,0,0,.55-.27.88.88,0,0,0,.23-.46,4.36,4.36,0,0,0,0-.68,1.46,1.46,0,0,0-.12-.6,1.36,1.36,0,0,0-.38-.49,2,2,0,0,0-.68-.34,3.63,3.63,0,0,0-1-.12,2.66,2.66,0,0,0-1.71.52,2.07,2.07,0,0,0-.71,1.58h-.58a2.61,2.61,0,0,1,.83-2,3.36,3.36,0,0,1,2.2-.65,3.19,3.19,0,0,1,2.08.56,1.86,1.86,0,0,1,.65,1.47v4.58c0,.11,0,.22,0,.33a1,1,0,0,0,.05.31.48.48,0,0,0,.15.22.48.48,0,0,0,.31.08,2.82,2.82,0,0,0,.43,0v.49a1.86,1.86,0,0,1-.48.06,1.46,1.46,0,0,1-.56-.09.7.7,0,0,1-.31-.25,1,1,0,0,1-.15-.36,3.09,3.09,0,0,1,0-.45Zm0-2.91a1.14,1.14,0,0,1-.66.35,8.05,8.05,0,0,1-1,.14l-1,.09c-.28,0-.57.07-.86.13a2.71,2.71,0,0,0-.77.28,1.64,1.64,0,0,0-.56.55,1.7,1.7,0,0,0-.21.89,1.52,1.52,0,0,0,.55,1.3,2.44,2.44,0,0,0,1.51.42,3,3,0,0,0,1.58-.36,2.76,2.76,0,0,0,.89-.83,2.33,2.33,0,0,0,.39-.9,3.64,3.64,0,0,0,.09-.59Z"/><path class="a" d="M246.09,202.61H236v-7.87h.58v7.36h4.16v-7.36h.58v7.36h4.15v-7.36h.58Z"/><path class="a" d="M252.09,194.74h.59V199l4.85-4.3h.84l-3.44,3.06,3.69,4.81h-.8l-3.35-4.36-1.79,1.51v2.85h-.59Z"/><path class="a" d="M259.86,196.54h0a2.84,2.84,0,0,1,.31-.64,2.64,2.64,0,0,1,.57-.65,3,3,0,0,1,.85-.5,3.09,3.09,0,0,1,1.14-.2,3.54,3.54,0,0,1,1.58.34,3.35,3.35,0,0,1,1.1.9,3.88,3.88,0,0,1,.65,1.32,5.48,5.48,0,0,1,.22,1.58,5.73,5.73,0,0,1-.22,1.65,3.61,3.61,0,0,1-.65,1.3,3.1,3.1,0,0,1-1.1.85,3.84,3.84,0,0,1-1.58.3,3.59,3.59,0,0,1-1.75-.42,2.57,2.57,0,0,1-1.12-1.4h0v4.46h-.57V194.74h.57Zm2.9,5.75a2.9,2.9,0,0,0,1.33-.29,2.79,2.79,0,0,0,.92-.78,3.53,3.53,0,0,0,.54-1.14,5.24,5.24,0,0,0,.18-1.39,5.45,5.45,0,0,0-.17-1.33,3.51,3.51,0,0,0-.53-1.16,2.6,2.6,0,0,0-.91-.83,2.73,2.73,0,0,0-1.36-.31,2.62,2.62,0,0,0-1.33.31,2.51,2.51,0,0,0-.9.81,3.32,3.32,0,0,0-.5,1.15,6.1,6.1,0,0,0-.15,1.36A6.58,6.58,0,0,0,260,200a3.39,3.39,0,0,0,.47,1.15,2.37,2.37,0,0,0,.89.8A2.94,2.94,0,0,0,262.76,202.29Z"/><path class="a" d="M267.89,198.75v.09a4.78,4.78,0,0,0,.18,1.32,3.08,3.08,0,0,0,.55,1.1,2.52,2.52,0,0,0,.9.75,3.09,3.09,0,0,0,3.14-.34,3.34,3.34,0,0,0,1-1.72h.58a3.56,3.56,0,0,1-1.13,2.11,3.93,3.93,0,0,1-3.81.42,3,3,0,0,1-1.09-.86,3.6,3.6,0,0,1-.65-1.28,5.89,5.89,0,0,1-.22-1.6,5.56,5.56,0,0,1,.23-1.59,3.86,3.86,0,0,1,.66-1.33,3.3,3.3,0,0,1,1.11-.92,3.4,3.4,0,0,1,1.57-.35,3.45,3.45,0,0,1,1.47.31,3,3,0,0,1,1.06.83,3.82,3.82,0,0,1,.65,1.23,4.79,4.79,0,0,1,.22,1.49v.18a1,1,0,0,0,0,.16Zm5.79-.5a4.79,4.79,0,0,0-.22-1.22,2.89,2.89,0,0,0-.54-1,2.73,2.73,0,0,0-.88-.7,2.58,2.58,0,0,0-1.17-.26,2.77,2.77,0,0,0-1.25.27,2.73,2.73,0,0,0-.9.7,3,3,0,0,0-.57,1,4.5,4.5,0,0,0-.25,1.2Z"/><path class="a" d="M275,202.61v2.47h-.59v-3h.94a9.31,9.31,0,0,0,.91-2.83,21,21,0,0,0,.25-3.38v-1.15h4.83v7.36h1v3h-.58v-2.47Zm5.75-7.37h-3.66v.66a23.18,23.18,0,0,1-.23,3.37,9.66,9.66,0,0,1-.89,2.83h4.78Z"/><path class="a" d="M289,195.53h0l-4.91,7.08h-.72v-7.87h.58v7.1h0l4.91-7.1h.73v7.87H289Z"/><path class="a" d="M294.14,202.61h-.58v-7.37h-3v-.5h6.56v.5h-3Z"/><path class="a" d="M303.76,198.67h-5.07v3.94h-.58v-7.87h.58v3.43h5.07v-3.43h.58v7.87h-.58Z"/><path class="a" d="M306.06,194.74h.58V198h3a2.49,2.49,0,0,1,1.79.61,2.15,2.15,0,0,1,.64,1.66,2.21,2.21,0,0,1-.66,1.7,2.53,2.53,0,0,1-1.8.61h-3.57Zm5.45,5.56A1.68,1.68,0,0,0,311,199a2,2,0,0,0-1.44-.48h-2.92v3.56h2.91a2,2,0,0,0,1.45-.47A1.73,1.73,0,0,0,311.51,200.3Zm1.9-5.56H314v7.87h-.58Z"/><path class="a" d="M321.36,195.53h0l-4.91,7.08h-.72v-7.87h.58v7.1h0l4.91-7.1h.73v7.87h-.58Zm-.46-3.95a2.25,2.25,0,0,1-.22.71,2.37,2.37,0,0,1-.45.59,2,2,0,0,1-.61.39,1.8,1.8,0,0,1-.73.15,2.2,2.2,0,0,1-1.45-.48,2,2,0,0,1-.69-1.36h.5a2,2,0,0,0,.28.66,1.6,1.6,0,0,0,.41.41,1.07,1.07,0,0,0,.46.21,2,2,0,0,0,.48,0,1.44,1.44,0,0,0,1-.36,1.67,1.67,0,0,0,.51-1Z"/><path class="a" d="M333.84,197.17a2.46,2.46,0,0,0-.26-.92,2.16,2.16,0,0,0-.58-.66,2.6,2.6,0,0,0-.82-.39,3.27,3.27,0,0,0-1-.14,2.71,2.71,0,0,0-1.3.3,2.81,2.81,0,0,0-.95.79,3.74,3.74,0,0,0-.59,1.14,4.42,4.42,0,0,0-.19,1.31,5.69,5.69,0,0,0,.18,1.47,3.2,3.2,0,0,0,.57,1.17,2.55,2.55,0,0,0,1,.77,2.9,2.9,0,0,0,1.33.28,2.64,2.64,0,0,0,1-.19,2.74,2.74,0,0,0,.82-.5,2.63,2.63,0,0,0,.59-.77,3,3,0,0,0,.31-1h.58a3.66,3.66,0,0,1-.38,1.25,3.11,3.11,0,0,1-.74.93,3,3,0,0,1-1,.57,3.38,3.38,0,0,1-1.19.2,3.62,3.62,0,0,1-1.65-.34,3.18,3.18,0,0,1-1.12-.93,4,4,0,0,1-.64-1.34,5.85,5.85,0,0,1-.21-1.58,5,5,0,0,1,.24-1.56,3.74,3.74,0,0,1,.7-1.29,3.15,3.15,0,0,1,1.13-.87,3.5,3.5,0,0,1,1.55-.33,4.58,4.58,0,0,1,1.2.16,3.21,3.21,0,0,1,1,.49,2.47,2.47,0,0,1,.71.82,2.92,2.92,0,0,1,.33,1.15Z"/><path class="a" d="M335.9,194.74h.58V199l4.85-4.3h.85l-3.45,3.06,3.69,4.81h-.8l-3.35-4.36-1.79,1.51v2.85h-.58Z"/><path class="a" d="M342.59,198.67a5.08,5.08,0,0,1,.24-1.58,3.91,3.91,0,0,1,.69-1.31,3.35,3.35,0,0,1,1.14-.9,3.78,3.78,0,0,1,3.09,0,3.22,3.22,0,0,1,1.13.9,3.93,3.93,0,0,1,.7,1.31,5.08,5.08,0,0,1,.24,1.58,5.2,5.2,0,0,1-.24,1.6,3.93,3.93,0,0,1-.7,1.31,3.17,3.17,0,0,1-1.13.88,3.78,3.78,0,0,1-3.09,0,3.3,3.3,0,0,1-1.14-.88,3.91,3.91,0,0,1-.69-1.31A5.2,5.2,0,0,1,342.59,198.67Zm.58,0a4.71,4.71,0,0,0,.2,1.36,3.83,3.83,0,0,0,.58,1.16,2.94,2.94,0,0,0,.95.8,2.74,2.74,0,0,0,1.3.3,2.78,2.78,0,0,0,1.31-.3,2.91,2.91,0,0,0,.94-.8A3.85,3.85,0,0,0,349,200a4.71,4.71,0,0,0,.2-1.36,4.64,4.64,0,0,0-.2-1.35,3.73,3.73,0,0,0-.59-1.16,2.91,2.91,0,0,0-.94-.8,2.78,2.78,0,0,0-1.31-.3,2.74,2.74,0,0,0-1.3.3,2.94,2.94,0,0,0-.95.8,3.71,3.71,0,0,0-.58,1.16A4.64,4.64,0,0,0,343.17,198.67Z"/><path class="a" d="M351.89,196.54h0a3.24,3.24,0,0,1,.3-.64,3.13,3.13,0,0,1,.57-.65,3.34,3.34,0,0,1,.85-.5,3.19,3.19,0,0,1,1.15-.2,3.49,3.49,0,0,1,1.57.34,3.29,3.29,0,0,1,1.11.9,3.88,3.88,0,0,1,.65,1.32,5.85,5.85,0,0,1,.21,1.58,6.11,6.11,0,0,1-.21,1.65,3.61,3.61,0,0,1-.65,1.3,3.05,3.05,0,0,1-1.11.85,3.79,3.79,0,0,1-1.57.3,3.57,3.57,0,0,1-1.75-.42,2.53,2.53,0,0,1-1.12-1.4h0v4.46h-.57V194.74h.57Zm2.9,5.75a2.93,2.93,0,0,0,1.33-.29,2.79,2.79,0,0,0,.92-.78,3.53,3.53,0,0,0,.54-1.14,5.69,5.69,0,0,0,.17-1.39,5,5,0,0,0-.17-1.33,3.49,3.49,0,0,0-.52-1.16,2.69,2.69,0,0,0-.91-.83,2.76,2.76,0,0,0-1.36-.31,2.68,2.68,0,0,0-1.34.31,2.51,2.51,0,0,0-.9.81,3.31,3.31,0,0,0-.49,1.15,5.56,5.56,0,0,0-.16,1.36A6.57,6.57,0,0,0,352,200a3.2,3.2,0,0,0,.47,1.15,2.37,2.37,0,0,0,.89.8A2.92,2.92,0,0,0,354.79,202.29Z"/><path class="a" d="M365.35,195.53h0l-4.91,7.08h-.72v-7.87h.58v7.1h0l4.9-7.1h.73v7.87h-.58Z"/><path class="a" d="M373.3,198.67h-5.07v3.94h-.58v-7.87h.58v3.43h5.07v-3.43h.58v7.87h-.58Z"/><path class="a" d="M376.18,202.61h-.58v-7.87h5.18v.5h-4.6Z"/><path class="a" d="M316.54,141.17H317l2.4,5,2.27-5h.44l-2.9,6.22a1.15,1.15,0,0,1-1.08.75,1.39,1.39,0,0,1-.4-.06,1.06,1.06,0,0,1-.32-.15v-.41a1.3,1.3,0,0,0,.33.19,1.4,1.4,0,0,0,.4.07.66.66,0,0,0,.46-.16,1.17,1.17,0,0,0,.32-.44l.28-.61Z"/><path class="a" d="M325.15,148v-4.9h2.25a1.68,1.68,0,0,1,1.1.31,1.1,1.1,0,0,1,.39.89,1,1,0,0,1-.25.72,1.18,1.18,0,0,1-.66.35v0a1.52,1.52,0,0,1,.8.4,1.35,1.35,0,0,1-.17,1.85,2,2,0,0,1-1.26.36Zm.36-4.59v1.84h1.85a1.34,1.34,0,0,0,.85-.24.79.79,0,0,0,.31-.67.83.83,0,0,0-.3-.69,1.32,1.32,0,0,0-.85-.24Zm1.83,4.27a1.62,1.62,0,0,0,1-.27.92.92,0,0,0,.35-.79,1,1,0,0,0-.33-.77,1.48,1.48,0,0,0-1-.29h-1.87v2.12Z"/><path class="a" d="M333.16,147h0a1.51,1.51,0,0,1-.25.42,1.71,1.71,0,0,1-.4.35,1.75,1.75,0,0,1-.52.23,2.27,2.27,0,0,1-.65.09,1.87,1.87,0,0,1-1.21-.34,1.49,1.49,0,0,1-.26-1.74,1.26,1.26,0,0,1,.43-.43,2,2,0,0,1,.58-.23l.62-.09.56,0a3.62,3.62,0,0,0,.62-.09A.83.83,0,0,0,333,145a.53.53,0,0,0,.14-.28,2.63,2.63,0,0,0,0-.43.87.87,0,0,0-.08-.37.79.79,0,0,0-.24-.31,1.18,1.18,0,0,0-.42-.21,2.28,2.28,0,0,0-.63-.07,1.63,1.63,0,0,0-1.06.32,1.26,1.26,0,0,0-.44,1h-.37a1.61,1.61,0,0,1,.52-1.21,2.09,2.09,0,0,1,1.37-.41,2,2,0,0,1,1.3.35,1.16,1.16,0,0,1,.4.91v2.85a1.48,1.48,0,0,0,0,.21.58.58,0,0,0,0,.19.34.34,0,0,0,.09.14.36.36,0,0,0,.19,0l.27,0v.31a1.35,1.35,0,0,1-.29,0,.82.82,0,0,1-.35-.06.53.53,0,0,1-.2-.15.79.79,0,0,1-.09-.23,2.3,2.3,0,0,1,0-.28Zm0-1.81a.71.71,0,0,1-.41.22,4.77,4.77,0,0,1-.6.09l-.61.05a5.07,5.07,0,0,0-.54.09,1.44,1.44,0,0,0-.48.17.94.94,0,0,0-.48.9.93.93,0,0,0,.34.8,1.51,1.51,0,0,0,.95.27,1.84,1.84,0,0,0,1-.23,1.71,1.71,0,0,0,.55-.51,1.66,1.66,0,0,0,.25-.57,3.12,3.12,0,0,0,.05-.36Z"/><path class="a" d="M338.37,144.59a1.46,1.46,0,0,0-.17-.57,1.19,1.19,0,0,0-.36-.41,1.73,1.73,0,0,0-.51-.25,2.07,2.07,0,0,0-.62-.08,1.71,1.71,0,0,0-1.41.68,2.32,2.32,0,0,0-.36.7,2.86,2.86,0,0,0-.12.82,3.72,3.72,0,0,0,.11.91,2.25,2.25,0,0,0,.35.73,1.56,1.56,0,0,0,.6.48,1.78,1.78,0,0,0,.83.18,1.64,1.64,0,0,0,.63-.12,1.66,1.66,0,0,0,.51-.31,1.72,1.72,0,0,0,.37-.48,1.87,1.87,0,0,0,.19-.62h.37a2.37,2.37,0,0,1-.24.78,2,2,0,0,1-.46.58,2.19,2.19,0,0,1-.63.36,2.5,2.5,0,0,1-1.77-.09,2.2,2.2,0,0,1-.7-.58,2.51,2.51,0,0,1-.4-.84,3.93,3.93,0,0,1-.13-1,3,3,0,0,1,.15-1,2.44,2.44,0,0,1,.44-.81,2.09,2.09,0,0,1,.7-.54,2.27,2.27,0,0,1,1-.2,2.55,2.55,0,0,1,.74.1,2,2,0,0,1,.62.3,1.58,1.58,0,0,1,.45.51,2,2,0,0,1,.21.72Z"/><path class="a" d="M342.28,148v-4.9h2.25a1.69,1.69,0,0,1,1.11.31,1.09,1.09,0,0,1,.38.89,1,1,0,0,1-.24.72,1.18,1.18,0,0,1-.66.35v0a1.49,1.49,0,0,1,.79.4,1.13,1.13,0,0,1,.29.84,1.2,1.2,0,0,1-.45,1,2,2,0,0,1-1.26.36Zm.37-4.59v1.84h1.85a1.36,1.36,0,0,0,.85-.24.79.79,0,0,0,.31-.67.83.83,0,0,0-.3-.69,1.34,1.34,0,0,0-.85-.24Zm1.83,4.27a1.64,1.64,0,0,0,1-.27.94.94,0,0,0,.35-.79,1,1,0,0,0-.33-.77,1.52,1.52,0,0,0-1-.29h-1.87v2.12Z"/><path class="a" d="M347,143.08h.37v2h1.87a1.58,1.58,0,0,1,1.12.38,1.35,1.35,0,0,1,.4,1,1.36,1.36,0,0,1-.41,1.05,1.57,1.57,0,0,1-1.13.39H347Zm3.4,3.46a1.06,1.06,0,0,0-.32-.8,1.24,1.24,0,0,0-.89-.3h-1.82v2.22h1.81a1.3,1.3,0,0,0,.9-.29A1.1,1.1,0,0,0,350.44,146.54Zm1.18-3.46H352V148h-.36Z"/><path class="a" d="M356.74,144.59a1.31,1.31,0,0,0-.17-.57,1.27,1.27,0,0,0-.35-.41,1.73,1.73,0,0,0-.51-.25,2.18,2.18,0,0,0-.63-.08,1.67,1.67,0,0,0-1.4.68,2.11,2.11,0,0,0-.36.7,2.87,2.87,0,0,0-.13.82,3.28,3.28,0,0,0,.12.91,1.91,1.91,0,0,0,.35.73,1.61,1.61,0,0,0,.59.48,1.81,1.81,0,0,0,.83.18,1.69,1.69,0,0,0,.64-.12,1.66,1.66,0,0,0,.51-.31,1.92,1.92,0,0,0,.37-.48,2.13,2.13,0,0,0,.19-.62h.36a2.37,2.37,0,0,1-.24.78,1.88,1.88,0,0,1-.46.58,2,2,0,0,1-.62.36,2.36,2.36,0,0,1-.75.12,2.26,2.26,0,0,1-1-.21,2,2,0,0,1-.7-.58,2.51,2.51,0,0,1-.4-.84,3.51,3.51,0,0,1-.13-1,3,3,0,0,1,.15-1,2.42,2.42,0,0,1,.43-.81,2.13,2.13,0,0,1,.71-.54,2.26,2.26,0,0,1,1-.2,2.57,2.57,0,0,1,.75.1,2.1,2.1,0,0,1,.62.3,1.55,1.55,0,0,1,.44.51,1.68,1.68,0,0,1,.21.72Z"/><path class="a" d="M357.77,145.53a3.21,3.21,0,0,1,.15-1,2.57,2.57,0,0,1,.43-.82,2,2,0,0,1,.71-.55,2.3,2.3,0,0,1,1.92,0,2,2,0,0,1,.71.55,2.38,2.38,0,0,1,.43.82,3.34,3.34,0,0,1,0,2,2.25,2.25,0,0,1-.43.81,2.06,2.06,0,0,1-.71.56,2.4,2.4,0,0,1-1.92,0,2.06,2.06,0,0,1-.71-.56,2.42,2.42,0,0,1-.43-.81A3.21,3.21,0,0,1,357.77,145.53Zm.36,0a2.63,2.63,0,0,0,.13.84,2.21,2.21,0,0,0,.36.72,1.77,1.77,0,0,0,.59.5,1.79,1.79,0,0,0,.81.19,1.73,1.73,0,0,0,.81-.19,1.68,1.68,0,0,0,.59-.5,2.45,2.45,0,0,0,.37-.72,3,3,0,0,0,0-1.69,2.45,2.45,0,0,0-.37-.72,1.68,1.68,0,0,0-.59-.5,1.73,1.73,0,0,0-.81-.18,1.67,1.67,0,0,0-1.4.68,2.21,2.21,0,0,0-.36.72A2.65,2.65,0,0,0,358.13,145.53Z"/><path class="a" d="M363.14,143.08h.36v2.67l3-2.67h.52L364.9,145l2.3,3h-.49l-2.09-2.72-1.12.94V148h-.36Z"/><path class="a" d="M371.05,143.57h0L368,148h-.44v-4.9h.36v4.42h0l3-4.42h.46V148h-.37Z"/><path class="a" d="M376,143.57h0L372.93,148h-.44v-4.9h.36v4.42h0l3.05-4.42h.46V148H376Zm-.28-2.46a1.41,1.41,0,0,1-.14.44,1.44,1.44,0,0,1-.28.37,1.36,1.36,0,0,1-.38.24,1.13,1.13,0,0,1-.45.09,1.39,1.39,0,0,1-.91-.3,1.27,1.27,0,0,1-.43-.84h.32a1.1,1.1,0,0,0,.17.41,1.25,1.25,0,0,0,.25.26,1.08,1.08,0,0,0,.29.13l.3,0a.9.9,0,0,0,.62-.23,1,1,0,0,0,.32-.6Z"/><path class="a" d="M320.88,156a1.52,1.52,0,0,0-.17-.57,1.29,1.29,0,0,0-.36-.41,1.73,1.73,0,0,0-.51-.25,2.45,2.45,0,0,0-.62-.08,1.73,1.73,0,0,0-.81.18,1.83,1.83,0,0,0-.6.5,2.37,2.37,0,0,0-.36.71,2.74,2.74,0,0,0-.12.81,3.8,3.8,0,0,0,.11.92,2.17,2.17,0,0,0,.36.73,1.64,1.64,0,0,0,.59.48,1.92,1.92,0,0,0,.83.17,1.81,1.81,0,0,0,.63-.11,2,2,0,0,0,.52-.32,1.59,1.59,0,0,0,.36-.48,1.8,1.8,0,0,0,.19-.62h.37a2.36,2.36,0,0,1-.24.79,1.86,1.86,0,0,1-.46.57,1.79,1.79,0,0,1-.63.36,2.25,2.25,0,0,1-.74.12,2.31,2.31,0,0,1-1-.21,2.07,2.07,0,0,1-.7-.58,2.56,2.56,0,0,1-.4-.83,4.07,4.07,0,0,1-.12-1,3.39,3.39,0,0,1,.14-1,2.39,2.39,0,0,1,.44-.8,2.11,2.11,0,0,1,.7-.55,2.27,2.27,0,0,1,1-.2,2.94,2.94,0,0,1,.74.1,2,2,0,0,1,.62.3,1.69,1.69,0,0,1,.45.51,2,2,0,0,1,.21.72Z"/><path class="a" d="M322.15,154.52h.37v2.68l3-2.68h.52l-2.14,1.91,2.3,3h-.5l-2.09-2.72-1.11,1v1.77h-.37Z"/><path class="a" d="M326.32,157a3.21,3.21,0,0,1,.15-1,2.42,2.42,0,0,1,.43-.81,2.06,2.06,0,0,1,.71-.56,2.3,2.3,0,0,1,1.92,0,2.06,2.06,0,0,1,.71.56,2.25,2.25,0,0,1,.43.81,3.34,3.34,0,0,1,0,2,2.38,2.38,0,0,1-.43.82,2.15,2.15,0,0,1-.71.55,2.4,2.4,0,0,1-1.92,0,2.15,2.15,0,0,1-.71-.55,2.57,2.57,0,0,1-.43-.82A3.21,3.21,0,0,1,326.32,157Zm.36,0a2.63,2.63,0,0,0,.13.84,2.21,2.21,0,0,0,.36.72,1.77,1.77,0,0,0,.59.5,1.67,1.67,0,0,0,.81.19,1.62,1.62,0,0,0,.81-.19,1.68,1.68,0,0,0,.59-.5,2.45,2.45,0,0,0,.37-.72,2.94,2.94,0,0,0,.12-.84,3.06,3.06,0,0,0-.12-.85,2.52,2.52,0,0,0-.37-.71,1.82,1.82,0,0,0-.59-.51,1.73,1.73,0,0,0-.81-.18,1.79,1.79,0,0,0-.81.18,1.93,1.93,0,0,0-.59.51,2.27,2.27,0,0,0-.36.71A2.74,2.74,0,0,0,326.68,157Z"/><path class="a" d="M332.11,155.64h0a2,2,0,0,1,.19-.4,1.78,1.78,0,0,1,.88-.71,2,2,0,0,1,.72-.13,2.17,2.17,0,0,1,1,.21,2,2,0,0,1,.68.57,2.18,2.18,0,0,1,.41.82,3.51,3.51,0,0,1,.13,1,3.72,3.72,0,0,1-.13,1,2.09,2.09,0,0,1-.41.8,1.77,1.77,0,0,1-.68.53,2.32,2.32,0,0,1-1,.19,2.15,2.15,0,0,1-1.09-.26,1.59,1.59,0,0,1-.7-.87h0v2.77h-.35v-6.65h.35Zm1.81,3.58a1.74,1.74,0,0,0,.82-.18,1.54,1.54,0,0,0,.58-.49,2,2,0,0,0,.33-.71,3.43,3.43,0,0,0,.11-.86,3.31,3.31,0,0,0-.1-.83,2.16,2.16,0,0,0-.33-.72,1.78,1.78,0,0,0-.57-.52,1.68,1.68,0,0,0-2.23.51,2,2,0,0,0-.32.71,4,4,0,0,0-.09.85,4.6,4.6,0,0,0,.08.84,2.11,2.11,0,0,0,.3.72,1.46,1.46,0,0,0,.55.49A1.75,1.75,0,0,0,333.92,159.22Z"/><path class="a" d="M340.49,155h0l-3.06,4.41H337v-4.9h.36v4.42h0l3.06-4.42h.45v4.9h-.36Z"/><path class="a" d="M345.44,157h-3.16v2.45h-.36v-4.9h.36v2.13h3.16v-2.13h.36v4.9h-.36Z"/><path class="a" d="M347.23,159.42h-.36v-4.9h3.22v.31h-2.86Z"/><path class="a" d="M350.17,157a3.21,3.21,0,0,1,.15-1,2.42,2.42,0,0,1,.43-.81,2.06,2.06,0,0,1,.71-.56,2.3,2.3,0,0,1,1.92,0,2.06,2.06,0,0,1,.71.56,2.42,2.42,0,0,1,.43.81,3.34,3.34,0,0,1,0,2,2.57,2.57,0,0,1-.43.82,2.15,2.15,0,0,1-.71.55,2.4,2.4,0,0,1-1.92,0,2.15,2.15,0,0,1-.71-.55,2.57,2.57,0,0,1-.43-.82A3.21,3.21,0,0,1,350.17,157Zm.36,0a2.63,2.63,0,0,0,.13.84,2.21,2.21,0,0,0,.36.72,1.71,1.71,0,0,0,1.4.69,1.62,1.62,0,0,0,.81-.19,1.68,1.68,0,0,0,.59-.5,2.45,2.45,0,0,0,.37-.72,2.94,2.94,0,0,0,.12-.84,3.06,3.06,0,0,0-.12-.85,2.52,2.52,0,0,0-.37-.71,1.82,1.82,0,0,0-.59-.51,1.73,1.73,0,0,0-.81-.18,1.79,1.79,0,0,0-.81.18,1.82,1.82,0,0,0-.59.51,2.27,2.27,0,0,0-.36.71A2.74,2.74,0,0,0,350.53,157Z"/><path class="a" d="M355.53,159.42v-4.9h2.25a1.67,1.67,0,0,1,1.11.32,1.09,1.09,0,0,1,.38.88,1,1,0,0,1-.25.72,1.22,1.22,0,0,1-.66.36v0a1.44,1.44,0,0,1,.8.39,1.18,1.18,0,0,1,.29.85,1.21,1.21,0,0,1-.45,1,2.08,2.08,0,0,1-1.27.35Zm.36-4.59v1.84h1.85a1.46,1.46,0,0,0,.86-.23.83.83,0,0,0,.31-.67.84.84,0,0,0-.3-.7,1.35,1.35,0,0,0-.86-.24Zm1.83,4.28a1.62,1.62,0,0,0,1-.28.92.92,0,0,0,.36-.78,1,1,0,0,0-.34-.78,1.48,1.48,0,0,0-1-.28h-1.87v2.12Z"/><path class="a" d="M360.29,154.52h.36v2h1.88a1.5,1.5,0,0,1,1.11.38,1.33,1.33,0,0,1,.4,1,1.36,1.36,0,0,1-.41,1.06,1.58,1.58,0,0,1-1.12.38h-2.22Zm3.39,3.46a1.05,1.05,0,0,0-.31-.8,1.25,1.25,0,0,0-.9-.3h-1.82v2.23h1.81a1.26,1.26,0,0,0,.91-.3A1.08,1.08,0,0,0,363.68,158Zm1.19-3.46h.36v4.9h-.36Z"/><path class="a" d="M369.81,155h0l-3.06,4.41h-.44v-4.9h.36v4.42h0l3.05-4.42h.46v4.9h-.37Zm-.28-2.46a1.33,1.33,0,0,1-.14.44,1.44,1.44,0,0,1-.28.37,1.39,1.39,0,0,1-.38.25,1.13,1.13,0,0,1-.45.09,1.4,1.4,0,0,1-.91-.3,1.27,1.27,0,0,1-.43-.85h.32a1.09,1.09,0,0,0,.42.67.74.74,0,0,0,.29.13l.3,0a.84.84,0,0,0,.62-.23,1,1,0,0,0,.32-.6Z"/><path class="a" d="M321.46,168.47a3.37,3.37,0,0,1-.16,1,2.38,2.38,0,0,1-.46.79,1.94,1.94,0,0,1-.69.51,2.21,2.21,0,0,1-.91.18,2.11,2.11,0,0,1-.92-.2,1.94,1.94,0,0,1-.69-.55,2.35,2.35,0,0,1-.43-.85,3.44,3.44,0,0,1-.16-1.1,9.08,9.08,0,0,1,.12-1.58,3.41,3.41,0,0,1,.39-1.13,2,2,0,0,1,.68-.71,2.37,2.37,0,0,1,1-.34l.8-.1a2.1,2.1,0,0,0,.54-.13.41.41,0,0,0,.19-.24h.42a1.63,1.63,0,0,1-.1.29.54.54,0,0,1-.19.21,1,1,0,0,1-.31.14l-.48.09-.79.1a2.47,2.47,0,0,0-.78.21,1.53,1.53,0,0,0-.55.46,2.34,2.34,0,0,0-.38.74,6.07,6.07,0,0,0-.22,1h0a2.06,2.06,0,0,1,.81-1,2.14,2.14,0,0,1,1.1-.3,2.2,2.2,0,0,1,.86.17,1.89,1.89,0,0,1,.69.49,2.16,2.16,0,0,1,.44.77A3,3,0,0,1,321.46,168.47Zm-.37,0a2.71,2.71,0,0,0-.13-.88,1.92,1.92,0,0,0-.38-.67,1.69,1.69,0,0,0-.57-.42,1.66,1.66,0,0,0-.73-.16,1.82,1.82,0,0,0-1.33.57,2,2,0,0,0-.4.66,2.35,2.35,0,0,0-.15.86,2.88,2.88,0,0,0,.14.9,2.14,2.14,0,0,0,.38.7,1.92,1.92,0,0,0,.59.47,1.71,1.71,0,0,0,.75.16,1.78,1.78,0,0,0,.74-.15,1.75,1.75,0,0,0,.58-.44,2.28,2.28,0,0,0,.38-.69A2.86,2.86,0,0,0,321.09,168.47Z"/><path class="a" d="M325.56,169.89h0a1.66,1.66,0,0,1-.25.42,1.83,1.83,0,0,1-.39.34,2.32,2.32,0,0,1-.53.24,2.27,2.27,0,0,1-.65.09,1.87,1.87,0,0,1-1.21-.34,1.24,1.24,0,0,1-.43-1,1.28,1.28,0,0,1,.17-.7,1.36,1.36,0,0,1,.43-.43,2.25,2.25,0,0,1,.58-.22l.62-.09.56-.05a3.62,3.62,0,0,0,.62-.09.83.83,0,0,0,.34-.17.56.56,0,0,0,.14-.29,2.46,2.46,0,0,0,0-.43,1,1,0,0,0-.08-.37.84.84,0,0,0-.24-.3,1.18,1.18,0,0,0-.42-.21,2.25,2.25,0,0,0-.63-.08,1.64,1.64,0,0,0-1.06.33,1.25,1.25,0,0,0-.44,1h-.37a1.63,1.63,0,0,1,.52-1.22,2.09,2.09,0,0,1,1.37-.4,2,2,0,0,1,1.3.35,1.16,1.16,0,0,1,.4.91V170a1.48,1.48,0,0,0,0,.21.58.58,0,0,0,0,.19.34.34,0,0,0,.09.14.36.36,0,0,0,.19.05l.27,0v.31a1.36,1.36,0,0,1-.29,0,1,1,0,0,1-.35-.05.46.46,0,0,1-.2-.16.63.63,0,0,1-.09-.22,2.46,2.46,0,0,1,0-.28Zm0-1.81a.71.71,0,0,1-.41.22,3.49,3.49,0,0,1-.6.08l-.61.06-.54.08a1.71,1.71,0,0,0-.48.18,1,1,0,0,0-.35.34,1,1,0,0,0-.13.55.94.94,0,0,0,.34.81,1.51,1.51,0,0,0,1,.26,1.85,1.85,0,0,0,1-.22,1.75,1.75,0,0,0,.8-1.08,2.94,2.94,0,0,0,.05-.37Z"/><path class="a" d="M331,166v4.9h-.36v-4.58h-2.29l-.1,2.76a5.15,5.15,0,0,1-.11.92,1.61,1.61,0,0,1-.25.59.88.88,0,0,1-.35.32,1.16,1.16,0,0,1-.47.09,1.26,1.26,0,0,1-.51-.11v-.35a.69.69,0,0,0,.25.09.93.93,0,0,0,.24,0,.64.64,0,0,0,.34-.09.65.65,0,0,0,.26-.26,1.76,1.76,0,0,0,.16-.49,5.08,5.08,0,0,0,.07-.77l.12-3Z"/><path class="a" d="M336,166v4.9h-.36v-4.58h-2.29l-.11,2.76a4.37,4.37,0,0,1-.11.92,1.81,1.81,0,0,1-.24.59.84.84,0,0,1-.36.32,1.11,1.11,0,0,1-.46.09,1.23,1.23,0,0,1-.51-.11v-.35a.72.72,0,0,0,.24.09,1,1,0,0,0,.25,0,.64.64,0,0,0,.34-.09.63.63,0,0,0,.25-.26,1.75,1.75,0,0,0,.17-.49,6.82,6.82,0,0,0,.07-.77l.12-3Z"/><path class="b" d="M163.27,205H65.66A10.67,10.67,0,0,1,55,194.38V149.13a10.67,10.67,0,0,1,10.66-10.66h97.61a10.67,10.67,0,0,1,10.66,10.66v8.79h7.48v27.67h-7.48v8.79A10.67,10.67,0,0,1,163.27,205Zm-97.61-64a8,8,0,0,0-8,8v45.25a8,8,0,0,0,8,8h97.61a8,8,0,0,0,8-8V183h7.48V160.53h-7.48v-11.4a8,8,0,0,0-8-8Z"/><rect class="c" x="104.37" y="143.7" width="18.98" height="56.1"/><rect class="c" x="81.46" y="143.7" width="18.98" height="56.1"/><rect class="c" x="127.27" y="143.7" width="19.54" height="56.1"/><path class="c" d="M77.53,143.7H65.66a5.43,5.43,0,0,0-5.42,5.43v45.25a5.42,5.42,0,0,0,5.42,5.42H77.53Z"/><path class="d" d="M409.25,233.49H7.75A7.75,7.75,0,0,1,0,225.75V7.75A7.75,7.75,0,0,1,7.75,0h401.5A7.76,7.76,0,0,1,417,7.75v218A7.75,7.75,0,0,1,409.25,233.49ZM7.75,6A1.75,1.75,0,0,0,6,7.75v218a1.74,1.74,0,0,0,1.75,1.74h401.5a1.74,1.74,0,0,0,1.75-1.74V7.75A1.75,1.75,0,0,0,409.25,6Z"/></svg>