<svg xmlns="http://www.w3.org/2000/svg" viewBox="0 0 198.77 198.77"><defs><style>.a{fill:#fbc83e;}.b{fill:#353535;}.c{fill:#ff5050;}.d{fill:none;stroke:#ff5050;stroke-linecap:round;stroke-miterlimit:10;stroke-width:11px;}</style></defs><path class="a" d="M99.38,198.77a99.39,99.39,0,1,1,99.39-99.39A99.49,99.49,0,0,1,99.38,198.77Zm0-187.42a88,88,0,1,0,88,88A88.13,88.13,0,0,0,99.38,11.35Z"/><path class="b" d="M65,95.64a6.24,6.24,0,0,1-2.62.48,4.65,4.65,0,0,1-4.92-5,5,5,0,0,1,5.2-5.22,5.45,5.45,0,0,1,2.36.44l-.31,1a4.64,4.64,0,0,0-2-.41c-2.33,0-3.88,1.49-3.88,4.1,0,2.44,1.4,4,3.82,4a5.16,5.16,0,0,0,2.1-.41Z"/><path class="b" d="M66.7,88.83l1.56,4.22c.17.47.34,1,.46,1.46h0c.13-.43.28-1,.46-1.49l1.41-4.19H72l-2,5.09c-.93,2.45-1.56,3.7-2.45,4.47a3.57,3.57,0,0,1-1.59.84l-.33-1.09a3.51,3.51,0,0,0,1.14-.64,4,4,0,0,0,1.09-1.44,1,1,0,0,0,.1-.31,1.06,1.06,0,0,0-.09-.34l-2.64-6.58Z"/><path class="b" d="M73.18,88.83h1.59l1.3,3.6c.17.53.48,1.4.65,2h0c.16-.53.56-1.67.84-2.45l1.15-3.11h1.61l.5,7.14H79.61l-.16-3.41c0-.77-.11-1.68-.14-2.55h0c-.19.65-.38,1.22-.78,2.31l-1.37,3.6h-1L74.9,92.4c-.22-.68-.53-1.71-.71-2.38h-.06c0,.84-.07,1.79-.11,2.57L73.84,96h-1.2Z"/><path class="b" d="M82.6,88.83h1.6l1.29,3.6c.18.53.49,1.4.65,2h0c.16-.53.56-1.67.84-2.45l1.16-3.11h1.6l.5,7.14H89l-.17-3.41c0-.77-.1-1.68-.13-2.55h0c-.2.65-.39,1.22-.79,2.31l-1.37,3.6H85.6L84.33,92.4c-.22-.68-.53-1.71-.71-2.38h-.06c0,.84-.07,1.79-.12,2.57L83.27,96h-1.2Z"/><path class="b" d="M95.91,96l-.1-.9h0a2.65,2.65,0,0,1-2.18,1.06,2,2,0,0,1-2.19-2c0-1.73,1.54-2.67,4.3-2.66v-.14a1.48,1.48,0,0,0-1.63-1.66,3.57,3.57,0,0,0-1.85.53l-.3-.85a4.48,4.48,0,0,1,2.35-.64c2.18,0,2.71,1.49,2.71,2.93v2.67A9.9,9.9,0,0,0,97.09,96Zm-.19-3.65c-1.42,0-3,.23-3,1.61a1.15,1.15,0,0,0,1.23,1.24A1.76,1.76,0,0,0,95.64,94a1.25,1.25,0,0,0,.08-.42Z"/><path class="b" d="M103.47,88.83v3.1h.32l2.68-3.1h1.58l-3.11,3.23c1.15.12,1.84.88,2.4,2.17a14.41,14.41,0,0,0,.77,1.74h-1.36a9.59,9.59,0,0,1-.66-1.46,2.32,2.32,0,0,0-2.36-1.68h-.26V96h-1.28V88.83Z"/><path class="b" d="M109.26,91.16c0-.92,0-1.65-.06-2.33h1.16l.06,1.22h0A2.82,2.82,0,0,1,113,88.66c1.73,0,3,1.47,3,3.63,0,2.57-1.57,3.84-3.25,3.84a2.51,2.51,0,0,1-2.2-1.12h0v3.88h-1.28Zm1.28,1.9a2.86,2.86,0,0,0,.06.53,2,2,0,0,0,2,1.52c1.37,0,2.17-1.12,2.17-2.76,0-1.43-.76-2.65-2.13-2.65a2.07,2.07,0,0,0-2,1.61,2.26,2.26,0,0,0-.09.53Z"/><path class="b" d="M118.37,92.63a2.29,2.29,0,0,0,2.45,2.48,4.66,4.66,0,0,0,2-.37l.22.93a5.71,5.71,0,0,1-2.37.45,3.32,3.32,0,0,1-3.52-3.6c0-2.16,1.27-3.86,3.35-3.86,2.34,0,3,2.06,3,3.37a3.84,3.84,0,0,1,0,.6Zm3.81-.93a1.85,1.85,0,0,0-1.8-2.11,2.15,2.15,0,0,0-2,2.11Z"/><path class="b" d="M130.62,88.83V95l.74,0-.08,3.23h-1l0-2.27h-5l-.06,2.27h-1L124.13,95l.6,0a5.34,5.34,0,0,0,.71-1.46,9.38,9.38,0,0,0,.41-2.84V88.83ZM127,91a9.32,9.32,0,0,1-.37,2.65,6.42,6.42,0,0,1-.57,1.33h3.29V89.81H127Z"/><path class="b" d="M134.1,88.83v3c0,1.13,0,1.84-.07,2.86h0c.43-.87.68-1.37,1.15-2.19l2.23-3.69H139V96h-1.24v-3c0-1.16,0-1.77.09-2.92h0c-.45.92-.76,1.49-1.18,2.21-.68,1.11-1.46,2.48-2.22,3.74h-1.49V88.83Z"/><path class="b" d="M145.86,88.83v1h-2.23V96h-1.28V89.86h-2.23v-1Z"/><path class="b" d="M150.84,96l-.1-.9h0a2.67,2.67,0,0,1-2.19,1.06,2,2,0,0,1-2.18-2c0-1.73,1.53-2.67,4.29-2.66v-.14A1.48,1.48,0,0,0,149,89.62a3.58,3.58,0,0,0-1.86.53l-.3-.85a4.48,4.48,0,0,1,2.35-.64c2.18,0,2.72,1.49,2.72,2.93v2.67A10,10,0,0,0,152,96Zm-.19-3.65c-1.42,0-3,.23-3,1.61a1.15,1.15,0,0,0,1.22,1.24A1.79,1.79,0,0,0,150.58,94a1.54,1.54,0,0,0,.07-.42Z"/><circle class="a" cx="42.17" cy="90.88" r="7.57"/><path class="b" d="M79.2,109.85v10H77.91v-8.87H73.29v8.87H72v-10Z"/><path class="b" d="M82.12,116.46a2.29,2.29,0,0,0,2.45,2.48,4.58,4.58,0,0,0,2-.37l.22.93a5.63,5.63,0,0,1-2.37.45,3.32,3.32,0,0,1-3.51-3.6c0-2.16,1.27-3.86,3.35-3.86,2.33,0,3,2.06,3,3.37a3.84,3.84,0,0,1-.05.6Zm3.8-.93a1.85,1.85,0,0,0-1.8-2.11,2.15,2.15,0,0,0-2,2.11Z"/><path class="b" d="M88.78,115c0-.92,0-1.65-.06-2.33h1.17l.06,1.22h0a2.81,2.81,0,0,1,2.54-1.39c1.72,0,3,1.47,3,3.63,0,2.57-1.56,3.84-3.25,3.84a2.48,2.48,0,0,1-2.19-1.12h0v3.88H88.78Zm1.29,1.9a2.86,2.86,0,0,0,.06.53,2,2,0,0,0,1.94,1.52c1.38,0,2.17-1.12,2.17-2.76,0-1.43-.75-2.65-2.12-2.65a2.06,2.06,0,0,0-2,1.61,1.84,1.84,0,0,0-.09.53Z"/><path class="b" d="M97.9,116.46a2.29,2.29,0,0,0,2.45,2.48,4.66,4.66,0,0,0,2-.37l.22.93a5.72,5.72,0,0,1-2.38.45,3.32,3.32,0,0,1-3.51-3.6c0-2.16,1.27-3.86,3.35-3.86,2.33,0,2.95,2.06,2.95,3.37,0,.26,0,.47,0,.6Zm3.81-.93a1.85,1.85,0,0,0-1.8-2.11,2.16,2.16,0,0,0-2,2.11Z"/><path class="b" d="M110.44,112.66v7.14h-1.3v-6.11h-3.32v6.11h-1.28v-7.14Z"/><path class="b" d="M118,112.66v7.14h-1.28v-6.12h-2.45v1.85c0,2-.19,3.35-1.12,4a2.1,2.1,0,0,1-1.42.44l-.13-1a1.55,1.55,0,0,0,.71-.29c.66-.49.74-1.49.74-3.09v-2.87Z"/><path class="b" d="M124,119.8l-.1-.9h0a2.65,2.65,0,0,1-2.18,1.06,2,2,0,0,1-2.18-2c0-1.73,1.53-2.67,4.29-2.66v-.14a1.48,1.48,0,0,0-1.62-1.66,3.58,3.58,0,0,0-1.86.53l-.3-.85a4.48,4.48,0,0,1,2.35-.64c2.18,0,2.71,1.49,2.71,2.93v2.67a9.9,9.9,0,0,0,.12,1.71Zm-.19-3.65c-1.42,0-3,.23-3,1.61a1.15,1.15,0,0,0,1.23,1.24,1.76,1.76,0,0,0,1.72-1.19,1.25,1.25,0,0,0,.08-.42Z"/><path class="b" d="M131.92,112.66v1h-2.23v6.11h-1.28v-6.11h-2.23v-1Z"/><path class="b" d="M136.9,119.8l-.1-.9h0a2.67,2.67,0,0,1-2.19,1.06,2,2,0,0,1-2.18-2c0-1.73,1.53-2.67,4.29-2.66v-.14a1.48,1.48,0,0,0-1.62-1.66,3.61,3.61,0,0,0-1.86.53l-.29-.85a4.44,4.44,0,0,1,2.34-.64c2.19,0,2.72,1.49,2.72,2.93v2.67a11.08,11.08,0,0,0,.11,1.71Zm-.19-3.65c-1.41,0-3,.23-3,1.61a1.15,1.15,0,0,0,1.22,1.24,1.79,1.79,0,0,0,1.73-1.19,1.54,1.54,0,0,0,.07-.42Z"/><circle class="c" cx="55.53" cy="114.71" r="7.57"/><path class="d" d="M99.38,5.75c53.91,2.5,90.68,36.77,93.89,93.63"/></svg>