<svg xmlns="http://www.w3.org/2000/svg" viewBox="0 0 730.87 411.4"><defs><style>.a{fill:#fff;}.b{fill:#fbc83e;}.c{fill:#e5af28;}.d{fill:#e0a205;}.e{opacity:0.5;}.f{fill:#aac9f5;}.g{fill:#cde0fb;}.h{opacity:0.7;}.i{fill:#f2ae14;}.j{fill:#dceaff;}.k{fill:#eef2f8;}.l{fill:#ffbb83;}.m{fill:#5e425b;}.n{fill:#302833;}.o{fill:#493e4c;}.p{fill:#372e3a;}.q{fill:#ea8e50;}.r{fill:#4f364d;}.s{fill:#723939;}.t{fill:#fc9490;}.u{fill:#1e3d70;}.v{fill:#ffb07b;}</style></defs><path class="a" d="M24.19,410.83s-61.91-96,12.36-199.29C151.11,52.21,301.8,152.88,360.4,59.35,440.31-68.2,742.83,21.45,692.33,217.68c-24.45,95,74.38,98.42,24,193.35Z"/><path class="b" d="M615.51,286.37c-10-18.08-41.25-3.92-41.25-3.92s-13.81,39.41-20.07,41.82,5.23-36,5.23-36c-12.82,1.89-40.92,25.13-40.92,25.13s11.82,39.07,5.16,39.86-8.7-35.12-8.7-35.12c-11.21,6.63-19,23.56-19,23.56-8.43,26.52,26.05,36,26.05,36l2.33,29.23c1.48-6.94,3.84-16.1,6.32-18.51a6.92,6.92,0,0,1-1.08-1.34l1.08,1.34c8.65,10.71,37.42,5.73,52.36-1.41s7-9.87-3.28-15-27.56,1.2-33.51-.33,1-6.25,11.72-8,18.55,7.4,35.91,4.81,22.38-37.68,22.38-37.68c-10.81,6.53-33.41,5.28-35.22,1.44s29.38-11.14,33.93-13.55S625.56,304.45,615.51,286.37Z"/><path class="b" d="M492.19,56.19c-7.56-13.62-31.06-3-31.06-3S450.74,82.91,446,84.72,450,57.61,450,57.61c-9.65,1.43-30.81,18.93-30.81,18.93s8.9,29.41,3.89,30-6.55-26.45-6.55-26.45c-8.45,5-14.32,17.75-14.32,17.75-6.35,20,19.61,27.08,19.61,27.08s2.87,10.26-.58,23.7h0a36.13,36.13,0,0,0-1.44,6.63l2.49-.62c0-.71.1-1.41.19-2.09v-.05c.07-.42.18-1,.32-1.77h0c.39-1.67.63-2.9.76-3.77h0c1.12-5.23,2.89-12.13,4.76-13.94a5.15,5.15,0,0,1-.82-1l.82,1c6.51,8.06,28.17,4.31,39.42-1.06s5.26-7.43-2.47-11.28-20.75.9-25.23-.25.77-4.71,8.83-6.06,14,5.58,27,3.63,16.85-28.37,16.85-28.37c-8.14,4.92-25.15,4-26.51,1.08s22.12-8.38,25.54-10.2S499.76,69.8,492.19,56.19Z"/><polygon class="b" points="289.39 240.57 202.67 302.55 120.05 186.93 120.05 186.93 85.24 138.21 171.96 76.24 236.96 167.2 289.39 240.57"/><path class="a" d="M273,238.11l-67.32,48.11L100.11,138.51,167.43,90.4Zm-60.53,40.16L263.23,242a7.68,7.68,0,0,0,1.78-10.7l-93.62-131a7.81,7.81,0,0,0-10.9-1.81L109.92,134.6a7.75,7.75,0,0,0-1.8,10.8L201.8,276.49A7.64,7.64,0,0,0,212.45,278.27Z"/><path class="a" d="M168.43,201.26a22.26,22.26,0,1,1,31.06,5.17A22.26,22.26,0,0,1,168.43,201.26Z"/><polygon class="b" points="364.19 225.99 259.76 247.38 231.24 108.17 231.24 108.17 219.22 49.52 323.64 28.12 346.08 137.64 364.19 225.99"/><path class="a" d="M350.19,217.07l-81.07,16.61L232.68,55.83l81.07-16.61Zm-71.62,12.1,61.13-12.53a7.67,7.67,0,0,0,6-9L313.35,49.84a7.81,7.81,0,0,0-9.21-6.08L243.25,56.24a7.76,7.76,0,0,0-6,9.14l32.35,157.84A7.63,7.63,0,0,0,278.57,229.17Z"/><circle class="a" cx="291.44" cy="136.45" r="22.26" transform="translate(131.62 415.76) rotate(-85.31)"/><path class="b" d="M145.2,264.13s5.89,10,11.28,10.11,13.61-4.62,13.61-4.62,5-13.29,1.6-18.49a6.22,6.22,0,0,0-6.9,1.36,11.55,11.55,0,0,0-1.82,2.1,5.86,5.86,0,0,1-2.84,2.31c-3.85,1.41-8.42-1.9-10.13,1.3a21.34,21.34,0,0,1-3,4.24A14.63,14.63,0,0,1,145.2,264.13Z"/><path class="c" d="M229.64,410s14.46-126.81-65.95-135.72c0,0-62.4,14.86-46.84,135.72Z"/><path class="b" d="M174,276.09s-15,4-19.65,1.66c0,0-.7-7.56,5.63-6.5,4.32.73,7.14-1.77,8.8-2.79C171.07,267,174.57,272.93,174,276.09Z"/><path class="c" d="M160.88,264.7c1,.87,3.91-12.21,3.91-12.21a11.55,11.55,0,0,0-1.82,2.1,5.86,5.86,0,0,1-2.84,2.31C160.12,257.29,160,263.86,160.88,264.7Z"/><path class="c" d="M147,262.44c.21.15,7.15,5.15,8.09,5.15S150,258.2,150,258.2A21.34,21.34,0,0,1,147,262.44Z"/><circle class="d" cx="143.43" cy="373.29" r="36.66"/><circle class="b" cx="140.23" cy="373.29" r="36.66"/><path class="a" d="M140.23,407.13a33.39,33.39,0,1,1,23.62-9.78A33.21,33.21,0,0,1,140.23,407.13Zm0-64.82a31.42,31.42,0,1,0,31.41,31.41A31.45,31.45,0,0,0,140.23,342.31Z"/><g class="e"><path class="f" d="M464.57,154.67l20.37,77.93a6.49,6.49,0,0,1-4.62,7.89L343.61,276.22a6.48,6.48,0,0,1-7.88-4.62l-20.37-77.92a6.48,6.48,0,0,1,4.62-7.89l136.7-35.74A6.49,6.49,0,0,1,464.57,154.67Z"/><path class="g" d="M382.06,247.93l-36.44,9.52a2.9,2.9,0,0,1-3.53-2.07L342,255a2.89,2.89,0,0,1,2.07-3.53L380.5,242A2.92,2.92,0,0,1,384,244l.09.35A2.92,2.92,0,0,1,382.06,247.93Z"/><rect class="g" x="389.35" y="234.08" width="43.45" height="6.16" rx="2.9" transform="translate(-46.62 111.67) rotate(-14.65)"/><path class="g" d="M388.82,207.21a7,7,0,0,1,.16,3.45,3.18,3.18,0,0,1-5.4,1.41,8.35,8.35,0,0,1-1.72-6.52,3.2,3.2,0,0,1,5.43-1.41A7.07,7.07,0,0,1,388.82,207.21Zm-1.67.43a7.11,7.11,0,0,0-.83-2c-.52-.78-1.11-1.08-1.77-.91s-1,.73-1.1,1.64a6.65,6.65,0,0,0,.25,2.19q.89,3.41,2.63,3c.66-.18,1-.73,1.09-1.66A7.08,7.08,0,0,0,387.15,207.64Z"/><path class="g" d="M396.3,205.25a7,7,0,0,1,.16,3.45,3.18,3.18,0,0,1-5.4,1.41,7,7,0,0,1-1.55-3.08,7.19,7.19,0,0,1-.17-3.43,3.2,3.2,0,0,1,5.43-1.42A7.13,7.13,0,0,1,396.3,205.25Zm-1.67.44a7.18,7.18,0,0,0-.83-2c-.52-.77-1.1-1.07-1.76-.9s-1.05.72-1.11,1.64a6.71,6.71,0,0,0,.25,2.19c.6,2.26,1.47,3.24,2.63,2.94.67-.17,1-.73,1.09-1.66A7,7,0,0,0,394.63,205.69Z"/><path class="g" d="M407.64,202.29a7.12,7.12,0,0,1,.16,3.45,3,3,0,0,1-2.28,2.31,3,3,0,0,1-3.12-.9,8.32,8.32,0,0,1-1.72-6.51,3.2,3.2,0,0,1,5.43-1.42A7.07,7.07,0,0,1,407.64,202.29Zm-1.68.43a6.57,6.57,0,0,0-.83-2c-.51-.78-1.1-1.08-1.76-.91s-1,.73-1.11,1.64a6.69,6.69,0,0,0,.26,2.19c.59,2.27,1.47,3.25,2.62,2.95.67-.18,1-.73,1.09-1.66A6.52,6.52,0,0,0,406,202.72Z"/><path class="g" d="M415.12,200.34a7,7,0,0,1,.16,3.44,3.18,3.18,0,0,1-5.4,1.41,6.92,6.92,0,0,1-1.55-3.08,7.06,7.06,0,0,1-.17-3.43,3.2,3.2,0,0,1,5.43-1.42A7.12,7.12,0,0,1,415.12,200.34Zm-1.67.43a6.89,6.89,0,0,0-.84-2c-.51-.77-1.1-1.07-1.76-.9s-1,.72-1.11,1.64a7,7,0,0,0,.26,2.19c.59,2.26,1.47,3.25,2.62,2.94.67-.17,1-.73,1.09-1.66A6.72,6.72,0,0,0,413.45,200.77Z"/><path class="g" d="M422.6,198.38a7,7,0,0,1,.16,3.45,3.18,3.18,0,0,1-5.4,1.41,8.35,8.35,0,0,1-1.72-6.52,3.2,3.2,0,0,1,5.43-1.41A7.07,7.07,0,0,1,422.6,198.38Zm-1.67.43a7.11,7.11,0,0,0-.83-2c-.52-.78-1.11-1.08-1.77-.91s-1,.73-1.11,1.64a7,7,0,0,0,.26,2.19q.88,3.4,2.63,2.95c.66-.18,1-.73,1.09-1.66A7.08,7.08,0,0,0,420.93,198.81Z"/><path class="g" d="M430.08,196.42a7,7,0,0,1,.16,3.45,3.18,3.18,0,0,1-5.4,1.41,7,7,0,0,1-1.55-3.08,7.19,7.19,0,0,1-.17-3.43,3.2,3.2,0,0,1,5.43-1.42A7.13,7.13,0,0,1,430.08,196.42Zm-1.67.44a7.18,7.18,0,0,0-.83-2c-.52-.77-1.1-1.07-1.76-.9s-1.05.72-1.11,1.64a6.71,6.71,0,0,0,.25,2.19c.6,2.26,1.47,3.24,2.63,2.94.66-.17,1-.73,1.09-1.66A7,7,0,0,0,428.41,196.86Z"/><path class="g" d="M441.42,193.46a7.12,7.12,0,0,1,.16,3.45,3,3,0,0,1-2.28,2.31,3,3,0,0,1-3.12-.9,8.32,8.32,0,0,1-1.72-6.51,3.2,3.2,0,0,1,5.43-1.42A7.07,7.07,0,0,1,441.42,193.46Zm-1.68.43a6.57,6.57,0,0,0-.83-2c-.51-.78-1.1-1.08-1.76-.91s-1,.73-1.11,1.64a6.69,6.69,0,0,0,.26,2.19c.59,2.27,1.47,3.25,2.62,3,.67-.18,1-.73,1.09-1.66A6.52,6.52,0,0,0,439.74,193.89Z"/><path class="g" d="M448.9,191.51a7,7,0,0,1,.16,3.44,3.18,3.18,0,0,1-5.4,1.41,6.92,6.92,0,0,1-1.55-3.08,7.06,7.06,0,0,1-.17-3.43,3.2,3.2,0,0,1,5.43-1.42A7.12,7.12,0,0,1,448.9,191.51Zm-1.67.43a6.89,6.89,0,0,0-.84-2c-.51-.77-1.1-1.07-1.76-.9s-1,.72-1.11,1.64a6.69,6.69,0,0,0,.26,2.19c.59,2.26,1.47,3.25,2.62,2.94.67-.17,1-.73,1.09-1.66A6.72,6.72,0,0,0,447.23,191.94Z"/><path class="g" d="M456.38,189.55a7,7,0,0,1,.16,3.45,3.18,3.18,0,0,1-5.4,1.41,8.35,8.35,0,0,1-1.72-6.52,3.2,3.2,0,0,1,5.43-1.41A7.07,7.07,0,0,1,456.38,189.55Zm-1.67.43a6.82,6.82,0,0,0-.84-2c-.51-.78-1.1-1.08-1.76-.91s-1,.73-1.11,1.64a7,7,0,0,0,.26,2.19q.89,3.41,2.63,3c.66-.18,1-.73,1.09-1.66A7.08,7.08,0,0,0,454.71,190Z"/><path class="g" d="M463.86,187.59A7,7,0,0,1,464,191a3.18,3.18,0,0,1-5.4,1.41,7,7,0,0,1-1.55-3.08,7.19,7.19,0,0,1-.17-3.43,3.2,3.2,0,0,1,5.43-1.42A7.13,7.13,0,0,1,463.86,187.59Zm-1.67.44a7.18,7.18,0,0,0-.83-2c-.52-.77-1.1-1.07-1.76-.9s-1.05.72-1.11,1.64a6.71,6.71,0,0,0,.25,2.19q.88,3.39,2.63,2.94c.66-.17,1-.73,1.09-1.66A7,7,0,0,0,462.19,188Z"/><path class="g" d="M365.22,186.69,329.56,196a2.9,2.9,0,0,1-3.53-2.07h0a2.91,2.91,0,0,1,2.07-3.54l35.65-9.32a2.92,2.92,0,0,1,3.54,2.07h0A2.91,2.91,0,0,1,365.22,186.69Z"/><path class="g" d="M451.47,170.51a4.38,4.38,0,0,0-1.65-2.44.47.47,0,0,0-.69.14l-.12.22a.47.47,0,0,0,.12.61,3.26,3.26,0,0,1,1,3.91.48.48,0,0,0,.19.59l.22.13a.47.47,0,0,0,.67-.22A4.4,4.4,0,0,0,451.47,170.51Z"/><path class="g" d="M453.78,169.91A6.81,6.81,0,0,0,451,166a.47.47,0,0,0-.67.17l-.07.12a.48.48,0,0,0,.15.63,5.73,5.73,0,0,1,1.91,7.31.49.49,0,0,0,.18.63l.12.07a.47.47,0,0,0,.66-.19A6.75,6.75,0,0,0,453.78,169.91Z"/><path class="g" d="M455.81,169.38a8.93,8.93,0,0,0-3.78-5.23.48.48,0,0,0-.67.17h0a.48.48,0,0,0,.16.63,8,8,0,0,1,2.72,10.4.46.46,0,0,0,.17.62h0a.47.47,0,0,0,.66-.18A8.93,8.93,0,0,0,455.81,169.38Z"/><path class="g" d="M458,168.81a11.13,11.13,0,0,0-4.84-6.62.48.48,0,0,0-.67.16l-.12.21a.47.47,0,0,0,.16.63A10,10,0,0,1,456,176.38a.47.47,0,0,0,.17.63l.21.13A.47.47,0,0,0,457,177,11.11,11.11,0,0,0,458,168.81Z"/><path class="g" d="M347.78,263.76a3.41,3.41,0,0,1,.07,1.66,1.52,1.52,0,0,1-2.6.68,3.38,3.38,0,0,1-.75-1.48,3.55,3.55,0,0,1-.08-1.66,1.55,1.55,0,0,1,2.62-.68A3.48,3.48,0,0,1,347.78,263.76ZM347,264a3.62,3.62,0,0,0-.4-1c-.25-.37-.53-.52-.85-.43s-.51.35-.54.79a3.2,3.2,0,0,0,.13,1c.28,1.1.71,1.57,1.26,1.42.33-.08.5-.35.53-.8A3.26,3.26,0,0,0,347,264Z"/><path class="g" d="M351.38,262.82a3.3,3.3,0,0,1,.08,1.66,1.52,1.52,0,0,1-2.6.68,3.42,3.42,0,0,1-.75-1.49A3.38,3.38,0,0,1,348,262a1.54,1.54,0,0,1,2.62-.68A3.31,3.31,0,0,1,351.38,262.82Zm-.8.21a3.49,3.49,0,0,0-.4-1c-.25-.37-.53-.52-.85-.44a.76.76,0,0,0-.54.79,3.28,3.28,0,0,0,.13,1.06c.28,1.09.7,1.57,1.26,1.42.32-.08.5-.35.53-.8A3.56,3.56,0,0,0,350.58,263Z"/><path class="g" d="M353.57,260.07a.4.4,0,0,1,0,.24l-.86,4.38a.44.44,0,0,1-.28.38.33.33,0,0,1-.26,0,.32.32,0,0,1-.16-.2.49.49,0,0,1,0-.24l.88-4.37c0-.21.13-.34.28-.38a.39.39,0,0,1,.26,0A.28.28,0,0,1,353.57,260.07Z"/><path class="g" d="M357.46,261.23a3.42,3.42,0,0,1,.08,1.66,1.46,1.46,0,0,1-1.1,1.12,1.44,1.44,0,0,1-1.51-.44,3.27,3.27,0,0,1-.74-1.48,3.44,3.44,0,0,1-.09-1.66,1.46,1.46,0,0,1,1.11-1.12,1.43,1.43,0,0,1,1.51.44A3.37,3.37,0,0,1,357.46,261.23Zm-.81.21a3.33,3.33,0,0,0-.4-1c-.25-.37-.53-.52-.85-.43s-.5.34-.53.79a3.19,3.19,0,0,0,.12,1.05c.29,1.1.71,1.57,1.27,1.42.32-.08.49-.35.52-.8A3.26,3.26,0,0,0,356.65,261.44Z"/><path class="g" d="M361.07,260.29a3.42,3.42,0,0,1,.08,1.66,1.54,1.54,0,0,1-2.61.68,3.42,3.42,0,0,1-.75-1.49,3.51,3.51,0,0,1-.08-1.65,1.55,1.55,0,0,1,2.62-.69A3.53,3.53,0,0,1,361.07,260.29Zm-.81.2a3.26,3.26,0,0,0-.4-1c-.25-.38-.53-.52-.85-.44s-.5.35-.53.79a3,3,0,0,0,.12,1.06c.29,1.09.71,1.57,1.27,1.42.32-.08.49-.35.52-.8A3.31,3.31,0,0,0,360.26,260.49Z"/><path class="g" d="M364.68,259.34a3.44,3.44,0,0,1,.07,1.67,1.41,1.41,0,0,1-1.1,1.11,1.44,1.44,0,0,1-1.5-.43,3.42,3.42,0,0,1-.75-1.49,3.51,3.51,0,0,1-.08-1.65,1.55,1.55,0,0,1,2.62-.69A3.48,3.48,0,0,1,364.68,259.34Zm-.81.21a3.62,3.62,0,0,0-.4-1c-.25-.37-.53-.51-.85-.43a.76.76,0,0,0-.54.79,3.28,3.28,0,0,0,.13,1.06c.28,1.09.71,1.56,1.26,1.42.33-.09.5-.35.53-.8A3.28,3.28,0,0,0,363.87,259.55Z"/><path class="g" d="M368.28,258.4a3.3,3.3,0,0,1,.08,1.66,1.45,1.45,0,0,1-1.1,1.12,1.42,1.42,0,0,1-1.5-.44,3.38,3.38,0,0,1-.75-1.48,3.42,3.42,0,0,1-.08-1.66,1.41,1.41,0,0,1,1.1-1.11,1.43,1.43,0,0,1,1.52.43A3.37,3.37,0,0,1,368.28,258.4Zm-.8.21a3.62,3.62,0,0,0-.4-1c-.25-.37-.53-.52-.85-.43s-.51.35-.54.79a3.23,3.23,0,0,0,.13,1.05c.28,1.1.7,1.57,1.26,1.42.32-.08.5-.35.53-.8A3.56,3.56,0,0,0,367.48,258.61Z"/></g><path class="b" d="M487.68,154.24s16.73-35.76,26.51-32.8S487.68,154.24,487.68,154.24Z"/><path class="b" d="M475.48,170.5s40.88-41.58,57.2-34.44-9.58,15.61-19.47,18S475.48,170.5,475.48,170.5Z"/><path class="b" d="M482.81,152c-.78-3.81-2.09-9.94-3.1-13-1.53-4.64.86-9.29,6.68-6.24s-2.93,22.54-2.93,22.54S483.2,153.91,482.81,152Z"/><g class="e"><path class="b" d="M649.83,136.58l16.89,64.61a5.36,5.36,0,0,1-3.83,6.53L549.56,237.35a5.37,5.37,0,0,1-6.54-3.83l-16.89-64.6a5.38,5.38,0,0,1,3.83-6.54L643.3,132.75A5.37,5.37,0,0,1,649.83,136.58Z"/><g class="h"><rect class="d" x="547.67" y="212.82" width="36.02" height="5.1" rx="2.4" transform="translate(-36.08 150.06) rotate(-14.65)"/><path class="d" d="M621.24,203.49,591,211.38a2.39,2.39,0,0,1-2.93-1.71l-.08-.29a2.41,2.41,0,0,1,1.72-2.93l30.2-7.9a2.42,2.42,0,0,1,2.94,1.72l.07.29A2.41,2.41,0,0,1,621.24,203.49Z"/><path class="d" d="M587,180.14a5.87,5.87,0,0,1,.13,2.85,2.63,2.63,0,0,1-4.48,1.17,6.91,6.91,0,0,1-1.42-5.4,2.65,2.65,0,0,1,4.5-1.17A6,6,0,0,1,587,180.14Zm-1.39.35a5.74,5.74,0,0,0-.69-1.68c-.43-.64-.91-.89-1.46-.74s-.87.6-.92,1.35a5.65,5.65,0,0,0,.21,1.82c.49,1.88,1.22,2.69,2.18,2.44.55-.14.85-.6.9-1.37A5.75,5.75,0,0,0,585.65,180.49Z"/><path class="d" d="M593.24,178.52a5.75,5.75,0,0,1,.13,2.85,2.45,2.45,0,0,1-1.89,1.92,2.48,2.48,0,0,1-2.59-.75,6.91,6.91,0,0,1-1.42-5.4A2.65,2.65,0,0,1,592,176,5.76,5.76,0,0,1,593.24,178.52Zm-1.39.35a5.74,5.74,0,0,0-.69-1.68c-.42-.64-.91-.89-1.46-.74s-.87.59-.92,1.35a5.65,5.65,0,0,0,.21,1.82c.5,1.88,1.22,2.69,2.18,2.44.55-.14.86-.6.9-1.38A5.45,5.45,0,0,0,591.85,178.87Z"/><path class="d" d="M602.64,176.06a5.91,5.91,0,0,1,.13,2.86,2.64,2.64,0,0,1-4.48,1.17,6,6,0,0,1-1.28-2.56,5.85,5.85,0,0,1-.14-2.84,2.65,2.65,0,0,1,4.5-1.18A5.87,5.87,0,0,1,602.64,176.06Zm-1.39.36a5.52,5.52,0,0,0-.69-1.68c-.43-.65-.91-.89-1.46-.75s-.87.6-.92,1.36a5.62,5.62,0,0,0,.21,1.81c.5,1.88,1.22,2.7,2.18,2.44.55-.14.86-.6.9-1.37A5.66,5.66,0,0,0,601.25,176.42Z"/><path class="d" d="M608.84,174.44a5.75,5.75,0,0,1,.13,2.85,2.62,2.62,0,0,1-4.47,1.17,5.77,5.77,0,0,1-1.29-2.55,5.89,5.89,0,0,1-.14-2.85,2.65,2.65,0,0,1,4.5-1.17A5.87,5.87,0,0,1,608.84,174.44Zm-1.39.35a5.74,5.74,0,0,0-.69-1.68c-.42-.64-.91-.89-1.46-.74s-.86.6-.92,1.36a5.39,5.39,0,0,0,.22,1.81c.49,1.88,1.21,2.69,2.17,2.44.56-.14.86-.6.91-1.37A5.79,5.79,0,0,0,607.45,174.79Z"/><path class="d" d="M615,172.82a5.75,5.75,0,0,1,.13,2.85,2.62,2.62,0,0,1-4.47,1.17,5.77,5.77,0,0,1-1.29-2.55,6,6,0,0,1-.14-2.85,2.65,2.65,0,0,1,4.5-1.17A5.81,5.81,0,0,1,615,172.82Zm-1.39.35a6,6,0,0,0-.68-1.68c-.43-.64-.92-.89-1.46-.74s-.87.6-.92,1.35a5.65,5.65,0,0,0,.21,1.82c.49,1.88,1.22,2.69,2.17,2.44.56-.14.86-.6.91-1.38A5.77,5.77,0,0,0,613.65,173.17Z"/><path class="d" d="M621.24,171.19a5.81,5.81,0,0,1,.14,2.86,2.63,2.63,0,0,1-4.48,1.17,5.67,5.67,0,0,1-1.28-2.55,5.77,5.77,0,0,1-.14-2.85,2.64,2.64,0,0,1,4.49-1.17A5.67,5.67,0,0,1,621.24,171.19Zm-1.38.36a5.74,5.74,0,0,0-.69-1.68c-.43-.64-.92-.89-1.46-.75s-.87.6-.92,1.36a5.65,5.65,0,0,0,.21,1.82c.49,1.88,1.22,2.69,2.18,2.44q.83-.21.9-1.38A5.72,5.72,0,0,0,619.86,171.55Z"/><path class="d" d="M630.64,168.74a5.75,5.75,0,0,1,.13,2.85,2.62,2.62,0,0,1-4.47,1.17,5.67,5.67,0,0,1-1.28-2.55,5.77,5.77,0,0,1-.14-2.85,2.64,2.64,0,0,1,4.49-1.17A5.76,5.76,0,0,1,630.64,168.74Zm-1.38.35a5.56,5.56,0,0,0-.69-1.67c-.43-.65-.92-.9-1.46-.75s-.87.6-.92,1.36a5.62,5.62,0,0,0,.21,1.81c.49,1.88,1.22,2.69,2.18,2.44.55-.14.85-.6.9-1.37A6.06,6.06,0,0,0,629.26,169.09Z"/><path class="d" d="M636.85,167.12A5.87,5.87,0,0,1,637,170a2.63,2.63,0,0,1-4.48,1.17,6.91,6.91,0,0,1-1.42-5.4,2.65,2.65,0,0,1,4.5-1.17A5.92,5.92,0,0,1,636.85,167.12Zm-1.39.35a5.74,5.74,0,0,0-.69-1.68c-.43-.64-.91-.89-1.46-.74s-.87.6-.92,1.35a5.65,5.65,0,0,0,.21,1.82c.49,1.88,1.22,2.69,2.18,2.44.55-.14.85-.6.9-1.37A5.75,5.75,0,0,0,635.46,167.47Z"/><path class="d" d="M643.05,165.49a5.79,5.79,0,0,1,.13,2.86,2.45,2.45,0,0,1-1.89,1.92,2.48,2.48,0,0,1-2.59-.75,6.91,6.91,0,0,1-1.42-5.4,2.65,2.65,0,0,1,4.5-1.17A5.77,5.77,0,0,1,643.05,165.49Zm-1.39.36a5.74,5.74,0,0,0-.69-1.68,1.32,1.32,0,0,0-1.46-.75c-.56.15-.87.6-.92,1.36a5.65,5.65,0,0,0,.21,1.82c.5,1.88,1.22,2.69,2.18,2.44.55-.14.86-.6.9-1.38A5.72,5.72,0,0,0,641.66,165.85Z"/><path class="d" d="M649.25,163.87a5.79,5.79,0,0,1,.13,2.86,2.62,2.62,0,0,1-4.47,1.17,5.76,5.76,0,0,1-1.29-2.56,5.85,5.85,0,0,1-.14-2.84,2.65,2.65,0,0,1,4.5-1.18A5.87,5.87,0,0,1,649.25,163.87Zm-1.39.36a5.74,5.74,0,0,0-.69-1.68,1.32,1.32,0,0,0-1.46-.75c-.56.15-.86.6-.92,1.36A5.45,5.45,0,0,0,645,165c.49,1.88,1.21,2.69,2.17,2.44.56-.15.86-.6.91-1.38A5.77,5.77,0,0,0,647.86,164.23Z"/><path class="d" d="M567.47,163.12l-29.56,7.73a2.41,2.41,0,0,1-2.93-1.72h0a2.4,2.4,0,0,1,1.71-2.93l29.56-7.73a2.41,2.41,0,0,1,2.93,1.72h0A2.39,2.39,0,0,1,567.47,163.12Z"/><path class="d" d="M639,149.71a3.66,3.66,0,0,0-1.37-2,.38.38,0,0,0-.57.12l-.1.17a.39.39,0,0,0,.1.51,2.67,2.67,0,0,1,.84,3.24.41.41,0,0,0,.16.49l.18.11a.39.39,0,0,0,.56-.18A3.69,3.69,0,0,0,639,149.71Z"/><path class="d" d="M640.9,149.21a5.63,5.63,0,0,0-2.32-3.26.4.4,0,0,0-.56.13l0,.1a.4.4,0,0,0,.12.53,4.77,4.77,0,0,1,1.59,6.06.4.4,0,0,0,.14.52l.1.06a.4.4,0,0,0,.55-.16A5.65,5.65,0,0,0,640.9,149.21Z"/><path class="d" d="M642.57,148.77a7.34,7.34,0,0,0-3.13-4.33.39.39,0,0,0-.55.13h0a.4.4,0,0,0,.13.53,6.59,6.59,0,0,1,2.25,8.62.39.39,0,0,0,.15.52h0a.38.38,0,0,0,.54-.15A7.37,7.37,0,0,0,642.57,148.77Z"/><path class="d" d="M644.39,148.3a9.21,9.21,0,0,0-4-5.49.41.41,0,0,0-.56.13l-.09.18a.38.38,0,0,0,.12.52,8.28,8.28,0,0,1,2.86,10.94.39.39,0,0,0,.15.52l.17.1a.39.39,0,0,0,.55-.15A9.22,9.22,0,0,0,644.39,148.3Z"/><path class="d" d="M553,227a2.75,2.75,0,0,1,.06,1.38,1.16,1.16,0,0,1-.91.92,1.18,1.18,0,0,1-1.25-.36,3.27,3.27,0,0,1-.68-2.6,1.19,1.19,0,0,1,.91-.93,1.24,1.24,0,0,1,1.26.36A3,3,0,0,1,553,227Zm-.67.17a3.09,3.09,0,0,0-.33-.81c-.21-.31-.44-.43-.71-.36s-.42.29-.44.66a2.56,2.56,0,0,0,.1.87c.24.91.59,1.3,1,1.18.27-.07.41-.29.44-.66A3,3,0,0,0,552.34,227.19Z"/><path class="d" d="M556,226.24a2.75,2.75,0,0,1,.06,1.38,1.27,1.27,0,0,1-2.16.56,3.38,3.38,0,0,1-.68-2.6,1.28,1.28,0,0,1,2.17-.57A2.84,2.84,0,0,1,556,226.24Zm-.67.17a3.09,3.09,0,0,0-.33-.81c-.21-.31-.44-.43-.71-.36s-.42.29-.44.66a2.58,2.58,0,0,0,.1.87c.24.91.59,1.3,1,1.18.27-.07.41-.29.44-.66A3,3,0,0,0,555.33,226.41Z"/><path class="d" d="M557.81,224a.44.44,0,0,1,0,.2l-.72,3.63c0,.18-.11.28-.24.31a.31.31,0,0,1-.21,0,.27.27,0,0,1-.13-.17.45.45,0,0,1,0-.2l.73-3.63a.36.36,0,0,1,.23-.31.33.33,0,0,1,.22,0A.27.27,0,0,1,557.81,224Z"/><path class="d" d="M561,224.92a2.75,2.75,0,0,1,.06,1.38,1.2,1.2,0,0,1-.91.93,1.22,1.22,0,0,1-1.25-.36,3,3,0,0,1-.62-1.24,2.85,2.85,0,0,1-.07-1.37,1.28,1.28,0,0,1,2.17-.57A2.84,2.84,0,0,1,561,224.92Zm-.67.18a2.56,2.56,0,0,0-.34-.81.65.65,0,0,0-.7-.37c-.27.07-.42.29-.44.66a2.56,2.56,0,0,0,.1.87c.24.91.59,1.3,1,1.18.27-.07.41-.29.44-.66A2.91,2.91,0,0,0,560.37,225.1Z"/><path class="d" d="M564,224.14a2.75,2.75,0,0,1,.06,1.38,1.16,1.16,0,0,1-.91.92,1.18,1.18,0,0,1-1.25-.36,2.84,2.84,0,0,1-.62-1.23,2.71,2.71,0,0,1-.06-1.37,1.28,1.28,0,0,1,2.17-.57A3,3,0,0,1,564,224.14Zm-.67.17a3.09,3.09,0,0,0-.33-.81c-.21-.31-.44-.43-.71-.36s-.42.29-.44.66a2.58,2.58,0,0,0,.1.87c.24.91.59,1.3,1,1.18.27-.07.41-.29.44-.66A3,3,0,0,0,563.36,224.31Z"/><path class="d" d="M567,223.36a2.75,2.75,0,0,1,.06,1.38,1.27,1.27,0,0,1-2.16.56,3.38,3.38,0,0,1-.68-2.6,1.28,1.28,0,0,1,2.17-.57A2.84,2.84,0,0,1,567,223.36Zm-.67.17a3.09,3.09,0,0,0-.33-.81c-.21-.31-.44-.43-.71-.36s-.41.29-.44.66a2.61,2.61,0,0,0,.1.87c.24.91.59,1.3,1,1.18.27-.07.41-.29.44-.66A3,3,0,0,0,566.35,223.53Z"/><path class="d" d="M570,222.58a2.75,2.75,0,0,1,.06,1.38,1.19,1.19,0,0,1-.91.92,1.17,1.17,0,0,1-1.24-.36,3.34,3.34,0,0,1-.69-2.61,1.2,1.2,0,0,1,.92-.92,1.18,1.18,0,0,1,1.25.36A2.84,2.84,0,0,1,570,222.58Zm-.67.17a3.09,3.09,0,0,0-.33-.81c-.21-.31-.44-.43-.7-.36s-.42.29-.45.65a2.93,2.93,0,0,0,.1.88c.24.91.59,1.3,1,1.18.27-.07.42-.29.44-.67A2.65,2.65,0,0,0,569.34,222.75Z"/></g></g><rect class="d" x="187.34" y="393.34" width="376.27" height="5.44"/><rect class="i" x="183.48" y="398.78" width="383.98" height="5.44"/><rect class="d" x="178.19" y="404.22" width="394.57" height="5.44"/><rect class="b" x="196.11" y="185.45" width="351.9" height="207.9"/><polygon class="a" points="571.9 189.41 175.24 189.41 377.18 87.06 571.9 189.41"/><polygon class="b" points="235.45 175.75 511.69 175.17 377.04 105.15 235.45 175.75"/><rect class="d" x="185.59" y="189.41" width="377.89" height="6.83"/><rect class="a" x="213.65" y="189.41" width="37.22" height="13.18"/><rect class="a" x="222.01" y="202.59" width="20.52" height="190.75"/><rect class="a" x="294.08" y="189.41" width="37.22" height="13.18"/><rect class="a" x="302.43" y="202.59" width="20.52" height="190.75"/><rect class="a" x="420.52" y="189.41" width="37.22" height="13.18"/><rect class="a" x="428.87" y="202.59" width="20.52" height="190.75"/><rect class="a" x="496.25" y="189.41" width="37.22" height="13.18"/><rect class="a" x="504.6" y="202.59" width="20.52" height="190.75"/><path class="d" d="M271.27,235h2.44a10.82,10.82,0,0,1,10.82,10.82v26.82a0,0,0,0,1,0,0H260.42a0,0,0,0,1,0,0v-26.8A10.85,10.85,0,0,1,271.27,235Z"/><path class="d" d="M271.59,315.82h1.81A11.14,11.14,0,0,1,284.53,327v26.51a0,0,0,0,1,0,0H260.42a0,0,0,0,1,0,0V327A11.16,11.16,0,0,1,271.59,315.82Z"/><path class="d" d="M477.35,235h0a12,12,0,0,1,12,12v25.61a0,0,0,0,1,0,0H465.28a0,0,0,0,1,0,0V247.07A12.07,12.07,0,0,1,477.35,235Z"/><path class="d" d="M476.62,315.82h1.23a11.43,11.43,0,0,1,11.43,11.43v26.22a0,0,0,0,1,0,0H465.17a0,0,0,0,1,0,0v-26.2A11.45,11.45,0,0,1,476.62,315.82Z"/><path class="j" d="M222,211.2a11.3,11.3,0,0,1,10.25-5.38c7.87.29,10.26,5.38,10.26,5.38v-8.61H222Z"/><path class="j" d="M302.43,211.2a11.33,11.33,0,0,1,10.26-5.38c7.87.29,10.26,5.38,10.26,5.38v-8.61H302.43Z"/><path class="j" d="M428.87,211.2a11.33,11.33,0,0,1,10.26-5.38c7.87.29,10.26,5.38,10.26,5.38v-8.61H428.87Z"/><path class="j" d="M504.6,211.2a11.33,11.33,0,0,1,10.26-5.38c7.87.29,10.26,5.38,10.26,5.38v-8.61H504.6Z"/><rect class="j" x="213.65" y="189.39" width="37.22" height="2.3"/><rect class="j" x="294.08" y="189.39" width="37.22" height="2.3"/><rect class="j" x="420.52" y="189.39" width="37.22" height="2.3"/><rect class="j" x="496.25" y="189.39" width="37.22" height="2.3"/><polygon class="d" points="372.78 107.27 501.41 175.19 511.69 175.21 377.04 105.15 372.78 107.27"/><path class="a" d="M285.39,273.51H259.56v-27.2a12.18,12.18,0,0,1,12.17-12.17h2.15a11.52,11.52,0,0,1,11.51,11.51Zm-24.1-1.73h22.38V245.65a9.8,9.8,0,0,0-9.79-9.79h-2.15a10.46,10.46,0,0,0-10.44,10.45Z"/><rect class="a" x="260.61" y="246.01" width="23.53" height="1.63"/><rect class="a" x="271.59" y="246.83" width="1.58" height="25.68"/><path class="a" d="M489.91,273.51H464.08v-27.2a12.18,12.18,0,0,1,12.17-12.17h2.14a11.53,11.53,0,0,1,11.52,11.51Zm-24.11-1.73h22.39V245.65a9.81,9.81,0,0,0-9.8-9.79h-2.14a10.46,10.46,0,0,0-10.45,10.45Z"/><rect class="a" x="465.13" y="246.01" width="23.53" height="1.63"/><rect class="a" x="476.1" y="246.83" width="1.58" height="25.68"/><path class="a" d="M490.14,354.33H464.31v-27.2A12.18,12.18,0,0,1,476.48,315h2.14a11.53,11.53,0,0,1,11.52,11.51ZM466,352.61h22.39V326.47a9.81,9.81,0,0,0-9.8-9.79h-2.14A10.46,10.46,0,0,0,466,327.13Z"/><rect class="a" x="465.36" y="326.84" width="23.53" height="1.63"/><rect class="a" x="476.33" y="327.65" width="1.58" height="25.68"/><path class="a" d="M285.29,354.33H259.46v-27.2A12.18,12.18,0,0,1,271.63,315h2.15a11.52,11.52,0,0,1,11.51,11.51Zm-24.11-1.72h22.39V326.47a9.8,9.8,0,0,0-9.79-9.79h-2.15a10.46,10.46,0,0,0-10.45,10.45Z"/><rect class="a" x="260.51" y="326.84" width="23.53" height="1.63"/><rect class="a" x="271.48" y="327.65" width="1.58" height="25.68"/><path class="a" d="M266.44,225.07s5.15-1.72,13.12,0l-2.77,6.9a32.31,32.31,0,0,0-7.56,0Z"/><path class="a" d="M268.22,232.14l-3-5.86s-3.28.67-4.46,1.95l5,4.53Z"/><path class="a" d="M277.77,232.17l2.73-5.79a8.15,8.15,0,0,1,4.46,2L280,232.76Z"/><path class="a" d="M266.44,301.9s5.15-2.61,13.12,0l-2.77,10.44a21.51,21.51,0,0,0-7.56,0Z"/><path class="a" d="M268.22,312.59l-3-8.86s-3.28,1-4.46,2.95l5,6.85Z"/><path class="a" d="M277.77,312.64l2.73-8.76a7,7,0,0,1,4.46,2.94L280,313.53Z"/><path class="a" d="M470.91,221.13s5.15-2.61,13.13,0l-2.77,10.44a21.51,21.51,0,0,0-7.56,0Z"/><path class="a" d="M472.7,231.82l-3-8.85s-3.28,1-4.46,2.94l5,6.85Z"/><path class="a" d="M482.25,231.87l2.73-8.76a7,7,0,0,1,4.46,2.94l-4.94,6.71Z"/><path class="a" d="M470.8,301.9s5.15-2.61,13.13,0l-2.78,10.44a21.44,21.44,0,0,0-7.55,0Z"/><path class="a" d="M472.58,312.59l-3-8.86s-3.27,1-4.46,2.95l5,6.85Z"/><path class="a" d="M482.13,312.64l2.74-8.76a7,7,0,0,1,4.46,2.94l-4.95,6.71Z"/><path class="k" d="M557.79,120.89a7.32,7.32,0,1,1,7.32,7.32A7.32,7.32,0,0,1,557.79,120.89Z"/><path class="k" d="M565.78,85.13a10.6,10.6,0,1,1,10.6,10.59A10.6,10.6,0,0,1,565.78,85.13Z"/><circle class="k" cx="533.83" cy="54.63" r="19.7" transform="translate(434.13 581.9) rotate(-85.14)"/><path class="l" d="M131.07,254.85c-.85,2.29-2.33,4.94-3.88,5.61a5.92,5.92,0,0,0-2.48,1.8l-1.42-.82-1.69-1s0-.19.12-.5.21-.73.38-1.2a1.63,1.63,0,0,0,.2-1.5,3.52,3.52,0,0,1,.29-2.93c.54-.79,1.07-2.73,1.39-2.67.79.13-.39,2.81,0,3.3a.58.58,0,0,0,.76.26h0c2.22-1,4.91-6.24,6.1-5.53C131.26,250,131.43,253.88,131.07,254.85Z"/><rect class="d" x="121.96" y="251.45" width="13.27" height="4.27" rx="0.44" transform="translate(-152.82 212.97) rotate(-54.9)"/><path class="b" d="M125.7,259.66l2.1,1.48s0,0,.06,0l7.58-10.78a.07.07,0,0,0,0-.07l-2.09-1.47a0,0,0,0,0-.07,0l-7.57,10.78A0,0,0,0,0,125.7,259.66Z"/><path class="m" d="M83.48,243.49s14.15,24.69,19.29,29.23l18.83-14a6.89,6.89,0,0,1,3.93,3.58s-11.44,23.29-22.69,24.28-27.06-27.92-27.06-27.92Z"/><path class="n" d="M51.45,411.4H43.27A5,5,0,0,1,41,407.65c-.4-2.64-3.36-4.07-4-6.23s2.64-5.18,2.64-5.18l.55-.71.57-.73,5.42,1.28s.14,1.29.22,2.94a36.25,36.25,0,0,1,0,3.76c-.16,2.87.81,6,3.36,6.53C51.71,409.72,51.62,410.84,51.45,411.4Z"/><path class="n" d="M98.91,411.4H80.21c-.9-1.1-.57-5.15-.43-6.47,0-.27,0-.43,0-.43s6.38-5.1,7.26-1.19l.09.36c1.11,3.66,6.07,5.32,8.93,5.78A3.22,3.22,0,0,1,98.91,411.4Z"/><path class="o" d="M95.35,307s-1,12.1-2.11,26.65c-1.55,19.75-3.41,44-3.6,48.62-.32,8-1.59,20.75-1.59,20.75s-3,3-9.1,1.75a208.31,208.31,0,0,1-7-37.51c0-.32,0-.64-.08-.95-1.43-19.64-3.67-61-3.67-61Z"/><path class="p" d="M95.35,307s-1,12.1-2.11,26.65L72,367.26c0-.32,0-.64-.08-.95-1.43-19.64-3.67-61-3.67-61Z"/><path class="o" d="M90.92,308.44s-17.48,43.82-29,64.41-15.09,26.34-15.09,26.34-6.58-2.64-7.18-4.43c0,0,4.39-39.76,12.09-49.45,4.35-5.47,9.46-21.91,9.7-27.65S63,300.54,63,300.54Z"/><path class="l" d="M86.57,244.56c-6.83,2.16-18.65-3.66-18.65-3.66s6.3-4.73,6-14.55l5.28,4.25,3.59,2.89a44.21,44.21,0,0,1-.41,4.69c-.1.79-.23,1.67-.4,2.62A16.29,16.29,0,0,1,86.57,244.56Z"/><path class="q" d="M82.76,233.49a44.21,44.21,0,0,1-.41,4.69c-4-.68-8.48-7.1-8.48-7.1a12.63,12.63,0,0,1,5.3-.48Z"/><path class="l" d="M84.85,233.33s-11.29,1.88-12.35-5.17-3.22-11.54,3.93-13,9,1,9.9,3.25S87.75,232.66,84.85,233.33Z"/><path class="m" d="M96.1,308a1.09,1.09,0,0,1-.72.27c-2.56,0-10,1.39-16.37.74a47.2,47.2,0,0,1-15.13-4.36c-.67-.3-2.22-1.13-2.19-1.88s.11-2,.21-3.53a189.89,189.89,0,0,0,.38-24.62c-.11-1.94-.17-3.86-.18-5.75-.05-14.07,2.74-26.46,8.35-30.65.48-.34,3.42,1.1,6.12,2.43a11.2,11.2,0,0,0,7.36.89l2.36,2.09a23.49,23.49,0,0,1,7.38,11.8c1.17,4.68,1.85,13.13,2.23,21.89.17,4,.31,8,.34,11.77v.13c0,.38,0,.79,0,1.17C96.41,300.14,96.27,307.87,96.1,308Z"/><path class="r" d="M61.9,299.25a189.89,189.89,0,0,0,.38-24.62c-.11-1.94-.17-3.86-.18-5.75,2.34-5.66,4.25-9.77,4.25-9.77h5.89S76.55,288.6,61.9,299.25Z"/><rect class="d" x="34.41" y="304.39" width="23" height="37.38" rx="6" transform="translate(-280.41 322.96) rotate(-81.89)"/><path class="b" d="M61.51,316.73h0a6.05,6.05,0,0,0-4.16-3.64h0c-.19,0-.39-.08-.58-.11l-5-.71.34-2.35a2,2,0,0,0-.38-1.48,2,2,0,0,0-1.31-.77l-1.3-.19-5.26-.75-.94-.13a2,2,0,0,0-2.25,1.69l-.34,2.35-8.63-1.23a6,6,0,0,0-6.82,5.11l-1.56,11a6,6,0,0,0,5.11,6.82l25.08,3.57a5.18,5.18,0,0,0,1.3,0h0a5.89,5.89,0,0,0,1.95-.49,6,6,0,0,0,3.55-4.66l1.57-11A6,6,0,0,0,61.51,316.73Zm-19.62-8.27a.74.74,0,0,1,.62-.62.55.55,0,0,1,.22,0l1.12.16,4.13.59,2.25.32a.76.76,0,0,1,.64.84l-.34,2.35-9-1.28Z"/><path class="l" d="M50.83,300.26a8.7,8.7,0,0,0-1.37,2.46c-.35,4.76,1.82,5.42-3.81,8.06,0,0-2.4.92-2.44-.94s1.66-1.9,1.35-4.51c-.36-3-.32-3,1.66-4.62l1.3-2.16Z"/><path class="m" d="M47.48,301.61a19.66,19.66,0,0,0,4.42.25s6.29-19.45,7.1-21.23,18.71-22.81,18.71-22.81l-7.46-18.65S50.9,271.5,48.94,276c-3.25,7.5-4.38,24.33-4.38,24.33A8,8,0,0,0,47.48,301.61Z"/><path class="s" d="M72.49,227.48s1.16-.19,1-1.78-.19-3.68,1.11-3.3,1.36,1.43,1.89.82.54-3.16,4.4-3.33,5.43,1.16,7.22.37,1.89-3.5,1.89-3.5A3.1,3.1,0,0,1,88.7,218s3-4.1-.47-6.9-7-1-9-.85c-4.42.27-7.27.53-8.71,3.43S69.66,224.69,72.49,227.48Z"/><path class="t" d="M48.75,302.36s1.27,1.32,1.35,1.87c.26,1.77.85,2.53.55,2.73-.61.4-1.43-.91-1.81-2.09A5.37,5.37,0,0,1,48.75,302.36Z"/><path class="q" d="M411.29,311.39l1.81,1.47s4.95-1.77,6.07,4.11c0,0,.29,2.51-1.29,2.51s-.94-.27-3.18-.21-4.12-1.12-4.45-2.94l-1.07-1.55Z"/><path class="u" d="M411.09,314.55a3.69,3.69,0,0,0,1.32-2.62S395.7,298.24,394,297.13a207.22,207.22,0,0,1-19.21-18.33c-2.86-3.3-6.39-2-10.44-.86l-3.33,1c-4,1.15-5.07,6.78-1.77,9.51,9.3,7.7,24.76,16.36,27.65,18.18,7.18,4.52,21.24,9.88,21.24,9.88A8.9,8.9,0,0,0,411.09,314.55Z"/><path class="n" d="M430.16,398.62a12.59,12.59,0,0,0,10.27,1.43s5-1.14,6.11,1.36c0,0-7.68,3.9-9.63,5a24.27,24.27,0,0,0-4.08,3.06,2,2,0,0,1-2.91-.23c-.34-.41-.73-.91-1.15-1.48-1.19-1.61-3.95-6.79-3.95-6.79Z"/><path class="o" d="M432.54,397.08s-2.47,5.69-8.17,4.64c0,0-11.63-9.6-19.61-19.58a44.47,44.47,0,0,1-6.1-9.53c-5.29-12.25-19.57-30.53-28.66-39.79l22.72-8.22s7.28,14.64,17,32.62C416.66,370.18,424.89,384.87,432.54,397.08Z"/><path class="p" d="M409.69,357.22l-4.93,24.92a44.47,44.47,0,0,1-6.1-9.53c-5.29-12.25-19.57-30.53-28.66-39.79l22.72-8.22S400,339.24,409.69,357.22Z"/><path class="n" d="M391.11,401.92s-.24,4.55,5.26,5.16c0,0,3.15,0,3.16,2.9l-16,0a12.61,12.61,0,0,1-.58-3.66c-.08-1.92,1.86-6.94,1.86-6.94Z"/><path class="o" d="M385.27,324.6s10.12,11.12,16.55,31.16c3.5,10.9-6.41,38.31-8.34,47.84,0,0-6.64.56-11.18-1.2,0,0-.35-19.66,2.31-34.83,1.48-8.48-13.33-18.14-19.8-33.47-4.41-10.43.95-10.26,7.53-10.51Z"/><path class="v" d="M373.59,275c-5.63,3.18-17.16.25-17.16.25s4.68-5.35,2.55-14l4.42,2.24,4.75,2.41a38.75,38.75,0,0,1,.52,4.26c.06.71.11,1.49.14,2.35A14.91,14.91,0,0,1,373.59,275Z"/><path class="m" d="M394.24,324c0,1-1.14,1.46-1.38,1.51-2.28.41-8.62,2.88-14.33,3.45a46.14,46.14,0,0,1-14.19-1c-.65-.13-2.17-.54-2.28-1.17s-18.93-38.3-4.32-54.47c.35-.38,3.23.31,5.87.93a10.8,10.8,0,0,0,6.66-.54l2.47,1.3c3,1.69,8.79,7.7,9.46,12.42.34,2.4,1.71,4.18,2.11,6.29q.22,1.17.45,2.28.45,2.19.93,4.17c.85,3.57,1.76,6.64,2.65,9.29,1,2.82,1.88,5.16,2.71,7.12,1.08,2.54,2,4.44,2.56,5.9A7.28,7.28,0,0,1,394.24,324Z"/><path class="r" d="M393.61,321.55c-26.53-12.5-35.72-36.5-35.72-36.5s21.55,7.95,26.87,10q.45,2.19.93,4.17c.85,3.57,1.76,6.64,2.65,9.29,1,2.82,1.88,5.16,2.71,7.12C392.13,318.19,393,320.09,393.61,321.55Z"/><path class="q" d="M368.67,270.17c-5.53.31-9.14-4.26-9.14-4.26a43.53,43.53,0,0,0,3.87-2.41l4.75,2.41A38.75,38.75,0,0,1,368.67,270.17Z"/><path class="v" d="M371,264.49s-8.39,6-12.06.73-7.22-8.06-2-12.13,7.66-2.78,9.31-1.32S373.12,262.78,371,264.49Z"/><path class="s" d="M367.15,247a13.43,13.43,0,0,0-1-3.46s-.53,2.18-4.51,1.88-10.31.4-12.41,4.94a6.9,6.9,0,0,0-.36.89,10.25,10.25,0,0,1-.48-2.52,7.72,7.72,0,0,0,0,4.4h0l0,.22a8.84,8.84,0,0,0-1.62,3,2.82,2.82,0,0,1,1.49-1.32c0,3.53,1.42,7,3.93,8,3.68,1.5,3.65.36,7.35,2.81,0,0,1-1.23.32-2.06s-3.23-2-1.81-3.23,2,.15,2.49-.68-2.11-3.23,1.28-5.49S367.45,249,367.15,247Z"/><path class="a" d="M374.44,287.34a40.91,40.91,0,1,1,49.82,29.42A40.91,40.91,0,0,1,374.44,287.34Z"/><path class="b" d="M423.47,313.71a37.26,37.26,0,1,1,22.81-17.14A37,37,0,0,1,423.47,313.71Zm-18-70a35.06,35.06,0,1,0,42.68,25.21A35.09,35.09,0,0,0,405.45,243.66Z"/><path class="v" d="M409.69,318.39s4.48,1.51,7.07,1.45,7.09-2.78,7.09-3-2-1.36-5-1-3.55-.07-2.63-.43,1.76-1,1.51-1.42c-.14-.22-1.62.25-2.12.42s-1.77-.3-2.82.46a12.6,12.6,0,0,1-3.32.88Z"/><path class="m" d="M411.46,316.93l1.15-3.24S394.94,300,393.15,298.84c-1.23-.79-13.42-9.43-19.43-16.26a12.22,12.22,0,0,0-12-3.81l-3.61.85a5.41,5.41,0,0,0-2.18,9.46c9.8,8,26.21,17.1,29.28,19,7.61,4.73,24.34,11.21,24.34,11.21A4.26,4.26,0,0,0,411.46,316.93Z"/><circle class="d" cx="328.77" cy="390.07" r="19.89"/><circle class="b" cx="327.04" cy="390.07" r="19.89"/><path class="a" d="M327,408.42a18.11,18.11,0,1,1,12.81-5.3A18,18,0,0,1,327,408.42Zm0-35.15a17,17,0,1,0,17,17A17.05,17.05,0,0,0,327,373.27Z"/><path class="b" d="M400,280.19l4.13-1.17-5.43-19,10.63-3a20.61,20.61,0,0,1,5.6-.85,12,12,0,0,1,4.78.89,10.07,10.07,0,0,1,3.74,2.78,14.2,14.2,0,0,1,2.89,10.35,10.86,10.86,0,0,1-1.8,4.48A12.37,12.37,0,0,1,421,278a19.29,19.29,0,0,1-5.09,2.23L410,281.87l1.71,6,9.36-2.67,1.12,3.95-9.35,2.66,2.4,8.42-4.65,1.32-2.4-8.41-4.13,1.17-1.12-3.94,4.13-1.18-1.72-6-4.13,1.17Zm14.76-4.2a10.13,10.13,0,0,0,5.77-3.68q1.76-2.54.67-6.35t-3.88-4.91a10.74,10.74,0,0,0-6.8.07l-6,1.7,4.23,14.87Z"/><path class="b" d="M528.39,55.68l1.61-.46-2.12-7.44L532,46.59a8,8,0,0,1,2.19-.33,4.69,4.69,0,0,1,1.87.35,4,4,0,0,1,1.46,1.08,5.54,5.54,0,0,1,1.13,4.05,4.22,4.22,0,0,1-.7,1.75,4.9,4.9,0,0,1-1.42,1.33,8,8,0,0,1-2,.87l-2.29.65L533,58.7l3.66-1.05.44,1.54-3.66,1.05.94,3.29-1.82.52-.94-3.3-1.61.46-.44-1.54,1.62-.46-.68-2.35-1.61.46ZM534.15,54a4,4,0,0,0,2.26-1.44,2.82,2.82,0,0,0,.26-2.48,2.64,2.64,0,0,0-1.51-1.92,4.17,4.17,0,0,0-2.66,0l-2.34.66,1.66,5.81Z"/><path class="b" d="M572.59,84.39l.91,0-.14-4.21,2.35-.07a4.16,4.16,0,0,1,1.2.11,2.61,2.61,0,0,1,.94.43,2.23,2.23,0,0,1,.63.76,2.73,2.73,0,0,1,.25,1.13,2.67,2.67,0,0,1-.19,1.16,2.27,2.27,0,0,1-.6.83A2.84,2.84,0,0,1,577,85a4.26,4.26,0,0,1-1.16.2l-1.3,0,0,1.33,2.07-.07,0,.87-2.07.07.07,1.86-1,0-.06-1.86-.91,0,0-.87.91,0-.05-1.34-.91,0Zm3.26-.11a2.13,2.13,0,0,0,1.38-.46,1.53,1.53,0,0,0,.46-1.28,1.44,1.44,0,0,0-.54-1.21,2.31,2.31,0,0,0-1.41-.33l-1.32,0,.11,3.29Z"/><path class="b" d="M562.88,121.17l.91,0-.14-4.2,2.35-.08a4.16,4.16,0,0,1,1.2.11,2.61,2.61,0,0,1,.94.43,2.23,2.23,0,0,1,.63.76,2.77,2.77,0,0,1,.25,1.13,2.65,2.65,0,0,1-.19,1.16,2.27,2.27,0,0,1-.6.83,2.84,2.84,0,0,1-.92.51,4.26,4.26,0,0,1-1.16.2l-1.3,0,0,1.33,2.07-.07,0,.88-2.07.06.07,1.86-1,0-.06-1.86-.91,0,0-.87.91,0,0-1.33-.91,0Zm3.26-.11a2.13,2.13,0,0,0,1.38-.46,1.52,1.52,0,0,0,.46-1.27,1.41,1.41,0,0,0-.54-1.21,2.24,2.24,0,0,0-1.41-.34l-1.32,0,.11,3.29Z"/><path class="a" d="M359.69,143.24l4.29.07.29-19.8,11.05.16a20.81,20.81,0,0,1,5.61.8,12,12,0,0,1,4.31,2.23,10.05,10.05,0,0,1,2.79,3.74,12.73,12.73,0,0,1,1,5.35,12.48,12.48,0,0,1-1.17,5.39,10.69,10.69,0,0,1-3,3.77,12.33,12.33,0,0,1-4.44,2.2,19.45,19.45,0,0,1-5.51.67l-6.1-.09-.09,6.27,9.73.14-.06,4.1-9.73-.15-.13,8.75-4.83-.07.13-8.75-4.29-.06.06-4.1,4.29.06.09-6.27-4.29-.06Zm15.34.23a10,10,0,0,0,6.58-1.86q2.42-1.92,2.47-5.89c0-2.65-.72-4.58-2.3-5.81a10.64,10.64,0,0,0-6.52-1.89l-6.22-.1-.23,15.46Z"/><path class="a" d="M127.87,365.83l3.68,2.19,10.13-17,9.5,5.65a20.62,20.62,0,0,1,4.46,3.49,12,12,0,0,1,2.63,4.09,10.11,10.11,0,0,1,.55,4.63A12.78,12.78,0,0,1,157,374a12.4,12.4,0,0,1-3.7,4.08,10.64,10.64,0,0,1-4.49,1.77,12.5,12.5,0,0,1-4.95-.31,19.52,19.52,0,0,1-5.11-2.17l-5.24-3.12-3.21,5.39,8.36,5-2.1,3.52-8.35-5-4.48,7.52-4.15-2.47,4.48-7.52-3.69-2.2,2.1-3.52,3.68,2.2,3.21-5.39-3.69-2.2Zm13.18,7.85a10,10,0,0,0,6.63,1.67c2-.31,3.73-1.6,5.08-3.87s1.66-4.34.91-6.19A10.73,10.73,0,0,0,149,360.4l-5.35-3.19L135.7,370.5Z"/><path class="a" d="M320.61,392.64l1.72-.74L318.89,384l4.42-1.93a9.72,9.72,0,0,1,2.38-.69,5.32,5.32,0,0,1,2.12.12,4.54,4.54,0,0,1,1.78,1,6.28,6.28,0,0,1,1.84,4.31,4.86,4.86,0,0,1-.52,2.05,5.43,5.43,0,0,1-1.38,1.67,8.79,8.79,0,0,1-2.07,1.26L325,392.8l1.09,2.51,3.89-1.69.72,1.64-3.9,1.69,1.52,3.5-1.93.84-1.52-3.5-1.72.75-.71-1.65,1.71-.74-1.09-2.51-1.71.74Zm6.15-2.67a4.36,4.36,0,0,0,2.28-1.92,3.13,3.13,0,0,0-.08-2.79,2.93,2.93,0,0,0-1.95-1.89,4.62,4.62,0,0,0-2.94.41l-2.49,1.09,2.68,6.19Z"/></svg>