<svg xmlns="http://www.w3.org/2000/svg" xmlns:xlink="http://www.w3.org/1999/xlink" viewBox="0 0 285.63 163.68"><defs><style>.a{opacity:0.3;}.b{fill:#e5e5e5;}.c{fill:url(#a);}.d{fill:#53b439;}</style><linearGradient id="a" y1="70.75" x2="248.23" y2="70.75" gradientUnits="userSpaceOnUse"><stop offset="0" stop-color="#eb4248"/><stop offset="0.37" stop-color="#f99424"/><stop offset="0.55" stop-color="#ffb815"/><stop offset="0.6" stop-color="#e9ba13"/><stop offset="0.71" stop-color="#b2c00f"/><stop offset="0.86" stop-color="#5aca07"/><stop offset="1" stop-color="#00d300"/></linearGradient></defs><g class="a"><path d="M98.08,83.15h24.23v4.94a66.26,66.26,0,0,0-5.06,6.68,50.14,50.14,0,0,0-4,7.33,49.54,49.54,0,0,0-2.75,8.19,54.46,54.46,0,0,0-1.42,9.25h-6.32a44.25,44.25,0,0,1,1.44-8.52,53.34,53.34,0,0,1,2.93-8.17,58.31,58.31,0,0,1,4.17-7.59,66.44,66.44,0,0,1,5.11-6.81H98.08Z"/><path d="M144.42,92.35a5.74,5.74,0,0,0-1.55-3.61,4.78,4.78,0,0,0-3.61-1.38,5.74,5.74,0,0,0-2.71.6,5.93,5.93,0,0,0-1.92,1.59,8.25,8.25,0,0,0-1.26,2.26,17.56,17.56,0,0,0-.79,2.67,23,23,0,0,0-.43,2.79c-.08.91-.16,1.77-.23,2.57l.1.1a7.65,7.65,0,0,1,3.22-3.25,9.42,9.42,0,0,1,4.42-1.06,11.41,11.41,0,0,1,4.71.93,10.33,10.33,0,0,1,3.51,2.58,11.16,11.16,0,0,1,2.2,3.87,14.84,14.84,0,0,1,.76,4.84,14.26,14.26,0,0,1-.83,4.91,11.83,11.83,0,0,1-2.4,3.95,10.9,10.9,0,0,1-3.75,2.62,11.92,11.92,0,0,1-4.8.94,12.4,12.4,0,0,1-6.4-1.48,10.7,10.7,0,0,1-3.95-4.06,18.07,18.07,0,0,1-2-6,47.09,47.09,0,0,1-.55-7.46,32.44,32.44,0,0,1,.68-6.6,20,20,0,0,1,2.25-6.06,13.2,13.2,0,0,1,4.12-4.44,12,12,0,0,1,10.3-1,10.77,10.77,0,0,1,3.31,2,10.18,10.18,0,0,1,2.35,3.12,9.93,9.93,0,0,1,1,4Zm-5.57,23a5.41,5.41,0,0,0,2.73-.65,6,6,0,0,0,1.95-1.69,7.08,7.08,0,0,0,1.17-2.42,10.67,10.67,0,0,0,.38-2.83,10.53,10.53,0,0,0-.38-2.81,6.78,6.78,0,0,0-1.17-2.36,6,6,0,0,0-1.95-1.64,5.73,5.73,0,0,0-2.73-.62,6,6,0,0,0-2.75.6,5.72,5.72,0,0,0-2,1.61,6.87,6.87,0,0,0-1.22,2.36,10.42,10.42,0,0,0,0,5.72A7.56,7.56,0,0,0,134.1,113a5.72,5.72,0,0,0,4.75,2.31Z"/><path d="M160.71,110.34a5.7,5.7,0,0,0,1.54,3.61,4.81,4.81,0,0,0,3.62,1.38,5.26,5.26,0,0,0,3.71-1.27,8.59,8.59,0,0,0,2.16-3.17,16.68,16.68,0,0,0,1-4.06c.19-1.44.33-2.76.43-4l-.1-.1a8.05,8.05,0,0,1-3.19,3.25,9,9,0,0,1-4.45,1.12,11.48,11.48,0,0,1-4.58-.89,10.29,10.29,0,0,1-3.51-2.47,11,11,0,0,1-2.28-3.84,15,15,0,0,1-.81-5.07,14.41,14.41,0,0,1,.81-4.91,11.36,11.36,0,0,1,2.38-4,10.75,10.75,0,0,1,3.84-2.62,13.56,13.56,0,0,1,5.16-.94,11.69,11.69,0,0,1,6.18,1.49,10.4,10.4,0,0,1,3.81,4A18.94,18.94,0,0,1,178.41,94a47.22,47.22,0,0,1,.56,7.43,33.09,33.09,0,0,1-.68,6.6,20.51,20.51,0,0,1-2.25,6.06,13.35,13.35,0,0,1-4.13,4.45,11.06,11.06,0,0,1-6.3,1.71,10.92,10.92,0,0,1-7.31-2.75A10.59,10.59,0,0,1,156,114.4a10,10,0,0,1-1-4.06Zm5.51-23a5.85,5.85,0,0,0-2.73.6,5.26,5.26,0,0,0-1.92,1.64A7.25,7.25,0,0,0,160.43,92a10.47,10.47,0,0,0-.38,2.81,10.94,10.94,0,0,0,.38,2.88,7.22,7.22,0,0,0,1.14,2.42,5.81,5.81,0,0,0,1.92,1.69,5.51,5.51,0,0,0,2.73.65,6.06,6.06,0,0,0,2.83-.63,5.47,5.47,0,0,0,2-1.69,7.81,7.81,0,0,0,1.19-2.44,10.18,10.18,0,0,0,.41-2.88,9.75,9.75,0,0,0-.41-2.81,7.33,7.33,0,0,0-1.19-2.37,5.84,5.84,0,0,0-2-1.63A6.06,6.06,0,0,0,166.22,87.36Z"/></g><g class="a"><path d="M252.63,154.18a6.38,6.38,0,0,0,1.08-.1,3.13,3.13,0,0,0,.95-.32,2.29,2.29,0,0,0,.73-.57,1.75,1.75,0,0,0,.39-.86h1.44v11.12h-1.93v-7.84h-2.66Z"/><path d="M264.7,152.11a3.06,3.06,0,0,1,1.9.55,3.64,3.64,0,0,1,1.14,1.4,6.5,6.5,0,0,1,.56,1.86,15.09,15.09,0,0,1,.14,2,14.85,14.85,0,0,1-.14,2,6.57,6.57,0,0,1-.56,1.87,3.72,3.72,0,0,1-1.14,1.4,3.54,3.54,0,0,1-3.79,0,3.84,3.84,0,0,1-1.15-1.4,6.56,6.56,0,0,1-.55-1.87,13.37,13.37,0,0,1-.15-2,13.58,13.58,0,0,1,.15-2,6.49,6.49,0,0,1,.55-1.86,3.76,3.76,0,0,1,1.15-1.4A3,3,0,0,1,264.7,152.11Zm0,10.06a1.44,1.44,0,0,0,1-.34,2.32,2.32,0,0,0,.61-.93,5.35,5.35,0,0,0,.32-1.35,14.46,14.46,0,0,0,.09-1.66,14.11,14.11,0,0,0-.09-1.64,5.66,5.66,0,0,0-.32-1.36,2.32,2.32,0,0,0-.61-.93,1.39,1.39,0,0,0-1-.34,1.36,1.36,0,0,0-1,.34,2.32,2.32,0,0,0-.61.93,5.67,5.67,0,0,0-.31,1.36,12.14,12.14,0,0,0-.1,1.64,12.45,12.45,0,0,0,.1,1.66,5.37,5.37,0,0,0,.31,1.35,2.32,2.32,0,0,0,.61.93A1.41,1.41,0,0,0,264.7,162.17Z"/><path d="M273.3,152.11a3,3,0,0,1,1.89.55,3.64,3.64,0,0,1,1.14,1.4,6.2,6.2,0,0,1,.56,1.86,13.58,13.58,0,0,1,.15,2,13.37,13.37,0,0,1-.15,2,6.26,6.26,0,0,1-.56,1.87,3.72,3.72,0,0,1-1.14,1.4,3.54,3.54,0,0,1-3.79,0,3.72,3.72,0,0,1-1.14-1.4,6.57,6.57,0,0,1-.56-1.87,14.85,14.85,0,0,1-.14-2,15.09,15.09,0,0,1,.14-2,6.5,6.5,0,0,1,.56-1.86,3.64,3.64,0,0,1,1.14-1.4A3.06,3.06,0,0,1,273.3,152.11Zm0,10.06a1.44,1.44,0,0,0,1-.34,2.43,2.43,0,0,0,.61-.93,5.37,5.37,0,0,0,.31-1.35,14.38,14.38,0,0,0,.1-1.66,14,14,0,0,0-.1-1.64,5.67,5.67,0,0,0-.31-1.36,2.43,2.43,0,0,0-.61-.93,1.54,1.54,0,0,0-1.93,0,2.42,2.42,0,0,0-.6.93,5.66,5.66,0,0,0-.32,1.36,14.11,14.11,0,0,0-.09,1.64,14.46,14.46,0,0,0,.09,1.66,5.35,5.35,0,0,0,.32,1.35,2.42,2.42,0,0,0,.6.93A1.43,1.43,0,0,0,273.3,162.17Z"/><path d="M281.89,152.11a3.08,3.08,0,0,1,1.9.55,3.64,3.64,0,0,1,1.14,1.4,6.5,6.5,0,0,1,.56,1.86,15.09,15.09,0,0,1,.14,2,14.85,14.85,0,0,1-.14,2,6.57,6.57,0,0,1-.56,1.87,3.72,3.72,0,0,1-1.14,1.4,3.15,3.15,0,0,1-1.9.55,3.11,3.11,0,0,1-1.89-.55,3.84,3.84,0,0,1-1.15-1.4,6.56,6.56,0,0,1-.55-1.87,13.37,13.37,0,0,1-.15-2,13.58,13.58,0,0,1,.15-2,6.49,6.49,0,0,1,.55-1.86,3.76,3.76,0,0,1,1.15-1.4A3,3,0,0,1,281.89,152.11Zm0,10.06a1.44,1.44,0,0,0,1-.34,2.32,2.32,0,0,0,.61-.93,5.35,5.35,0,0,0,.32-1.35,14.46,14.46,0,0,0,.09-1.66,14.11,14.11,0,0,0-.09-1.64,5.66,5.66,0,0,0-.32-1.36,2.32,2.32,0,0,0-.61-.93,1.39,1.39,0,0,0-1-.34,1.36,1.36,0,0,0-1,.34,2.32,2.32,0,0,0-.61.93,5.67,5.67,0,0,0-.31,1.36,12.14,12.14,0,0,0-.1,1.64,12.45,12.45,0,0,0,.1,1.66,5.37,5.37,0,0,0,.31,1.35,2.32,2.32,0,0,0,.61.93A1.41,1.41,0,0,0,281.89,162.17Z"/></g><g class="a"><path d="M15,152.11a3,3,0,0,1,1.89.55,3.76,3.76,0,0,1,1.15,1.4,6.49,6.49,0,0,1,.55,1.86,13.58,13.58,0,0,1,.15,2,13.37,13.37,0,0,1-.15,2,6.56,6.56,0,0,1-.55,1.87,3.84,3.84,0,0,1-1.15,1.4,3.11,3.11,0,0,1-1.89.55,3.11,3.11,0,0,1-1.89-.55,3.84,3.84,0,0,1-1.15-1.4,6.25,6.25,0,0,1-.55-1.87,13.37,13.37,0,0,1-.15-2,13.58,13.58,0,0,1,.15-2,6.19,6.19,0,0,1,.55-1.86,3.76,3.76,0,0,1,1.15-1.4A3,3,0,0,1,15,152.11Zm0,10.06a1.44,1.44,0,0,0,1-.34,2.32,2.32,0,0,0,.61-.93,5.82,5.82,0,0,0,.32-1.35,14.46,14.46,0,0,0,.09-1.66,14.11,14.11,0,0,0-.09-1.64,6.18,6.18,0,0,0-.32-1.36A2.32,2.32,0,0,0,16,154,1.54,1.54,0,0,0,14,154a2.42,2.42,0,0,0-.6.93,6.18,6.18,0,0,0-.32,1.36,14.11,14.11,0,0,0-.09,1.64,14.46,14.46,0,0,0,.09,1.66,5.82,5.82,0,0,0,.32,1.35,2.42,2.42,0,0,0,.6.93A1.45,1.45,0,0,0,15,162.17Z"/></g><path class="b" d="M141.5,29.52a112,112,0,0,1,112,112H283a141.5,141.5,0,0,0-283,0H29.52A112,112,0,0,1,141.5,29.52Z"/><path class="c" d="M226.23,68.28l22-19.67A141.49,141.49,0,0,0,0,141.5H29.52A112,112,0,0,1,226.23,68.28Z"/><circle class="d" cx="220.67" cy="74.2" r="4.09"/></svg>