<svg xmlns="http://www.w3.org/2000/svg" viewBox="0 0 1030 280"><defs><style>.a{fill:#ffc951;}</style></defs><path d="M91.4,84.23h64.09v14H107.65v21.58h24.7q9.89,0,16.12,2.79a24.94,24.94,0,0,1,9.62,7.09,24.51,24.51,0,0,1,4.62,9.29,39.17,39.17,0,0,1,1.23,9.3,39.9,39.9,0,0,1-1.23,9.36,24.43,24.43,0,0,1-4.62,9.36,25.45,25.45,0,0,1-9.62,7.15q-6.24,2.87-16.12,2.86H91.4Zm16.25,79.56h24a27.72,27.72,0,0,0,6.11-.65,12.41,12.41,0,0,0,5.07-2.41,12.12,12.12,0,0,0,3.51-4.74,18.93,18.93,0,0,0,1.3-7.54,16.16,16.16,0,0,0-1.49-7.35,13.05,13.05,0,0,0-3.9-4.68,16,16,0,0,0-5.27-2.53,21.21,21.21,0,0,0-5.59-.78H107.65Z"/><path d="M187.6,147.28a25.72,25.72,0,0,0,1.11,7.54,18.48,18.48,0,0,0,3.31,6.37,15.93,15.93,0,0,0,5.59,4.35,18.34,18.34,0,0,0,8.06,1.63q6.5,0,10.47-2.8a16.49,16.49,0,0,0,5.91-8.38h14a27.88,27.88,0,0,1-4,9.75,28.19,28.19,0,0,1-6.89,7.21,29.67,29.67,0,0,1-9,4.42,36.31,36.31,0,0,1-10.47,1.5,35.62,35.62,0,0,1-14-2.6A29.06,29.06,0,0,1,181.29,169a31,31,0,0,1-6.37-11.18,45.69,45.69,0,0,1-2.14-14.3,40.39,40.39,0,0,1,2.28-13.59,34.6,34.6,0,0,1,6.5-11.31A30.49,30.49,0,0,1,205.28,108a30.08,30.08,0,0,1,14.23,3.31A31.17,31.17,0,0,1,230,120.11a35.47,35.47,0,0,1,6,12.54,38.55,38.55,0,0,1,1,14.63Zm34.58-9.75a23.93,23.93,0,0,0-1.5-6.76,18,18,0,0,0-3.37-5.66,17,17,0,0,0-5.21-3.9,15.38,15.38,0,0,0-6.82-1.49,17.85,17.85,0,0,0-7.09,1.36,16.32,16.32,0,0,0-5.46,3.77,18.62,18.62,0,0,0-3.63,5.66,19.84,19.84,0,0,0-1.5,7Z"/><path d="M247.27,128q1.81-10.39,9-15.21T275.35,108a44.75,44.75,0,0,1,10.92,1.3,29.89,29.89,0,0,1,9.1,3.83,19.88,19.88,0,0,1,6.17,6.18,15.58,15.58,0,0,1,2.28,8.45A14.68,14.68,0,0,1,301,137a14.46,14.46,0,0,1-7.73,5.07v.26a16.15,16.15,0,0,1,9.23,5.26,15.55,15.55,0,0,1,3.77,10.73,17.3,17.3,0,0,1-2.54,9.62,19.61,19.61,0,0,1-6.63,6.3,30.52,30.52,0,0,1-9.23,3.51,48.69,48.69,0,0,1-10.33,1.11q-14.3,0-22.81-5.33t-10.6-17.68H259a13.69,13.69,0,0,0,2,5.59,12.49,12.49,0,0,0,3.64,3.57,13.88,13.88,0,0,0,4.88,1.89,30.2,30.2,0,0,0,5.72.52q7.15,0,11.57-2.54t4.42-8.12c0-3.12-1-5.42-2.92-6.89s-5.05-2.21-9.3-2.21H268.2V136h10.92a15.26,15.26,0,0,0,7.6-1.6c1.87-1.07,2.8-3.09,2.8-6.08,0-3.24-1.35-5.48-4-6.71a25,25,0,0,0-10.4-1.86c-4.34,0-7.56.6-9.69,1.79s-3.48,3.37-4.09,6.53Z"/><path d="M355,109.84h14.82V137l26.78-27.17h18.2l-25.74,24.7,28.21,42.51H399.24L378.7,144.42,369.86,153v24.05H355Z"/><path d="M424.85,109.84h14v9.1h.26a18.32,18.32,0,0,1,8.71-8.39A28.88,28.88,0,0,1,460,108a32.13,32.13,0,0,1,13.84,2.79,27.33,27.33,0,0,1,9.82,7.67,33.37,33.37,0,0,1,5.85,11.38,48.16,48.16,0,0,1,2,13.91,49.21,49.21,0,0,1-1.76,13.13,34,34,0,0,1-5.33,11.24,26.6,26.6,0,0,1-9,7.8,26.87,26.87,0,0,1-12.87,2.93,36.55,36.55,0,0,1-6.5-.59,28.3,28.3,0,0,1-6.24-1.88,24.39,24.39,0,0,1-5.53-3.32,18.16,18.16,0,0,1-4.22-4.74h-.26v33.54H424.85Zm51.74,33.67a33.46,33.46,0,0,0-1.17-8.84,24,24,0,0,0-3.51-7.61,18.2,18.2,0,0,0-5.85-5.33,15.94,15.94,0,0,0-8.06-2q-9.36,0-14.11,6.5t-4.74,17.29a34.51,34.51,0,0,0,1.23,9.42,21.24,21.24,0,0,0,3.71,7.48,18.44,18.44,0,0,0,5.91,4.94,16.92,16.92,0,0,0,8,1.82,16.53,16.53,0,0,0,8.58-2.08,18.21,18.21,0,0,0,5.78-5.4,21.79,21.79,0,0,0,3.25-7.54A38.22,38.22,0,0,0,476.59,143.51Z"/><path d="M515.46,147.28a25.71,25.71,0,0,0,1.1,7.54,18.5,18.5,0,0,0,3.32,6.37,15.84,15.84,0,0,0,5.59,4.35,18.34,18.34,0,0,0,8.06,1.63q6.5,0,10.46-2.8a16.51,16.51,0,0,0,5.92-8.38h14A27.84,27.84,0,0,1,553,173a29.61,29.61,0,0,1-9,4.42,36.24,36.24,0,0,1-10.46,1.5,35.62,35.62,0,0,1-14-2.6A29,29,0,0,1,509.15,169a30.87,30.87,0,0,1-6.37-11.18,45.4,45.4,0,0,1-2.14-14.3,40.38,40.38,0,0,1,2.27-13.59,34.78,34.78,0,0,1,6.5-11.31A30.53,30.53,0,0,1,533.14,108a30.11,30.11,0,0,1,14.23,3.31,31.37,31.37,0,0,1,10.47,8.78,35.64,35.64,0,0,1,6,12.54,38.55,38.55,0,0,1,1,14.63ZM550,137.53a24.28,24.28,0,0,0-1.5-6.76,18,18,0,0,0-3.38-5.66,16.8,16.8,0,0,0-5.2-3.9,15.41,15.41,0,0,0-6.82-1.49,17.82,17.82,0,0,0-7.09,1.36,16.32,16.32,0,0,0-5.46,3.77,18.65,18.65,0,0,0-3.64,5.66,19.61,19.61,0,0,0-1.49,7Z"/><path d="M583.32,197.46H569.67V166h8.45a9.44,9.44,0,0,0,3.64-1.95,12.57,12.57,0,0,0,4.42-6.76,41.51,41.51,0,0,0,1.23-4.88q.45-2.4.78-5.13t.46-6.11q.12-3.37.26-7.8c.08-3,.15-6.31.19-10.08s.07-8.25.07-13.45h55.77V166h12v31.46H643.25V177.05H583.32Zm46.8-76.57H604q0,8.44-.13,14.88c-.09,4.29-.24,8.09-.46,11.38s-.5,6.17-.84,8.64a41.41,41.41,0,0,1-1.43,6.57A38,38,0,0,1,600,166h30.16Z"/><path d="M666.39,109.84h14.82V156h.25L711,109.84h18.33v67.21H714.49V130.51h-.26l-30.16,46.54H666.39Z"/><path d="M798.86,120.89H776.62v56.16H761.8V120.89H738.67v-11h60.19Z"/><path d="M838.76,178.87a36.51,36.51,0,0,1-14.36-2.67,30.44,30.44,0,0,1-10.66-7.34,31.25,31.25,0,0,1-6.63-11.18,45.58,45.58,0,0,1,0-28.47A31.25,31.25,0,0,1,813.74,118a30.6,30.6,0,0,1,10.66-7.35,40.12,40.12,0,0,1,28.73,0A30.78,30.78,0,0,1,863.79,118a31.54,31.54,0,0,1,6.63,11.18,45.77,45.77,0,0,1,0,28.47,31.54,31.54,0,0,1-6.63,11.18,30.63,30.63,0,0,1-10.66,7.34A36.57,36.57,0,0,1,838.76,178.87Zm0-11.7a16.93,16.93,0,0,0,8.58-2.08,18.12,18.12,0,0,0,6-5.46,23.87,23.87,0,0,0,3.45-7.61,34.22,34.22,0,0,0,1.1-8.64,34.58,34.58,0,0,0-1.1-8.58,23.1,23.1,0,0,0-3.45-7.61,18.35,18.35,0,0,0-6-5.39,18.74,18.74,0,0,0-17.16,0,18.45,18.45,0,0,0-6,5.39,22.88,22.88,0,0,0-3.44,7.61,34.13,34.13,0,0,0-1.11,8.58,33.78,33.78,0,0,0,1.11,8.64,23.64,23.64,0,0,0,3.44,7.61,18.22,18.22,0,0,0,6,5.46A17,17,0,0,0,838.76,167.17Z"/><path d="M885.43,109.84h35.36q9.11,0,14.56,4.09t5.46,12.55a14.86,14.86,0,0,1-2.53,8.71,16.13,16.13,0,0,1-7.09,5.59V141a14.65,14.65,0,0,1,9.43,5.85,19.5,19.5,0,0,1,3.18,11.44,19,19,0,0,1-1.43,7.34,15.6,15.6,0,0,1-4.42,6,21.28,21.28,0,0,1-7.67,4,38.65,38.65,0,0,1-11.18,1.43H885.43Zm14.82,27.43h15.86a11.33,11.33,0,0,0,7.09-2.15,7.17,7.17,0,0,0,2.79-6c0-3-.84-5.16-2.53-6.37s-4.14-1.82-7.35-1.82H900.25Zm0,28.73H917.8q5.46,0,8.32-2.54a9,9,0,0,0,2.86-7.08,8.59,8.59,0,0,0-2.86-7q-2.86-2.4-8.32-2.4H900.25Z"/><path class="a" d="M1030,280H0V0H1030ZM30,250h970V30H30Z"/></svg>