<svg xmlns="http://www.w3.org/2000/svg" viewBox="0 0 136.47 136.47"><defs><style>.a{fill:#fbc83e;}.b{fill:#fff;}.c{fill:#a5a5a5;}.d{fill:#d8d8d8;}</style></defs><circle class="a" cx="68.23" cy="68.23" r="63.23"/><path class="b" d="M68.23,136.47a68.24,68.24,0,1,1,68.24-68.24A68.31,68.31,0,0,1,68.23,136.47ZM68.23,10a58.24,58.24,0,1,0,58.24,58.23A58.29,58.29,0,0,0,68.23,10Z"/><path class="c" d="M54.72,49.46a3.91,3.91,0,0,0-1.19.89,2.55,2.55,0,0,0-.26.3.1.1,0,0,0,0,.05,6.62,6.62,0,0,0-.47.64l0,0-.07.11-.36.6-.07.12a.3.3,0,0,1,0,.08c-.15.28-.29.57-.44.88v0s0,.07-.05.1c-.14.32-.28.67-.43,1a.5.5,0,0,1,0,.13l0,.09c-.12.31-.24.63-.35,1L63,49.7c.11-.34.23-.66.35-1,0-.08.06-.15.08-.22.15-.36.29-.7.43-1l.06-.13c.15-.31.29-.6.44-.88a2,2,0,0,0,.11-.2q.18-.31.36-.6l.1-.15a5.58,5.58,0,0,1,.47-.64l.3-.36a3.78,3.78,0,0,1,.56-.5,4.06,4.06,0,0,1,.63-.38h0Z"/><path class="d" d="M68.79,84.71c.76-.54,1.49-1.09,2.2-1.64l.55-.43c.65-.51,1.28-1,1.89-1.54L73.6,81c.66-.56,1.29-1.13,1.91-1.7l.46-.44c.53-.5,1-1,1.55-1.52.08-.09.17-.17.25-.25.56-.58,1.09-1.17,1.61-1.77.13-.14.26-.29.38-.44s.36-.41.53-.62.34-.43.51-.64l.66-.85.85-1.17.59-.84.21-.3c.32-.49.63-1,.93-1.49.06-.09.11-.18.16-.27.2-.34.4-.68.58-1l.23-.45q.33-.63.63-1.26c.11-.22.22-.42.32-.64s.12-.29.19-.43l.39-.93c.09-.23.2-.46.29-.68l.21-.6.28-.78c.05-.17.12-.34.18-.51.1-.33.19-.67.29-1s.12-.37.17-.56l.06-.21c.15-.57.28-1.13.41-1.71a.8.8,0,0,1,0-.15c0-.14,0-.27.07-.4.07-.37.15-.74.21-1.11l.09-.65c0-.19,0-.37.08-.56l.06-.43c.06-.55.11-1.1.15-1.66v0a.86.86,0,0,0,0-.16c0-.5.06-1,.07-1.5,0-.27,0-.55,0-.82s0-.41,0-.61c0-.38,0-.76,0-1.14,0,0,0-.08,0-.12a1.64,1.64,0,0,0,0-.22c0-.27,0-.53-.07-.79s-.07-.52-.11-.77a2.17,2.17,0,0,0,0-.25.59.59,0,0,0,0-.13c-.06-.4-.14-.8-.23-1.2,0-.09-.05-.17-.07-.26s-.07-.3-.11-.45-.1-.4-.16-.59-.11-.35-.17-.53-.14-.44-.22-.66l-.11-.35c-.13-.35-.27-.69-.42-1a1,1,0,0,0,0-.1c-.17-.4-.36-.79-.55-1.17,0-.08-.09-.15-.13-.22-.21-.41-.44-.81-.68-1.21-.11-.19-.22-.38-.34-.57-.37-.58-.77-1.16-1.19-1.72l-.17-.22c-.31-.39-.63-.77-1-1.14l-.24-.26c-.12-.13-.24-.27-.37-.39s-.39-.38-.59-.56-.22-.22-.34-.32l-.13-.12-.94-.76-.2-.14-.24-.17-.44-.31c-.28-.19-.57-.37-.86-.54l-.09-.05-.14-.08c-.22-.12-.43-.25-.65-.36s-.59-.3-.9-.44l0,0-.07,0-.83-.35c-.28-.12-.57-.22-.87-.32l-.09,0h0c-.36-.13-.72-.24-1.09-.35l-.58-.14-.34-.09L73,29q-.66-.15-1.35-.27l-.29-.05c-.39-.07-.79-.12-1.17-.17H70l-.64-.06-.59,0H68l-.52,0H67.2l-.61,0-.44,0-.26,0-.63.07-.4,0-.24.05-.74.14-.37.07-.16.05c-.45.12-.89.25-1.32.4l-.07,0h0a10.24,10.24,0,0,0-1.08.45l-.06,0L48.6,35.59c.37-.17.75-.33,1.14-.47l.08,0c.43-.15.87-.28,1.32-.4l.53-.12.74-.14c.21,0,.42-.06.64-.09l.63-.07.71-.05.6,0h1.36l.79.06.64.06,1.34.18c.66.11,1.29.24,1.91.39l.34.09c.58.15,1.16.31,1.71.5l.09,0c.58.2,1.15.43,1.7.67l.07,0c.55.24,1.07.52,1.59.81l.13.08c.49.28,1,.58,1.4.9l.24.17c.43.32.86.66,1.27,1l.34.32c.33.31.65.62,1,1l.24.26c.4.44.78.89,1.14,1.36s.82,1.14,1.19,1.72c.12.19.23.38.34.58.24.39.47.79.68,1.2s.47.92.68,1.39l0,.1c.2.45.37.92.53,1.38.08.22.15.44.22.66.12.37.23.75.33,1.13,0,.14.08.29.11.44.13.53.23,1.06.32,1.59,0,.08,0,.17,0,.25.07.51.14,1,.18,1.56,0,.07,0,.15,0,.22,0,.62.07,1.24.07,1.87s0,1.55-.08,2.32a.86.86,0,0,1,0,.16q-.07,1.08-.21,2.13c0,.19,0,.37-.08.56-.09.59-.18,1.17-.3,1.76,0,.13,0,.27-.07.4-.15.7-.32,1.39-.5,2.07,0,.19-.11.38-.17.56-.15.51-.3,1-.47,1.51l-.28.78c-.16.43-.33.86-.5,1.28l-.39.93c-.16.36-.33.71-.51,1.07S73,72.58,72.8,73s-.53,1-.81,1.47c0,.09-.1.18-.16.27-.36.6-.74,1.2-1.14,1.79l-.59.85-.85,1.16c-.21.28-.44.57-.67.85s-.67.84-1,1.26l-.38.45c-.52.59-1,1.18-1.61,1.76l-.25.25c-.5.51-1,1-1.55,1.52l-.47.44c-.61.58-1.24,1.14-1.9,1.7l-.17.14c-.61.52-1.24,1-1.89,1.55l-.55.43c-.71.54-1.44,1.09-2.2,1.63L79,94.18l0,13.91,12.21-5.82,0-13.9Z"/><path class="b" d="M59.12,34.52a19.7,19.7,0,0,1,13.13,7.6A22.59,22.59,0,0,1,77,56.21Q77,76,56.58,90.52L79,94.18l0,13.91-39.3-6.42,0-11.91,4.28-4,4.78-4.68c1-1.15,2.44-2.57,4.19-4.28a37.44,37.44,0,0,0,4.18-5L60,67.25a18.76,18.76,0,0,0,3.06-10.33q0-6.86-5.55-7.76a4.19,4.19,0,0,0-4,1.19,14.43,14.43,0,0,0-2.7,5.16L40,48.08q1.59-7.59,6.51-11.21T59.12,34.52Z"/></svg>