<svg xmlns="http://www.w3.org/2000/svg" viewBox="0 0 136.47 136.47"><defs><style>.a{fill:#fbc83e;}.b{fill:#fff;}.c{isolation:isolate;}.d{fill:#a5a5a5;}.e{fill:#d8d8d8;}</style></defs><circle class="a" cx="68.23" cy="68.23" r="63.23"/><path class="b" d="M68.23,136.47a68.24,68.24,0,1,1,68.24-68.24A68.31,68.31,0,0,1,68.23,136.47ZM68.23,10a58.24,58.24,0,1,0,58.24,58.23A58.29,58.29,0,0,0,68.23,10Z"/><g class="c"><path class="d" d="M77,85.54l-.12,0a7.75,7.75,0,0,1-1,.17h-.1a8.93,8.93,0,0,1-1.16,0h-.08a11.52,11.52,0,0,1-1.36-.15c-.24,0-.47-.08-.71-.14l-.15,0-.55-.15-.18-.06L70.89,85h0c-.22-.08-.44-.18-.66-.28L70,84.58l-.47-.24-.27-.16-.42-.25-.33-.2-.35-.24c-.15-.11-.3-.21-.45-.33a3.55,3.55,0,0,1-.31-.23c-.22-.17-.44-.34-.65-.53l-.24-.2c-.39-.33-.78-.7-1.16-1.08l-.22-.22c-.35-.36-.71-.74-1.06-1.14l-.15-.18c-.34-.38-.67-.79-1-1.21l-.18-.22-.52-.69L62,77.12,61.18,76,49,81.83l.77,1.1.26.34.52.69.07.09.11.14c.33.42.66.82,1,1.2l.15.18c.35.4.71.78,1.06,1.14l.11.12.11.1c.38.38.77.75,1.16,1.09l.06,0,.17.14c.22.19.44.36.66.53l.16.13.15.11.45.32.22.15.13.09.33.21.25.15L57,90l.27.16.2.11.26.13.23.11.11,0c.18.09.36.16.54.24h0l.55.2.13,0,.18.06.23.07.32.08.15,0,.06,0,.54.11.11,0,.61.08q.34,0,.69.06h.63l.59,0h.18l.39,0a3.71,3.71,0,0,0,.58-.11h.06l.11,0a4,4,0,0,0,.46-.14A3,3,0,0,0,65.7,91l12.21-5.81A5.16,5.16,0,0,1,77,85.54Z"/><path class="d" d="M58,61.64l.66.1c.25,0,.51,0,.75.06h.71l.67,0,.14,0H61l.39,0c.23,0,.45-.08.67-.14l.09,0,.18-.06a4.58,4.58,0,0,0,.49-.15,5.25,5.25,0,0,0,.55-.22l12.21-5.82a6.14,6.14,0,0,1-1,.38l-.18,0a8.09,8.09,0,0,1-1.15.21H73.1a9.12,9.12,0,0,1-1.29,0h-.12a11.91,11.91,0,0,1-1.52-.16l-3.48-.57L54.48,61.08Z"/><path class="d" d="M53.58,50.74c-.13.08-.26.19-.38.28s-.51.35-.76.55-.29.27-.43.4-.44.39-.65.6-.3.33-.45.5-.36.37-.53.58l-.14.18L62.45,48a10.08,10.08,0,0,1,.67-.76c.15-.17.29-.34.45-.5s.43-.41.65-.61l.43-.39c.25-.2.51-.38.76-.56s.25-.19.38-.27A9.7,9.7,0,0,1,67,44.27L54.75,50.08A9.7,9.7,0,0,0,53.58,50.74Z"/><path class="e" d="M94.73,82.33c0-.22,0-.44,0-.66s0-.26,0-.38v-.16c0-.39-.07-.78-.11-1.16,0,0,0,0,0-.07s0-.16,0-.25c0-.27-.07-.56-.11-.83l-.06-.27c0-.15-.06-.3-.09-.45s-.05-.3-.08-.45-.08-.28-.11-.42-.09-.36-.14-.53a2.86,2.86,0,0,0-.07-.28c0-.15-.1-.29-.14-.43l-.24-.73L93.39,75c-.07-.2-.15-.39-.23-.58s-.09-.22-.13-.33c-.17-.38-.34-.75-.52-1.12l0,0c-.22-.44-.47-.87-.72-1.3s-.69-1-1.05-1.52a2.14,2.14,0,0,1-.13-.19,1.54,1.54,0,0,1-.17-.19c-.31-.38-.64-.75-1-1.1-.05-.06-.09-.12-.14-.17l-.06,0-.34-.32-.51-.48-.13-.1L88,67.28c-.14-.11-.27-.23-.41-.33l-.34-.24L87,66.53l-.17-.13c-.25-.17-.51-.33-.77-.48l-.07,0-.15-.08-.56-.31-.42-.21-.23-.11-.16-.08-.85-.37-.22-.08v-.19l1.52-.73a10.74,10.74,0,0,0,1.11-.6l.3-.18c.27-.17.53-.35.79-.54l.25-.18c.31-.25.62-.51.9-.78l.16-.16c.23-.24.46-.48.67-.73l.12-.13.11-.15q.27-.33.51-.69c0-.06.09-.11.13-.18a.56.56,0,0,0,0-.08c.11-.16.2-.33.3-.49l.19-.32,0-.07c.06-.11.12-.22.17-.33s.15-.28.21-.42l.06-.13c0-.1.09-.21.13-.32s.11-.24.15-.36l.09-.23c0-.11.07-.22.11-.33l.09-.25.12-.39.09-.31a.74.74,0,0,1,0-.14c.06-.24.12-.49.17-.74l0-.11v0c.07-.3.13-.6.18-.92,0,0,0-.06,0-.1s0-.23,0-.35.05-.36.07-.54a1.49,1.49,0,0,0,0-.21c0-.15,0-.31,0-.47l0-.4c0-.1,0-.19,0-.29s0-.38,0-.57,0-.23,0-.35,0-.42,0-.63,0-.4,0-.6c0-.38,0-.75,0-1.12a1.1,1.1,0,0,0,0-.18,2.11,2.11,0,0,0,0-.25c0-.22,0-.44-.06-.66s-.09-.73-.15-1.08h0v0c-.06-.36-.13-.72-.21-1.07,0-.18-.09-.35-.14-.53l-.09-.36a2.68,2.68,0,0,0-.07-.27c-.13-.45-.28-.9-.44-1.34h0a19.42,19.42,0,0,0-.79-1.81l0-.12c-.12-.23-.25-.43-.37-.65s-.31-.56-.47-.83-.34-.49-.51-.73-.36-.53-.55-.79a1.47,1.47,0,0,1-.1-.13c-.31-.4-.64-.79-1-1.18s-.56-.61-.85-.9l-.26-.24c-.17-.17-.35-.33-.53-.49s-.27-.27-.42-.39-.29-.24-.44-.37l-.36-.29-.24-.18c-.32-.25-.64-.48-1-.7l-.09,0L83,32.06l-.69-.43-.65-.36-.19-.1-.11-.07-1-.47L80,30.46l-.3-.13-.32-.14c-.35-.14-.71-.27-1.07-.39l-.16-.05-.27-.09-.72-.22-.75-.19-.33-.09-.17,0c-.46-.11-.93-.2-1.4-.28l-.3-.06c-.49-.08-1-.15-1.46-.2l-.17,0-.81-.07-.73-.06h-.18l-.74,0-.68,0h-.21c-.24,0-.48,0-.71,0s-.41,0-.61,0l-.23,0c-.25,0-.5.06-.74.09l-.54.05-.22,0c-.28,0-.56.1-.84.16l-.48.09-.15.05a15.48,15.48,0,0,0-1.59.48h0c-.43.15-.84.33-1.25.52L49.65,35.77c.41-.19.83-.37,1.27-.53a15.48,15.48,0,0,1,1.59-.48l.63-.14c.28-.06.55-.12.84-.16l.76-.1.74-.08c.27,0,.55,0,.83-.05l.72,0h.89l.74,0,.9.07c.27,0,.54,0,.82.08.53.06,1.08.13,1.63.22s1.26.23,1.87.37l.33.09q.75.18,1.47.42l.27.08c.53.18,1,.37,1.55.59l.3.12c.5.22,1,.45,1.47.71l.2.11c.45.24.89.51,1.33.79L71,38c.44.29.87.61,1.29.93l.37.3c.29.24.58.49.86.75s.36.32.53.49c.38.37.75.74,1.1,1.14s.75.87,1.1,1.32c.19.25.37.52.55.78s.35.49.51.74l.47.82c.14.26.29.51.42.77A19.42,19.42,0,0,1,79,47.84c.19.53.36,1.07.51,1.61l.09.36c.14.53.26,1.06.35,1.6v0c.1.57.17,1.16.22,1.75a2.29,2.29,0,0,1,0,.25c0,.62.08,1.26.08,1.9,0,.34,0,.66,0,1s0,.39,0,.57,0,.47,0,.69,0,.32,0,.47-.06.51-.09.75,0,.24,0,.35c-.06.36-.12.71-.19,1l0,.11c-.06.3-.13.59-.21.88l-.09.31-.21.64c0,.11-.07.22-.12.33s-.15.4-.23.59-.09.22-.13.32l-.27.55a3.41,3.41,0,0,1-.17.33c-.07.14-.15.26-.22.39l-.3.49-.18.27c-.16.23-.33.46-.51.68l-.23.28c-.21.25-.44.5-.67.73,0,0-.1.11-.16.16-.28.27-.59.53-.9.78l-.25.18c-.26.19-.52.37-.79.54l-.11.07-2.82,1.34v.29c.42.17.83.34,1.23.53l.23.11c.33.17.66.34,1,.52l.16.08c.35.21.68.42,1,.65l.26.18c.25.18.5.37.74.57l.28.22.64.58.34.32.2.22c.34.35.67.72,1,1.1l.3.38c.36.49.72,1,1,1.53s.5.85.72,1.3.38.77.55,1.16c0,.11.08.22.13.33.11.27.22.56.32.84l.24.73c.07.24.15.47.21.71l.14.53c.07.29.13.58.19.87s.07.3.09.46c.07.36.13.73.17,1.1a1.87,1.87,0,0,1,0,.25q.08.68.12,1.38c0,.13,0,.26,0,.38,0,.44,0,.87,0,1.32,0,.75,0,1.48-.1,2.19a2.45,2.45,0,0,1,0,.27c-.06.66-.14,1.3-.25,1.92,0,.07,0,.15,0,.22-.12.62-.25,1.22-.41,1.79a2,2,0,0,0-.07.23c-.17.56-.36,1.11-.57,1.64l-.1.24a15.84,15.84,0,0,1-.75,1.55l-.12.2c-.23.4-.48.78-.74,1.15-.13.19-.27.38-.42.56a10.52,10.52,0,0,1-.75.9c-.11.13-.22.26-.35.39a15.43,15.43,0,0,1-1.25,1.17,16.68,16.68,0,0,1-3.15,2h0l12.21-5.82a16,16,0,0,0,3.15-2,15.43,15.43,0,0,0,1.25-1.17c.13-.13.24-.26.35-.39s.32-.33.47-.51.19-.26.28-.39.29-.37.42-.56.18-.23.26-.35.33-.53.48-.8l.12-.2,0-.08c.18-.32.34-.66.5-1,.07-.15.13-.31.2-.47l.1-.24c0-.08.07-.15.1-.24.12-.3.23-.62.33-.94.05-.15.09-.31.14-.47s0-.14.07-.22,0-.17.07-.26c.09-.32.16-.64.23-1s.07-.37.11-.56,0-.15,0-.22,0-.16,0-.24c.06-.35.11-.71.15-1.07,0-.2,0-.41.06-.61l0-.27a2.46,2.46,0,0,1,0-.28c0-.41,0-.84.06-1.27,0-.21,0-.43,0-.65S94.74,82.55,94.73,82.33Z"/></g><path class="b" d="M62,34.6a21.55,21.55,0,0,1,13.12,7,19.56,19.56,0,0,1,5.11,13.75q0,11.61-9.08,14.81v.29a16.52,16.52,0,0,1,8.39,7,21.4,21.4,0,0,1,3,11.36q0,9.54-5.94,14.42-5.85,4.71-14.8,3.25a26.71,26.71,0,0,1-12.16-5.11,26.09,26.09,0,0,1-7.9-9.68L49,81.83q5.89,8.61,12,9.61,3.66.59,5.65-1a5.43,5.43,0,0,0,2-4.54q0-7.64-10.34-9.33L54.46,76l0-14.89,3.48.56A8.51,8.51,0,0,0,64,60.8a5.2,5.2,0,0,0,2.31-4.74,7.29,7.29,0,0,0-1.38-4.45,6.2,6.2,0,0,0-4.17-2.32q-6.09-1-10.53,4.54L43.13,41.94Q48.71,32.42,62,34.6Z"/></svg>