<svg xmlns="http://www.w3.org/2000/svg" viewBox="0 0 136.47 136.47"><defs><style>.a{fill:#fbc83e;}.b{fill:#fff;}.c{isolation:isolate;}.d{fill:#a5a5a5;}.e{fill:#d8d8d8;}</style></defs><circle class="a" cx="68.23" cy="68.23" r="63.23"/><path class="b" d="M68.23,136.47a68.24,68.24,0,1,1,68.24-68.24A68.31,68.31,0,0,1,68.23,136.47ZM68.23,10a58.24,58.24,0,1,0,58.24,58.23A58.29,58.29,0,0,0,68.23,10Z"/><g class="c"><polygon class="d" points="57.01 54.75 69.22 48.94 63.13 52.81 50.92 58.62 57.01 54.75"/><polygon class="e" points="70.09 35.73 82.31 29.91 82.18 99.43 69.97 105.24 70.09 35.73"/><polygon class="d" points="60.7 34.19 72.92 28.38 82.31 29.91 70.09 35.73 60.7 34.19"/><polygon class="b" points="70.09 35.73 69.97 105.24 56.92 103.11 57.01 54.75 50.92 58.62 44.16 45.21 60.7 34.19 70.09 35.73"/></g></svg>