<svg xmlns="http://www.w3.org/2000/svg" viewBox="0 0 88.61 88.61"><defs><style>.cls-1{fill:#fbc83f;}.cls-2{fill:#0c0d0d;}</style></defs><g id="Слой_2" data-name="Слой 2"><g id="Слой_1-2" data-name="Слой 1"><path class="cls-1" d="M44.3,0V8A36.33,36.33,0,1,1,30,11L26.83,3.58A44.33,44.33,0,1,0,44.3,0Z"/><path class="cls-2" d="M26.64,51.3a8.84,8.84,0,0,0,1.63-.07,5.58,5.58,0,0,0,3.12-1.45,6.48,6.48,0,0,0,2-4H33.3a4.39,4.39,0,0,1-3.52,1.61,4.32,4.32,0,0,1-4.4-4.57,5.11,5.11,0,0,1,5.09-5.3c3.06,0,4.94,2.48,4.94,6.29a9.42,9.42,0,0,1-2.57,7,7.53,7.53,0,0,1-4.34,2,10,10,0,0,1-1.86.11Zm.73-8.58a2.87,2.87,0,0,0,2.87,3.16,3.33,3.33,0,0,0,2.94-1.56,1.27,1.27,0,0,0,.18-.73c0-2.55-.94-4.5-3.05-4.5C28.59,39.09,27.37,40.6,27.37,42.72Z"/><path class="cls-2" d="M45.76,39.23a6.89,6.89,0,0,0-1.51.09,6.06,6.06,0,0,0-5.19,5.3h.07a4.44,4.44,0,0,1,3.6-1.72c2.64,0,4.5,1.9,4.5,4.82a5,5,0,0,1-5,5.25C39.08,53,37,50.49,37,46.62a9.39,9.39,0,0,1,2.53-6.73,8.16,8.16,0,0,1,4.77-2.2,10.08,10.08,0,0,1,1.47-.12Zm-.57,8.6c0-2.13-1.22-3.42-3.08-3.42a3.33,3.33,0,0,0-2.89,1.84,1.71,1.71,0,0,0-.23.9c0,2.45,1.17,4.26,3.28,4.26C44,51.41,45.19,50,45.19,47.83Z"/><path class="cls-2" d="M55.75,42c0,3.15-1.66,4.71-3.58,4.71s-3.47-1.49-3.49-4.5,1.63-4.66,3.6-4.66S55.75,39.16,55.75,42Zm-5.46.14c0,1.91.66,3.35,1.92,3.35s1.93-1.42,1.93-3.39-.53-3.33-1.93-3.33S50.29,40.26,50.29,42.14ZM52,53,60.8,37.55h1.28L53.31,53Zm13.42-4.79c0,3.14-1.65,4.7-3.55,4.7s-3.47-1.49-3.49-4.47S60,43.73,62,43.73,65.45,45.33,65.45,48.18ZM60,48.32c0,1.9.71,3.35,1.95,3.35s1.93-1.43,1.93-3.4c0-1.81-.53-3.33-1.93-3.33S60,46.43,60,48.32Z"/></g></g></svg>