<svg xmlns="http://www.w3.org/2000/svg" viewBox="0 0 88.61 88.61"><defs><style>.cls-1{fill:#0c0d0d;}.cls-2{fill:#5ab031;}</style></defs><g id="Слой_2" data-name="Слой 2"><g id="Слой_1-2" data-name="Слой 1"><path class="cls-1" d="M24,39.69h0l-2.59,1.4-.39-1.54,3.25-1.75h1.73V52.72H24Z"/><path class="cls-1" d="M41.27,45.1c0,5.07-1.88,7.87-5.18,7.87-2.92,0-4.89-2.73-4.94-7.66s2.16-7.76,5.19-7.76S41.27,40.35,41.27,45.1Zm-8.1.23c0,3.88,1.19,6.08,3,6.08,2.07,0,3-2.41,3-6.22s-.94-6.08-3-6.08C34.46,39.11,33.17,41.27,33.17,45.33Z"/><path class="cls-1" d="M53.05,45.1c0,5.07-1.88,7.87-5.19,7.87C45,53,43,50.24,42.93,45.31s2.15-7.76,5.18-7.76S53.05,40.35,53.05,45.1Zm-8.1.23c0,3.88,1.19,6.08,3,6.08C50,51.41,51,49,51,45.19s-.94-6.08-3-6.08C46.23,39.11,45,41.27,45,45.33Z"/><path class="cls-1" d="M61.63,42c0,3.15-1.65,4.71-3.58,4.71s-3.46-1.49-3.48-4.5,1.63-4.66,3.6-4.66S61.63,39.16,61.63,42Zm-5.46.14c0,1.91.67,3.35,1.93,3.35S60,44.07,60,42.1s-.53-3.33-1.93-3.33S56.17,40.26,56.17,42.14ZM57.92,53l8.76-15.42H68L59.2,53Zm13.42-4.79c0,3.14-1.65,4.7-3.55,4.7s-3.47-1.49-3.49-4.47,1.63-4.69,3.6-4.69S71.34,45.33,71.34,48.18Zm-5.46.13c0,1.91.71,3.36,2,3.36s1.93-1.43,1.93-3.4c0-1.81-.53-3.33-1.93-3.33S65.88,46.43,65.88,48.31Z"/><path class="cls-2" d="M44.3,8A36.31,36.31,0,1,1,8,44.3,36.35,36.35,0,0,1,44.3,8m0-8A44.31,44.31,0,1,0,88.61,44.3,44.31,44.31,0,0,0,44.3,0Z"/></g></g></svg>