<svg id="Layer_1" data-name="Layer 1" xmlns="http://www.w3.org/2000/svg" xmlns:xlink="http://www.w3.org/1999/xlink" viewBox="0 0 357.83 300.22"><defs><linearGradient id="linear-gradient" x1="160.01" y1="165.97" x2="249.68" y2="260.06" gradientUnits="userSpaceOnUse"><stop offset="0.01"/><stop offset="0.13" stop-opacity="0.69"/><stop offset="0.25" stop-opacity="0.32"/><stop offset="1" stop-opacity="0"/></linearGradient><linearGradient id="linear-gradient-2" x1="122.28" y1="215.75" x2="200.59" y2="288.15" xlink:href="#linear-gradient"/><linearGradient id="linear-gradient-3" x1="181.26" y1="114.61" x2="179.34" y2="153.23" xlink:href="#linear-gradient"/><linearGradient id="linear-gradient-4" x1="151.74" y1="225.03" x2="179.12" y2="238.62" xlink:href="#linear-gradient"/><linearGradient id="linear-gradient-5" x1="129.37" y1="261.06" x2="145.41" y2="224.98" xlink:href="#linear-gradient"/><linearGradient id="linear-gradient-6" x1="189.69" y1="91.57" x2="207.04" y2="129.45" xlink:href="#linear-gradient"/><linearGradient id="linear-gradient-7" x1="132.38" y1="151.61" x2="143.59" y2="126.54" gradientUnits="userSpaceOnUse"><stop offset="0"/><stop offset="1" stop-opacity="0"/></linearGradient></defs><title>2</title><path d="M386.92,207.93c4.69,10.52,8.15,21.21,8.77,32.28a47.36,47.36,0,0,1-.35,8.5,51.15,51.15,0,0,1-2,9.23" transform="translate(-37.92 -27.62)" fill="#db64c4" opacity="0.18" style="isolation:isolate"/><path d="M365.47,290.8c-7.69,11-19.06,19.66-32.14,22.58-15,3.34-30.47-.95-45.22-5.16C266.37,302,244,295.91,221.5,298c-37.45,3.43-70.64,29.08-108.23,29.85a84.72,84.72,0,0,1-62.51-26.23c-4.23-4.5-8-9.55-10.23-15.33-2.54-6.65-2.87-13.95-2.45-21.06,1.13-18.91,7.27-36.29,17.31-52l.24-.38a109.93,109.93,0,0,0,17.2-53.62c.35-6.94,0-13.91.53-20.84.93-13.21,4.79-26.09,10-38.25C91,82.37,101.93,65.68,117.14,53.81c10.32-8.06,22.3-13.68,34.17-19.22,6.09-2.85,12.3-5.73,19-6.64a53.7,53.7,0,0,1,14,.33q6,.76,11.81,2.09a138.52,138.52,0,0,1,61.1,31.53c18.3,16.21,33.58,34.36,48.76,53.46,20.76,26.11,44.68,50.28,59.56,80.14a126.66,126.66,0,0,1,7.21,17.68C381.19,239.37,381,268.64,365.47,290.8Z" transform="translate(-37.92 -27.62)" fill="#db64c4" opacity="0.18" style="isolation:isolate"/><ellipse cx="194.24" cy="252.91" rx="92.24" ry="16.64" fill="#db64c4" opacity="0.39"/><path d="M194,293.15c-28.54-.41-51.55-10.19-51.4-21.82,0-1.3-1-8.62-.41-9.78,4.5-9.79,27-11,52.4-10.58,25,.36,45.95,0,50.63,9.65.67,1.38.8,10.77.77,12.17C245.81,284.45,222.54,293.5,194,293.15Z" transform="translate(-37.92 -27.62)" fill="#e8a825"/><ellipse cx="189.83" cy="258.82" rx="21.09" ry="51.69" transform="translate(-108.8 418.43) rotate(-89.43)" fill="#f8c244"/><ellipse cx="193.92" cy="262.35" rx="17.97" ry="44.04" transform="translate(-109.1 424.88) rotate(-89.18)" fill="#e8a825"/><path d="M166.14,260.23l7.06.11a5.78,5.78,0,0,1,3.13-4.31l4.67.75a5.48,5.48,0,0,0-3.06,4.08c0,2,2.83,3.42,6.81,3.49a10.76,10.76,0,0,0,8.36-3.11,15,15,0,0,1,12.15-4.52c5.82,0,10.19,1.81,11.21,4.46l7.06.11v1.76l-6.76-.1a5.21,5.21,0,0,1-2.5,3.68l-4.61-.8a4.66,4.66,0,0,0,2.39-3.57c0-2.16-3.19-3.06-6-3.11a9.75,9.75,0,0,0-8,3.43c-3,2.89-6.64,4.31-12.93,4.31-5.52,0-10.77-1.7-11.83-4.68h-7.26Z" transform="translate(-37.92 -27.62)" fill="#f8c244"/><path d="M199.32,276.74c-28.55-.41-51.56-10.17-51.39-21.83,0-1.29-1-8.62-.41-9.78,4.5-9.78,27-10.93,52.4-10.58,25,.37,45.94,0,50.61,9.65.69,1.38.8,10.77.78,12.17C251.16,268,227.86,277.14,199.32,276.74Z" transform="translate(-37.92 -27.62)" fill="#e8a825"/><ellipse cx="199.26" cy="245.92" rx="21.09" ry="51.69" transform="translate(-87.41 414.01) rotate(-89.18)" fill="#f8c244"/><ellipse cx="199.26" cy="245.92" rx="17.97" ry="44.04" transform="translate(-87.41 414.01) rotate(-89.18)" fill="#e8a825"/><path d="M171.48,243.94h7.05a5.77,5.77,0,0,1,3.14-4.31l4.68.76a5.32,5.32,0,0,0-3.06,4.05c0,2,2.82,3.45,6.78,3.49a10.59,10.59,0,0,0,8.38-3.1,14.92,14.92,0,0,1,12.16-4.53c5.79,0,10.19,1.83,11.2,4.46l7.05.11v1.77l-6.79-.11a5,5,0,0,1-2.5,3.68l-4.59-.77a4.75,4.75,0,0,0,2.41-3.58c0-2.15-3.16-3.06-6-3.1a9.92,9.92,0,0,0-8,3.34c-3,2.88-6.63,4.31-12.93,4.31-5.53,0-10.77-1.73-11.82-4.68l-7.26-.11Z" transform="translate(-37.92 -27.62)" fill="#f8c244"/><path d="M199.32,259.28c-28.55-.41-51.56-10.17-51.39-21.82,0-1.29-1-8.62-.41-9.78,4.5-9.79,27-10.93,52.4-10.58,25,.36,45.94,0,50.61,9.65.69,1.38.8,10.77.78,12.17C251.16,250.58,227.86,259.69,199.32,259.28Z" transform="translate(-37.92 -27.62)" fill="#e8a825"/><ellipse cx="199.26" cy="228.47" rx="21.09" ry="51.69" transform="translate(-69.96 396.82) rotate(-89.18)" fill="#f8c244"/><ellipse cx="199.26" cy="224.81" rx="17.97" ry="44.04" transform="translate(-66.3 393.21) rotate(-89.18)" fill="#e8a825"/><path d="M171.48,226.36l7.05.11a5.72,5.72,0,0,1,3.14-4.31l4.68.73a5.38,5.38,0,0,0-3.06,4.08c0,2,2.82,3.44,6.78,3.49a10.6,10.6,0,0,0,8.38-3.11,14.91,14.91,0,0,1,12.16-4.52c5.79,0,10.19,1.83,11.2,4.46l7.05.11v1.76l-6.79-.1a5.05,5.05,0,0,1-2.5,3.68L215,232a4.71,4.71,0,0,0,2.41-3.57c0-2.16-3.16-3.06-6-3.11a9.87,9.87,0,0,0-8,3.43c-3,2.89-6.64,4.31-12.93,4.31-5.53,0-10.77-1.72-11.83-4.68l-7.26-.1Z" transform="translate(-37.92 -27.62)" fill="#f8c244"/><path d="M199.38,239.63c-28.55-.35-51.58-10.08-51.45-21.72,0-1.29-1-8.61-.43-9.78,4.48-9.79,27-11,52.37-10.69,25,.31,46-.1,50.66,9.54.67,1.38.82,10.77.8,12.17C251.18,230.81,227.93,239.91,199.38,239.63Z" transform="translate(-37.92 -27.62)" fill="#e8a825"/><ellipse cx="199.34" cy="205.3" rx="21.09" ry="51.69" transform="translate(-45.86 374.95) rotate(-89.43)" fill="#f8c244"/><path d="M169.54,208.27l7.06.11a5.78,5.78,0,0,1,3.13-4.31l4.67.76a5.45,5.45,0,0,0-3.06,4.07c0,2,2.83,3.42,6.81,3.49a10.78,10.78,0,0,0,8.36-3.1,15,15,0,0,1,12.15-4.53c5.82,0,10.19,1.81,11.21,4.46l7.06.11v1.76l-6.76-.1a5.21,5.21,0,0,1-2.5,3.68l-4.61-.8a4.66,4.66,0,0,0,2.39-3.57c0-2.16-3.19-3.06-6-3.1a9.71,9.71,0,0,0-8,3.42c-3,2.89-6.64,4.31-12.93,4.31-5.52,0-10.77-1.7-11.83-4.68h-7.26Z" transform="translate(-37.92 -27.62)" fill="#f8c244"/><path d="M200.92,220.67c-28.55-.41-51.56-10.17-51.38-21.83,0-1.29-1-8.61-.41-9.78,4.5-9.78,27-10.92,52.39-10.58,25,.37,45.94,0,50.62,9.66.68,1.37.79,10.77.77,12.17C252.76,212,229.47,221.08,200.92,220.67Z" transform="translate(-37.92 -27.62)" fill="#e8a825"/><ellipse cx="200.86" cy="189.85" rx="21.09" ry="51.69" transform="translate(-29.77 360.35) rotate(-89.18)" fill="#f8c244"/><ellipse cx="200.86" cy="189.85" rx="17.97" ry="44.04" transform="translate(-29.77 360.35) rotate(-89.18)" fill="#e8a825"/><path d="M174.88,192h7.05a5.77,5.77,0,0,1,3.14-4.31l4.68.76a5.32,5.32,0,0,0-3.06,4c0,2,2.82,3.45,6.78,3.49a10.59,10.59,0,0,0,8.38-3.1A14.92,14.92,0,0,1,214,188.34c5.79,0,10.19,1.83,11.2,4.46l7,.11v1.77l-6.79-.11a5,5,0,0,1-2.5,3.68l-4.59-.77a4.75,4.75,0,0,0,2.41-3.58c0-2.15-3.16-3.06-6-3.1a9.92,9.92,0,0,0-8,3.34c-3,2.89-6.63,4.31-12.93,4.31-5.53,0-10.77-1.73-11.82-4.68l-7.26-.11Z" transform="translate(-37.92 -27.62)" fill="#f8c244"/><path d="M200.12,204.06c-28.54-.41-51.55-10.17-51.38-21.83,0-1.29-1-8.62-.41-9.78,4.5-9.78,27-10.92,52.4-10.58,25,.37,45.93,0,50.61,9.65.69,1.38.8,10.78.77,12.18C252,195.35,228.67,204.47,200.12,204.06Z" transform="translate(-37.92 -27.62)" fill="#e8a825"/><ellipse cx="200.07" cy="173.25" rx="21.09" ry="51.69" transform="translate(-13.95 343.19) rotate(-89.18)" fill="#f8c244"/><ellipse cx="200.07" cy="173.25" rx="17.97" ry="44.04" transform="translate(-13.95 343.19) rotate(-89.18)" fill="#e8a825"/><path d="M172.29,171.14l7,.1a5.79,5.79,0,0,1,3.15-4.31l4.67.74a5.41,5.41,0,0,0-3.06,4.07c0,2,2.83,3.45,6.79,3.49a10.59,10.59,0,0,0,8.38-3.1,14.91,14.91,0,0,1,12.15-4.53c5.8,0,10.2,1.83,11.21,4.46l7,.11v1.77l-6.78-.11a5,5,0,0,1-2.5,3.68l-4.59-.77a4.77,4.77,0,0,0,2.41-3.58c0-2.15-3.17-3.06-6-3.1a9.84,9.84,0,0,0-8,3.42c-3,2.89-6.64,4.31-12.93,4.31-5.54,0-10.77-1.72-11.83-4.67L172.2,173Z" transform="translate(-37.92 -27.62)" fill="#f8c244"/><path d="M229.06,169.26c1.47,1.73,1.19,4.45-.08,6.34a13.92,13.92,0,0,1-5.28,4.18c-13,6.92-27.71,9.8-42.08,13.06a3.32,3.32,0,0,0-1.5.61c-.81.71-.75,2-.82,3-.27,3.53-2.72,6.49-3.72,9.89a24.92,24.92,0,0,0-.53,7.86l.87,21.45a4.11,4.11,0,0,1-.33,2.23,3.62,3.62,0,0,1-2,1.41,13.6,13.6,0,0,1-9.08-.09,3.06,3.06,0,0,1-1.38-.86,3.43,3.43,0,0,1-.54-1.81c-1.32-13.21-3.29-26.36-5.92-39.37a9.9,9.9,0,0,1-.17-4.83c.81-2.67,3.63-4.09,6.18-5.23L193,173.65a23,23,0,0,0,5.08-2.78c1.07-.85,2-1.88,3-2.77,3.78-3.21,8.61-3.88,13.27-2.72C218.55,166.41,226.16,165.84,229.06,169.26Z" transform="translate(-37.92 -27.62)" fill="url(#linear-gradient)"/><path d="M169.12,235.9c0,3.09-5,6-7.43,6.73a14.6,14.6,0,0,0-3,1,2.76,2.76,0,0,0-1.54,2.52c.1.91.84,1.64,1,2.53a4.61,4.61,0,0,1-.29,2.28c-.92,3-4.61,4.86-5.52,7.85-5.11-.52-7.42-.09-12.48-.94l-4.22-2.7c2.12-4,4.23-7.94,6.38-11.93a24.26,24.26,0,0,1,3-4.73,22.2,22.2,0,0,1,4.68-3.73A122.35,122.35,0,0,1,163.61,227C163,227.32,169.12,235.1,169.12,235.9Z" transform="translate(-37.92 -27.62)" fill="url(#linear-gradient-2)"/><path d="M175.19,139.43a3.14,3.14,0,0,1-1.86.35,24.08,24.08,0,0,1,1.71-8c1.05-2.22,2.76-4.06,4.18-6.07a40.42,40.42,0,0,1,2.43-3.36A6.94,6.94,0,0,1,185,120a.61.61,0,0,1,.63.08.64.64,0,0,1,.13.33l1.21,6.89a6.11,6.11,0,0,1-.05,3.34,9.52,9.52,0,0,1-2.32,2.55,32.43,32.43,0,0,1-5.82,4.39A33.26,33.26,0,0,1,175.19,139.43Z" transform="translate(-37.92 -27.62)" fill="#fbc6d7"/><path d="M175.19,139.43a3.14,3.14,0,0,1-1.86.35,24.08,24.08,0,0,1,1.71-8c1.05-2.22,2.76-4.06,4.18-6.07a40.42,40.42,0,0,1,2.43-3.36A6.94,6.94,0,0,1,185,120a.61.61,0,0,1,.63.08.64.64,0,0,1,.13.33l1.21,6.89a6.11,6.11,0,0,1-.05,3.34,9.52,9.52,0,0,1-2.32,2.55,32.43,32.43,0,0,1-5.82,4.39A33.26,33.26,0,0,1,175.19,139.43Z" transform="translate(-37.92 -27.62)" fill="url(#linear-gradient-3)"/><path d="M166.15,221.87c.52,1.7,1,3.7,0,5.13a4.25,4.25,0,0,1-1.86,1.34,5,5,0,0,1-5.32-.57,7,7,0,0,1-1.61-3.05A73.34,73.34,0,0,1,154.46,212a2.32,2.32,0,0,1,.06-1.2,2.06,2.06,0,0,1,1-.94c2.27-1.22,5.81-2.2,7.08.51C164.25,213.84,165,218.15,166.15,221.87Z" transform="translate(-37.92 -27.62)" fill="#fbc6d7"/><path d="M159.31,223.84a3.1,3.1,0,0,0-1.43.14,2.55,2.55,0,0,0-.8.7l-4.91,5.61c-.95,1.08-2,2.57-1.29,3.85a2.85,2.85,0,0,0,2.11,1.27c2.34.42,4.71-.42,6.9-1.37,1.51-.66,3-1.39,4.46-2.17a7.25,7.25,0,0,0,2.79-2.22c1.12-1.74,1.45-5.9-.55-7.2-1-.65-1.88-.18-2.84.27A9.32,9.32,0,0,1,159.31,223.84Z" transform="translate(-37.92 -27.62)" fill="#db64c4"/><path d="M138.92,240.94a2,2,0,0,0,.1.94,1.85,1.85,0,0,0,.72.72,6,6,0,0,0,3.16,1.08,3.67,3.67,0,0,0,3-1.36,6.25,6.25,0,0,0,.93-2.79,33.62,33.62,0,0,0,.61-6.48,1.16,1.16,0,0,0-.27-.85,1.21,1.21,0,0,0-.56-.23c-1.78-.37-5.29-1.31-6.19.89A25.76,25.76,0,0,0,138.92,240.94Z" transform="translate(-37.92 -27.62)" fill="#fbc6d7"/><path d="M131.44,240.72a16.32,16.32,0,0,0-4.45.86,5.61,5.61,0,0,0-3.26,3,3.21,3.21,0,0,0-.09,2.18,4.65,4.65,0,0,0,2.42,2.32,30.58,30.58,0,0,0,16.5,3.61,5.58,5.58,0,0,0,4-1.49c.93-1.07,1-2.63,1.06-4.06l.2-6.79c-1.28-.2-2.46.64-3.68,1.06-2.1.72-2.93-1-4.67-1.43C137.19,239.47,133.76,240.49,131.44,240.72Z" transform="translate(-37.92 -27.62)" fill="#db64c4"/><path d="M159.31,223.84a3.1,3.1,0,0,0-1.43.14,2.55,2.55,0,0,0-.8.7l-4.91,5.61c-.95,1.08-2,2.57-1.29,3.85a2.85,2.85,0,0,0,2.11,1.27c2.34.42,4.71-.42,6.9-1.37,1.51-.66,3-1.39,4.46-2.17a7.25,7.25,0,0,0,2.79-2.22c1.12-1.74,1.45-5.9-.55-7.2-1-.65-1.88-.18-2.84.27A9.32,9.32,0,0,1,159.31,223.84Z" transform="translate(-37.92 -27.62)" fill="url(#linear-gradient-4)"/><path d="M131.44,240.72a16.32,16.32,0,0,0-4.45.86,5.61,5.61,0,0,0-3.26,3,3.21,3.21,0,0,0-.09,2.18,4.65,4.65,0,0,0,2.42,2.32,30.58,30.58,0,0,0,16.5,3.61,5.58,5.58,0,0,0,4-1.49c.93-1.07,1-2.63,1.06-4.06l.2-6.79c-1.28-.2-2.46.64-3.68,1.06-2.1.72-2.93-1-4.67-1.43C137.19,239.47,133.76,240.49,131.44,240.72Z" transform="translate(-37.92 -27.62)" fill="url(#linear-gradient-5)"/><path d="M149.58,165.75a8,8,0,0,0-3.87,2c-1.26,1.42-1.37,3.52-1.37,5.43a112.16,112.16,0,0,0,7.52,40.11,3.7,3.7,0,0,0,1.69,2.27,3.54,3.54,0,0,0,2.29-.11,90.79,90.79,0,0,0,8.75-2.94l-3.88-26.07a3.71,3.71,0,0,1,.12-2.19A3.56,3.56,0,0,1,162,183a102.74,102.74,0,0,1,14-8.71c3.88-2,8.33-4.28,9.4-8.57a4.79,4.79,0,0,0-.77-4.26,6.7,6.7,0,0,0-2.14-1.45c-2.58-1.29-5.83-2.95-8.8-2.64-2.37.25-3.28,1.64-5.27,2.67C162.85,162.93,155.55,164,149.58,165.75Z" transform="translate(-37.92 -27.62)" fill="#282328"/><path d="M191.58,165.24a56,56,0,0,1-7-3.32c-8.57-4.79-1.55-7.15,1.31-12.93,2-4.09,1.21-9,.14-13.44-1.86-7.81-4.35-15.89-2.55-23.71a9.16,9.16,0,0,1,1.46-3.53,10.23,10.23,0,0,1,1.79-1.75,19.91,19.91,0,0,1,6.13-3.64c4.32-1.42,9.11-.38,13.17,1.69,15.95,8.12,19.35,28.66,18.72,45.07-.18,4.56-.86,9.39-3.76,12.87-2.72,3.27-7,4.81-11.17,5.34A37.51,37.51,0,0,1,191.58,165.24Z" transform="translate(-37.92 -27.62)" fill="#fff"/><path d="M201.21,114.12a8,8,0,0,1-5.75,3,1.55,1.55,0,0,1-1-.22,1.78,1.78,0,0,1-.5-1.21c-.1-.9-.23-2.06-.33-3.21s-.28-2.56-.4-3.54a14.12,14.12,0,0,0-2.86-7.17,6.84,6.84,0,0,0-1.13-1.23c-2.76-2.49,8.48-1.51,10-4.89,1.71,2.2,1.56,5.31,2.31,8a40,40,0,0,1,1.25,4A8.09,8.09,0,0,1,201.21,114.12Z" transform="translate(-37.92 -27.62)" fill="#fbc6d7"/><path d="M193.78,113l-.15-.53c-.15-1.28-.28-2.56-.4-3.54a14.12,14.12,0,0,0-2.86-7.17l-.08-.28s8.91-5.84,9.86,1S193.78,113,193.78,113Z" transform="translate(-37.92 -27.62)" fill="url(#linear-gradient-6)"/><path d="M184.44,97.71a7,7,0,0,0,.75,4.14,5.37,5.37,0,0,0,1.32,1.37c3.54,2.67,8.86,2.13,12.38-.63s5.34-7.35,5.53-11.84c.09-2.34-.28-4.85-1.85-6.56a7.26,7.26,0,0,0-6.69-1.86,17,17,0,0,0-8.48,4.82C185.16,89.67,184.6,94.51,184.44,97.71Z" transform="translate(-37.92 -27.62)" fill="#fbc6d7"/><path d="M152.36,183.93a28.36,28.36,0,0,0-4.3,7.82,157.93,157.93,0,0,0-10.8,43,54.7,54.7,0,0,0,13.77,0,133,133,0,0,1,4.73-30.86,20.32,20.32,0,0,1,2.49-6.11c2-3,5.38-4.73,8.59-6.35a124,124,0,0,1,23.09-8.75c3.36-.95,6.75-1.8,10-2.93a24.25,24.25,0,0,0,7.82-4,11.17,11.17,0,0,0,4.22-7.59c-.05.75-16.7-.07-18.25-.24-5.22-.56-11.38-3.6-16.54-1.46-4,1.68-7.73,5.18-11.36,7.6C161.36,177,155.92,179.73,152.36,183.93Z" transform="translate(-37.92 -27.62)" fill="#473f47"/><polygon points="138.22 155.2 167.28 140.78 133.64 128.66 107.14 140.42 138.22 155.2" fill="#db64c4"/><polygon points="138.05 153.01 162.32 140.97 134.23 130.85 112.1 140.67 138.05 153.01" fill="url(#linear-gradient-7)"/><path d="M216.48,121.07c.08.5.14,1,.19,1.5.79,7.39.08,14.67-.19,22-.17,4.56-.76,13.24-5.53,15.57-8.92,4.37-26.12,2.69-26.12,2.69a15.08,15.08,0,0,0-6,.24c-1.07.34-2.05.91-3.1,1.31-3.76,1.47-8,.73-11.92,0a5.08,5.08,0,0,1-1.94-.66c-1.54-1-1.47-3.53-.32-5a8.84,8.84,0,0,1,4.78-2.67c5-1.46,10.45-2.1,15.47-.61.66.19,1.32.42,2,.55a13.73,13.73,0,0,0,2.39.17l6.08.05c7,.07,13.55.1,14.6-8.2a46.14,46.14,0,0,0,.24-9.25c-.42-5.58-1.85-11.1-1.55-16.68a11.14,11.14,0,0,1,1.25-5.06,5.09,5.09,0,0,1,4.2-2.69,5.26,5.26,0,0,1,4.31,2.94A11.45,11.45,0,0,1,216.48,121.07Z" transform="translate(-37.92 -27.62)" fill="#fbc6d7"/><polygon points="96.23 113.89 133.26 133.03 138.22 155.2 107.14 140.42 96.23 113.89" fill="#db64c4"/><path d="M197.75,94a22.59,22.59,0,0,1,.39,5.13c1.18-1,1.09-3.67,2.66-3.6.94,0,1.38,1.35.94,2.2a3.56,3.56,0,0,1-2.31,1.54c-.27,3.61,2.6,6.09,5,8.28a19,19,0,0,1,5.28,9.36c1.14,4.48,1.08,9.18,1,13.83,1.28-1,3.09-.48,4.7-.31,4.75.49,9.49-3.27,10.52-8a11.73,11.73,0,0,0-5.6-12.25c-1.28-.73-2.76-1.3-3.55-2.55-1.08-1.71-.44-3.94-.38-6a10,10,0,0,0-7.53-9.78,13.75,13.75,0,0,0,1.63-5.13,8.79,8.79,0,0,0-2.8-6.44,20.23,20.23,0,0,0-6-3.82c-2.07-.95-4.39-1.8-6.58-1.15-2.57.77-4.17,3.37-5.08,5.91a3.21,3.21,0,0,0-3.71.74A5.26,5.26,0,0,0,185,85.78a7.41,7.41,0,0,0,.55,2.63c.85-1,1.87-2,2.89-1.27s1.63,2.23,2.57,3a18.64,18.64,0,0,0,3.3,2.21C194.72,92.61,197.68,93.66,197.75,94Z" transform="translate(-37.92 -27.62)" fill="#fc682d"/><path d="M184.87,114.82a.82.82,0,0,1,.38-.56c.35-.13.68.25,1.06.31a.94.94,0,0,0,.75-.29,6.42,6.42,0,0,0,.54-.63c.29-.32.65-.58.93-.91a2.51,2.51,0,0,0,.41-2.4,1.84,1.84,0,0,0,1.44-1.91.74.74,0,0,1,0-.39c.09-.18.31-.22.5-.27a2,2,0,0,0,1.33-1.24.92.92,0,0,0-.16-1,1.13,1.13,0,0,0-.51-.19c-1.45-.29-2.9-.54-4.36-.75a2.73,2.73,0,0,1-.64-.16c-.31-.15-.53-.43-.82-.6a1.87,1.87,0,0,0-2.34.71,9.89,9.89,0,0,0-.87,2.68c-.37,1-.33,2.12-.75,3.12a13.13,13.13,0,0,1-1.11,2c-1.87,3-9.27,12.91-10.91,15-1.75,2.26-3.46,4.71-3.82,7.54a5.62,5.62,0,0,0,.31,2.93c1.33,3.14,5.81,4,8.34,1.91a10.24,10.24,0,0,0,2.73-4.1c.48-1.17.74-2.4,1.19-3.57a27.51,27.51,0,0,1,1.43-2.52,51.37,51.37,0,0,0,3-7c.5-1.45.92-2.92,1.28-4.41.17-.75.33-1.5.47-2.26C184.75,115.64,184.77,115.19,184.87,114.82Z" transform="translate(-37.92 -27.62)" fill="#fbc6d7"/><path d="M178.29,101.54v-.11" transform="translate(-37.92 -27.62)" fill="none"/></svg>