<svg xmlns="http://www.w3.org/2000/svg" viewBox="0 0 202.36 257.87"><defs><style>.a{fill:#f5f5f5;}.b{fill:#ffdd21;}.c{fill:orange;}</style></defs><path class="a" d="M118,128.94c26.74-19.68,76-62.72,76-112.68H8.35c0,50,49.29,93,76,112.68-26.74,19.68-76,62.71-76,112.67H194C194,191.65,144.71,148.62,118,128.94Z"/><path class="b" d="M184.46,222a31.35,31.35,0,0,0-21.05-21.46c-12.25-3.91-29.1-7.6-44.53-5.32a2.52,2.52,0,0,1-.62,0,5.52,5.52,0,0,1-5-5l-6.43-56.9a7.65,7.65,0,0,1,3-7l4-2.94c14.58-10.71,34.41-27.26,49.74-47.39a3,3,0,0,0-2.78-4.78c-15.58,2.31-47.49,5.08-74.19-5.28-23.32-9.06-35.89-2.06-42,4.32a9.69,9.69,0,0,0-.2,12.94c14.33,16.9,31.18,30.79,44,40.19l3.87,2.86a7.63,7.63,0,0,1,3,7.2l-7.78,55a5.58,5.58,0,0,1-7.09,4.59l-2.73-.8a85.67,85.67,0,0,0-27.34-3.33h0a30.81,30.81,0,0,0-26.78,17.47,87,87,0,0,0-8.07,28.36H186.8A79.17,79.17,0,0,0,184.46,222Z"/><path class="c" d="M186.09,0H16.26A16.26,16.26,0,0,0,0,16.26H202.36A16.26,16.26,0,0,0,186.09,0Z"/><path class="c" d="M16.26,257.87H186.09a16.26,16.26,0,0,0,16.27-16.26H0A16.26,16.26,0,0,0,16.26,257.87Z"/></svg>