<svg xmlns="http://www.w3.org/2000/svg" xmlns:xlink="http://www.w3.org/1999/xlink" viewBox="0 0 378.83 378.94"><defs><style>.a{fill:#eef2f8;}.b{fill:#e3e5e8;}.c{fill:#fff;}.d{fill:#dadde0;}.e{fill:#e49b31;}.f{fill:url(#a);}.g{fill:#fbc83e;}.h{fill:#e4e8ef;}.i{opacity:0.6;}.j{fill:url(#b);}</style><linearGradient id="a" x1="48.44" y1="284.73" x2="241.56" y2="407.41" gradientUnits="userSpaceOnUse"><stop offset="0" stop-color="#a737d5"/><stop offset="1" stop-color="#ef497a"/></linearGradient><linearGradient id="b" x1="93" y1="183.63" x2="271.35" y2="326.19" xlink:href="#a"/></defs><path class="a" d="M333.45,325.63a135.56,135.56,0,0,1-20.86,17.57C244.53,392,164,377.8,146.88,374.32c-25.27-5.13-74.12-15.05-109.44-56.59C-16,254.89-7.68,155.89,33.77,90.53c7.58-12,47.63-78.3,129-88.94C212.06-4.85,269.48,8.14,311.07,43,398.36,116.11,392.14,263.85,333.45,325.63Z"/><path class="b" d="M272.2,215.69s-1.11-46.59,20.35-59.05,62.25-20.27,63.78-87.16c.89-39.15,1.86-56.28,2.51-63.74A4.41,4.41,0,0,0,353.63,1C333.31,4.85,267.3,20.6,253.46,65.66,237.06,119.07,272.2,215.69,272.2,215.69Z"/><path class="c" d="M337.92,19.63c-22.31,19.89-48.1,55.1-61.85,90.3-1.76,5.81-6.92,18.15-9.16,40.07-2,18.28-1,37.61,1.42,50.4a1.48,1.48,0,0,0,1.74,1.18,1.51,1.51,0,0,0,1.19-1.71A204.46,204.46,0,0,1,276,126.28c8.12-30.13,26.22-59.35,44.94-84.13l1.93-2.44C337.37,21.08,340.42,21,339.07,19.65A.85.85,0,0,0,337.92,19.63Z"/><path class="d" d="M245.39,301.13c-2.9,1.42,27.48-36.79,37-96.79,4.48-28.28,4.54-63.71,20.65-77.36,13.4-11.37,59-4.19,73.95-1.47a2.24,2.24,0,0,1,1,3.92c-7.16,6-22.47,20.19-26.46,34.48-5.26,18.84-23.17,30.82-39.2,34.06s-24.95,6.39-32.76,32S253.64,297.08,245.39,301.13Z"/><path class="c" d="M356,133.47c-19.05.8-39.49,9.49-49.86,25.78l-1,1.56c-2.26,3.64-15.08,29.56-22.2,51.05a.5.5,0,0,0,.33.64.53.53,0,0,0,.64-.3c4.95-12.14,12.08-27.53,17.75-39C307.76,160.61,312,152.1,325.9,144a77.1,77.1,0,0,1,30.16-9.67.41.41,0,0,0-.06-.82Z"/><path class="e" d="M73,90.42A21.79,21.79,0,0,1,94.81,68.63H280.07a19.19,19.19,0,0,1,19.17,18.22l13.68,268.6A14.16,14.16,0,0,1,299,370.32L86.7,374.18A13.44,13.44,0,0,1,73,360.74Z"/><path class="f" d="M80.07,308.23a.51.51,0,0,1-.51-.51v-5.8a.51.51,0,0,1,1,0v5.8A.51.51,0,0,1,80.07,308.23Z"/><path class="g" d="M88.2,72.77a6.33,6.33,0,0,1,7.18-6.31c25.3,3.43,112.3,14,184.23,8.52a5.84,5.84,0,0,1,6.3,5.51l14.34,269.8a6.74,6.74,0,0,1-6.33,7.08c-30.25,1.79-154.84,8.71-199.28,4.06a5.34,5.34,0,0,1-4.77-5.28Z"/><path class="c" d="M91.18,79.53a6.1,6.1,0,0,1,6.91-6.08c24.35,3.31,108.07,13.52,177.29,8.2A5.62,5.62,0,0,1,281.44,87l13.8,259.64a6.48,6.48,0,0,1-6.09,6.81c-29.11,1.73-149,8.39-191.77,3.91a5.13,5.13,0,0,1-4.59-5.08Z"/><path class="h" d="M113.72,99.55l2.59,55.66a3.53,3.53,0,0,0,3.43,3.37c10.31.29,42.43,1.08,60.57.13a3.93,3.93,0,0,0,3.74-3.82c.35-10.44,1.11-40.82-1.27-53.52a4.47,4.47,0,0,0-4.24-3.63l-60.93-2.13A3.76,3.76,0,0,0,113.72,99.55Z"/><g class="i"><path class="h" d="M266.27,104.39a1.91,1.91,0,0,0,2-1.87,2.09,2.09,0,0,0-2.12-1.9l-67-1.2a1.35,1.35,0,0,0-1.38,1.92l.38,1.1a3.15,3.15,0,0,0,2.76,2Z"/></g><g class="i"><path class="h" d="M199.14,109.8a1.35,1.35,0,0,0-1.38,1.92l.38,1.09a3.14,3.14,0,0,0,2.76,2h65.37a1.91,1.91,0,0,0,2-1.87,2.09,2.09,0,0,0-2.12-1.9Z"/></g><g class="i"><path class="h" d="M199.14,120.33a1.35,1.35,0,0,0-1.38,1.92l.38,1.09a3.14,3.14,0,0,0,2.76,2h65.37a1.91,1.91,0,0,0,2-1.87,2.1,2.1,0,0,0-2.12-1.91Z"/></g><g class="i"><path class="h" d="M272.76,176.07a1.83,1.83,0,0,0,1.94-1.87,2.16,2.16,0,0,0-2.19-1.89l-156.73-1.23c-1.14,0-1.5.71-.79,1.6l1.41,1.77a4.88,4.88,0,0,0,3.36,1.62Z"/></g><g class="i"><path class="h" d="M115.78,181.46c-1.14,0-1.5.71-.79,1.6l1.41,1.76a4.88,4.88,0,0,0,3.36,1.62h153a1.83,1.83,0,0,0,1.94-1.86,2.16,2.16,0,0,0-2.19-1.89Z"/></g><path class="j" d="M115.17,198.78c3.76-.29,10.81-.42,14.69-.47a3.51,3.51,0,0,1,3.47,2.69A57.2,57.2,0,0,1,135,215.2a3.12,3.12,0,0,1-3.15,3.06l-14.32-.16a3.43,3.43,0,0,1-3.38-3.11l-1.26-13.47A2.51,2.51,0,0,1,115.17,198.78Z"/><g class="i"><path class="h" d="M141.55,204.31a1.65,1.65,0,0,0-1.77,2l.38,2.51a2.49,2.49,0,0,0,2.38,2h35a2,2,0,0,0,2-2.07V208a2.21,2.21,0,0,0-2.09-2.16Z"/></g><path class="h" d="M193.17,198.78c3.76-.29,10.81-.42,14.69-.47a3.51,3.51,0,0,1,3.47,2.69A57.2,57.2,0,0,1,213,215.2a3.12,3.12,0,0,1-3.15,3.06l-14.32-.16a3.43,3.43,0,0,1-3.38-3.11l-1.26-13.47A2.51,2.51,0,0,1,193.17,198.78Z"/><g class="i"><path class="h" d="M219.54,204.31a1.65,1.65,0,0,0-1.76,2l.38,2.51a2.49,2.49,0,0,0,2.38,2h35a2,2,0,0,0,2-2.07V208a2.21,2.21,0,0,0-2.09-2.16Z"/></g><g class="i"><path class="h" d="M110.78,244.86a4.17,4.17,0,0,0,4.11,2.44l156.82-1c1.78,0,3.2-1.15,3.16-2.53s-1.44-2.42-3.17-2.43l-156.83-.56C112.1,240.73,110.07,242.77,110.78,244.86Z"/></g><g class="i"><path class="h" d="M110.78,273.18a4.18,4.18,0,0,0,4.11,2.44l156.82-1c1.78,0,3.2-1.15,3.16-2.54s-1.44-2.42-3.17-2.42l-156.83-.56C112.1,269.05,110.07,271.09,110.78,273.18Z"/></g><g class="i"><path class="h" d="M110.78,301.49a4.17,4.17,0,0,0,4.11,2.44l156.82-1c1.78,0,3.2-1.15,3.16-2.53s-1.44-2.42-3.17-2.43l-156.83-.56C112.1,297.36,110.07,299.4,110.78,301.49Z"/></g><g class="i"><path class="h" d="M110.78,329.81h0a4.18,4.18,0,0,0,4.11,2.44l156.82-1c1.78,0,3.2-1.15,3.16-2.54s-1.44-2.42-3.17-2.42l-156.83-.56C112.1,325.68,110.07,327.72,110.78,329.81Z"/></g><path class="e" d="M198.93,32c-6.69-4.65-12.51-4.56-16.6-3.35a8.18,8.18,0,0,0-5.81,8.59l1.77,19.28,21,1.86S212.06,41.14,198.93,32Zm-9.24,15.56a5.25,5.25,0,1,1,5.24-5.25A5.24,5.24,0,0,1,189.69,47.57Z"/><path class="c" d="M180.39,48.42a.52.52,0,0,1-.51-.46l-.28-3.08a.52.52,0,0,1,.46-.55.5.5,0,0,1,.55.46l.28,3.07a.49.49,0,0,1-.45.55Zm-.55-6a.52.52,0,0,1-.51-.46l-.21-2.33a7.81,7.81,0,0,1,5.53-8.19,15.72,15.72,0,0,1,7.68-.31.51.51,0,1,1-.2,1,14.7,14.7,0,0,0-7.19.3,6.79,6.79,0,0,0-4.81,7.11l.21,2.34a.51.51,0,0,1-.46.55Z"/><path class="e" d="M149.6,69v-9.7a5.92,5.92,0,0,1,6.12-5.91l66.83,2.29a5.75,5.75,0,0,1,5.55,5.41l.56,9.31Z"/><path class="c" d="M174.52,57h-2.87a.5.5,0,0,1-.51-.5.51.51,0,0,1,.51-.51h2.87a.51.51,0,0,1,.51.51A.5.5,0,0,1,174.52,57Z"/><path class="c" d="M153.22,65.94a.5.5,0,0,1-.51-.5V61.51a5.5,5.5,0,0,1,5.5-5.49h10.56a.51.51,0,0,1,.51.51.5.5,0,0,1-.51.5H158.21a4.49,4.49,0,0,0-4.48,4.48v3.93A.5.5,0,0,1,153.22,65.94Z"/><path class="g" d="M122.37,71.44a6.3,6.3,0,0,1,6.29-6H245.53A8.62,8.62,0,0,1,254,72.6l.1.57a7.42,7.42,0,0,1-7.31,8.69H126.93a4.83,4.83,0,0,1-4.82-5.06Z"/><rect class="e" x="5.08" y="336.2" width="168.02" height="39.16"/><path class="g" d="M1.58,357.82H176.06a0,0,0,0,1,0,0v14.33a.71.71,0,0,1-.71.71H2.65a1.06,1.06,0,0,1-1.06-1.06v-14A0,0,0,0,1,1.58,357.82Z"/><path class="g" d="M1.58,340.75H176.06a0,0,0,0,1,0,0v14a1.06,1.06,0,0,1-1.06,1.06H2.9a1.32,1.32,0,0,1-1.32-1.32V340.75A0,0,0,0,1,1.58,340.75Z"/><path class="e" d="M2.67,335.11H175a1.1,1.1,0,0,1,1.1,1.1v4.54a0,0,0,0,1,0,0H1.58a0,0,0,0,1,0,0v-4.55A1.09,1.09,0,0,1,2.67,335.11Z"/><ellipse class="g" cx="323.63" cy="365.64" rx="13.22" ry="11.38" transform="translate(-146.72 496.78) rotate(-64.07)"/><rect class="e" x="305.49" y="355.56" width="14.96" height="9.78" rx="0.86" transform="translate(-148.06 484.28) rotate(-64.07)"/><path class="g" d="M312.84,350.9a31,31,0,0,1-7,14.32,8.45,8.45,0,0,1-8.16,2.69C268,362,205.85,323.54,145.48,290c-4-2.22-6.76-4.74-4.88-8.62l4.16-8.56c1.88-3.85,6.36-1.69,10.57,0,63.85,26.24,131.58,49.11,154.83,70.26A8.41,8.41,0,0,1,312.84,350.9Z"/><rect class="e" x="125.92" y="271.42" width="33.97" height="9.94" rx="0.83" transform="translate(-168.15 284.04) rotate(-64.07)"/><rect class="g" x="63.1" y="242.41" width="33.97" height="9.94" rx="0.83" transform="translate(-177.41 211.22) rotate(-64.07)"/><rect class="g" x="56.15" y="231.85" width="102.12" height="69.19" transform="translate(-179.29 246.34) rotate(-64.07)"/><rect class="e" x="78" y="278.7" width="12.84" height="69.19" transform="translate(-234.25 252.21) rotate(-64.07)"/><path class="g" d="M115.26,329l-2.79,5.74a4,4,0,0,1-4.72,2.08,193.67,193.67,0,0,1-56.23-27.37,3.94,3.94,0,0,1-1.28-4.94l2.8-5.76Z"/><rect class="e" x="83.51" y="269.43" width="7.04" height="74.16" rx="0.86" transform="translate(-226.67 250.74) rotate(-64.07)"/><rect class="g" x="84.45" y="269.43" width="5.18" height="74.16" rx="0.78" transform="translate(-226.67 250.74) rotate(-64.07)"/><rect class="e" x="126.29" y="179.41" width="12.84" height="69.19" transform="translate(383.2 188.25) rotate(115.93)"/><path class="g" d="M164.09,228.57l2.79-5.74a4,4,0,0,0-1.28-5,193.76,193.76,0,0,0-56.25-27.32,4,4,0,0,0-4.68,2l-2.8,5.77Z"/><rect class="e" x="125.46" y="183.17" width="7.04" height="74.16" rx="0.86" transform="translate(-125.5 239.93) rotate(-64.07)"/><rect class="g" x="126.39" y="183.17" width="5.18" height="74.16" rx="0.78" transform="translate(-125.5 239.92) rotate(-64.07)"/></svg>