<svg xmlns="http://www.w3.org/2000/svg" viewBox="0 0 381.21 337.04"><defs><style>.a{fill:#eef2f8;}.b{fill:#fff;}.c{fill:#e49b31;}.d{fill:#fbc83e;}.e{fill:#102048;}.f{fill:#fbc343;}.g{fill:#f9b384;}.h{fill:#e28b6d;}.i{fill:#3a6bea;}.j{opacity:0.8;}.k{fill:#eb5d60;opacity:0.4;}.l{fill:#d3dfff;}.m{fill:#1f3c88;}</style></defs><path class="a" d="M374.59,242a62.38,62.38,0,0,0-33.1-32.34c-15.22-6.16-32.69-3.92-48.72-6-13.91-1.79-24-8-32.27-19.05-8-10.59-15.1-22.31-28.12-27.21-10.29-3.87-22-2.79-32.21,1.24-18.85,7.43-33.08,23.22-45.06,39-11,14.37-19.87,30.1-40.11,30.62s-39.54-11-59.93-8c-27,4-49.4,26.48-54.1,53.19-4.41,25,6.65,49.32,25.65,63.58H353.26C377.21,311.64,389.77,276.55,374.59,242Z"/><path class="b" d="M79.31,337h.9a68.89,68.89,0,0,0,14.24-24.42c5-14.95,4.82-30.64-.6-44.18-2.74-6.85-6.69-13.22-10.51-19.39s-7.88-12.73-10.6-19.66a43.42,43.42,0,0,1-2.46-9.08l-.67-.08a43.84,43.84,0,0,0,2.52,9.4c2.74,7,6.76,13.48,10.65,19.76s7.75,12.5,10.46,19.29c5.36,13.4,5.56,28.93.59,43.74A68.12,68.12,0,0,1,79.31,337Z"/><path class="b" d="M351.68,308.56c6.73,1.43,13.22,2.72,19.49,3.53l.32-.63c-6.32-.8-12.87-2.1-19.67-3.55-10.35-2.2-21.55-4.59-32.67-4.59a58,58,0,0,0-20.31,3.36,40.68,40.68,0,0,0-7.18,3.49c-6-2.53-11.93-5.3-17.85-8.34,4.3-3.23,8.64-6.4,13-9.47,32.57-22.74,62.63-35.64,91.68-39.3l-.18-.63c-29.12,3.69-59.25,16.61-91.88,39.4-4.48,3.12-8.91,6.36-13.3,9.67a220.64,220.64,0,0,1-19.6-11.39,170.68,170.68,0,0,1-37.28-32.72c46.49-5.22,93.82-11.79,132.47-37.62,1.47-1,3.1-2.14,4.78-3.45l-.56-.4c-1.62,1.25-3.17,2.36-4.58,3.3-38.65,25.83-86.07,32.35-132.62,37.56a127.81,127.81,0,0,1-21.31-36.24c-8.2-21.72-7.77-43,1.18-58.48q.59-1,1.23-2l-1.12.52-.67,1.13c-9.06,15.62-9.51,37.14-1.24,59A128.3,128.3,0,0,0,215,256.87l-8.07.9c-9.7,1.07-19.72,2.17-29.45,3.42-3.56.46-7.17,1-10.77,1.66-7.7-16.26-16.17-32.13-27.11-45.74l-.48.46C150,231.08,158.38,246.83,166,263c-15.68,3-30.91,8.61-39,21.7-7.59,12.22-7.58,29.11,0,50.2.26.73.54,1.45.81,2.16h.7c-.3-.78-.6-1.57-.89-2.38-7.54-20.9-7.56-37.6-.08-49.64,8-12.93,23.17-18.47,38.77-21.43,2.72,5.76,5.35,11.56,8,17.33l.28.62c9.07,20,18.46,39.36,30.74,55.5h.82c-12.4-16.17-21.83-35.62-31-55.77l-.28-.62c-2.59-5.72-5.2-11.47-7.9-17.18,3.53-.65,7.07-1.18,10.56-1.62,9.73-1.26,19.75-2.36,29.44-3.43l8.5-.94a171.52,171.52,0,0,0,37.71,33.18,222.29,222.29,0,0,0,19.38,11.28c-11.17,8.45-22,17.34-32.65,26-3.68,3-7.39,6.05-11.14,9.08h1c3.54-2.86,7-5.73,10.51-8.57,10.69-8.74,21.64-17.69,32.89-26.2,5.89,3,11.83,5.79,17.74,8.32a49,49,0,0,0-18.67,22.79c-.49,1.21-.93,2.44-1.33,3.66h.69c.38-1.14.79-2.28,1.25-3.41a48.22,48.22,0,0,1,18.8-22.72,434.32,434.32,0,0,0,46.74,16.36l.52.16c5.89,1.74,11.9,3.52,17.23,6.39l.44-.51c-5.41-2.94-11.51-4.75-17.48-6.51l-.53-.15a436,436,0,0,1-46.23-16.16,40.85,40.85,0,0,1,6.67-3.2C316.11,301,335,305,351.68,308.56Z"/><path class="b" d="M28.27,266a52.63,52.63,0,0,1-3.55,35.19,60.56,60.56,0,0,1-14.27,18.42l.36.56a61.25,61.25,0,0,0,14.5-18.69,53.39,53.39,0,0,0,3.6-35.64,45.2,45.2,0,0,0-13.29-23.1l-.42.5A44.6,44.6,0,0,1,28.27,266Z"/><path class="a" d="M176.93,115.58c5.72,5.84,8.29,15.7,5.13,24.78-3.05,8.79-9.75,16.08-17.8,20.76-6.47,3.77-14.91,5.84-21.28,1.9-4.76-3-7.22-8.73-7.36-14.33s1.74-11.05,4.07-16.14c3.28-7.18,7.69-14.13,14.26-18.5C163,108,171.43,110,176.93,115.58Z"/><path class="c" d="M356,54.66a67.89,67.89,0,0,0-15-26.13Q330.16,16.6,311.53,8.82T264.19,1a185.06,185.06,0,0,0-46.68,6.17q-23.81,6.2-41.3,17.65L191.4,66.58l-8.14,6.6,11.81,3.47a173.78,173.78,0,0,1,31.86-13.3,110.39,110.39,0,0,1,30.53-4.11q16.14,0,24.45,7.78a24.86,24.86,0,0,1,8.3,18.8,36.08,36.08,0,0,1-8.52,23.61q-8.54,10.3-18.86,20.85-7.17,7.32-13.91,15.12A108.19,108.19,0,0,0,237,162.14a91,91,0,0,0-8.3,19.24,79.17,79.17,0,0,0-3.14,23.14c0,2.76.06,6,.22,9.87,0,.7.06,1.39.11,2.07H214.75l12.18,8.24h59.25a39.12,39.12,0,0,1-.45-6.42v-5.51a39.8,39.8,0,0,1,3.14-15.35A79.76,79.76,0,0,1,296.73,183a106,106,0,0,1,10.55-13q5.82-6.21,11.22-11.7,7.17-7.32,14.8-15.58a122.55,122.55,0,0,0,13.47-17.41,97.39,97.39,0,0,0,9.64-19.95,70.25,70.25,0,0,0,3.83-23.6A94.15,94.15,0,0,0,356,54.66Z"/><path class="d" d="M244.91,56.33a111.33,111.33,0,0,0-30.16,4,173.08,173.08,0,0,0-31.49,12.87L164.62,23.06Q181.92,12,205.44,6a186.39,186.39,0,0,1,46.13-6q28.37,0,46.78,7.54t29.07,19.07a65.63,65.63,0,0,1,14.86,25.28,89.65,89.65,0,0,1,4.21,26.17,66.74,66.74,0,0,1-3.78,22.84,93.81,93.81,0,0,1-9.53,19.31,119.22,119.22,0,0,1-13.31,16.85q-7.55,8-14.63,15.07-5.33,5.33-11.09,11.32a104.33,104.33,0,0,0-10.43,12.63,76.43,76.43,0,0,0-7.76,14,37.73,37.73,0,0,0-3.11,14.86v5.33a37.77,37.77,0,0,0,.45,6.21H214.75a61.3,61.3,0,0,1-1.11-10c-.16-3.7-.22-6.87-.22-9.55a74.94,74.94,0,0,1,3.11-22.39,86.71,86.71,0,0,1,8.2-18.63,105.32,105.32,0,0,1,11.75-16.2q6.65-7.53,13.75-14.62,10.2-10.22,18.64-20.19a34.49,34.49,0,0,0,8.41-22.84,23.81,23.81,0,0,0-8.2-18.2Q260.88,56.33,244.91,56.33Z"/><path class="c" d="M290.23,282.2q0,16-10.37,24.74a35.9,35.9,0,0,1-46.93,0q-10.35-8.71-10.36-24.74t10.36-24.73a36,36,0,0,1,38.86-4.68A33.29,33.29,0,0,1,290.23,282.2Z"/><path class="d" d="M278.64,282.2q0,16-10.37,24.74a35.9,35.9,0,0,1-46.93,0Q211,298.23,211,282.2t10.36-24.73a35.9,35.9,0,0,1,46.93,0Q278.65,266.2,278.64,282.2Z"/><circle class="d" cx="83.78" cy="120.56" r="6.87" transform="translate(-50.14 180.7) rotate(-79.38)"/><ellipse class="d" cx="89.99" cy="134.01" rx="3.86" ry="3.89" transform="translate(-58.3 197.78) rotate(-79.39)"/><circle class="d" cx="66.83" cy="85.96" r="27.05" transform="translate(-37.62 116.72) rotate(-68.55)"/><circle class="b" cx="56.44" cy="85.96" r="3.41"/><circle class="b" cx="66.83" cy="85.96" r="3.41"/><circle class="b" cx="77.22" cy="85.96" r="3.41"/><path class="e" d="M47.45,307.38,50,317.12a5.59,5.59,0,0,0,5.83,4.08c8.29-.57,25.51-2.6,35.39-9.88l-2.81-14.05c-13.59-.76-26.29,0-37.3,3.7A5.38,5.38,0,0,0,47.45,307.38Z"/><path class="b" d="M63.29,315.13a.32.32,0,0,1-.32-.24l-3.39-12.15a.33.33,0,0,1,.63-.17l3.39,12.15a.32.32,0,0,1-.22.4Z"/><path class="b" d="M70.62,313.49a.32.32,0,0,1-.31-.24l-3.4-12.15a.33.33,0,0,1,.23-.4.33.33,0,0,1,.41.22l3.39,12.16a.32.32,0,0,1-.23.4Z"/><polygon class="f" points="79.14 254.71 47.56 264.08 71.01 296.21 104.69 298.89 151.13 279.25 133.48 252.7 79.14 254.71"/><path class="d" d="M118.08,259.17c69.35-20.53,80.5,40.76-27.71,51.92a52.3,52.3,0,0,1-10.07-18l57.15-26.41Z"/><path class="g" d="M121,303.1a30.16,30.16,0,0,1-6.35-3.09l-11.15,3.49,2.56,12.13L117.66,318C121.19,311.53,121.39,306.23,121,303.1Z"/><path class="c" d="M80.55,293.52l-.49-.86c11.92-6.92,42.45-23.57,68.47-28.48l.18,1C122.85,270,92.43,286.61,80.55,293.52Z"/><path class="d" d="M79.14,254.7c-64.56-12.27-81.28,49.77,26.94,60.93A39.26,39.26,0,0,0,114.67,300a492.76,492.76,0,0,0-55.58-31.77Z"/><path class="c" d="M114.41,300.42c-3.07-1.95-6.27-4-9.66-6.2-17-11-36.28-23.43-52.66-30.53l.39-.9c16.45,7.13,35.76,19.6,52.8,30.6,3.39,2.18,6.59,4.25,9.66,6.2Z"/><path class="c" d="M31.78,285.47l-.87-.48a18.1,18.1,0,0,1,11.54-8.79l.26.94A17,17,0,0,0,31.78,285.47Z"/><path class="c" d="M166.52,281.73a17,17,0,0,0-10.94-8.32l.26-1a18.12,18.12,0,0,1,11.54,8.8Z"/><path class="c" d="M100,315.09l-.72-.68a36.86,36.86,0,0,0,9.7-17.85l1,.21C108.58,303.43,105.32,309.42,100,315.09Z"/><path class="e" d="M153.22,299.49c-8.27-5.11-24.31,3.72-28.33,4.16a9.68,9.68,0,0,1-3.87-.55c.37,3.13.17,8.43-3.36,14.88l2,.4s13.59,5,28,2.09C161,317.79,159.72,303.5,153.22,299.49Z"/><path class="b" d="M142,316.2h-.1a.34.34,0,0,1-.22-.42c1-3.11,1.41-9.23-1.43-13.34a.33.33,0,0,1,.08-.46.34.34,0,0,1,.46.09c3,4.3,2.54,10.68,1.52,13.91A.34.34,0,0,1,142,316.2Z"/><path class="b" d="M135.46,317.43h-.1a.33.33,0,0,1-.21-.41c1-3.12,1.41-9.24-1.44-13.35a.33.33,0,0,1,.08-.45.32.32,0,0,1,.46.08c3,4.3,2.54,10.68,1.52,13.91A.32.32,0,0,1,135.46,317.43Z"/><path class="g" d="M67.72,174.71S84,160.89,83.38,158.26c-.43-1.88-5,.87-5,.87s6.46-7.66,6.13-8.59c-.59-1.66-5,1.44-5,1.44s3-4.35,1.57-5.06-4.59,2-4.59,2,1.84-2.41,1-3-4.59,2-4.59,2,1.33-3-1.51-1.89-22.76,19.43-22.76,19.43Z"/><path class="h" d="M74.37,158.31a.35.35,0,0,1-.22-.08,14.94,14.94,0,0,0-7.1-4.12.33.33,0,0,1-.22-.41.34.34,0,0,1,.41-.22,15.46,15.46,0,0,1,7.35,4.26.33.33,0,0,1,0,.47A.35.35,0,0,1,74.37,158.31Z"/><path class="h" d="M69.47,165.81h0a.33.33,0,0,1-.28-.37c.32-2.29,1-3.72,2.2-4.37a4.26,4.26,0,0,1,3.84.17.33.33,0,0,1,.17.43.32.32,0,0,1-.43.17,3.7,3.7,0,0,0-3.26-.2c-1,.54-1.59,1.85-1.87,3.89A.33.33,0,0,1,69.47,165.81Z"/><path class="h" d="M68.71,152a.31.31,0,0,1-.24-.1.33.33,0,0,1,0-.47l4.08-3.84a.33.33,0,0,1,.47,0,.34.34,0,0,1,0,.47l-4.08,3.84A.31.31,0,0,1,68.71,152Z"/><path class="h" d="M72.48,153.3a.31.31,0,0,1-.22-.09.32.32,0,0,1,0-.46l3.92-4.08a.31.31,0,0,1,.46,0,.32.32,0,0,1,0,.46l-3.92,4.08A.31.31,0,0,1,72.48,153.3Z"/><path class="h" d="M76.34,155.6a.35.35,0,0,1-.22-.08.34.34,0,0,1,0-.47l3.08-3.3a.32.32,0,0,1,.46,0,.33.33,0,0,1,0,.46l-3.08,3.3A.31.31,0,0,1,76.34,155.6Z"/><path class="i" d="M129.14,267.18l-59.45,2.3-6.57-54.19S83,196.42,90.68,189.47l12.93-.67C143.71,207,137.14,229.8,129.14,267.18Z"/><path class="i" d="M103.61,188.8s45.88,3.93,60.34,35.36c14.15,30.76-44,41.71-44,41.71Z"/><path class="i" d="M51.16,195.54l19-23.07L52.39,161.72a231.37,231.37,0,0,0-33.81,30,24.93,24.93,0,0,0-5.82,10.06,21.68,21.68,0,0,0-.56,9.44h0a18.24,18.24,0,0,0,16.11,15.26c7.22.84,34.81-1.31,57.15-7.88L92,193.23C88.65,191.31,63.56,191,51.16,195.54Z"/><g class="j"><path class="b" d="M141.89,201.28l.3-.07-.62-.36a99.6,99.6,0,0,1-10.25,2c-2.06.25-8.92.71-10.93-3.87a7.18,7.18,0,0,1,.88-6.58l-.49-.14a7.6,7.6,0,0,0-.84,6.92c2.14,4.88,9.29,4.42,11.44,4.16A101.5,101.5,0,0,0,141.89,201.28Z"/><path class="b" d="M163.31,236.73c-2.2-.85-4.46-1.72-6.84-1.5-4.18.4-7.75,4.52-8,9.21a14.43,14.43,0,0,0,3.4,9.47l.42-.26a13.93,13.93,0,0,1-3.32-9.19c.2-4.45,3.57-8.37,7.51-8.74,2.27-.21,4.38.6,6.62,1.47.8.31,1.61.62,2.43.88,0-.16.09-.32.12-.48C164.88,237.33,164.09,237,163.31,236.73Z"/><path class="b" d="M47.5,221.06c-2.86-2.37-7.31-3-12.2-1.74a21.11,21.11,0,0,0-10.68,6.32l.51.17a20.66,20.66,0,0,1,10.29-6c4.74-1.22,9-.63,11.77,1.64a10.78,10.78,0,0,1,2.9,4l.5-.06A11.15,11.15,0,0,0,47.5,221.06Z"/><path class="b" d="M21.61,188.48a59.52,59.52,0,0,0,15.44-6,16.86,16.86,0,0,0,5.33-4.36,7.47,7.47,0,0,0,1.37-6.67,5.35,5.35,0,0,0-1.33-2.11l-.38.31a4.83,4.83,0,0,1,1.24,2,7,7,0,0,1-1.3,6.22,16.32,16.32,0,0,1-5.18,4.22,58.07,58.07,0,0,1-14.55,5.75C22,188,21.82,188.26,21.61,188.48Z"/></g><path class="g" d="M107.81,176.76v.84l-.14,13.06v1.42a8.14,8.14,0,0,1-16.27,0l-.16-16.15Z"/><path class="e" d="M107.8,177.6l-.14,13.06c-7.26-2.95-10.25-10.82-10.25-10.82Z"/><path class="g" d="M110.67,154.8c2.6,3.12,10.2,20.81,2.5,26.85-8.67,6.8-21.86-4.37-21.86-4.37l-1.77-20.61,11.45-3Z"/><path class="e" d="M83.71,153.66S58.31,166.91,79,205.09a10.4,10.4,0,0,0,13.59,4.65h0a10.29,10.29,0,0,0,4.51-14.38c-3.38-6-6.65-13.77-5.26-19.54Z"/><circle class="f" cx="86.1" cy="159.93" r="6.87"/><path class="e" d="M94.56,168.19c-.75-4.29-1.2-7.23,3.13-9.44,0,0,15.27,2.78,18.18-3s-1.52-14.85-10.82-8.54c-23.8-4.65-27,17.63-19.78,25.05l7.12-1.09A2.6,2.6,0,0,0,94.56,168.19Z"/><circle class="e" cx="106.38" cy="168.2" r="1.01"/><circle class="e" cx="113.25" cy="164.81" r="1.01"/><path class="e" d="M112.54,171.32a.24.24,0,0,1-.19-.08.28.28,0,0,1,0-.4c.4-.43.85-1,.66-1.47s-1-.65-1.39-.65c-.81,0-1.2-1.44-1.27-1.73a.29.29,0,0,1,.21-.35.3.3,0,0,1,.35.22c.15.6.48,1.28.71,1.28s1.57.19,1.92,1c.25.58,0,1.29-.78,2.09A.27.27,0,0,1,112.54,171.32Z"/><path class="e" d="M112.6,175.17a.22.22,0,0,1-.16,0,3.83,3.83,0,0,0-3.86-.19.29.29,0,0,1-.4-.11.28.28,0,0,1,.11-.39,4.37,4.37,0,0,1,4.47.22.29.29,0,0,1,.07.4A.27.27,0,0,1,112.6,175.17Z"/><path class="e" d="M105.93,163.8c.58,1.09-.43,1.31-1.61,1.93s-2.38.86-2.66.34.46-1.45,1.64-2.07S105.48,163,105.93,163.8Z"/><path class="e" d="M110.23,161.84c.25,1,1,.55,2,.27s1.9-.8,1.78-1.27-1.07-.61-2.12-.34S110,161.09,110.23,161.84Z"/><circle class="k" cx="101.69" cy="172.93" r="2.99"/><ellipse class="g" cx="90.33" cy="172.94" rx="4.05" ry="4.61" transform="translate(-101.77 138.8) rotate(-52.34)"/><path class="e" d="M92.11,174.45a.29.29,0,0,1-.29-.29,2.51,2.51,0,0,0-1.11-2.1,2,2,0,0,0-1.88-.25.29.29,0,0,1-.38-.16.28.28,0,0,1,.16-.37,2.58,2.58,0,0,1,2.42.3,3.09,3.09,0,0,1,1.36,2.58A.28.28,0,0,1,92.11,174.45Z"/><rect class="e" x="38.34" y="200.82" width="15.28" height="0.66" transform="translate(-132.94 98.36) rotate(-47.25)"/><path class="e" d="M124,243.52l-.19-.62c7.55-2.3,14.87-5.06,21.51-13.36l.51.41C139.06,238.4,131.63,241.19,124,243.52Z"/><path class="l" d="M128.57,218.09H64.35a4.36,4.36,0,0,0-4.18,4.52v45.85A4.37,4.37,0,0,0,64.35,273h64.22a4.37,4.37,0,0,0,4.18-4.53V222.61A4.36,4.36,0,0,0,128.57,218.09Z"/><path class="m" d="M99.85,242.64a.46.46,0,0,1,.44.48V248a.46.46,0,0,1-.44.47H93.07a.46.46,0,0,1-.44-.47v-4.84a.46.46,0,0,1,.44-.48h6.78m0-1.32H93.07a1.78,1.78,0,0,0-1.76,1.8V248a1.78,1.78,0,0,0,1.76,1.79h6.78A1.77,1.77,0,0,0,101.6,248v-4.84a1.78,1.78,0,0,0-1.75-1.8Z"/></svg>