<svg xmlns="http://www.w3.org/2000/svg" viewBox="0 0 335.43 403.19"><defs><style>.a{isolation:isolate;}.b{fill:#ffbaa0;}.c,.j{fill:#f5f5f5;}.d{fill:#fbc83e;}.e{fill:#e6e7e8;}.e,.i,.j{mix-blend-mode:multiply;}.f{fill:#efa734;}.g{fill:#b05033;}.h{fill:#843c26;}.k{fill:#533e29;}.l{fill:#eb7d86;}.m{fill:#e6e6e6;}</style></defs><g class="a"><path class="b" d="M251.74,128.23C267.15,169,292.53,190,294,191c1.84,1.18,5.35,3.85,4,5.44-.68.81-1.48.83-2.7.18.66.67,1.29,1.46.84,2.31s-2.09.74-3,.3a1.34,1.34,0,0,0-.23-.13,1.34,1.34,0,0,1,.23.13,2.14,2.14,0,0,1,.79,2.39c-.48.92-1.87.64-2.76.13a1.79,1.79,0,0,1,.57,2.23c-.95,1.78-4-.68-5.87-2.16-1.46-1.19-28.22-23.18-44.71-68.94Z"/><path class="c" d="M96.1,296l17,36.93a11.48,11.48,0,0,0,7.72,6.39c36.09,8.72,78,5,117.56-13.26,49.34-22.77,83.76-62.88,96.32-105.82a16.53,16.53,0,0,0-9.11-19.74c-40.82-18.31-93.68-18.14-143,4.63C143,223.42,113,252.87,96.24,286A11.51,11.51,0,0,0,96.1,296Z"/><path class="d" d="M128.78,342a40.31,40.31,0,0,1-14.3,50.45,5.49,5.49,0,0,0-2,6.88l.34.73a5.45,5.45,0,0,0,6.17,3,108.2,108.2,0,0,0,74.51-62.48,174,174,0,0,1-65.19.36C128.44,341.27,128.62,341.61,128.78,342Z"/><path class="d" d="M99.37,278.28a40.28,40.28,0,0,0-47.66-21.85,5.51,5.51,0,0,1-6.55-2.92l-.34-.74a5.44,5.44,0,0,1,1.7-6.66A108,108,0,0,1,142.4,230a174.22,174.22,0,0,0-42.58,49.38C99.67,279,99.53,278.63,99.37,278.28Z"/><path class="d" d="M325.73,200.56a155.44,155.44,0,0,0-59.21-13.11l39.8,86.25a155.48,155.48,0,0,0,28.45-53.56A16.44,16.44,0,0,0,325.73,200.56Z"/><path class="e" d="M273.75,195.75a2.26,2.26,0,0,1,2.84-3.07,2.35,2.35,0,0,1,1.34,2.9,2.27,2.27,0,0,1-4.18.17Z"/><path class="e" d="M280.07,204.05a2.26,2.26,0,0,1,3,1.1h0a2.26,2.26,0,0,1-1.1,3h0a2.27,2.27,0,0,1-3-1.1h0A2.27,2.27,0,0,1,280.07,204.05Z"/><path class="e" d="M300.93,249.26a2.25,2.25,0,0,1,3,1.1h0a2.25,2.25,0,0,1-1.1,3h0a2.25,2.25,0,0,1-3-1.1h0A2.25,2.25,0,0,1,300.93,249.26ZM295.72,238a2.27,2.27,0,0,1,3,1.11h0a2.26,2.26,0,0,1-1.11,3h0a2.26,2.26,0,0,1-3-1.1h0A2.27,2.27,0,0,1,295.72,238Zm-5.22-11.3a2.26,2.26,0,0,1,3,1.11h0a2.26,2.26,0,0,1-1.1,3h0a2.26,2.26,0,0,1-3-1.11h0A2.26,2.26,0,0,1,290.5,226.65Zm-5.21-11.3a2.26,2.26,0,0,1,3,1.11h0a2.27,2.27,0,0,1-1.11,3h0a2.27,2.27,0,0,1-3-1.11h0A2.26,2.26,0,0,1,285.29,215.35Z"/><path class="e" d="M305,263.56a2.27,2.27,0,0,1,2.84-3.07,2.34,2.34,0,0,1,1.34,2.9,2.27,2.27,0,0,1-2.91,1.35A2.33,2.33,0,0,1,305,263.56Z"/><path class="e" d="M264.73,187.4l40.47,87.7c.38-.46.74-.93,1.12-1.4l-39.8-86.24C265.92,187.44,265.33,187.41,264.73,187.4Z"/><path class="e" d="M137,228.44a187.17,187.17,0,0,0-40.38,44.83,40.32,40.32,0,0,1,2.76,5c.16.35.3.7.45,1.05A174.22,174.22,0,0,1,142.4,230Q139.72,229.13,137,228.44Z"/><path class="e" d="M193.47,340.57a174,174,0,0,1-65.19.36c.16.34.34.68.5,1a40,40,0,0,1,2,5.38,186.81,186.81,0,0,0,60.29-1.63C191.93,344,192.73,342.3,193.47,340.57Z"/><path class="d" d="M87,359.05c-32.67,15.08-87,3.7-87,3.7S26.6,314,59.27,299c16.6-7.66,31.34,1.86,39,18.45S103.61,351.39,87,359.05Z"/><path class="f" d="M86.74,352c-13.33,6.15-37.23,4.07-43.38-9.26s7.78-32.86,21.11-39S88.66,305.67,94.81,319,100.07,345.85,86.74,352Z"/><path class="c" d="M89,339c-7.89,3.64-22.24,2.51-25.88-5.38s4.81-19.55,12.7-23.19,12.31,2.08,15.94,10S96.86,335.38,89,339Z"/><path class="g" d="M96.24,286a11.51,11.51,0,0,0-.14,10l17,36.93a11.48,11.48,0,0,0,7.72,6.39c2.44.59,4.92,1.12,7.41,1.6l-28.44-61.6C98.57,281.53,97.38,283.75,96.24,286Z"/><path class="h" d="M102.16,284.39l-6.5,3a11.59,11.59,0,0,0-.4,1.51l7.4-3.42Z"/><path class="h" d="M104.75,290l-9.27,4.28a11.72,11.72,0,0,0,.38,1.14l9.39-4.34Z"/><rect class="h" x="97.69" y="297.71" width="10.38" height="1.2" transform="translate(-115.6 70.62) rotate(-24.79)"/><rect class="h" x="100.27" y="303.31" width="10.38" height="1.2" transform="translate(-117.71 72.23) rotate(-24.79)"/><rect class="h" x="102.85" y="308.91" width="10.38" height="1.2" transform="translate(-119.82 73.83) rotate(-24.79)"/><rect class="h" x="105.44" y="314.51" width="10.38" height="1.2" transform="translate(-121.93 75.43) rotate(-24.79)"/><rect class="h" x="108.02" y="320.11" width="10.38" height="1.2" transform="translate(-124.04 77.02) rotate(-24.79)"/><rect class="h" x="110.61" y="325.71" width="10.39" height="1.2" transform="translate(-126.15 78.62) rotate(-24.79)"/><path class="h" d="M122.85,329.18l-9.4,4.34c.19.36.4.7.62,1l9.28-4.29Z"/><path class="h" d="M125.44,334.78,118,338.21a10.51,10.51,0,0,0,1.4.66l6.51-3Z"/><g class="i"><path class="c" d="M333.89,208.67c.63,1.37,0,3.29-1.94,5.53-21.22,24.17-61.3,52-110.64,74.8-39.6,18.28-77.82,29.87-108,34-2.85.39-4.82-.13-5.39-1.36h0l5.22,11.32a11.48,11.48,0,0,0,7.72,6.39c36.09,8.72,78,5,117.56-13.26,49.34-22.77,83.76-62.88,96.32-105.82A16.54,16.54,0,0,0,333.89,208.67Z"/></g><path class="e" d="M169.05,261.9c6.15-17-9.63-19.52-9.63-19.52l22.7-15.91L179,206.88q-5.49,2.67-10.72,5.61l3.89,9.88L151.41,242S163.23,278,169.05,261.9Z"/><path class="c" d="M251.74,128.23l-10.56,4.61a194.79,194.79,0,0,0,9,21.09L260,146.7A175,175,0,0,1,251.74,128.23Z"/><path class="j" d="M250.21,153.93h0c1.33,2.64,2.67,5.15,4,7.57-2.56-14.38-2.49-33.27-2.49-33.27l-5.15,18C247.78,148.88,249,151.46,250.21,153.93Z"/><path class="c" d="M149,108.55l102.71,19.68c-3.18,16.23.89,42.05,1,48.34C236.49,188.34,181,205.63,162.7,202,155.87,183.12,145.53,166.77,149,108.55Z"/><path class="k" d="M252.75,176.57,162.7,202,168,222.32l-22.94,17s7.4,37.11,15.12,21.86c8.16-16.12-7.21-20.53-7.21-20.53l24.46-13.06-.83-20.9s33.44-12.43,67.13-20.08l.72,1.59q5.75-.56,11.42-.74Z"/><path class="b" d="M149,108.55s7.44-111.81,87.76-61c0,0,23.9,24.52,15,80.7C181.45,132.62,149,108.55,149,108.55Z"/><path class="k" d="M153.9,0s-11.21,70.81,76.81,65.1l1.73,25.61s10.62-6.94,11.72,3.49-10.57,4.12-10.57,4.12,6.82,21.2,18.15,29.91c-.57.75,43.88-102-1.58-94.68,0,0-3.25-20.81-31.19-26.45C190,1.26,172.52,35.26,153.9,0Z"/><path class="l" d="M197.15,103.18a178.72,178.72,0,0,0-27.86-6.47s-2.93,15.12,10.48,18.24C194.55,118.38,197.15,103.18,197.15,103.18Z"/><path class="c" d="M148.59,122.67l7.54-8.44c-5.17-4.06-10.18-8.19-15-12.31l-7.93,8.37Q140.52,116.35,148.59,122.67Z"/><path class="b" d="M141.14,101.92C108,73.55,115.32,40.76,115.85,39.14c.69-2.07,1.75-6.36-.29-6.76-1-.21-1.67.28-2.21,1.55.09-.92.09-1.94-.8-2.31s-2.09.72-2.49,1.62a1.7,1.7,0,0,1-.09.24,1.7,1.7,0,0,0,.09-.24,2.14,2.14,0,0,0-.88-2.36c-1-.41-1.86.68-2.23,1.63a1.8,1.8,0,0,0-1-2.09c-1.86-.79-2.72,3.06-3.21,5.36-.39,1.84-7,43.44,30.43,74.51Z"/><path class="k" d="M204.24,86.93c-1.14,4.15-.51,7.93,1.39,8.46S210,93,211.15,88.83s.52-7.93-1.39-8.46S205.38,82.79,204.24,86.93Z"/><path class="k" d="M163.74,75.81c-1.13,4.14-.51,7.93,1.4,8.45s4.38-2.41,5.52-6.55.51-7.93-1.4-8.46S164.88,71.66,163.74,75.81Z"/><g class="i"><path class="m" d="M232.78,134.4l1.69,4.88L230.26,144s-10.52,33.17-51.75,24.61l-7.45-13.43,13.2-6c31.4,14.58,39.29-5.67,39.29-5.67l-3.05-6.21,2.65-3.35Z"/></g><path class="k" d="M232.78,134.4l1.69,4.88L230.26,144s-9.46,30.22-50.68,21.65l-7.45-13.43,13.2-6c31.4,14.59,38.22-2.71,38.22-2.71l-3.05-6.21,2.65-3.35Z"/></g></svg>