<svg xmlns="http://www.w3.org/2000/svg" viewBox="0 0 257.94 294.28"><defs><style>.a,.g{fill:#ffc727;}.a{opacity:0.6;}.b{fill:#fcfcfc;}.c{fill:orange;}.d{opacity:0.1;}.e{fill:#ebebeb;}.f{fill:#c7c7c7;}.h{fill:#fff;}.i{fill:#ffdd21;}</style></defs><path class="a" d="M39,253.9a6.77,6.77,0,1,1-6.76-6.76A6.76,6.76,0,0,1,39,253.9Z"/><path class="a" d="M47.27,241a3.3,3.3,0,1,1-3.3-3.3A3.29,3.29,0,0,1,47.27,241Z"/><path class="a" d="M191.94,250.63a3.3,3.3,0,1,1-3.3-3.29A3.3,3.3,0,0,1,191.94,250.63Z"/><path class="a" d="M257.94,280.72a3.3,3.3,0,1,1-3.3-3.3A3.29,3.29,0,0,1,257.94,280.72Z"/><path class="a" d="M252.88,290.35a3.93,3.93,0,0,1-3.93,3.93H3.93a3.93,3.93,0,0,1,0-7.86,4,4,0,0,1,.93.11,7.75,7.75,0,0,1,13.29-5.41l.07,0a13.94,13.94,0,0,1-.07-1.45A14.64,14.64,0,0,1,39.22,266.5a10.44,10.44,0,0,1,20.15-3.17,14.62,14.62,0,0,1,12.39-6.84,15.08,15.08,0,0,1,2.79.27,20.21,20.21,0,0,1-.29-3.41,19.79,19.79,0,0,1,32.71-15,3.93,3.93,0,0,1,5-1.83l3.68-49.18h21.58l3.68,49.18a4,4,0,0,1,1.51-.3,3.91,3.91,0,0,1,3.49,2.13,19.8,19.8,0,0,1,32.72,15,19.22,19.22,0,0,1-.3,3.41,15.11,15.11,0,0,1,2.8-.27,14.6,14.6,0,0,1,12.38,6.84,10.44,10.44,0,0,1,20.16,3.17,14.63,14.63,0,0,1,21.06,13.14,13.94,13.94,0,0,1-.07,1.45l.07,0A7.75,7.75,0,0,1,248,286.53a4.08,4.08,0,0,1,.93-.11A3.93,3.93,0,0,1,252.88,290.35Z"/><polygon class="b" points="190.76 258 185.66 258.95 184.53 264.32 183.39 258.95 178.29 258 183.37 256.76 184.53 251.69 185.69 256.76 190.76 258"/><polygon class="b" points="141.2 209.21 136.1 210.15 134.96 215.52 133.82 210.15 128.73 209.21 133.8 207.97 134.96 202.89 136.12 207.97 141.2 209.21"/><polygon class="b" points="67.15 268.23 64.3 268.76 63.66 271.76 63.03 268.76 60.18 268.23 63.01 267.54 63.66 264.7 64.31 267.54 67.15 268.23"/><polygon class="b" points="220.39 277.19 217.54 277.71 216.9 280.72 216.27 277.71 213.42 277.19 216.25 276.49 216.9 273.66 217.55 276.49 220.39 277.19"/><polygon class="b" points="27.95 287.71 25.1 288.24 24.47 291.24 23.83 288.24 20.98 287.71 23.82 287.02 24.47 284.18 25.11 287.02 27.95 287.71"/><polygon class="b" points="151.84 285.21 148.99 285.74 148.35 288.74 147.72 285.74 144.87 285.21 147.7 284.52 148.35 281.68 149 284.52 151.84 285.21"/><polygon class="b" points="130.99 201.04 128.14 201.57 127.5 204.57 126.86 201.57 124.02 201.04 126.85 200.35 127.5 197.51 128.15 200.35 130.99 201.04"/><path class="b" d="M227.13,283.68a.83.83,0,0,0,0,1.65A.83.83,0,0,0,227.13,283.68Z"/><path class="b" d="M120,190.63a.83.83,0,0,0,0,1.65A.83.83,0,0,0,120,190.63Z"/><path class="b" d="M49.53,287.71a.83.83,0,0,0,0,1.65A.83.83,0,0,0,49.53,287.71Z"/><path class="b" d="M101.85,276.36a.83.83,0,0,0,0,1.65A.83.83,0,0,0,101.85,276.36Z"/><path class="b" d="M206.45,268.83a.59.59,0,0,0,0,1.17A.59.59,0,0,0,206.45,268.83Z"/><path class="b" d="M134.28,260.08a.59.59,0,0,0,0,1.17A.59.59,0,0,0,134.28,260.08Z"/><path class="b" d="M81.45,248.67a.58.58,0,0,0,0,1.16A.58.58,0,0,0,81.45,248.67Z"/><path class="b" d="M171.83,251.05a1.58,1.58,0,0,0,0,3.16A1.58,1.58,0,0,0,171.83,251.05Z"/><path class="b" d="M88.93,243.29a1.59,1.59,0,0,0,0,3.17A1.59,1.59,0,0,0,88.93,243.29Z"/><path class="c" d="M89.71,109.66c-.77,0-29.57,13.29-31.27,46-1.57,30.09,19.24,58.67,21.92,56.78,3.29-2.32-2.3-21.07,4.09-42.51,2.27-7.61,12.18-14.36,12.18-14.36Z"/><path class="d" d="M96.63,155.59a45.69,45.69,0,0,0-7.88,7.1c-4.28-9.56-12.27-27.41-17.43-39,8.43-9.75,18-14,18.39-14Z"/><path class="c" d="M163,109.71c.78,0,29.55,13.34,31.21,46.07,1.52,30.09-19.32,58.64-22,56.74-3.28-2.32,2.34-21.06-4-42.51C165.91,162.4,156,155.64,156,155.64Z"/><path class="d" d="M181.47,123.91c-5.22,11.66-13.22,29.55-17.45,39a45.85,45.85,0,0,0-8-7.27l7-45.92C163.43,109.71,173,114.07,181.47,123.91Z"/><path class="e" d="M148.12,185l-43.44,0s-20.47-36.6-18.05-80.24C87.85,82.91,93.55,61,100.4,42.83,109.82,17.77,121.48,0,126.53,0s16.69,17.8,26.1,42.87c6.8,18.16,12.46,40.1,13.65,61.88C168.65,148.39,148.12,185,148.12,185Z"/><path class="f" d="M152.47,99.1a25.06,25.06,0,1,1-25-25.07A25.06,25.06,0,0,1,152.47,99.1Z"/><path class="g" d="M151.58,96.55a25.06,25.06,0,1,1-25-25.08A25.06,25.06,0,0,1,151.58,96.55Z"/><path class="h" d="M143.9,96.53a17.38,17.38,0,1,1-17.38-17.38A17.38,17.38,0,0,1,143.9,96.53Z"/><path class="e" d="M143.9,96.53a17.27,17.27,0,0,1-1.17,6.29l-9.91,9.91a17.31,17.31,0,0,1-6.29,1.17,17,17,0,0,1-4.65-.64l21.38-21.38A17,17,0,0,1,143.9,96.53Z"/><path class="e" d="M129.07,79.34,109.33,99.08a17.79,17.79,0,0,1-.19-2.55,17.38,17.38,0,0,1,17.38-17.38A17.79,17.79,0,0,1,129.07,79.34Z"/><path class="e" d="M141.73,88.11l-23.62,23.62a15.35,15.35,0,0,1-1.33-.82l24.13-24.13C141.2,87.21,141.47,87.66,141.73,88.11Z"/><path class="i" d="M152.63,42.87l-52.23,0C109.82,17.77,121.48,0,126.53,0S143.22,17.8,152.63,42.87Z"/><path class="h" d="M109.39,37.45A1.46,1.46,0,1,1,107.93,36,1.46,1.46,0,0,1,109.39,37.45Z"/><path class="h" d="M118.68,37.45A1.46,1.46,0,1,1,117.22,36,1.46,1.46,0,0,1,118.68,37.45Z"/><path class="h" d="M128,37.46A1.47,1.47,0,1,1,126.51,36,1.46,1.46,0,0,1,128,37.46Z"/><path class="h" d="M137.27,37.47A1.47,1.47,0,1,1,135.81,36,1.47,1.47,0,0,1,137.27,37.47Z"/><path class="h" d="M146.56,37.47A1.47,1.47,0,1,1,145.1,36,1.46,1.46,0,0,1,146.56,37.47Z"/><path class="f" d="M109.33,178.24a1.46,1.46,0,1,1-1.46-1.46A1.46,1.46,0,0,1,109.33,178.24Z"/><path class="f" d="M118.62,178.25a1.46,1.46,0,1,1-1.46-1.46A1.46,1.46,0,0,1,118.62,178.25Z"/><path class="f" d="M127.92,178.26a1.47,1.47,0,1,1-1.47-1.47A1.47,1.47,0,0,1,127.92,178.26Z"/><path class="f" d="M137.21,178.26a1.47,1.47,0,1,1-1.46-1.46A1.47,1.47,0,0,1,137.21,178.26Z"/><path class="f" d="M146.5,178.27a1.47,1.47,0,1,1-1.46-1.46A1.46,1.46,0,0,1,146.5,178.27Z"/><polygon class="g" points="144.11 198.02 108.78 197.99 107.13 184.93 145.78 184.96 144.11 198.02"/><polygon class="d" points="145.78 184.96 144.96 191.32 107.76 189.93 107.13 184.94 145.78 184.96"/></svg>