<svg id="Layer_1" data-name="Layer 1" xmlns="http://www.w3.org/2000/svg" xmlns:xlink="http://www.w3.org/1999/xlink" viewBox="0 0 377.29 288.98"><defs><linearGradient id="linear-gradient" x1="-7.67" y1="383.15" x2="-65.86" y2="220.97" gradientTransform="translate(160.74 -47.3) rotate(5.61)" gradientUnits="userSpaceOnUse"><stop offset="0.01"/><stop offset="0.13" stop-opacity="0.69"/><stop offset="0.25" stop-opacity="0.32"/><stop offset="1" stop-opacity="0"/></linearGradient><linearGradient id="linear-gradient-2" x1="234.34" y1="65.9" x2="160.86" y2="392.79" gradientTransform="matrix(1, 0, 0, 1, 0, 0)" xlink:href="#linear-gradient"/><linearGradient id="linear-gradient-3" x1="106.99" y1="92.17" x2="277.61" y2="312.35" gradientUnits="userSpaceOnUse"><stop offset="0" stop-color="#fff" stop-opacity="0"/><stop offset="0.54" stop-color="#fff"/></linearGradient><linearGradient id="linear-gradient-4" x1="177.21" y1="210.44" x2="130.75" y2="38.13" xlink:href="#linear-gradient-3"/><linearGradient id="linear-gradient-5" x1="430.65" y1="109.23" x2="317.46" y2="466.53" gradientTransform="translate(-167.89)" xlink:href="#linear-gradient"/><linearGradient id="linear-gradient-6" x1="420.23" y1="154.62" x2="581.28" y2="349.46" gradientTransform="translate(-167.89)" xlink:href="#linear-gradient"/><linearGradient id="linear-gradient-7" x1="375.27" y1="120.21" x2="454.95" y2="230.58" gradientTransform="translate(-167.89)" xlink:href="#linear-gradient"/><linearGradient id="linear-gradient-8" x1="441.71" y1="130.08" x2="396.09" y2="217.08" gradientTransform="translate(-167.89)" xlink:href="#linear-gradient"/><linearGradient id="linear-gradient-9" x1="365.24" y1="126.14" x2="606.81" y2="349.98" gradientTransform="translate(-167.89)" xlink:href="#linear-gradient"/><linearGradient id="linear-gradient-10" x1="3203.49" y1="885.38" x2="3303.8" y2="914.56" gradientTransform="matrix(0.26, -0.99, -1.1, -0.17, 252.87, 3574.5)" gradientUnits="userSpaceOnUse"><stop offset="0.01"/><stop offset="0.13" stop-opacity="0.69"/><stop offset="1" stop-opacity="0"/></linearGradient><linearGradient id="linear-gradient-11" x1="3185.11" y1="879.15" x2="3275.2" y2="907.24" xlink:href="#linear-gradient-10"/><linearGradient id="linear-gradient-12" x1="108.97" y1="276.21" x2="100.24" y2="131.21" gradientTransform="matrix(1, 0, 0, 1, 0, 0)" xlink:href="#linear-gradient-10"/></defs><title>7</title><path d="M20.69,250.12a51,51,0,0,0,2,9.23c5.14,16.34,18.05,30.53,33.15,39.34,17.52,10.23,32.27,14.58,47.39,14.58a97.21,97.21,0,0,0,22.84-2.95c1-.23,2-.49,3-.75q3.78-1,7.72-2.22l3.19-1,1.62-.54c2.17-.73,4.37-1.5,6.63-2.32l3.42-1.26c11.06-4.13,21.71-9.89,32.58-14.6,10-4.34,20.25-7.79,31.13-8.23,27.41-1.11,51.84,17.1,78.88,21.77,32.47,5.6,67-10.25,85.93-37.24q1.41-2,2.69-4.08c.26-.41.51-.83.76-1.24.67-1.11,1.31-2.22,1.92-3.35.28-.51.55-1,.82-1.55s.58-1.13.86-1.7l.07-.14c.29-.57.56-1.14.83-1.72h0a98.35,98.35,0,0,0,6-16.74,107.64,107.64,0,0,0-3.1-63.91q-1-2.75-2.19-5.43c-3.86-8.86-9.13-17.15-16.4-23.46-14.68-12.76-35.19-15.82-52.83-24a119.57,119.57,0,0,1-23.82-15c-25.7-20.37-46-49-74.95-64.93a100.87,100.87,0,0,0-40.14-11.9,114,114,0,0,0-67.6,15.6C99.9,48.21,87.54,57.36,76.85,81.82c-5.91,13.52-11.3,31.71-16.06,57a85.78,85.78,0,0,1-2.13,8.68c-6.33,21.1-20.27,41.15-29.5,61.84-4.69,10.52-8.15,21.21-8.77,32.28A46.82,46.82,0,0,0,20.69,250.12Z" transform="translate(-20.32 -24.29)" fill="#db64c4" opacity="0.18" style="isolation:isolate"/><path d="M134,258.76c2.05.16,4.72.93,4.75,3s-2.41,2.87-4.35,3.22l-15.57,2.75a23,23,0,0,0-5.3,1.37c-1.6.71-3,1.76-4.56,2.59a24,24,0,0,1-10.13,2.59c-3.27.17-6.56.78-9.88.94a111.45,111.45,0,0,1-22-1.59,14.32,14.32,0,0,1-5.9-1.81A7.27,7.27,0,0,1,58,267.75l8.13-3.05a10.65,10.65,0,0,0,4.47-2.58c.47-.53.83-1.16,1.3-1.69,1.77-2,4.7-2.28,7.34-2.45,9.12-.59,18-1.46,27.12-1.1S124.77,258,134,258.76Z" transform="translate(-20.32 -24.29)" fill="url(#linear-gradient)"/><path d="M141.88,179.89c-3.32-.54-6.65-1.08-10-1.32a57.08,57.08,0,0,0-40.65,13.34,2.58,2.58,0,0,0-1.09,1.6c-.08,1.08,1.12,1.77,2.13,2.16a174,174,0,0,0,52.41,11.46,8.15,8.15,0,0,1,3.47.72c4.1,2.26,1.43,8.74,3.21,13.08,1.66,4,6.68,5.22,10.94,6.25,17,4.15,31.93,14.44,48.69,19.53,15.89,4.84,32.81,4.83,49.17,7.73,6.61,1.17,13.26,2.83,19.95,2.28,11-.9,20.59-7.57,29.1-14.6a3.83,3.83,0,0,0,1.47-1.87c.33-1.38-.87-2.61-2-3.5-12-9.64-26-16.53-39.8-23.35-5.92-2.92-11.91-5.87-18.36-7.32-6.26-1.41-12.8-1.37-19-3-6.4-1.68-12.19-5.05-18.22-7.76C190.92,185.29,165.81,183.77,141.88,179.89Z" transform="translate(-20.32 -24.29)" fill="url(#linear-gradient-2)"/><path d="M110.41,163l48.26-18.36a17.7,17.7,0,0,0,9.93-9.76c1.13-2.66,2.91-5.05,5.63-4.82,5.93.49-4.21-22.88-4.21-22.88l-31,10.14Z" transform="translate(-20.32 -24.29)" fill="#db64c4"/><path d="M110.41,163l48.26-18.36a17.7,17.7,0,0,0,9.93-9.76c1.13-2.66,2.91-5.05,5.63-4.82,5.93.49-4.21-22.88-4.21-22.88l-31,10.14Z" transform="translate(-20.32 -24.29)" fill="url(#linear-gradient-3)"/><path d="M177.4,170.81c.32-5.83,3.7-11.06,4.75-16.8,2-10.89-4.68-21.6-12.76-29.17-4.87-4.57-10.89-8.66-17.57-8.5-10.16.24-17.38,9.92-21.51,19.21s-7.31,19.8-15.55,25.75a7,7,0,0,1-4.35,1.66c-2.49-.14-4.28-2.41-5.45-4.61a30.48,30.48,0,0,1-3.29-17.64c.83-7,4-14.6.55-20.76-4.2-7.46-15.09-7.32-23.15-4.42l63.64-22.46s7.11-1.9,11.27,3.75c4.69,6.38,1,14.35,1,14.35l30.55-12a29.69,29.69,0,0,1,40,21.66c0,.27.11.54.16.82l5.22,27.51v6Z" transform="translate(-20.32 -24.29)" fill="#db64c4"/><path d="M177.4,170.81c.32-5.83,3.7-11.06,4.75-16.8,2-10.89-4.68-21.6-12.76-29.17-4.87-4.57-10.89-8.66-17.57-8.5-10.16.24-17.38,9.92-21.51,19.21s-7.31,19.8-15.55,25.75a7,7,0,0,1-4.35,1.66c-2.49-.14-4.28-2.41-5.45-4.61a30.48,30.48,0,0,1-3.29-17.64c.83-7,4-14.6.55-20.76-4.2-7.46-15.09-7.32-23.15-4.42l63.64-22.46s7.11-1.9,11.27,3.75c4.69,6.38,1,14.35,1,14.35l30.55-12a29.69,29.69,0,0,1,40,21.66c0,.27.11.54.16.82l5.22,27.51v6Z" transform="translate(-20.32 -24.29)" fill="url(#linear-gradient-4)"/><path d="M167.77,190.65a24.88,24.88,0,0,0-.78,9c.71,5,3.92,9.22,7.1,13.13s6.68,8,11.21,10.46a20.93,20.93,0,0,0,19.49,0c1.47-.79,2.93-1.79,4.6-1.82a8.29,8.29,0,0,1,3.9,1.29c18.75,10,70.21,36.91,74.64,26.86,3.47-7.86-1.35-14.22-4.19-19-.48-.81-1-1.63-1.53-2.45-15.65-23.7-56.54-50.89-93.64-63.89-3-1.07-4.64-2.21-7.51-.84-2.62,1.25-4.87,4.89-6.3,7.28-3.36,5.57-5.06,12-6.58,18.3C168,189.5,167.91,190.08,167.77,190.65Z" transform="translate(-20.32 -24.29)" fill="#db64c4"/><path d="M167.77,190.65a24.88,24.88,0,0,0-.78,9c.71,5,3.92,9.22,7.1,13.13s6.68,8,11.21,10.46a20.93,20.93,0,0,0,19.49,0c1.47-.79,2.93-1.79,4.6-1.82a8.29,8.29,0,0,1,3.9,1.29c18.75,10,70.21,36.91,74.64,26.86,3.47-7.86-1.35-14.22-4.19-19-.48-.81-1-1.63-1.53-2.45-15.65-23.7-56.54-50.89-93.64-63.89-3-1.07-4.64-2.21-7.51-.84-2.62,1.25-4.87,4.89-6.3,7.28-3.36,5.57-5.06,12-6.58,18.3C168,189.5,167.91,190.08,167.77,190.65Z" transform="translate(-20.32 -24.29)" fill="url(#linear-gradient-5)"/><path d="M183.27,162.43h0c.47.22,60.83,28.16,100.46,68.11l.55-.28,53.23-27.63S297,164.12,245,140.08a9.51,9.51,0,0,0-7.51-.11L184.3,162Z" transform="translate(-20.32 -24.29)" fill="#db64c4"/><path d="M287.66,169.42c7.37,3.37,28.41,19.2,42.61,31.86l-45.1,23.11c-9.63-10-31.65-26.42-42.1-33.37C262.07,184.31,277.59,176.74,287.66,169.42Z" transform="translate(-20.32 -24.29)" fill="url(#linear-gradient-6)"/><path d="M289.64,172.8a42.47,42.47,0,0,1,7.86,5.29l-8.3,4.09a57.51,57.51,0,0,0-7.54-5.66Z" transform="translate(-20.32 -24.29)" fill="#fff"/><path d="M279.34,177.8a42,42,0,0,1,7.86,5.29l-8.3,4.09a57.51,57.51,0,0,0-7.54-5.66Z" transform="translate(-20.32 -24.29)" fill="#fff"/><path d="M269,182.8a42,42,0,0,1,7.86,5.29l-8.3,4.09a58.51,58.51,0,0,0-7.54-5.67Z" transform="translate(-20.32 -24.29)" fill="#fff"/><path d="M258.74,187.8a42.32,42.32,0,0,1,7.86,5.28l-8.3,4.1a57.6,57.6,0,0,0-7.54-5.67Z" transform="translate(-20.32 -24.29)" fill="#fff"/><path d="M299.12,180a43,43,0,0,1,7.86,5.28l-8.31,4.1a56.94,56.94,0,0,0-7.54-5.67Z" transform="translate(-20.32 -24.29)" fill="#fff"/><path d="M288.82,185a43,43,0,0,1,7.86,5.28l-8.31,4.1a56.94,56.94,0,0,0-7.54-5.67Z" transform="translate(-20.32 -24.29)" fill="#fff"/><path d="M278.52,190a43,43,0,0,1,7.86,5.28l-8.31,4.09a57.74,57.74,0,0,0-7.54-5.66Z" transform="translate(-20.32 -24.29)" fill="#fff"/><path d="M268.22,195a43,43,0,0,1,7.86,5.28l-8.31,4.09a57.74,57.74,0,0,0-7.54-5.66Z" transform="translate(-20.32 -24.29)" fill="#fff"/><path d="M308.59,187.22a41.82,41.82,0,0,1,7.86,5.28l-8.3,4.09a57.74,57.74,0,0,0-7.54-5.66Z" transform="translate(-20.32 -24.29)" fill="#fff"/><path d="M298.29,192.22a41.82,41.82,0,0,1,7.86,5.28l-8.3,4.09a57.51,57.51,0,0,0-7.54-5.66Z" transform="translate(-20.32 -24.29)" fill="#fff"/><path d="M288,197.21a42.47,42.47,0,0,1,7.86,5.29l-8.3,4.09a57.51,57.51,0,0,0-7.54-5.66Z" transform="translate(-20.32 -24.29)" fill="#fff"/><path d="M277.69,202.21a42,42,0,0,1,7.86,5.29l-8.3,4.09a57.51,57.51,0,0,0-7.54-5.66Z" transform="translate(-20.32 -24.29)" fill="#fff"/><path d="M318.07,194.42a42.63,42.63,0,0,1,7.86,5.29l-8.3,4.09a56.94,56.94,0,0,0-7.55-5.66Z" transform="translate(-20.32 -24.29)" fill="#fff"/><path d="M307.77,199.42a43,43,0,0,1,7.86,5.28l-8.3,4.1a57,57,0,0,0-7.55-5.67Z" transform="translate(-20.32 -24.29)" fill="#fff"/><path d="M297.47,204.42a43,43,0,0,1,7.86,5.28l-8.3,4.1a57.69,57.69,0,0,0-7.55-5.67Z" transform="translate(-20.32 -24.29)" fill="#fff"/><path d="M287.17,209.42A43,43,0,0,1,295,214.7l-8.3,4.1a57.69,57.69,0,0,0-7.55-5.67Z" transform="translate(-20.32 -24.29)" fill="#fff"/><path d="M196.68,160.89l2.23,1c13.33,6.23,28.62,15.79,40.08,24.15l39.73-18.85,2-.94c-11.13-8.73-26.55-17.34-39.58-23.16Z" transform="translate(-20.32 -24.29)" fill="url(#linear-gradient-7)"/><path d="M241.13,143.11l-.49,2.11,38.08,22,2-.94C268.72,156.36,255.37,149.49,241.13,143.11Z" transform="translate(-20.32 -24.29)" fill="url(#linear-gradient-8)"/><path d="M198.91,161.91c13.33,6.23,28.62,15.79,40.08,24.15l39.73-18.85c-12-8.17-26.8-17.06-38.08-22Z" transform="translate(-20.32 -24.29)" fill="url(#linear-gradient-9)"/><path d="M284.91,251.77l55.47-25.2s10.34-8.74-2.86-23.94l-53.78,27.91S294.2,245.72,284.91,251.77Z" transform="translate(-20.32 -24.29)" fill="#db64c4"/><path d="M54.85,223.61l-2.2-36.76a4.41,4.41,0,0,1,4.18-4.35l68.83-6.87a4,4,0,0,1,4.65,3.46l2.21,36.77a4.4,4.4,0,0,1-4.18,4.34L59.5,227.07A4,4,0,0,1,54.85,223.61Z" transform="translate(-20.32 -24.29)" fill="#db64c4"/><path d="M130.39,180.43l2.21,36.77a4.08,4.08,0,0,1,0,.78,4.56,4.56,0,0,1-4.14,3.56L59.6,228.41A4,4,0,0,1,54.93,225h0l-1-16.84-1.19-19.92a4.41,4.41,0,0,1,4.17-4.35L125.74,177C128.18,176.73,130.26,178.27,130.39,180.43Z" transform="translate(-20.32 -24.29)" opacity="0.58" fill="url(#linear-gradient-10)" style="isolation:isolate"/><path d="M129.21,182.53c.11-.16.23-.33.36-.49s.24-.29.42-.27a.52.52,0,0,1,.2.09,1.22,1.22,0,0,1,.37,1c0,.39-.16.76-.22,1.15l.92-.33a1.49,1.49,0,0,1,.65-.14,1,1,0,0,1,.85,1,2.27,2.27,0,0,1-.47,1.33,1.21,1.21,0,0,1,.25,1.36,3.49,3.49,0,0,1-.86,1.19.93.93,0,0,1,.07,1.34.58.58,0,0,0-.14.17c0,.11,0,.22.06.32s-.19.45-.39.6a5.58,5.58,0,0,1-1,.62,5.52,5.52,0,0,1-2.29.33l-3.94,0a1.21,1.21,0,0,1-1.08-.36,1.09,1.09,0,0,1-.13-.62,5.07,5.07,0,0,1,.5-1.95,8,8,0,0,1,.72-1.8,2.86,2.86,0,0,1,.61-.64,4.58,4.58,0,0,1,1-.29,4.59,4.59,0,0,0,2.23-1.77C128.41,183.83,128.78,183.16,129.21,182.53Z" transform="translate(-20.32 -24.29)" fill="#fcbdba"/><path d="M131.54,201.14l1,16.84a4.56,4.56,0,0,1-4.14,3.56L59.6,228.41A4,4,0,0,1,54.93,225h0l-1-16.84a4.56,4.56,0,0,1,4.14-3.56l68.84-6.87a4,4,0,0,1,4.64,3.46Z" transform="translate(-20.32 -24.29)" opacity="0.58" fill="url(#linear-gradient-11)" style="isolation:isolate"/><path d="M128,191.85s-16.69,6.39-23.59,3l-2.84,17.44L83.7,209.49s-3-27.58-4.63-29.21l10.81-1.08,23.72,8.19Z" transform="translate(-20.32 -24.29)" opacity="0.58" fill="url(#linear-gradient-12)" style="isolation:isolate"/><path d="M58.72,204.94,58.25,197a2.42,2.42,0,0,1,2.31-2.4l10.81-1.08a2.21,2.21,0,0,1,2.57,1.92l.48,7.91a2.45,2.45,0,0,1-2.32,2.41l-10.8,1.07A2.22,2.22,0,0,1,58.72,204.94Z" transform="translate(-20.32 -24.29)" fill="#fdb523"/><path d="M74.2,200.54l.07,1.29-4.51.45a1.89,1.89,0,0,1-.91,1.36l-.15.08-.16,0c-.37,0-3.6.45-4.49.44a2.34,2.34,0,0,1-1.82-1.37l-3.59.35-.08-1.29,4.67-.47.2.46c.2.51.57,1,.75,1,.54,0,2.61-.22,4-.4a.77.77,0,0,0,.11-.64l-.11-.7Z" transform="translate(-20.32 -24.29)" fill="#efa92b"/><path d="M74.05,198.12l-.08-1.3-4.5.45a1.74,1.74,0,0,0-1.07-1.16l-.15-.05h-.17c-.37,0-3.64.28-4.48.45A2.55,2.55,0,0,0,62,198.25l-3.58.36.07,1.29,4.68-.46.12-.49a2.25,2.25,0,0,1,.63-1.16c.52-.12,2.6-.29,4-.4a.8.8,0,0,1,.19.61l0,.72Z" transform="translate(-20.32 -24.29)" fill="#efa92b"/><polygon points="38.2 176.7 38.18 176.42 53.84 174.86 53.86 175.13 38.2 176.7" fill="#efa92b"/><polygon points="38.45 180.99 38.44 180.72 54.1 179.15 54.12 179.43 38.45 180.99" fill="#efa92b"/><polygon points="37.94 172.41 37.92 172.13 53.58 170.57 53.6 170.84 37.94 172.41" fill="#efa92b"/><path d="M62.09,215.56l9.18-.88a2.08,2.08,0,0,1,2.4,1.81l0,.42a2.29,2.29,0,0,1-2.18,2.24l-9.17.88a2.08,2.08,0,0,1-2.4-1.8l0-.42A2.29,2.29,0,0,1,62.09,215.56Z" transform="translate(-20.32 -24.29)" fill="#db64c4" opacity="0.32" style="isolation:isolate"/><path d="M79.38,214.6l9.2-.85a2.07,2.07,0,0,1,2.4,1.82l0,.42a2.29,2.29,0,0,1-2.19,2.24l-9.2.85a2.08,2.08,0,0,1-2.4-1.82l0-.42A2.28,2.28,0,0,1,79.38,214.6Z" transform="translate(-20.32 -24.29)" fill="#db64c4" opacity="0.32" style="isolation:isolate"/><path d="M96.87,212.75l9.18-.88a2.08,2.08,0,0,1,2.4,1.8l0,.42a2.29,2.29,0,0,1-2.17,2.25l-9.18.88a2.08,2.08,0,0,1-2.4-1.81l0-.42A2.28,2.28,0,0,1,96.87,212.75Z" transform="translate(-20.32 -24.29)" fill="#db64c4" opacity="0.32" style="isolation:isolate"/><path d="M114.26,211.35l9.18-.88a2.07,2.07,0,0,1,2.4,1.8l0,.42a2.28,2.28,0,0,1-2.18,2.24l-9.17.89a2.08,2.08,0,0,1-2.4-1.81l0-.42A2.28,2.28,0,0,1,114.26,211.35Z" transform="translate(-20.32 -24.29)" fill="#db64c4" opacity="0.32" style="isolation:isolate"/><path d="M100.2,206.88s12.67,19.25,15.28,25.43,4.23,25,4.23,25l-5.84.56s-1.81-18.95-4.59-21.9S91.12,218,91.12,218Z" transform="translate(-20.32 -24.29)" fill="#473f47"/><path d="M101.28,208.79s-6.54,26.42-9.92,32.29-12.63,16.54-12.63,16.54l-5-2.67s12.81-16.81,12.1-21.75-2.53-23.74-2.53-23.74S92.34,204.61,101.28,208.79Z" transform="translate(-20.32 -24.29)" fill="#473f47"/><path d="M86.79,171.49s-5.71,2.63-5,8.94,4.14,20.51,2.67,24.72-.78,4.34-.78,4.34,12.76,4.86,18.08-.66c0,0-2.7-28.4-3.75-32A8.45,8.45,0,0,0,86.79,171.49Z" transform="translate(-20.32 -24.29)" fill="#fff"/><path d="M88,171.24l-9.6,3.1a9.15,9.15,0,0,0-6.67,6.46l-.06.22,10.74-1Z" transform="translate(-20.32 -24.29)" fill="#fff"/><path d="M97.7,160c.29.3.67.61.67,1a1.8,1.8,0,0,1-.38.86c-.9,1.54-.08,3.72-1.17,5.13a2.94,2.94,0,0,1-1.56,1,5.49,5.49,0,0,0-1.77.57,2.22,2.22,0,0,0-.66,1.54c-.06.7.06,1.4,0,2.1a1.36,1.36,0,0,1-.58,1.21,1.54,1.54,0,0,1-.61.12,15.09,15.09,0,0,1-3.61-.28,1.09,1.09,0,0,1-.47-.19,1,1,0,0,1-.26-.57c-.51-2.31-1-4.63-1.55-6.94a16.07,16.07,0,0,0-1.12-2.41,8,8,0,0,1-.41-3.62,6.88,6.88,0,0,1,.92-2.59,5.14,5.14,0,0,1,1.64-1.88,6.38,6.38,0,0,1,1.64-.68c2-.61,5.09-1.43,6.81.27C96.67,156.07,96.21,158.53,97.7,160Z" transform="translate(-20.32 -24.29)" fill="#fcbdba"/><path d="M89.43,165.38a1.09,1.09,0,0,0-.54-.41c-.15-.05-.32-.07-.47-.12a2.07,2.07,0,0,1-.81-.6,2.6,2.6,0,0,1-.39-.5,1.8,1.8,0,0,1,.12-1.75,1.75,1.75,0,0,1,.79-.78,1.05,1.05,0,0,1,1.07.12c.24.2.35.51.61.68a1.36,1.36,0,0,0,.32-1.12c0-.4-.19-.78-.26-1.17a2.71,2.71,0,0,1-.05-1.2c.09-.27.4-.4.66-.51a10.6,10.6,0,0,1,1.92-.49,10.38,10.38,0,0,0,4.81-3,1.9,1.9,0,0,0,.65-1.14,1.63,1.63,0,0,0-.77-1.26,5.91,5.91,0,0,0-4.46-.77,44.31,44.31,0,0,0-4.46,1.28c-1.42.4-2.88.64-4.28,1.09a3.21,3.21,0,0,0-.84.39,2.48,2.48,0,0,0-.75,1,3.65,3.65,0,0,0,0,3.27,1.43,1.43,0,0,1,.22.49,1.39,1.39,0,0,1-.07.53c-.35,1.52.43,3.06,1.17,4.44l2,3.62a3.34,3.34,0,0,0,.85,1.14,1.85,1.85,0,0,0,1.62.14c.43-.15,1.13-.51,1.07-1a.55.55,0,0,1,.17-.38,1.89,1.89,0,0,0,.41-1.31A1.3,1.3,0,0,0,89.43,165.38Z" transform="translate(-20.32 -24.29)" fill="#473f47"/><path d="M69.62,258a.85.85,0,0,0,0,1.41,27.34,27.34,0,0,0,8.49,6.2c.89.41,2.1.71,2.7-.06s0-1.94-.54-2.82A9.32,9.32,0,0,1,79,258.89a3.68,3.68,0,0,0-.28-1.37c-.62-1.16-3.71-2.36-5-2.35C72.06,255.18,70.67,256.84,69.62,258Z" transform="translate(-20.32 -24.29)" fill="#db64c4"/><path d="M112.33,262.18a1.1,1.1,0,0,0,.15.84,1.13,1.13,0,0,0,.66.31,27.33,27.33,0,0,0,10.51.16c1-.17,2.13-.63,2.18-1.61s-1.15-1.56-2.08-2a9.6,9.6,0,0,1-3.24-2.44,3.54,3.54,0,0,0-1-1c-1.18-.58-4.4.21-5.44,1C112.68,258.45,112.5,260.61,112.33,262.18Z" transform="translate(-20.32 -24.29)" fill="#db64c4"/><path d="M96.66,174.22l8.83,7.19c2.77,2.25,6.62,4.65,10.19,4.65l9.43.13-.68,6.1s-12.35,2.57-16.77,0l-13-7.42S90.17,175.42,96.66,174.22Z" transform="translate(-20.32 -24.29)" fill="#fff"/><path d="M204.86,138.52a1,1,0,0,1-.4-1.92l16.7-7.1a1,1,0,0,1,.78,1.84l-16.69,7.1A1.09,1.09,0,0,1,204.86,138.52Z" transform="translate(-20.32 -24.29)" fill="#db64c4"/><path d="M191.71,144.11a1,1,0,0,1-.4-1.92l7.21-3.07a1,1,0,0,1,1.31.53,1,1,0,0,1-.53,1.31L192.1,144A1.09,1.09,0,0,1,191.71,144.11Z" transform="translate(-20.32 -24.29)" fill="#db64c4"/><path d="M206.71,128.19a1,1,0,0,1-.39-1.92l11.35-4.83a1,1,0,1,1,.79,1.84l-11.36,4.83A1.09,1.09,0,0,1,206.71,128.19Z" transform="translate(-20.32 -24.29)" fill="#db64c4"/><path d="M188.22,136.05a1,1,0,0,1-.39-1.92l11.48-4.88a1,1,0,0,1,.78,1.84L188.61,136A.91.91,0,0,1,188.22,136.05Z" transform="translate(-20.32 -24.29)" fill="#db64c4"/><path d="M209.58,117.43a1,1,0,0,1-.39-1.92l5-2.13a1,1,0,0,1,.78,1.84l-5,2.13A1.09,1.09,0,0,1,209.58,117.43Z" transform="translate(-20.32 -24.29)" fill="#db64c4"/><path d="M197,122.79a1,1,0,0,1-.39-1.92l9.21-3.91a1,1,0,0,1,.78,1.84l-9.21,3.91A.91.91,0,0,1,197,122.79Z" transform="translate(-20.32 -24.29)" fill="#db64c4"/><path d="M184.74,128a1,1,0,0,1-.92-.6,1,1,0,0,1,.52-1.32l7.64-3.24a1,1,0,0,1,.78,1.84l-7.63,3.24A.91.91,0,0,1,184.74,128Z" transform="translate(-20.32 -24.29)" fill="#db64c4"/><path d="M200.13,112.16a1,1,0,0,1-.39-1.92l9.45-4a1,1,0,0,1,.78,1.84l-9.45,4A.91.91,0,0,1,200.13,112.16Z" transform="translate(-20.32 -24.29)" fill="#db64c4"/><path d="M179.74,120.83a1,1,0,0,1-.92-.6,1,1,0,0,1,.52-1.32l14.93-6.34a1,1,0,0,1,.78,1.84l-14.92,6.34A.91.91,0,0,1,179.74,120.83Z" transform="translate(-20.32 -24.29)" fill="#db64c4"/><path d="M185.43,109.26a1,1,0,0,1-.92-.6,1,1,0,0,1,.53-1.32l14.7-6.24a1,1,0,1,1,.78,1.84l-14.69,6.24A.92.92,0,0,1,185.43,109.26Z" transform="translate(-20.32 -24.29)" fill="#db64c4"/><path d="M170.29,115.71a1,1,0,0,1-.4-1.92l8.86-3.77a1,1,0,1,1,.79,1.84l-8.86,3.77A1.09,1.09,0,0,1,170.29,115.71Z" transform="translate(-20.32 -24.29)" fill="#db64c4"/></svg>